<svg xmlns="http://www.w3.org/2000/svg" width="399.071" height="396.857"><g data-name="Group 1748"><path data-name="Path 10512" d="M212.031 396.856c100.625 0 182.2-16.225 182.2-36.242s-81.577-36.237-182.2-36.237-182.2 16.225-182.2 36.237 81.574 36.242 182.2 36.242z" fill="#ebebeb"/><g data-name="Group 1721"><path data-name="Path 10366" d="M388.059 268.25l-11.776.242-5.974.108c-1.991 0-4 0-6 .045h-.4v-.395l-.044-10.028v-.458h.447l11.875.055c3.956 0 7.921.1 11.875.143h.242v.242c0 1.7-.071 3.391-.116 5.067zm0 0l-.126-5.077c0-1.668-.108-3.318-.116-4.959l.242.242c-3.954.045-7.919.143-11.875.143l-11.875.055.45-.439-.055 10.037-.395-.395h5.867l5.9.108z" fill="#ebebeb"/><path data-name="Path 10400" d="M349.853 137.927a1.008 1.008 0 1 1 .12.383 1.008 1.008 0 0 1-.12-.383z" fill="#ebebeb"/><path data-name="Path 10513" d="M8.987 309.688l47.877-.226 47.886-.079 95.755-.145 95.763.145 47.878.079 47.878.226-47.878.214-47.878.081-95.763.145-95.755-.145-47.886-.081z" fill="#263238"/><path data-name="Path 10529" d="M357.124 236.257h-.69v73.313h.69z" fill="#263238"/><path data-name="Path 10530" d="M378.202 207.484L358.308 309.57h-.7l19.92-102.22z" fill="#263238"/><path data-name="Path 10531" d="M356.524 309.57h-.682l-6.027-127.932.69-.027 5.929 125.981z" fill="#263238"/><path data-name="Path 10532" d="M370.149 157.257a34.507 34.507 0 0 1-8.485 13.678c-5.229 5.382-10.6 8.287-10.549 8.862.163 1.632 1.749 4.108 1.623 4.646s-1.453 1.085-2.573 1.085-2.449-.538-2.575-1.085 1.463-3.014 1.615-4.646c.116-1.148-21.688-11.768-20.181-32.764.781-10.763 7.587-15.131 13.356-16.88a26.9 26.9 0 0 1 4.915-1 24.483 24.483 0 0 1 2.87-.17c3.068 0 19.884.744 21.131 18.055a27.644 27.644 0 0 1-1.147 10.225z" fill="#ffc727"/><path data-name="Path 10533" d="M351.117 179.795c.163 1.632 1.749 4.108 1.623 4.646s-1.453 1.085-2.573 1.085-2.449-.538-2.575-1.085 1.463-3.013 1.615-4.646c.116-1.148-21.688-11.768-20.181-32.764.781-10.763 7.587-15.131 13.356-16.88-5.122 4.377-11.428 12.987-6.861 27.015 4.215 12.952 16.6 16.79 26.145 13.768-5.231 5.372-10.604 8.287-10.549 8.861z" opacity=".1"/><path data-name="Path 10534" d="M364.748 140.78a4.753 4.753 0 1 1-1.4-3.356 4.752 4.752 0 0 1 1.4 3.356z" fill="#fff"/><path data-name="Path 10535" d="M397.845 181.625a34.415 34.415 0 0 1-8.487 13.678c-5.219 5.382-10.6 8.287-10.547 8.861.163 1.633 1.749 4.109 1.623 4.646s-1.452 1.086-2.565 1.086-2.457-.539-2.583-1.086 1.463-3.013 1.623-4.646c.108-1.147-21.686-11.767-20.181-32.764.773-10.763 7.58-15.131 13.346-16.88a27.083 27.083 0 0 1 4.917-1 24.542 24.542 0 0 1 2.878-.17c3.068 0 19.886.745 21.123 18.055a27.691 27.691 0 0 1-1.147 10.225z" fill="#c7c7c7"/><path data-name="Path 10536" d="M378.812 204.164c.163 1.633 1.749 4.109 1.623 4.646s-1.452 1.086-2.565 1.086-2.457-.539-2.583-1.086 1.463-3.013 1.623-4.646c.108-1.147-21.686-11.767-20.181-32.764.773-10.763 7.58-15.131 13.346-16.88-5.112 4.377-11.426 12.987-6.861 27.015a20.583 20.583 0 0 0 26.145 13.768c-5.22 5.372-10.6 8.287-10.547 8.861z" fill="#a6a6a6"/><path data-name="Path 10537" d="M393.118 165.212a4.736 4.736 0 1 1-.358-1.819 4.753 4.753 0 0 1 .358 1.819z" fill="#fff"/><path data-name="Path 10538" d="M376.75 210.426a34.714 34.714 0 0 1-8.619 13.777c-5.185 5.273-10.449 8.143-10.4 8.708.152 1.623 1.741 4.109 1.615 4.646s-1.481 1.094-2.565 1.094-2.457-.539-2.583-1.086 1.462-3.021 1.623-4.646c.116-1.147-21.688-11.768-20.181-32.764.781-10.853 7.687-15.2 13.454-16.925a28.3 28.3 0 0 1 4.888-.978 26.493 26.493 0 0 1 2.773-.161c3.067 0 19.884.753 21.131 18.064a27.762 27.762 0 0 1-1.139 10.27z" fill="#37474f"/><path data-name="Path 10539" d="M335.643 200.147c.781-10.853 7.687-15.2 13.454-16.925-5.148 4.323-11.66 12.979-7.058 27.185 4.2 12.917 16.54 16.774 26.064 13.8-5.183 5.273-10.447 8.143-10.395 8.708.153 1.623 1.739 4.109 1.615 4.646s-1.454 1.094-2.539 1.094-2.457-.539-2.583-1.086 1.462-3.021 1.623-4.646c.116-1.159-21.688-11.78-20.181-32.776z" fill="#263238"/><path data-name="Path 10540" d="M371.449 193.806a4.761 4.761 0 1 1-.362-1.819 4.753 4.753 0 0 1 .362 1.819z" fill="#fff"/><path data-name="Path 10541" d="M363.708 292.556h-13.067v17.077h13.067z" fill="#ffc727"/></g><g data-name="Group 1720"><path data-name="Path 20568" d="M287.139 71.951s-3.4 1.727-.64 9.745-3.5 12.026-5.117 8.871c0 0 .106 5.086 6.28 5.086s7.271-5.107 7.271-5.107 2.218 2.431 2.218 9.276-6.525 32.55 16.323 32.55 22.442-19.469 22.442-19.469 5.853.107 5.853-8.657c0 0-8.9 5.533-8.9-6.823s2.036-28.008-7.346-28.008c0 0 3.252-6.706-3.2-11S296.5 59.961 296.5 59.961s-5.822-3.5-9.99.64c-5.128 5.07.629 11.35.629 11.35z" fill="#916003"/><path data-name="Path 20569" d="M292.791 337.085l-3.774-2.441v-4.871l3.636.316z" fill="#263238"/><path data-name="Path 20570" d="M297.94 324.665l-.138 9.395-5.011 3.025-.576-8.016s3.912-4.463 5.725-4.404z" fill="#263238"/><path data-name="Path 20571" d="M284.261 313.642s-.266.2-3.444 8.732-6.482 11.664-8.4 13.262-6.29 4.543-6.29 6.826 3.678 4.072 9.063 3.6 12.965-1.779 14.926-8.24c.629-2.133.746-5.908 3.2-8.529s4.638-4.627 4.638-4.627.245-8.615-2.132-10.928z" fill="#37474f"/><path data-name="Path 20572" d="M284.016 303.161l.266 11.344s.405 3.455 5.726 2.75 5.661-3.166 5.661-3.166l2.4-10.961z" fill="#ffa8a7"/><path data-name="Path 20573" d="M287.289 171.776s-3.572 47.007-3.71 72.243.437 59.141.437 59.141a15.1 15.1 0 0 0 14.073 0l7.175-34.373a31.1 31.1 0 0 0 0-12.55 19.826 19.826 0 0 1 .064-8.156l8.636-39.544v-36.761z" fill="#455a64"/><path data-name="Path 20574" d="M294.315 181.404s1.066 11.355 9.6 17.059l6.312 27.327 3.732-17.251v-27.135z" fill="#37474f"/><path data-name="Path 20575" d="M331.106 325.153s-1.365.342-.981 3.475.864 7.145.864 7.145.448 6.494.416 10.736-.277 9.938.586 12.963 2.654 6.25 5.427 6.154 9.254-4.158 8.625-14.928c-.171-2.92-3.2-12.793-3.2-12.793s.491-9.6.416-11.973a1.936 1.936 0 0 0-1.065-1.844z" fill="#37474f"/><path data-name="Path 20576" d="M329.562 316.446l1.694 9.594s.822 2.889 5.982 2.889a4.9 4.9 0 0 0 4.946-4.061l.31-9.17z" fill="#ffa8a7"/><path data-name="Path 20577" d="M287.289 171.777s6.269 19.947 19.287 23.455l10.736 52.423 12.25 68.79a10.792 10.792 0 0 0 12.933-.769l1.813-52.241a26.871 26.871 0 0 0-2.058-11.3 23.614 23.614 0 0 1-1.823-9.232c.064-11.611.213-40.834.224-48.073 0-9.085-2.538-22.583-4.521-27.273z" fill="#455a64"/><path data-name="Path 20578" d="M273.162 145.942l-15.512-6.706-5.459 10.534 16.088 8.657s6.643-5.331 4.883-12.485z" fill="#ffa8a7"/><path data-name="Path 20579" d="M296.511 109.256l-1.749.267a10.78 10.78 0 0 0-8.593 7.144l-10.47 30.46-2.537-1.184s-.277 7.463-4.883 12.517l6.653 3.2a8.689 8.689 0 0 0 11.238-3.23l5.5-9.02z" fill="#016ca4"/><path data-name="Path 20580" d="M296.511 109.256l-1.749.267a10.78 10.78 0 0 0-8.593 7.144l-10.47 30.46-2.537-1.184s-.277 7.463-4.883 12.517l6.653 3.2a8.689 8.689 0 0 0 11.238-3.23l5.5-9.02z" opacity=".2"/><path data-name="Path 20581" d="M275.7 147.126l6.024 2.8-5.107-5.469z" fill="#016ca4"/><path data-name="Path 20582" d="M275.7 147.126l6.024 2.8-5.107-5.469z" opacity=".4"/><path data-name="Path 20583" d="M298.005 109.181a184.721 184.721 0 0 1 27.5.49 21.067 21.067 0 0 1-19.49 8.38c-6.902-.713-9.073-6.481-8.01-8.87z" fill="#ffaaa8"/><path data-name="Path 20584" d="M318.634 109.96l-14.116-.128V89.063h14.116z" fill="#ffaaa8"/><path data-name="Path 20585" d="M304.518 106.186a22.708 22.708 0 0 0 12.976-12.336v-4.787h-12.976z" fill="#ff9090"/><path data-name="Path 20586" d="M301.224 65.917s-12.911.757-11.312 22.827c.736 10.214 3.135 15.5 10.993 15.118 8.9-.448 21.547-6.568 20.715-24.031s-20.396-13.914-20.396-13.914z" fill="#ffaaa8"/><path data-name="Path 20587" d="M318.635 89.063s-3.54.928-3.54-4.137c0 0-15.726-1.066-19.191-16.675 0 0 1.557-4.68 11.376-4.68s18.072 8.689 15.513 20.62z" fill="#916003"/><path data-name="Path 20588" d="M299.38 84.318v7.591l-4.446-1.365z" fill="#ff9090"/><path data-name="Path 20589" d="M306.064 85.128a1.546 1.546 0 1 1-.453-1.093 1.545 1.545 0 0 1 .453 1.093z" fill="#263238"/><path data-name="Path 20590" d="M295.893 84.052a1.546 1.546 0 1 1-.118-.592 1.545 1.545 0 0 1 .118.592z" fill="#263238"/><path data-name="Path 20591" d="M292.47 80.832l3.028-1.8s-1.162-1.2-2.314-.48a2.134 2.134 0 0 0-.715 2.282z" fill="#263238"/><path data-name="Path 20592" d="M299.763 94.457a7.91 7.91 0 0 0 4.979-1.333s.342 2.623-1.855 3.124-3.124-1.791-3.124-1.791z" fill="#ff9090"/><path data-name="Path 20593" d="M317.387 89.638a8.676 8.676 0 0 1 .671-3.71 3.967 3.967 0 0 1 3.434-2.687c3.965-.107 4.51 3.71 4.456 5.064-.149 3.572-3.038 7.463-8.412 7.58z" fill="#ffaaa8"/><path data-name="Path 20594" d="M304.387 108.582s-4.3 6.6 3.991 7.311 9.826-5.712 11.2-7.311l11.251 1.713 1.888 25.087-3.007 10.491a13.86 13.86 0 0 0 1.226 10.523 91.609 91.609 0 0 1 5.246 11.12s-9.819 8.69-29.554 8.69c-12.1 0-19.287-4.425-19.287-4.425s2.559-15.992 2.868-19.671a70.585 70.585 0 0 0 .331-9.6s-6.194-2.42-6.194-11.834c0-8.125 12.218-21.377 12.218-21.377z" fill="#016ca4"/><path data-name="Path 20595" d="M336.397 177.93l-1.759 14.1 10.747 1.993 3.39-12.613a8.975 8.975 0 0 0-12.378-3.476z" fill="#ffa8a7"/><path data-name="Path 20596" d="M326.523 109.789s-4.062 4.18 1.632 19.543 10.575 29.853 10.575 29.853l-2.334 18.775s7.89-1.855 12.378 3.476l3.646-15.3a21.541 21.541 0 0 0-.245-10.949l-10.075-35.28a13.233 13.233 0 0 0-11.088-9.6h-.16z" fill="#016ca4"/><path data-name="Path 20597" d="M326.523 109.789s-4.062 4.18 1.632 19.543 10.575 29.853 10.575 29.853l-2.334 18.775s7.89-1.855 12.378 3.476l3.646-15.3a21.541 21.541 0 0 0-.245-10.949l-10.075-35.28a13.233 13.233 0 0 0-11.088-9.6h-.16z" opacity=".2"/><path data-name="Path 20598" d="M338.731 159.151a11.961 11.961 0 0 1 6.194 0 9.064 9.064 0 0 0-6.663-1.375z" fill="#ba68c8"/><path data-name="Path 20599" d="M338.731 159.151a11.961 11.961 0 0 1 6.194 0 9.064 9.064 0 0 0-6.663-1.375z" opacity=".4"/><path data-name="Path 20600" d="M334.639 192.023a13.739 13.739 0 0 0-2.826 8.412c0 1.706-2.132 4.723-.331 5.47.757.319 3.05-1.76 3.828-4.329a14.084 14.084 0 0 1-.106 6.76c-.981 3.721-1.471 4.574.832 4.7s9.138-1.877 10.086-6.493-.736-12.527-.736-12.527z" fill="#ffa8a7"/><path data-name="Path 20601" d="M257.97 141.188s-.394-3.85-1.748-5.715a29.652 29.652 0 0 1-3.294-5.1c-.437-1.215-1.173-2.74-2.388-.6s.629 5.054 1.546 6.536h-9.19v7.463s1.365 5.864 9.3 6.024z" fill="#ffa8a7"/><path data-name="Path 20602" d="M248.971 136.316l-.864-1.45s-2.314-1.621-3.785-1.066-1.717 1.643-1.546 3.743c.181 2.324 2.367 6.866 4.382 5.107 1.258-1.066-.864-4.681-.565-6.322z" fill="#ffa8a7"/><path data-name="Path 20603" d="M245.847 136.316l-.853-1.45s-2.314-1.621-3.785-1.066-1.729 1.642-1.556 3.742c.192 2.324 2.378 6.866 4.393 5.107 1.247-1.066-.864-4.681-.565-6.322z" fill="#ffa8a7"/><path data-name="Path 20604" d="M252.084 136.316l-.853-1.45s-2.324-1.621-3.8-1.066-1.717 1.643-1.546 3.743c.192 2.324 2.378 6.866 4.382 5.107 1.258-1.066-.864-4.681-.565-6.322z" fill="#ffa8a7"/><path data-name="Path 5541" d="M303.688 128.706a1.388 1.388 0 0 0-1.344 1.205 1.052 1.052 0 0 0 1.065 1.205 1.389 1.389 0 0 0 1.344-1.205 1.052 1.052 0 0 0-1.065-1.205z" fill="#dbdadb" fill-rule="evenodd"/><path data-name="Path 5542" d="M300.665 139.979a1.391 1.391 0 0 0-1.345 1.2 1.053 1.053 0 0 0 1.066 1.2 1.39 1.39 0 0 0 1.344-1.2 1.053 1.053 0 0 0-1.065-1.2z" fill="#dbdadb" fill-rule="evenodd"/><g data-name="Group 1737" fill="#00486e" fill-rule="evenodd"><path data-name="Path 5532" d="M333.323 110.803a33.891 33.891 0 0 0-10.032-1.82c-.383.027-3.427-.463-3.427-.463l-11.166 25.012a11.667 11.667 0 0 0-1.642 8.21c.766 4.927 2.737 14.014 2.737 14.014 1.28 10.24 3.613 27.61 5.693 39.2 0 0 .164 1.259 2.025 1.806s13.717 8.521 19.869 4.921 5.078-17.3 4.749-19.325-13.1-30.5-13.1-30.5 8.4-39.449 4.294-41.055z"/><path data-name="Path 5533" d="M300.433 108.576s-7.5 21.565-8.155 23.536-.986 3.613-.219 7.992a8.109 8.109 0 0 1 .219 2.163c.027 1.614-.192 10.155-.192 10.155l-.875 40.508a2.785 2.785 0 0 1-1.643 2.08c-1.423.547-7.226 3.175-7.226 3.175s-.876.219-.876-.877 4.161-40.178 4.161-40.178l.711-14.178s-1.916-7.336-2.683-10.128.658-6.129 2.957-9.962 7.094-12.649 7.094-12.649l6.045-1.939a.6.6 0 0 1 .682.302z"/></g><path data-name="Path 5516" d="M318.764 108.272l-10.535 7.469s2.046 8.967 5.275 7.887 6.037-7.57 7.533-11.512-2.273-3.844-2.273-3.844z" fill="#dbdadb" fill-rule="evenodd"/><path data-name="Path 5517" d="M308.323 115.882s-2.26-6.125-3.9-7.24-3.117.552-3.9 4.178-1.639 8.879 0 9.995 7.8-6.933 7.8-6.933z" fill="#dbdadb" fill-rule="evenodd"/><g data-name="Group 157"><g data-name="Group 152"><path data-name="Path 5648" d="M291.976 90.676a7.14 7.14 0 0 1-4.437-1.056 4.719 4.719 0 0 1-2.144-3.291 7.836 7.836 0 0 1 .122-3.459 2.32 2.32 0 0 1 .77-1.12 4.659 4.659 0 0 1 2.884-.91 66.722 66.722 0 0 1 3.818.1q.95.046 1.9.106c1.857.116 2.921 1.1 2.92 2.7a9.4 9.4 0 0 1-.609 3.019 5.666 5.666 0 0 1-3.966 3.708 7.324 7.324 0 0 1-1.258.203zm-3.188-8.948a3.638 3.638 0 0 0-1.967.712 1.446 1.446 0 0 0-.478.71 7 7 0 0 0-.085 3.048 3.867 3.867 0 0 0 1.761 2.694 6.508 6.508 0 0 0 5 .73 4.819 4.819 0 0 0 3.365-3.161 8.37 8.37 0 0 0 .557-2.723c0-1.4-1.143-1.765-2.1-1.826q-.944-.059-1.888-.1a76.783 76.783 0 0 0-3.769-.1c-.135 0-.265.01-.392.016z" fill="#d1145a"/></g><g data-name="Group 153"><path data-name="Path 5649" d="M307.647 90.519a6.494 6.494 0 0 1-1.759-.095 5.237 5.237 0 0 1-3.966-3.526 9.107 9.107 0 0 1-.616-3.022c.005-1.566 1.093-2.532 2.922-2.594q.9-.028 1.778-.044a59.777 59.777 0 0 1 3.343.019 3.916 3.916 0 0 1 2.428.88 2.211 2.211 0 0 1 .656 1 7.674 7.674 0 0 1 .213 3.031 4.466 4.466 0 0 1-1.835 3.214 6.168 6.168 0 0 1-3.164 1.137zm-3.6-8.33c-.884.071-1.84.438-1.844 1.691a8.22 8.22 0 0 0 .561 2.709 4.375 4.375 0 0 0 3.3 2.958 5.5 5.5 0 0 0 4.218-.885 3.6 3.6 0 0 0 1.479-2.584 6.833 6.833 0 0 0-.168-2.652 1.321 1.321 0 0 0-.386-.6 3.043 3.043 0 0 0-1.891-.671c-.951-.037-2-.042-3.293-.019q-.87.015-1.766.044a2.178 2.178 0 0 0-.213.008z" fill="#d1145a"/></g><g data-name="Group 154"><path data-name="Path 5650" d="M301.965 83.535a15.949 15.949 0 0 0-4.751.131l-.135-.861a16.891 16.891 0 0 1 4.986-.136z" fill="#d1145a"/></g><g data-name="Group 155"><path data-name="Path 5651" d="M288.497 80.851l-4.019-.021-.131 3.153 1.19.132s.084-1.7 1.255-2.109a8.486 8.486 0 0 1 1.8-.468l-.022-.572" fill="#d1145a"/></g><g data-name="Group 156"><path data-name="Path 5652" d="M309.837 81.212l4.019.082.05 3.156-1.193.1s-.041-1.7-1.2-2.141a8.465 8.465 0 0 0-1.787-.514l.037-.571" fill="#d1145a"/></g></g></g><path data-name="Path 10549" d="M52.614 204.164c.152 1.633 1.74 4.109 1.614 4.646s-1.453 1.086-2.565 1.086-2.457-.539-2.583-1.086 1.462-3.013 1.623-4.646c.117-1.147-21.687-11.767-20.181-32.764.771-10.763 7.579-15.131 13.355-16.88-5.121 4.377-11.427 12.987-6.87 27.015 4.251 12.951 16.611 16.754 26.145 13.768-5.22 5.372-10.592 8.287-10.538 8.861z" fill="#37474f"/><path data-name="Path 10551" d="M50.542 210.426a34.708 34.708 0 0 1-8.619 13.777c-5.148 5.273-10.449 8.169-10.4 8.708.162 1.623 1.794 4.109 1.623 4.646s-1.453 1.094-2.574 1.094-2.449-.539-2.574-1.086 1.462-3.021 1.615-4.646c.117-1.147-21.687-11.768-20.181-32.763.78-10.853 7.687-15.2 13.454-16.925a28.01 28.01 0 0 1 4.915-.987 26.41 26.41 0 0 1 2.772-.161c3.067 0 19.884.753 21.131 18.064a27.735 27.735 0 0 1-1.162 10.279z" fill="#ffc727"/><path data-name="Path 10553" d="M45.241 193.806a4.753 4.753 0 1 1-1.392-3.361 4.753 4.753 0 0 1 1.392 3.361z" fill="#fff"/><path data-name="Path 10548" d="M71.637 181.625a34.406 34.406 0 0 1-8.485 13.678c-5.22 5.382-10.593 8.287-10.539 8.861.152 1.633 1.74 4.109 1.614 4.646s-1.453 1.086-2.565 1.086-2.457-.539-2.583-1.086 1.462-3.013 1.623-4.646c.117-1.147-21.687-11.767-20.181-32.764.771-10.763 7.579-15.131 13.355-16.88a26.816 26.816 0 0 1 4.906-1 24.551 24.551 0 0 1 2.879-.17c3.067 0 19.885.745 21.122 18.055a27.473 27.473 0 0 1-1.146 10.22z" fill="#455a64"/><path data-name="Path 10550" d="M66.909 165.212a4.746 4.746 0 1 1-.359-1.819 4.753 4.753 0 0 1 .359 1.819z" fill="#fff"/><g data-name="Group 1719"><path data-name="Path 20526" d="M116.465 327.754l.154 10.425 5.993 3.816 7.544-4.158v-9.5z" fill="#ffa8a7"/><path data-name="Path 20527" d="M75.073 335.034l-.154 11.745 2.243 3.814h10.227l1.65-16.143z" fill="#ffa8a7"/><path data-name="Path 20528" d="M131.915 196.013l.836 72.93-1.716 62.275s-4.245 5.092-15.8.736c0 0-6.136-42.81-5.179-59.328a49 49 0 0 0-.352-8.885l-8.8-68.366z" fill="#455a64"/><path data-name="Path 20529" d="M121.182 208.571a24.194 24.194 0 0 1-8.676 13.845l-5.246 22.269-4.641-36.19z" fill="#37474f"/><path data-name="Path 20530" d="M78.669 195.396s-.517 26.8-.561 45.538c0 10.447.066 17.945.143 22.543a35.2 35.2 0 0 1-1.2 9.687c-1.353 5.113-3.3 14.978-3.3 30.076 0 23.488.22 33.672.22 33.672s9.622 5.784 16.11 0l9.9-65.5 9.193-51.684s18.837-6.356 18.837-23.907z" fill="#455a64"/><path data-name="Path 20531" d="M141.614 145.9l3.97 11s12.185-6.752 19.134-10.623l5.96 8.8s-18.354 14.538-27.019 16.5-15.582-19.222-15.582-19.222 3.673-7.664 13.537-6.455z" fill="#ffa8a7"/><path data-name="Path 20532" d="M120.743 116.484h2.276a12.557 12.557 0 0 1 11.7 8.588l6.9 20.795a19.055 19.055 0 0 0-14.043 8.578z" fill="#00486e"/><path data-name="Path 20533" d="M66.969 208.054s2.2 2.881.836 9.479c-.517 2.54.528 5.014-.6 5.872s-3.134-1.936-3.134-5.454a16.489 16.489 0 0 0-1.99 6.433c-.286 3.629 1.045 6.543-3.783 4.179s-6.373-4.398-6.373-7.115c0-3.585 3.068-10.523 4.839-13.889z" fill="#ffa8a7"/><path data-name="Path 20534" d="M103.653 115.934l-18.354 1.375-7.7 35.465s3.178 16.011 3.3 18.75a71.2 71.2 0 0 1-.935 12.338c-.528 3.651-1.3 11.546-1.3 11.546s3.3 8.127 29.867 8.127c11.8 0 19.981-4.124 23.379-7.511 0 0-2.914-58.36-3.112-63.341s-2.364-13.053-8.061-16.187z" fill="#00486e"/><path data-name="Path 20535" d="M103.653 115.934l-18.354 1.375-7.7 35.465s3.178 16.011 3.3 18.75a71.2 71.2 0 0 1-.935 12.338c-.528 3.651-1.3 11.546-1.3 11.546s3.3 8.127 29.867 8.127c11.8 0 19.981-4.124 23.379-7.511 0 0-2.914-58.36-3.112-63.341s-2.364-13.053-8.061-16.187z" opacity=".2"/><path data-name="Path 21023" d="M107.953 170.112l-11.458-33.271-1.992-11.858 4.948.191 7.306-.191 2.092 1.1 2.391-2.592 6.875.9 1 15.643s-5.878 27.3-7.871 28.693a6.43 6.43 0 0 1-3.291 1.385z" fill="#016ca4"/><g data-name="Group 1757" fill="#bdcce3"><path data-name="Path 21024" d="M119.1 129.321a66.192 66.192 0 0 1-12.579 1.219 58.364 58.364 0 0 1-11.7-1.137 6.861 6.861 0 0 1 1.077-3.387 60.579 60.579 0 0 0 22.091-.064 6.835 6.835 0 0 1 1.111 3.369z"/><path data-name="Path 21025" d="M119.111 132.59v3.587a60.686 60.686 0 0 1-11.995 1.212 53.239 53.239 0 0 1-11.224-1.148v-3.61a54.9 54.9 0 0 0 23.219-.041z"/><path data-name="Path 21026" d="M119.111 139.449v3.584a57.647 57.647 0 0 1-11.64 1.2 50.634 50.634 0 0 1-10.965-1.155v-3.609a52.062 52.062 0 0 0 22.605-.02z"/><path data-name="Path 21027" d="M119.096 146.304v3.584a52.441 52.441 0 0 1-11.044 1.194 46.1 46.1 0 0 1-10.474-1.162v-3.613a47.175 47.175 0 0 0 21.518-.003z"/><path data-name="Path 21028" d="M117.123 153.16v3.581a35.567 35.567 0 0 1-9.055 1.189 31.431 31.431 0 0 1-8.649-1.172v-3.609a32.163 32.163 0 0 0 17.704.011z"/><path data-name="Path 21029" d="M115.512 160.019v3.578a22.031 22.031 0 0 1-7.033 1.183 19.506 19.506 0 0 1-6.762-1.18v-3.613a19.771 19.771 0 0 0 13.795.032z"/></g><path data-name="Path 20537" d="M95.593 117.397s10.04 6.807 13.328 8.555c3.211-5.432 1.583-8.687 1.583-8.687V95.337H95.593z" fill="#ffaaa8"/><path data-name="Path 20538" d="M110.505 113.372a23.985 23.985 0 0 1-13.7-13.02v-5.015h13.7z" fill="#ff9090"/><path data-name="Path 20539" d="M113.968 70.891s14.2.539 11.635 23.379c-1.21 10.744-2.089 16.682-11.282 16.682s-22.763-6.928-21.884-25.369 21.531-14.692 21.531-14.692z" fill="#ffaaa8"/><path data-name="Path 21016" d="M126.537 65.222c-3.691-.809-7.16 2.743-10.908 2.335-2.308-.251-4.113-1.906-6.205-2.865a11.49 11.49 0 0 0-10.27.485c-2.9 1.818-4.723 3.636-4.847 7.081-2.904-1.362-7.223 2.526-8.503 6.05s-.601 6.947.6 10.524a49.915 49.915 0 0 0 9.585 16.671c.386.43.957.888 1.445.605s.419-.649.448-1.042a41.424 41.424 0 0 0-1.023-10.035 25.015 25.015 0 0 1-.227-10.035c.774-3.274 3.004-6.39 6.226-7.323a10.586 10.586 0 0 1 7.203.926c2.263 1.035 4.29 2.506 6.454 3.716a13.555 13.555 0 0 0 7.034 2.071 6.46 6.46 0 0 0 5.875-3.819c.854-2.34-.587-5.422-3.054-5.739a4.9 4.9 0 0 0 .171-9.596z" fill="#263238"/><path data-name="Path 20540" d="M115.717 90.994v8.017l4.7-1.441z" fill="#ff9090"/><path data-name="Path 20541" d="M108.866 92.38a1.649 1.649 0 1 0 .483-1.167 1.65 1.65 0 0 0-.483 1.167z" fill="#263238"/><path data-name="Path 20542" d="M119.61 91.247a1.65 1.65 0 1 0 .483-1.166 1.65 1.65 0 0 0-.483 1.166z" fill="#263238"/><path data-name="Path 20543" d="M123.228 87.838l-3.189-1.848s1.221-1.276 2.441-.506a2.2 2.2 0 0 1 .748 2.353z" fill="#263238"/><path data-name="Path 20544" d="M109.647 87.288l-2.881 2.342s-.77-1.583.363-2.463a2.2 2.2 0 0 1 2.518.121z" fill="#263238"/><path data-name="Path 20545" d="M117.949 102.255a6.941 6.941 0 0 1-4.4-1.177s-.3 2.32 1.639 2.76a2.518 2.518 0 0 0 2.76-1.583z" fill="#ff9090"/><path data-name="Path 20547" d="M96.946 94.788s-.583-5.5-4.4-5.6c-4.19-.121-4.751 3.915-4.7 5.344.154 3.772 3.2 7.841 8.885 8.006z" fill="#ffaaa8"/><path data-name="Path 20548" d="M96.013 113.739s-1.914 3.977 13.153 12.377c0 0-2.651-1.149-7.771 1.985-5.357 3.3-6.446 3.475-8.349-4.19s.779-8.654 2.967-10.172z"/><path data-name="Path 20549" d="M108.811 126.319a58.464 58.464 0 0 0 1.584-9.512v-3.068s8.9 6.11 8.5 10.977c.869 2.342-5.491 1.042-6.887.636a3.408 3.408 0 0 0-3.2.968z"/><path data-name="Path 20550" d="M64.418 148.726l-5.674 21.993a28.591 28.591 0 0 0-.913 6.246l-1.1 30.659 10.216.44s5.014-24.358 6.147-32.781l6.6-22.345z" fill="#ffa8a7"/><path data-name="Path 20551" d="M86.696 117.199s4.08 4.971-.66 18.09-6.29 17.595-6.29 17.595-9.479 2.09-15.329-4.168l6.6-22.378a12.1 12.1 0 0 1 9.831-8.533c1.978-.265 4.111-.507 5.848-.606z" fill="#00486e"/><path data-name="Path 20552" d="M164.718 146.286s.407-3.97 1.8-5.895a29.923 29.923 0 0 0 3.4-5.256c.451-1.253 1.21-2.826 2.463-.616s-.649 5.212-1.595 6.741h9.479v7.7s-1.408 6.048-9.589 6.213z" fill="#ffa8a7"/><path data-name="Path 20553" d="M74.93 346.04a38.855 38.855 0 0 0 2.2 4.553s-.869-5.377 3.8-5.85 7.159-.375 7.214 2.2-.055 5-.055 5 1.3 5.949 3.5 9.082 3.651 4.73 4.817 6.27 3.618 4.5.968 9.148c-1.286 2.2-15.692 3.3-19.266-2.463s-.682-7.611-3.585-12.029-3.145-5.379-2.672-7.941 1.517-6.7 1.638-7.521c.275-1.715 1.4-1.242 1.4-1.242z" fill="#37474f"/><path data-name="Path 20554" d="M97.408 376.415a9.249 9.249 0 0 0 .561-1.1s-15.186.672-17.793-.758-2.958-6.346-3.145-8.281-.308-3.641-3.123-7.994a13.861 13.861 0 0 1-2.023-4.244c-.473 2.563-.242 3.52 2.672 7.938s0 6.227 3.585 12.031 17.979 4.662 19.266 2.408z" fill="#263238"/><path data-name="Path 20555" d="M79.264 355.511a.587.587 0 0 1-.516-.355.545.545 0 0 1-.042-.211.538.538 0 0 1 .042-.211.585.585 0 0 1 .12-.182s4.784-4.4 9.985-1.264a.557.557 0 0 1 .254.34.548.548 0 0 1-.814.605c-4.5-2.684-8.632 1.1-8.676 1.1a.543.543 0 0 1-.353.178z" fill="#ebebeb"/><path data-name="Path 20556" d="M80.484 359.412a.542.542 0 0 1-.222-.043.524.524 0 0 1-.185-.131.548.548 0 0 1-.12-.178.538.538 0 0 1-.042-.207.538.538 0 0 1 .162-.387s4.795-4.4 10-1.264a.552.552 0 1 1-.572.945c-4.487-2.682-8.5.967-8.665 1.1a.547.547 0 0 1-.356.165z" fill="#ebebeb"/><path data-name="Path 20557" d="M82.76 363.04a.534.534 0 0 1-.22-.041.554.554 0 0 1-.187-.123.579.579 0 0 1-.12-.18.546.546 0 0 1 0-.422.557.557 0 0 1 .12-.18s4.784-4.4 9.985-1.264a.549.549 0 0 1-.561.943c-4.487-2.672-8.511.969-8.676 1.1a.543.543 0 0 1-.341.164z" fill="#ebebeb"/><path data-name="Path 20558" d="M96.439 367.265c-.594-.781-1.254-1.57-2.056-2.584a11.292 11.292 0 0 0-14.208 9.811s3.519 2.342 10.018 2.342a22.2 22.2 0 0 0 7.775-1.584v-.1c1.627-3.926-.473-6.541-1.529-7.885z" fill="#ebebeb"/><path data-name="Path 20559" d="M116.586 336.452a21.182 21.182 0 0 0 6.026 5.5s-.132-2.8.693-3.794 7.016-2.959 7.7-1.749a23.643 23.643 0 0 1 1.243 4.476s8.137 6.115 10.931 7.468 10.018 3.529 10.711 7.115a6.233 6.233 0 0 1-3.684 7.059c-6.51 2.344-16.044-.4-21.4-4.167a15.851 15.851 0 0 0-9.116-3.3c-1.573-.275-5.982-1.155-6.29-4.741s1.034-6.6 1.1-8.335-.4-6.421 2.133-6.421z" fill="#37474f"/><path data-name="Path 20560" d="M142.715 362.009a27.615 27.615 0 0 1-14.054-5.125c-3.75-2.869-5.3-2.375-10.205-3.365a6.913 6.913 0 0 1-5.125-4.09v.891c.308 3.586 4.718 4.465 6.29 4.74a15.851 15.851 0 0 1 9.116 3.3c5.355 3.771 14.889 6.51 21.4 4.166a5.411 5.411 0 0 0 2.2-1.506 32.468 32.468 0 0 1-9.622.99z" fill="#263238"/><path data-name="Path 20561" d="M153.843 355.509c-.528-2.705-4.772-4.607-8.028-5.961-9.028 3.3-7.984 11.48-7.961 11.646a26.607 26.607 0 0 0 4.86.824 32.438 32.438 0 0 0 9.6-.957 5.9 5.9 0 0 1-.825.76 6.333 6.333 0 0 0 2.354-6.312z" fill="#ebebeb"/><path data-name="Path 20562" d="M128.814 346.184a.648.648 0 0 1-.242-.055.539.539 0 0 1-.22-.715 8.326 8.326 0 0 1 5.146-4.068.523.523 0 0 1 .4.072.526.526 0 0 1 .147.145.535.535 0 0 1 .082.189.538.538 0 0 1-.407.627 7.388 7.388 0 0 0-4.4 3.52.515.515 0 0 1-.506.285z" fill="#ebebeb"/><path data-name="Path 20563" d="M132.509 349.034a.5.5 0 0 1-.242-.068.525.525 0 0 1-.253-.307.53.53 0 0 1 .033-.4 8.347 8.347 0 0 1 5.146-4.068.526.526 0 0 1 .627.406.528.528 0 0 1-.407.627 7.325 7.325 0 0 0-4.4 3.52.571.571 0 0 1-.213.213.59.59 0 0 1-.293.074z" fill="#ebebeb"/><path data-name="Path 20564" d="M136.357 351.538a.5.5 0 0 1-.242-.068.523.523 0 0 1-.22-.7 8.256 8.256 0 0 1 5.146-4.07.565.565 0 0 1 .207 0 .533.533 0 0 1 .339.219.544.544 0 0 1 .081.191.517.517 0 0 1-.074.393.521.521 0 0 1-.333.223 7.35 7.35 0 0 0-4.4 3.529.576.576 0 0 1-.213.215.569.569 0 0 1-.291.068z" fill="#ebebeb"/><path data-name="Path 20565" d="M174.033 141.259l.891-1.5s2.386-1.671 3.9-1.1 1.771 1.693 1.595 3.86c-.187 2.4-2.441 7.082-4.52 5.268-1.3-1.1.891-4.828.583-6.521z" fill="#ffa8a7"/><path data-name="Path 20566" d="M177.222 141.259l.88-1.5s2.386-1.671 3.9-1.1 1.782 1.693 1.605 3.86c-.2 2.4-2.452 7.082-4.52 5.268-1.3-1.1.879-4.828.572-6.521z" fill="#ffa8a7"/><path data-name="Path 20567" d="M170.789 141.259l.88-1.5s2.4-1.671 3.915-1.1 1.771 1.693 1.594 3.86c-.187 2.4-2.441 7.082-4.52 5.268-1.3-1.1.891-4.828.583-6.521z" fill="#ffa8a7"/><path data-name="Path 21017" d="M126.403 81.74a11.323 11.323 0 0 1-10.826-3.259c-2.009-2.053-3.505-4.951-6.026-5.955a6.264 6.264 0 0 0-5.3.586 13.989 13.989 0 0 0-4.138 3.97c1.476 4.917.2 10.285-1.085 15.27a2.679 2.679 0 0 1-.733 1.477 1.721 1.721 0 0 1-2.29-.677 8.608 8.608 0 0 1-1.436-4.319 29.945 29.945 0 0 1 .412-10.578 18.876 18.876 0 0 1 4.771-9.022 14.393 14.393 0 0 1 10.967-4.128 17.783 17.783 0 0 1 10.824 4.857 12.321 12.321 0 0 1 3.415 4.77" fill="#263238"/><path data-name="Path 21018" d="M130.512 72.223a1.353 1.353 0 0 1-.079.564 2.74 2.74 0 0 1-.959 1.308 4.2 4.2 0 0 1-2.47.722 7.433 7.433 0 0 1-1.613-.158 3.439 3.439 0 0 1-1.635-.835 2.255 2.255 0 0 1-.756-1.872 2.041 2.041 0 0 1 1.455-1.613 2.583 2.583 0 0 1 1.128-.113 2.188 2.188 0 0 1 1.128.553 2.955 2.955 0 0 1 .891 2.312 3.508 3.508 0 0 1-1.128 2.357 5.334 5.334 0 0 1-2.413 1.252 8.638 8.638 0 0 1-5.56-.812 24.664 24.664 0 0 1-4.714-3.09 31.259 31.259 0 0 0-4.274-2.955 9.529 9.529 0 0 0-4.432-1.252 9.315 9.315 0 0 0-3.947.846 11.627 11.627 0 0 0-4.511 3.778c-.406.564-.688 1.038-.88 1.353a3.379 3.379 0 0 1-.293.485.757.757 0 0 1 .056-.135 3.378 3.378 0 0 1 .18-.383 14.209 14.209 0 0 1 .835-1.4 11.48 11.48 0 0 1 4.511-3.9 9.338 9.338 0 0 1 4.037-.913 9.767 9.767 0 0 1 4.579 1.263 31.364 31.364 0 0 1 4.319 2.966 24.925 24.925 0 0 0 4.658 3.045 8.289 8.289 0 0 0 5.346.8 5.064 5.064 0 0 0 2.255-1.128 3.124 3.124 0 0 0 1.026-2.143 2.7 2.7 0 0 0-.778-2.1 1.985 1.985 0 0 0-2.007-.395 1.8 1.8 0 0 0-1.284 1.393 2.064 2.064 0 0 0 .665 1.68 3.214 3.214 0 0 0 1.522.8 7.048 7.048 0 0 0 1.568.18 4.06 4.06 0 0 0 2.391-.643 2.684 2.684 0 0 0 .97-1.229 5.386 5.386 0 0 0 .214-.586z" fill="#455a64"/><path data-name="Path 21019" d="M90.235 81.933a11.052 11.052 0 0 0 1.974.586 5.5 5.5 0 0 0 2.188-.135 9.4 9.4 0 0 0 2.492-1.128 7.59 7.59 0 0 0 3.056-3.778 17.612 17.612 0 0 0 .508-2 1.546 1.546 0 0 1 0 .564 6.2 6.2 0 0 1-.3 1.511 7.432 7.432 0 0 1-3.067 4.015 9.2 9.2 0 0 1-2.583 1.128 5.368 5.368 0 0 1-2.255.079 5.2 5.2 0 0 1-1.466-.5 1.758 1.758 0 0 1-.547-.342z" fill="#455a64"/><path data-name="Path 21020" d="M90.315 86.67c0-.068.767.135 2 .113a9.022 9.022 0 0 0 7.8-4.748c.586-1.128.756-1.85.812-1.827a1.367 1.367 0 0 1-.09.53 7.72 7.72 0 0 1-.519 1.4 8.639 8.639 0 0 1-7.973 4.906 7.06 7.06 0 0 1-1.477-.18 1.827 1.827 0 0 1-.553-.194z" fill="#455a64"/><path data-name="Path 21021" d="M108.963 170.114a3.113 3.113 0 0 0 .35-.533c.21-.367.524-.874.874-1.591a86.452 86.452 0 0 0 3.033-6 72 72 0 0 0 3.5-9.335 55.589 55.589 0 0 0 2.168-12.018 117.6 117.6 0 0 0 .052-13.224c-.044-1-.087-1.975-.131-2.911a9.7 9.7 0 0 0-.393-2.727 3.611 3.611 0 0 0-.629-1.171 3.033 3.033 0 0 0-1.031-.778 2.141 2.141 0 0 0-2.29.21l.175.236 1.451-.926.114-.079-.07-.1a12.183 12.183 0 0 0-1.678-1.949c-.524-.524-.979-.961-1.329-1.337a11.408 11.408 0 0 1-.778-.874 2.3 2.3 0 0 0-.253-.323 1.542 1.542 0 0 0 .192.358 10.545 10.545 0 0 0 .725.935c.341.393.787.874 1.294 1.39a12.539 12.539 0 0 1 1.6 1.94l.044-.184-1.468.874.175.245a1.809 1.809 0 0 1 1.958-.131 2.623 2.623 0 0 1 .874.69 3.645 3.645 0 0 1 .559 1.066 9.675 9.675 0 0 1 .35 2.622c0 .935.061 1.905.1 2.911a121.354 121.354 0 0 1-.087 13.172 62.93 62.93 0 0 1-5.533 21.257c-1.136 2.622-2.168 4.632-2.893 6.048-.341.673-.621 1.206-.83 1.626a2.965 2.965 0 0 0-.184.612z" fill="#263238"/><path data-name="Path 21022" d="M109.376 170.579a3.4 3.4 0 0 0-.219-.6l-.717-1.748a272.451 272.451 0 0 1-2.578-6.319c-2.107-5.358-4.781-12.857-7.4-21.239a918.03 918.03 0 0 1-4.274-13.985c-.306-1.04-.612-2.045-.874-3.015a9.615 9.615 0 0 1-.516-2.788c-.087-1.748 1.39-3.3 2.753-3.059v-.271l-2.15-.175.1.087a3.077 3.077 0 0 1 .822-2.745 4.37 4.37 0 0 1 .83-.629 2.045 2.045 0 0 0-.874.542 3.182 3.182 0 0 0-.961 2.884v.079h.087l2.15.219v-.271c-1.591-.3-3.208 1.407-3.147 3.33a9.98 9.98 0 0 0 .507 2.893c.28.97.577 1.984.874 3.024 1.224 4.187 2.622 8.95 4.222 13.985 2.622 8.391 5.349 15.89 7.534 21.222 1.1 2.666 2.045 4.807 2.718 6.267l.8 1.678a2.622 2.622 0 0 0 .313.634z" fill="#263238"/><g data-name="Group 1755"><path data-name="Path 7237" d="M118.631 124.385c.8 7.867 1.608 15.812.97 23.7s-2.806 15.838-7.447 22.254a3.715 3.715 0 0 1-1.128 1.145 1.355 1.355 0 0 1-1.512-.052c-.717-.6-.3-1.748.149-2.561a76.847 76.847 0 0 0 8.968-44.49"/></g><g data-name="Group 1756"><path data-name="Path 7238" d="M109.084 170.037c.114.874-.979 1.53-1.844 1.329a3.933 3.933 0 0 1-2.045-1.634c-4.37-5.664-6.853-12.56-8.208-19.57a121.312 121.312 0 0 1-1.888-19.9c3.5 14.492 10.026 32.76 14.4 40.618"/></g><path data-name="Path 21030" d="M38.567 140.78a4.753 4.753 0 1 1-1.4-3.356 4.753 4.753 0 0 1 1.4 3.356z" fill="#fff"/></g><path data-name="Path 10361" d="M50.757 255.585l-11.768.246-5.974.108c-2 0-4.009 0-6.009.045h-.395v-.394l-.054-10.037v-.458h.448l11.875.053c3.964 0 7.92.1 11.875.144h.251v.242c0 1.694-.081 3.391-.117 5.067zm0 0l-.126-5.077c0-1.668-.1-3.318-.117-4.959l.242.242c-3.955.045-7.911.142-11.875.142l-11.875.055.449-.439v10.037l-.4-.405c1.955 0 3.91 0 5.875.045l5.9.108z" fill="#ebebeb"/><path data-name="Path 10362" d="M37.51 268.25l-11.767.242-5.974.108c-2 0-4.009 0-6.009.045h-.395v-.395l-.054-10.028v-.458h.448l11.875.055c3.955 0 7.92.1 11.875.143h.251v.242c0 1.7-.072 3.391-.117 5.067zm0 0l-.126-5.077c-.045-1.668-.1-3.318-.117-4.959l.242.242c-3.955.045-7.92.143-11.875.143l-11.875.055.448-.439-.045 10.037-.4-.395h5.875l5.9.108z" fill="#ebebeb"/><path data-name="Path 10363" d="M248.122 176.594l-11.768.251-5.982.1c-1.99 0-4 0-6 .045h-.395V166.1h.448l11.875.054c3.954 0 7.919.1 11.875.143h.25v.242c0 1.7-.071 3.39-.116 5.067zm0 0l-.124-5.077c-.045-1.668-.1-3.318-.118-4.96l.242.242c-3.955.045-7.919.144-11.873.144l-11.875.063.448-.448-.053 10.036-.395-.4c1.955 0 3.91 0 5.875.054l5.893.1z" fill="#ebebeb"/><path data-name="Path 10364" d="M234.877 189.248l-11.776.251-5.974.1c-1.991 0-4 0-6 .045h-.4v-.4l-.05-10.038v-.449h.448l11.875.054c3.956 0 7.911.1 11.875.144h.242v.242c0 1.7-.071 3.39-.116 5.067zm0 0l-.126-5.077c-.045-1.668-.107-3.319-.116-4.96l.242.242c-3.965.045-7.919.144-11.875.144l-11.875.063.45-.448-.055 10.036-.395-.4c1.955 0 3.912 0 5.866.054l5.9.1z" fill="#ebebeb"/><path data-name="Path 10365" d="M261.676 189.248l-11.778.251-5.972.1c-2 0-4 0-6.009.045h-.395v-.4l-.045-10.036v-.449h.447l11.875.054c3.965 0 7.919.1 11.884.144h.216v.242c0 1.7-.081 3.39-.116 5.067zm0 0l-.134-5.077c0-1.668-.1-3.319-.118-4.96l.252.242c-3.965.045-7.921.144-11.884.144l-11.875.063.448-.448-.045 10.036-.4-.4c1.963 0 3.91 0 5.875.054l5.9.1z" fill="#ebebeb"/><path data-name="Path 10367" d="M374.813 45.096l-11.778.251-5.972.1c-1.991 0-4 0-6 .054h-.368v-10.89h.458l11.875.054c3.954 0 7.911.108 11.875.153h.242v.233c0 1.7-.081 3.4-.118 5.068zm0 0l-.126-5.068c-.045-1.677-.108-3.327-.126-4.969l.252.242c-3.965 0-7.921.144-11.875.153l-11.875.054.448-.448-.053 10.036-.395-.4c1.955 0 3.9 0 5.865.054l5.9.1z" fill="#ebebeb"/><path data-name="Path 10368" d="M388.059 57.752l-11.776.251-5.974.1c-1.991 0-4 0-6 .054h-.4v-.4l-.044-10.036v-.449h.447l11.875.054c3.956 0 7.921.108 11.875.153h.242v.242c0 1.7-.071 3.4-.116 5.067zm0 0l-.126-5.067c0-1.677-.108-3.327-.116-4.969l.242.242c-3.954 0-7.919.144-11.875.153l-11.875.054.45-.448-.055 10.036-.395-.4c1.957 0 3.912 0 5.867.054l5.9.1z" fill="#ebebeb"/><path data-name="Path 10369" d="M50.757 45.096l-11.767.251-5.974.1c-2 0-4.009 0-6.009.054h-.395v-.4l-.054-10.045v-.448h.448l11.875.054c3.964 0 7.92.108 11.875.153h.251v.242c0 1.7-.081 3.4-.117 5.068zm0 0l-.126-5.067c0-1.677-.1-3.327-.117-4.969l.242.242c-3.955 0-7.911.144-11.875.153l-11.875.054.449-.448v10.036l-.4-.4c1.955 0 3.91 0 5.875.054l5.9.1z" fill="#ebebeb"/><path data-name="Path 10370" d="M53.986 144.061a2.018 2.018 0 1 1-.253-.748 2.028 2.028 0 0 1 .253.748z" fill="#ebebeb"/><path data-name="Path 10371" d="M110.069 34.028a2.045 2.045 0 1 1-1.48-1.733 2.045 2.045 0 0 1 1.48 1.733z" fill="#ebebeb"/><path data-name="Path 10372" d="M165.93 136.986a2.025 2.025 0 1 1-.242-.766 2.026 2.026 0 0 1 .242.766z" fill="#ebebeb"/><path data-name="Path 10373" d="M267.219 97.153a1.014 1.014 0 0 1-1.971.425 1.014 1.014 0 0 1 .3-1.081 1.011 1.011 0 0 1 1.552.274.985.985 0 0 1 .119.382z" fill="#ebebeb"/><path data-name="Path 10374" d="M137.147 84.38a1.014 1.014 0 1 1-.121-.383 1.013 1.013 0 0 1 .121.383z" fill="#ebebeb"/><path data-name="Path 10375" d="M315.5 32.137a1.014 1.014 0 0 1-2.01.26 1 1 0 0 1 .016-.4 1.014 1.014 0 0 1 1.617-.553 1.03 1.03 0 0 1 .259.31 1 1 0 0 1 .118.386z" fill="#ebebeb"/><path data-name="Path 10376" d="M233.136 40.531a1.014 1.014 0 0 1-2.01.26 1 1 0 0 1 .187-.769 1.016 1.016 0 0 1 .683-.4 1.019 1.019 0 0 1 .4.029 1.024 1.024 0 0 1 .618.494 1.033 1.033 0 0 1 .118.386z" fill="#ebebeb"/><path data-name="Path 10377" d="M136.134 164.404a1.013 1.013 0 1 1-.12-.38 1.013 1.013 0 0 1 .12.38z" fill="#ebebeb"/><path data-name="Path 10378" d="M176.863 26.978a1.014 1.014 0 1 1-1.139-.9 1 1 0 0 1 1.139.9z" fill="#ebebeb"/><path data-name="Path 10379" d="M217.108 210.112a1.011 1.011 0 0 1-.517.995 1.02 1.02 0 0 1-1.119-.091 1 1 0 0 1-.336-.48 1.011 1.011 0 0 1 .3-1.08 1 1 0 0 1 .932-.209 1.025 1.025 0 0 1 .358.181 1 1 0 0 1 .383.685z" fill="#ebebeb"/><path data-name="Path 10381" d="M163.867 64.899a2.018 2.018 0 1 1-.253-.747 2.027 2.027 0 0 1 .253.747z" fill="#ebebeb"/><path data-name="Path 10382" d="M243.71 32.002a2.024 2.024 0 1 1-.775-1.348 2.036 2.036 0 0 1 .775 1.348z" fill="#ebebeb"/><path data-name="Path 10383" d="M254.043 83l2.87-.951s-1.965-1.014-1.957-4.153 2.691-4.377 1.526-7.175l-3.2.9a5.895 5.895 0 0 1 .142 4.808c-.843 1.727-1.606 3.871.619 6.571z" fill="#ebebeb"/><path data-name="Path 10384" d="M168.719 39.697l-2.789-1.058s.9 2.018-1.094 4.485-4.843 1.7-5.731 4.637l3.014 1.354a5.965 5.965 0 0 1 2.915-3.866c1.792-.87 3.707-2.054 3.685-5.552z" fill="#ebebeb"/><path data-name="Path 10385" d="M191.043 136.258l-2.834-1.058s.9 2.018-1.094 4.485-4.843 1.7-5.731 4.637l3.023 1.354a5.911 5.911 0 0 1 2.915-3.821c1.82-.915 3.721-2.088 3.721-5.597z" fill="#ebebeb"/><path data-name="Path 10386" d="M135.237 191.598l-2.834-1.058s.9 2.018-1.094 4.484-4.843 1.7-5.74 4.646l3.023 1.345a5.935 5.935 0 0 1 2.924-3.821c1.792-.914 3.739-2.089 3.721-5.596z" fill="#ebebeb"/><path data-name="Path 10389" d="M231.952 128.133l.411-3s-1.794 1.309-4.583-.09-2.691-4.341-5.793-4.565l-.655 3.247a5.932 5.932 0 0 1 4.377 2c1.211 1.564 2.834 3.206 6.243 2.408z" fill="#ebebeb"/><path data-name="Path 10390" d="M215.689 224.218l.413-2.994s-1.794 1.3-4.583-.089-2.736-4.351-5.793-4.567l-.655 3.246a5.936 5.936 0 0 1 4.377 2c1.245 1.589 2.834 3.194 6.241 2.404z" fill="#ebebeb"/><path data-name="Path 10392" d="M148.727 243.074l.574 2.978s1.256-1.794 4.368-1.391 3.982 3.238 6.951 2.457l-.431-3.281a5.892 5.892 0 0 1-4.781-.486c-1.685-1.112-3.712-2.127-6.681-.277z" fill="#ebebeb"/><path data-name="Path 10395" d="M151.641 173.78l-3.193-1.731s-2.583 3.893.529 5.857c0-.002-.645-2.532 2.664-4.126z" fill="#ebebeb"/><path data-name="Path 10396" d="M149.059 182.639l3.354-1.247s.2-2.87-3.435-3.489c0 0 2.278 2.601.081 4.736z" fill="#ebebeb"/><path data-name="Path 10397" d="M257.414 176.28l-3.191-1.74s-2.575 3.893.529 5.857c.036 0-.602-2.529 2.662-4.117z" fill="#ebebeb"/><path data-name="Path 10398" d="M254.867 185.142l3.354-1.2s.2-2.879-3.433-3.5c0-.045 2.276 2.601.079 4.7z" fill="#ebebeb"/><path data-name="Path 10399" d="M271.381 183.868a2.027 2.027 0 0 1 2.14-2.293 2.027 2.027 0 0 1 .128 4.033 2.019 2.019 0 0 1-2.016-.992 2.036 2.036 0 0 1-.253-.748z" fill="#ebebeb"/><path data-name="Path 10402" d="M224.552 144.062a2.018 2.018 0 1 1 .773 1.341 2 2 0 0 1-.521-.594 2.032 2.032 0 0 1-.252-.748z" fill="#ebebeb"/><path data-name="Path 10404" d="M280.87 223l-4.835 1.371s-2.3-6.035 2.486-7.748c-.001 0-1.628 3.19 2.349 6.377z" fill="#ebebeb"/><path data-name="Path 10405" d="M280.08 210.246l4.144 2.691s-.61 3.936-5.7 3.668c-.004.018 3.869-2.807 1.556-6.359z" fill="#ebebeb"/><path data-name="Path 10406" d="M202.434 208.031l-4.834 1.371s-2.3-6.035 2.484-7.74c0 0-1.632 3.212 2.35 6.369z" fill="#ebebeb"/><path data-name="Path 10407" d="M201.636 195.285l4.154 2.691s-.61 3.946-5.705 3.677c-.001.009 3.865-2.816 1.551-6.368z" fill="#ebebeb"/><path data-name="Path 10408" d="M256.519 50.603l3.184 1.731s2.583-3.893-.521-5.857c.026 0 .636 2.533-2.663 4.126z" fill="#ebebeb"/><path data-name="Path 10409" d="M259.093 41.743l-3.354 1.247s-.189 2.87 3.444 3.489c.026 0-2.279-2.601-.09-4.736z" fill="#ebebeb"/><path data-name="Path 10412" d="M391.899 14.099l-14.646 5.058 13.61 15.678z" fill="#dbdbdb"/><path data-name="Path 10413" d="M362.409 23.678l-15.069 3.641 12.046 16.9z" fill="#c7c7c7"/><path data-name="Path 10414" d="M332.118 30.207l-15.382 1.928 10.091 18.145z" fill="#ebebeb"/><path data-name="Path 10415" d="M301.364 33.159l-15.5.072 7.829 19.221z" fill="#a6a6a6"/><path data-name="Path 10416" d="M270.547 31.849l-15.319-2.323 4.77 20.2z" fill="#dbdbdb"/><path data-name="Path 10417" d="M240.615 25.858l-14.566-5.292.7 20.746z" fill="#dbdbdb"/><path data-name="Path 10418" d="M212.461 13.822l-12.96-8.494-4.076 20.351z" fill="#c7c7c7"/><path data-name="Path 10419" d="M362.409 23.687l1.3 1.632.871 1.094 1.084 1.372.871 1.094 1.084 1.372.871 1.094 1.086 1.372.869 1.094 1.094 1.381.86 1.094 1.094 1.372.863 1.094.95 1.193.145-1.516.134-1.39.161-1.749.135-1.39.162-1.749.135-1.39.171-1.74.124-1.39.171-1.749.126-1.381.161-1.749.134-1.39.2-2.081z" fill="#a6a6a6"/><path data-name="Path 10420" d="M363.709 25.32l.87 1.094 12.349-3.659.134-1.39z" fill="#fff"/><path data-name="Path 10421" d="M365.664 27.787l.871 1.094 10.108-3 .126-1.381z" fill="#fff"/><path data-name="Path 10422" d="M367.619 30.252l.871 1.094 7.858-2.323.124-1.39z" fill="#fff"/><path data-name="Path 10423" d="M369.576 32.718l.869 1.094 5.6-1.659.134-1.39z" fill="#fff"/><path data-name="Path 10424" d="M371.538 35.194l.861 1.094 3.346-1 .134-1.39z" fill="#fff"/><path data-name="Path 10425" d="M373.493 37.661l.862 1.094 1.094-.323.135-1.39z" fill="#fff"/><path data-name="Path 10426" d="M332.118 30.217l1.123 1.758.752 1.184.942 1.471.744 1.184.942 1.471.753 1.184.942 1.471.755 1.184.932 1.48.755 1.175.94 1.48.755 1.175.816 1.283.3-1.489.268-1.372.35-1.713.27-1.372.35-1.722.269-1.363.35-1.722.268-1.372.35-1.713.269-1.372.342-1.713.279-1.372.411-2.045z" fill="#a6a6a6"/><path data-name="Path 10427" d="M333.241 31.975l.753 1.184 12.665-2.368.279-1.372z" fill="#fff"/><path data-name="Path 10428" d="M334.936 34.633l.745 1.184 10.368-1.937.269-1.372z" fill="#fff"/><path data-name="Path 10429" d="M336.622 37.284l.753 1.184 8.055-1.507.268-1.372z" fill="#fff"/><path data-name="Path 10430" d="M338.316 39.94l.755 1.184 5.74-1.076.269-1.363z" fill="#fff"/><path data-name="Path 10431" d="M340.003 42.604l.755 1.175 3.434-.637.27-1.372z" fill="#fff"/><path data-name="Path 10432" d="M341.699 45.258l.752 1.175 1.121-.206.269-1.372z" fill="#fff"/><path data-name="Path 10433" d="M301.382 33.123l.905 1.875.61 1.265.763 1.57.61 1.256.761 1.579.61 1.256.771 1.578.6 1.256.771 1.578.6 1.256.773 1.579.608 1.256.665 1.372.466-1.444.439-1.327.539-1.668.421-1.327.547-1.677.429-1.327.539-1.659.431-1.327.547-1.668.429-1.328.539-1.668.429-1.327.647-1.991z" fill="#dbdbdb"/><path data-name="Path 10434" d="M302.287 34.992l.61 1.265 12.862-.888.429-1.327z" fill="#fff"/><path data-name="Path 10435" d="M303.661 37.831l.61 1.256 10.521-.717.429-1.327z" fill="#fff"/><path data-name="Path 10436" d="M305.032 40.665l.61 1.256 8.171-.556.431-1.327z" fill="#fff"/><path data-name="Path 10437" d="M306.412 43.5l.6 1.256 5.83-.4.429-1.327z" fill="#fff"/><path data-name="Path 10438" d="M307.786 46.335l.6 1.256 3.491-.233.421-1.327z" fill="#fff"/><path data-name="Path 10439" d="M309.159 49.169l.608 1.256 1.131-.072.439-1.327z" fill="#fff"/><path data-name="Path 10440" d="M270.402 31.957l.637 1.982.431 1.336.529 1.668.431 1.327.537 1.668.421 1.327.539 1.668.431 1.327.529 1.677.429 1.327.539 1.668.431 1.327.466 1.453.663-1.372.619-1.256.763-1.57.61-1.256.771-1.579.618-1.256.763-1.57.61-1.256.771-1.579.61-1.256.771-1.57.62-1.256.913-1.883z" fill="#c7c7c7"/><path data-name="Path 10441" d="M271.039 33.939l.431 1.336 12.852.924.62-1.256z" fill="#fff"/><path data-name="Path 10442" d="M271.999 36.948l.431 1.327 10.51.753.61-1.256z" fill="#fff"/><path data-name="Path 10443" d="M272.967 39.939l.421 1.327 8.171.592.61-1.256z" fill="#fff"/><path data-name="Path 10444" d="M273.927 42.935l.431 1.327 5.82.421.618-1.256z" fill="#fff"/><path data-name="Path 10445" d="M274.888 45.941l.429 1.327 3.48.251.61-1.256z" fill="#fff"/><path data-name="Path 10446" d="M275.856 48.935l.431 1.327 1.129.081.619-1.256z" fill="#fff"/><path data-name="Path 10447" d="M240.348 25.795l.276 2.072.179 1.381.234 1.74.189 1.381.224 1.74.189 1.381.232 1.74.179 1.381.234 1.74.189 1.381.232 1.74.179 1.381.207 1.516.9-1.229.824-1.13 1.042-1.408.816-1.13 1.041-1.417.834-1.121 1.031-1.417.824-1.121 1.031-1.417.826-1.13 1.031-1.408.834-1.13 1.229-1.686z" fill="#ebebeb"/><path data-name="Path 10448" d="M240.624 27.867l.179 1.381 12.485 3.193.834-1.13z" fill="#fff"/><path data-name="Path 10449" d="M241.037 30.988l.189 1.381 10.206 2.61.826-1.13z" fill="#fff"/><path data-name="Path 10450" d="M241.45 34.109l.189 1.381 7.937 2.027.824-1.121z" fill="#fff"/><path data-name="Path 10451" d="M241.871 37.23l.179 1.381 5.661 1.444.834-1.121z" fill="#fff"/><path data-name="Path 10452" d="M242.284 40.351l.189 1.381 3.381.87.816-1.13z" fill="#fff"/><path data-name="Path 10453" d="M242.705 43.478l.179 1.381 1.1.287.824-1.13z" fill="#fff"/><path data-name="Path 10454" d="M212.425 13.785l-.134 2.09-.089 1.39-.116 1.749-.09 1.39-.116 1.749-.092 1.4-.116 1.749-.089 1.39-.116 1.749-.089 1.4-.118 1.749-.09 1.39-.1 1.516 1.121-1.023 1.031-.942 1.3-1.184 1.023-.942 1.3-1.184 1.031-.942 1.292-1.184 1.031-.942 1.292-1.175 1.031-.942 1.292-1.184 1.042-.942 1.534-1.408z" fill="#a6a6a6"/><path data-name="Path 10455" d="M212.29 15.876l-.089 1.39 11.61 5.588 1.042-.942z" fill="#fff"/><path data-name="Path 10456" d="M212.086 19.015l-.09 1.39 9.5 4.574 1.031-.942z" fill="#fff"/><path data-name="Path 10457" d="M211.879 22.153l-.091 1.4 7.382 3.543 1.031-.942z" fill="#fff"/><path data-name="Path 10458" d="M211.673 25.302l-.09 1.39 5.265 2.529 1.031-.942z" fill="#fff"/><path data-name="Path 10459" d="M211.466 28.445l-.089 1.4 3.147 1.507 1.023-.942z" fill="#fff"/><path data-name="Path 10460" d="M211.258 31.59l-.089 1.39 1.023.493 1.031-.942z" fill="#fff"/><path data-name="Path 10461" d="M394.912 12.825a269.006 269.006 0 0 1-49.8 15.481 247.681 247.681 0 0 1-25.811 4.162 253.878 253.878 0 0 1-26.11 1.534 211.866 211.866 0 0 1-26.108-1.794l-6.477-1c-2.144-.359-4.278-.9-6.422-1.274-1.068-.233-2.144-.422-3.2-.682l-3.165-.834-3.167-.9-1.587-.377-1.552-.511-6.225-2.045c-2.054-.744-4.064-1.6-6.09-2.386-1.013-.422-2.044-.781-3.031-1.238l-2.962-1.4-2.96-1.39a27.016 27.016 0 0 1-2.914-1.48l-5.659-3.166a31.678 31.678 0 0 1-2.789-1.794l-2.691-1.794-2.691-1.794c-.9-.61-1.74-1.3-2.609-1.955l-5.167-3.982 5.319 3.767c.9.61 1.794 1.283 2.691 1.866l2.781 1.7 2.77 1.7a27.467 27.467 0 0 0 2.807 1.632l5.759 3.014c.484.242.95.52 1.444.744l1.481.664 2.96 1.336 2.968 1.327c.987.431 2.018.78 3.023 1.166 2.036.753 4.046 1.561 6.09 2.251l6.206 1.919a177.375 177.375 0 0 0 25.258 5.265 213.62 213.62 0 0 0 25.893 1.623 268.031 268.031 0 0 0 51.671-5.199q12.772-2.475 25.311-6.027c8.342-2.353 16.647-4.999 24.755-8.129z" fill="#ebebeb"/><path data-name="Path 10462" d="M3.077 19.543l14.835 4.476L4.933 40.217z" fill="#c7c7c7"/><path data-name="Path 10463" d="M32.926 27.956l15.194 3.031-11.373 17.364z" fill="#dbdbdb"/><path data-name="Path 10464" d="M63.448 33.284l15.445 1.319-9.364 18.53z" fill="#a6a6a6"/><path data-name="Path 10465" d="M94.293 35.015l15.49-.538-7.068 19.517z" fill="#a6a6a6"/><path data-name="Path 10466" d="M125.041 32.495l15.212-2.924-3.973 20.369z" fill="#ebebeb"/><path data-name="Path 10467" d="M154.709 25.328l14.351-5.857.107 20.755z" fill="#c7c7c7"/><path data-name="Path 10468" d="M182.657 11.892l12.566-9.068 4.983 20.145z" fill="#dbdbdb"/><path data-name="Path 10469" d="M32.926 27.957l-1.229 1.686-.834 1.13-1.032 1.417-.825 1.121-1.031 1.417-.825 1.13-1.032 1.411-.825 1.13-1.035 1.415-.825 1.13-1.032 1.408-.825 1.13-.906 1.229-.2-1.507-.188-1.381-.233-1.74-.188-1.381-.233-1.74-.188-1.39-.233-1.731-.179-1.381-.242-1.74-.179-1.381-.233-1.74-.2-1.39-.269-2.063z" fill="#a6a6a6"/><path data-name="Path 10470" d="M31.697 29.643l-.834 1.13-12.485-3.175-.2-1.39z" fill="#fff"/><path data-name="Path 10471" d="M29.831 32.19l-.825 1.121-10.216-2.592-.179-1.381z" fill="#fff"/><path data-name="Path 10472" d="M27.975 34.728l-.825 1.13-7.938-2.018-.179-1.381z" fill="#fff"/><path data-name="Path 10473" d="M26.118 37.266l-.825 1.13-5.66-1.435-.188-1.39z" fill="#fff"/><path data-name="Path 10474" d="M24.261 39.813l-.825 1.13-3.381-.861-.188-1.381z" fill="#fff"/><path data-name="Path 10475" d="M22.405 42.353l-.825 1.13-1.1-.278-.188-1.381z" fill="#fff"/><path data-name="Path 10476" d="M63.448 33.284l-1.049 1.8-.708 1.211-.879 1.516-.7 1.2-.888 1.516-.7 1.211-.879 1.507-.709 1.211-.879 1.516-.708 1.211-.879 1.507-.708 1.211L53 51.22l-.359-1.489-.332-1.354-.413-1.7-.323-1.354-.413-1.7-.332-1.363-.413-1.7-.323-1.363-.413-1.7-.332-1.354-.413-1.7-.332-1.354-.484-2.036z" fill="#ebebeb"/><path data-name="Path 10477" d="M62.399 35.087l-.708 1.211-12.754-1.866-.332-1.354z" fill="#fff"/><path data-name="Path 10478" d="M60.812 37.813l-.7 1.2-10.431-1.525-.332-1.354z" fill="#fff"/><path data-name="Path 10479" d="M59.223 40.532l-.7 1.211-8.108-1.184-.323-1.363z" fill="#fff"/><path data-name="Path 10480" d="M57.645 43.248l-.709 1.211-5.776-.843-.332-1.363z" fill="#fff"/><path data-name="Path 10481" d="M56.057 45.975l-.708 1.211-3.453-.511-.323-1.354z" fill="#fff"/><path data-name="Path 10482" d="M54.47 48.693l-.709 1.211-1.121-.17-.332-1.354z" fill="#fff"/><path data-name="Path 10483" d="M94.284 34.979l-.843 1.91-.556 1.283-.7 1.605-.565 1.283-.7 1.605-.556 1.283-.7 1.605-.565 1.274-.7 1.615-.556 1.274-.7 1.606-.565 1.283-.61 1.4-.53-1.438-.484-1.31-.6-1.641-.484-1.309-.61-1.65-.484-1.31-.6-1.641-.485-1.311-.61-1.641-.475-1.31-.61-1.65-.484-1.31-.717-1.955z" fill="#c7c7c7"/><path data-name="Path 10484" d="M93.441 36.89l-.556 1.283-12.889-.377-.484-1.31z" fill="#fff"/><path data-name="Path 10485" d="M92.185 39.777l-.565 1.283-10.539-.3-.475-1.31z" fill="#fff"/><path data-name="Path 10486" d="M90.92 42.667l-.556 1.283-8.189-.242-.482-1.315z" fill="#fff"/><path data-name="Path 10487" d="M89.665 45.553l-.565 1.274-5.839-.17-.484-1.31z" fill="#fff"/><path data-name="Path 10488" d="M88.4 48.446l-.556 1.274-3.489-.1-.484-1.309z" fill="#fff"/><path data-name="Path 10489" d="M87.145 51.32l-.565 1.283-1.139-.036-.484-1.31z" fill="#fff"/><path data-name="Path 10490" d="M125.191 32.594l-.565 2.009-.377 1.354-.466 1.686-.377 1.345-.466 1.686-.377 1.345-.466 1.686-.377 1.345-.466 1.7-.377 1.345-.466 1.686-.377 1.345-.413 1.471-.726-1.345-.655-1.229-.834-1.543-.655-1.229-.834-1.552-.664-1.229-.834-1.543-.655-1.229-.834-1.543-.655-1.229-.834-1.543-.664-1.229-.987-1.839z" fill="#dbdbdb"/><path data-name="Path 10491" d="M124.626 34.602l-.377 1.354-12.808 1.426-.664-1.229z" fill="#fff"/><path data-name="Path 10492" d="M123.783 37.643l-.377 1.345-10.476 1.166-.655-1.229z" fill="#fff"/><path data-name="Path 10493" d="M122.94 40.676l-.377 1.345-8.144.906-.655-1.229z" fill="#fff"/><path data-name="Path 10494" d="M122.097 43.706l-.377 1.345-5.8.646-.666-1.233z" fill="#fff"/><path data-name="Path 10495" d="M121.254 46.747l-.377 1.345-3.471.386-.655-1.229z" fill="#fff"/><path data-name="Path 10496" d="M120.411 49.777l-.377 1.345-1.139.125-.655-1.229z" fill="#fff"/><path data-name="Path 10497" d="M154.979 25.257l-.2 2.081-.126 1.39-.161 1.74-.134 1.39-.162 1.749-.134 1.39-.162 1.74-.125 1.39-.161 1.749-.135 1.39-.161 1.749-.135 1.39-.144 1.516-.942-1.193-.87-1.094-1.094-1.372-.861-1.094-1.094-1.372-.87-1.094-1.094-1.363-.861-1.094-1.09-1.373-.87-1.094-1.094-1.372-.87-1.094-1.3-1.632z" fill="#dbdbdb"/><path data-name="Path 10498" d="M154.781 27.338l-.125 1.39-12.359 3.677-.87-1.094z" fill="#fff"/><path data-name="Path 10499" d="M154.494 30.468l-.134 1.39-10.1 3.014-.87-1.094z" fill="#fff"/><path data-name="Path 10500" d="M154.197 33.606l-.134 1.39-7.848 2.341-.861-1.094z" fill="#fff"/><path data-name="Path 10501" d="M153.902 36.737l-.126 1.39-5.6 1.668-.87-1.094z" fill="#fff"/><path data-name="Path 10502" d="M153.615 39.876l-.134 1.39-3.346 1-.861-1.094z" fill="#fff"/><path data-name="Path 10503" d="M153.319 43.016l-.135 1.39-1.085.323-.87-1.094z" fill="#fff"/><path data-name="Path 10504" d="M182.675 12l.215 2.081.153 1.39.179 1.74.153 1.39.179 1.74.143 1.39.188 1.74.144 1.39.188 1.749.143 1.381.188 1.749.144 1.381.161 1.516-1.166-.978-1.067-.9-1.345-1.13-1.058-.906-1.345-1.13-1.067-.9-1.336-1.13-1.067-.906-1.345-1.13-1.058-.9-1.345-1.13-1.067-.9-1.6-1.354z" fill="#a6a6a6"/><path data-name="Path 10505" d="M182.89 14.077l.153 1.39-11.391 6.04-1.067-.9z" fill="#fff"/><path data-name="Path 10506" d="M183.222 17.212l.152 1.39-9.319 4.933-1.058-.9z" fill="#fff"/><path data-name="Path 10507" d="M183.554 20.342l.143 1.39-7.229 3.839-1.067-.906z" fill="#fff"/><path data-name="Path 10508" d="M183.886 23.473l.143 1.39-5.157 2.736-1.064-.895z" fill="#fff"/><path data-name="Path 10509" d="M184.217 26.611l.143 1.381-3.085 1.641-1.058-.906z" fill="#fff"/><path data-name="Path 10510" d="M184.547 29.741l.144 1.381-1 .538-1.067-.9z" fill="#fff"/><path data-name="Path 10511" d="M0 18.386c8.225 2.807 16.6 5.121 25.051 7.175s16.979 3.659 25.553 5a267.266 267.266 0 0 0 51.806 3.211 212.942 212.942 0 0 0 25.849-2.664 178.5 178.5 0 0 0 25.114-6.278l6.126-2.162c2.018-.771 3.991-1.659 5.991-2.484 1-.431 2.009-.816 2.978-1.292l2.906-1.444 2.915-1.444 1.511-.682c.484-.242.942-.538 1.408-.8l5.642-3.238c.96-.52 1.839-1.148 2.736-1.749l2.691-1.794 2.691-1.794c.9-.61 1.722-1.318 2.592-1.973l5.166-3.973-4.992 4.121c-.852.682-1.659 1.417-2.538 2.063L188.5 8.081l-2.691 1.9c-.9.637-1.794 1.3-2.691 1.848l-5.534 3.426a30.675 30.675 0 0 1-2.861 1.6l-2.9 1.516-2.906 1.507c-.969.493-1.982.9-2.978 1.354-2 .9-3.973 1.794-5.991 2.628l-6.135 2.287-1.534.574-1.57.484-3.121.969-3.139.96c-1.04.3-2.108.538-3.166.807-2.126.5-4.233 1.085-6.368 1.534l-6.423 1.247a212.859 212.859 0 0 1-26.01 2.825 254.39 254.39 0 0 1-26.154-.493 249.749 249.749 0 0 1-25.948-3.142A268.63 268.63 0 0 1 0 18.386z" fill="#ebebeb"/><path data-name="Path 10514" d="M183.572 212.64c1.794 0 3.121-.09 3.256-.1l-.242-3.588c-.09 0-8.377.547-12.637-1.184-3.391-1.408-7.122-10.916-8.79-19.347-1.049-5.337-.475-7.014 0-7.543.09-.117.341-.422 1.3-.422h3.31c.951 2.879 2.484 5.776 4.79 5.776h6.619v-3.588h-6.4a13.891 13.891 0 0 1-1.982-4.484l-.368-1.319h-6.018a5.023 5.023 0 0 0-4.063 1.713c-1.552 1.892-1.794 5.139-.708 10.539a67.909 67.909 0 0 0 3.821 12.7c2.17 5.122 4.583 8.253 7.175 9.292 3.161 1.313 7.812 1.555 10.937 1.555z" fill="#016ca4"/><path data-name="Path 10515" d="M175.889 182.622h5.3v3.615h-4.484z" opacity=".2"/><path data-name="Path 10516" d="M186.828 212.55c-.144 0-1.426.1-3.256.1h-.951l-.807-3.586c2.628.079 4.727-.055 4.772-.063z" opacity=".2"/><path data-name="Path 10517" d="M218.247 212.64c-1.794 0-3.12-.089-3.255-.1l.242-3.588c.09 0 8.377.547 12.636-1.184 3.391-1.373 7.132-10.907 8.789-19.338 1.05-5.337.476-7.014 0-7.543-.09-.117-.34-.422-1.3-.422h-3.31c-.95 2.879-2.484 5.776-4.791 5.776h-6.619v-3.588h6.406a13.868 13.868 0 0 0 1.981-4.484l.368-1.318h6.017a5.023 5.023 0 0 1 4.064 1.7c1.552 1.892 1.794 5.139.708 10.539a67.971 67.971 0 0 1-3.82 12.7c-2.17 5.122-4.583 8.253-7.176 9.292-3.164 1.316-7.818 1.558-10.94 1.558z" fill="#016ca4"/><path data-name="Path 10518" d="M225.925 182.622h-5.3v3.615h4.483z" opacity=".2"/><path data-name="Path 10519" d="M214.992 212.55c.142 0 1.426.1 3.255.1h.952l.805-3.586c-2.628.079-4.725-.055-4.77-.063z" opacity=".2"/><path data-name="Path 10520" d="M182.047 248.724v2.036h37.725v-2.036h-3.23l-2.413-3.454-10.978-4.367v-21.428h-4.485v21.428l-10.978 4.367-2.413 3.454z" fill="#016ca4"/><path data-name="Path 10521" d="M197.42 222.337h6.97v-2.252h-6.97z" fill="#016ca4"/><path data-name="Path 10522" d="M197.429 221.511l6.96-.3v-1.121h-6.96z" opacity=".2"/><path data-name="Path 10523" d="M177.841 174.44s1.794 29.186 6.368 37.258 14.413 8.755 16.7 8.755 12.107-.692 16.7-8.755 6.369-37.258 6.369-37.258z" fill="#016ca4"/><path data-name="Path 10524" d="M197.403 220.119c-3.964-.663-9.911-2.689-13.2-8.422-4.6-8.071-6.359-37.258-6.359-37.258h4.332c.6 6.126 1.794 29.544 5.094 36.352 2.877 5.958 9.666 9.159 10.133 9.328z" fill="#fff" opacity=".3"/><path data-name="Path 10525" d="M216.542 248.731h-31.266l.861-1.247 28.773-1.084z" opacity=".2"/><path data-name="Path 10526" d="M200.909 183.66l2.475 5.023 5.552.807-4.018 3.911.95 5.516-4.959-2.6-4.96 2.6.951-5.516-4.018-3.911 5.552-.807z" opacity=".1"/><path data-name="Path 10527" d="M231.916 256.186h-62.013v53.395h62.013z" fill="#37474f"/><path data-name="Path 10528" d="M228.302 250.76h-54.775v5.425h54.775z" fill="#263238"/><path data-name="Path 10542" d="M30.917 236.257h-.691v73.313h.691z" fill="#263238"/><path data-name="Path 10543" d="M51.994 207.484L32.109 309.57h-.708l19.92-102.22z" fill="#263238"/><path data-name="Path 10544" d="M30.316 309.57h-.682l-6.027-127.932.691-.027 5.929 125.981z" fill="#263238"/><path data-name="Path 10545" d="M43.948 157.256a34.407 34.407 0 0 1-8.485 13.678c-5.22 5.382-10.6 8.288-10.548 8.862.162 1.632 1.749 4.108 1.623 4.646s-1.453 1.085-2.574 1.085-2.449-.538-2.574-1.085 1.462-3.014 1.623-4.646c.108-1.148-21.7-11.768-20.181-32.764.753-10.772 7.57-15.113 13.31-16.907a26.916 26.916 0 0 1 4.915-1 24.489 24.489 0 0 1 2.87-.17c3.068 0 19.885.745 21.131 18.055a27.661 27.661 0 0 1-1.112 10.252z" fill="#c7c7c7"/><path data-name="Path 10546" d="M24.908 179.796c.162 1.632 1.749 4.108 1.623 4.646s-1.453 1.085-2.574 1.085-2.449-.538-2.574-1.085 1.462-3.014 1.623-4.646c.108-1.148-21.7-11.768-20.181-32.764.762-10.772 7.579-15.113 13.319-16.907-5.121 4.377-11.427 12.987-6.861 27.015 4.215 12.951 16.6 16.79 26.145 13.768-5.196 5.399-10.574 8.314-10.52 8.888z" fill="#a6a6a6"/><path data-name="Path 10547" d="M110.519 175.376a1.229 1.229 0 1 1-.361-.868 1.229 1.229 0 0 1 .361.868z" fill="#1b2931"/><path data-name="Path 21031" d="M110.519 185.434a1.229 1.229 0 1 1-.361-.868 1.229 1.229 0 0 1 .361.868z" fill="#1b2931"/><path data-name="Path 21032" d="M110.519 194.545a1.229 1.229 0 1 1-.361-.868 1.229 1.229 0 0 1 .361.868z" fill="#1b2931"/><path data-name="Path 10552" d="M9.435 200.147c.78-10.853 7.687-15.2 13.454-16.925-5.157 4.323-11.66 12.979-7.068 27.185a20.568 20.568 0 0 0 26.064 13.8c-5.112 5.273-10.413 8.169-10.36 8.708.162 1.623 1.794 4.109 1.623 4.646s-1.453 1.094-2.574 1.094-2.449-.539-2.574-1.086 1.462-3.021 1.615-4.646c.118-1.159-21.686-11.78-20.18-32.776z" opacity=".1"/><path data-name="Path 10554" d="M37.5 292.556H24.432v17.077H37.5z" fill="#ffc727"/><path data-name="Path 10555" d="M200.559 75.96a85.133 85.133 0 0 1 0-17.454 85.11 85.11 0 0 1 0 17.454z" fill="#263238"/><path data-name="Path 10556" d="M182.792 81.098a76.448 76.448 0 0 1-4.754-7.337 74.607 74.607 0 0 1-3.973-7.776 84.4 84.4 0 0 1 8.727 15.113z" fill="#263238"/><path data-name="Path 10557" d="M169.975 94.426a85.09 85.09 0 0 1-15.113-8.718 72.048 72.048 0 0 1 7.776 3.973 74.69 74.69 0 0 1 7.337 4.745z" fill="#263238"/><path data-name="Path 10558" d="M231.845 93.207a74.666 74.666 0 0 1 7.335-4.745 72.228 72.228 0 0 1 7.777-3.973 85.13 85.13 0 0 1-15.112 8.718z" fill="#263238"/><path data-name="Path 10559" d="M218.515 80.393a85.949 85.949 0 0 1 8.719-15.113 72.959 72.959 0 0 1-3.973 7.785 74.454 74.454 0 0 1-4.746 7.328z" fill="#263238"/><path data-name="Path 10584" d="M214.25 128.788c-2.781-.816-15.428-5.642-18.594-7.767s-11.786-8.906-10.44-11.525 4.081-.807 4.081-.807-3.211-3.435-1.579-5.92 5.731.44 5.731.44-3.032-3.776-1.238-6.135 5.435 1.265 5.435 1.265-2.933-3.328-.628-4.637c2.762-1.588 7.481 5.148 11.148 7.229.834.475 17.571 8.4 17.571 8.4z" fill="#d3766a"/><path data-name="Path 10585" d="M197.322 98.061c3.48 4.942 5.857 6.5 11.346 8.79.108 0 .071.215-.045.179-5.588-1.749-8.853-3.283-11.552-8.817-.126-.269.089-.377.251-.152z" fill="#263238"/><path data-name="Path 10586" d="M193.177 102.83c4.063 4.825 6.619 6.539 12.2 9.355.079.045 0 .179-.063.143-5.7-2.3-8.924-3.9-12.35-9.256-.128-.242.025-.458.213-.242z" fill="#263238"/><path data-name="Path 10587" d="M189.582 108.85c4.269 4.386 7 6.386 12.763 8.431a.116.116 0 0 1 .047.057.119.119 0 0 1 0 .074.117.117 0 0 1-.042.061.115.115 0 0 1-.07.023c-6.081-1.507-9.507-3.982-12.826-8.494-.204-.314-.142-.403.128-.152z" fill="#263238"/><path data-name="Path 10588" d="M229.269 110.752s-3.139-6.888-5.183-9.615-13.454-10.072-15.14-7.7c-2.233 3.049 3.5 8.584 6.654 10.924 0 0-5.156 7.059-1.91 11.92s15.579-5.529 15.579-5.529z" fill="#d3766a"/><path data-name="Path 10589" d="M208.605 94.473c0 4.251 4.323 7.059 7.221 9.561a.363.363 0 0 1 .11.125.359.359 0 0 1 0 .324.364.364 0 0 1-.11.125c-1.965 3.1-3.84 8.072-2.333 11.66a.1.1 0 0 1 .006.069.093.093 0 0 1-.047.052.084.084 0 0 1-.067 0 .085.085 0 0 1-.053-.045c-2.126-3.588-.691-8.628 1.676-11.884-3-2.52-7.238-5.534-6.4-9.956z" fill="#263238"/><path data-name="Path 10591" d="M218.051 144.828c2.744-12.673 6.79-25.338 7.4-27.625 0-.108.189 0 .163.09-.584 2.144-4.154 17.49-7.382 27.643-.038.116-.21.017-.181-.108z" fill="#263238"/><path data-name="Path 10634" d="M87.558 369.655a6.28 6.28 0 0 0-2.879-2.978c-1.57-.9-3.193-1.694-4.808-2.5s-3.283-1.66-5.13-2.484c-.1-.045-.162 0-.072.061a46.29 46.29 0 0 1 4.538 2.6c1.453.9 2.951 1.668 4.485 2.484a7.433 7.433 0 0 1 3.328 2.87 12.323 12.323 0 0 1 1.112 4.414c0 .126.1.116.1 0a12.1 12.1 0 0 0-.673-4.467z" fill="#455a64"/><path data-name="Path 10641" d="M148.036 136.33c2.476-1 13.454-6.557 16.145-8.781s10.009-9.2 8.512-11.445-3.794-.368-3.794-.368 2.619-3.435.9-5.552-5.2.9-5.2.9 2.431-3.722.574-5.714-4.852 1.641-4.852 1.641 2.386-3.3.161-4.3c-2.691-1.193-6.377 5.382-9.543 7.624-.717.5-15.3 9.247-15.3 9.247z" fill="#f7a9a0"/><path data-name="Path 10642" d="M160.549 106.714c-2.691 4.834-4.763 6.476-9.579 9.059a.09.09 0 0 0-.03.1.089.089 0 0 0 .037.044.09.09 0 0 0 .056.013c4.942-2.108 7.794-3.794 9.759-9.1.106-.25-.1-.349-.243-.116z" fill="#263238"/><path data-name="Path 10643" d="M164.79 110.706c-3.283 4.772-5.471 6.565-10.314 9.651-.072 0 0 .162.072.126 5-2.628 7.8-4.377 10.458-9.57.116-.245-.072-.422-.216-.207z" fill="#263238"/><path data-name="Path 10644" d="M168.621 115.881c-3.516 4.395-5.83 6.467-10.915 8.853a.1.1 0 0 0-.055.056.1.1 0 0 0 .135.132 18.683 18.683 0 0 0 10.951-8.915c.18-.306.099-.395-.116-.126z" fill="#263238"/><path data-name="Path 10645" d="M130.726 117.434s4.117-5.606 6.467-7.678 13.947-6.539 15.059-4.081c1.426 3.157-4.762 7.059-8.072 8.574 0 0 3.31 7.31-.52 11.077s-12.934-7.892-12.934-7.892z" fill="#f7a9a0"/><path data-name="Path 10646" d="M152.359 106.671c-.78 3.821-5.211 5.534-8.287 7.238a.323.323 0 0 0-.072.529c1.184 3.157 1.937 7.956-.09 10.889-.054.081.063.179.126.1 2.6-2.843 2.242-7.624.727-11 3.175-1.7 7.543-3.588 7.633-7.749-.001-.025-.037-.034-.037-.007z" fill="#263238"/><path data-name="Path 10677" d="M269.173 100.544H132.645v57.752h136.528z" fill="#ebebeb"/><path data-name="Path 10678" d="M266.169 155.345H135.65v-51.842h130.519zm-130.116-.413h129.714v-51.026H136.054z" fill="#ffc727"/><path data-name="Path 10679" d="M255.585 126.788H146.233v.4h109.352z" fill="#c7c7c7"/><path data-name="Path 10680" d="M255.585 135.854H146.233v.4h109.352z" fill="#c7c7c7"/><path data-name="Path 10681" d="M255.585 144.914h-42.442v.4h42.442z" fill="#c7c7c7"/><path data-name="Path 10682" d="M198.954 144.914h-52.721v.4h52.721z" fill="#c7c7c7"/><path data-name="Path 10734" d="M217.36 153.22a1.681 1.681 0 0 1-.826-.188 1.625 1.625 0 0 1-.574-2.045c.734-2.413 5.085-5.48 8.4-7.516.976-2.224 1.731-4.207 2.026-4.978-1.534.332-7.561 1.794-8.842 4.287-.332.637-.063.843 0 .9.681.52 2.815.09 3.749-.744l.269.3c-.995.9-3.373 1.453-4.26.771-.234-.179-.557-.6-.144-1.417 1.56-3.059 9.166-4.485 9.489-4.583l.35-.063-.116.341c-.071.18-.834 2.269-1.92 4.808a34.686 34.686 0 0 1 3.238-1.794l.584-.314-.315.583c-.61 1.139-1.147 2.556-.96 2.879 0 0 0 .045.118.045.808 0 2.528-1.866 3.131-2.583l.9-1.076-.557 1.292c-.187.421-.6 1.65-.287 2.17a.51.51 0 0 0 .421.233c.718 0 2.063-1.65 2.762-2.691l.647-.987-.279 1.148a3.527 3.527 0 0 0 .063 2.233.468.468 0 0 0 .167.152.461.461 0 0 0 .22.054 3.969 3.969 0 0 0 1.973-1.4 3.961 3.961 0 0 1-.5-.475 3.648 3.648 0 0 1-1.257-3.023c.163-.969.952-1.794 2.341-2.556 2.154-1.121 4.53-1.148 5.643-.054.745.726.808 1.794.171 3.1a12.735 12.735 0 0 1-2.575 3.166 7.16 7.16 0 0 0 1.929-.96l.736-.547-.431.807c-.35.655-.763 1.713-.592 2.009 0 0 0 .054.126.063.618 0 1.9-1.319 2.565-2.161l.5-.628-.134.789c-.108.6-.181 1.668.089 1.956a.18.18 0 0 0 .079.057.182.182 0 0 0 .1.006 4.493 4.493 0 0 0 2.036-1.148 1.312 1.312 0 0 1-.3-.593 1.331 1.331 0 0 1 .026-.662.766.766 0 0 1 .808-.619.574.574 0 0 1 .521.556 2.037 2.037 0 0 1-.466 1.265 1.795 1.795 0 0 0 1.668-.233 10.112 10.112 0 0 0 2.583-2.233l.321.251a10.389 10.389 0 0 1-2.689 2.332 2.119 2.119 0 0 1-2.154.2 4.829 4.829 0 0 1-2.313 1.291.58.58 0 0 1-.279-.031.574.574 0 0 1-.232-.158 2.456 2.456 0 0 1-.289-1.614c-.618.7-1.739 1.839-2.475 1.794a.529.529 0 0 1-.267-.068.548.548 0 0 1-.2-.192 2.386 2.386 0 0 1 .287-1.794 7.207 7.207 0 0 1-2.215.816 4.683 4.683 0 0 1-2.421 1.247.5.5 0 0 1-.468-.287 2.513 2.513 0 0 1 0-1.408c-.9.9-1.713 1.569-2.286 1.534a.9.9 0 0 1-.385-.11.89.89 0 0 1-.3-.266 2.691 2.691 0 0 1-.268-1.686c-.673.9-1.794 2.251-2.691 2.171a.912.912 0 0 1-.362-.159.887.887 0 0 1-.256-.3 2.269 2.269 0 0 1-.055-1.587c-.763.807-1.991 1.973-2.781 1.982a.511.511 0 0 1-.458-.233c-.313-.52.252-1.875.647-2.691-.655.359-1.794 1-3.139 1.794a35 35 0 0 1-4.288 7.732 4.276 4.276 0 0 1-3.076 1.749zm6.7-9.068c-3.184 1.991-7.048 4.8-7.7 6.951-.224.744-.089 1.318.377 1.57.708.395 2.089 0 3.354-1.444a33.136 33.136 0 0 0 3.973-7.077zm13.454-.744a2.063 2.063 0 0 0 0 1.076c0 .063.063.072.108.072a3.375 3.375 0 0 0 1.65-.771 3.914 3.914 0 0 1-1.776-.377zm.09-.413a3.589 3.589 0 0 0 2.225.35 13.075 13.075 0 0 0 3.049-3.588c.555-1.121.529-2.027-.089-2.637-.968-.951-3.194-.9-5.167.134-1.265.664-1.992 1.417-2.134 2.251a3.31 3.31 0 0 0 1.158 2.691 3.133 3.133 0 0 0 .484.448c.063-.072.134-.143.2-.224a14.693 14.693 0 0 1 1.731-3.848c.376-.529.671-.762.958-.726s.36.17.323.5a12.945 12.945 0 0 1-2.636 4.242 2.873 2.873 0 0 1-.116.4zm10.557-1.085c-.126 0-.268.09-.339.341a.879.879 0 0 0-.031.436.928.928 0 0 0 .181.4 1.611 1.611 0 0 0 .378-1 .178.178 0 0 0-.047-.117.171.171 0 0 0-.116-.053zm-8.224-3.588c-.063 0-.234.108-.547.547a13.079 13.079 0 0 0-1.347 2.691c.09-.108.171-.224.26-.341a8.086 8.086 0 0 0 1.615-2.924z" fill="#263238"/><path data-name="Path 10746" d="M200.882 160.924l-3.175.583-.708 3.354-.718-3.354-3.175-.583 3.166-.78.726-3.166.718 3.166z" fill="#ffc727"/><path data-name="Path 10747" d="M178.316 94.178l-3.184.583-.709 3.354-.708-3.354-3.184-.592 3.166-.771.726-3.166.727 3.166z" fill="#ffc727"/><path data-name="Path 10748" d="M147.579 154.52l-3.175.583-.709 3.355-.717-3.355-3.175-.592 3.166-.771.726-3.166.718 3.166z" fill="#ffc727"/><path data-name="Path 10749" d="M249.656 123.28l-1.776.323-.395 1.875-.4-1.875-1.776-.332 1.768-.431.411-1.767.4 1.767z" fill="#ffc727"/><path data-name="Path 10750" d="M178.459 173.553l-1.776.332-.395 1.874-.4-1.874-1.776-.332 1.776-.43.4-1.767.4 1.767z" fill="#ffc727"/><path data-name="Path 10751" d="M207.097 96.525l-1.776.332-.4 1.875-.395-1.875-1.776-.332 1.768-.431.4-1.767.413 1.767z" fill="#ffc727"/><path data-name="Path 10752" d="M241.763 145.838l-1.776.332-.395 1.875-.395-1.875-1.784-.332 1.776-.43.4-1.767.4 1.767z" fill="#ffc727"/><path data-name="Path 10753" d="M149.471 111.209l-1.776.332-.395 1.875-.395-1.875-1.776-.332 1.767-.431.4-1.767.4 1.767z" fill="#ffc727"/><path data-name="Path 10754" d="M219.978 157.813a.52.52 0 0 0 0 1.032.52.52 0 0 0 0-1.032z" fill="#ffc727"/><path data-name="Path 10755" d="M155.283 82.963a.521.521 0 1 0 .323.173.521.521 0 0 0-.323-.173z" fill="#ffc727"/><path data-name="Path 10756" d="M237.414 108.599a.52.52 0 0 0 0 1.031.52.52 0 0 0 0-1.031z" fill="#ffc727"/><path data-name="Path 10758" d="M185.222 169.352a.368.368 0 1 0 .222.124.367.367 0 0 0-.222-.124z" fill="#ffc727"/><path data-name="Path 10759" d="M209.026 162.889a.986.986 0 1 0 .7.289.989.989 0 0 0-.7-.289z" fill="#ffc727"/><path data-name="Path 10760" d="M184.864 87.206a.987.987 0 1 0 .7.289.986.986 0 0 0-.7-.289z" fill="#ffc727"/><path data-name="Path 10761" d="M164.594 162.889a.987.987 0 1 0 .7.289.986.986 0 0 0-.7-.289z" fill="#ffc727"/><g data-name="Group 1594"><g data-name="Group 436" fill-rule="evenodd"><path d="M196.605 117.369v2.754h.6a1.379 1.379 0 1 0 0-2.754zm.676-1.252a2.629 2.629 0 1 1 0 5.258h-1.327a.62.62 0 0 1-.626-.626v-3.98a.641.641 0 0 1 .626-.651zm6.284 1.853l1.077-1.577a.636.636 0 0 1 1.177.351.575.575 0 0 1-.1.351v.025l-1.5 2.1v1.552a.651.651 0 0 1-1.3 0v-1.552l-1.5-2.128a.575.575 0 0 1-.1-.351.636.636 0 0 1 1.177-.351zm-11.166-1.878a.663.663 0 0 1 .651.651v2.579a2.231 2.231 0 0 1-4.456 0v-2.579a.639.639 0 1 1 1.277 0v2.6a.875.875 0 0 0 .951.876.855.855 0 0 0 .926-.876v-2.6a.663.663 0 0 1 .651-.649zm-7.16 1.277v3.4a.62.62 0 0 1-.626.626.641.641 0 0 1-.651-.626v-3.4h-.976a.626.626 0 1 1 0-1.252h3.255a.62.62 0 0 1 .626.626.636.636 0 0 1-.626.626zm-5.683 2.4c0-.451-2.779-.225-2.779-2.028a1.815 1.815 0 0 1 2.027-1.672 3.879 3.879 0 0 1 1.427.225.617.617 0 0 1 .4.576.6.6 0 0 1-.6.626.731.731 0 0 1-.225-.05 2.874 2.874 0 0 0-.926-.15c-.25 0-.826.05-.826.4 0 .651 2.779.175 2.779 2.128 0 1.1-1.052 1.627-2.028 1.627a4.284 4.284 0 0 1-1.677-.351.657.657 0 0 1-.4-.576.62.62 0 0 1 .626-.626.889.889 0 0 1 .25.05 2.655 2.655 0 0 0 1.152.25c.298.002.799-.023.799-.424z" fill="#00486e"/><path d="M214.981 117.972l1.077-1.577a.659.659 0 0 1 .551-.3.646.646 0 0 1 .651.651.6.6 0 0 1-.125.351v.025l-1.5 2.1v1.552a.641.641 0 0 1-.651.626.62.62 0 0 1-.626-.626v-1.55l-1.53-2.13a.814.814 0 0 1-.1-.351.636.636 0 0 1 1.177-.35zm-5.833 2.128h1.8a.641.641 0 0 1 .626.651.62.62 0 0 1-.626.626h-2.328a.738.738 0 0 1-.751-.751v-3.881a.641.641 0 0 1 .626-.651.663.663 0 0 1 .651.651z" fill="#3b9ed4"/></g></g></g></svg>