<svg xmlns="http://www.w3.org/2000/svg" width="485.604" height="552.902"><g data-name="Group 1462"><g fill-rule="evenodd"><path data-name="Path 5416" d="M117.295 146.709h295.239a16.318 16.318 0 0 1 16.265 16.265V356.9a16.319 16.319 0 0 1-16.265 16.264H117.295a16.319 16.319 0 0 1-16.266-16.266V162.974a16.318 16.318 0 0 1 16.266-16.265z" fill="#00486e"/><path data-name="Path 5417" d="M226.257 383.807h77.32a4.679 4.679 0 0 1 4.653 4.652 4.646 4.646 0 0 1-4.653 4.612h-77.32a4.646 4.646 0 0 1-4.653-4.612 4.679 4.679 0 0 1 4.653-4.652z" fill="#00486e"/><path data-name="Path 5418" d="M264.934 370.212a5.508 5.508 0 0 1 5.5 5.5v7.526a5.509 5.509 0 0 1-5.5 5.5 5.542 5.542 0 0 1-5.542-5.5v-7.526a5.541 5.541 0 0 1 5.542-5.5z" fill="#00486e"/><path data-name="Path 5419" d="M121.907 157.875h286.014a9.575 9.575 0 0 1 9.588 9.548v185.026a9.61 9.61 0 0 1-9.588 9.589H121.907a9.637 9.637 0 0 1-9.589-9.589V167.423a9.6 9.6 0 0 1 9.589-9.548z" fill="#d2d2d2"/><path data-name="Path 5420" d="M272.944 157.875H407.92a9.575 9.575 0 0 1 9.586 9.548v185.026a9.61 9.61 0 0 1-9.588 9.589H272.944a8.064 8.064 0 0 1-8.01-8.051v-188.1a8.03 8.03 0 0 1 8.01-8.013z" fill="#e9e9e9"/></g><g fill="gray"><path data-name="Path 5452" d="M283.021 253.331c-.731 0-1.292-.971-1.292-2.145s.561-2.144 1.292-2.144h93.348c.707 0 1.292.97 1.292 2.144s-.585 2.145-1.292 2.145z"/><path data-name="Path 5453" d="M282.174 277.323a2.144 2.144 0 1 1 0-4.288h118.185a2.144 2.144 0 1 1 0 4.288z"/><path data-name="Path 5454" d="M283.874 303.421a2.134 2.134 0 0 1-2.145-2.146 2.159 2.159 0 0 1 2.145-2.143h97.63a2.16 2.16 0 0 1 2.146 2.143 2.134 2.134 0 0 1-2.146 2.146z"/><path data-name="Path 5455" d="M284.137 330.852a2.3 2.3 0 0 1-2.408-2.145 2.277 2.277 0 0 1 2.408-2.144h104.791a2.249 2.249 0 0 1 2.408 2.144 2.274 2.274 0 0 1-2.408 2.145z"/></g><g data-name="Graduation Hat" fill-rule="evenodd"><path data-name="Path 5421" d="M190.973 66.72l73.92 8.82 73.921-8.82c10.641-1.254 19.3 6.393 19.3 16.993v55.267c0 10.641-8.86 19.261-19.3 21.607l-73.92 16.509-73.92-16.508c-10.438-2.346-19.3-10.966-19.3-21.607V83.713c0-10.6 8.7-18.248 19.3-16.993z" fill="#333"/><path data-name="Path 5422" d="M264.893 75.54l73.921-8.82c10.641-1.254 19.3 6.393 19.3 16.993v55.267c0 10.641-8.86 19.261-19.3 21.607l-73.921 16.508z" fill="#292929"/><path data-name="Path 5423" d="M392.262 58.182l21.727-1.618v9.872L264.889 123l-149.1-56.564v-9.872l17.2 3.359z" fill="#010000"/><path data-name="Path 5424" d="M264.893 0l149.1 56.564-149.1 56.523-149.1-56.523z" fill="#323232"/><path data-name="Path 5425" d="M414.071 52.154H267.442c-3.277 0-8.9 0-8.9 5.219 0 5.463 6.15 5.22 9.468 5.22h137.886v69.268h8.175V52.154z" fill="#f78729"/><path data-name="Path 5426" d="M404.077 134.408l5.908 1.377 5.947-1.377 10.034 44.548-7-6.352-3.641 8.74-5.341-23.548-5.3 23.548-3.682-8.74-7 6.352z" fill="#f78729"/><path data-name="Path 5427" d="M409.984 145.98a10.924 10.924 0 1 0-10.924-10.924 10.93 10.93 0 0 0 10.924 10.924z" fill="#e17c28"/></g><g fill-rule="evenodd"><path data-name="Path 5428" d="M12.219 416.457h461.166a12.26 12.26 0 0 0 12.215-12.218 12.252 12.252 0 0 0-12.219-12.179H12.219A12.252 12.252 0 0 0 0 404.239a12.26 12.26 0 0 0 12.219 12.219z" fill="#b85e34"/><path data-name="Path 5429" d="M485.6 404.239c0-6.676-6.352-12.179-14.12-12.179H14.121C6.352 392.06 0 397.56 0 404.239z" fill="#954d2a"/></g><path data-name="Path 5430" d="M358.317 317.168h90.267a3.953 3.953 0 0 1 3.924 3.924v53.773a3.962 3.962 0 0 1-3.924 3.964h-90.267a3.936 3.936 0 0 1-3.925-3.964v-53.773a3.927 3.927 0 0 1 3.925-3.924z" fill="#7e4b1e" fill-rule="evenodd"/><path data-name="Path 5431" d="M363.05 322.024h82.257a2.47 2.47 0 0 1 2.467 2.426 2.47 2.47 0 0 1-2.467 2.428H363.05a2.436 2.436 0 0 1-2.428-2.428 2.435 2.435 0 0 1 2.428-2.426z" fill="#e6e6e6" fill-rule="evenodd"/><path data-name="Rectangle 73" fill="#f07080" d="M359.976 344.234l12.203-69.079 33.749 5.962-12.203 69.079z"/><path data-name="Rectangle 74" fill="#ef5a6c" d="M359.976 344.234l12.203-69.079 16.995 3.002-12.203 69.08z"/><path data-name="Rectangle 75" fill="#f07080" d="M385.021 355.12l29.9-63.441 30.992 14.606-29.9 63.441z"/><path data-name="Path 5432" d="M414.92 291.679l-29.9 63.441 15.577 7.364 29.94-63.442z" fill="#ef5a6c" fill-rule="evenodd"/><path data-name="Path 5433" d="M352.612 326.878h99.13a4.68 4.68 0 0 1 4.653 4.653v55.916a4.68 4.68 0 0 1-4.653 4.653h-99.13a4.679 4.679 0 0 1-4.653-4.653v-55.916a4.679 4.679 0 0 1 4.653-4.653z" fill="#9c6127" fill-rule="evenodd"/><path data-name="Path 5434" d="M359.652 338.328a1.484 1.484 0 0 1-1.455-1.5 1.449 1.449 0 0 1 1.455-1.457h2.954a1.451 1.451 0 0 1 1.457 1.457 1.486 1.486 0 0 1-1.457 1.5zm85.573-2.954a1.45 1.45 0 0 1 1.455 1.454 1.485 1.485 0 0 1-1.456 1.5h-2.954a1.494 1.494 0 0 1-1.5-1.5 1.46 1.46 0 0 1 1.5-1.457zm-11.814 0a1.451 1.451 0 0 1 1.457 1.457 1.486 1.486 0 0 1-1.457 1.5h-2.953a1.52 1.52 0 0 1-1.5-1.5 1.485 1.485 0 0 1 1.5-1.457zm-11.814 0a1.486 1.486 0 0 1 1.5 1.457 1.521 1.521 0 0 1-1.5 1.5h-2.954a1.485 1.485 0 0 1-1.456-1.5 1.45 1.45 0 0 1 1.456-1.457zm-11.775 0a1.45 1.45 0 0 1 1.458 1.454 1.485 1.485 0 0 1-1.457 1.5h-2.953a1.493 1.493 0 0 1-1.5-1.5 1.459 1.459 0 0 1 1.5-1.457zm-11.814 0a1.45 1.45 0 0 1 1.456 1.457 1.485 1.485 0 0 1-1.456 1.5h-2.954a1.52 1.52 0 0 1-1.5-1.5 1.485 1.485 0 0 1 1.5-1.457zm-11.815 0a1.484 1.484 0 0 1 1.5 1.457 1.519 1.519 0 0 1-1.5 1.5h-2.953a1.486 1.486 0 0 1-1.457-1.5 1.451 1.451 0 0 1 1.457-1.457zm-11.772 0a1.451 1.451 0 0 1 1.459 1.454 1.486 1.486 0 0 1-1.456 1.5h-2.954a1.493 1.493 0 0 1-1.5-1.5 1.459 1.459 0 0 1 1.5-1.457z" fill="#db9d2c"/><path data-name="Path 5436" d="M371.915 384.655a1.112 1.112 0 0 1 0-2.224h2.224a1.112 1.112 0 0 1 0 2.224zm64.332-2.224a1.112 1.112 0 0 1 0 2.224h-2.232a1.112 1.112 0 1 1 0-2.224zm-8.9 0a1.112 1.112 0 1 1 0 2.224h-2.185a1.112 1.112 0 1 1 0-2.224zm-8.861 0a1.112 1.112 0 1 1 0 2.224h-2.226a1.112 1.112 0 0 1 0-2.224zm-8.861 0a1.112 1.112 0 0 1 0 2.224h-2.23a1.112 1.112 0 0 1 0-2.224zm-8.861 0a1.112 1.112 0 0 1 0 2.224h-2.229a1.112 1.112 0 0 1 0-2.224zm-8.861 0a1.112 1.112 0 0 1 0 2.224h-2.225a1.112 1.112 0 1 1 0-2.224zm-8.9 0a1.112 1.112 0 1 1 0 2.224h-2.225a1.112 1.112 0 0 1 0-2.224z" fill="#db9d2c"/><path data-name="Path 5439" d="M40.784 325.058h162.489v7.324c-4.612 2.548-7.688 7.039-7.688 12.138v28.687c0 5.1 3.076 9.589 7.688 12.138v7.364H40.784a16.957 16.957 0 0 1-16.912-16.914V341.97a16.956 16.956 0 0 1 16.912-16.912z" fill="#032d59" fill-rule="evenodd"/><path data-name="Path 5440" d="M40.784 325.058h162.489v7.324c-4.612 2.548-7.688 7.039-7.688 12.138v14.363H23.872V341.97a16.956 16.956 0 0 1 16.912-16.912z" fill="#335579" fill-rule="evenodd"/><path data-name="Path 5441" d="M203.275 332.705c-4.329 2.59-7.2 6.918-7.2 11.815v28.687c0 4.9 2.873 9.224 7.2 11.813H63.806a13.019 13.019 0 0 1-12.988-12.944v-26.424a13.021 13.021 0 0 1 12.988-12.947z" fill="#ccc" fill-rule="evenodd"/><path data-name="Path 5442" d="M46.611 325.058h147.234v-5.544a10.6 10.6 0 0 1-5.786-9.144v-10.8a10.6 10.6 0 0 1 5.786-9.144v-5.545H46.611a12.761 12.761 0 0 0-12.7 12.746v14.686a12.761 12.761 0 0 0 12.7 12.746z" fill="#febe00" fill-rule="evenodd"/><path data-name="Path 5443" d="M188.06 304.949v-5.381a10.6 10.6 0 0 1 5.786-9.144v-5.543H46.611a12.761 12.761 0 0 0-12.7 12.746v7.322z" fill="#dcab19" fill-rule="evenodd"/><path data-name="Path 5444" d="M193.845 319.273a10.554 10.554 0 0 1-5.421-8.9v-10.8a10.551 10.551 0 0 1 5.421-8.9H57.535a9.782 9.782 0 0 0-9.751 9.752v9.1a9.809 9.809 0 0 0 9.751 9.748z" fill="#e9e9e9" fill-rule="evenodd"/><path data-name="Path 5445" d="M189.032 313.648a8.5 8.5 0 0 1-.4-1.457H61.217v1.457zm-.607-5.3v-1.456H61.217v1.456zm0-5.342v-1.416H61.217v1.416zm.2-5.3a8.048 8.048 0 0 1 .4-1.417H61.217v1.417z" fill="#b3b3b3" fill-rule="evenodd"/><path data-name="Path 5446" d="M171.309 251.582H24.075v5.544a10.592 10.592 0 0 1 5.825 9.143v3.924a10.6 10.6 0 0 1-5.825 9.145v5.544h147.234a12.8 12.8 0 0 0 12.745-12.745v-7.809a12.8 12.8 0 0 0-12.745-12.746z" fill="#c86e21" fill-rule="evenodd"/><path data-name="Path 5447" d="M171.309 251.582H24.075v5.544a10.592 10.592 0 0 1 5.825 9.143v1.982h154.154v-3.924a12.8 12.8 0 0 0-12.745-12.745z" fill="#f78729" fill-rule="evenodd"/><path data-name="Path 5448" d="M24.075 257.365a10.468 10.468 0 0 1 5.421 8.9v3.924a10.533 10.533 0 0 1-5.421 8.942h136.31a9.79 9.79 0 0 0 9.751-9.791v-2.226a9.756 9.756 0 0 0-9.751-9.751z" fill="#e9e9e9" fill-rule="evenodd"/><path data-name="Path 5449" d="M28.403 261.859a11.007 11.007 0 0 1 .607 1.457h129.028v-1.457zm1.093 5.34v1.417h128.542V267.2zm-.284 5.3a8.382 8.382 0 0 1-.485 1.416h129.311V272.5z" fill="#b3b3b3" fill-rule="evenodd"/><path data-name="Path 5450" d="M195.909 344.439H68.702v-2.873h127.207zm0 21.16H68.702v-2.872h127.207zm0 10.561H68.702v-2.873h127.207zm0-21.161H68.702v-2.832h127.207z" fill="#999"/><path data-name="Path 5451" d="M74.649 354.674h21.08v22.617l-10.52-11.328-10.56 11.328z" fill="#032d59" fill-rule="evenodd"/><g data-name="Group 167" fill="#005180"><path d="M193.694 211.706a32.492 32.492 0 0 1 .746 3.356 26.243 26.243 0 0 1 .249 3.231v.124a21.882 21.882 0 0 1-6.463 15.535 20.839 20.839 0 0 1-6.711 4.6 2.791 2.791 0 0 0-1.74-.746h-3.106a20.35 20.35 0 0 0 10.067-5.344 18.986 18.986 0 0 0 4.847-8.2l.746-2.983a35.857 35.857 0 0 0 0-5.965c-.249-.994-.5-1.988-.746-2.858zm-29.951 26.845a20.84 20.84 0 0 1-6.711-4.6 21.882 21.882 0 0 1-6.463-15.534v-.124a30.553 30.553 0 0 1 .249-3.48 28.475 28.475 0 0 1 .87-3.48l2.113.621a15.179 15.179 0 0 0-.746 3.231 23.629 23.629 0 0 0-.373 3.107 25.62 25.62 0 0 0 .373 3.231 14.123 14.123 0 0 0 .746 3.107 21 21 0 0 0 4.723 7.83 20.35 20.35 0 0 0 10.067 5.344h-3.108a2.518 2.518 0 0 0-1.74.747z"/><path d="M155.789 215.434a15.23 15.23 0 0 1-5.1-4.226 14.077 14.077 0 0 1 1.37-18.268 15.957 15.957 0 0 1 3.233-2.486 9.9 9.9 0 0 0 1.616 1.616 10.343 10.343 0 0 0-3.231 2.361 11.425 11.425 0 0 0-3.48 8.451 12.616 12.616 0 0 0 2.237 7.084 12.356 12.356 0 0 0 6.09 4.226l.994.373 1.864.5a13.338 13.338 0 0 0-.621 3.977 11.346 11.346 0 0 0 3.48 8.327 10.713 10.713 0 0 0 5.22 3.107v2.237a14.288 14.288 0 0 1-6.711-3.728v-.131a13.4 13.4 0 0 1-4.1-9.818 15.846 15.846 0 0 1 .124-2.486 17.881 17.881 0 0 1-2.985-1.116zm20.009 15.038a10.713 10.713 0 0 0 5.22-3.107 11.847 11.847 0 0 0 3.48-8.327 13.338 13.338 0 0 0-.621-3.977l1.74-.5.994-.373a12.158 12.158 0 0 0 6.214-4.226 12.616 12.616 0 0 0 2.234-7.08 11.425 11.425 0 0 0-3.48-8.451 10.343 10.343 0 0 0-3.231-2.361 9.9 9.9 0 0 0 1.618-1.616 15.957 15.957 0 0 1 3.231 2.486 14.077 14.077 0 0 1 1.367 18.269 15.23 15.23 0 0 1-5.1 4.226 17.881 17.881 0 0 1-2.978 1.119 15.845 15.845 0 0 1 .124 2.486 13.4 13.4 0 0 1-4.1 9.818v.124a14.913 14.913 0 0 1-6.711 3.728zm-10.32 6.338h14.3a3.606 3.606 0 1 1 0 7.208h-14.3a3.774 3.774 0 0 1-2.61-.994 3.923 3.923 0 0 1 0-5.22 3.774 3.774 0 0 1 2.61-.994zm14.292 2.113h-14.292a1.411 1.411 0 0 0-.994 2.486 1.534 1.534 0 0 0 .994.5h14.3a1.534 1.534 0 0 0 .994-.5 1.5 1.5 0 0 0-.994-2.486zm-2.108 9.197a5.536 5.536 0 0 1-1.491 3.6 5.055 5.055 0 0 1-3.6 1.491 4.984 4.984 0 0 1-3.48-1.491 5.536 5.536 0 0 1-1.496-3.6h2.237a2.624 2.624 0 0 0 .746 1.988 2.472 2.472 0 0 0 1.989.87 2.56 2.56 0 0 0 2.113-.87 2.624 2.624 0 0 0 .745-1.988z"/><path d="M165.478 241.906h14.3a3.414 3.414 0 0 1 3.6 3.6 3.775 3.775 0 0 1-.994 2.61 4.142 4.142 0 0 1-2.61 1.118h-14.296a3.876 3.876 0 0 1-2.61-1.118 3.774 3.774 0 0 1-.99-2.61 4.011 4.011 0 0 1 .994-2.61 3.774 3.774 0 0 1 2.606-.99zm14.292 2.113h-14.292a1.534 1.534 0 0 0-.994.5 1.13 1.13 0 0 0-.5.994 1.518 1.518 0 0 0 .5 1.119 1.411 1.411 0 0 0 .994.373h14.3a1.411 1.411 0 0 0 .994-.373 1.518 1.518 0 0 0 .5-1.119 1.13 1.13 0 0 0-.5-.994 1.534 1.534 0 0 0-.994-.5zm-15.154-50.334a9.443 9.443 0 0 1 6.463 2.61 9.216 9.216 0 0 1 2.61 6.463 9.123 9.123 0 0 1-9.073 9.2 9.1 9.1 0 0 1-6.587-2.734 9 9 0 0 1-2.613-6.466 9.216 9.216 0 0 1 2.61-6.463 9.519 9.519 0 0 1 6.59-2.61zm4.847 4.226a6.488 6.488 0 0 0-4.847-2.113 6.563 6.563 0 0 0-4.971 2.113 6.9 6.9 0 0 0 4.971 11.806 6.861 6.861 0 0 0 4.847-1.988 6.759 6.759 0 0 0 0-9.818z"/><path d="M180.645 193.685a9 9 0 0 1 6.463 2.61 8.817 8.817 0 0 1 2.734 6.463 9.339 9.339 0 0 1-9.2 9.2 9.123 9.123 0 0 1-9.073-9.2 9.216 9.216 0 0 1 2.61-6.463 9.443 9.443 0 0 1 6.466-2.61zm4.971 4.226a6.563 6.563 0 0 0-4.971-2.113 6.488 6.488 0 0 0-4.847 2.113 6.759 6.759 0 0 0 0 9.818 6.861 6.861 0 0 0 4.847 1.988 6.94 6.94 0 0 0 4.971-1.988 6.759 6.759 0 0 0 0-9.818z"/><path d="M170.454 209.344a5.922 5.922 0 0 0 .746 2.237c.5.746.994 1.491 1.367 2.113.5-.621.994-1.367 1.491-2.113a5.922 5.922 0 0 0 .746-2.237l2.237.124a12.528 12.528 0 0 1-1.119 3.231 21.042 21.042 0 0 1-2.486 3.48l-.87.994-.746-.994a21.042 21.042 0 0 1-2.486-3.48 9.129 9.129 0 0 1-1.117-3.231zm-17.897-26.223l20.009 7.084 21.998-7.705-.5 1.864c-1.119 4.723-3.231 7.457-5.717 8.948a18.6 18.6 0 0 1-7.954 2.488 8.991 8.991 0 0 0-4.971 1.988 6.206 6.206 0 0 0-1.74 4.847h-2.11a6.246 6.246 0 0 0-1.864-4.847 8.238 8.238 0 0 0-4.847-1.988 18.6 18.6 0 0 1-7.954-2.486c-2.486-1.491-4.6-4.226-5.717-8.948l-.497-1.866zm19.761 9.321l-18.394-6.586a11.018 11.018 0 0 0 4.1 5.717c2.113 1.367 4.6 1.74 7.084 2.113a11.327 11.327 0 0 1 6.09 2.486 6.044 6.044 0 0 1 1.367 1.74 6.54 6.54 0 0 1 1.491-1.74 11.327 11.327 0 0 1 6.09-2.486c2.486-.373 4.971-.746 7.084-2.113a11.018 11.018 0 0 0 4.1-5.717l-18.391 6.586z"/><path d="M180.641 199.153a3.237 3.237 0 0 1 1.864.5c-.124 0-.124-.124-.249-.124a1.492 1.492 0 0 0-1.367 1.491 1.379 1.379 0 0 0 1.367 1.367 1.411 1.411 0 0 0 1.491-1.367c0-.124-.124-.249-.124-.373a3.375 3.375 0 0 1 .746 2.113 3.667 3.667 0 1 1-7.333 0 3.607 3.607 0 0 1 3.605-3.607zm-16.029 0a2.854 2.854 0 0 1 1.74.5c-.124 0-.124-.124-.249-.124a1.492 1.492 0 0 0-1.367 1.491 1.379 1.379 0 0 0 1.367 1.367 1.411 1.411 0 0 0 1.491-1.367.457.457 0 0 0-.124-.373 3.375 3.375 0 0 1 .746 2.113 3.667 3.667 0 1 1-7.333 0 3.635 3.635 0 0 1 3.729-3.607z" fill-rule="evenodd"/><path d="M167.347 231.964v5.344h2.113v-5.344zm8.451 0v5.344h2.113v-5.344z"/></g><g data-name="Group 435"><g data-name="Group 436" fill-rule="evenodd"><path d="M301.222 201.674v12.27h2.677c3.793 0 6.47-2.231 6.47-6.135s-2.677-6.135-6.47-6.135zm3.012-5.577a11.713 11.713 0 1 1 0 23.425h-5.912a2.762 2.762 0 0 1-2.789-2.789v-17.736a2.858 2.858 0 0 1 2.789-2.9zm28 8.255l4.8-7.028a2.835 2.835 0 0 1 5.243 1.562 2.561 2.561 0 0 1-.446 1.562v.112l-6.693 9.37v6.916a2.9 2.9 0 0 1-5.8 0v-6.916l-6.693-9.482a2.561 2.561 0 0 1-.446-1.562 2.835 2.835 0 0 1 5.243-1.562zm-49.751-8.366a2.953 2.953 0 0 1 2.9 2.9v11.488c0 5.689-4.462 9.482-9.928 9.482-5.578 0-9.928-3.793-9.928-9.482v-11.49a2.845 2.845 0 1 1 5.689 0v11.6c0 2.454 1.9 3.9 4.239 3.9a3.807 3.807 0 0 0 4.127-3.9v-11.6a2.953 2.953 0 0 1 2.9-2.898zm-31.9 5.689v15.171a2.762 2.762 0 0 1-2.789 2.789 2.858 2.858 0 0 1-2.9-2.789v-15.172h-4.35a2.789 2.789 0 1 1 0-5.577h14.5a2.762 2.762 0 0 1 2.789 2.789 2.833 2.833 0 0 1-2.789 2.789zm-25.322 10.709c0-2.008-12.382-1-12.382-9.035 0-5.02 4.573-7.474 9.035-7.474a17.282 17.282 0 0 1 6.358 1 2.751 2.751 0 0 1 1.785 2.566 2.67 2.67 0 0 1-2.677 2.789 3.257 3.257 0 0 1-1-.223 12.8 12.8 0 0 0-4.127-.669c-1.115 0-3.681.223-3.681 1.785 0 2.9 12.382.781 12.382 9.482 0 4.908-4.685 7.251-9.036 7.251a19.089 19.089 0 0 1-7.474-1.562 2.925 2.925 0 0 1-1.792-2.564 2.762 2.762 0 0 1 2.789-2.789 3.961 3.961 0 0 1 1.116.223 11.83 11.83 0 0 0 5.131 1.115c1.338.001 3.569-.111 3.569-1.896z" fill="#00486e"/><path d="M383.1 204.351l4.8-7.028a2.934 2.934 0 0 1 2.454-1.339 2.88 2.88 0 0 1 2.9 2.9 2.663 2.663 0 0 1-.558 1.562v.112l-6.693 9.37v6.916a2.858 2.858 0 0 1-2.9 2.789 2.762 2.762 0 0 1-2.789-2.789v-6.916l-6.8-9.482a3.634 3.634 0 0 1-.446-1.562 2.835 2.835 0 0 1 5.243-1.562zm-25.991 9.482h8.032a2.858 2.858 0 0 1 2.789 2.9 2.762 2.762 0 0 1-2.789 2.789h-10.374a3.287 3.287 0 0 1-3.347-3.347v-17.29a2.858 2.858 0 0 1 2.789-2.9 2.953 2.953 0 0 1 2.9 2.9z" fill="#3b9ed4"/></g></g><g data-name="Layer 2"><g data-name="Layer 1"><path data-name="Path 5919" d="M185.622 229.628c-4.329 2.965-14.2 9.87-16.233 22.726-.271 1.742-2.164 14.588 6.493 23.809 10.324 11.06 27.131 7.749 33.548 6.493 4.751-.942 15.616-3.247 23.809-12.987a39.577 39.577 0 0 0 7.575-15.151c.974-3.669 1.472-5.5 1.082-7.575-1-5.411-5.541-6.785-11.9-15.151-3.506-4.621-2.565-4.783-4.329-6.493-7.958-7.792-27.232-4.545-40.045 4.329z" fill="#fff"/><path data-name="Path 5920" d="M123.276 275.601l1.082-1.786 16.039-1.114c1.537.325 1.277 1.97 2.078 2.835.227 3.625.476 7.24.66 10.822.108 2.024 1.3 2.8 3.106 3.247 11.558 2.781 23.094 5.627 34.631 8.452a21.081 21.081 0 0 1 2.879.7c2.5 1.017 4.578.931 6.428-1.407a5.227 5.227 0 0 1 3.993-2.078 4.221 4.221 0 0 0 1.775 2.273c3.517 4.231 7.251 8.3 10.508 12.716 8.214 11.136 14.88 22.9 14.8 37.358 0 5.736.141 11.461.227 17.185.13 4.816-1.6 9.329-2.316 14-1.3 4.394-2.63 8.777-3.874 13.192-1.732 6.1-3.387 12.24-5.1 18.4-.422 1.5-.92 2.911-2.944 2.976-3.247.108-6.493.379-9.826.584H185.86l-10.086-.227c-2.37-.065-3.993-.931-3.744-3.68 4.264-16.049 8.474-32.12 12.846-48.147 1.429-5.216-.173-10.281-.325-15.4-.162-5.476-1.169-10.919-1.71-16.385a5.076 5.076 0 0 0-3.68-4.794c-16.075-6.293-32.075-12.786-48.093-19.257a8.539 8.539 0 0 1-5.649-7.153c-.855-7.75-1.483-15.531-2.143-23.312z" fill="#00486e"/><path data-name="Path 5921" d="M225.966 281.986h-1.9c-3.939.076-7.878.335-11.807.53a126.534 126.534 0 0 1-18.4-.357v2.164a3.538 3.538 0 0 1 .152.357c0 3.506.076 7.024.108 10.53a4.221 4.221 0 0 0 1.775 2.273c1.223-1.2 2.413-.433 3.647 0 6.491 2.423 12.906 4.805 19.358 7.229a7.294 7.294 0 0 1 3.648 2.165l.877.5c.184-.26.379-.509.574-.758-1.483-1.623-.4-3.6-.747-5.411a35.421 35.421 0 0 0 .476-10.108 6.353 6.353 0 0 1 1.4-5.076c.32-1.354.612-2.696.839-4.038z" fill="#ffc363"/><path data-name="Path 5922" d="M151.164 529.065c.519-1.591 2.013-2.673 2.251-4.4 1.353-.887 1.634-2.846 3.344-3.387 2.586 1.656 5.227 3.247 7.749 5.011 1.851 1.3 3.247 1.212 4.188-.92 1.082-2.435 2.586-3.106 4.837-1.3a5.411 5.411 0 0 0 1.84.638c.693 1.082 1.656 2.164.8 3.593-.942 1.6.422 2.1 1.288 2.846-.974.682-2.684 0-3.247 1.537 1.288 1.32 3.5-.357 4.394 1.753.335.768.617 2.348 1.9 1.667 1.515-.8-.39-1.851-.206-2.846 4.686 2.164 9.4 4.383 11.006 9.989v2.229l-.422 1.537a.346.346 0 0 0 0 .335 3.355 3.355 0 0 0-1.4 2.294 7.5 7.5 0 0 1-7.121-.974c-10.361-6.648-20.79-13.098-31.201-19.602z" fill="#e9a03a"/><path data-name="Path 5923" d="M151.164 529.065c10.411 6.493 20.843 12.986 31.178 19.556a7.5 7.5 0 0 0 7.11 1.017c-1.515 3.431-4.047 4.167-7.37 2.164l-17.725-10.822c-3.431-2.922-7.575-4.675-11.277-7.24-1.581-1.104-3.561-2.186-1.916-4.675z" fill="#5b5b5b"/><path data-name="Path 5924" d="M189.453 549.637a3.355 3.355 0 0 1 1.4-2.294c-.22.92.029 2.11-1.4 2.294z" fill="#5b5b5b"/><path data-name="Path 5925" d="M190.892 547.008l.422-1.537c.26.617.671 1.288-.422 1.537z" fill="#8d7a74"/><path data-name="Path 5926" d="M175.373 524.704a5.411 5.411 0 0 1-1.84-.638c-2.251-1.807-3.744-1.082-4.837 1.3-.974 2.164-2.338 2.164-4.188.92-2.522-1.764-5.162-3.355-7.749-5.011 1.71-2.381 2.77-5.205 4.946-7.272l1.807 1.353c3.928 3 8.8 4.653 12.164 8.463-.108.301-.206.593-.303.885z" fill="#ebebea"/><path data-name="Path 5927" d="M175.676 523.773c-3.366-3.809-8.236-5.465-12.164-8.463l-1.807-1.277 1.19-1.9a78.906 78.906 0 0 1 14.4 8.842c-.379.9-1.169 1.634-1.082 2.716a2.6 2.6 0 0 1-.541.087z" fill="#fae2bb"/><path data-name="Path 5928" d="M180.298 533.253c-.184 1 1.721 2.045.206 2.846-1.288.682-1.569-.9-1.9-1.667-.9-2.164-3.106-.433-4.394-1.753.574-1.58 2.283-.855 3.247-1.537 1.672-.28 2.17 1.04 2.841 2.111z" fill="#ebebea"/><path data-name="Path 5929" d="M177.257 520.97a78.9 78.9 0 0 0-14.361-8.838c-.855-1.612.357-3.247 0-4.837l8.766-15.876c3.712-4.329 5.844-9.653 8.658-14.556 3.247-4.1 5.5-8.831 8.127-13.3.866-1.472 2.327-2.695 2.381-4.6a6.493 6.493 0 0 0 2.63-5.757c-.335-3.831-.855-7.64-1.3-11.461a46.534 46.534 0 0 0-1.374-12.586c-.227-2.922-.346-5.866-.736-8.777-.368-2.727-3.625-3.712-4.177-6.407h11.569c2.435 2.424 5.411 3.658 8.658 4.7 6.082 1.959 12.218 1.861 18.4 1.266q.065 10.941.152 21.861a134.192 134.192 0 0 0 .184 17.207 22.142 22.142 0 0 1-5.411 10.876c-1.309 1.548-2.89 2.965-3.636 4.946a127.97 127.97 0 0 0-11.984 15.901 126.469 126.469 0 0 0-12.5 16.558c-3.052 3.149-5.151 7.034-7.943 10.378-1.515 1.83-3.03 4.07-6.103 3.302z" fill="#df6361"/><path data-name="Path 5930" d="M282.079 507.309c0-.693.087-1.385.119-2.067 3.171-.909 6.32-1.851 9.491-2.716 1.212-.325 2.327-1 1.786-2.24-1.537-3.517-.519-5.53 3.138-6.428.216-.054.325-.541.487-.822 1.245.693 2.9.725 3.355 2.576.271 1.082 1.45 1.082 2.435 1.2-.065.92-1.613 1.807-.5 2.619s1.558-.736 2.164-1.353c1.006-1.082 2.013-.519 3.063-.281.541.13 1.19.216 1.439-.39.335-.822-.281-1.169-.942-1.407s-1.082-.39-1.537-.584a31.686 31.686 0 0 1 8.485-2.543c4.491-.844 7.153.736 9.556 5.141.26 2.9-.855 4.881-3.755 5.725l-36.684 10.748q-1.05-3.593-2.1-7.178z" fill="#e9a03a"/><path data-name="Path 5931" d="M284.168 514.487l36.687-10.746c2.9-.844 4.015-2.825 3.755-5.725 2.164 2.695 1.688 6.071-1.18 7.694-.942.541-1.959.952-2.944 1.429-10.281 3-20.562 5.963-30.854 9.015-2.282.682-4.317 1.125-5.464-1.667z" fill="#5b5b5b"/><path data-name="Path 5932" d="M125.191 270.179a9.288 9.288 0 0 1 .108-.942l-1.006-10.822a3.6 3.6 0 0 0-1.97-2.489 251.307 251.307 0 0 1-2.035-2.651l-.481-2.489c.173-2.662-.779-5.411.411-7.987l.476-1.483c.649-1.916 2-2.413 3.939-2.164a19.48 19.48 0 0 0 3.853-.3c2.889 0 5.855-1.082 8.582.693 4.188 5.216 4.275 10.692.141 16.233-.519.693-.108 1.169-.162 1.753-.335 3.755.639 7.4.725 11.125z" fill="#ffc363"/><path data-name="Path 5933" d="M276.744 491.461l-1.7-.758c-.519-5.411-3.376-10.065-4.74-15.151-1.742-5.8-3.073-11.753-5.887-17.185a85.874 85.874 0 0 0-5.411-17.229c-.476-3.128-.5-6.612-3.8-8.279-8.712-4.4-17.532-8.658-26.287-12.932a4.112 4.112 0 0 0-4.329 0c-6.212.6-12.348.693-18.4-1.266-3.247-1.082-6.255-2.273-8.658-4.7 3.247-.206 6.493-.476 9.826-.584 2.024-.065 2.522-1.472 2.944-2.976 1.71-6.114 3.366-12.251 5.1-18.4 1.245-4.415 2.576-8.8 3.874-13.192h11.9a3.885 3.885 0 0 0 3.247 2.641c5.508 3.777 10.941 7.695 16.569 11.32 8.95 5.768 17.543 12.11 26.828 17.315 5.411 3.55 6.666 9.275 7.868 15.032.812 5.563 1.829 11.1 3.182 16.569q1.71 8.6 3.4 17.2c.985 5.411 1.742 10.822 3.712 15.941-.368 3.82 1.807 7.348 1.309 11.179-1.558 0-2.944.714-4.426 1.006-5.515 1.124-10.559 3.862-16.121 4.449z" fill="#e66c64"/><path data-name="Path 5934" d="M276.744 491.458c5.563-.584 10.552-3.322 16-4.383 1.483-.292 2.868-1.082 4.426-1.006 1.374 1.948-.487 2.8-1.342 3.993-5.844.249-11.179 2.359-16.471 4.578-1.628-.432-2.094-1.832-2.613-3.182z" fill="#df6361"/><path data-name="Path 5935" d="M279.352 494.64c5.292-2.219 10.627-4.329 16.471-4.578.087.227.184.455.271.671.065.444.119.877.173 1.309-4.329 1.266-8.658 2.511-12.986 3.809-1.234.368-2.651.552-3.117 2.1-.249-1.104-.531-2.207-.812-3.311z" fill="#fae2bb"/><path data-name="Path 5936" d="M280.185 497.952c.465-1.548 1.883-1.732 3.117-2.1 4.329-1.3 8.658-2.543 12.986-3.809.271.335.552.66.833 1-.162.281-.271.768-.487.823-3.658.9-4.675 2.911-3.138 6.428.541 1.245-.574 1.915-1.786 2.24-3.171.866-6.32 1.807-9.491 2.716z" fill="#ebebea"/><path data-name="Path 5937" d="M306.569 495.419c.509.195 1.017.4 1.537.584s1.277.584.942 1.407c-.249.606-.9.519-1.439.39-1.082-.238-2.056-.758-3.063.281-.6.617-.974 2.164-2.164 1.353s.433-1.7.5-2.619a3.084 3.084 0 0 1 3.687-1.396z" fill="#ebebea"/><path data-name="Path 5938" d="M125.191 270.179l12.555-1.602c3.084-.065 2.976 1.937 2.651 4.08l-16.051 1.13c-.009-1.26-1.016-2.764.845-3.608z" fill="#fff"/><path data-name="Path 5939" d="M237.773 330.674a16.742 16.742 0 0 1-3.322 15.887c-1.342.487-1.147 1.71-1.288 2.76q-1.082 7.792-2.1 15.595l-9.578-.108c-.087-5.725-.26-11.45-.227-17.185.076-14.458-6.591-26.222-14.8-37.379-3.252-4.418-6.995-8.487-10.512-12.718 1.223-1.2 2.413-.433 3.647 0 6.493 2.424 12.911 4.805 19.361 7.229a7.294 7.294 0 0 1 3.647 2.164l-3.431-1c-3.564-1.082-4.394-.482-4.448 3.111v6.547c0 3 .909 3.615 3.885 2.8 2-.541 3.983-1.158 5.963-1.742 2.1 1.667 3.842 2.045 4.567-1.255z" fill="#ebebea"/><path data-name="Path 5940" d="M221.486 364.807l9.578.108v13.917h-11.905c.725-4.696 2.457-9.209 2.327-14.025z" fill="#df6361"/><path data-name="Path 5941" d="M237.774 330.675l-8.658-15.292c-.152-1.742-.357-3.474-.455-5.227-.216-3.928-.671-4.329-4.61-3.5-1.483-1.623-.4-3.6-.747-5.411a6.569 6.569 0 0 0 4.156.173c14.61-3.463 29.22-6.84 43.851-10.249 4.848-1.082 4.837-1.147 4.924-6.3.249-2.478.53-4.967.747-7.456.13-1.548.271-3.063 1.818-3.939 3.582.368 7.164.9 10.757 1.082 2.1.087 3.247.628 3.42 2.879s1.2 3.6 3.734 3c0 1.472 0 2.944.076 4.426-1.158 4.5-1.082 9.155-1.32 13.744a9.21 9.21 0 0 1-6.179 8.539c-14.437 5.866-29.057 11.277-43.786 16.352-1.97.671-3.82 1.721-5.779 2.4-2.555.915-1.257 3.21-1.949 4.779z" fill="#00486e"/><path data-name="Path 5942" d="M224.582 316.638c-1.98.584-3.961 1.2-5.963 1.742-2.976.812-3.831.195-3.885-2.8q-.065-3.247 0-6.547c0-3.593.887-4.156 4.448-3.106l3.463 1 .877.5c2.023 2.861.951 6.105 1.06 9.211z" fill="#e66c64"/><path data-name="Path 5943" d="M224.581 316.638c-.076-3.106 1-6.353-1.082-9.22.184-.26.379-.509.574-.758 3.939-.8 4.394-.433 4.61 3.5.1 1.753.3 3.485.455 5.227-.747 3.297-2.49 2.918-4.557 1.251z" fill="#df6361"/><path data-name="Path 5944" d="M231.075 378.832v-13.921q1.082-7.792 2.1-15.595c.141-1.082-.054-2.273 1.3-2.76l-.152 34.912a3.885 3.885 0 0 1-3.248-2.636z" fill="#00486e"/><path data-name="Path 5945" d="M338.094 267.982c-.152-.519-.346-1.082-.455-1.58q-5.584-27.151-11.124-54.306c-.422-2.164-.855-3.918-3.647-2.965-.725.173-1.677.866-2.067-.13h-.087a40.117 40.117 0 0 1-8.008 1.9l.346.346c-2.164.292-4.1 1.374-6.288.887l-.184.065c-.216.541-.768.519-1.234.617-7.3 1.526-14.6 3.1-21.926 4.5-1.959.379-2.554 1.082-2.089 3.041 1.158 4.913 2.164 9.859 3.193 14.794 3.972.238 5.324 1.948 3.777 5.5a16.038 16.038 0 0 0-.552 10.952c1.353 5.216 2.348 10.53 3.517 15.8.487 2.164.076 3.376-2.6 3.03-2.392-.325-4.848-.238-7.272-.325a2.164 2.164 0 0 0-2.543 1.5c0 .649 0 1.288-.054 1.937 3.582.368 7.164.9 10.757 1.082 2.1.087 3.247.628 3.42 2.879s1.2 3.6 3.734 3c3.625-1.58 7.575-1.916 11.374-2.586a.335.335 0 0 1 .4-.076l2.76-.649 1.374-.26 3.95-.887 1.364-.335 2.6-.433.725-.195 5.238-1.082 1.364-.292c2.619-.639 5.195-1.5 7.933-1.429l1.082-.4 1.515-.444a72.82 72.82 0 0 0-.293-3.456z" fill="#fff"/><path data-name="Path 5946" d="M291.018 240.234c-.335-1.634.887-1.883 1.916-2.11 3.766-.833 7.575-1.634 11.342-2.294a13.3 13.3 0 0 0 4.415-1.234c-.855-.963-1.71-1.916-2.554-2.879-4.718 1.829-9.794 2.164-14.664 3.366-1.169.292-1.807-.411-1.97-1.612-.195-1.537.26-2.576 1.894-2.9 3.333-.66 6.656-1.32 9.989-2 1.082-.216 2.164-.476 3.247-.725l-.054-3.16c-4.513.9-9.036 1.732-13.528 2.706-1.591.357-2.619.465-3.117-1.558s.368-2.522 2.013-2.825c5.411-.985 10.736-2.024 16.114-3.041 1.84-2.035 3.7-4.058 6.58-4.621.952.649 1.331 2.089 2.781 2.056l.606-.162c.227-.79.541-1.3 1.255-.346 5.79-.7 10.194 4.221 9.156 10.335a32.124 32.124 0 0 1-1.245 4.037c.379 4.935-1.082 6.266-5.346 4.967a1.245 1.245 0 0 0-.5.238c-.844 1.082-2.056 1.158-3.247 1.4q-10.37 2.102-20.718 4.321c-.541.108-1.082.206-1.634.281-1.725.184-2.428-.758-2.731-2.24z" fill="#eee"/><path data-name="Path 5947" d="M292.522 247.961c-.433-1.429.368-1.98 1.634-2.251 4.513-.985 9-2.078 13.538-3 5.487-1.082 11.017-2.089 16.514-3.247 1.5-.314 2.283.065 2.673 1.537s.065 2.37-1.5 2.695l-30.3 6.147-.649.13c-1.813.413-1.618-1.08-1.91-2.011z" fill="#eee"/><path data-name="Path 5948" d="M294.243 256.197c-.216-1.082-.574-2.24.747-2.9a7.629 7.629 0 0 1 1.883-.6c9.469-1.937 18.939-3.831 28.408-5.79 1.569-.325 2.846-.552 3.247 1.548.335 1.894-.649 2.532-2.294 2.868-7.11 1.45-14.2 2.944-21.3 4.426-2.889.606-5.7 1.515-7.792 1.58-1.957.297-2.685-.103-2.899-1.132z" fill="#eee"/><path data-name="Path 5949" d="M295.563 262.777c-.238-1.418.639-2.024 1.818-2.273q14.653-3.063 29.317-6.082c1.656-.335 3.052-.076 3.474 1.97.509 2.424-1.515 2.1-2.684 2.359-6.417 1.4-12.835 2.814-19.35 3.82-3.387.53-6.764 1.71-10.194 2.37-1.559.109-2.165-.822-2.381-2.164z" fill="#eee"/><path data-name="Path 5950" d="M329.393 266.445c-9.578 1.926-19.1 3.874-28.657 5.811-.53.108-1.082.13-1.483.173-2.164.465-1.861-1.169-2.164-2.164a1.732 1.732 0 0 1 1.688-2.532c7.272-.53 14.144-3.052 21.319-4.069 2.825-.411 5.6-1.147 8.376-1.807 1.991-.476 2.825.465 3.247 2.262.355 1.936-.951 2.088-2.326 2.326z" fill="#eee"/><path data-name="Path 5951" d="M284.522 235.148c3.972.238 5.324 1.948 3.777 5.5a16.038 16.038 0 0 0-.552 10.952c1.353 5.216 2.348 10.53 3.517 15.8.487 2.164.076 3.376-2.6 3.03-2.392-.325-4.848-.238-7.272-.325a3.918 3.918 0 0 0 .53-3.42c.292-1.84.574-3.69.877-5.53.379-2.24.368-4.188-1.959-5.66a4 4 0 0 1-1.6-4.437c1.508-5.41 2.699-10.889 5.282-15.91z" fill="#ffc363"/><path data-name="Path 5952" d="M315.541 216.837a9.448 9.448 0 0 1 1.829.184 9.188 9.188 0 0 1 1.764.53 10.625 10.625 0 0 1 1.623.866 9.8 9.8 0 0 1 1.418 1.169 9.535 9.535 0 0 1 2.035 3.041 9.462 9.462 0 0 1 0 7.186 8.971 8.971 0 0 1-.866 1.623 9.805 9.805 0 0 1-1.166 1.421 9.146 9.146 0 0 1-1.418 1.169 9.74 9.74 0 0 1-1.623.866 10.063 10.063 0 0 1-1.764.541 9.74 9.74 0 0 1-3.658 0 10.065 10.065 0 0 1-1.764-.541 9.74 9.74 0 0 1-1.623-.866 9.144 9.144 0 0 1-1.418-1.169 9.232 9.232 0 0 1-2.035-3.041 9.462 9.462 0 0 1 0-7.186 10.045 10.045 0 0 1 .866-1.612 9.341 9.341 0 0 1 1.169-1.429 9.806 9.806 0 0 1 1.418-1.169 10.627 10.627 0 0 1 1.623-.866 9.188 9.188 0 0 1 1.764-.53 9.448 9.448 0 0 1 1.829-.184z" fill="#eee"/><path data-name="Path 5953" d="M315.541 216.837a9.448 9.448 0 0 1 1.829.184 9.188 9.188 0 0 1 1.764.53 10.625 10.625 0 0 1 1.623.866 9.8 9.8 0 0 1 1.418 1.169 9.535 9.535 0 0 1 2.035 3.041 9.462 9.462 0 0 1 0 7.186 8.971 8.971 0 0 1-.866 1.623 9.805 9.805 0 0 1-1.166 1.421 9.146 9.146 0 0 1-1.418 1.169 9.74 9.74 0 0 1-1.623.866 10.063 10.063 0 0 1-1.764.541 9.74 9.74 0 0 1-3.658 0 10.065 10.065 0 0 1-1.764-.541 9.74 9.74 0 0 1-1.623-.866 9.144 9.144 0 0 1-1.418-1.169 9.232 9.232 0 0 1-2.035-3.041 9.462 9.462 0 0 1 0-7.186 10.045 10.045 0 0 1 .866-1.612 9.341 9.341 0 0 1 1.169-1.429 9.806 9.806 0 0 1 1.418-1.169 10.627 10.627 0 0 1 1.623-.866 9.188 9.188 0 0 1 1.764-.53 9.448 9.448 0 0 1 1.829-.184z" fill="none" stroke="#df6361" stroke-miterlimit="10" stroke-width="3"/><path data-name="Path 5954" d="M315.822 228.33c.076.325-.065.541-.433.628l-3.106.758c-.379.1-.606 0-.682-.346s.076-.519.444-.606l.963-.238-1.082-4.188-.747.758a.671.671 0 0 1-.216.13.422.422 0 0 1-.368-.087.552.552 0 0 1-.227-.335.5.5 0 0 1 .141-.476l1.212-1.223a.909.909 0 0 1 .476-.292.541.541 0 0 1 .455.054.573.573 0 0 1 .26.39l1.223 4.978.962-.226c.39-.144.65-.036.725.321z" fill="#df6361"/><path data-name="Path 5955" d="M320.476 224.574a.521.521 0 0 1 .184.574.466.466 0 0 1-.26.195l-1.439.346.346 1.429a.379.379 0 0 1 0 .325.357.357 0 0 1-.26.184.4.4 0 0 1-.5-.314l-.357-1.429-1.429.357a.422.422 0 0 1-.325 0 .5.5 0 0 1-.184-.26.476.476 0 0 1 0-.325.444.444 0 0 1 .26-.184l1.439-.346-.346-1.439a.412.412 0 1 1 .8-.195l.357 1.429 1.429-.346a.422.422 0 0 1 .285-.001z" fill="#df6361"/><path data-name="Path 5956" d="M232.309 234.185a39.273 39.273 0 0 1-3.734-8.019 29.859 29.859 0 0 0-3.1-6.363 24.046 24.046 0 0 0-4.654-5.249 15.584 15.584 0 0 0-8.4-4.112l4.74 2.576c.216.119.433.238.357.552a.4.4 0 0 1-.541.292c-.79-.173-1.58-.39-2.37-.574a29.8 29.8 0 0 0-14.447-.108c-8.402 2.163-16.226 5.626-22.481 12.866a45.453 45.453 0 0 0-8.658 15.4c-.119.357-.108.855-.552.974-.444-.249-.076-.909-.574-1.255a38.722 38.722 0 0 1-4.112 3.5c-.942.563-2.035.66-2.868 1.45a77.107 77.107 0 0 0 1.916 19.48 11.558 11.558 0 0 1-1.212 8.876c2.641 2.446 3.452 5.974 4.08 9.5a3.463 3.463 0 0 0 1.677 2.8c4.589 2.576 9.253 4.9 14.307 5.952a12.759 12.759 0 0 0 3.82.476 83.645 83.645 0 0 0 9.74-1.45 26.752 26.752 0 0 0 4.1-.833q.833-.487 1.082-.39v-.3a28.971 28.971 0 0 1-14.155-5.617c-.314-.238-.552-.4-.974-.162-4.047 2.338-7.987 1.418-11.7-1.082a15.67 15.67 0 0 1-6.969-12.824c-.325-6.255 4.156-10.249 9.426-8.6a6.385 6.385 0 0 0 .79.162 18.657 18.657 0 0 1 2.532-9.848 1.97 1.97 0 0 0 .422-1.4c-.942-3.247-1.9-6.493-2.846-9.74-.238-.833.13-.8.7-.682a11.8 11.8 0 0 0 7.045-.444 3.128 3.128 0 0 0 .628-.238c.411-.281 1.082-.335 1.082-.974s-.6-.693-.952-.952a11.9 11.9 0 0 1-2.624-2.854c.617-.39.952 0 1.309.152a19.62 19.62 0 0 0 12.337 1.493c5.844-1.353 9.1-5.909 10.584-12.348a17.045 17.045 0 0 1 .411-1.786 21.178 21.178 0 0 1-.714 6.807c-.152.758-.812 1.786-.227 2.262s1.385-.433 1.937-.952a19.859 19.859 0 0 0 5.324-9.285c.108-.379.195-.768.346-1.342a22.23 22.23 0 0 1 1.082 5.281c.065.4 0 .909.433 1.082s.628-.281.866-.584a10.714 10.714 0 0 0 1.753-4.621c.173-.942.39-.931 1.082-.476a10.909 10.909 0 0 1 3.69 4.448 46.33 46.33 0 0 1 2.781 7.24 19.209 19.209 0 0 1 6.861 2.857c.187-.452-.192-.711-.376-1.014z" fill="#ac5d4a"/><path data-name="Path 5957" d="M201.184 292.321c.617-.325 1.775.141 1.753-1.082s-1.212-.9-1.829-.952a29.014 29.014 0 0 1-14.837-5.683c-.314-.238-.552-.4-.974-.162-4.047 2.338-7.987 1.418-11.7-1.082a15.67 15.67 0 0 1-6.969-12.824c-.325-6.255 4.156-10.249 9.426-8.6a6.385 6.385 0 0 0 .79.162c-.166 7.496 4.687 13.762 10.109 15.556a12.987 12.987 0 0 0 13.906-3.073c.3-.281.519-.736 1.006-.66a8.441 8.441 0 0 0 6.645 5.617 11.98 11.98 0 0 0 9.026-2.084c4.058-2.619 5.552-6.493 4.513-11.623.931 0 1.861-.173 2.792-.141a12.424 12.424 0 0 0 7.013-2.056c.335-.206.66-.541 1.082-.444a28.646 28.646 0 0 1-7.575 19.252 22.629 22.629 0 0 1-7.272 5.162c-.465.206-.812.411-.649 1.082s.6.465.985.4l1.19-.162a8.517 8.517 0 0 1 .758 2.164 9.664 9.664 0 0 1-6.495 8.538 10.822 10.822 0 0 1-11.233-1.807z" fill="#ffc363"/><path data-name="Path 5958" d="M212.428 210.409l4.74 2.576c.216.119.433.238.357.552a.4.4 0 0 1-.541.292c-.79-.173-1.58-.39-2.37-.574a29.8 29.8 0 0 0-14.447-.076c-8.409 2.165-16.234 5.628-22.489 12.868a45.453 45.453 0 0 0-8.658 15.4c-.119.357-.108.855-.552.974-.444-.249-.076-.909-.574-1.255a38.722 38.722 0 0 1-4.112 3.5c-.942.563-2.035.66-2.868 1.45a13.614 13.614 0 0 1-10.919-2.059c-.822-.552-1.223-.974-.53-2.089 2.478-3.993 5.043-7.846 9.134-9.881 2.1-1.082 4.329-.952 6.493-.9.346.422.725.574 1.147.173a2.273 2.273 0 0 0 .422-1.991 11.9 11.9 0 0 1-.4-7.435c.941-4.077 2.002-8.127 2.965-12.207.184-.79.444-.9 1-.476 3.052 2.327 5.833 5.011 7.24 9.123.357 1.082.693 1.082 1.418.519a45.247 45.247 0 0 1 11.629-6.969c7.013-2.824 14.145-4.156 21.525-1.71l.281.054c.076 0 .109.044.109.141z" fill="#18aab8"/><path data-name="Path 5959" d="M218.467 289.096l1.19-.162a3.679 3.679 0 0 1 2.305-.39c1.526-.3 3.073-.649 4.589-1.082a7.219 7.219 0 0 1 1.082-.465 53.2 53.2 0 0 0 5.411-2.446l.281-.13a16.612 16.612 0 0 0 2.63-2.164 6.905 6.905 0 0 1 1.234-1.006 27.651 27.651 0 0 0 3.376-11.59c1.612 1.861 1.9 4.567.974 9.091a24.89 24.89 0 0 0 3.744-4.47c.1-.227.076-.53.335-.649.065-.346.1-.714.195-1.082a45.648 45.648 0 0 0 1.342-18.495c-.79-6.612-6.093-11.785-10.313-13.971a7.837 7.837 0 0 0 .281.758c3.506 7.435 2.164 15.714-3.344 21.114-.335.335-.747.606-.8 1.19a28.646 28.646 0 0 1-7.575 19.253 22.629 22.629 0 0 1-7.316 5.205c-.465.206-.812.411-.649 1.082s.649.474 1.028.409z" fill="#ac5d4a"/><path data-name="Path 5960" d="M180.319 253.556c2.706-4.794 6.645-7.045 11.547-6.883a11.255 11.255 0 0 1 7.651 3.409 15.93 15.93 0 0 1 4.7 14.523c-1.266 7.8-7.175 12.987-13.993 12.186-6.114-.736-11.093-5.714-11.85-13.3.639.206.985.866 1.493 1.288.271.227.455.758.877.519s.195-.649.238-.985a38.96 38.96 0 0 0-.66-10.757zm21.417 6.385c0-.455-.346-.768-.7-1.082-2.532-2.457-6.223-2.381-9.036.216-.455.422-.833.931-1.515.476-.281-.184-.649-.649-.952-.292s0 .942.227 1.255c.974 1.234.292 1.407-.649 1.45h-.812c-.271 0-.6-.119-.725.195s.249.584.433.844c.411.574 1.331.314 1.5 1.136s.4 1.288 1.082 1.18.822-.8.985-1.472a5.335 5.335 0 0 1 3.106-3.939 4.524 4.524 0 0 1 5.195.877c.411.368.822.671 1.342.335a1.234 1.234 0 0 0 .519-1.18z" fill="#f8cc84"/><path data-name="Path 5961" d="M179.8 250.861c-.942-3.247-1.9-6.493-2.846-9.74-.238-.833.13-.8.7-.682a11.8 11.8 0 0 0 7.045-.444 3.128 3.128 0 0 0 .628-.238c.411-.281 1.082-.335 1.082-.974s-.6-.693-.952-.952a11.9 11.9 0 0 1-2.63-2.846c.617-.39.952 0 1.309.152a19.62 19.62 0 0 0 12.337 1.493c5.844-1.353 9.1-5.909 10.584-12.348a17.045 17.045 0 0 1 .411-1.786 21.178 21.178 0 0 1-.714 6.807c-.152.758-.812 1.786-.227 2.262s1.385-.433 1.937-.952a19.859 19.859 0 0 0 5.324-9.285c.108-.379.195-.768.346-1.342a22.23 22.23 0 0 1 1.082 5.281c.065.4 0 .909.433 1.082s.628-.281.866-.584a10.714 10.714 0 0 0 1.753-4.621c.173-.942.39-.931 1.082-.476a10.909 10.909 0 0 1 3.69 4.448 46.33 46.33 0 0 1 2.781 7.24l-2.435.054a1.764 1.764 0 0 0-1.32-1.19c-3.615-1.255-6.926-.422-10 1.84-.812.6-1.472 1.4-.725 2.543s1.439.682 2.24.076a7.067 7.067 0 0 1 4.5-1.732c-.952.909-2.164 1.461-3.041 2.457a16.991 16.991 0 0 0-4.852 12.192 19.112 19.112 0 0 0 1.017 6.677c.346.877.216 1.374-.8 1.364a5.671 5.671 0 0 0-3.831 1.659c-.768.693-.963.379-1.082-.444a16.385 16.385 0 0 0-4.718-8.723 12.922 12.922 0 0 0-13.528-3.485c-.39.1-.779.173-1.18.26a1.2 1.2 0 0 1 .487-.693 8.831 8.831 0 0 1 6.385-2.338 1.3 1.3 0 0 0 1.493-1.364c0-.985-.444-1.732-1.364-1.753a11.017 11.017 0 0 0-9.609 4.72 2.164 2.164 0 0 0 0 3.019c-1.386.964-2.165 2.695-3.658 3.366z" fill="#ffc363"/><path data-name="Path 5962" d="M235.577 257.549c-2.608 4.177-6.093 6.623-10.627 6.612-8.658 0-14.74-8.658-13.268-17.856a14.512 14.512 0 0 1 6.136-10.086 12.088 12.088 0 0 1 9.123-2.067c-.476.357-.227.822-.1 1.234 1.688 5.281 3.106 10.66 4.394 16.428.844-3 .725-5.833.974-8.82a11.309 11.309 0 0 1 2.76 4.924 24.826 24.826 0 0 1 .628 9.329c-.269.043-.193.151-.02.302zm-11.439-7.164c.076-.357.119-.7.206-1.082s.13-.779-.173-.985-.541.216-.7.465a1.493 1.493 0 0 1-1.786.628 6.493 6.493 0 0 0-7.164 4.892c-.195.747-.141 1.374.53 1.688s.985-.227 1.234-.812c1.721-4.026 4.783-4.805 7.749-1.97.638.617 1.407.758 1.6-.216a8.215 8.215 0 0 1 .909-2.164c.119-.249.314-.552 0-.833s-.422 0-.606.108a2.164 2.164 0 0 1-1.8.281z" fill="#f8cc84"/><path data-name="Path 5963" d="M222.049 265.84c1.082 5.173-.455 9-4.513 11.623a11.98 11.98 0 0 1-9.025 2.086 8.441 8.441 0 0 1-6.656-5.614c.119-1.656 1.4-2.5 2.045-3.788.141-.26.487.087.736.162 4.794 1.418 8.831-.13 12.37-3.712.13-.141.216-.335.346-.465.584-.563.584-2.164 1.082-2 1.277.409 2.663.539 3.615 1.708z" fill="#ac5d4a"/><path data-name="Path 5964" d="M235.598 257.235a24.826 24.826 0 0 0-.628-9.329 11.309 11.309 0 0 0-2.76-4.924c-.249 2.987-.13 5.822-.974 8.82-1.287-5.768-2.705-11.146-4.397-16.431-.13-.411-.379-.877.1-1.234 8.863 2.035 13.29 12.987 9.48 21.742-.215.501-.323 1.086-.821 1.356z" fill="#ac5d4a"/><path data-name="Path 5965" d="M217.309 263.751c-3.474 1.082-6.71 2.63-10.075 3.809a.738.738 0 0 0-.39.076c-.6.141-1.245 1.082-1.7.476s0-1.526.227-2.294a14.068 14.068 0 0 0 .422-3.03 4.123 4.123 0 0 1 2.608-3.907c1.526-.7 3.247-1.082 4.686.39a45.539 45.539 0 0 0 4.221 4.48zm-4.534-.725a2.078 2.078 0 0 0-1.753-2.229 2.413 2.413 0 0 0-2.835 1.2 1.948 1.948 0 0 0-.1 2.359c.954-3.452 2.523-3.732 4.687-1.33z" fill="#fcc09f"/><path data-name="Path 5966" d="M183.382 247.499a2.164 2.164 0 0 1 0-3.019 11.017 11.017 0 0 1 9.642-4.686c.92 0 1.407.768 1.364 1.753a1.3 1.3 0 0 1-1.493 1.364 8.831 8.831 0 0 0-6.39 2.334 1.2 1.2 0 0 0-.487.693 5.411 5.411 0 0 1-2.636 1.561z" fill="#ac5d4a"/><path data-name="Path 5967" d="M218.088 233.947a7.067 7.067 0 0 0-4.491 1.753c-.8.606-1.58.952-2.24-.076a1.807 1.807 0 0 1 .725-2.543c3.073-2.262 6.385-3.1 10-1.84a1.764 1.764 0 0 1 1.32 1.19z" fill="#ac5d4a"/><path data-name="Path 5968" d="M180.319 253.556a38.959 38.959 0 0 1 .66 10.757c0 .335.1.8-.238.985s-.606-.292-.877-.519c-.509-.422-.855-1.082-1.493-1.288a13.6 13.6 0 0 1 1.948-9.935z" fill="#ac5d4a"/><path data-name="Path 5969" d="M166.618 229.326a2.273 2.273 0 0 1-.422 1.991c-.422.4-.8.249-1.147-.173a6.71 6.71 0 0 1 1.569-1.818z" fill="#ac5d4a"/><path data-name="Path 5970" d="M212.32 210.268l-.281-.054z" fill="#ac5d4a"/><path data-name="Path 5971" d="M235.577 257.55c-.227-.141-.249-.249 0-.325z" fill="#ac5d4a"/><path data-name="Path 5972" d="M232.904 235.579l.076.022-.054-.043z" fill="#ac5d4a"/><path data-name="Path 5973" d="M232.926 235.559l-.271-.325c.3-.1.281.119.26.335z" fill="#ac5d4a"/><path data-name="Path 5974" d="M241.551 278.751a42.206 42.206 0 0 1-4.524 4.394c-.227.216-.649.66-1.082.173a27.553 27.553 0 0 0 4.61-13.657c1.634 1.86 1.927 4.566.996 9.09z" fill="#fefefe"/><path data-name="Path 5975" d="M245.63 273.631a.66.66 0 0 1-.335.649c.097-.227.076-.497.335-.649z" fill="#fefefe"/><path data-name="Path 5976" d="M201.736 259.941a1.234 1.234 0 0 1-.465 1.18c-.519.335-.931 0-1.342-.335a4.524 4.524 0 0 0-5.195-.877 5.335 5.335 0 0 0-3.106 3.939c-.162.671-.271 1.364-.985 1.472s-.974-.422-1.082-1.18-1.082-.563-1.5-1.136c-.184-.26-.606-.4-.433-.844s.476-.173.725-.195.541 0 .812 0c.942 0 1.623-.216.649-1.45-.238-.314-.563-.844-.227-1.255s.671.108.952.292c.682.455 1.082 0 1.515-.476 2.814-2.6 6.493-2.673 9.036-.216.3.313.657.627.646 1.081z" fill="#ac5d4a"/><path data-name="Path 5977" d="M224.138 250.385a2.164 2.164 0 0 0 1.84-.314c.184-.1.4-.325.606-.108s.076.584 0 .833a8.214 8.214 0 0 0-.909 2.164c-.195.974-.963.833-1.6.216-2.965-2.835-6.028-2.056-7.749 1.97-.249.584-.563 1.082-1.234.812s-.725-.942-.53-1.688a6.493 6.493 0 0 1 7.164-4.816 1.493 1.493 0 0 0 1.775-.639c.162-.249.325-.725.7-.465s.26.617.173.985-.161.693-.236 1.05z" fill="#ac5d4a"/><path data-name="Path 5978" d="M212.775 263.025c-2.164-2.4-3.734-2.164-4.686 1.331a1.948 1.948 0 0 1 .1-2.359 2.413 2.413 0 0 1 2.835-1.2 2.078 2.078 0 0 1 1.753 2.229z" fill="#ac5d4a"/></g></g></g></svg>