<svg xmlns="http://www.w3.org/2000/svg" width="493" height="375.181"><g data-name="Group 1462"><path data-name="Path 5456" d="M182.161 94.623l25.793-18.942c-2.551-22.851-6-41.851-6-41.851-34.317 14.057-57.247 34.454-72.358 57.1l8.2 35.857-17.564-19.656c-31.808 64.1-11.472 137.815-11.472 137.815s84.036-73.918 96.968-96.5c4.994-8.718 5.568-27.791 4.393-47.923-11.654-1.708-27.96-5.9-27.96-5.9z" fill="#00486e"/><path data-name="Path 5457" d="M201.955 33.83s-81.969 131.572-93.2 211.111c0 0 84.035-73.918 96.968-96.5 4.994-8.718 5.568-27.791 4.392-47.923-11.652-1.708-27.958-5.9-27.958-5.9l25.792-18.942c-2.547-22.846-5.994-41.846-5.994-41.846z" fill="#297ba7"/><path data-name="Path 5458" d="M253.705 114.936a146.69 146.69 0 0 0-58.722 16.422c-.544 8.767-1.417 19.242-1.417 19.242l-9.845-12.692c-60.745 38.919-81.638 112.819-81.638 112.819 49.272-2.609 82.535-17.238 104.995-35.994-1.83-5.582-4.666-13.833-4.666-13.833l11.649 7.553a125.8 125.8 0 0 0 23.338-31.041c-6.089-3.885-12.848-8.469-12.848-8.469l17.777-1.761c12.066-28.018 11.377-52.246 11.377-52.246z" fill="#007bbc"/><path data-name="Path 5459" d="M207.076 214.736c-1.83-5.582-4.666-13.833-4.666-13.833l11.649 7.553a125.8 125.8 0 0 0 23.338-31.041c-6.089-3.885-12.848-8.469-12.848-8.469l17.777-1.761c12.069-28.02 11.378-52.248 11.378-52.248-74.168 40.548-151.622 135.792-151.622 135.792 49.271-2.611 82.534-17.24 104.994-35.993z" fill="#00486e"/><path data-name="Path 5460" d="M459.886 208.665h15.339a16.033 16.033 0 0 0-9.063-2.742H81.925c-20.1 0-36.4 14.446-36.4 32.266v20.495c0 17.819 16.3 32.266 36.4 32.266l379.937-.115z" fill="#e03268"/><path data-name="Path 5461" d="M77.754 258.683v-20.494c0-17.82 16.3-32.266 36.4-32.266h-8.251c-20.1 0-36.4 14.446-36.4 32.266v20.495c0 17.819 16.3 32.266 36.4 32.266h8.142c-20.05-.056-36.291-14.479-36.291-32.267z" fill="#feb546"/><path data-name="Path 5462" d="M167.745 258.683v-20.494c0-17.82 16.3-32.266 36.4-32.266h-8.251c-20.1 0-36.4 14.446-36.4 32.266v20.495c0 17.819 16.3 32.266 36.4 32.266h8.141c-20.051-.056-36.29-14.479-36.29-32.267z" fill="#feb546"/><path data-name="Path 5463" d="M241.748 205.999c-19.225 0-34.809 13.814-34.809 30.857v23.161c0 17.042 15.584 30.856 34.809 30.856h239.2v-5.181h-.988l-60.809-5.1-12.291-42.741s23.722-23.619 25.269-24.229 47.831-2.457 47.831-2.457l.988-.01v-5.152z" fill="#ff5b7e"/><path data-name="Path 5464" d="M465.429 248.283c0-24.99 14.568-37.1 14.568-37.1H246.642c-17.658 0-31.972 12.689-31.972 28.342v17.828c0 15.653 14.315 28.342 31.972 28.342h233.351s-14.564-5.946-14.564-37.412z" fill="#daeef7"/><path data-name="Path 5465" d="M214.674 239.522v17.828a25.361 25.361 0 0 0 .931 6.8c7.87-17.069 22.954-33.51 51.668-38.8 67.04-12.343 212.723-14.171 212.723-14.171H246.642c-17.653.001-31.968 12.69-31.968 28.343z" fill="#daeef7" style="mix-blend-mode:multiply;isolation:isolate"/><path data-name="Path 5466" d="M23.842 293.458H6.472a19.993 19.993 0 0 1 10.262-2.725h435.049c22.761 0 41.213 14.348 41.213 32.046v20.356c0 17.7-18.452 32.046-41.213 32.046L21.6 375.068z" fill="#00486e"/><path data-name="Path 5467" d="M270.828 290.809c21.768 0 39.414 13.721 39.414 30.647v23c0 16.926-17.646 30.647-39.414 30.647H0v-5.146h1.119l68.85-5.071 13.916-42.451s-26.859-23.458-28.61-24.062-54.156-2.441-54.156-2.441L0 295.923v-5.118z" fill="#0078b8"/><path data-name="Path 5468" d="M17.567 332.806c0-24.82-16.5-36.852-16.5-36.852h264.212c19.993 0 36.2 12.6 36.2 28.15v17.707c0 15.546-16.208 28.149-36.2 28.149H1.067s16.5-5.903 16.5-37.154z" fill="#daeef7"/><path data-name="Path 5469" d="M301.483 324.104v17.707a22.306 22.306 0 0 1-1.055 6.751c-8.911-16.954-25.99-33.283-58.5-38.533C166.022 297.77 1.072 295.954 1.072 295.954h264.212c19.991 0 36.199 12.603 36.199 28.15z" fill="#daeef7" style="mix-blend-mode:multiply;isolation:isolate"/><path data-name="Path 5470" d="M413.301 343.135v-20.356c0-17.7-18.451-32.046-41.213-32.046H413.4c22.762 0 41.213 14.348 41.213 32.046v20.356c0 17.7-18.452 32.046-41.213 32.046l-40.765-.011c22.508-.228 40.666-14.479 40.666-32.035z" fill="#55769f" opacity=".5"/><path data-name="Path 5471" d="M337.252 273.621l-3.986 8.891a1.458 1.458 0 0 0 .734 1.926l20.819 9.332a1.65 1.65 0 0 0 2.055-2.413l-8.057-12.552s-6.369 1.166-11.565-5.184z" fill="#55769f"/><path data-name="Path 5472" d="M310.801 273.621l-3.986 8.891a1.457 1.457 0 0 0 .734 1.926l20.819 9.332a1.65 1.65 0 0 0 2.054-2.413l-8.057-12.552s-6.368 1.166-11.564-5.184z" fill="#55769f"/><path data-name="Path 5473" d="M265.831 28.485l-2.213 13.885-4.677-18.513s6.556-3.181 6.844-2.024a51.6 51.6 0 0 1 .046 6.652z" fill="#07085b"/><path data-name="Path 5474" d="M228.622 58.371l-2.025 24 21.182-1.012-2.442-21.257z" fill="#ffc0bb"/><path data-name="Path 5475" d="M246.498 70.215l-1.162-10.109-16.715-1.735-.7 8.313c3.322 3.31 9.299 6.743 18.577 3.531z" fill="#f99893"/><g data-name="Group 94"><path data-name="Path 5476" d="M259.485 42.197c-1.273 2.634-.6 5.6 1.509 6.615s4.848-.291 6.122-2.925.6-5.6-1.509-6.615-4.848.291-6.122 2.925z" fill="#f99893"/><path data-name="Path 5477" d="M262.56 44.126c.111-.686.261-1.366.425-2.042a22.634 22.634 0 1 0-44.59-6.748 4.888 4.888 0 0 0-4.375-.621c-2.757 1.027-3.95 4.653-2.666 8.1s4.56 5.406 7.317 4.379a4.324 4.324 0 0 0 1.052-.576c.426 11.131 8.946 20.242 19.825 20.751a20.309 20.309 0 0 0 14.113-4.854c5.222-3.84 7.866-11.995 8.899-18.389z" fill="#ffc0bb"/><path data-name="Path 5478" d="M246.061 36.869c.043 1.3.053 2.562.12 3.8a8.445 8.445 0 0 0 .7 3.363 3.218 3.218 0 0 1 .9 1.982 2.674 2.674 0 0 1-.988 2.095 4.366 4.366 0 0 1-3.9.759 5.387 5.387 0 0 0 3.185-1.485 1.715 1.715 0 0 0 .468-1.3c-.053-.476-.2-.573-.773-1.368a5.043 5.043 0 0 1-.613-2.069 10.557 10.557 0 0 1 .009-2 13.532 13.532 0 0 1 .892-3.777z" fill="#f99893"/><path data-name="Path 5479" d="M238.542 38.266a1.976 1.976 0 1 1-1.562-1.711 1.977 1.977 0 0 1 1.562 1.711z" fill="#333"/><path data-name="Path 5480" d="M255.44 40.177a1.977 1.977 0 1 1-1.56-1.716 1.978 1.978 0 0 1 1.56 1.716z" fill="#333"/><path data-name="Path 5481" d="M235.239 51.959a14.337 14.337 0 0 0 1.632 1.24 14.162 14.162 0 0 0 1.76 1.019 12.245 12.245 0 0 0 3.834 1.178 10.449 10.449 0 0 0 3.98-.293 14.678 14.678 0 0 0 3.7-1.682 11 11 0 0 1-3.586 2.063 9.426 9.426 0 0 1-4.16.427 10.8 10.8 0 0 1-3.956-1.341 11.828 11.828 0 0 1-3.204-2.611z" fill="#f99893"/><path data-name="Path 5482" d="M241.033 34.121a20.193 20.193 0 0 0-2.889-.693 10.013 10.013 0 0 0-2.743-.061 9.266 9.266 0 0 0-2.64.7c-.658.205-2.253 1.144-2.669 1.326a6.643 6.643 0 0 1 5.134-3.571 6.673 6.673 0 0 1 3.247.432 6.073 6.073 0 0 1 2.56 1.867z" fill="#07085b"/><path data-name="Path 5483" d="M249.736 35.1a6.075 6.075 0 0 1 2.875-1.334 6.66 6.66 0 0 1 3.268.207 6.641 6.641 0 0 1 4.342 4.5c-.377-.263-1.757-1.491-2.36-1.818a9.268 9.268 0 0 0-2.454-1.2 10.058 10.058 0 0 0-2.7-.473 20.311 20.311 0 0 0-2.971.118z" fill="#07085b"/></g><path data-name="Path 5484" d="M240.286 170.969s-4.417 29.965 24.534 35.185 64.976 3.664 64.976 3.664l5.012 68.831 15.115.771s38.919-95.637-14.951-110.587l-48.412.238-19.933-1.424s-20.172-4.983-20.409-4.035-5.458 7.833-5.932 7.357z" fill="#0b2734"/><path data-name="Path 5485" d="M213.679 171.127s-4.417 29.965 24.535 35.186 64.975 3.663 64.975 3.663l5.013 68.832 15.114.771s38.919-95.637-14.951-110.587l-48.411.237-19.934-1.424s-20.171-4.984-20.408-4.034-5.459 7.835-5.933 7.356z" fill="#0b1e27"/><path data-name="Path 5486" d="M250.145 72.802s19.934 2.531 25 6.645 29.427 64.548 29.427 64.548l-20.25 23.731-43.033.317s-32.274 17.4-52.525.949-9.809-73.724 1.9-86.064 32.591-12.023 32.591-12.023 18.979 13.288 26.89 1.897z" fill="#ff5b7e"/><path data-name="Path 5487" d="M211.543 102.861a83.61 83.61 0 0 1 1.46 9.992c.172 1.676.246 3.36.343 5.044.051 1.685.09 3.371.067 5.06a66.529 66.529 0 0 1-.831 10.1 33.193 33.193 0 0 1-2.936 9.673 49.649 49.649 0 0 0 1.93-9.81c.367-3.309.494-6.645.537-9.98.069-3.336-.012-6.679-.118-10.024s-.274-6.693-.452-10.055z" fill="#fff"/><path data-name="Path 5488" d="M271.187 100.646c.911 4.9 1.875 9.785 2.855 14.661 1 4.871 2.037 9.732 3.216 14.555s2.46 9.619 4.027 14.318a70.359 70.359 0 0 0 2.689 6.917 26.628 26.628 0 0 0 3.824 6.345 24.228 24.228 0 0 1-4.4-6.061 57.041 57.041 0 0 1-3.073-6.858c-.9-2.339-1.664-4.723-2.392-7.114-.7-2.4-1.344-4.816-1.944-7.24a232.08 232.08 0 0 1-1.612-7.315c-.475-2.45-.942-4.9-1.335-7.365a186.938 186.938 0 0 1-1.855-14.843z" fill="#fff"/><path data-name="Path 5499" d="M281.204 154.048c-.127-1-7.731-2.12-10.527-2.265-2.118-.109-16.157-.579-20.932-.794l.35 1.228-.072 5.422-.784 3.593c4.189.266 14.431.666 16.563 1.088a52.345 52.345 0 0 1 7.791 2.711s2.055-.467-.557-1.594a12.523 12.523 0 0 1-4.191-3c-.358-.4.03-1.114.291-1.046 7.111 1.863 7.842 2.171 7.842 2.171s8.357-.047.048-1.925c-4.981-1.126-6.766-1.781-7.21-2.34-.189-.237.149-1.047.452-1.066 4.315-.267 12.061 1.263 9.939.26-1.73-.818-7.178-1.715-9.3-2.053-.13-.021-.34-.81.238-.859 4.112-.343 10.176 1.4 10.059.469z" fill="#ffc0bb"/><path data-name="Path 5500" d="M206.678 141.898c1.75.426 3.476.915 5.234 1.282 1.744.416 3.515.719 5.267 1.089 3.527.643 7.066 1.2 10.615 1.7 3.553.467 7.111.9 10.678 1.24s7.167.655 10.685.851l.473.026.1.41a28.879 28.879 0 0 1 .649 3.549 28.53 28.53 0 0 1 .21 3.584 23.081 23.081 0 0 1-.311 3.588 16.578 16.578 0 0 1-1.042 3.46l-.041.1-.077.051-3.908 2.622q-1.953 1.312-3.928 2.594a232.898 232.898 0 0 1 3.7-2.9l3.725-2.876-.118.147a15.811 15.811 0 0 0 .819-3.326 22.974 22.974 0 0 0 .167-3.442 32.361 32.361 0 0 0-.313-3.445 28.155 28.155 0 0 0-.691-3.371l.577.437c-1.859-.049-3.619-.169-5.427-.3s-3.593-.275-5.385-.464c-3.584-.37-7.16-.816-10.719-1.386s-7.1-1.269-10.605-2.1c-1.747-.447-3.5-.877-5.216-1.42-1.726-.49-3.425-1.097-5.118-1.7z" fill="#fff"/><path data-name="Path 5501" d="M266.255 15.349s6.646.214-.328-5.406-25.7-12.209-37.7-5.872c0 0-2.4-5.1-5.869-3.884s2.256 4.729 2.256 4.729-4.43-.143-5.783 2.03c-1 1.607 1.714 1.677 3.2 1.6-2.522.429-12.191 6.535-7.338 26.031 1.725-.379 11.554-14.632 11.554-14.632s22.476 12.488 20.254 2.558c0 0 23.286 14.532 19.983 2.528-.001.006 8.999.665-.229-9.682z" fill="#1b2931"/><path data-name="Path 5502" d="M214.672 34.7a4.256 4.256 0 0 1 3.863.935c2 1.588 1.781 7.17 1.781 7.17s9.555 6.161 8.548-19.91c-1.072-27.736-7.971 2.225-7.971 2.225z" fill="#1b2931"/><g data-name="Group 165" transform="rotate(28 2152.264 1906.742)"><path data-name="Path 5660" d="M-327.01 1259.78h2.613l13.927-17.965 2.635-57.464h-2.008l-17.167 17.965z" fill="#45679d"/><path data-name="Path 5495" d="M-324.375 1259.78l16.54-17.965v-57.464l-16.54 17.965z" fill="#26426e"/><ellipse data-name="Ellipse 16" cx="1" cy="4" rx="1" ry="4" transform="translate(-315.507 1214.39)" fill="#88b2f5"/><g data-name="Group 164" transform="translate(-323.182 1199.153)"><path data-name="Path 5661" d="M0 13.675l3.6-4.05V0L0 4.049z" fill="#88b2f5"/><ellipse data-name="Ellipse 17" cx=".5" cy="1.5" rx=".5" ry="1.5" transform="translate(.675 4.236)" fill="#3964a8"/><ellipse data-name="Ellipse 18" cy="1" ry="1" transform="translate(2.675 6.236)" fill="#3964a8"/><ellipse data-name="Ellipse 19" cx=".5" cy="1.5" rx=".5" ry="1.5" transform="translate(.675 8.236)" fill="#3964a8"/></g></g><g data-name="Group 433"><g data-name="Group 237"><path data-name="Path 5751" d="M312.606 63.916v23.832a5.45 5.45 0 0 0 5.449 5.451h2.511v12.936a.615.615 0 0 0 1.086.4l13.813-13.331h16.281a5.45 5.45 0 0 0 5.449-5.451V63.916a5.45 5.45 0 0 0-5.449-5.449h-33.689a5.45 5.45 0 0 0-5.451 5.449z" fill="#00486e"/></g></g><g data-name="Group 434" fill="#ffd864"><path d="M341.94 72.837a10.665 10.665 0 0 1 .245 1.1 8.615 8.615 0 0 1 .082 1.061v.041a7.183 7.183 0 0 1-2.122 5.1 6.841 6.841 0 0 1-2.2 1.51.916.916 0 0 0-.571-.245h-1.02a6.68 6.68 0 0 0 3.3-1.754 6.233 6.233 0 0 0 1.591-2.693l.245-.979a11.769 11.769 0 0 0 0-1.958c-.082-.326-.163-.653-.245-.938zm-9.832 8.812a6.841 6.841 0 0 1-2.2-1.51 7.183 7.183 0 0 1-2.122-5.1v-.041a10.029 10.029 0 0 1 .082-1.142 9.348 9.348 0 0 1 .282-1.141l.694.2a4.983 4.983 0 0 0-.245 1.061 7.756 7.756 0 0 0-.122 1.02 8.41 8.41 0 0 0 .122 1.061 4.636 4.636 0 0 0 .245 1.02 6.9 6.9 0 0 0 1.55 2.57 6.68 6.68 0 0 0 3.3 1.754h-1.011a.827.827 0 0 0-.575.249z"/><path d="M329.496 74.061a5 5 0 0 1-1.67-1.387 4.621 4.621 0 0 1 .449-6 5.238 5.238 0 0 1 1.058-.813 3.25 3.25 0 0 0 .53.53 3.4 3.4 0 0 0-1.061.775 3.751 3.751 0 0 0-1.142 2.775 4.141 4.141 0 0 0 .734 2.326 4.056 4.056 0 0 0 2 1.387l.326.122.612.163a4.379 4.379 0 0 0-.2 1.306 3.724 3.724 0 0 0 1.142 2.733 3.517 3.517 0 0 0 1.714 1.02v.734a4.69 4.69 0 0 1-2.2-1.224v-.041a4.4 4.4 0 0 1-1.346-3.223 5.2 5.2 0 0 1 .041-.816 5.868 5.868 0 0 1-.987-.367zm6.569 4.937a3.517 3.517 0 0 0 1.714-1.02 3.889 3.889 0 0 0 1.142-2.733 4.379 4.379 0 0 0-.2-1.306l.571-.163.326-.122a3.991 3.991 0 0 0 2.04-1.387 4.141 4.141 0 0 0 .734-2.326 3.751 3.751 0 0 0-1.142-2.774 3.4 3.4 0 0 0-1.061-.775 3.25 3.25 0 0 0 .53-.53 5.238 5.238 0 0 1 1.061.816 4.621 4.621 0 0 1 .449 6 5 5 0 0 1-1.676 1.383 5.869 5.869 0 0 1-.979.367 5.2 5.2 0 0 1 .041.816 4.4 4.4 0 0 1-1.346 3.223v.041a4.9 4.9 0 0 1-2.2 1.224zm-3.387 2.081h4.692a1.184 1.184 0 1 1 0 2.366h-4.692a1.239 1.239 0 0 1-.857-.326 1.288 1.288 0 0 1 0-1.714 1.239 1.239 0 0 1 .857-.326zm4.692.694h-4.692a.463.463 0 0 0-.326.816.5.5 0 0 0 .326.163h4.692a.5.5 0 0 0 .326-.163.491.491 0 0 0-.326-.816zm-.698 3.018a1.817 1.817 0 0 1-.49 1.183 1.659 1.659 0 0 1-1.183.49 1.636 1.636 0 0 1-1.142-.49 1.817 1.817 0 0 1-.485-1.183h.734a.861.861 0 0 0 .245.653.812.812 0 0 0 .653.286.841.841 0 0 0 .694-.286.861.861 0 0 0 .245-.653z"/><path d="M332.678 82.751h4.692a1.121 1.121 0 0 1 1.183 1.183 1.239 1.239 0 0 1-.326.857 1.36 1.36 0 0 1-.857.367h-4.692a1.272 1.272 0 0 1-.857-.367 1.239 1.239 0 0 1-.326-.857 1.317 1.317 0 0 1 .326-.857 1.239 1.239 0 0 1 .857-.326zm4.692.694h-4.692a.5.5 0 0 0-.326.163.371.371 0 0 0-.163.326.5.5 0 0 0 .163.367.463.463 0 0 0 .326.122h4.692a.463.463 0 0 0 .326-.122.5.5 0 0 0 .163-.367.371.371 0 0 0-.163-.326.5.5 0 0 0-.326-.163zm-4.977-16.523a3.1 3.1 0 0 1 2.122.857 3.025 3.025 0 0 1 .859 2.121 2.995 2.995 0 0 1-2.981 3.022 2.987 2.987 0 0 1-2.162-.9 2.954 2.954 0 0 1-.857-2.122 3.025 3.025 0 0 1 .857-2.122 3.125 3.125 0 0 1 2.162-.856zm1.591 1.387a2.13 2.13 0 0 0-1.591-.694 2.155 2.155 0 0 0-1.632.694 2.265 2.265 0 0 0 1.632 3.876 2.252 2.252 0 0 0 1.591-.653 2.219 2.219 0 0 0 0-3.223z"/><path d="M337.656 66.922a2.954 2.954 0 0 1 2.122.857 2.894 2.894 0 0 1 .9 2.122 3.066 3.066 0 0 1-3.022 3.021 2.995 2.995 0 0 1-2.978-3.022 3.025 3.025 0 0 1 .857-2.122 3.1 3.1 0 0 1 2.121-.856zm1.632 1.387a2.155 2.155 0 0 0-1.632-.694 2.13 2.13 0 0 0-1.591.694 2.219 2.219 0 0 0 0 3.223 2.252 2.252 0 0 0 1.591.653 2.278 2.278 0 0 0 1.632-.653 2.219 2.219 0 0 0 0-3.223z"/><path d="M334.31 72.062a1.944 1.944 0 0 0 .245.734c.163.245.326.49.449.694.163-.2.326-.449.49-.694a1.944 1.944 0 0 0 .245-.734l.734.041a4.113 4.113 0 0 1-.367 1.061 6.91 6.91 0 0 1-.816 1.142l-.286.326-.245-.326a6.907 6.907 0 0 1-.816-1.142 3 3 0 0 1-.367-1.061zm-5.875-8.612l6.569 2.326 7.219-2.526-.163.612a4.367 4.367 0 0 1-1.877 2.937 6.106 6.106 0 0 1-2.611.816 2.951 2.951 0 0 0-1.632.653 2.037 2.037 0 0 0-.571 1.591h-.694a2.05 2.05 0 0 0-.612-1.591 2.7 2.7 0 0 0-1.591-.653 6.106 6.106 0 0 1-2.611-.816 4.367 4.367 0 0 1-1.875-2.937l-.163-.612zm6.488 3.064l-6.039-2.164a3.617 3.617 0 0 0 1.346 1.877 5.71 5.71 0 0 0 2.326.694 3.718 3.718 0 0 1 2 .816 1.984 1.984 0 0 1 .449.571 2.147 2.147 0 0 1 .49-.571 3.718 3.718 0 0 1 2-.816 5.71 5.71 0 0 0 2.326-.694 3.617 3.617 0 0 0 1.343-1.877l-6.041 2.164z"/><path d="M337.656 68.717a1.062 1.062 0 0 1 .612.163c-.041 0-.041-.041-.082-.041a.49.49 0 0 0-.449.49.453.453 0 0 0 .449.449.463.463 0 0 0 .49-.449c0-.041-.041-.082-.041-.122a1.108 1.108 0 0 1 .245.694 1.204 1.204 0 1 1-2.407 0 1.184 1.184 0 0 1 1.183-1.184zm-5.263 0a.937.937 0 0 1 .571.163c-.041 0-.041-.041-.082-.041a.49.49 0 0 0-.449.49.453.453 0 0 0 .449.449.463.463 0 0 0 .49-.449.15.15 0 0 0-.041-.122 1.108 1.108 0 0 1 .245.694 1.204 1.204 0 1 1-2.407 0 1.193 1.193 0 0 1 1.224-1.184z" fill-rule="evenodd"/><path d="M333.29 79.487v1.754h.694v-1.754zm2.775 0v1.754h.694v-1.754z"/></g></g></svg>