<svg xmlns="http://www.w3.org/2000/svg" width="482.738" height="307.899"><g data-name="Group 1747" transform="translate(-156.367 -3003.423)"><path data-name="Path 11257" d="M499.414 3090.47a.485.485 0 0 0 .463-.344c.011-.035.266-.879.611-2.369a.484.484 0 0 0-.942-.219 40.064 40.064 0 0 1-.594 2.307.485.485 0 0 0 .323.6.518.518 0 0 0 .139.025z" fill="#21111d"/><path data-name="Path 11258" d="M500.883 3083.29a.481.481 0 0 1-.4-.557c.256-1.611.463-3.244.613-4.856a.483.483 0 1 1 .962.089 76.19 76.19 0 0 1-.62 4.918.487.487 0 0 1-.477.409.372.372 0 0 1-.078-.003zm.966-9.8a.483.483 0 0 1-.472-.494 62.484 62.484 0 0 0-.076-4.891.484.484 0 0 1 .966-.054c.061 1.131.093 2.3.093 3.459 0 .494 0 1-.017 1.5a.483.483 0 0 1-.483.472zm-1.026-10.242a51.588 51.588 0 0 0-.929-4.784.483.483 0 1 1 .938-.232 49.336 49.336 0 0 1 .949 4.879.483.483 0 0 1-.409.548h-.071a.483.483 0 0 1-.478-.409zm-43.532-4.793a8.983 8.983 0 0 1-4.572-2.313.484.484 0 0 1 .665-.7 8.026 8.026 0 0 0 4.087 2.068.483.483 0 0 1-.091.957.4.4 0 0 1-.089-.01zm4.511-.5a.483.483 0 0 1 .293-.619 5.982 5.982 0 0 0 3.2-3.088.484.484 0 1 1 .86.442 6.951 6.951 0 0 1-3.74 3.556.5.5 0 0 1-.163.028.485.485 0 0 1-.45-.313zm36.649-4.141a37.222 37.222 0 0 0-2-4.431.483.483 0 0 1 .853-.455 38.243 38.243 0 0 1 2.044 4.544.483.483 0 0 1-.282.624.492.492 0 0 1-.169.03.485.485 0 0 1-.446-.306zm-48.411-2.029a15.276 15.276 0 0 1-.743-4.871v-.134a.481.481 0 0 1 .483-.481.483.483 0 0 1 .481.485v.13a14.331 14.331 0 0 0 .7 4.565.483.483 0 0 1-.3.611.507.507 0 0 1-.154.026.481.481 0 0 1-.466-.325zm16.964-1.543a.483.483 0 0 1-.426-.535 20.211 20.211 0 0 0 .121-2.229 24.031 24.031 0 0 0-.143-2.573.483.483 0 1 1 .96-.106 24.462 24.462 0 0 1 .151 2.679 20.78 20.78 0 0 1-.13 2.345.483.483 0 0 1-.479.429zm26.871-4.962a32.949 32.949 0 0 0-3.142-3.693.484.484 0 0 1 .688-.68 34.126 34.126 0 0 1 3.234 3.8.483.483 0 0 1-.78.57zm-43.538-2.885a.487.487 0 0 1-.336-.6 19.392 19.392 0 0 1 1.965-4.645.483.483 0 0 1 .833.49 18.328 18.328 0 0 0-1.858 4.409.483.483 0 0 1-.466.353.532.532 0 0 1-.138-.009zm15.273-2.242a33.046 33.046 0 0 0-1.683-4.55.483.483 0 1 1 .88-.4 34.129 34.129 0 0 1 1.731 4.682.483.483 0 0 1-.331.6.475.475 0 0 1-.134.019.483.483 0 0 1-.465-.347zm21.487-1.793a40.27 40.27 0 0 0-4-2.763.484.484 0 0 1 .5-.829 40.984 40.984 0 0 1 4.1 2.829.483.483 0 0 1 .082.678.477.477 0 0 1-.371.186.485.485 0 0 1-.307-.1zm-31.917-4.383a.483.483 0 0 1 .065-.68 15.187 15.187 0 0 1 4.4-2.51.483.483 0 0 1 .336.9 14.285 14.285 0 0 0-4.119 2.35.477.477 0 0 1-.307.11.485.485 0 0 1-.373-.173zm23.594-.628a35.212 35.212 0 0 0-4.565-1.655.483.483 0 0 1 .266-.929 35.8 35.8 0 0 1 4.691 1.7.483.483 0 0 1-.2.929.492.492 0 0 1-.19-.045zm-17.161-2.021a38.871 38.871 0 0 0-2.846-3.942.483.483 0 1 1 .743-.613 39.621 39.621 0 0 1 2.917 4.041.483.483 0 1 1-.818.515zm7.849-.585a23.9 23.9 0 0 0-4.819-.08.478.478 0 0 1-.524-.437.483.483 0 0 1 .438-.526 24.871 24.871 0 0 1 5.016.082.483.483 0 0 1-.054.962zm-14.006-6.909a31.606 31.606 0 0 0-3.79-3.012.484.484 0 0 1 .542-.8 32.88 32.88 0 0 1 3.916 3.1.484.484 0 1 1-.658.71zm-7.988-5.466a44.628 44.628 0 0 0-4.474-1.936.484.484 0 1 1 .336-.907 45.307 45.307 0 0 1 4.57 1.979.483.483 0 0 1-.217.916.471.471 0 0 1-.215-.05zm-9.125-3.417a61.918 61.918 0 0 0-4.769-1.081.485.485 0 1 1 .186-.951c1.659.31 3.288.68 4.842 1.1a.483.483 0 0 1-.125.951.5.5 0 0 1-.134-.015zm-9.609-1.811a77.885 77.885 0 0 0-4.882-.411.484.484 0 0 1 .05-.966c1.657.087 3.32.227 4.944.416a.483.483 0 0 1-.056.962z" fill="#21111d"/><path data-name="Path 11259" d="M416.507 3012.717h.037s.89-.067 2.384-.087a.483.483 0 0 0 0-.966c-1.527.02-2.415.087-2.443.089a.483.483 0 1 0 .036.966z" fill="#21111d"/><path data-name="Path 11260" d="M409.849 3017.15l-2.729-3.127s-13.54-1.47-13.729-1.564l-7.149-3.584 8.746-.507 14.305 2.058z" fill="#ea2d3f"/><path data-name="Path 11261" d="M412.526 3003.423l-26.284 5.45 23.044 1.551z" fill="#ff424d"/><path data-name="Path 11262" d="M407.12 3014.024l-3.4 7.452-17.48-12.605z" fill="#ff424d"/><path data-name="Path 11263" d="M517.457 3308.988c1.826-1.8 16.072-27.022 25.935-14.051 0 0 16.118-36.569 36.528-29.409 0 0 13 7.431 3.561 25.94 0 0 31.507-1.98 31.1 17.519z" fill="#258d8c"/><path data-name="Path 11264" d="M566.208 3269.785a.158.158 0 0 1-.1-.282c.16-.124 3.937-3.028 7.388-3.437a.158.158 0 0 1 .037.314c-3.361.4-7.19 3.344-7.227 3.372a.166.166 0 0 1-.1.033z"/><path data-name="Path 11265" d="M566.207 3271.618a.157.157 0 0 1-.124-.059.154.154 0 0 1 .022-.221 19.2 19.2 0 0 1 5.917-3.021.158.158 0 1 1 .089.3 18.475 18.475 0 0 0-5.8 2.973.169.169 0 0 1-.104.028z"/><ellipse data-name="Ellipse 116" cx="10.24" cy="5.499" rx="10.24" ry="5.499" transform="rotate(-49.62 3825.224 996.049)" fill="#258d8c"/><path data-name="Path 11266" d="M600.644 3275.006c-2.153 2.564-2.772 5.573-1.378 6.7s4.273-.018 6.42-2.58 2.772-5.573 1.381-6.7-4.264.018-6.423 2.58z" fill="#258d8c"/><path data-name="Rectangle 876" fill="#4cb7d8" d="M247.355 3216.199h27.681v57.995h-27.681z"/><path data-name="Path 11267" d="M177.828 3237.278v-79.445a6.835 6.835 0 0 1 6.837-6.835h154.036a6.835 6.835 0 0 1 6.835 6.835v79.445z" fill="#4cb7d8"/><path data-name="Path 11268" d="M345.536 3237.277v12.741c0 2.647-1.75 4.793-3.9 4.793h-159.9c-2.159 0-3.9-2.146-3.9-4.793v-12.732z" fill="#3aa1c9"/><path data-name="Path 11269" d="M181.756 3233.827v-75.783a3.666 3.666 0 0 1 3.727-3.6h152.4a3.664 3.664 0 0 1 3.727 3.6v75.784z" fill="#dcf4ff"/><path data-name="Path 11270" d="M223.751 3275.842a4.071 4.071 0 0 1 4.113-4.962h66.618a6.147 6.147 0 0 1 5.815 4.962h-76.544z" fill="#3aa1c9"/><path data-name="Path 11271" d="M181.739 3255.003h159.888c2.267 0 4.109-2.24 4.109-4.994v-92.177a7.043 7.043 0 0 0-7.036-7.036v.4a6.642 6.642 0 0 1 6.636 6.634v92.186c0 2.532-1.672 4.594-3.716 4.594H181.739z" fill="#21111d"/><path data-name="Rectangle 879" fill="#21111d" d="M266.322 3256.127l.348-.199 1.898 3.322-.348.199z"/><path data-name="Rectangle 880" fill="#21111d" d="M266.993 3257.211l.345-.205 1.731 2.92-.345.204z"/><path data-name="Path 11272" d="M181.555 3234.029H341.61v-.4H181.956v-75.584a3.467 3.467 0 0 1 3.53-3.4v-.4a3.868 3.868 0 0 0-3.927 3.8z" fill="#21111d"/><path data-name="Path 11311" d="M319.047 3087.729a1.9 1.9 0 1 0 1.9 1.9 1.9 1.9 0 0 0-1.9-1.9z" fill="#f75553"/><path data-name="Path 11312" d="M322.855 3099.596a1.9 1.9 0 1 0 1.9 1.9 1.9 1.9 0 0 0-1.9-1.9z" fill="#f75553"/><path data-name="Path 11316" d="M298.422 3083.42l-24.077 16.528-.983 9.831-4.954-6.971-6.075 4.359a1.134 1.134 0 0 0 1.323 1.841l4.224-3.033 7.15 10.043 1.49-14.8 23.21-15.932a1.133 1.133 0 1 0-1.284-1.868z" fill="#61a3c5"/><path data-name="Path 11317" d="M332.09 3090.66a1.132 1.132 0 0 0-1.49-.623l-20.931 8.505a1.135 1.135 0 0 0 .855 2.1l20.952-8.505a1.135 1.135 0 0 0 .614-1.477z" fill="#f75553"/><path data-name="Path 11318" d="M312.905 3034.772a1.129 1.129 0 0 0 1.6-.03l5.732-5.958 5.734 5.955a1.134 1.134 0 0 0 1.633-1.573l-5.788-6.012 5.792-6.024a1.134 1.134 0 0 0-1.633-1.573l-5.729 5.958-5.732-5.958a1.133 1.133 0 1 0-1.632 1.573l5.788 6.015-5.788 6.012a1.132 1.132 0 0 0 .027 1.612z" fill="#fe9f73"/><path data-name="Path 11325" d="M326.541 3278.513s-6.149 15.474-.992 27.176l-118.227.994-10.916-.994-9.616-5.958v-9.116l2.673-7.539 8.732-4.563z" fill="#fff"/><path data-name="Path 11326" d="M201.794 3308.188h127.724a1.507 1.507 0 0 0 0-3.011H201.794c-7.712 0-13.984-5.821-13.984-12.975s6.277-12.979 13.984-12.979h127.724a1.507 1.507 0 1 0 0-3.013H201.794c-9.373 0-17 7.173-17 15.988s7.618 15.99 17 15.99z" fill="#49263e"/><path data-name="Path 11327" d="M262.12 3292.536h62.686a.335.335 0 0 0 0-.669H262.12a.335.335 0 0 0 0 .669z" fill="#aac9f8"/><path data-name="Path 11328" d="M192.395 3292.536h60.9a.335.335 0 0 0 0-.669h-60.9a.335.335 0 0 0 0 .669z" fill="#aac9f8"/><path data-name="Path 11329" d="M194.032 3298.532h31.246a.335.335 0 0 0 0-.669h-31.246a.335.335 0 0 0 0 .669z" fill="#aac9f8"/><path data-name="Path 11330" d="M229.862 3298.532h94.945a.335.335 0 0 0 0-.669h-94.945a.335.335 0 0 0 0 .669z" fill="#aac9f8"/><path data-name="Path 11331" d="M201.794 3308.521h127.732a1.841 1.841 0 0 0 0-3.682.336.336 0 0 0 0 .671 1.172 1.172 0 1 1 0 2.343H201.794c-9.187 0-16.661-7.022-16.661-15.652s7.474-15.654 16.661-15.654h127.732a1.172 1.172 0 0 1 0 2.344.335.335 0 0 0 0 .669 1.841 1.841 0 1 0 0-3.682H201.794c-9.556 0-17.331 7.322-17.331 16.323s7.766 16.32 17.331 16.32z" fill="#21111d"/><path data-name="Path 11332" d="M291.039 3286.199s4.024 10.021 1.7 17.4l-3.26-5.05a43.838 43.838 0 0 0-3.6 5.05s-2.5-16.477-7.335-17.4z" fill="#4cb7d8"/><path data-name="Path 11333" d="M194.032 3286.535h130.775a.335.335 0 1 0 0-.669H194.032a.335.335 0 1 0 0 .669z" fill="#aac9f8"/><path data-name="Path 11334" d="M335.146 3162.364v50.283h-37.448v-42.009l8.063-8.275z" fill="#fff"/><path data-name="Path 11335" d="M297.698 3170.653l8.015-8.29v8.29z" fill="#3aa1c9"/><path data-name="Path 11336" d="M309.36 3168.624h16.349a.426.426 0 0 0 .424-.426.424.424 0 0 0-.424-.423H309.36a.423.423 0 0 0-.423.423.426.426 0 0 0 .423.426z" fill="#3aa1c9"/><path data-name="Path 11337" d="M307.132 3171.912h20.807a.424.424 0 0 0 .424-.426.424.424 0 0 0-.424-.424h-20.807a.425.425 0 0 0-.425.423.425.425 0 0 0 .425.427z" fill="#3aa1c9"/><path data-name="Path 11338" d="M301.623 3179.759h30.126a.424.424 0 0 0 .425-.424.424.424 0 0 0-.425-.423h-30.126a.424.424 0 0 0-.425.423.424.424 0 0 0 .425.424z" fill="#3aa1c9"/><path data-name="Path 11339" d="M301.623 3183.474h30.126a.423.423 0 0 0 .425-.423.424.424 0 0 0-.425-.426h-30.126a.424.424 0 0 0-.425.426.423.423 0 0 0 .425.423z" fill="#3aa1c9"/><path data-name="Path 11340" d="M301.623 3187.188h30.126a.425.425 0 0 0 .425-.425.424.424 0 0 0-.425-.424h-30.126a.424.424 0 0 0-.425.424.425.425 0 0 0 .425.425z" fill="#3aa1c9"/><path data-name="Path 11341" d="M301.623 3194.613h30.126a.425.425 0 0 0 .425-.426.424.424 0 0 0-.425-.424h-30.126a.424.424 0 0 0-.425.424.426.426 0 0 0 .425.426z" fill="#3aa1c9"/><path data-name="Path 11342" d="M301.623 3198.326h30.126a.423.423 0 0 0 .425-.423.425.425 0 0 0-.425-.426h-30.126a.425.425 0 0 0-.425.426.424.424 0 0 0 .425.423z" fill="#3aa1c9"/><path data-name="Path 11343" d="M301.623 3207.872h30.126a.424.424 0 0 0 .425-.424.423.423 0 0 0-.425-.423h-30.126a.423.423 0 0 0-.425.423.424.424 0 0 0 .425.424z" fill="#3aa1c9"/><path data-name="Path 11348" d="M394.84 3278.513s6.149 15.474.99 27.176l118.229.992 10.911-.992 9.616-5.958v-9.118l-2.673-7.537-8.732-4.563z" fill="#fff"/><path data-name="Path 11349" d="M519.597 3308.188H391.864a1.507 1.507 0 0 1 0-3.013h127.733c7.71 0 13.982-5.821 13.982-12.973s-6.272-12.979-13.982-12.979H391.864a1.507 1.507 0 1 1 0-3.013h127.733c9.371 0 17 7.173 17 15.988s-7.629 15.99-17 15.99z" fill="#f75553"/><path data-name="Path 11350" d="M396.575 3292.536h62.684a.336.336 0 0 0 0-.671h-62.684a.336.336 0 0 0 0 .671z" fill="#aac9f8"/><path data-name="Path 11351" d="M468.092 3292.536h60.9a.336.336 0 0 0 0-.671h-60.9a.336.336 0 1 0 0 .671z" fill="#aac9f8"/><path data-name="Path 11352" d="M496.103 3298.532h31.247a.335.335 0 0 0 0-.669h-31.247a.335.335 0 0 0 0 .669z" fill="#aac9f8"/><path data-name="Path 11353" d="M396.575 3298.532h94.943a.335.335 0 0 0 0-.669h-94.934a.335.335 0 0 0 0 .669z" fill="#aac9f8"/><path data-name="Path 11354" d="M391.864 3308.521h127.733c9.555 0 17.33-7.322 17.33-16.321s-7.775-16.323-17.33-16.323H391.864a1.843 1.843 0 0 0-1.841 1.841c0 1.014.873 1.035 1.889 1.035a.335.335 0 1 0 0-.669c-.646 0-1.221.28-1.221-.372a1.174 1.174 0 0 1 1.172-1.172h127.733c9.187 0 16.661 7.022 16.661 15.654s-7.474 15.652-16.661 15.652H391.864a1.172 1.172 0 1 1 0-2.343.336.336 0 0 0 0-.671 1.841 1.841 0 0 0 0 3.682z" fill="#21111d"/><path data-name="Path 11355" d="M412.108 3286.199s-4.022 10.021-1.7 17.4l3.262-5.05a43.95 43.95 0 0 1 3.6 5.051s2.5-16.477 7.335-17.4z" fill="#7fc6a6"/><path data-name="Path 11356" d="M396.575 3286.535h130.774a.335.335 0 1 0 0-.669H396.575a.335.335 0 1 0 0 .669z" fill="#aac9f8"/><path data-name="Path 11357" d="M543.444 3246.488s-6.149 15.472-.992 27.176l-118.227.992-10.911-.992-9.616-5.958v-9.118l2.673-7.537 8.732-4.563z" fill="#fff"/><path data-name="Path 11358" d="M418.689 3276.157h127.728a1.507 1.507 0 0 0 0-3.014H418.689c-7.71 0-13.984-5.82-13.984-12.975s6.274-12.973 13.984-12.973h127.728a1.507 1.507 0 0 0 0-3.013H418.689c-9.371 0-16.995 7.171-16.995 15.986s7.617 15.989 16.995 15.989z" fill="#3f9896"/><path data-name="Path 11359" d="M541.711 3260.504h-62.68a.336.336 0 0 1 0-.671h62.684a.336.336 0 0 1 0 .671z" fill="#aac9f8"/><path data-name="Path 11360" d="M470.198 3260.504h-60.9a.336.336 0 0 1 0-.671h60.9a.336.336 0 0 1 0 .671z" fill="#aac9f8"/><path data-name="Path 11361" d="M442.183 3266.502h-31.246a.335.335 0 0 1 0-.669h31.246a.335.335 0 0 1 0 .669z" fill="#aac9f8"/><path data-name="Path 11362" d="M541.711 3266.502h-94.945a.335.335 0 0 1 0-.669h94.945a.335.335 0 0 1 0 .669z" fill="#aac9f8"/><path data-name="Path 11363" d="M546.416 3276.49H418.688c-9.557 0-17.33-7.322-17.33-16.321s7.773-16.323 17.33-16.323h127.728a1.841 1.841 0 1 1 0 3.682.335.335 0 0 1 0-.669 1.172 1.172 0 1 0 0-2.344H418.688c-9.187 0-16.661 7.023-16.661 15.654s7.474 15.652 16.661 15.652h127.728a1.172 1.172 0 1 0 0-2.343.336.336 0 0 1 0-.671 1.841 1.841 0 0 1 0 3.682z" fill="#21111d"/><path data-name="Path 11364" d="M526.177 3254.17s4.022 10.021 1.7 17.4l-3.268-5.052a43.957 43.957 0 0 0-3.6 5.052s-2.5-16.477-7.335-17.4z" fill="#ff424d"/><path data-name="Path 11365" d="M541.711 3254.503H410.937a.336.336 0 0 1 0-.671h130.774a.336.336 0 0 1 0 .67z" fill="#aac9f8"/><path data-name="Path 11366" d="M418.273 3309.386h.888l-1.949-31.884h-2.194z" fill="#4c222e"/><path data-name="Path 11367" d="M387.268 3309.386h-.886l1.947-31.884h2.2z" fill="#4c222e"/><path data-name="Path 11368" d="M425.396 3232.919h-19.119l-10.112 45.02 21.907-2.335z" fill="#fec786"/><path data-name="Path 11477" d="M475.898 3104.676a12.71 12.71 0 0 0-3.271-2.521l.279-3.374-2.229-.606-2.229-.6-1.46 3.054a12.66 12.66 0 0 0-4.1.529l-2.19-2.582-2.006 1.152-2.008 1.154 1.115 3.192a12.712 12.712 0 0 0-2.521 3.27l-3.374-.279-.606 2.229-.6 2.229 3.054 1.46a12.648 12.648 0 0 0 .53 4.1l-2.583 2.19 1.152 2.006 1.154 2.008 3.192-1.126a12.758 12.758 0 0 0 3.272 2.521l-.279 3.374 2.229.606 2.229.6 1.46-3.054a12.661 12.661 0 0 0 4.087-.53l2.19 2.582 2.006-1.152 2.008-1.154-1.126-3.192a12.753 12.753 0 0 0 2.521-3.272l3.374.279.606-2.229.6-2.229-3.026-1.458a12.662 12.662 0 0 0-.53-4.087l2.582-2.19-1.152-2.007-1.154-2.008zm-5.029 16.278a8.685 8.685 0 1 1 3.208-11.857 8.685 8.685 0 0 1-3.208 11.857z" fill="#fd7583"/><rect data-name="Rectangle 888" width="41.999" height="25.898" rx="8.17" transform="translate(357.727 3180.742)" fill="#fff"/><path data-name="Path 11478" d="M395.782 3185.459h-35.02a.44.44 0 1 1 0-.879h35.02a.44.44 0 0 1 0 .879z" fill="#61a3c5"/><path data-name="Path 11479" d="M395.782 3190.442h-35.02a.439.439 0 0 1 0-.877h35.02a.439.439 0 1 1 0 .877z" fill="#61a3c5"/><path data-name="Path 11480" d="M383.517 3195.429h-22.754a.439.439 0 1 1 0-.877h22.754a.439.439 0 1 1 0 .877z" fill="#61a3c5"/><path data-name="Path 11481" d="M396.042 3195.429h-9.081a.439.439 0 1 1 0-.877h9.081a.439.439 0 1 1 0 .877z" fill="#61a3c5"/><path data-name="Path 11482" d="M375.065 3200.415H360.76a.439.439 0 0 1 0-.877h14.305a.439.439 0 0 1 0 .877z" fill="#61a3c5"/><path data-name="Path 11483" d="M396.042 3200.415h-17.77a.439.439 0 1 1 0-.877h17.77a.439.439 0 0 1 0 .877z" fill="#61a3c5"/><path data-name="Path 11484" d="M386.884 3205.494c.043.173 6.805 8.972 6.848 8.711s-.78-9.449-.78-9.449z" fill="#fff"/><rect data-name="Rectangle 889" width="41.999" height="19.581" rx="8.17" transform="translate(472.755 3155.512)" fill="#fff"/><path data-name="Path 11485" d="M510.805 3160.227h-35.02a.44.44 0 1 1 0-.879h35.02a.44.44 0 0 1 0 .879z" fill="#61a3c5"/><path data-name="Path 11486" d="M510.805 3165.214h-35.02a.44.44 0 1 1 0-.879h35.02a.44.44 0 0 1 0 .879z" fill="#61a3c5"/><path data-name="Path 11487" d="M511.07 3170.196h-9.081a.44.44 0 0 1 0-.879h9.081a.44.44 0 0 1 0 .879z" fill="#61a3c5"/><path data-name="Path 11488" d="M501.911 3174.527c.043.173 6.805 8.971 6.848 8.711s-.781-9.449-.781-9.449z" fill="#fff"/><path data-name="Path 11489" d="M498.378 3170.196h-21.31c-.568 0-1.029-.2-1.029-.438s.461-.44 1.029-.44h21.311c.568 0 1.029.2 1.029.44s-.462.438-1.03.438z" fill="#61a3c5"/><path data-name="Path 11506" d="M501.859 3266.793a12.8 12.8 0 0 0 4.539-.522l.073-.033.868-22.212-1.366.645.11.23.985-.464-.844 21.627c-.358.124-2.071.619-6.119.431l-.013.256a44.58 44.58 0 0 0 1.767.042z" fill="#21111d"/><path data-name="Path 11507" d="M504.958 3261.998c.353-1.36.453-14.628.457-15.193h-.254c0 .139-.1 13.8-.45 15.132z" fill="#21111d"/><path data-name="Path 11508" d="M488.048 3266.87a23.421 23.421 0 0 0 4.888-.489l.819-22.225-1.046.724.16.2.611-.491-.793 21.588a23.276 23.276 0 0 1-4.886.438v.254z" fill="#21111d"/><path data-name="Path 11509" d="M491.611 3262.493c.351-2.055.017-15.964 0-16.555h-.255c0 .145.349 14.476 0 16.507z" fill="#21111d"/><path data-name="Path 11516" d="M515.948 3244.416a102.914 102.914 0 0 1-10.432-.442l.03-.253a129.639 129.639 0 0 0 21.922 0l.019.255c-4.375.328-8.28.44-11.539.44z" fill="#21111d"/><path data-name="Path 11523" d="M351.698 3045.906c6.688-.078 22.348-.015 35.846 1.871 5.584.778 10.734-3.744 10.985-9.729a15.886 15.886 0 0 0-2.482-8.669c-7.459-12.828-22.535-1.672-22.8 4.645 0 0-2.3-9.638-11.2-8.41s-6.664 15.191-6.664 15.191a6.729 6.729 0 0 0-4.856.557c-2.013 1.296-1.173 4.57 1.171 4.544z" fill="#fff"/><path data-name="Path 11524" d="M181.042 3081.516c10.8-.856 37.156-2.566 53.066-.372a2.525 2.525 0 0 0 2.272-4.139c-1.1-1.263-3.041-2.315-6.439-2.432 0 0 3-14.775-11.279-16.024-14.677-1.282-14.717 14.227-14.717 14.227s-8.654-8.042-12.7 2.064c0 0-9.09-3.87-13.146 1.087a3.438 3.438 0 0 0 2.943 5.589z" fill="#fff"/><path data-name="Path 11525" d="M614.321 3130.747a40.3 40.3 0 1 0-68.965 28.319s12.2 13.044 16.316 27.258c0 0 7.039 2.391 12.354 2.525 5.313-.134 12.354-2.525 12.354-2.525 4.119-14.214 16.313-27.258 16.313-27.258a40.156 40.156 0 0 0 11.628-28.319z" fill="#fecc86"/><path data-name="Path 11526" d="M574.014 3210.009a6.264 6.264 0 0 1-6.265-6.264h12.527a6.264 6.264 0 0 1-6.262 6.264z" fill="#4cb7d8"/><path data-name="Path 11527" d="M560.581 3183.117h26.868v11.058a11.286 11.286 0 0 1-11.286 11.286h-4.293a11.286 11.286 0 0 1-11.286-11.286v-11.058z" fill="#4cb7d8"/><path data-name="Path 11528" d="M614.32 3130.747a40.089 40.089 0 0 0-6.725-22.294c-11.786 29.039-30.583 48.572-57.659 56.148a76 76 0 0 1 10.659 18.512h26.849c4.83-12.908 15.234-24.046 15.234-24.046a40.156 40.156 0 0 0 11.639-28.32z" fill="#fecc86" opacity=".3"/><path data-name="Path 11529" d="M580.6 3183.273l-1.153-.314c.037-.137 3.8-13.956 6.4-28.109 4.524-24.558 1.923-29.766-.03-30.685-2-.94-3.567-.771-4.667.5a3.081 3.081 0 0 0-.23.294 7.454 7.454 0 0 1 3.66 5.245c.448 2.852-.828 5.7-2.842 6.346a1.869 1.869 0 0 1-2.229-.992c-1.289-1.949-1.692-6.82-.249-10.069a13.263 13.263 0 0 0-5-.868h-1.163a13.265 13.265 0 0 0-5 .868c1.442 3.249 1.041 8.12-.249 10.069a1.87 1.87 0 0 1-2.229.99c-2.014-.647-3.29-3.493-2.843-6.344a7.453 7.453 0 0 1 3.66-5.245c-.074-.1-.151-.2-.23-.292-1.1-1.273-2.671-1.442-4.667-.5-1.953.92-4.553 6.131-.031 30.685 2.6 14.153 6.365 27.971 6.4 28.109l-1.154.314c-.039-.138-3.809-14-6.424-28.2-3.612-19.607-3.383-30.07.7-31.99 3.158-1.486 5.053-.386 6.08.8a6.06 6.06 0 0 1 .4.531 14.226 14.226 0 0 1 5.592-.988h1.163a14.225 14.225 0 0 1 5.594.988 5.745 5.745 0 0 1 .405-.531c1.027-1.187 2.915-2.289 6.08-.8 4.087 1.919 4.307 12.382.7 31.99-2.628 14.2-6.399 28.063-6.444 28.198zm-13.591-57.258a6.005 6.005 0 0 0-3.073 4.373c-.39 2.488.732 4.606 2.027 5.016.121.039.44.143.873-.513 1.111-1.663 1.4-6.069.18-8.877zm13.318 0c-1.222 2.807-.929 7.214.171 8.882.435.656.754.557.875.513 1.3-.416 2.415-2.534 2.027-5.016a6 6 0 0 0-3.066-4.379z" fill="#f99247"/><path data-name="Path 11530" d="M560.385 3183.399a24.485 24.485 0 0 0-.784-1.992l-.173-.4c-5.031-11.749-14.2-21.629-14.292-21.736l-.03-.03a40.6 40.6 0 1 1 62.915-50.692l-.5.327a40 40 0 1 0-61.941 49.99l.388.4h-.028c1.756 1.96 9.545 10.989 14.049 21.5l.172.4c.322.743.47 1.092.8 2.031z" fill="#21111d"/><path data-name="Path 11531" d="M545.879 3112.149l-.578-.165c.03-.1 3.01-10.019 13.034-13.748l.208.557c-9.732 3.625-12.634 13.26-12.664 13.356z" fill="#21111d"/><path data-name="Path 11532" d="M547.729 3115.736l-.574-.167c.03-.1 3.008-10.019 13.032-13.748l.208.557c-9.735 3.625-12.638 13.261-12.666 13.358z" fill="#21111d"/><path data-name="Path 11533" d="M575.478 3205.759h-2.928a12.281 12.281 0 0 1-12.261-12.262v-10.673h27.167v.6h-26.567v10.077a11.683 11.683 0 0 0 11.671 11.669h2.928a11.6 11.6 0 0 0 8.183-3.344l.42.425a12.194 12.194 0 0 1-8.613 3.508z" fill="#21111d"/><path data-name="Path 11534" d="M574.187 3210.314c-5.823 0-6.662-5.648-6.671-5.705l.592-.082a6.021 6.021 0 0 0 6.274 5.187l.013.6z" fill="#21111d"/><path data-name="Path 11535" d="M601.657 3153.312l-.357-.479c5.319-3.946 6.157-10.534 6.164-10.6l.594.071c-.009.067-.871 6.908-6.401 11.008z" fill="#21111d"/><path data-name="Path 11536" d="M600.478 3150.442l-.355-.481a12.438 12.438 0 0 0 4.494-7.728l.592.071a12.813 12.813 0 0 1-4.731 8.138z" fill="#21111d"/><path data-name="Path 11537" d="M559.347 3188.489v-.6c.229 0 22.883-.3 30.056-2.973l.21.557c-7.28 2.719-29.331 3.005-30.266 3.016z" fill="#21111d"/><path data-name="Path 11538" d="M559.349 3193.542l-.011-.6c.247 0 24.832-.493 29.428-2.954l.282.526c-4.723 2.528-28.681 3.004-29.699 3.028z" fill="#21111d"/><path data-name="Path 11539" d="M560.582 3198.717v-.6c.223 0 22.282-.236 28.192-3.288l.275.531c-6.034 3.123-27.553 3.35-28.467 3.357z" fill="#21111d"/><path data-name="Path 11540" d="M523.452 3124.412a.512.512 0 0 1-.076 0l-14.26-1.213a.9.9 0 1 1 .15-1.787l14.26 1.213a.9.9 0 0 1-.074 1.791z" fill="#f99247"/><path data-name="Path 11541" d="M530.828 3101.691a.89.89 0 0 1-.505-.156l-11.812-8.083a.9.9 0 0 1 1.012-1.486l11.812 8.082a.9.9 0 0 1-.507 1.637z" fill="#f99247"/><path data-name="Path 11542" d="M552.176 3085.394a.9.9 0 0 1-.831-.557l-5.387-13.259a.9.9 0 1 1 1.662-.676l5.387 13.261a.894.894 0 0 1-.492 1.167.868.868 0 0 1-.339.064z" fill="#f99247"/><path data-name="Path 11543" d="M623.886 3126.994a.9.9 0 0 1-.058-1.793l14.281-.942a.9.9 0 1 1 .117 1.789l-14.281.944z" fill="#f99247"/><path data-name="Path 11544" d="M616.933 3104.139a.9.9 0 0 1-.494-1.646l11.964-7.857a.9.9 0 1 1 .983 1.5l-11.962 7.858a.9.9 0 0 1-.491.145z" fill="#f99247"/><path data-name="Path 11545" d="M598.66 3085.343a.915.915 0 0 1-.353-.073.9.9 0 0 1-.47-1.178l5.637-13.155a.9.9 0 0 1 1.648.706l-5.637 13.155a.9.9 0 0 1-.825.545z" fill="#f99247"/><path data-name="Path 11546" d="M575.672 3078.378h-.013a.9.9 0 0 1-.885-.91l.221-14.305a.9.9 0 0 1 .9-.882h.015a.9.9 0 0 1 .882.91l-.219 14.305a.9.9 0 0 1-.901.882z" fill="#f99247"/><g data-name="Group 1592"><ellipse data-name="Ellipse 124" cx="4.715" cy="9.874" rx="4.715" ry="9.874" transform="rotate(-57.2 3136.477 1018.095)" fill="#f3fffe" opacity=".5"/></g><g data-name="Group 1593"><g data-name="Group 1593" fill="#005180"><path d="M359.988 3087.707a24.078 24.078 0 0 0-.553 2.487 19.45 19.45 0 0 0-.184 2.395v.092a16.218 16.218 0 0 0 4.79 11.514 15.445 15.445 0 0 0 4.974 3.408 2.069 2.069 0 0 1 1.29-.553h2.3a15.082 15.082 0 0 1-7.461-3.961 14.072 14.072 0 0 1-3.593-6.078l-.553-2.211a26.577 26.577 0 0 1 0-4.421c.184-.737.368-1.474.553-2.119zm22.2 19.9a15.445 15.445 0 0 0 4.974-3.408 16.218 16.218 0 0 0 4.789-11.518v-.092a22.647 22.647 0 0 0-.184-2.579 21.1 21.1 0 0 0-.645-2.579l-1.566.461a11.25 11.25 0 0 1 .553 2.395 17.514 17.514 0 0 1 .276 2.3 18.987 18.987 0 0 1-.276 2.395 10.467 10.467 0 0 1-.553 2.3 15.568 15.568 0 0 1-3.5 5.8 15.082 15.082 0 0 1-7.461 3.961h2.3a1.866 1.866 0 0 1 1.292.561z"/><path d="M388.083 3090.471a11.288 11.288 0 0 0 3.777-3.132 10.434 10.434 0 0 0-1.013-13.541 11.826 11.826 0 0 0-2.396-1.842 7.338 7.338 0 0 1-1.2 1.2 7.666 7.666 0 0 1 2.395 1.75 8.468 8.468 0 0 1 2.579 6.264 9.35 9.35 0 0 1-1.658 5.25 9.158 9.158 0 0 1-4.514 3.132l-.736.274-1.382.368a9.886 9.886 0 0 1 .461 2.948 8.409 8.409 0 0 1-2.579 6.172 7.94 7.94 0 0 1-3.869 2.3v1.658a10.589 10.589 0 0 0 4.974-2.763v-.092a9.935 9.935 0 0 0 3.04-7.277 11.744 11.744 0 0 0-.092-1.842 13.253 13.253 0 0 0 2.213-.827zm-14.831 11.145a7.94 7.94 0 0 1-3.869-2.3 8.78 8.78 0 0 1-2.579-6.172 9.886 9.886 0 0 1 .461-2.948l-1.29-.368-.737-.276a9.011 9.011 0 0 1-4.606-3.132 9.35 9.35 0 0 1-1.658-5.25 8.468 8.468 0 0 1 2.579-6.264 7.666 7.666 0 0 1 2.396-1.75 7.338 7.338 0 0 1-1.2-1.2 11.826 11.826 0 0 0-2.392 1.842 10.434 10.434 0 0 0-1.014 13.541 11.288 11.288 0 0 0 3.774 3.132 13.253 13.253 0 0 0 2.211.829 11.744 11.744 0 0 0-.092 1.842 9.935 9.935 0 0 0 3.04 7.277v.092a11.053 11.053 0 0 0 4.974 2.763zm7.646 4.698h-10.593a2.673 2.673 0 1 0 0 5.342h10.593a2.8 2.8 0 0 0 1.934-.737 2.907 2.907 0 0 0 0-3.869 2.8 2.8 0 0 0-1.934-.736zm-10.593 1.566h10.593a1.046 1.046 0 0 1 .737 1.842 1.137 1.137 0 0 1-.737.368h-10.593a1.137 1.137 0 0 1-.737-.368 1.109 1.109 0 0 1 .737-1.842zm1.566 6.817a4.1 4.1 0 0 0 1.105 2.671 3.747 3.747 0 0 0 2.671 1.105 3.694 3.694 0 0 0 2.579-1.105 4.1 4.1 0 0 0 1.106-2.671h-1.661a1.945 1.945 0 0 1-.553 1.474 1.833 1.833 0 0 1-1.474.645 1.9 1.9 0 0 1-1.566-.645 1.945 1.945 0 0 1-.553-1.474z"/><path d="M380.898 3110.091h-10.593a2.53 2.53 0 0 0-2.671 2.671 2.8 2.8 0 0 0 .737 1.934 3.07 3.07 0 0 0 1.934.829h10.593a2.872 2.872 0 0 0 1.934-.829 2.8 2.8 0 0 0 .737-1.934 2.972 2.972 0 0 0-.737-1.934 2.8 2.8 0 0 0-1.934-.737zm-10.593 1.566h10.593a1.137 1.137 0 0 1 .737.368.838.838 0 0 1 .368.737 1.125 1.125 0 0 1-.368.829 1.046 1.046 0 0 1-.737.276h-10.593a1.046 1.046 0 0 1-.737-.276 1.125 1.125 0 0 1-.368-.829.838.838 0 0 1 .368-.737 1.138 1.138 0 0 1 .737-.368zm11.237-37.306a7 7 0 0 0-4.79 1.934 6.831 6.831 0 0 0-1.934 4.79 6.761 6.761 0 0 0 6.724 6.816 6.744 6.744 0 0 0 4.882-2.026 6.669 6.669 0 0 0 1.934-4.79 6.831 6.831 0 0 0-1.934-4.79 7.055 7.055 0 0 0-4.882-1.934zm-3.592 3.132a4.809 4.809 0 0 1 3.592-1.566 4.864 4.864 0 0 1 3.684 1.566 5.113 5.113 0 0 1-3.684 8.751 5.085 5.085 0 0 1-3.592-1.474 5.01 5.01 0 0 1 0-7.277z"/><path d="M369.66 3074.351a6.669 6.669 0 0 0-4.79 1.934 6.535 6.535 0 0 0-2.026 4.79 6.922 6.922 0 0 0 6.816 6.816 6.761 6.761 0 0 0 6.724-6.816 6.831 6.831 0 0 0-1.934-4.79 7 7 0 0 0-4.79-1.934zm-3.685 3.132a4.865 4.865 0 0 1 3.685-1.566 4.809 4.809 0 0 1 3.592 1.566 5.009 5.009 0 0 1 0 7.277 5.085 5.085 0 0 1-3.592 1.474 5.144 5.144 0 0 1-3.685-1.474 5.01 5.01 0 0 1 0-7.277z"/><path d="M377.213 3085.957a4.389 4.389 0 0 1-.553 1.658c-.368.553-.737 1.105-1.013 1.566-.368-.461-.737-1.013-1.105-1.566a4.389 4.389 0 0 1-.553-1.658l-1.658.092a9.286 9.286 0 0 0 .829 2.395 15.594 15.594 0 0 0 1.842 2.579l.645.737.553-.737a15.591 15.591 0 0 0 1.842-2.579 6.766 6.766 0 0 0 .829-2.395zm13.265-19.435l-14.834 5.25-16.3-5.711.368 1.382c.829 3.5 2.395 5.527 4.237 6.632a13.785 13.785 0 0 0 5.9 1.842 6.664 6.664 0 0 1 3.685 1.474 4.6 4.6 0 0 1 1.29 3.592h1.566a4.629 4.629 0 0 1 1.382-3.592 6.106 6.106 0 0 1 3.592-1.474 13.785 13.785 0 0 0 5.9-1.842c1.842-1.105 3.408-3.132 4.237-6.632l.359-1.382zm-14.646 6.908l13.633-4.882a8.166 8.166 0 0 1-3.04 4.237 12.891 12.891 0 0 1-5.25 1.566 8.4 8.4 0 0 0-4.514 1.842 4.48 4.48 0 0 0-1.013 1.29 4.848 4.848 0 0 0-1.105-1.29 8.4 8.4 0 0 0-4.514-1.842 12.891 12.891 0 0 1-5.25-1.566 8.166 8.166 0 0 1-3.04-4.237l13.633 4.882z"/><path d="M369.66 3078.404a2.4 2.4 0 0 0-1.382.368c.092 0 .092-.092.184-.092a1.106 1.106 0 0 1 1.013 1.105 1.022 1.022 0 0 1-1.013 1.013 1.045 1.045 0 0 1-1.105-1.013c0-.092.092-.184.092-.276a2.5 2.5 0 0 0-.553 1.566 2.718 2.718 0 1 0 5.435 0 2.673 2.673 0 0 0-2.671-2.671zm11.882 0a2.115 2.115 0 0 0-1.29.368c.092 0 .092-.092.184-.092a1.106 1.106 0 0 1 1.013 1.105 1.022 1.022 0 0 1-1.013 1.013 1.045 1.045 0 0 1-1.105-1.013.338.338 0 0 1 .092-.276 2.5 2.5 0 0 0-.553 1.566 2.718 2.718 0 1 0 5.435 0 2.694 2.694 0 0 0-2.763-2.671z" fill-rule="evenodd"/><path d="M379.516 3102.722v3.961h-1.566v-3.961zm-6.263 0v3.961h-1.566v-3.961z"/></g><g data-name="Group 1594"><g data-name="Group 436" fill-rule="evenodd"><path d="M422.962 3136.707v9.094h1.984c2.811 0 4.8-1.654 4.8-4.547s-1.984-4.547-4.8-4.547zm2.232-4.134a8.681 8.681 0 1 1 0 17.362h-4.377a2.047 2.047 0 0 1-2.067-2.067v-13.146a2.118 2.118 0 0 1 2.067-2.15zm20.752 6.118l3.555-5.209a2.1 2.1 0 0 1 3.886 1.158 1.9 1.9 0 0 1-.331 1.158v.083l-4.961 6.945v5.126a2.151 2.151 0 0 1-4.3 0v-5.126l-4.961-7.027a1.9 1.9 0 0 1-.331-1.158 2.1 2.1 0 0 1 3.886-1.158zm-36.874-6.2a2.189 2.189 0 0 1 2.15 2.15v8.516c0 4.217-3.307 7.027-7.358 7.027-4.134 0-7.358-2.811-7.358-7.027v-8.516a2.109 2.109 0 1 1 4.217 0v8.6a2.89 2.89 0 0 0 3.142 2.894 2.822 2.822 0 0 0 3.059-2.894v-8.6a2.189 2.189 0 0 1 2.148-2.151zm-23.645 4.216v11.244a2.047 2.047 0 0 1-2.067 2.067 2.118 2.118 0 0 1-2.15-2.067v-11.244h-3.224a2.067 2.067 0 0 1 0-4.134h10.748a2.047 2.047 0 0 1 2.067 2.067 2.1 2.1 0 0 1-2.067 2.067zm-18.768 7.937c0-1.488-9.177-.744-9.177-6.7 0-3.72 3.39-5.539 6.7-5.539a12.809 12.809 0 0 1 4.713.744 2.039 2.039 0 0 1 1.323 1.9 1.979 1.979 0 0 1-1.984 2.067 2.412 2.412 0 0 1-.744-.165 9.489 9.489 0 0 0-3.059-.5c-.827 0-2.728.165-2.728 1.323 0 2.15 9.177.579 9.177 7.027 0 3.638-3.472 5.374-6.7 5.374a14.146 14.146 0 0 1-5.539-1.157 2.168 2.168 0 0 1-1.323-1.9 2.047 2.047 0 0 1 2.067-2.067 2.934 2.934 0 0 1 .827.165 8.767 8.767 0 0 0 3.8.827c.994.006 2.647-.077 2.647-1.4z" fill="#00486e"/><path d="M483.646 3138.69l3.555-5.209a2.175 2.175 0 0 1 1.819-.992 2.135 2.135 0 0 1 2.149 2.15 1.974 1.974 0 0 1-.413 1.157v.083l-4.96 6.945v5.126a2.118 2.118 0 0 1-2.149 2.067 2.047 2.047 0 0 1-2.067-2.067v-5.126l-5.043-7.027a2.693 2.693 0 0 1-.331-1.157 2.1 2.1 0 0 1 3.886-1.158zm-19.264 7.028h5.953a2.118 2.118 0 0 1 2.067 2.15 2.047 2.047 0 0 1-2.067 2.067h-7.689a2.436 2.436 0 0 1-2.48-2.48v-12.815a2.118 2.118 0 0 1 2.067-2.15 2.189 2.189 0 0 1 2.15 2.15z" fill="#3b9ed4"/></g></g></g><g data-name="Group 1718"><path data-name="Path 20492" d="M522.158 3167.073a3.664 3.664 0 0 1 2.889 6.114 2.428 2.428 0 0 0-.625 1.584l-.048 2.009a1.063 1.063 0 0 1-1 1.041l-1.224.069a1.064 1.064 0 0 1-1.114-.916c-.275-2-.231-2.762-1.066-3.495a3.67 3.67 0 0 1 2.188-6.406z" fill="#bed1f9"/><path data-name="Path 20493" d="M523.52 3175.478a81.287 81.287 0 0 1-.3-4.09 4.891 4.891 0 0 1-1.79-.106c.208 1.34.366 2.706.5 4.038l-.173.017a75.332 75.332 0 0 0-.508-4.1 1.635 1.635 0 0 1-.958-.545.646.646 0 0 1-.073-.5c.119-.437.651-.441.916-.079a2.209 2.209 0 0 1 .271.987 4.753 4.753 0 0 0 1.813.117 1.6 1.6 0 0 1 .233-.933c.654-.951 1.753.783-.056 1.082.015.525.127 2.367.3 4.1zm.075-5.1a1.408 1.408 0 0 0-.208.808 1.024 1.024 0 0 0 .762-.416c.208-.333-.2-.9-.554-.383zm-3.068-.312a.4.4 0 0 0-.087.543 1.382 1.382 0 0 0 .781.448 1.994 1.994 0 0 0-.225-.833.7.7 0 0 0-.468-.158z" fill="#fff"/><path data-name="Path 20494" d="M524.428 3174.722v.05l-.048 2.009a1.064 1.064 0 0 1-1 1.041l-1.224.069a1.064 1.064 0 0 1-1.114-.916c-.121-.891-.181-1.536-.283-2.042z" fill="#00486e"/><path data-name="Path 20495" d="M524.151 3165.136l.554-1.911a.35.35 0 0 0-.67-.194l-.552 1.911a.348.348 0 1 0 .668.194z" fill="#dde8fe"/><path data-name="Path 20496" d="M527.109 3168.799l1.994-.624a.35.35 0 0 0-.208-.666l-1.994.625a.348.348 0 1 0 .208.664z" fill="#dde8fe"/><path data-name="Path 20497" d="M530.515 3174.584a.343.343 0 0 0-.11-.479 11.148 11.148 0 0 0-1.93-.968.348.348 0 1 0-.252.649 10.682 10.682 0 0 1 1.813.908.346.346 0 0 0 .479-.11z" fill="#dde8fe"/><path data-name="Path 20498" d="M519.107 3166.165a.348.348 0 0 0 .148-.47 13.172 13.172 0 0 1-1.007-2.548.35.35 0 0 0-.672.187 14.113 14.113 0 0 0 1.062 2.683.352.352 0 0 0 .47.148z" fill="#dde8fe"/><path data-name="Path 20499" d="M517.597 3169.246a.346.346 0 0 0-.321-.373l-2.256-.167a.351.351 0 0 0-.052.7l2.257.164a.346.346 0 0 0 .373-.321z" fill="#dde8fe"/><path data-name="Path 20500" d="M515.38 3175.644a.464.464 0 0 0 .09-.033 10.982 10.982 0 0 0 1.927-1.322.349.349 0 1 0-.454-.529 10.194 10.194 0 0 1-1.8 1.236.35.35 0 0 0 .241.647z" fill="#dde8fe"/><path data-name="Path 20501" d="M491.229 3240.7l3.272-.764a22.585 22.585 0 0 0 5.129-.335 8.039 8.039 0 0 1 .356 2.015c.019.235-.316 1.4-.549 1.436-.833.129-2.325-.017-4.954.044 0 0-4.14.489-6.355-.241s3.101-2.155 3.101-2.155z" fill="#00486e"/><path data-name="Path 20502" d="M527.376 3187.149c.181 1.9 1.776 2.569 3.262 3.77 1 .808.833 2.985.062 4.34-1.929 3.428-.285 3.851 1.272 6.367 3.747 6.066-7.868 7.4-9.249 7.856s-2.312 1-3.122.91c-2.458-.273-4.706-3.766-5.953-7s1.78-3.4 1.936-5.258-3.391-2.254-2.34-5.76c1.136-3.79 2.741-7.006 4.875-8.158 3.526-1.909 7.814.087 8.791 1.619a2.958 2.958 0 0 1 .466 1.314z" fill="#fa7167"/><path data-name="Path 20503" d="M527.648 3228.66c.306.76 1.986 3.451 1.986 3.451l-23.591.233-.369-4.829c6.478-.052 12.879-2.914 18.847-4.964.153.35 2.979 5.741 3.127 6.109z" fill="#fae0b2"/><path data-name="Path 20504" d="M510.921 3210.098s1.266-8.951 3.3-9.871 13.072.358 14.723 1.368-1.1 11.511-1.52 14.448l-.081.527a24.6 24.6 0 0 0 1.2 12.593c-6.036 1.832-7.6 2.841-14.08 2.66l-2.417-14.154s-1.913-6.837-1.125-7.571z" fill="#3b90bc"/><path data-name="Path 20505" d="M522.992 3194.339a50.891 50.891 0 0 0 .943 6.13c.435 1.207-1.166 3.666-3.776 4.344s-.71-2.623-.772-3.9-.312-7.319-.312-7.319z" fill="#fb9390"/><path data-name="Path 20506" d="M523.052 3197.875a4.849 4.849 0 0 1-1.193.985 3.6 3.6 0 0 1-2.667.529l-.119-2.823 3.918.743z" fill="#ef7f7f"/><path data-name="Path 20507" d="M522.078 3188.317a4.469 4.469 0 0 1 2.446 1.909c.908 1.5 1.409 5.851-1.821 7.754s-5.585-1.041-5.526-3.824.798-6.478 4.901-5.839z" fill="#fb9390"/><path data-name="Path 20508" d="M516.198 3192.989c.033.722.4 1.293.833 1.27s.733-.625.7-1.349-.416-1.291-.833-1.27-.736.624-.7 1.349z" fill="#fb9390"/><path data-name="Path 20509" d="M524.428 3194.098c-.256.716-.071 1.436.416 1.609s1.08-.266 1.334-.982.071-1.436-.416-1.609-1.072.268-1.334.982z" fill="#fb9390"/><path data-name="Path 20510" d="M528.951 3201.593a7.66 7.66 0 0 0-3.035 3.747c-1.161 2.76 2.777 16.806 3.614 17.708a2.078 2.078 0 0 0 3.551-1.161c.394-2.203-.937-19.599-4.13-20.294z" fill="#00486e"/><path data-name="Path 20513" d="M527.099 3233.641c-1.651-4.579-20.358-21.273-25.308-19.983l2.654 10.17s5.5 16.717 11 18.707a15.314 15.314 0 0 0 10.545-.277 10.3 10.3 0 0 0 1.109-8.617z" fill="#bed1f9"/><path data-name="Path 20514" d="M520.382 3206.866c-.233.466 1.249 1.3 1.686 1.611s2.225 0 2.225 0-3.653-2.13-3.911-1.611z" fill="#fb9390"/><path data-name="Path 20515" d="M504.402 3228.677s-4.744 9.871-4.771 10.911c-.023 1.482-6.869 1.074-5.383.441.341-.146 1.42-.693 1.5-.764.441-.381 4.386-12.647 4.386-12.647z" fill="#ef7f7f"/><path data-name="Path 20516" d="M505.916 3216.858a3.457 3.457 0 0 0-4.494 1.1c-1.855 2.311-5.412 20.3-5.412 20.3l4.371.416s10.883-15.919 5.535-21.816z" fill="#bed1f9"/><path data-name="Path 20518" d="M516.341 3211.348a35.1 35.1 0 0 0 4.346.566 11.6 11.6 0 0 1 2.54.316s3.616 8.5 4.134 9.448c1.549 2.831 5.841 2.5 5.77.137-.056-1.873-7.39-13.638-9.338-13.58s-8.052-1.214-8.235-.439c-.1.416 5.62.612 4.717.966-.56.221-5.035-.283-5.021.244s4.045.577 4.478.987-4.286-.5-4.259.393c.015.45 4.163.125 4.613.808.179.294-4.09-.732-3.745.154z" fill="#fb9390"/><g data-name="Group 1735" transform="translate(37.822 76.291)"><path data-name="Path 20975" d="M481.522 3140.505l-.636.338-5.71-2.572-8.067-13.64.489-.26 6.498 2.153z" fill="#45679d"/><path data-name="Path 20976" d="M480.881 3140.846l-6.345-2.234-7.427-13.981 6.346 2.234z" fill="#26426e"/><ellipse data-name="Ellipse 135" cx=".276" cy="1.102" rx=".276" ry="1.102" transform="rotate(152 -153.227 1625.615)" fill="#88b2f5"/><path data-name="Path 20977" d="M474.517 3129.577l-1.398-.52-1.244-2.342 1.398.52z" fill="#88b2f5"/><ellipse data-name="Ellipse 136" cx=".138" cy=".413" rx=".138" ry=".413" transform="rotate(152 -152.813 1623.17)" fill="#3964a8"/><ellipse data-name="Ellipse 137" cy=".276" ry=".276" transform="rotate(152 -153.054 1623.376)" fill="#3964a8"/><ellipse data-name="Ellipse 138" cx=".138" cy=".413" rx=".138" ry=".413" transform="rotate(152 -152.676 1623.72)" fill="#3964a8"/></g><path data-name="Path 20519" d="M507.723 3206.821a.445.445 0 0 0-.612.3.924.924 0 0 0 .127.833c.416.435 3.241.854 3.255.433.013-.326-1.89-1.184-2.77-1.566z" fill="#fb9390"/><path data-name="Path 20520" d="M507.173 3207.933s-.285 1.062-.04 1.07 3.312.312 3.449-.052-3.016-1.243-3.409-1.018z" fill="#fb9390"/><path data-name="Path 20521" d="M507.04 3209.017a.971.971 0 0 0 .167.745c.254.273 3.108.094 3.214-.36s-3.282-.733-3.381-.385z" fill="#fb9390"/><path data-name="Path 20522" d="M507.472 3210.015a.916.916 0 0 0 .142.516c.144.154 2.252-.06 2.46-.51s-2.354-.47-2.602-.006z" fill="#fb9390"/><path data-name="Path 20523" d="M501.4 3238.086a62.056 62.056 0 0 1-2.017 6.051c-.662 1.578-.833 3.149-1.27 3.936a2.654 2.654 0 0 1-4.357.874c-1.443-1.207.489-6.245.489-6.245l4.542-6.39z" fill="#fb9390"/><path data-name="Path 20525" d="M518.995 3241.409c1.274 2.342 3.8 2.009 6.095 2.009 2.623 0 5.308-1.089 6.055-3.988a11.841 11.841 0 0 0-2.082-9.367c-9.413-12.439-9.486-13.665-13.235-15.318-4.054-1.778-19.085 23.895-19.085 23.895l4.126 2.109a108.788 108.788 0 0 0 10.144-9.71 29.548 29.548 0 0 0 1.788-3.293s5.353 12.114 6.194 13.663z" fill="#dde8fe"/><path data-name="Path 20968" d="M520.1 3193.21c-.008.24-.01.474-.022.7a1.564 1.564 0 0 1-.129.622.593.593 0 0 0-.166.367.494.494 0 0 0 .183.387.807.807 0 0 0 .72.14 1 1 0 0 1-.589-.275.318.318 0 0 1-.087-.24c.01-.088.037-.106.143-.253a.929.929 0 0 0 .113-.383 1.95 1.95 0 0 0 0-.369 2.507 2.507 0 0 0-.166-.696z" fill="#d57570"/><path data-name="Path 20969" d="M521.494 3193.469a.365.365 0 1 0 .289-.316.366.366 0 0 0-.289.316z" fill="#333"/><path data-name="Path 20970" d="M518.365 3193.823a.365.365 0 1 0 .288-.317.366.366 0 0 0-.288.317z" fill="#333"/><path data-name="Path 20971" d="M522.1 3196.001a2.629 2.629 0 0 1-.3.229 2.6 2.6 0 0 1-.325.188 2.264 2.264 0 0 1-.709.218 1.931 1.931 0 0 1-.736-.054 2.715 2.715 0 0 1-.685-.311 2.032 2.032 0 0 0 .663.381 1.743 1.743 0 0 0 .769.079 2 2 0 0 0 .731-.248 2.186 2.186 0 0 0 .592-.482z" fill="#d57570"/><path data-name="Path 20972" d="M521.029 3192.703a3.73 3.73 0 0 1 .534-.128 1.847 1.847 0 0 1 .507-.011 1.713 1.713 0 0 1 .488.129c.122.038.417.212.493.245a1.228 1.228 0 0 0-.949-.66 1.232 1.232 0 0 0-.6.08 1.123 1.123 0 0 0-.473.345z" fill="#07085b"/><path data-name="Path 20973" d="M519.421 3192.884a1.122 1.122 0 0 0-.531-.247 1.232 1.232 0 0 0-.6.038 1.229 1.229 0 0 0-.8.832c.07-.049.325-.276.437-.336a1.715 1.715 0 0 1 .454-.222 1.86 1.86 0 0 1 .5-.088 3.734 3.734 0 0 1 .54.023z" fill="#07085b"/><path data-name="Path 20974" d="M522.813 3189.754c2.216.557-.325 1.488 2 3.064s-.7-4.922-.7-4.922-4.641-1.111-6.451 2.508 2.94-1.207 5.151-.65z" fill="#fa7167"/></g><g data-name="Group 591"><path data-name="Path 7586" d="M375.906 3305.141l1.214 2.707a.444.444 0 0 1-.223.586l-6.339 2.841a.5.5 0 0 1-.626-.735l2.453-3.822a3.9 3.9 0 0 0 3.521-1.577z" fill="#55769f"/><path data-name="Path 7587" d="M383.961 3305.141l1.214 2.707a.444.444 0 0 1-.224.586l-6.339 2.841a.5.5 0 0 1-.626-.735l2.453-3.822a3.9 3.9 0 0 0 3.522-1.577z" fill="#55769f"/><path data-name="Path 7588" d="M397.656 3230.505l.674 4.227 1.424-5.636s-2-.968-2.084-.616a15.649 15.649 0 0 0-.014 2.025z" fill="#07085b"/><path data-name="Path 7589" d="M408.982 3239.604l.616 7.308-6.45-.308.744-6.472z" fill="#ffc0bb"/><path data-name="Path 7590" d="M403.539 3243.21l.354-3.078 5.089-.529.214 2.531a5.12 5.12 0 0 1-5.657 1.076z" fill="#f99893"/><g data-name="Group 589"><path data-name="Path 7591" d="M399.585 3234.68a1.323 1.323 0 1 1-1.864-.89 1.479 1.479 0 0 1 1.864.89z" fill="#f99893"/><path data-name="Path 7592" d="M398.649 3235.267a8.273 8.273 0 0 0-.13-.622 6.891 6.891 0 1 1 13.576-2.054 1.488 1.488 0 0 1 1.332-.189 2.078 2.078 0 0 1-1.416 3.8 1.321 1.321 0 0 1-.32-.175 6.462 6.462 0 0 1-6.036 6.318 6.183 6.183 0 0 1-4.3-1.478c-1.587-1.17-2.391-3.651-2.706-5.6z" fill="#ffc0bb"/><path data-name="Path 7593" d="M403.673 3233.058c-.013.395-.016.78-.037 1.158a2.573 2.573 0 0 1-.213 1.024.979.979 0 0 0-.273.6.813.813 0 0 0 .3.638 1.33 1.33 0 0 0 1.186.231 1.641 1.641 0 0 1-.97-.452.523.523 0 0 1-.143-.4c.016-.145.061-.174.236-.417a1.534 1.534 0 0 0 .186-.63 3.215 3.215 0 0 0 0-.608 4.127 4.127 0 0 0-.272-1.144z" fill="#f99893"/><path data-name="Path 7594" d="M405.965 3233.483a.6.6 0 1 0 .476-.521.6.6 0 0 0-.476.521z" fill="#333"/><path data-name="Path 7595" d="M400.818 3234.065a.6.6 0 1 0 .475-.522.6.6 0 0 0-.475.522z" fill="#333"/><path data-name="Path 7596" d="M406.968 3237.652a4.336 4.336 0 0 1-.5.378 4.276 4.276 0 0 1-.536.31 3.727 3.727 0 0 1-1.167.359 3.179 3.179 0 0 1-1.212-.089 4.472 4.472 0 0 1-1.127-.512 3.346 3.346 0 0 0 1.092.628 2.87 2.87 0 0 0 1.267.13 3.289 3.289 0 0 0 1.2-.408 3.6 3.6 0 0 0 .983-.796z" fill="#f99893"/><path data-name="Path 7597" d="M405.204 3232.221a6.136 6.136 0 0 1 .88-.211 3.043 3.043 0 0 1 .835-.018 2.822 2.822 0 0 1 .8.213c.2.063.686.348.813.4a2.022 2.022 0 0 0-1.563-1.087 2.03 2.03 0 0 0-.989.132 1.848 1.848 0 0 0-.776.571z" fill="#07085b"/><path data-name="Path 7598" d="M402.554 3232.519a1.85 1.85 0 0 0-.875-.406 2.031 2.031 0 0 0-1 .063 2.024 2.024 0 0 0-1.322 1.37c.115-.08.535-.454.719-.554a2.825 2.825 0 0 1 .747-.365 3.058 3.058 0 0 1 .823-.144 6.164 6.164 0 0 1 .908.036z" fill="#07085b"/></g><path data-name="Path 7599" d="M405.431 3273.887s1.345 9.123-7.47 10.713a106.642 106.642 0 0 1-19.783 1.115l-1.526 20.957-4.6.235s-11.85-29.118 4.552-33.67l14.74.072 6.069-.433s6.141-1.517 6.214-1.228 1.659 2.383 1.804 2.239z" fill="#070852"/><path data-name="Path 7600" d="M413.531 3273.935s1.345 9.123-7.47 10.713a106.641 106.641 0 0 1-19.783 1.116l-1.526 20.957-4.6.235s-11.85-29.118 4.552-33.67l14.74.072 6.069-.433s6.141-1.518 6.214-1.228 1.66 2.383 1.804 2.238z" fill="#10116b"/><path data-name="Path 7601" d="M402.429 3243.998s-6.069.771-7.611 2.023-8.96 19.653-8.96 19.653l6.166 7.226 13.1.1s9.826 5.3 15.992.289 2.986-22.447-.578-26.2-9.923-3.661-9.923-3.661-5.778 4.039-8.186.57z" fill="#ff5b7e"/><path data-name="Path 7602" d="M414.182 3253.15a25.463 25.463 0 0 0-.444 3.042c-.052.51-.075 1.023-.1 1.536s-.027 1.027-.02 1.541a20.268 20.268 0 0 0 .253 3.075 10.112 10.112 0 0 0 .894 2.945 15.128 15.128 0 0 1-.588-2.987c-.112-1.007-.15-2.023-.163-3.039s0-2.033.036-3.052.082-2.038.132-3.061z" fill="#fff"/><path data-name="Path 7603" d="M396.023 3252.476c-.277 1.492-.571 2.979-.87 4.464s-.62 2.963-.979 4.432-.749 2.928-1.226 4.359a21.369 21.369 0 0 1-.819 2.106 8.106 8.106 0 0 1-1.164 1.932 7.379 7.379 0 0 0 1.338-1.846 17.372 17.372 0 0 0 .936-2.088c.273-.712.507-1.438.728-2.166s.41-1.466.592-2.2.341-1.482.491-2.227.287-1.492.406-2.243c.248-1.502.441-3.014.567-4.523z" fill="#fff"/><path data-name="Path 7614" d="M392.972 3268.735c.039-.305 2.354-.645 3.205-.69.645-.033 4.919-.176 6.373-.242l-.107.374.022 1.651.239 1.094c-1.276.081-4.394.2-5.043.331a15.937 15.937 0 0 0-2.372.826s-.626-.142.169-.485a3.821 3.821 0 0 0 1.276-.915c.109-.122-.01-.339-.089-.319-2.165.567-2.388.661-2.388.661s-2.544-.014-.014-.586c1.516-.343 2.06-.542 2.2-.712.057-.072-.045-.319-.138-.325-1.314-.081-3.672.385-3.026.079a16.68 16.68 0 0 1 2.831-.625c.04-.006.1-.246-.072-.261-1.255-.103-3.101.428-3.066.144z" fill="#ffc0bb"/><path data-name="Path 7615" d="M415.664 3265.036c-.533.13-1.058.279-1.593.39s-1.07.219-1.6.331q-1.612.294-3.232.518c-1.082.142-2.165.273-3.251.378s-2.182.2-3.253.259l-.144.008-.032.125a8.844 8.844 0 0 0-.2 1.081 8.664 8.664 0 0 0-.064 1.091 7.028 7.028 0 0 0 .094 1.092 5.039 5.039 0 0 0 .317 1.053l.012.03.024.016 1.189.8q.595.4 1.2.79c-.373-.3-.75-.593-1.128-.884l-1.134-.875.036.045a4.824 4.824 0 0 1-.249-1.013 7 7 0 0 1-.051-1.048 9.846 9.846 0 0 1 .1-1.049 8.561 8.561 0 0 1 .211-1.026l-.176.133c.566-.015 1.1-.051 1.653-.092s1.094-.084 1.639-.141c1.091-.112 2.18-.249 3.264-.422s2.161-.386 3.229-.639c.532-.136 1.065-.267 1.588-.432a27.932 27.932 0 0 0 1.551-.519z" fill="#fff"/><path data-name="Path 7616" d="M397.524 3226.505s-2.023.065.1-1.646 7.824-3.717 11.478-1.788c0 0 .73-1.553 1.787-1.183s-.687 1.44-.687 1.44 1.349-.043 1.761.618c.3.489-.522.511-.973.489.768.131 3.712 1.99 2.234 7.926-.525-.115-3.518-4.455-3.518-4.455s-6.843 3.8-6.167.779c0 0-7.09 4.425-6.084.77 0 0-2.741.201.069-2.95z" fill="#07085b"/><path data-name="Path 7617" d="M413.229 3232.397a1.3 1.3 0 0 0-1.176.285c-.61.484-.542 2.183-.542 2.183s-2.909 1.876-2.6-6.062c.327-8.445 2.427.677 2.427.677z" fill="#07085b"/><g data-name="Group 1736"><path data-name="Path 20978" d="M369.443 3272.15h23.939v2.18h-23.939z" fill="#00486e"/><path data-name="Path 20979" d="M393.168 3272.15h10.371v2.18h-10.371z" fill="#100142"/><path data-name="Path 20981" d="M387.066 3259.814l5.838 11.3a.718.718 0 0 1-.641 1.05h-22.605a.713.713 0 0 1-.638-.382l-5.839-11.315a.717.717 0 0 1 .642-1.031h22.6a.717.717 0 0 1 .641.382z" fill="#016ca4"/><path data-name="Path 20980" d="M368.149 3268.487a53.036 53.036 0 0 0 9.73.226 17.226 17.226 0 0 0 10.845-5.728l4.2 8.093a.718.718 0 0 1-.641 1.05h-22.607a.715.715 0 0 1-.638-.382l-1.749-3.383c.271.056.561.094.86.124z" fill="#fff" opacity=".32"/><path data-name="Path 20982" d="M392.099 3271.095l-5.838-11.281a.719.719 0 0 0-.643-.382h.807a.718.718 0 0 1 .641.382l5.837 11.3a.718.718 0 0 1-.641 1.05h-.807a.718.718 0 0 0 .641-1.062z" fill="#100142"/></g></g><g data-name="Group 620"><path data-name="Path 7842" d="M176.167 3148.437l-10.348 3.341s-7.187-4.418-7.595-6.036.345-1.872.621-1.84c0 0-2.562-2.238-1.2-4.285 0 0-2.281-2.408-.748-3.85l.833-.679s-1.108-2.222-.223-3.9a1.257 1.257 0 0 1 1.559-.562l8.486 3.15 5.415 3.628z" fill="#ffbe9d"/><path data-name="Path 7844" d="M175.269 3145.17l-2.546-8.454-9.165-6.858a3.087 3.087 0 0 0 0 3.145 30.018 30.018 0 0 0 2.678 3.617c.313.483 1.628 2.981 1.628 2.981a10.825 10.825 0 0 0-.3 6.985" fill="#ffbe9d"/><path data-name="Path 7845" d="M167.573 3146.583a2.593 2.593 0 0 0-.085-.488 6.72 6.72 0 0 1-.106-.594 7.418 7.418 0 0 1-.1-.806 11.494 11.494 0 0 1 0-2.228 9.732 9.732 0 0 1 .684-2.822v-.1l-1.156-2.153-.308-.573-.164-.3-.207-.276-.886-1.061a14.914 14.914 0 0 1-1.628-2.4 2.954 2.954 0 0 1 .058-2.848l-.2.032.785.589 8.4 6.248-.042-.058c.78 2.519 1.432 4.625 1.893 6.126.228.716.414 1.284.53 1.7l.154.445c.032.1.053.154.064.148a.626.626 0 0 0-.032-.159l-.117-.451c-.122-.43-.281-1-.488-1.724-.44-1.512-1.061-3.622-1.8-6.158v-.037h-.032l-8.364-6.285-.79-.589-.122-.09-.074.122a3.235 3.235 0 0 0-.074 3.129 14.987 14.987 0 0 0 1.676 2.44l.886 1.061c.074.09.143.175.2.26l.159.286.313.573 1.172 2.121v-.1a9.658 9.658 0 0 0-.658 2.9 10.9 10.9 0 0 0 .048 2.249 8.116 8.116 0 0 0 .133.811 4.924 4.924 0 0 0 .138.589 2.853 2.853 0 0 0 .14.471z" fill="#eb996e"/><path data-name="Path 7846" d="M157.724 3135.119a3.568 3.568 0 0 0 .61.414l1.718 1.061 2.562 1.5a2.853 2.853 0 0 0 1.734.53 1.352 1.352 0 0 0 .891-.467 1.511 1.511 0 0 0 .313-.986 3.14 3.14 0 0 0-.806-1.761 17.3 17.3 0 0 0-1.167-1.331 16.027 16.027 0 0 0-2.286-1.925 14.246 14.246 0 0 0-1.729-1.034 2.982 2.982 0 0 0-.674-.286 4.24 4.24 0 0 0 .626.382c.4.239.986.6 1.665 1.1a16.841 16.841 0 0 1 2.212 1.946 14.788 14.788 0 0 1 1.135 1.315 2.875 2.875 0 0 1 .749 1.587 1.241 1.241 0 0 1-.249.806 1.061 1.061 0 0 1-.711.371 2.588 2.588 0 0 1-1.591-.461l-2.594-1.448-1.761-.96a3.823 3.823 0 0 0-.647-.355z" fill="#eb996e"/><path data-name="Path 7847" d="M157.607 3139.618a2.934 2.934 0 0 0 .53.435c.361.265.891.631 1.554 1.061a26.073 26.073 0 0 0 2.408 1.432 2.408 2.408 0 0 0 .8.3 1.209 1.209 0 0 0 .891-.233 1.787 1.787 0 0 0 .6-1.724 3.363 3.363 0 0 0-.886-1.591 14.351 14.351 0 0 0-1.2-1.156 21.9 21.9 0 0 0-2.259-1.66 38.387 38.387 0 0 0-1.591-.981 3.182 3.182 0 0 0-.615-.318 3.559 3.559 0 0 0 .53.408l1.559 1.061a25.5 25.5 0 0 1 2.2 1.7 14.669 14.669 0 0 1 1.167 1.14 3.145 3.145 0 0 1 .817 1.459 1.549 1.549 0 0 1-.5 1.464.965.965 0 0 1-.695.186 2.121 2.121 0 0 1-.711-.265c-.939-.467-1.74-.955-2.419-1.368l-1.591-1a3.813 3.813 0 0 0-.589-.35z" fill="#eb996e"/><path data-name="Path 7848" d="M158.832 3143.902a2.232 2.232 0 0 0 .44.324 32.7 32.7 0 0 0 1.241.78 13.914 13.914 0 0 0 1.957.992 5.773 5.773 0 0 0 1.262.387 1.236 1.236 0 0 0 .743-.106.865.865 0 0 0 .424-.674 1.983 1.983 0 0 0-.064-.753 1.479 1.479 0 0 0-.371-.631 7.081 7.081 0 0 0-.955-.891 16.78 16.78 0 0 0-1.8-1.246c-.53-.329-.971-.567-1.278-.727a1.935 1.935 0 0 0-.5-.217 2.181 2.181 0 0 0 .44.308l1.23.8a19.8 19.8 0 0 1 1.745 1.278c.583.53 1.432 1.114 1.278 2.037a.589.589 0 0 1-.276.477 1.024 1.024 0 0 1-.583.074 6 6 0 0 1-1.2-.35 15.816 15.816 0 0 1-1.952-.928 14.856 14.856 0 0 0-1.781-.934z" fill="#eb996e"/><path data-name="Path 7849" d="M158.307 3145.859a1.373 1.373 0 0 0 .239.43 8.7 8.7 0 0 0 .843 1.061 11.9 11.9 0 0 0 1.48 1.337c.3.228.621.456.96.679a3.517 3.517 0 0 0 1.162.583 1.008 1.008 0 0 0 .711-.08.981.981 0 0 0 .446-.53 1.66 1.66 0 0 0-.127-1.236 6.364 6.364 0 0 0-1.108-1.713 4.545 4.545 0 0 0-1.061-.849 1.145 1.145 0 0 0-.456-.186 6.121 6.121 0 0 1 2.387 2.811 1.384 1.384 0 0 1 .106 1.034.684.684 0 0 1-.843.451 3.457 3.457 0 0 1-1.061-.53c-.334-.223-.658-.44-.955-.663a13.515 13.515 0 0 1-1.5-1.262c-.798-.775-1.18-1.337-1.223-1.337z" fill="#eb996e"/><path data-name="Path 7850" d="M176.993 3148.15l12.729 27.229 11.138-14.543c6.969-8.884 12.7-11.005 12.7-11.005l10.109-2.7 20.711-1.1 1.8 1.034 12.474 5.256a227.159 227.159 0 0 1-3.543 24.174c-2.355 10.7-4.323 22.4-4.323 22.4-.859 7.706 4.853 37.264 4.853 37.264h-57.083l12.2-36.723a132.591 132.591 0 0 1-3.474-13.609l-10.608 7.24s-15.908 8.942-21.708-6.088l-10.024-35z" fill="#ff725e"/><path data-name="Path 7851" d="M207.94 3186.396a4.823 4.823 0 0 0 0-.8 9.058 9.058 0 0 1 0-.933c.032-.366 0-.774 0-1.23a29.5 29.5 0 0 1 .255-3.182 31.416 31.416 0 0 1 .8-3.835 30.4 30.4 0 0 1 1.321-3.713 29.634 29.634 0 0 1 1.443-2.854c.217-.4.445-.742.636-1.061a7.116 7.116 0 0 1 .53-.785 5.3 5.3 0 0 0 .424-.674 3.994 3.994 0 0 0-.53.61 7.158 7.158 0 0 0-.53.764c-.18.308-.446.636-.679 1.061a25.657 25.657 0 0 0-1.506 2.853 26.583 26.583 0 0 0-2.121 7.59 25.565 25.565 0 0 0-.2 3.225c0 .456 0 .875.032 1.236s.042.679.069.933a4.369 4.369 0 0 0 .056.795z" fill="#263238"/><path data-name="Path 7852" d="M210.003 3163.817a10.989 10.989 0 0 0 .992 2.625 13.739 13.739 0 0 0 1.289 2.5 14.8 14.8 0 0 0-1.061-2.609 59.183 59.183 0 0 0-.849-1.793 3.352 3.352 0 0 0-.371-.723z" fill="#263238"/><path data-name="Path 7853" d="M188.815 3183.203a3.978 3.978 0 0 0 .589-1.093 10.64 10.64 0 0 0 .748-2.906 10.837 10.837 0 0 0-.085-3.007 3.766 3.766 0 0 0-.329-1.193 18.9 18.9 0 0 1 .138 4.169 18.616 18.616 0 0 1-1.061 4.031z" fill="#263238"/><path data-name="Path 7854" d="M200.87 3171.779c-.042 0-.122.642-.313 1.671a29.855 29.855 0 0 1-1 3.957 29.3 29.3 0 0 1-1.533 3.782 15.963 15.963 0 0 0-.732 1.533 3.472 3.472 0 0 0 .276-.366c.164-.244.382-.615.631-1.061a23.241 23.241 0 0 0 2.551-7.8c.069-.53.111-.949.122-1.241a1.358 1.358 0 0 0-.002-.475z" fill="#fafafa"/><path data-name="Path 7855" d="M198.886 3178.594a15.315 15.315 0 0 1-.822-1.48 6.508 6.508 0 0 1-.382-3.962l.032-.133-.249.048a7.712 7.712 0 0 1 1.384 3.67c.106 1.013 0 1.644.048 1.649a1.235 1.235 0 0 0 .1-.44 5.981 5.981 0 0 0 .042-1.225 7.351 7.351 0 0 0-1.347-3.819l-.18-.249-.069.3-.032.138a6.3 6.3 0 0 0 .477 4.105 5.718 5.718 0 0 0 .668 1.061c.192.236.314.348.33.337z" fill="#fafafa"/><path data-name="Path 7856" d="M200.493 3176.527a1.589 1.589 0 0 0 .467-.164 8.188 8.188 0 0 0 1.172-.652 9.51 9.51 0 0 0 1.538-1.284 9.369 9.369 0 0 0 .769-.9 6.151 6.151 0 0 0 .361-.53.9.9 0 0 0 .09-.732.493.493 0 0 0-.345-.271.711.711 0 0 0-.387.053 3.081 3.081 0 0 0-.53.35 8.68 8.68 0 0 0-.9.769 8.9 8.9 0 0 0-1.273 1.543 7.956 7.956 0 0 0-.642 1.183 1.649 1.649 0 0 0-.159.467c.048 0 .313-.626.96-1.538a9.966 9.966 0 0 1 1.289-1.469 8.9 8.9 0 0 1 .891-.737 2.515 2.515 0 0 1 .488-.313c.175-.074.324-.042.382.08a.658.658 0 0 1-.085.488c-.09.159-.223.334-.334.493a9.685 9.685 0 0 1-.737.891 10.609 10.609 0 0 1-1.464 1.294c-.946.659-1.572.935-1.551.979z" fill="#fafafa"/><path data-name="Path 7857" d="M199.782 3180.976a1.113 1.113 0 0 0 .387.127 4.31 4.31 0 0 0 1.108.1 5.113 5.113 0 0 0 3.368-1.448l.17-.164-.223-.064-.366-.1a5.2 5.2 0 0 0-3.845.652 4.383 4.383 0 0 0-.933.753c-.186.212-.276.345-.26.355a10.163 10.163 0 0 1 1.289-.944 5.3 5.3 0 0 1 3.713-.53l.345.1-.058-.228a5.219 5.219 0 0 1-3.182 1.448 13.258 13.258 0 0 1-1.513-.057z" fill="#fafafa"/><path data-name="Path 7858" d="M245.072 3183.124a1.592 1.592 0 0 0 0 .461 9.963 9.963 0 0 0 .127 1.241 23.167 23.167 0 0 0 .918 3.994 23.559 23.559 0 0 0 1.623 3.787c.255.461.472.827.636 1.061a2.086 2.086 0 0 0 .276.371 15.558 15.558 0 0 0-.737-1.506 31.4 31.4 0 0 1-1.533-3.787 30.5 30.5 0 0 1-1-3.957 15.7 15.7 0 0 0-.31-1.665z" fill="#fafafa"/><path data-name="Path 7859" d="M247.055 3189.939a2.127 2.127 0 0 0 .329-.329 5.516 5.516 0 0 0 .674-1.061 6.311 6.311 0 0 0 .472-4.1l-.032-.143-.064-.3-.18.255a7.377 7.377 0 0 0-1.352 3.818 6.471 6.471 0 0 0 .042 1.23 1.278 1.278 0 0 0 .1.435c.048 0-.053-.636.048-1.649a7.807 7.807 0 0 1 1.384-3.67l-.244-.048v.133a6.508 6.508 0 0 1-.382 3.962 14.524 14.524 0 0 1-.795 1.467z" fill="#fafafa"/><path data-name="Path 7860" d="M245.453 3187.874c0-.042-.626-.318-1.533-.976a10.321 10.321 0 0 1-1.453-1.3 9.548 9.548 0 0 1-.732-.886 4.545 4.545 0 0 1-.334-.5.631.631 0 0 1-.085-.488c.053-.122.207-.148.377-.074a2.783 2.783 0 0 1 .493.308 10.514 10.514 0 0 1 .886.737 9.887 9.887 0 0 1 1.278 1.474c.647.912.912 1.565.96 1.543a1.453 1.453 0 0 0-.159-.467 7.484 7.484 0 0 0-.642-1.188 8.661 8.661 0 0 0-1.273-1.543 10.192 10.192 0 0 0-.9-.769 2.652 2.652 0 0 0-.53-.345.663.663 0 0 0-.387-.053.5.5 0 0 0-.345.265.875.875 0 0 0 .1.732 4.627 4.627 0 0 0 .361.53 9.24 9.24 0 0 0 2.3 2.185 7.457 7.457 0 0 0 1.177.652 1.331 1.331 0 0 0 .441.163z" fill="#fafafa"/><path data-name="Path 7861" d="M246.18 3192.32a10.637 10.637 0 0 1-1.48.037 5.155 5.155 0 0 1-3.182-1.448l-.053.228.339-.09a5.24 5.24 0 0 1 3.713.53 10.915 10.915 0 0 1 1.246.955 1.278 1.278 0 0 0-.265-.35 4.46 4.46 0 0 0-.928-.758 5.214 5.214 0 0 0-3.851-.647l-.361.1-.228.058.17.17a5.118 5.118 0 0 0 3.373 1.427 4.383 4.383 0 0 0 1.108-.1.94.94 0 0 0 .399-.112z" fill="#fafafa"/><path data-name="Path 7862" d="M225.379 3164.422a2.975 2.975 0 0 0-.329.329 10.76 10.76 0 0 0-.774.976 22.858 22.858 0 0 0-2.122 3.522 23.219 23.219 0 0 0-1.48 3.845c-.138.53-.239.923-.292 1.209a1.634 1.634 0 0 0-.064.456 16.3 16.3 0 0 0 .53-1.591 29.766 29.766 0 0 1 1.538-3.782 30.488 30.488 0 0 1 2.042-3.532c.591-.902.983-1.432.951-1.432z" fill="#fafafa"/><path data-name="Path 7863" d="M222.048 3170.688a1.342 1.342 0 0 0 .461 0 5.206 5.206 0 0 0 1.23-.3 6.3 6.3 0 0 0 3.182-2.609l.08-.122.159-.26-.308.053a7.425 7.425 0 0 0-3.628 1.8 5.93 5.93 0 0 0-.822.907c-.175.233-.249.377-.233.382a12.124 12.124 0 0 1 1.183-1.146 7.77 7.77 0 0 1 3.554-1.671l-.148-.2-.069.117a6.5 6.5 0 0 1-3.034 2.572 15.4 15.4 0 0 1-1.607.477z" fill="#fafafa"/><path data-name="Path 7864" d="M222.313 3168.088c.048 0-.228-.668-.414-1.771a10.215 10.215 0 0 1-.143-1.952 9.682 9.682 0 0 1 .09-1.146c.032-.2.058-.414.106-.589a.631.631 0 0 1 .281-.414c.122-.042.249.037.324.212a2.78 2.78 0 0 1 .138.568 11.234 11.234 0 0 1 .122 1.146 10.539 10.539 0 0 1-.1 1.952c-.17 1.1-.435 1.756-.387 1.771a1.443 1.443 0 0 0 .212-.445 8.034 8.034 0 0 0 .366-1.294 8.957 8.957 0 0 0 .164-1.994 9.448 9.448 0 0 0-.111-1.183 2.8 2.8 0 0 0-.117-.647.658.658 0 0 0-.239-.308.53.53 0 0 0-.435-.048.88.88 0 0 0-.445.589 5.863 5.863 0 0 0-.111.631 8.286 8.286 0 0 0-.074 1.183 9.057 9.057 0 0 0 .207 1.989 7.85 7.85 0 0 0 .382 1.289 1.591 1.591 0 0 0 .184.461z" fill="#fafafa"/><path data-name="Path 7865" d="M219.746 3171.773a13.789 13.789 0 0 1-1.061-1.008 5.187 5.187 0 0 1-1.273-3.262l-.2.127.308.17a5.272 5.272 0 0 1 2.259 2.965 9.633 9.633 0 0 1 .271 1.591 1.177 1.177 0 0 0 .058-.435 4.391 4.391 0 0 0-.138-1.193 5.224 5.224 0 0 0-2.307-3.15l-.329-.18-.207-.111v.239a5.092 5.092 0 0 0 1.411 3.384 4.584 4.584 0 0 0 .859.705 1.209 1.209 0 0 0 .349.158z" fill="#fafafa"/><path data-name="Path 7866" d="M242.431 3224.074a3.339 3.339 0 0 0-.324.329 10.761 10.761 0 0 0-.774.976 23.294 23.294 0 0 0-3.638 7.367c-.143.5-.244.923-.3 1.209a1.707 1.707 0 0 0-.058.456 15.626 15.626 0 0 0 .53-1.591 30.583 30.583 0 0 1 1.538-3.782 31.216 31.216 0 0 1 2.047-3.532 14.79 14.79 0 0 0 .976-1.432z" fill="#fafafa"/><path data-name="Path 7867" d="M239.105 3230.342a1.34 1.34 0 0 0 .461 0 5.482 5.482 0 0 0 1.23-.3 6.3 6.3 0 0 0 3.182-2.609l.074-.122.164-.26-.308.053a7.373 7.373 0 0 0-3.628 1.793 6.605 6.605 0 0 0-.827.912 1.474 1.474 0 0 0-.233.382c.042.032.408-.493 1.188-1.146a7.743 7.743 0 0 1 3.548-1.671l-.143-.2-.074.117a6.481 6.481 0 0 1-3.034 2.573 15.575 15.575 0 0 1-1.6.477z" fill="#fafafa"/><path data-name="Path 7868" d="M239.391 3227.739c.048 0-.223-.663-.414-1.766a10.666 10.666 0 0 1-.143-1.952 8.858 8.858 0 0 1 .1-1.151 4.059 4.059 0 0 1 .106-.583.631.631 0 0 1 .281-.414c.122-.042.249.037.324.212a2.476 2.476 0 0 1 .133.568 8.768 8.768 0 0 1 .122 1.146 9.689 9.689 0 0 1-.1 1.952c-.17 1.1-.435 1.756-.387 1.771a1.517 1.517 0 0 0 .217-.446 8.2 8.2 0 0 0 .366-1.294 9.017 9.017 0 0 0 .159-1.994 9.411 9.411 0 0 0-.106-1.183 3.113 3.113 0 0 0-.154-.631.642.642 0 0 0-.244-.308.488.488 0 0 0-.43-.048.865.865 0 0 0-.461.615 4.774 4.774 0 0 0-.111.631 9.165 9.165 0 0 0-.08 1.183 9.754 9.754 0 0 0 .207 1.989 8.486 8.486 0 0 0 .387 1.289 1.347 1.347 0 0 0 .233.414z" fill="#fafafa"/><path data-name="Path 7869" d="M236.799 3231.43a11.842 11.842 0 0 1-1.061-1.008 5.187 5.187 0 0 1-1.273-3.262l-.2.127.313.17a5.272 5.272 0 0 1 2.259 2.965 11.325 11.325 0 0 1 .27 1.591 1.336 1.336 0 0 0 .058-.435 4.614 4.614 0 0 0-.138-1.193 5.245 5.245 0 0 0-2.307-3.15l-.329-.18-.207-.111v.239a5.092 5.092 0 0 0 1.415 3.38 4.58 4.58 0 0 0 .859.705 1.15 1.15 0 0 0 .341.162z" fill="#fafafa"/><path data-name="Path 7870" d="M175.28 3163.924a1.56 1.56 0 0 0 .1.451c.074.286.2.689.382 1.188a22.7 22.7 0 0 0 1.761 3.713 23.234 23.234 0 0 0 2.387 3.352c.345.4.636.716.849.918a1.765 1.765 0 0 0 .345.3 15.655 15.655 0 0 0-1.061-1.342 29.563 29.563 0 0 1-4.1-7.022 15.01 15.01 0 0 0-.663-1.558z" fill="#fafafa"/><path data-name="Path 7871" d="M178.669 3170.161a2.157 2.157 0 0 0 .249-.392 5.713 5.713 0 0 0 .43-1.188 6.365 6.365 0 0 0-.408-4.11l-.064-.127-.127-.281-.122.286a7.383 7.383 0 0 0-.53 4.015 6.588 6.588 0 0 0 .3 1.193c.1.271.175.414.191.4a12.3 12.3 0 0 1-.3-1.623 7.722 7.722 0 0 1 .573-3.877h-.249l.053.127a6.487 6.487 0 0 1 .472 3.946 14.716 14.716 0 0 1-.467 1.628z" fill="#fafafa"/><path data-name="Path 7872" d="M176.659 3168.486c0-.053-.679-.186-1.7-.636a10.21 10.21 0 0 1-1.708-.955 10.612 10.612 0 0 1-.907-.711 5.35 5.35 0 0 1-.43-.414.642.642 0 0 1-.186-.461c0-.127.17-.191.35-.154a2.718 2.718 0 0 1 .53.2 10.167 10.167 0 0 1 2.6 1.7c.827.753 1.225 1.331 1.262 1.3a1.5 1.5 0 0 0-.255-.424 7.427 7.427 0 0 0-.875-1.018 8.619 8.619 0 0 0-1.591-1.236 8.428 8.428 0 0 0-1.061-.562 2.652 2.652 0 0 0-.61-.223.679.679 0 0 0-.392.032.477.477 0 0 0-.276.334.88.88 0 0 0 .244.695 5.936 5.936 0 0 0 .467.44 8.646 8.646 0 0 0 .939.716 9.151 9.151 0 0 0 1.777.928 7.553 7.553 0 0 0 1.289.392 1.592 1.592 0 0 0 .533.057z" fill="#fafafa"/><path data-name="Path 7873" d="M178.292 3172.681a12.863 12.863 0 0 1-1.443.35 5.166 5.166 0 0 1-3.421-.743v.239l.313-.164a5.3 5.3 0 0 1 3.713-.249 9.658 9.658 0 0 1 1.464.647 2.033 2.033 0 0 0-.329-.292 4.7 4.7 0 0 0-1.061-.53 5.192 5.192 0 0 0-3.9.186l-.334.175-.207.106.2.127a5.086 5.086 0 0 0 3.6.695 4.435 4.435 0 0 0 1.061-.329 1.242 1.242 0 0 0 .344-.218z" fill="#fafafa"/><path data-name="Path 7874" d="M244.934 3178.977a7.674 7.674 0 0 1-.53-1.411 4.174 4.174 0 0 1 .743-3.4h-.207l.042.048a3.421 3.421 0 0 1 .817 1.777 3.31 3.31 0 0 1-.186 1.591 7.675 7.675 0 0 1-.679 1.374 2.88 2.88 0 0 0 .865-1.268 3.4 3.4 0 0 0 .255-1.7 3.559 3.559 0 0 0-.87-1.931l-.064-.08-.111-.122-.1.133a4.094 4.094 0 0 0-.811 1.925 4.243 4.243 0 0 0 .1 1.7 3.649 3.649 0 0 0 .456 1.061c.163.203.269.312.28.303z" fill="#fafafa"/><path data-name="Path 7875" d="M217.985 3159.686a7 7 0 0 1-1.257-.838 4.148 4.148 0 0 1-1.379-3.182l-.164.127h.058a3.442 3.442 0 0 1 1.708.965 3.379 3.379 0 0 1 .78 1.416 8.375 8.375 0 0 1 .255 1.512 2.96 2.96 0 0 0-.064-1.565 3.432 3.432 0 0 0-.785-1.538 3.57 3.57 0 0 0-1.83-1.061h-.069l-.159-.037v.164a4.047 4.047 0 0 0 .461 2.042 4.164 4.164 0 0 0 1.061 1.321 3.443 3.443 0 0 0 .981.583 1 1 0 0 0 .403.091z" fill="#fafafa"/><path data-name="Path 7876" d="M174.68 3157.782a6.862 6.862 0 0 1-.711-1.331 4.174 4.174 0 0 1 .3-3.474l-.207.037.048.042a3.384 3.384 0 0 1 1.061 1.655 3.347 3.347 0 0 1 0 1.618 8.056 8.056 0 0 1-.493 1.453 2.927 2.927 0 0 0 .684-1.411 3.331 3.331 0 0 0 .037-1.724 3.543 3.543 0 0 0-1.108-1.8l-.053-.042-.122-.106-.085.138a4.1 4.1 0 0 0-.557 2.015 4.211 4.211 0 0 0 .308 1.671 3.655 3.655 0 0 0 .589.976c.177.207.299.294.309.283z" fill="#fafafa"/><path data-name="Path 7877" d="M193.376 3190.029a7.457 7.457 0 0 1-.705-1.331 4.169 4.169 0 0 1 .3-3.474l-.207.037.048.037a3.315 3.315 0 0 1 1.061 3.278 8.162 8.162 0 0 1-.5 1.453 2.938 2.938 0 0 0 .689-1.411 3.447 3.447 0 0 0 .037-1.724 3.58 3.58 0 0 0-1.108-1.8l-.053-.042-.122-.111-.085.143a4.094 4.094 0 0 0-.53 2.015 4.243 4.243 0 0 0 .308 1.671 3.516 3.516 0 0 0 .589.976c.151.198.267.293.278.283z" fill="#fafafa"/><path data-name="Path 7878" d="M248.943 3232.84a6.894 6.894 0 0 1 .647-1.363 4.174 4.174 0 0 1 2.954-1.819l-.149-.143v.058a3.426 3.426 0 0 1-.711 1.83 3.341 3.341 0 0 1-1.262.976 7.754 7.754 0 0 1-1.459.467 2.859 2.859 0 0 0 1.538-.286 3.389 3.389 0 0 0 1.405-1 3.548 3.548 0 0 0 .79-1.968v-.228h-.167a4.047 4.047 0 0 0-1.946.753 4.174 4.174 0 0 0-1.156 1.241 3.712 3.712 0 0 0-.44 1.061 1.061 1.061 0 0 0-.044.421z" fill="#fafafa"/><path data-name="Path 7879" d="M183.543 3187.309c0-.048-.817-.435-2.068-1.22a7.24 7.24 0 0 1-1.893-1.724 4.042 4.042 0 0 1-.843-2.9c.138-.106-.186.138-.149.117h.2a.448.448 0 0 1 .2.032c.069.032.265.058.4.1a4.978 4.978 0 0 1 .748.26 5.559 5.559 0 0 1 1.289.78 5.49 5.49 0 0 1 1.538 2.015 7.426 7.426 0 0 1 .53 2.312 1.968 1.968 0 0 0 .037-.652 5.3 5.3 0 0 0-.392-1.734 5.473 5.473 0 0 0-2.891-2.965 4.808 4.808 0 0 0-.79-.281 5.098 5.098 0 0 0-.414-.1l-.212-.037h-.212l-.154.117a4.243 4.243 0 0 0 .912 3.092 6.937 6.937 0 0 0 1.994 1.734 15.571 15.571 0 0 0 1.565.817 3.152 3.152 0 0 0 .6.239z" fill="#fafafa"/><path data-name="Path 7880" d="M209.547 3232.454c0-.048-.817-.435-2.068-1.225a7.117 7.117 0 0 1-1.893-1.718 4.047 4.047 0 0 1-.843-2.9l-.149.117h.2l.2.037a1.79 1.79 0 0 1 .4.09 4.993 4.993 0 0 1 .748.265 5.384 5.384 0 0 1 1.289.78 5.447 5.447 0 0 1 1.538 2.015 7.425 7.425 0 0 1 .53 2.307 1.92 1.92 0 0 0 .037-.647 5.463 5.463 0 0 0-1.946-3.872 5.75 5.75 0 0 0-1.337-.833 5.355 5.355 0 0 0-.79-.281c-.133-.037-.276-.069-.414-.1a1.616 1.616 0 0 0-.212-.037h-.217c.032-.027-.286.228-.148.122a4.243 4.243 0 0 0 .912 3.092 7.049 7.049 0 0 0 1.985 1.731 15.275 15.275 0 0 0 1.591.822 3.149 3.149 0 0 0 .587.235z" fill="#fafafa"/><path data-name="Path 7881" d="M236.903 3177.183c0-.048-.817-.435-2.068-1.22a7.239 7.239 0 0 1-1.893-1.724 4.089 4.089 0 0 1-.843-2.9c.138-.106-.186.138-.149.117h.2a.436.436 0 0 1 .2.032c.064.032.265.058.4.1a5.255 5.255 0 0 1 .753.26 5.527 5.527 0 0 1 1.284.78 5.437 5.437 0 0 1 1.538 2.015 7.255 7.255 0 0 1 .53 2.312 1.968 1.968 0 0 0 .037-.652 5.3 5.3 0 0 0-.387-1.734 5.431 5.431 0 0 0-1.559-2.122 5.361 5.361 0 0 0-1.337-.827 4.925 4.925 0 0 0-.785-.281c-.138-.037-.276-.074-.419-.1l-.212-.037h-.212l-.154.117a4.243 4.243 0 0 0 .912 3.092 7.006 7.006 0 0 0 1.994 1.734 15.008 15.008 0 0 0 1.591.817 3.052 3.052 0 0 0 .578.223z" fill="#fafafa"/><path data-name="Path 7888" d="M223.956 3139.956a24.838 24.838 0 0 0 13.259-2.6s-3.755 6.656-13.445 5.092z" fill="#eb996e"/><path data-name="Path 7917" d="M231.722 3211.265l-4.588 2.307a27.794 27.794 0 0 0-5.473-2.047c-1.819-.265-9.648.743-9.648.743a1.968 1.968 0 0 0 1.358 2.121 31.617 31.617 0 0 0 4.556-.026 1.941 1.941 0 0 1-.53 3.262c-1.962.811-4.243 1.771-4.508 1.946s-3.119-.329-5.214-.748a1.3 1.3 0 0 0-1.188 2.185.6.6 0 0 0 .318.159s-1.883 1.13 1.368 2.546c0 0 1.1 2.535 3.134 2.71 0 0 2.376 2.387 3.861 2.779s11.137-3.293 11.137-3.293l9.388-4.869z" fill="#ffbe9d"/><path data-name="Path 7919" d="M218.34 3220.722a6.238 6.238 0 0 1-1.49 1.018 9.548 9.548 0 0 1-4.174 1.374 8.842 8.842 0 0 1-4.243-1.114 5.987 5.987 0 0 1-1.538-.955 8.262 8.262 0 0 1 1.676.652 9.792 9.792 0 0 0 4.094.949 10.851 10.851 0 0 0 4.036-1.2 7.654 7.654 0 0 1 1.639-.727z" fill="#eb996e"/><path data-name="Path 7920" d="M218.744 3223.251c.042.048-.414.53-1.315 1.008a11.235 11.235 0 0 1-1.639.748 5.586 5.586 0 0 1-2.206.424 9.891 9.891 0 0 1-2.169-.493l-1.681-.557a5.606 5.606 0 0 1-1.522-.626 5.875 5.875 0 0 1 1.591.308q.732.183 1.718.461a11.2 11.2 0 0 0 2.074.44 5.734 5.734 0 0 0 2.037-.361 16.876 16.876 0 0 0 1.628-.642c.933-.407 1.442-.763 1.484-.71z" fill="#eb996e"/><path data-name="Path 7921" d="M218.967 3226.211c.074.17-1.644.833-3.76 1.5a1.814 1.814 0 0 1-.918.027 6.233 6.233 0 0 1-.764-.17 7.34 7.34 0 0 1-1.23-.461c-.674-.324-1.018-.652-.981-.7a5.9 5.9 0 0 1 1.108.4 12.025 12.025 0 0 0 1.209.345 6.276 6.276 0 0 0 .727.138 1.506 1.506 0 0 0 .695 0c1.061-.345 2.047-.61 2.753-.8a4.62 4.62 0 0 1 1.161-.279z" fill="#eb996e"/><path data-name="Path 7922" d="M259.312 3151.953s5.383 3.453 8.613 13.037c2.731 8.136 8.438 21.268 10.316 30.624 1.374 6.815-1.851 14.882-10.337 17.184l-32.194 9.674-4.911-12.082 28.874-14.675-7.918-18.033z" fill="#ff725e"/><path data-name="Path 7923" d="M270.763 3211.711a.834.834 0 0 0-.18.042l-.53.143-1.994.589-7.383 2.222-25.028 7.637.164.074-3.129-7.69a1189.26 1189.26 0 0 1-1.793-4.392l-.064.175c6.057-2.986 11.642-5.892 16.532-8.433s9.112-4.683 12.352-6.3a6.11 6.11 0 0 1 3.219.233 6.932 6.932 0 0 1 2.122 1.188 6.464 6.464 0 0 1 .663.578 4.911 4.911 0 0 1 .446.467l.265.292c.058.064.1.1.1.09s0-.037-.08-.106l-.249-.308a4.561 4.561 0 0 0-.435-.477 5.747 5.747 0 0 0-.652-.6 6.9 6.9 0 0 0-2.121-1.236 6.216 6.216 0 0 0-3.3-.276c-3.256 1.591-7.484 3.713-12.39 6.237s-10.5 5.4-16.532 8.391l-.117.058.048.117 1.787 4.392 3.1 7.706.048.111.117-.032 25.007-7.728 7.362-2.3 1.973-.631.53-.17z" fill="#263238"/><path data-name="Path 7924" d="M250.392 3168.077a1.061 1.061 0 0 0-.1.286 5.655 5.655 0 0 0-.18.843 10.708 10.708 0 0 0 0 3.182 20.827 20.827 0 0 0 1.246 4.54c.636 1.655 1.448 3.421 2.27 5.3 1.66 3.713 3.182 7.059 4.275 9.547l1.321 2.875c.154.313.276.573.377.774a1.783 1.783 0 0 0 .143.265.986.986 0 0 0-.1-.286l-.324-.8c-.308-.727-.732-1.708-1.246-2.912-1.061-2.477-2.562-5.834-4.2-9.547-.822-1.867-1.644-3.628-2.291-5.267a21.278 21.278 0 0 1-1.294-4.508 11.615 11.615 0 0 1-.08-3.129c.032-.371.1-.652.127-.849a1.527 1.527 0 0 0 .056-.314z" fill="#263238"/><path data-name="Path 7925" d="M264.892 3172.325c-.042 0-.122.642-.313 1.671a30.716 30.716 0 0 1-1 3.957 30.1 30.1 0 0 1-1.533 3.782 15.964 15.964 0 0 0-.732 1.533 3.474 3.474 0 0 0 .276-.366c.164-.244.382-.61.631-1.061a23.241 23.241 0 0 0 2.551-7.8c.069-.53.111-.949.122-1.241a1.358 1.358 0 0 0-.002-.475z" fill="#fafafa"/><path data-name="Path 7926" d="M262.908 3179.14a15.314 15.314 0 0 1-.817-1.459 6.508 6.508 0 0 1-.382-3.962l.032-.133-.249.048a7.712 7.712 0 0 1 1.384 3.67c.106 1.013 0 1.644.048 1.649a1.4 1.4 0 0 0 .1-.44 5.982 5.982 0 0 0 .042-1.225 7.425 7.425 0 0 0-1.347-3.819l-.18-.249-.069.3-.032.143a6.28 6.28 0 0 0 .477 4.1 5.305 5.305 0 0 0 .668 1.061c.187.215.309.327.325.316z" fill="#fafafa"/><path data-name="Path 7927" d="M264.515 3177.073a1.406 1.406 0 0 0 .467-.164 8.185 8.185 0 0 0 1.172-.652 9.509 9.509 0 0 0 1.538-1.284 9.373 9.373 0 0 0 .769-.9 5.124 5.124 0 0 0 .355-.53.875.875 0 0 0 .1-.732.472.472 0 0 0-.345-.265.668.668 0 0 0-.387.048 3.074 3.074 0 0 0-.53.35 8.671 8.671 0 0 0-.9.769 8.9 8.9 0 0 0-1.273 1.543 7.472 7.472 0 0 0-.642 1.183 1.416 1.416 0 0 0-.159.472c.048 0 .313-.631.96-1.543a9.663 9.663 0 0 1 1.289-1.469 9.452 9.452 0 0 1 .886-.737 3.037 3.037 0 0 1 .493-.313c.175-.074.324-.042.382.08a.637.637 0 0 1-.09.488 5.3 5.3 0 0 1-.329.493 10 10 0 0 1-2.222 2.185c-.908.659-1.555.935-1.534.978z" fill="#fafafa"/><path data-name="Path 7928" d="M263.799 3181.521a1.114 1.114 0 0 0 .387.133 4.614 4.614 0 0 0 1.108.1 5.113 5.113 0 0 0 3.368-1.448l.17-.164-.228-.064-.361-.1a5.187 5.187 0 0 0-3.851.647 4.466 4.466 0 0 0-.928.769c-.191.212-.276.345-.26.355a10.161 10.161 0 0 1 1.289-.944 5.3 5.3 0 0 1 3.686-.53l.345.1-.058-.228a5.155 5.155 0 0 1-3.182 1.448 11.786 11.786 0 0 1-1.485-.069z" fill="#fafafa"/><path data-name="Path 7929" d="M261.031 3208.9a2.58 2.58 0 0 0-.408-.212c-.27-.117-.668-.281-1.162-.451a23.246 23.246 0 0 0-8.109-1.252 10.856 10.856 0 0 0-1.246.08 1.751 1.751 0 0 0-.451.08 13.858 13.858 0 0 0 1.7.037 31.018 31.018 0 0 1 4.068.339 31.723 31.723 0 0 1 3.978.9 15.01 15.01 0 0 0 1.63.479z" fill="#fafafa"/><path data-name="Path 7930" d="M254.035 3207.59a1.634 1.634 0 0 0 .149.44 5.464 5.464 0 0 0 .652 1.061 6.264 6.264 0 0 0 3.447 2.275l.138.037.3.074-.143-.27a7.394 7.394 0 0 0-2.8-2.928 5.831 5.831 0 0 0-1.114-.53 1.325 1.325 0 0 0-.435-.106c0 .048.589.239 1.448.79a7.77 7.77 0 0 1 2.652 2.891l.148-.2-.133-.032a6.492 6.492 0 0 1-3.357-2.122 15.312 15.312 0 0 1-.952-1.38z" fill="#fafafa"/><path data-name="Path 7931" d="M256.608 3207.091c.032.042.568-.414 1.591-.923a10.162 10.162 0 0 1 1.771-.716 8.937 8.937 0 0 1 1.124-.255 4.776 4.776 0 0 1 .594-.074.61.61 0 0 1 .472.143c.085.106.042.249-.1.371a2.817 2.817 0 0 1-.5.3 9.59 9.59 0 0 1-1.061.461 9.739 9.739 0 0 1-1.893.483c-1.1.17-1.8.111-1.809.164a1.661 1.661 0 0 0 .493.069 7.579 7.579 0 0 0 1.342-.037 8.911 8.911 0 0 0 1.952-.44 9.458 9.458 0 0 0 1.1-.456 2.975 2.975 0 0 0 .53-.334.7.7 0 0 0 .223-.324.472.472 0 0 0-.085-.424.864.864 0 0 0-.695-.249 5.535 5.535 0 0 0-.631.08 9.014 9.014 0 0 0-1.156.281 9.238 9.238 0 0 0-1.835.79 7.687 7.687 0 0 0-1.119.753 1.508 1.508 0 0 0-.308.339z" fill="#fafafa"/><path data-name="Path 7932" d="M252.316 3205.717a11.411 11.411 0 0 1 .636-1.337 5.161 5.161 0 0 1 2.731-2.19l-.18-.154a1.772 1.772 0 0 1-.069.35 5.3 5.3 0 0 1-2.153 3.039 10.744 10.744 0 0 1-1.427.732 1.31 1.31 0 0 0 .435-.074 4.662 4.662 0 0 0 1.1-.493 5.219 5.219 0 0 0 2.339-3.14 1.66 1.66 0 0 1 .074-.366l.042-.228-.223.074a5.086 5.086 0 0 0-2.811 2.355 4.11 4.11 0 0 0-.414 1.029 1.008 1.008 0 0 0-.08.403z" fill="#fafafa"/><path data-name="Path 7933" d="M255.398 3174.319a7.424 7.424 0 0 1-.53-1.411 4.2 4.2 0 0 1 .748-3.4h-.212l.042.048a3.3 3.3 0 0 1 .636 3.384 8.142 8.142 0 0 1-.679 1.374 2.88 2.88 0 0 0 .854-1.3 3.4 3.4 0 0 0 .255-1.7 3.559 3.559 0 0 0-.87-1.931l-.042-.053-.111-.122-.1.133a4.041 4.041 0 0 0-.811 1.925 4.243 4.243 0 0 0 .1 1.7 3.506 3.506 0 0 0 .456 1.061c.147.197.253.303.264.292z" fill="#fafafa"/><path data-name="Path 7934" d="M243.618 3213.276a7 7 0 0 1-.53-1.411 4.179 4.179 0 0 1 .743-3.421h-.212l.042.048a3.3 3.3 0 0 1 .636 3.384 8.141 8.141 0 0 1-.679 1.374 2.88 2.88 0 0 0 .865-1.31 3.4 3.4 0 0 0 .255-1.7 3.559 3.559 0 0 0-.87-1.931l-.042-.053-.111-.122-.1.133a4.042 4.042 0 0 0-.811 1.925 4.169 4.169 0 0 0 .1 1.7 3.505 3.505 0 0 0 .456 1.061c.141.227.247.333.258.323z" fill="#fafafa"/><path data-name="Path 7935" d="M272.364 3194.59c.027-.048-.817-.435-2.068-1.225a7.117 7.117 0 0 1-1.893-1.718 4.089 4.089 0 0 1-.843-2.9c.138-.106-.186.138-.149.117h.2a.447.447 0 0 1 .2.032l.4.09a6.027 6.027 0 0 1 .753.265 5.527 5.527 0 0 1 1.284.78 5.436 5.436 0 0 1 1.538 2.015 7.256 7.256 0 0 1 .53 2.312 1.994 1.994 0 0 0 .037-.652 5.261 5.261 0 0 0-.387-1.734 5.431 5.431 0 0 0-1.559-2.122 5.5 5.5 0 0 0-2.122-1.108c-.138-.037-.276-.074-.419-.1l-.212-.037h-.216l-.154.117a4.243 4.243 0 0 0 .912 3.092 7.007 7.007 0 0 0 1.994 1.734 15.014 15.014 0 0 0 1.591.817 3.052 3.052 0 0 0 .583.225z" fill="#fafafa"/><g data-name="Group 619"><path data-name="Path 7837" d="M208.062 3125.234a4.742 4.742 0 1 0-3.983 6.964c2.339-.1 4.243-1.867 5.834-3.58" fill="#263238"/><path data-name="Path 7838" d="M209.93 3124.362a.971.971 0 0 0-1.146-.764 1.443 1.443 0 0 0-1.024 1.061 2.917 2.917 0 0 0 .064 1.522 6.237 6.237 0 0 0 1.061 2.121c.334.435.865.865 1.374.668s.621-.928.567-1.5a10.109 10.109 0 0 0-1.1-3.713" fill="#ff725e"/><path data-name="Path 7839" d="M223.119 3103.589a26.257 26.257 0 0 1 9.732-8.868 17.158 17.158 0 0 1 12.92-1.188 12.825 12.825 0 0 1 8.56 9.377c.652 3.458.09 8.836 2.652 11.223 5.3 4.879 4.487 14.124 1.379 19.406 0 0-4.81 5.834.382 11.2 0 0 3.06 2.169 1.527 8.051-2.387 9.181 8.067 14.283 1.745 12.851l-21.125-2.328-2.36-23.936" fill="#263238"/><path data-name="Path 7840" d="M210.661 3116.514a4.969 4.969 0 0 0-1.665 4.418 26.4 26.4 0 0 0 1.151 4.773 7.531 7.531 0 0 1 0 4.842c-1.061 2.6-4.079 3.66-6.364 5.3a12.787 12.787 0 0 0-5.251 11.292 8.433 8.433 0 0 1-.069 3.787c-.53 1.358-1.915 2.169-2.758 3.357a6.5 6.5 0 0 0-.106 6.513 19.215 19.215 0 0 0 4.381 5.208 113.1 113.1 0 0 1 25.84-16.871" fill="#263238"/><path data-name="Path 7841" d="M207.728 3126.544a11.442 11.442 0 0 1-1.352.1 8.486 8.486 0 0 0-3.14.753 4.8 4.8 0 0 0-2.233 2.2 6.847 6.847 0 0 0-.382 1.278.8.8 0 0 1 0-.366 3.219 3.219 0 0 1 .228-.986 4.689 4.689 0 0 1 2.291-2.376 7.669 7.669 0 0 1 3.23-.7 4.476 4.476 0 0 1 1.358.097z" fill="#455a64"/><path data-name="Path 7882" d="M249.012 3111.066c-.764-5.834-6.174-12.2-17.587-9.547l-11.217 3.633a3.437 3.437 0 0 0-2.832 3.681l2.163 36.105a10.417 10.417 0 0 0 10.369 9.43 10.411 10.411 0 0 0 10.4-10.884c.244-.861-.821-1.233 1.586-1.547s7.388-1.74 8.279-11.589c.454-4.882-.317-12.816-1.161-19.282z" fill="#ffbe9d"/><path data-name="Path 7883" d="M246.111 3117.782a1.252 1.252 0 0 1-1.124 1.342 1.2 1.2 0 0 1-1.363-1.061 1.252 1.252 0 0 1 1.119-1.342 1.2 1.2 0 0 1 1.368 1.061z" fill="#263238"/><path data-name="Path 7884" d="M247.787 3116.09c-.143.17-1.135-.467-2.482-.371s-2.286.833-2.44.679c-.08-.069.058-.377.467-.716a3.447 3.447 0 0 1 1.941-.743 3.288 3.288 0 0 1 1.994.5c.43.285.589.598.52.651z" fill="#263238"/><path data-name="Path 7885" d="M233.239 3118.451a1.252 1.252 0 0 1-1.124 1.342 1.2 1.2 0 0 1-1.363-1.061 1.252 1.252 0 0 1 1.123-1.343 1.2 1.2 0 0 1 1.368 1.061z" fill="#263238"/><path data-name="Path 7886" d="M234.459 3116.811c-.143.175-1.14-.461-2.482-.371s-2.286.833-2.44.679c-.08-.069.058-.371.467-.716a3.447 3.447 0 0 1 1.941-.743 3.326 3.326 0 0 1 1.994.5c.427.29.589.571.52.651z" fill="#263238"/><path data-name="Path 7887" d="M239.912 3126.114a8.661 8.661 0 0 1 2.159-.53c.339-.058.658-.149.7-.387a1.729 1.729 0 0 0-.3-1l-1.188-2.551a44.764 44.764 0 0 1-2.742-6.688 47.606 47.606 0 0 1 3.272 6.455c.4.9.785 1.75 1.151 2.567a1.989 1.989 0 0 1 .265 1.337.843.843 0 0 1-.53.53 2.217 2.217 0 0 1-.578.122 10.684 10.684 0 0 1-2.209.145z" fill="#263238"/><path data-name="Path 7889" d="M239.556 3129.381a2.429 2.429 0 0 0-2.233-.753 2.222 2.222 0 0 0-1.474.923 1.405 1.405 0 0 0 0 1.591 1.623 1.623 0 0 0 1.793.329 5.065 5.065 0 0 0 1.66-1.114 1.5 1.5 0 0 0 .355-.424.456.456 0 0 0-.032-.5" fill="#eb996e"/><path data-name="Path 7890" d="M236.013 3127.297c.217 0 .318 1.432 1.639 2.387s2.859.689 2.885.891c0 .09-.329.308-.981.366a3.628 3.628 0 0 1-2.408-.658 3.182 3.182 0 0 1-1.278-2.01c-.096-.606.042-.976.143-.976z" fill="#263238"/><path data-name="Path 7891" d="M234.47 3113.072c-.106.371-1.459.292-3.023.589s-2.816.811-3.044.493c-.106-.149.09-.53.583-.9a5.341 5.341 0 0 1 4.625-.827c.594.199.917.464.859.645z" fill="#263238"/><path data-name="Path 7892" d="M247.15 3112.944c-.217.318-1.161.064-2.281.122s-2.042.345-2.281.042c-.106-.149 0-.467.414-.785a3.3 3.3 0 0 1 3.675-.133c.42.291.579.591.473.754z" fill="#263238"/><path data-name="Path 7893" d="M228.858 3102.249c1.83 2.938 6.863 2.5 10.316 2.753.827.064 1.66.032 2.477.154a3.713 3.713 0 0 1 2.2 1.061c.753.806.859 1.941 1.284 2.928a5.463 5.463 0 0 0 4.726 3.267 1.594 1.594 0 0 0 1.506-.626 1.782 1.782 0 0 0 .037-1.14 23.069 23.069 0 0 0-2.371-7.383 11.785 11.785 0 0 0-6.895-5.256c-2.837-.78-9.732-.371-12.347 1.061" fill="#263238"/><path data-name="Path 7894" d="M228.46 3098.476a12.07 12.07 0 0 1-.318 15.153c-2.079 2.339-5.3 4.317-5.256 7.425.069 3.463 4.3 5.664 4.63 9.117.345 3.548-3.538 6.195-4.01 9.732-.377 2.843 1.549 5.479 3.676 7.425s4.625 3.58 6.03 6.083a11.671 11.671 0 0 1 .53 9.213 29.2 29.2 0 0 1-4.662 8.221 36.181 36.181 0 0 0-9.016-1.13l.244-3.469a3.166 3.166 0 0 1-2.031 3.113 8.427 8.427 0 0 1-3.935.419 64.136 64.136 0 0 1-12.082-1.915 21.3 21.3 0 0 0 3.8-5.792 7.131 7.131 0 0 0-.53-6.662c-1.093-1.512-2.928-2.381-3.951-3.941-1.527-2.339-.753-5.574.9-7.834s4.02-3.866 6.052-5.786 3.835-4.434 3.75-7.229c-.111-3.628-3.341-6.64-3.32-10.273 0-4.132 4.116-7.043 5.463-10.952.971-2.832.53-5.765 2.217-8.247a7.526 7.526 0 0 1 5.688-3.31c2.212-.1 4.153-.339 6.142.636" fill="#263238"/><path data-name="Path 7895" d="M230.43 3103.504a1.294 1.294 0 0 1 0 .329 6.635 6.635 0 0 1-.127.928 11.382 11.382 0 0 1-1.135 3.257 12.554 12.554 0 0 1-3.238 3.956 11.465 11.465 0 0 1-2.583 1.591 19.4 19.4 0 0 1-3.1 1 11.282 11.282 0 0 0-2.975 1.135 4.773 4.773 0 0 0-1.9 2.18c-.764 1.734-.88 3.511-1.48 4.869a6.693 6.693 0 0 1-1.024 1.692 3.957 3.957 0 0 1-1.167.939 2.779 2.779 0 0 1-.907.276 1.2 1.2 0 0 1-.329 0 3.606 3.606 0 0 0 1.183-.377 3.93 3.93 0 0 0 1.1-.944 6.523 6.523 0 0 0 .965-1.665c.562-1.326.652-3.1 1.427-4.9a5.039 5.039 0 0 1 1.973-2.265 11.266 11.266 0 0 1 3.05-1.172 20.19 20.19 0 0 0 3.055-.986 11.4 11.4 0 0 0 2.535-1.554 12.634 12.634 0 0 0 3.225-3.85 12.013 12.013 0 0 0 1.2-3.182c.186-.806.223-1.257.252-1.257z" fill="#455a64"/><path data-name="Path 7896" d="M256.151 3113.592a2.9 2.9 0 0 0-.419-.424 2.445 2.445 0 0 0-1.538-.387c-.339 0-.721.058-1.135.09a9.314 9.314 0 0 1-1.331 0 9.112 9.112 0 0 1-2.954-.748 8.921 8.921 0 0 1-4.079-3.644 8.216 8.216 0 0 1-.689-1.522 1.936 1.936 0 0 1-.148-.594 18.819 18.819 0 0 0 1.008 2.015 9.138 9.138 0 0 0 4.02 3.5 9.3 9.3 0 0 0 2.864.743 9.775 9.775 0 0 0 1.294.032c.408 0 .8-.058 1.151-.058a2.445 2.445 0 0 1 1.591.5 1.294 1.294 0 0 1 .3.355c.06.084.07.137.065.142z" fill="#455a64"/><path data-name="Path 7897" d="M254.507 3106.251a1.136 1.136 0 0 1-.308 0 6.084 6.084 0 0 1-.875-.133 6.364 6.364 0 0 1-2.853-1.538 6.6 6.6 0 0 1-1.358-1.8c-.382-.721-.689-1.527-1.061-2.339a6.709 6.709 0 0 0-1.591-2.259 6.364 6.364 0 0 0-2.62-1.363 10.125 10.125 0 0 0-5.712.382 37.313 37.313 0 0 0-4.4 1.867 31.954 31.954 0 0 1-2.97 1.31c-.361.133-.642.223-.838.281a1.151 1.151 0 0 1-.3.074 1.172 1.172 0 0 1 .281-.127l.817-.329c.7-.3 1.7-.764 2.917-1.384a34.4 34.4 0 0 1 4.4-1.957 10.188 10.188 0 0 1 5.861-.408 6.64 6.64 0 0 1 2.731 1.421 6.964 6.964 0 0 1 1.634 2.36c.382.827.684 1.628 1.061 2.339a6.4 6.4 0 0 0 1.284 1.771 6.492 6.492 0 0 0 2.747 1.591c.729.209 1.158.209 1.153.241z" fill="#455a64"/><path data-name="Path 7898" d="M216.776 3104.3a2.079 2.079 0 0 1 .133-.573 6.619 6.619 0 0 1 .705-1.453 7.038 7.038 0 0 1 9.441-2.381 6.423 6.423 0 0 1 1.31.944 1.952 1.952 0 0 1 .392.446 11.413 11.413 0 0 0-1.793-1.215 7.07 7.07 0 0 0-9.191 2.318 11.807 11.807 0 0 0-.997 1.914z" fill="#455a64"/><path data-name="Path 7899" d="M209.707 3168.279a2.763 2.763 0 0 0 .642-.111 4.01 4.01 0 0 0 1.649-.8 5.574 5.574 0 0 0 1.7-2.339 5.94 5.94 0 0 0 .408-1.793 7.685 7.685 0 0 0-.154-2.031 13.933 13.933 0 0 0-1.862-4.312c-.886-1.453-1.994-2.906-2.959-4.582a14.13 14.13 0 0 1-1.225-2.71 10.178 10.178 0 0 1-.461-3.071 11.276 11.276 0 0 1 1.915-6.168 10.694 10.694 0 0 1 2.249-2.434 17.742 17.742 0 0 1 2.763-1.634 14.073 14.073 0 0 0 2.588-1.591 5.654 5.654 0 0 0 1.655-2.328 10.655 10.655 0 0 0 .313-5.3c-.26-1.681-.642-3.235-.79-4.689a12.072 12.072 0 0 1 .191-3.93 8.231 8.231 0 0 1 1.061-2.763 3.819 3.819 0 0 1 1.347-1.321 1.926 1.926 0 0 1 .446-.191.6.6 0 0 1 .164-.048 3.164 3.164 0 0 0-.583.286 3.9 3.9 0 0 0-1.284 1.31 8.375 8.375 0 0 0-1.018 2.737 12.146 12.146 0 0 0-.143 3.877c.154 1.437.53 2.981.822 4.673a10.878 10.878 0 0 1-.3 5.463 5.914 5.914 0 0 1-1.729 2.429 14.519 14.519 0 0 1-2.652 1.644 16.57 16.57 0 0 0-2.7 1.628 10.38 10.38 0 0 0-2.159 2.36 11.021 11.021 0 0 0-1.872 6.014 10.008 10.008 0 0 0 .44 2.991 13.731 13.731 0 0 0 1.2 2.652c.944 1.66 2.047 3.119 2.933 4.593a13.991 13.991 0 0 1 1.856 4.386 8.088 8.088 0 0 1 .138 2.09 6.025 6.025 0 0 1-.44 1.814 5.632 5.632 0 0 1-1.787 2.4 3.941 3.941 0 0 1-1.708.769 2.746 2.746 0 0 1-.654.03z" fill="#455a64"/><path data-name="Path 7900" d="M252.173 3152.229a3.834 3.834 0 0 0 .9-1.4 6.576 6.576 0 0 0-.366-4.46c-.334-.907-.8-1.878-1.135-2.986a7.834 7.834 0 0 1-.329-1.766v-.949a6.119 6.119 0 0 1 .17-.955 11.668 11.668 0 0 1 1.771-3.66c.79-1.172 1.7-2.307 2.54-3.527a11.668 11.668 0 0 0 1.878-3.829 5.871 5.871 0 0 0-.419-3.861 14.177 14.177 0 0 0-2.015-3.007c-.721-.88-1.443-1.681-1.994-2.493a10.5 10.5 0 0 1-1.246-2.334 5.946 5.946 0 0 1-.387-1.962 4.307 4.307 0 0 1 .17-1.252 2.311 2.311 0 0 1 .159-.408 5.351 5.351 0 0 0-.217 1.66 6.057 6.057 0 0 0 .419 1.909 10.893 10.893 0 0 0 1.262 2.275c.53.79 1.278 1.591 2.01 2.461a13.954 13.954 0 0 1 2.074 3.044 6.11 6.11 0 0 1 .446 4.026 11.711 11.711 0 0 1-1.915 3.93c-.843 1.225-1.756 2.36-2.535 3.516a11.557 11.557 0 0 0-1.75 3.569c-.058.313-.138.615-.17.923s0 .61-.032.907a7.569 7.569 0 0 0 .308 1.718c.324 1.087.769 2.063 1.1 2.986a6.6 6.6 0 0 1 .281 4.561 3.082 3.082 0 0 1-.668 1.061 1.967 1.967 0 0 1-.239.223.481.481 0 0 1-.071.08z" fill="#455a64"/><path data-name="Path 7901" d="M197.624 3161.854a1.517 1.517 0 0 1-.207-.435 2.949 2.949 0 0 1-.08-1.395 5.214 5.214 0 0 1 .854-2.031c.467-.721 1.124-1.453 1.671-2.371a6.762 6.762 0 0 0 .859-3.32 30.231 30.231 0 0 0-.3-4.01 11.944 11.944 0 0 1 .18-4.487 9.483 9.483 0 0 1 2.519-4.095 38.559 38.559 0 0 1 3.654-3.129 31.956 31.956 0 0 0 3.352-2.954 16.124 16.124 0 0 0 4.073-6.237 12.3 12.3 0 0 0 .53-2.827 14.2 14.2 0 0 0-.042-2.18c-.032-.3-.058-.557-.085-.79s-.064-.419-.09-.578l-.053-.361a.424.424 0 0 1 0-.122.424.424 0 0 1 .042.122l.08.355c.032.159.074.35.117.573s.074.5.111.8a13.79 13.79 0 0 1 .09 2.2 12.315 12.315 0 0 1-.5 2.875 16.216 16.216 0 0 1-4.073 6.365 31.184 31.184 0 0 1-3.341 2.986 40.111 40.111 0 0 0-3.66 3.1 9.276 9.276 0 0 0-2.461 3.978 11.817 11.817 0 0 0-.186 4.386 31.075 31.075 0 0 1 .276 4.047 7.028 7.028 0 0 1-.9 3.41c-.573.933-1.241 1.649-1.713 2.36a5.256 5.256 0 0 0-.875 1.962 2.944 2.944 0 0 0 .027 1.358c.062.298.147.445.131.445z" fill="#455a64"/><path data-name="Path 7902" d="M224.981 3170.522a12.731 12.731 0 0 0 1.246-2.068 10.607 10.607 0 0 0 .822-2.694 10.13 10.13 0 0 0-1.925-7.823 44.017 44.017 0 0 0-3.437-3.935 16.3 16.3 0 0 1-3.3-4.773 7.685 7.685 0 0 1-.626-3.034 6.465 6.465 0 0 1 .838-3.076c1.061-1.893 2.652-3.315 3.713-4.986a7.388 7.388 0 0 0 1.135-2.652 8.438 8.438 0 0 0 .032-2.779 18.446 18.446 0 0 0-1.591-4.932 42.832 42.832 0 0 1-1.777-4.243 8.937 8.937 0 0 1 0-6.524 4.991 4.991 0 0 1 .971-1.5 3.24 3.24 0 0 1 .467-.424s-.154.154-.424.461a5.2 5.2 0 0 0-.918 1.522 9 9 0 0 0 .1 6.418 44.609 44.609 0 0 0 1.8 4.19 18.409 18.409 0 0 1 1.66 4.991 8.7 8.7 0 0 1-.032 2.869 7.537 7.537 0 0 1-1.162 2.752c-1.1 1.708-2.678 3.129-3.713 4.97a6.258 6.258 0 0 0-.811 2.949 7.627 7.627 0 0 0 .573 2.928 16.219 16.219 0 0 0 3.235 4.715 42.364 42.364 0 0 1 3.437 3.972 10.293 10.293 0 0 1 1 10.682 9.234 9.234 0 0 1-.939 1.538l-.3.366z" fill="#455a64"/></g></g><g data-name="Group 1717" transform="translate(139 2974.135)"><path data-name="Rectangle 882" fill="#fec786" d="M42.957 245.586h159.656v13.906H42.957z"/><path data-name="Path 11346" d="M184.157 254.505H50.503a.68.68 0 0 1-.682-.68.682.682 0 0 1 .682-.682h133.654a.682.682 0 0 1 .682.682.682.682 0 0 1-.682.68z" fill="#fff"/><path data-name="Path 11347" d="M123.578 254.505H50.503a.68.68 0 0 1-.682-.68.682.682 0 0 1 .682-.682h73.075a.682.682 0 0 1 .682.682.68.68 0 0 1-.682.68z" fill="#ef3a4c"/><ellipse data-name="Ellipse 119" cx="1.321" cy="1.321" rx="1.321" ry="1.321" transform="translate(122.608 252.504)" fill="#d82540"/><path data-name="Rectangle 883" fill="#ef3a4c" d="M189.489 250.736h1.102v6.385h-1.102z"/><path data-name="Rectangle 884" fill="#ef3a4c" d="M192.461 250.736h1.102v6.385h-1.102z"/></g></g></svg>