<svg xmlns="http://www.w3.org/2000/svg" width="751.871" height="549.254"><g data-name="Group 665"><ellipse cx="375.935" cy="21.948" rx="375.935" ry="21.948" transform="translate(0 505.358)" fill="#f5f5f5"/><path data-name="Rectangle 683" fill="#407bff" d="M647.615 110.227h1.939v10.683h-1.939z"/><path data-name="Rectangle 684" fill="#407bff" d="M647.615 69.2h1.939v31.876h-1.939z"/><path data-name="Path 8927" d="M619.501 0H323.72a23.267 23.267 0 0 0-23.267 23.267v97.43l-32.166 32.167 32.167 32.186v196.256a23.267 23.267 0 0 0 23.267 23.267h295.78a23.267 23.267 0 0 0 23.267-23.267V23.267A23.267 23.267 0 0 0 619.501 0z" fill="#016ca4"/><path data-name="Path 8928" d="M433.346 404.573h-76.8L434.199 0h76.8z" fill="#fff" opacity=".1"/><path data-name="Path 8929" d="M492.19 404.573h-27.55L542.274 0h27.552z" fill="#fff" opacity=".1"/><path data-name="Path 8930" d="M493.414 93.281a30.228 30.228 0 1 0-60.455 0v49.384l60.455-21.968z" fill="#263238"/><path data-name="Path 8931" d="M438.31 166.591l-2.811 56.985-.31 7.232a43.707 43.707 0 0 1-1.357 8.376 89.613 89.613 0 0 1-5.216 14.5 164.593 164.593 0 0 1-14.6 25.671l-7-3.878c3.587-8.628 7.116-17.45 9.83-26.214a96.755 96.755 0 0 0 3.238-12.913 33.643 33.643 0 0 0 .485-5.817l-.116-7.1q-.136-14.484.31-28.909c.252-9.695.679-19.2 1.357-28.832z" fill="#ffb573"/><path data-name="Path 8932" d="M427.277 147.26c-6.554 1.667-11.129 28.58-11.129 28.58l18.032 12.273s17.276-27.145 12.254-34.357c-5.235-7.504-9.617-8.881-19.157-6.496z" fill="#263238"/><path data-name="Path 8933" d="M427.859 153.271l-5.022 27.125 10.121 6.883z" opacity=".2"/><path data-name="Path 8934" d="M406.961 275.403l-4.537 13.669 15.2-5.468s1.59-10.063-3.645-14.057l-1.474.582a8.046 8.046 0 0 0-5.544 5.274z" fill="#ffb573"/><path data-name="Path 8935" d="M404.689 300.666l13.282-2.6-.291-14.464-15.2 5.468z" fill="#ffb573"/><path data-name="Path 8936" d="M427.28 147.26s-7.581 2.656 7.581 95.8h64.469c-1.086-26.233-1.105-42.423 11.42-96.267a188.476 188.476 0 0 0-27.377-3.606 204.7 204.7 0 0 0-29.278 0c-12.566 1.146-26.815 4.073-26.815 4.073z" fill="#263238"/><path data-name="Path 8937" d="M446.24 214.773h15.977l-11.072-31.507h-15.957z" opacity=".7"/><path data-name="Path 8938" d="M445.154 214.773h15.977l-11.071-31.507h-15.977z" fill="#016ca4"/><path data-name="Path 8939" d="M480.482 110.227c-1.842 9.423-3.7 26.679 2.889 32.961 0 0-2.559 9.559-20.068 9.559-19.253 0-9.21-9.559-9.21-9.559 10.509-2.5 10.237-10.3 8.415-17.625z" fill="#ffb573"/><path data-name="Path 8940" d="M473.153 116.49l-10.645 9a28.929 28.929 0 0 1 .911 5.2c4.013-.582 9.52-4.983 9.947-9.19a13.9 13.9 0 0 0-.213-5.01z" opacity=".2"/><path data-name="Path 8941" d="M483.218 86.708c1.939 15.628 3.063 22.2-3.277 31.585-9.539 14.115-29.084 13.049-35.715-1.706-5.817-13.282-8.027-36.626 5.972-45.584a21.483 21.483 0 0 1 33.02 15.705z" fill="#ffb573"/><path data-name="Path 8942" d="M444.98 74.804c-.1.33 23.267 25.206 39.748 23.17 3.451-5.177 1.842-21.444-4.4-24.9s-15.511-8.3-21.774-7.213-13.574 8.943-13.574 8.943z" fill="#263238"/><path data-name="Path 8943" d="M434.859 243.062s-18.71 54.289-9.481 161.511h53.979c3.878-58.167 2.714-161.511 2.714-161.511z" fill="#fff"/><path data-name="Path 8944" d="M499.328 243.062h-46.631s11.81 108.443 19.389 161.511h48.279c5.742-135.025-21.037-161.511-21.037-161.511z" fill="#fff"/><path data-name="Path 8945" d="M461.791 404.575s-4.634-69.956.969-88.918c5.487 28.229 21.328 88.918 21.328 88.918z" fill="#f5f5f5"/><path data-name="Path 8946" d="M459.308 95.433c.233 1.26-.252 2.4-1.066 2.559s-1.687-.756-1.939-1.939.252-2.4 1.066-2.559 1.726.679 1.939 1.939z" fill="#263238"/><path data-name="Path 8947" d="M445.096 98.07c.233 1.26-.252 2.4-1.066 2.54s-1.687-.737-1.939-1.939.252-2.4 1.066-2.559 1.706.698 1.939 1.958z" fill="#263238"/><path data-name="Path 8948" d="M443.564 96.053l-3.2-.31s1.998 2.075 3.2.31z" fill="#263238"/><path data-name="Path 8949" d="M449.904 99.524a34.451 34.451 0 0 1-3.005 8.861 5.545 5.545 0 0 0 4.653 0z" fill="#ed893e"/><path data-name="Path 8950" d="M459.307 112.05a12.142 12.142 0 0 1-1.842.485.368.368 0 0 1-.427-.291.388.388 0 0 1 .291-.446 10.1 10.1 0 0 0 7.426-5.41.37.37 0 0 1 .679.291 10.451 10.451 0 0 1-6.127 5.371z" fill="#263238"/><path data-name="Path 8951" d="M490.04 100.164a11.5 11.5 0 0 1-4.731 7.407c-3.335 2.288-6.3-.368-6.457-4.188-.155-3.432 1.4-8.783 5.254-9.539a5.177 5.177 0 0 1 5.933 6.321z" fill="#ffb573"/><path data-name="Path 8952" d="M464.505 91.478a.8.8 0 0 1-.853-.252c-2.113-2.773-6.573-2.637-6.631-2.637a.776.776 0 0 1-.776-.737.756.756 0 0 1 .717-.776c.213 0 5.313-.155 7.891 3.238a.737.737 0 0 1-.155 1.047z" fill="#263238"/><path data-name="Path 8953" d="M439.609 92.272a.7.7 0 0 1-.737-.136.717.717 0 0 1 0-1.047 7.484 7.484 0 0 1 6.282-2.792.737.737 0 0 1 .64.834.756.756 0 0 1-.834.659 5.817 5.817 0 0 0-4.944 2.269.7.7 0 0 1-.407.213z" fill="#263238"/><path data-name="Path 8954" d="M518.174 165.273c1.842 9.074 3.2 18.012 4.285 27.145a259.1 259.1 0 0 1 1.934 27.571v1.842a8.024 8.024 0 0 1-.116 1.28 9.831 9.831 0 0 1-3.083 5.72 10.219 10.219 0 0 1-4.692 2.365 14.351 14.351 0 0 1-3.277.33 23.864 23.864 0 0 1-4.692-.6c-1.357-.291-2.618-.659-3.878-1.028a100.411 100.411 0 0 1-13.165-5.526 214.545 214.545 0 0 1-23.752-13.941l3.878-7.058c4.091 1.667 8.221 3.412 12.351 5.022s8.221 3.257 12.351 4.673a104.378 104.378 0 0 0 12.041 3.548c.97.213 1.939.388 2.734.485a8.415 8.415 0 0 0 1.939 0 3.7 3.7 0 0 0-1.706.911 5.08 5.08 0 0 0-1.571 2.753v-.233c-.737-8.628-1.939-17.45-3.2-26.1s-2.831-17.547-4.324-26.137z" fill="#ffb573"/><path data-name="Path 8955" d="M510.747 146.814c6.476 1.939 14.232 24.2 14.232 24.2l-25.07 17.935s-9.132-18.575-6.418-26.931c2.826-8.709 9.889-17.473 17.256-15.204z" fill="#263238"/><path data-name="Path 8956" d="M457.796 93.416l-3.2-.31s1.998 2.075 3.2.31z" fill="#263238"/><path data-name="Path 8957" d="M473.268 204.05l-15.511-7.348 4.11 15.608s9.132 4.556 13.572-.33z" fill="#ffb573"/><path data-name="Path 8958" d="M444.767 199.63l4.13 12.874 12.991-.194-4.11-15.608z" fill="#ffb573"/><path data-name="Path 8959" d="M501.402 244.012a368.855 368.855 0 0 1-68.017 2.443 1.474 1.474 0 0 1-1.377-1.532c0-1.415.155-2.831.213-4.246a1.435 1.435 0 0 1 1.512-1.377 361.784 361.784 0 0 0 66.737-2.385 1.454 1.454 0 0 1 1.609 1.241c.174 1.415.368 2.831.562 4.246a1.435 1.435 0 0 1-1.241 1.609z" fill="#407bff"/><path data-name="Path 8960" d="M501.402 244.012a368.855 368.855 0 0 1-68.017 2.443 1.474 1.474 0 0 1-1.377-1.532c0-1.415.155-2.831.213-4.246a1.435 1.435 0 0 1 1.512-1.377 361.784 361.784 0 0 0 66.737-2.385 1.454 1.454 0 0 1 1.609 1.241c.174 1.415.368 2.831.562 4.246a1.435 1.435 0 0 1-1.241 1.609z" opacity=".4"/><path data-name="Path 8963" d="M253.513 500.646l14.038-3.257-5.487-32.826-14.038 3.257z" fill="#ce7a63"/><path data-name="Path 8964" d="M267.918 495.585l-15.763 3.665a1.047 1.047 0 0 0-.834 1.2l2.036 12.622a2.54 2.54 0 0 0 3.025 1.939c5.468-1.357 8.008-2.288 14.949-3.878 4.266-.989 22.511-4.77 28.386-6.127s4.421-7.135 1.8-7.1c-11.73.252-26.33.213-31.023-1.939a4.052 4.052 0 0 0-2.579-.388z" fill="#263238"/><path data-name="Path 8965" d="M248.026 467.84l14.038-3.277 2.831 16.927-14.057 3.257z" opacity=".2"/><path data-name="Path 8967" d="M239.94 293.9s13.153 41.428 18.582 82.242c5.952 44.692 9.553 104.441 9.553 104.441l-17.633 5.107s-14.482-52.164-24.41-95.615c-10.78-47.154-32.614-55.716-32.614-55.716z"/><path data-name="Path 8969" d="M249.931 492.879l18.381-4.371 1.646-9.019-21.08 5.09z" fill="#407bff"/><path data-name="Path 8970" d="M273.444 496.885a18.735 18.735 0 0 1-3.878.368.329.329 0 0 1-.31-.213.369.369 0 0 1 0-.349c.388-.427 3.742-4.052 5.623-3.781a1.28 1.28 0 0 1 .969.756 1.823 1.823 0 0 1 0 1.939 3.878 3.878 0 0 1-2.4 1.28zm-3.063-.33c2.618 0 4.46-.582 4.964-1.377a1.2 1.2 0 0 0 0-1.221.581.581 0 0 0-.465-.388c-1.028-.136-3.1 1.59-4.5 2.986z" fill="#407bff"/><path data-name="Path 8971" d="M269.664 497.234h-.155a.291.291 0 0 1-.233-.213c0-.174-1.28-4.13-.175-5.817a1.725 1.725 0 0 1 1.28-.776 1.26 1.26 0 0 1 1.415.717c.659 1.454-.776 4.847-1.939 6.011zm.64-6.108a1.008 1.008 0 0 0-.64.446 7.5 7.5 0 0 0 0 4.653 6.883 6.883 0 0 0 1.454-4.808c0-.175-.252-.368-.737-.33z" fill="#407bff"/><path data-name="Path 8972" d="M254.871 220.687c2.249 3.122 4.11 5.972 6.011 9.035s3.684 6.049 5.371 9.152a206 206 0 0 1 9.423 19.137c1.4 3.277 2.773 6.592 3.975 9.985.64 1.687 1.183 3.412 1.745 5.138.271.911.582 1.609.834 2.676s.5 2.094.679 3.3a29.568 29.568 0 0 1 .368 4.246 17.451 17.451 0 0 1-.31 3.257 11.945 11.945 0 0 1-2.482 5.254 10.335 10.335 0 0 1-3.219 2.54 10.062 10.062 0 0 1-3.393 1.047 11.051 11.051 0 0 1-4.324-.349 13.767 13.767 0 0 1-4.188-1.939 26.273 26.273 0 0 1-4.789-4.266 38.977 38.977 0 0 1-3.587-4.653l7.174-8.066a57.412 57.412 0 0 0 8.26 2.87c.465 0 .911 0 .562-.233a3.044 3.044 0 0 0-1.764-.213 6.748 6.748 0 0 0-2.21.64 7.407 7.407 0 0 0-3.781 4.653c-.136.5-.155.679-.233.7s-.252-.349-.485-.776l-.795-1.609c-.291-.543-.62-1.415-.931-2.113-.64-1.474-1.221-2.947-1.939-4.4a228.786 228.786 0 0 0-4.169-8.744c-2.947-5.817-6.108-11.5-9.4-17.14-1.667-2.811-3.354-5.623-5.08-8.4s-3.512-5.629-5.142-8.087z" fill="#ce7a63"/><path data-name="Path 8973" d="M249.461 207.599c-14.27-3.316-22.937 5.817-18.672 23.674a273.209 273.209 0 0 0 9.695 30.111c.834 2.21 1.609 4.188 2.249 5.817l32.38-18.109c-3.492-14.174-16.113-39.268-25.652-41.493z" fill="#016ca4"/><path data-name="Path 8974" d="M250.061 224.526c-8.609-7.756.194 23.5 3.878 36.452l9.52-5.313c-1.008-8.977-6.786-25.226-13.398-31.139z" opacity=".3"/><path data-name="Path 8975" d="M187.822 520.384h14.367l2.133-33.291h-14.367z" fill="#ce7a63"/><path data-name="Path 8976" d="M202.966 518.716h-16.152a1.028 1.028 0 0 0-1.066.989l-.892 12.777a2.5 2.5 0 0 0 2.5 2.54c5.623-.1 8.3-.427 15.414-.427 4.363 0 22.937.465 28.967.465s5.914-5.972 3.354-6.515c-11.44-2.424-25.632-5.817-29.665-8.938a3.878 3.878 0 0 0-2.46-.891z" fill="#263238"/><path data-name="Path 8977" d="M189.955 487.093h14.367l-1.105 17.159H188.85z" opacity=".2"/><path data-name="Path 8979" d="M230.926 248.549s-11.294 75.154-13.95 116.3c-2.908 45.08-8.542 137.971-8.542 137.971h-24.392s-1.435-55.3-2.675-99.912c-1.338-48.473-4.149-154.357-4.149-154.357z"/><path data-name="Path 8980" d="M184.035 509.817h24.493l1.418-10-27.03 1.57z" fill="#407bff"/><path data-name="Path 8981" d="M208.046 521.218a18.435 18.435 0 0 1-3.878-.5.388.388 0 0 1-.252-.271.33.33 0 0 1 .155-.33c.446-.33 4.537-3.1 6.3-2.424a1.241 1.241 0 0 1 .756.95 1.939 1.939 0 0 1-.427 1.823 3.878 3.878 0 0 1-2.654.752zm-2.908-.989c2.559.5 4.46.427 5.138-.252a1.2 1.2 0 0 0 .252-1.183.62.62 0 0 0-.368-.485c-.97-.367-3.355.777-5.026 1.921z" fill="#407bff"/><path data-name="Path 8982" d="M204.284 520.714h-.155a.368.368 0 0 1-.174-.271c0-.174-.31-4.3 1.163-5.7a1.61 1.61 0 0 1 1.415-.465 1.28 1.28 0 0 1 1.2 1.008c.33 1.57-1.842 4.576-3.277 5.429zm1.939-5.817a.969.969 0 0 0-.717.291 7.543 7.543 0 0 0-.989 4.556 6.883 6.883 0 0 0 2.5-4.363c0-.194-.155-.427-.64-.485z" fill="#407bff"/><path data-name="Path 8983" d="M261.753 331.927h-84.539c-.485-6.864 1.28-29.2.31-57.644a364.028 364.028 0 0 0-7.116-62.7c-.33-1.551-.679-3.083-1.028-4.634 0 0 3.878-.795 9.481-1.609 4.653-.679 10.47-1.377 16.171-1.648a286.747 286.747 0 0 1 32.671 0c5.022.465 9.927 1.3 13.824 2.055 5 1.008 7.95 1.939 7.95 1.939s7.577 31.454 6.456 86.385c-.237 11.842 8.403 22.896 5.82 37.856z" fill="#00486e"/><path data-name="Path 8984" d="M255.141 273.599a20.552 20.552 0 0 0-5.235-6.011 33.136 33.136 0 0 1-4.091-2.773.95.95 0 0 0-1.512.64c-.155 1.125.31 2.967 3.064 5.642.213 3.548 5.429 7.465 5.429 7.465z" fill="#ce7a63"/><path data-name="Path 8985" d="M243.411 282.169h-15.977l11.052-31.507h15.977z" opacity=".3"/><path data-name="Path 8986" d="M244.497 282.169H228.52l11.052-31.507h15.978z" fill="#263238"/><path data-name="Path 8987" d="M177.527 274.278a364.028 364.028 0 0 0-7.116-62.7c5.138-.446 13.921 0 15.317 8.357 1.474 8.914-.678 29.893-8.201 54.343z" opacity=".3"/><path data-name="Path 8988" d="M184.41 225.166l-8.182 28-4.052 13.98-1.939 6.98-.969 3.471-.465 1.745v.213a2.479 2.479 0 0 0 0-.368 5.372 5.372 0 0 0 0-1.086 6.438 6.438 0 0 0-.989-2.579 4.072 4.072 0 0 0-1.183-1.163c-.5-.271-.174 0 .368.252a21.583 21.583 0 0 0 5.158 1.125 108.311 108.311 0 0 0 13.572.582c9.4-.116 19.215-.659 28.812-1.318l2.133 10.586a195.836 195.836 0 0 1-29.627 6.961 102.321 102.321 0 0 1-15.957 1.28 40.234 40.234 0 0 1-9.4-1.105 18.769 18.769 0 0 1-6.321-2.792 13.844 13.844 0 0 1-3.742-3.878 13.4 13.4 0 0 1-2.23-6.011 14.892 14.892 0 0 1 0-2.928 3.248 3.248 0 0 1 .174-1.28l.136-.776.349-1.939.679-3.7a235.07 235.07 0 0 1 1.512-7.368c1.047-4.886 2.133-9.695 3.354-14.6 2.385-9.695 5.041-19.2 8.1-28.773z" fill="#ce7a63"/><path data-name="Path 8989" d="M169.364 206.921c-9.578 2.23-20.32 27.455-24.1 41.628-.64 2.424-1.144 4.5-1.532 6.088-.5 2.094-.776 3.354-.776 3.354l32.128 9.152c.659-1.59 1.474-3.568 2.327-5.817a272.039 272.039 0 0 0 10.237-30.112c4.556-17.817-3.975-27.589-18.284-24.293z" fill="#016ca4"/><path data-name="Path 8990" d="M226.135 203.566c-9.481-2.249-11.091-8.124-10.412-14.581a38.78 38.78 0 0 1 .795-4.809l-11.827-9.888-8.686-7.252c2.346 10.528 4.925 29.7-2.249 36.723a136.016 136.016 0 0 0 31.352 19.564c11.225-8.24 1.027-19.757 1.027-19.757z" fill="#ce7a63"/><path data-name="Path 8991" d="M216.52 184.177a38.781 38.781 0 0 0-.795 4.809c-4.421-.892-11.11-4.847-11.633-9.85a19.993 19.993 0 0 1 .679-4.847z" opacity=".2"/><path data-name="Path 8992" d="M238.679 133.65c4.13 6.554-3.665 25.419-13.572 24.062s5.778-36.51 13.572-24.062z" fill="#263238"/><path data-name="Path 8993" d="M196.877 145.806c-1.745 14.212-3.509 22.414 2.172 31.023a18.614 18.614 0 0 0 32.826-2.87c5.332-11.963 7.31-33.175-5.254-41.687a18.924 18.924 0 0 0-29.743 13.534z" fill="#ce7a63"/><path data-name="Path 8994" d="M195.229 156.703c7.271-.911 12.525-13.029 11.032-18.691 5.351 3.878 47.833 8.8 41.357-18.9-12.118 0-62.685-2.269-54.289 8.648-5.817 0-11.323 5.274-7.368 17.45 3.994 12.521 9.268 11.493 9.268 11.493z" fill="#263238"/><path data-name="Path 8995" d="M189.005 158.565a15.22 15.22 0 0 0 6.635 7.852c3.878 2.152 6.2-1.4 5.39-5.817-.717-4.014-3.626-9.966-7.756-10.257s-5.82 4.034-4.269 8.222z" fill="#ce7a63"/><path data-name="Path 8996" d="M217.236 154.26c-.213 1.144.213 2.191.95 2.346s1.512-.64 1.726-1.784-.213-2.191-.95-2.346-1.513.64-1.726 1.784z" fill="#263238"/><path data-name="Path 8997" d="M230.033 156.994c-.213 1.144.213 2.21.95 2.365s1.512-.64 1.726-1.784-.213-2.191-.95-2.346-1.513.64-1.726 1.765z" fill="#263238"/><path data-name="Path 8998" d="M225.845 156.703a43.45 43.45 0 0 0 3.587 10.916 6.554 6.554 0 0 1-5.584-.136z" fill="#ba4d3c"/><path data-name="Path 8999" d="M218.651 169.573a9.927 9.927 0 0 1-5.817-5.177.349.349 0 1 1 .64-.252 9.481 9.481 0 0 0 6.65 5.119.33.33 0 0 1 .271.407.349.349 0 0 1-.407.252 11.482 11.482 0 0 1-1.338-.349z" fill="#263238"/><path data-name="Path 9000" d="M214.056 149.239a.679.679 0 0 1-.233-1.144 6.573 6.573 0 0 1 5.952-1.629.7.7 0 0 1 .465.853.717.717 0 0 1-.853.465 5.2 5.2 0 0 0-4.653 1.318.679.679 0 0 1-.678.137z" fill="#263238"/><path data-name="Path 9001" d="M236.334 153.736a.621.621 0 0 1-.427-.446 5.681 5.681 0 0 0-3.2-3.878.659.659 0 0 1-.407-.872.679.679 0 0 1 .853-.427 6.98 6.98 0 0 1 4.052 4.789.679.679 0 0 1-.465.834.582.582 0 0 1-.406 0z" fill="#263238"/><path data-name="Path 9002" d="M211.982 275.52l15.356-7.95-2.637 17.935s-12.622 3.471-13.805-3.18z" fill="#ce7a63"/><path data-name="Path 9003" d="M222.451 270.091a20.978 20.978 0 0 1 6.2-5.119 30.265 30.265 0 0 0 4.905-2.792.95.95 0 0 1 1.4.853 9.152 9.152 0 0 1-4.4 5.817c-.814 3.471-6.631 6.515-6.631 6.515z" fill="#ce7a63"/><path data-name="Path 9004" d="M239.902 270.052l-2.152 11.188a2.443 2.443 0 0 1-1.939 1.939l-11.246 2.33 2.734-17.78 10.1-.523a2.385 2.385 0 0 1 2.5 2.85z" fill="#ce7a63"/><path data-name="Path 9005" d="M210.799 282.325l1.183-6.806 15.356-7.95" fill="#ce7a63"/><path data-name="Path 9006" d="M261.946 276.993l-12.235-7.407-.892 15.918s12.894 4.944 14.193-1.706z" fill="#ce7a63"/><path data-name="Path 9007" d="M244.09 269.76l-.969 12.545a1.551 1.551 0 0 0 1.047 1.59l4.634 1.609.892-15.918-3.529-1.2a1.571 1.571 0 0 0-2.075 1.377z" fill="#ce7a63"/><text data-name="?" transform="translate(203.091 108.33)" fill="#00486e" font-size="42" font-family="SegoeUI-Bold, Segoe UI" font-weight="700"><tspan x="0" y="0">?</tspan></text><g data-name="Group 664" fill="#fff"><path data-name="Path 8924" d="M470.324 28.924c0-6.484-5.835-11.729-12.32-11.729s-12.319 5.256-12.319 11.729a11.351 11.351 0 0 0 2.514 6.668h-.025c.907 1.249 1.781 1.473 2.622 2.913a9.324 9.324 0 0 1 1.557 4.637 1.335 1.335 0 0 0 1.332 1.274h.741a.334.334 0 0 0 .333-.333v-7.859a2.692 2.692 0 0 0-.283-1.19l-1.748-3.5a.874.874 0 0 1 .782-1.265.867.867 0 0 1 .782.491l2.106 4.279a2.614 2.614 0 0 1 .275 1.174v7.875a.334.334 0 0 0 .333.333h2a.334.334 0 0 0 .333-.333v-7.877a2.614 2.614 0 0 1 .275-1.174l2.114-4.3a.843.843 0 0 1 .749-.466.838.838 0 0 1 .749 1.215l-1.775 3.551a2.72 2.72 0 0 0-.283 1.19v7.858a.334.334 0 0 0 .333.333h.832a1.332 1.332 0 0 0 1.332-1.249 10 10 0 0 1 1.532-4.661c.841-1.44 1.715-1.665 2.622-2.913h-.008a11.351 11.351 0 0 0 2.513-6.671z"/><path data-name="Path 8925" d="M456.506 51.827h3a1.169 1.169 0 0 0 1.165-1.165 1.169 1.169 0 0 0-1.165-1.165h-3a1.169 1.169 0 0 0-1.165 1.165 1.169 1.169 0 0 0 1.165 1.165z"/><path data-name="Path 8926" d="M454.843 48.164h6.326a1.169 1.169 0 0 0 1.165-1.165 1.169 1.169 0 0 0-1.165-1.165h-6.326a1.169 1.169 0 0 0-1.165 1.165 1.169 1.169 0 0 0 1.165 1.165z"/></g></g></svg>