<svg xmlns="http://www.w3.org/2000/svg" width="611.101" height="338.15"><g data-name="Group 491" transform="translate(-4382.52 -4579.161)"><rect data-name="Rectangle 500" width="177.296" height="336.409" rx="32.35" transform="translate(4660.63 4579.161)" fill="rgba(1,108,164,0.47)"/><path data-name="Path 7022" d="M4847.297 4588.236v318.265a9.1 9.1 0 0 1-9.075 9.069H4679.07a9.1 9.1 0 0 1-9.069-9.069v-318.265a9.1 9.1 0 0 1 9.069-9.075h159.152a9.1 9.1 0 0 1 9.075 9.075z" fill="#00486e"/><path data-name="Path 7023" d="M4784.631 4591.895h-46.088a1.8 1.8 0 0 1-1.795-1.792 1.8 1.8 0 0 1 1.795-1.795h46.088a1.8 1.8 0 0 1 1.792 1.795 1.8 1.8 0 0 1-1.792 1.792z" fill="#5e92dd" opacity=".4"/><path data-name="Path 7024" d="M4730.358 4591.895a1.8 1.8 0 0 1-1.795-1.792 1.8 1.8 0 0 1 1.795-1.795 1.8 1.8 0 0 1 1.792 1.795 1.8 1.8 0 0 1-1.792 1.792z" fill="#5e92dd" opacity=".4"/><path data-name="Path 7025" d="M4772.41 4896.984a11.526 11.526 0 1 1-3.376-8.19 11.568 11.568 0 0 1 3.376 8.19z" fill="#95c0f4"/><path data-name="Rectangle 501" fill="#b3e3ef" d="M4680.802 4599.884h157.22v279.847h-157.22z"/><path data-name="Path 7026" d="M4769.056 4905.124a11.565 11.565 0 1 1-14.414-17.9 25.934 25.934 0 0 0 14.414 17.9z" fill="#8cbaf1"/><g data-name="Group 489" transform="translate(4408.734 4646.26)"><path data-name="Path 7027" d="M72.591 149.858a344.909 344.909 0 0 0-3.985-42.288c-2.855-16.511-5.426-26.012-5.454-26.113-.376-1.453-5.81-7.327-17.894-7.145s-10.937 7.886-10.937 7.886a2.412 2.412 0 0 0 .084.684c.118.4 11.217 40.611 10.729 92.54 0 .729-.09 1.988-.036 2.827 0 0 28 .724 28 0 .985-4.547.508-17.121-.507-28.391z" fill="#b7d3f3"/><path data-name="Path 7028" d="M76.113 175.158c0 .721-.39 1.3-.841 1.3-.466 0-.841-.589-.841-1.3H50.409c0 .721-.39 1.3-.841 1.3-.474 0-.841-.609-.841-1.34a363.055 363.055 0 0 0-1.991-40.99c-3.219-30.547-9.117-50.964-9.2-51.248a2.524 2.524 0 0 1-.087-.684s-1.147-7.7 10.937-7.885 17.518 5.693 17.894 7.145c.022.076 1.478 5.457 3.413 15.126a430.565 430.565 0 0 1 2.044 10.987 345.543 345.543 0 0 1 3.982 42.285c1.017 11.274 1.359 20.766.394 25.304z" fill="#d2e3fc"/><path data-name="Path 7029" d="M46.924 176.458h94.071s-2.19-8.864-56.671-7.543c-38.553.945-37.4 7.543-37.4 7.543z" fill="#c5dcf8"/><path data-name="Path 7030" d="M39.268 269.055c10.906-55.216 8.1-89.1 8.085-89.526-.028-.841 1.54-1.621 2.384-1.649s4.619-.25 5.048.477c.561.953 2.768 42.7-13.488 90.7z" fill="#b7d3f3"/><path data-name="Path 7031" d="M127.1 269.055c-10.906-55.216-8.1-89.1-8.087-89.526.025-.841-1.54-1.621-2.384-1.649s-4.619-.25-5.048.477c-.561.953-2.768 42.7 13.488 90.7z" fill="#b7d3f3"/><path data-name="Path 7032" d="M144.506 269.055c-10.906-55.216-8.1-89.1-8.087-89.526.028-.841-1.539-1.621-2.384-1.649s-4.619-.25-5.048.477c-.561.953-2.768 42.7 13.488 90.7z" fill="#b7d3f3"/><path data-name="Path 7033" d="M56.792 269.055c10.906-55.216 8.1-89.1 8.087-89.526-.028-.841 1.54-1.621 2.384-1.649s4.616-.25 5.048.477c.561.953 2.768 42.7-13.488 90.7z" fill="#b7d3f3"/><rect data-name="Rectangle 502" width="97.924" height="5.121" rx="2.56" transform="translate(45.053 174.168)" fill="#b7d3f3"/><path data-name="Path 7034" d="M137.748 94.333l31.267-6.772 1.842 4.487s-34.492 20.53-37.737 19.523 4.628-17.238 4.628-17.238z" fill="#ffb27d"/><path data-name="Path 7035" d="M109.327 235.76a2.772 2.772 0 0 0-.5 2.97.024.024 0 0 0 0 .017c.715 1.98 3.085 4.192 5.836 6.4.351.28.665.544.937.782l.21.188c.053.048.107.1.16.146 2.566 2.364 1.6 2.908 6.209 7.706 5.255 5.465 8.873 5.564 9.9 5.067.872-.426-.9-3.326-2.858-6.584-.1-.157-.188-.317-.28-.474-.261-.435-.522-.875-.78-1.31-2.3-3.926-1.708-5.763-1.164-11.6.443-4.742 7.381-26.5 7.381-26.5l-10.07-1.736s-3.031 17.327-6.374 19.994c-1.786 1.422-3.786 1.441-5.5 2.5-.123.073-.241.149-.359.224a12.687 12.687 0 0 0-2.748 2.21z" fill="#ffb27d"/><path data-name="Path 7036" d="M109.327 235.76a2.773 2.773 0 0 0-.5 2.97.024.024 0 0 0 0 .017c.878 1.963 3.186 4.178 5.844 6.38.348.28.653.561.928.8l.21.188c.053.048.107.1.16.146 2.566 2.364 1.6 2.908 6.209 7.706 5.255 5.465 8.873 5.564 9.9 5.067.872-.426-.9-3.326-2.858-6.584a22.4 22.4 0 0 1-9.366-6.9c-3.166-4.038-5.275-9.226-7.428-12.229-.123.073-.241.149-.359.224a12.8 12.8 0 0 0-2.74 2.215z" fill="#1c468a"/><path data-name="Path 7037" d="M190.515 229.467c.62 3.107 5.048 2.588 10 1.38s3.772.23 10.816-.561 9.181-3.4 9.394-4.453c.193-.928-3.286-1.256-7.011-1.683-.468-.05-.942-.109-1.4-.168-4.206-.53-7.291-3.25-11.13-5.482-3.629-2.117-9.041-10.737-9.041-10.737l-9.683.768s5.07 7.7 7.03 11.046c1.153 1.963 1.091 4.574.948 6.584a12.323 12.323 0 0 0 .076 3.306z" fill="#ffb27d"/><path data-name="Path 7038" d="M200.518 230.85c4.949-1.209 3.772.23 10.816-.561s9.181-3.4 9.394-4.453c.194-.928-3.287-1.256-7.011-1.682l-.034.073a19.868 19.868 0 0 1-10.1 3.135c-4.767.118-9.843-1.254-13.143-1.2a12.325 12.325 0 0 0 .076 3.306c.619 3.106 5.05 2.587 10.002 1.382z" fill="#1c468a"/><path data-name="Path 7039" d="M169.015 87.561s2.3-5.639 4.834-5.869 10.589-1.5 11.164-.348 0 5.3-1.725 6.792-12.431 3.926-12.431 3.926z" fill="#ffb27d"/><path data-name="Path 7040" d="M153.488 167.687l-20.822 56.04a19.1 19.1 0 0 1-6.268-.561 26.97 26.97 0 0 1-6.054-2.95s5.165-53.805 14.635-65 18.509 12.471 18.509 12.471z" fill="#163560"/><path data-name="Path 7041" d="M71.13 145.014s59.831-20.23 73.174-15.925 53.41 84.015 53.41 84.015a7.728 7.728 0 0 1-3.365 2.128c-2.3.861-7.852.8-7.852.8s-36.166-30.984-40.471-40.018-6.026-17.647-10.339-16.786-55.524 21.091-67.139 9.038-8.575-27.712-8.575-27.712z" fill="#1c468a"/><path data-name="Path 7042" d="M105.241 2.36a14.486 14.486 0 0 0-7.852-1.5 3.662 3.662 0 0 1 1.657-.785c-1.346-.2-4.347 1.122-4.347 1.122-18.7-7.207-21.638 20.328-21.245 26.724s.437 13.758-8.9 19.5c-18.365 11.287-2.869 31-2.869 31 .146.084 8.545 14.332 8.545 14.332-.474-5.157 23.39-32.437 35.821-40.605 3.029-4.459 4.105-12.339 4.184-12.958-.522 6.248-1.59 9.75-2.546 11.725 10.541-9.713 4.405-44.66-2.448-48.555z" fill="#b5453c"/><path data-name="Path 7043" d="M105.316 52.542c.062.028-6.01 3.18-10.575 1.929-4.293-1.169-7.1-6.73-7.041-6.75 1.82-.362 2.344-2.863 2.305-13.6l.822.163 13.825 2.737s-.314 4.352-.323 8.452c-.007 3.437.199 6.705.987 7.069z" fill="#ffb27d"/><path data-name="Path 7044" d="M104.652 37.018s-.314 4.352-.323 8.452c-7.737-.219-11.826-7.277-13.5-11.189z" fill="#ed975d"/><path data-name="Path 7045" d="M89.399 32.774s-4.055-6.4-5.031-11.884c-.7-3.909 1.3-18.4 15.864-16.318a19.8 19.8 0 0 1 8.208 3.1c3.163 2.134 7.729 6.747 2.625 19.4l-1.326 4.274z" fill="#b5453c"/><path data-name="Path 7046" d="M107.237 40.899s-18.306.3-18.317-11.1-2.384-19.044 9.3-19.717 13.962 3.674 14.893 7.479-1.114 22.97-5.876 23.338z" fill="#ffb27d"/><path data-name="Path 7047" d="M106.559 9.802s-5.011 13.376-12.7 15.356-11.026-.084-11.026-.084a21.834 21.834 0 0 0 7.123-12.869s12.822-8.768 16.603-2.403z" fill="#b5453c"/><path data-name="Path 7048" d="M105.316 10.884s3.744 2.987 4.655 5.889 1.324 8.881 3.065 8.676c0 0 3.777-9.091-.466-14.234-4.5-5.448-7.254-.331-7.254-.331z" fill="#b5453c"/><path data-name="Path 7049" d="M64.554 101.787c-1.8-7.571 4.338-22.26 10.749-34.422 5.816-11.023 11.856-19.966 12.4-19.644 15.342 9.105 16.727 1.534 16.727 1.534s13.934 1.848 17.88 8.64c4.9 8.43 10.185 31.968 15.437 36.436-.808 2.468-.463 3.783.393 6.842q.28.984.609 1.868a35.811 35.811 0 0 0 2.636 5.415c-2.67 1.624-7.827 4.708-11.624 2.49-5.788-3.388-10.306-13.716-12.86-17.813l-.028-.048c-5.516 31.29 1.991 38.413-1.806 41.722-4.018 3.483-9.759-1.66-22.383 3.814-8.284 3.592-19.778 8.786-27.515 9.691-4.058.477-7.084-.23-8.071-2.97-2.874-7.972 10.903-29.121 7.456-43.555z" fill="#00486e"/><path data-name="Path 7050" d="M103.157 33.988s.339 1.447 3.943 1.223c0 0 3.026-.185 2.933-1.778a9.712 9.712 0 0 0-6.876.555z" fill="#fff"/><path data-name="Path 7051" d="M57.095 145.334c.987 2.74 4.013 3.446 8.071 2.97 5.356-2.333 28.491-11.3 28.23-17.369-.384-8.99-4.448-9.276-1.576-20.376 2.3-8.909-19.069-25.477-22.482-29.08-6.41 12.162-6.587 12.737-4.784 20.308 3.447 14.434-10.33 35.583-7.459 43.547z" fill="#00486e"/><path data-name="Path 7052" d="M54.478 112.906a33.879 33.879 0 0 1 11.189-10.339c-.648-1.669 17.255-23.617 17.255-27.019 0-3.444 4.767-27.829 4.767-27.829s-14.919.923-20.084 8.132c-6.447 9.001-19.862 43.67-13.127 57.055z" fill="#032d43"/><path data-name="Path 7053" d="M65.667 102.558l29.809 7.779-2.8 5.022s-36.279-.255-38.2-2.462 11.191-10.339 11.191-10.339z" fill="#ffb27d"/><path data-name="Path 7054" d="M116.898 93.133c2.543 4.108 7.061 14.425 12.852 17.815 3.8 2.218 8.954-.867 11.624-2.49a35.819 35.819 0 0 1-2.636-5.415c-2.131.488-4.731 1.122-6.408 1.618-3.253.982-15.432-11.528-15.432-11.528z" fill="#163560"/><path data-name="Path 7055" d="M95.477 110.345s9.363-2.65 11.607-2.03 9.868 5.679 8.794 7.053-7.8-.824-10.9-.407-5.494 1.943-7.723 1.612a25.948 25.948 0 0 1-4.56-1.206z" fill="#ffb27d"/><path data-name="Path 7056" d="M95.476 110.346s4.582-2.353 5.889-3.693a.365.365 0 0 1 .561.065c.35.561.676 1.615-.931 2.672a8.644 8.644 0 0 1-5.519.956z" fill="#ffb27d"/><path data-name="Path 7057" d="M138.74 123.514H95.064a3.483 3.483 0 0 1 3.483-3.48h40.193z" fill="#ed7d2b"/><path data-name="Path 7058" d="M138.614 75.949h67.526l-16.2 47.566h-67.961z" fill="#ed7d2b"/><path data-name="Path 7059" d="M207.136 75.949l-16.2 47.566h-67.961l16.63-47.566z" fill="#f99746"/><path data-name="Path 7060" d="M170.735 99.291a4.4 4.4 0 0 1-4.049 3.292 2.533 2.533 0 0 1-2.524-3.292 4.406 4.406 0 0 1 4.052-3.289 2.535 2.535 0 0 1 2.521 3.289z" fill="#f9ddbf"/><path data-name="Path 7061" d="M207.136 75.949l-16.206 47.566h-45c29.813-10.176 37.749-41.206 39.078-47.566z" fill="#ed893e"/><path data-name="Path 7062" d="M11.099 269.055a1.744 1.744 0 0 0 1.73-1.419l8.48-48.07 12.2-69.136 3.41-19.332-8.693-.25-1.504 11.22-10.586 78.869-6.276 46.747a1.226 1.226 0 0 0 1.239 1.374z" fill="#95c0f4"/><path data-name="Path 7063" d="M26.725 142.068a12.474 12.474 0 0 1 6.786 8.359l3.41-19.332-8.693-.25z" fill="#78acea"/><path data-name="Path 7064" d="M227.214 269.055a1.747 1.747 0 0 1-1.73-1.419l-8.474-48.07-12.2-69.136-3.412-19.332 8.693-.25 1.506 11.217 10.586 78.869 6.276 46.747a1.225 1.225 0 0 1-1.245 1.374z" fill="#95c0f4"/><path data-name="Path 7065" d="M211.589 142.068a12.466 12.466 0 0 0-6.783 8.359l-3.413-19.329 8.693-.25z" fill="#78acea"/><rect data-name="Rectangle 503" width="233.106" height="15.179" rx="7.59" transform="rotate(180 116.553 69.343)" fill="#78acea"/></g><rect data-name="Rectangle 504" width="611.101" height="2.033" rx="1.017" transform="translate(4382.52 4915.278)" fill="#2e3552"/><path fill="none" d="M4710.977 4617.196h96.252v26.552h-96.252z"/><g data-name="Group 8"><path d="M4727.717 4628.098a12.107 12.107 0 0 1 .278 1.25 9.779 9.779 0 0 1 .093 1.2v.046a8.154 8.154 0 0 1-2.408 5.789 7.765 7.765 0 0 1-2.5 1.714 1.04 1.04 0 0 0-.648-.278h-1.16a7.583 7.583 0 0 0 3.751-1.991 7.075 7.075 0 0 0 1.806-3.057l.278-1.112a13.362 13.362 0 0 0 0-2.223c-.093-.371-.185-.741-.278-1.065zm-11.161 10a7.766 7.766 0 0 1-2.5-1.714 8.154 8.154 0 0 1-2.41-5.785v-.046a11.385 11.385 0 0 1 .093-1.3 10.612 10.612 0 0 1 .324-1.3l.787.232a5.657 5.657 0 0 0-.278 1.2 8.805 8.805 0 0 0-.139 1.158 9.548 9.548 0 0 0 .139 1.2 5.263 5.263 0 0 0 .278 1.158 7.827 7.827 0 0 0 1.76 2.918 7.583 7.583 0 0 0 3.751 1.991h-1.157a.938.938 0 0 0-.649.291z" fill="#005180"/><path d="M4713.591 4629.487a5.675 5.675 0 0 1-1.9-1.575 5.246 5.246 0 0 1 .509-6.808 5.947 5.947 0 0 1 1.205-.926 3.69 3.69 0 0 0 .6.6 3.854 3.854 0 0 0-1.2.88 4.258 4.258 0 0 0-1.3 3.149 4.7 4.7 0 0 0 .834 2.64 4.6 4.6 0 0 0 2.269 1.575l.371.139.694.187a4.97 4.97 0 0 0-.232 1.482 4.228 4.228 0 0 0 1.3 3.1 3.992 3.992 0 0 0 1.945 1.158v.834a5.324 5.324 0 0 1-2.5-1.389v-.046a5 5 0 0 1-1.528-3.659 5.9 5.9 0 0 1 .046-.926 6.664 6.664 0 0 1-1.113-.415zm7.456 5.6a3.992 3.992 0 0 0 1.945-1.158 4.415 4.415 0 0 0 1.3-3.1 4.97 4.97 0 0 0-.232-1.482l.648-.185.371-.139a4.531 4.531 0 0 0 2.316-1.575 4.7 4.7 0 0 0 .834-2.64 4.258 4.258 0 0 0-1.3-3.149 3.854 3.854 0 0 0-1.2-.88 3.69 3.69 0 0 0 .6-.6 5.947 5.947 0 0 1 1.2.926 5.246 5.246 0 0 1 .509 6.808 5.675 5.675 0 0 1-1.9 1.575 6.664 6.664 0 0 1-1.112.417 5.9 5.9 0 0 1 .046.926 5 5 0 0 1-1.528 3.659v.046a5.557 5.557 0 0 1-2.5 1.389zm-3.844 2.366h5.326a1.344 1.344 0 1 1 0 2.686h-5.326a1.406 1.406 0 0 1-.973-.37 1.462 1.462 0 0 1 0-1.945 1.406 1.406 0 0 1 .973-.371zm5.326.787h-5.326a.526.526 0 0 0-.37.926.572.572 0 0 0 .37.185h5.326a.572.572 0 0 0 .371-.185.558.558 0 0 0-.371-.926zm-.788 3.427a2.063 2.063 0 0 1-.556 1.343 1.883 1.883 0 0 1-1.343.556 1.857 1.857 0 0 1-1.3-.556 2.063 2.063 0 0 1-.552-1.343h.834a.978.978 0 0 0 .278.741.921.921 0 0 0 .741.324.954.954 0 0 0 .787-.324.978.978 0 0 0 .278-.741z" fill="#005180"/><path d="M4717.203 4639.351h5.326a1.272 1.272 0 0 1 1.343 1.343 1.407 1.407 0 0 1-.371.973 1.543 1.543 0 0 1-.973.417h-5.326a1.444 1.444 0 0 1-.973-.417 1.406 1.406 0 0 1-.37-.973 1.5 1.5 0 0 1 .37-.973 1.406 1.406 0 0 1 .974-.37zm5.326.787h-5.326a.572.572 0 0 0-.37.185.421.421 0 0 0-.185.37.566.566 0 0 0 .185.417.526.526 0 0 0 .37.139h5.326a.526.526 0 0 0 .371-.139.566.566 0 0 0 .185-.417.421.421 0 0 0-.185-.37.572.572 0 0 0-.371-.185zm-5.65-18.756a3.519 3.519 0 0 1 2.408.973 3.434 3.434 0 0 1 .973 2.408 3.4 3.4 0 0 1-3.381 3.427 3.391 3.391 0 0 1-2.455-1.019 3.353 3.353 0 0 1-.972-2.408 3.434 3.434 0 0 1 .973-2.408 3.547 3.547 0 0 1 2.454-.973zm1.806 1.575a2.418 2.418 0 0 0-1.806-.787 2.446 2.446 0 0 0-1.853.787 2.571 2.571 0 0 0 1.853 4.4 2.557 2.557 0 0 0 1.806-.741 2.519 2.519 0 0 0 0-3.659z" fill="#005180"/><path d="M4722.853 4621.382a3.353 3.353 0 0 1 2.408.973 3.286 3.286 0 0 1 1.019 2.408 3.48 3.48 0 0 1-3.427 3.427 3.4 3.4 0 0 1-3.381-3.427 3.434 3.434 0 0 1 .973-2.408 3.519 3.519 0 0 1 2.408-.973zm1.853 1.575a2.446 2.446 0 0 0-1.853-.787 2.418 2.418 0 0 0-1.806.787 2.519 2.519 0 0 0 0 3.659 2.557 2.557 0 0 0 1.806.741 2.586 2.586 0 0 0 1.853-.741 2.519 2.519 0 0 0 0-3.659z" fill="#005180"/><path d="M4719.056 4627.218a2.207 2.207 0 0 0 .278.834c.185.278.37.556.509.787.185-.232.37-.509.556-.787a2.206 2.206 0 0 0 .278-.834l.834.046a4.669 4.669 0 0 1-.417 1.2 7.843 7.843 0 0 1-.926 1.3l-.324.371-.278-.371a7.84 7.84 0 0 1-.926-1.3 3.4 3.4 0 0 1-.417-1.2zm-6.669-9.772l7.456 2.64 8.197-2.872-.185.695a4.958 4.958 0 0 1-2.13 3.335 6.931 6.931 0 0 1-2.964.926 3.35 3.35 0 0 0-1.853.741 2.313 2.313 0 0 0-.648 1.803h-.787a2.328 2.328 0 0 0-.695-1.8 3.07 3.07 0 0 0-1.806-.741 6.931 6.931 0 0 1-2.964-.926 4.958 4.958 0 0 1-2.131-3.338l-.185-.695zm7.364 3.473l-6.859-2.455a4.106 4.106 0 0 0 1.528 2.13 6.481 6.481 0 0 0 2.64.787 4.221 4.221 0 0 1 2.269.926 2.252 2.252 0 0 1 .509.648 2.437 2.437 0 0 1 .556-.648 4.221 4.221 0 0 1 2.269-.926 6.481 6.481 0 0 0 2.64-.787 4.106 4.106 0 0 0 1.528-2.13l-6.849 2.455z" fill="#005180"/><path d="M4722.853 4623.42a1.206 1.206 0 0 1 .695.185c-.046 0-.046-.046-.093-.046a.556.556 0 0 0-.509.556.514.514 0 0 0 .509.509.526.526 0 0 0 .556-.509c0-.046-.046-.093-.046-.139a1.258 1.258 0 0 1 .278.787 1.366 1.366 0 1 1-2.732 0 1.344 1.344 0 0 1 1.342-1.343zm-5.974 0a1.063 1.063 0 0 1 .648.185c-.046 0-.046-.046-.093-.046a.556.556 0 0 0-.509.556.514.514 0 0 0 .509.509.526.526 0 0 0 .556-.509.17.17 0 0 0-.046-.139 1.258 1.258 0 0 1 .278.787 1.366 1.366 0 1 1-2.732 0 1.355 1.355 0 0 1 1.389-1.343z" fill="#005180" fill-rule="evenodd"/><path d="M4717.898 4635.646v1.991h.787v-1.991zm3.149 0v1.991h.787v-1.991z" fill="#005180"/><path d="M4769.351 4628.19v5.092h1.112a2.551 2.551 0 1 0 0-5.094zm1.25-2.316a4.863 4.863 0 1 1 0 9.726h-2.455a1.147 1.147 0 0 1-1.158-1.158v-7.36a1.186 1.186 0 0 1 1.158-1.2zm11.625 3.427l1.991-2.918a1.177 1.177 0 0 1 2.177.648 1.063 1.063 0 0 1-.185.648v.046l-2.779 3.89v2.871a1.205 1.205 0 0 1-2.408 0v-2.871l-2.779-3.937a1.063 1.063 0 0 1-.185-.648 1.177 1.177 0 0 1 2.177-.648zm-20.655-3.473a1.226 1.226 0 0 1 1.2 1.2v4.77a4.126 4.126 0 0 1-8.244 0v-4.77a1.181 1.181 0 1 1 2.362 0v4.817a1.619 1.619 0 0 0 1.76 1.621 1.581 1.581 0 0 0 1.714-1.621v-4.813a1.226 1.226 0 0 1 1.208-1.204zm-13.245 2.362v6.3a1.147 1.147 0 0 1-1.158 1.158 1.186 1.186 0 0 1-1.2-1.158v-6.3h-1.806a1.158 1.158 0 1 1 0-2.316h6.017a1.147 1.147 0 0 1 1.158 1.158 1.176 1.176 0 0 1-1.158 1.158zm-10.513 4.446c0-.834-5.141-.417-5.141-3.751 0-2.084 1.9-3.1 3.751-3.1a7.175 7.175 0 0 1 2.64.417 1.142 1.142 0 0 1 .741 1.065 1.108 1.108 0 0 1-1.111 1.158 1.352 1.352 0 0 1-.417-.093 5.315 5.315 0 0 0-1.714-.278c-.463 0-1.528.093-1.528.741 0 1.2 5.141.324 5.141 3.937 0 2.038-1.945 3.01-3.751 3.01a7.925 7.925 0 0 1-3.1-.648 1.214 1.214 0 0 1-.741-1.065 1.147 1.147 0 0 1 1.158-1.158 1.645 1.645 0 0 1 .463.093 4.912 4.912 0 0 0 2.13.463c.552-.003 1.478-.045 1.478-.791z" fill="#00486e" fill-rule="evenodd"/><path d="M4803.345 4629.301l1.991-2.918a1.218 1.218 0 0 1 1.019-.556 1.2 1.2 0 0 1 1.2 1.2 1.106 1.106 0 0 1-.232.648v.046l-2.779 3.89v2.871a1.186 1.186 0 0 1-1.2 1.158 1.146 1.146 0 0 1-1.152-1.152v-2.871l-2.825-3.937a1.509 1.509 0 0 1-.185-.648 1.177 1.177 0 0 1 2.177-.648zm-10.791 3.937h3.335a1.186 1.186 0 0 1 1.158 1.2 1.147 1.147 0 0 1-1.158 1.158h-4.307a1.365 1.365 0 0 1-1.389-1.389v-7.179a1.186 1.186 0 0 1 1.158-1.2 1.226 1.226 0 0 1 1.2 1.2z" fill="#3b9ed4" fill-rule="evenodd"/></g><rect data-name="Rectangle 505" width="137" height="162" rx="12" transform="translate(4690.311 4692.311)" fill="#95d4e3"/><g data-name="Group 1582"><g data-name="Ellipse 41" transform="translate(4730.311 4668.311)" fill="#95d4e3" stroke="#b3e3ef" stroke-width="4"><ellipse cx="28.5" cy="28" rx="28.5" ry="28" stroke="none"/><ellipse cx="28.5" cy="28" rx="26.5" ry="26" fill="none"/></g><text data-name="$" transform="translate(4749.311 4705.311)" fill="#1db6db" font-size="30" font-family="SegoeUI-Bold, Segoe UI" font-weight="700"><tspan x="0" y="0">$</tspan></text><path data-name="Line 56" fill="none" stroke="#1b2931" stroke-linecap="round" stroke-width="3" d="M4751.746 4710.544l14.106-29.042"/></g><g data-name="Group 490"><path data-name="Path 7066" d="M4821.929 4667.594s-3.107-10.02-4.871-11.1-9.119-4.7-9.557-3.721 3.974 5.746 4.966 7.328 1.469 3.155.785 2.468-4.411-2.978-4.8-2.468 1.859 2.468 2.939 4.038 2.243 4.206 6.074 4.8 4.464-1.345 4.464-1.345z" fill="#ffb27d"/><path data-name="Path 7067" d="M4935.159 4751.976s-.931 9.052-1.963 10.763-5.373 7.185-7.227 8.258 1.122-7.21.754-8.822-1.526 2.942-2.342 3.048-.606-3.99-.636-5.482 3.973-5.171 5.387-8.348 6.027.583 6.027.583z" fill="#ffb27d"/><path data-name="Path 7068" d="M4906.771 4659.096s-7.527 36.943-48.948 49.015c-12.93 3.766-42.3-38.8-42.3-38.8s1.032-3.926 7.5-3.023c0 0 28.6 18.934 32.2 20.993 3.194 1.826 24.206-23.463 33.786-27.543a24.437 24.437 0 0 1 17.762-.642z" fill="#024e75"/><path data-name="Path 7069" d="M4956.224 4891.336s5.137 4.692 4.136 8.023-5.642 5.552-6.268 9.624-3.132 6.3-5.39 6.3h-10.749s-1.66-2.866 2.35-3.73 5.522-5.65 5.272-10.1a78.709 78.709 0 0 1 .376-10.376l8.522-1.963z" fill="#233862"/><path data-name="Path 7070" d="M4893.186 4903.467s.922 10.656-1.332 11.778l-28.884-.059s0-3.332 4.638-4.072 12.782-3.455 14.161-9.5 11.417 1.853 11.417 1.853z" fill="#233862"/><path data-name="Path 7071" d="M4868.808 4752.71s1.523 18.707 3.312 41.194c2.434 30.547 5.359 68.067 5.648 75.176.5 12.339 2.507 32.089 2.507 32.089s4.767 4.689 14.288 2.712c0 0 8.491-28.185 10.917-58.006.036-.488.073-.982.112-1.472 2.243-30.359 5.763-94.287 5.763-94.287z" fill="#fca700"/><path data-name="Path 7072" d="M4868.808 4752.711s1.523 18.707 3.312 41.194l33.371 51.971c.036-.488.073-.982.112-1.472 2.243-30.359 5.763-94.287 5.763-94.287z" fill="rgba(0,0,0,0.44)"/><path data-name="Path 7073" d="M4875.762 4754.931s27.448 67.751 45.493 99.59 23.687 40.723 23.687 40.723 10.342-4.072 11.282-6.848c0 0-6.9-61.466-18.988-76.452-6.831-8.466-14.862-33.875-15.227-42.759s-2.446-26.472-2.446-26.472z" fill="#fca700"/><path data-name="Path 7074" d="M4911.875 4650.521s-18.573 8.974-29.279 5.637a25.243 25.243 0 0 1 7.249-5.8c-.373-2.148-.659-4.013-.824-5.594a51.509 51.509 0 0 1-.454-5.718l7.165-5.634 6.795-5.393c-.534 15.164 9.348 22.502 9.348 22.502z" fill="#ffb27d"/><path data-name="Path 7075" d="M4921.662 4746.182c.039 1.139-2.389 2.434-3.46 2.919-7.945 3.488-15.359 5.92-23.76 6.73-9.921 1.012-21.66-1.217-25.7-1.122a1.683 1.683 0 0 1-1.122-.446c-.281-.2-.494-12.165-.281-27.2 0-.6 0-1.211.042-1.82v-.2c.081-5.889.28-12.041.575-18.205.578-13.542 1.649-26.6 3.461-33.816 2.181-8.514 7.125-14.15 11.612-18.247l3.708-3.259a17.821 17.821 0 0 0 11.531-1.377c4.282-2.067 8.9-4.3 9.636-3.732 5.608 4.094 9.388 13.3 11.407 25.059a.943.943 0 0 0 .031.174 131.118 131.118 0 0 1 1.657 22.125c0 2.922-.084 5.92-.247 8.878a260.135 260.135 0 0 0 .281 33.617c.106 1.635.216 3.127.309 4.459.154 2.342.278 4.174.32 5.463z" fill="#016ca4"/><path data-name="Path 7076" d="M4921.022 4736.252c-30.785-35.541-11.688-61.371-11.688-61.371l10.011-3.247a131.118 131.118 0 0 1 1.657 22.125c0 2.922-.084 5.92-.247 8.878a264.167 264.167 0 0 0 .267 33.615z" fill="#024e75"/><path data-name="Path 7077" d="M4902.649 4633.816s-4.694 8.556-13.629 10.937a51.569 51.569 0 0 1-.454-5.718l7.165-5.634z" fill="#ed985f"/><path data-name="Path 7078" d="M4885.3 4638.799s17.717 2.9 19.38-7.992 5.07-17.852-6.169-20.165-14.077 1.52-15.53 5.022-2.247 22.106 2.319 23.135z" fill="#ffb27d"/><path data-name="Path 7079" d="M4911.118 4609.338c.163-.182.533-.331 1.357-.376a3.365 3.365 0 0 0-1.542-.435c-.171-1.15-.782-3.18-2.759-3.674a2.482 2.482 0 0 1 1.2 1.786c-2.288-2.35-7.193-4.061-20.771-2.989-17.894 1.4-12 12.869-9.68 14.234s8.149-2.378 12.465-2.036 5.137 6.579 6.6 7.434.889-.656 2.869-1.551 2.17 2.386 1.6 4.52 2.151 4.949 2.151 4.949l2.748-2.961c2.751-2.964 5.345-15.51 4.094-18.186-.109-.233-.217-.474-.332-.715z" fill="#2c3a64"/><path data-name="Path 7080" d="M4907.899 4646.309s11.217 5.308 16.584 13.46c8.337 12.658 18 58.788 18.18 63.062s-7.053 34.431-7.053 34.431-7.336-.485-9.229-4.187c0 0 1.467-30.987.538-32.978s-30.566-41.567-27.243-50.011 8.223-23.777 8.223-23.777z" fill="#016ca4"/></g><path data-name="Path 21037" d="M4704.852 4759.311v-10.117h1.347v4.976l4.095-4.977h1.443l-3.964 4.828 4.663 5.29h-1.815l-4.423-5.127v5.127zm12.134.171a3.328 3.328 0 0 1-2.587-1.046 4.05 4.05 0 0 1-.954-2.837 4.038 4.038 0 0 1 .954-2.833 3.333 3.333 0 0 1 2.587-1.042 3.333 3.333 0 0 1 2.587 1.042 4.038 4.038 0 0 1 .954 2.833 4.05 4.05 0 0 1-.954 2.837 3.328 3.328 0 0 1-2.588 1.046zm0-1.012a1.819 1.819 0 0 0 1.556-.752 3.525 3.525 0 0 0 .553-2.119 3.509 3.509 0 0 0-.553-2.116 1.988 1.988 0 0 0-3.109 0 3.525 3.525 0 0 0-.549 2.116 3.542 3.542 0 0 0 .549 2.119 1.81 1.81 0 0 0 1.549.752zm5.376.581v-1.24a5.321 5.321 0 0 0 2.3.656 1.468 1.468 0 0 0 .964-.314.977.977 0 0 0 .383-.786q0-.69-1.073-1.142l-.786-.335q-1.743-.725-1.743-2.085a1.861 1.861 0 0 1 .687-1.528 2.907 2.907 0 0 1 1.883-.557 8.645 8.645 0 0 1 1.538.171l.28.055v1.124a6.713 6.713 0 0 0-1.8-.335 1.563 1.563 0 0 0-.94.256.808.808 0 0 0-.352.687q0 .608.984 1.025l.649.273a4.361 4.361 0 0 1 1.559.981 1.87 1.87 0 0 1 .458 1.289 1.981 1.981 0 0 1-.772 1.606 3.028 3.028 0 0 1-1.976.629 7.452 7.452 0 0 1-2.247-.43zm10.715.26a4.163 4.163 0 0 1-1.08.171 2.133 2.133 0 0 1-1.6-.588 2.239 2.239 0 0 1-.574-1.634v-4.361h-.93v-1.012h.93v-1.347l1.347-.13v1.477h1.941v1.012h-1.941v4.112q0 1.456 1.258 1.456a2.953 2.953 0 0 0 .649-.089zm7.369-.239a8.208 8.208 0 0 1-2.317.41 3.524 3.524 0 0 1-2.68-1.089 3.938 3.938 0 0 1-1.032-2.824 4.136 4.136 0 0 1 .913-2.766 2.921 2.921 0 0 1 2.334-1.079 2.467 2.467 0 0 1 2.082.96 4.4 4.4 0 0 1 .735 2.724l-.007.41h-4.683q.294 2.639 2.591 2.639a6.109 6.109 0 0 0 2.064-.458zm-4.593-4.261h3.274q0-2.071-1.545-2.071t-1.729 2.071zm6.952 4.5v-7.424h1.346v1.395a3.108 3.108 0 0 1 2.611-1.559 2.006 2.006 0 0 1 1.542.612 2.314 2.314 0 0 1 .571 1.644v5.332h-1.347v-4.895a2.152 2.152 0 0 0-.243-1.179.905.905 0 0 0-.8-.352 2.979 2.979 0 0 0-2.331 1.62v4.806zm8.688 0v-10.794h1.347v10.794zm7 .171a3.328 3.328 0 0 1-2.587-1.046 4.05 4.05 0 0 1-.954-2.837 4.038 4.038 0 0 1 .954-2.833 3.732 3.732 0 0 1 5.175 0 4.038 4.038 0 0 1 .954 2.833 4.05 4.05 0 0 1-.954 2.837 3.328 3.328 0 0 1-2.588 1.046zm0-1.012a1.819 1.819 0 0 0 1.556-.752 3.525 3.525 0 0 0 .553-2.119 3.509 3.509 0 0 0-.553-2.116 1.988 1.988 0 0 0-3.109 0 3.525 3.525 0 0 0-.549 2.116 3.542 3.542 0 0 0 .549 2.119 1.81 1.81 0 0 0 1.55.752zm5.376.581v-1.24a5.32 5.32 0 0 0 2.3.656 1.468 1.468 0 0 0 .964-.314.977.977 0 0 0 .383-.786q0-.69-1.073-1.142l-.786-.335q-1.746-.722-1.746-2.079a1.861 1.861 0 0 1 .687-1.528 2.908 2.908 0 0 1 1.883-.557 8.645 8.645 0 0 1 1.538.171l.28.055v1.118a6.713 6.713 0 0 0-1.8-.335 1.563 1.563 0 0 0-.94.256.808.808 0 0 0-.352.687q0 .608.984 1.025l.649.273a4.36 4.36 0 0 1 1.559.981 1.87 1.87 0 0 1 .458 1.289 1.981 1.981 0 0 1-.772 1.606 3.028 3.028 0 0 1-1.976.629 7.452 7.452 0 0 1-2.243-.43zm12.852.021a8.208 8.208 0 0 1-2.317.41 3.524 3.524 0 0 1-2.68-1.089 3.938 3.938 0 0 1-1.032-2.824 4.136 4.136 0 0 1 .913-2.766 2.921 2.921 0 0 1 2.334-1.079 2.467 2.467 0 0 1 2.082.96 4.4 4.4 0 0 1 .735 2.724l-.007.41h-4.687q.294 2.639 2.591 2.639a6.109 6.109 0 0 0 2.064-.458zm-4.597-4.261h3.274q0-2.071-1.545-2.071t-1.729 2.071zm6.952 4.5v-7.424h1.347v1.395a2.514 2.514 0 0 1 2.324-1.559 2.86 2.86 0 0 1 .431.034v1.265a1.98 1.98 0 0 0-.615-.116 2.49 2.49 0 0 0-2.14 1.516v4.889zm14.8 0v-1.395a3.112 3.112 0 0 1-2.6 1.565 2.017 2.017 0 0 1-1.545-.612 2.315 2.315 0 0 1-.574-1.651v-5.331h1.347v4.895a2.169 2.169 0 0 0 .243 1.186.913.913 0 0 0 .81.352 2.976 2.976 0 0 0 2.324-1.62v-4.813h1.347v7.424zm4.047 0v-7.424h1.347v1.395a3.108 3.108 0 0 1 2.611-1.559 2.006 2.006 0 0 1 1.542.612 2.314 2.314 0 0 1 .571 1.644v5.332h-1.347v-4.895a2.152 2.152 0 0 0-.243-1.179.905.905 0 0 0-.8-.352 2.979 2.979 0 0 0-2.331 1.62v4.806zm13.46 0v-1.395a2.648 2.648 0 0 1-2.478 1.565 2.541 2.541 0 0 1-2.112-.978 4.21 4.21 0 0 1-.77-2.673 4.739 4.739 0 0 1 .873-2.98 2.89 2.89 0 0 1 4.487-.116v-4.217h1.347v10.794zm0-5.653a3.1 3.1 0 0 0-1.986-.923 1.616 1.616 0 0 0-1.431.772 3.978 3.978 0 0 0-.507 2.188q0 2.6 1.726 2.6a3 3 0 0 0 2.2-1.224zm-99.579 26.653v-1.395a3.112 3.112 0 0 1-2.6 1.565 2.017 2.017 0 0 1-1.545-.612 2.315 2.315 0 0 1-.574-1.651v-5.331h1.347v4.895a2.169 2.169 0 0 0 .243 1.186.913.913 0 0 0 .81.352 2.976 2.976 0 0 0 2.324-1.62v-4.813h1.347v7.424zm4.047 0v-7.424h1.347v1.395a3.108 3.108 0 0 1 2.613-1.559 2.006 2.006 0 0 1 1.542.612 2.314 2.314 0 0 1 .571 1.644v5.332h-1.35v-4.895a2.152 2.152 0 0 0-.243-1.179.905.905 0 0 0-.8-.352 2.979 2.979 0 0 0-2.331 1.62v4.806zm10.227 0l-2.767-7.424h1.349l2.155 5.773 2.28-5.773h1.257l-2.928 7.424zm11.149-.239a8.208 8.208 0 0 1-2.317.41 3.524 3.524 0 0 1-2.68-1.089 3.938 3.938 0 0 1-1.032-2.824 4.136 4.136 0 0 1 .913-2.766 2.921 2.921 0 0 1 2.334-1.079 2.467 2.467 0 0 1 2.082.96 4.4 4.4 0 0 1 .734 2.727l-.007.41h-4.683q.294 2.639 2.591 2.639a6.109 6.109 0 0 0 2.064-.458zm-4.594-4.261h3.278q0-2.071-1.545-2.071t-1.733 2.071zm6.952 4.5v-7.424h1.347v1.395a2.514 2.514 0 0 1 2.324-1.559 2.86 2.86 0 0 1 .431.034v1.264a1.98 1.98 0 0 0-.615-.116 2.49 2.49 0 0 0-2.14 1.516v4.89zm5.726.082v-10.876h1.347v4.765a2.659 2.659 0 0 1 2.481-1.559 2.537 2.537 0 0 1 2.109.978 4.214 4.214 0 0 1 .769 2.673 4.746 4.746 0 0 1-.872 2.977 2.888 2.888 0 0 1-4.488.12l-.164.923zm1.347-1.851a3.06 3.06 0 0 0 1.982.929 1.617 1.617 0 0 0 1.436-.775 3.978 3.978 0 0 0 .506-2.181q0-2.608-1.723-2.608a3 3 0 0 0-2.2 1.222zm7.467 1.769v-7.424h1.347v7.424zm0-8.771v-1.346h1.347v1.347zm4.047 8.771v-7.424h1.347v1.395a3.108 3.108 0 0 1 2.611-1.559 2.006 2.006 0 0 1 1.542.612 2.314 2.314 0 0 1 .571 1.644v5.332h-1.348v-4.895a2.152 2.152 0 0 0-.243-1.179.905.905 0 0 0-.8-.352 2.979 2.979 0 0 0-2.331 1.62v4.806zm13.46 0v-1.395a2.648 2.648 0 0 1-2.478 1.565 2.541 2.541 0 0 1-2.112-.978 4.21 4.21 0 0 1-.77-2.673 4.739 4.739 0 0 1 .873-2.98 2.89 2.89 0 0 1 4.487-.116v-4.217h1.347v10.794zm0-5.653a3.1 3.1 0 0 0-1.986-.923 1.616 1.616 0 0 0-1.435.776 3.978 3.978 0 0 0-.507 2.188q0 2.6 1.726 2.6a3 3 0 0 0 2.2-1.224zm4.04 5.653v-10.794h1.347v10.794zm4.047 0v-7.424h1.347v7.424zm0-8.771v-1.346h1.347v1.347zm9.2 8.545a7.949 7.949 0 0 1-2.256.4 3.2 3.2 0 0 1-2.5-1.114 4.07 4.07 0 0 1-.991-2.81 3.887 3.887 0 0 1 .981-2.823 3.636 3.636 0 0 1 2.738-1.012 9 9 0 0 1 1.941.239v1.128a6.912 6.912 0 0 0-1.856-.335 2.016 2.016 0 0 0-1.658.776 3.213 3.213 0 0 0-.621 2.068 3.063 3.063 0 0 0 .642 2.023 2.078 2.078 0 0 0 1.679.772 4.347 4.347 0 0 0 1.9-.472zm2.017.226v-10.794h1.347v4.765a3.108 3.108 0 0 1 2.611-1.559 2.006 2.006 0 0 1 1.542.612 2.314 2.314 0 0 1 .571 1.644v5.332h-1.347v-4.895a2.152 2.152 0 0 0-.243-1.179.905.905 0 0 0-.8-.352 2.979 2.979 0 0 0-2.331 1.62v4.806zm14.13-.239a8.208 8.208 0 0 1-2.317.41 3.524 3.524 0 0 1-2.68-1.089 3.938 3.938 0 0 1-1.032-2.824 4.136 4.136 0 0 1 .913-2.766 2.921 2.921 0 0 1 2.334-1.079 2.467 2.467 0 0 1 2.082.96 4.4 4.4 0 0 1 .735 2.724l-.007.41h-4.683q.294 2.639 2.591 2.639a6.109 6.109 0 0 0 2.064-.458zm-4.593-4.261h3.274q0-2.071-1.545-2.071t-1.729 2.071zm6.952 4.5v-7.424h1.347v1.395a2.514 2.514 0 0 1 2.324-1.559 2.86 2.86 0 0 1 .431.034v1.264a1.98 1.98 0 0 0-.615-.116 2.49 2.49 0 0 0-2.14 1.516v4.89zm-106.73 21v-9.044h-3.584v-1.073h8.613v1.073h-3.593v9.044zm11.929-.239a8.208 8.208 0 0 1-2.317.41 3.524 3.524 0 0 1-2.68-1.089 3.938 3.938 0 0 1-1.032-2.824 4.136 4.136 0 0 1 .913-2.766 2.921 2.921 0 0 1 2.334-1.079 2.467 2.467 0 0 1 2.082.96 4.4 4.4 0 0 1 .735 2.724l-.007.41h-4.683q.294 2.639 2.591 2.639a6.109 6.109 0 0 0 2.064-.458zm-4.594-4.261h3.274q0-2.071-1.545-2.071t-1.729 2.071zm6.681 4.24v-1.24a5.321 5.321 0 0 0 2.3.656 1.468 1.468 0 0 0 .964-.314.977.977 0 0 0 .383-.786q0-.69-1.073-1.142l-.786-.335q-1.743-.725-1.743-2.085a1.861 1.861 0 0 1 .687-1.528 2.907 2.907 0 0 1 1.883-.557 8.645 8.645 0 0 1 1.538.171l.28.055v1.121a6.713 6.713 0 0 0-1.8-.335 1.563 1.563 0 0 0-.94.256.808.808 0 0 0-.352.687q0 .608.984 1.025l.649.273a4.361 4.361 0 0 1 1.559.981 1.87 1.87 0 0 1 .458 1.289 1.981 1.981 0 0 1-.772 1.606 3.028 3.028 0 0 1-1.976.629 7.452 7.452 0 0 1-2.243-.427zm10.717.26a4.163 4.163 0 0 1-1.08.171 2.133 2.133 0 0 1-1.6-.588 2.239 2.239 0 0 1-.574-1.634v-4.361h-.93v-1.012h.93v-1.347l1.347-.13v1.477h1.941v1.012h-1.942v4.112q0 1.456 1.258 1.456a2.953 2.953 0 0 0 .649-.089zm6.61 0v-6.412h-1.053v-1.012h1.053v-.889q0-2.652 2.42-2.652a6.147 6.147 0 0 1 1.538.226v1.073a5.157 5.157 0 0 0-1.46-.287 1.087 1.087 0 0 0-.908.318 2.045 2.045 0 0 0-.243 1.179v1.032h1.859v1.012h-1.859v6.412zm9.536 0v-1.395a3.112 3.112 0 0 1-2.6 1.565 2.017 2.017 0 0 1-1.545-.612 2.315 2.315 0 0 1-.574-1.651v-5.331h1.347v4.895a2.169 2.169 0 0 0 .243 1.186.913.913 0 0 0 .81.352 2.976 2.976 0 0 0 2.324-1.62v-4.813h1.342v7.424zm-3.63-8.771v-1.182h1.183v1.183zm2.7 0v-1.182h1.183v1.183zm4.977 8.771v-7.424h1.347v1.395a2.514 2.514 0 0 1 2.324-1.559 2.86 2.86 0 0 1 .431.034v1.264a1.98 1.98 0 0 0-.615-.116 2.49 2.49 0 0 0-2.14 1.516v4.89zm10.233-.075v-1.265a6.594 6.594 0 0 0 2.273.581 2.239 2.239 0 0 0 1.584-.561 1.905 1.905 0 0 0 .606-1.465q0-2.136-2.993-2.136h-.533v-.9l.473-.007q2.809 0 2.809-1.976 0-1.552-1.862-1.552a5.273 5.273 0 0 0-2.219.574v-1.185a7.2 7.2 0 0 1 2.3-.4 3.828 3.828 0 0 1 2.317.6 2.039 2.039 0 0 1 .807 1.742 2.667 2.667 0 0 1-2.105 2.54q2.447.568 2.447 2.681a2.806 2.806 0 0 1-.943 2.243 3.836 3.836 0 0 1-2.591.814 10.972 10.972 0 0 1-2.37-.328zm14.479.075l-2.6-10.117h1.378l2.07 7.985 1.911-7.985h1.381l1.795 7.878 2.23-7.878h1.173l-2.837 10.117h-1.436l-1.773-7.783-1.87 7.783zm13.658.171a3.328 3.328 0 0 1-2.587-1.046 4.692 4.692 0 0 1 0-5.67 3.732 3.732 0 0 1 5.175 0 4.692 4.692 0 0 1 0 5.67 3.328 3.328 0 0 1-2.588 1.046zm0-1.012a1.819 1.819 0 0 0 1.556-.752 4.332 4.332 0 0 0 0-4.235 1.988 1.988 0 0 0-3.109 0 4.355 4.355 0 0 0 0 4.235 1.81 1.81 0 0 0 1.55.752zm10.8.615a7.949 7.949 0 0 1-2.256.4 3.2 3.2 0 0 1-2.5-1.114 4.07 4.07 0 0 1-.991-2.81 3.887 3.887 0 0 1 .981-2.823 3.636 3.636 0 0 1 2.738-1.012 9 9 0 0 1 1.941.239v1.128a6.912 6.912 0 0 0-1.856-.335 2.016 2.016 0 0 0-1.658.776 3.213 3.213 0 0 0-.621 2.068 3.063 3.063 0 0 0 .642 2.023 2.078 2.078 0 0 0 1.679.772 4.347 4.347 0 0 0 1.9-.472zm2.02.226v-10.794h1.347v4.765a3.108 3.108 0 0 1 2.611-1.559 2.006 2.006 0 0 1 1.542.612 2.314 2.314 0 0 1 .571 1.644v5.332h-1.347v-4.895a2.152 2.152 0 0 0-.243-1.179.905.905 0 0 0-.8-.352 2.979 2.979 0 0 0-2.331 1.62v4.806zm14.13-.239a8.208 8.208 0 0 1-2.317.41 3.524 3.524 0 0 1-2.68-1.089 3.938 3.938 0 0 1-1.032-2.824 4.136 4.136 0 0 1 .913-2.766 2.921 2.921 0 0 1 2.334-1.079 2.467 2.467 0 0 1 2.082.96 4.4 4.4 0 0 1 .735 2.724l-.007.41h-4.683q.294 2.639 2.591 2.639a6.109 6.109 0 0 0 2.064-.458zm-4.596-4.261h3.274q0-2.071-1.545-2.071t-1.729 2.071zm6.952 4.5v-7.424h1.347v1.395a3.108 3.108 0 0 1 2.611-1.559 2.006 2.006 0 0 1 1.542.612 2.314 2.314 0 0 1 .571 1.644v5.332h-1.347v-4.895a2.152 2.152 0 0 0-.243-1.179.905.905 0 0 0-.8-.352 2.979 2.979 0 0 0-2.331 1.62v4.806z" fill="#1c6374"/></g></svg>