<svg xmlns="http://www.w3.org/2000/svg" width="260" height="180.788"><defs><filter id="a" x="0" y="14.795" width="97" height="56" filterUnits="userSpaceOnUse"><feOffset/><feGaussianBlur stdDeviation="5" result="blur"/><feFlood flood-opacity=".212"/><feComposite operator="in" in2="blur"/><feComposite in="SourceGraphic"/></filter><filter id="b" x="67" y="39.795" width="41" height="41" filterUnits="userSpaceOnUse"><feOffset/><feGaussianBlur stdDeviation="5" result="blur-2"/><feFlood flood-opacity=".212"/><feComposite operator="in" in2="blur-2"/><feComposite in="SourceGraphic"/></filter><filter id="c" x="67" y="57.795" width="36" height="36" filterUnits="userSpaceOnUse"><feOffset/><feGaussianBlur stdDeviation="5" result="blur-3"/><feFlood flood-opacity=".212"/><feComposite operator="in" in2="blur-3"/><feComposite in="SourceGraphic"/></filter><filter id="d" x="163" y="23.795" width="97" height="57" filterUnits="userSpaceOnUse"><feOffset/><feGaussianBlur stdDeviation="5" result="blur-4"/><feFlood flood-opacity=".212"/><feComposite operator="in" in2="blur-4"/><feComposite in="SourceGraphic"/></filter><filter id="e" x="152" y="47.795" width="41" height="42" filterUnits="userSpaceOnUse"><feOffset/><feGaussianBlur stdDeviation="5" result="blur-5"/><feFlood flood-opacity=".212"/><feComposite operator="in" in2="blur-5"/><feComposite in="SourceGraphic"/></filter><filter id="f" x="156" y="67.795" width="37" height="35" filterUnits="userSpaceOnUse"><feOffset/><feGaussianBlur stdDeviation="5" result="blur-6"/><feFlood flood-opacity=".212"/><feComposite operator="in" in2="blur-6"/><feComposite in="SourceGraphic"/></filter></defs><g data-name="Group 663"><path data-name="Path 8445" d="M197.648 98.687c.036.044-.157.254-.435.468s-.528.351-.564.306.161-.258.435-.472.527-.366.564-.302z" fill="#e0e0e0"/><path data-name="Path 8446" d="M197.454 96.881c.024.052-.29.23-.726.262s-.77-.1-.754-.153a2.97 2.97 0 0 1 .742-.056c.399-.029.718-.109.738-.053z" fill="#e0e0e0"/><path data-name="Rectangle 631" fill="#ebebeb" d="M59.858 2.08h68.316v122.728H59.858z"/><path data-name="Rectangle 632" fill="#fafafa" d="M62.587 5.64h62.152v115.511H62.587z"/><path data-name="Path 8452" d="M131.064 125.92l-2.891-1.109V0h2.891z" fill="#e0e0e0"/><path data-name="Path 8453" d="M77.827 80.254l16.127-15c2.048-1.9 4.721-3.951 7.35-3.012 1.266.452 2.217 1.532 3.459 2.048 2.479 1.032 5.31-.46 7.213-2.35s3.411-4.257 5.721-5.644 5.894-1.209 7.035 1.234v16.328l-23.46 10.043z" fill="#f5f5f5"/><path data-name="Path 8454" d="M62.587 70.868c5.951-2.419 11.885-.363 16.127 4.435a9.759 9.759 0 0 0 2.943 2.742c1.669.754 3.592.189 5.415 0a13.6 13.6 0 0 1 12.8 6.2l-19.86 9.77-17.441-.129z" fill="#e0e0e0"/><path data-name="Path 8455" d="M124.743 70.953c-3.919-1.895-7.366.4-10.982 2.822s-6.959 5.523-11.212 6.5c-2.822.649-5.866.29-8.608 1.266-5.58 1.984-8.805 9.071-14.716 9.41-3.225.181-6.092-1.766-8.958-3.225s-5.124-2.846-7.66-.891v34.317h62.136z" fill="#ebebeb"/><path data-name="Rectangle 633" fill="#e0e0e0" d="M62.587 38.869h63.503v1.23H62.587z"/><path data-name="Rectangle 634" fill="#e0e0e0" d="M62.587 66.377h63.503v1.23H62.587z"/><path data-name="Rectangle 635" fill="#e0e0e0" d="M62.587 93.885h63.503v1.23H62.587z"/><path data-name="Rectangle 636" fill="#e0e0e0" d="M92.095 124.429V39.486h3.141v84.943z"/><path data-name="Rectangle 637" fill="#e0e0e0" d="M74.557 5.64h1.423v33.846h-1.423z"/><path data-name="Rectangle 638" fill="#e0e0e0" d="M86.825 5.64h1.423v33.846h-1.423z"/><path data-name="Rectangle 639" fill="#e0e0e0" d="M99.098 5.64h1.423v33.846h-1.423z"/><path data-name="Rectangle 640" fill="#e0e0e0" d="M111.366 5.64h1.423v33.846h-1.423z"/><path data-name="Rectangle 641" fill="#e0e0e0" d="M56.971 0h2.891v125.57h-2.891z"/><path data-name="Rectangle 643" fill="#e0e0e0" d="M54.919 126.328h78.101v3.121H54.919z"/><path data-name="Path 8456" d="M128.174 124.808l4.846 1.52H54.919l4.939-1.52z" fill="#ebebeb"/><path data-name="Path 8457" d="M228.7 148.615c0 .06-43.272.1-96.639.1s-96.647-.028-96.647-.1 43.26-.1 96.647-.1 96.639.055 96.639.1z" fill="#263238"/><path data-name="Path 8458" d="M170.474 130.566a21.98 21.98 0 0 0-4.54.673c-1.262.5-7.326 3.391-7.326 3.391s-8.217 3.5-9.857 4.435c-2.1 1.181-6.753 2.508-5.882 9.8h8.156l3.387-5.161 3.907.206 7.628 4.749h52.871s.927-7.515-2.883-10.712-18.739-6.6-18.739-6.6a66.144 66.144 0 0 0-6.523-1.117z" fill="#00486e"/><g data-name="Group 632"><path data-name="Path 8459" d="M164.821 141.164a4.862 4.862 0 0 1 5.241 2.512 6.412 6.412 0 0 0 1.282 2.314 3.713 3.713 0 0 0 2.4.6l6.761.157a3.181 3.181 0 0 0 1.685-.266c.831-.468 1.064-1.524 1.455-2.395a6.511 6.511 0 0 1 3.677-3.3 9.676 9.676 0 0 1 5-.367c1.1.185 2.342.48 3.225-.186a5.752 5.752 0 0 0 1.209-1.786c.375-.617 1.089-1.181 1.778-.951.927.306 1.109 1.818 2.076 1.947a3.668 3.668 0 0 0 1.25-.294c.419-.1 3.745-.883 3.709-.452 0 0-2.915 1.58-3.08 1.726-3.29 2.891-6.608 5.6-9.9 8.487l-31.274-.351z" opacity=".3"/></g><path data-name="Path 8460" d="M198.272 134.952a1.353 1.353 0 0 0-.254-.028.746.746 0 0 0-.556.347 8.813 8.813 0 0 0-1.008 2.133 12.525 12.525 0 0 0-.476 3.318 3.037 3.037 0 0 1-.1-1 7.884 7.884 0 0 1 .379-2.387 7.392 7.392 0 0 1 1.089-2.165.83.83 0 0 1 .673-.335c.185.02.261.109.253.117z" fill="#263238"/><path data-name="Path 8461" d="M164.725 142.97a1.552 1.552 0 0 1-.161-.4 8.27 8.27 0 0 1-.23-1.169 22.58 22.58 0 0 1-.056-3.923c.093-1.528.25-2.9.4-3.9.069-.5.133-.9.181-1.169a1.681 1.681 0 0 1 .1-.427 2.089 2.089 0 0 1-.02.435l-.113 1.181c-.1 1-.238 2.371-.331 3.891a27.693 27.693 0 0 0 0 3.895c.065.965.263 1.556.23 1.586z" fill="#263238"/><path data-name="Path 8462" d="M154.11 142.971a8.575 8.575 0 0 0-2.056-2.113 8.712 8.712 0 0 0-2.725-1.109 2.314 2.314 0 0 1 .879.085 5.911 5.911 0 0 1 1.963.851 5.75 5.75 0 0 1 1.528 1.5 2.386 2.386 0 0 1 .411.786z" fill="#263238"/><path data-name="Path 8463" d="M212.221 137.302c0 .036-.613.052-1.613.149a15.949 15.949 0 0 0-3.737.806 21.839 21.839 0 0 0-3.459 1.665 14.469 14.469 0 0 1-1.4.782 2.114 2.114 0 0 1 .341-.269c.226-.161.56-.379.98-.645a18.444 18.444 0 0 1 3.463-1.734 14.11 14.11 0 0 1 3.8-.774c.5-.028.9-.04 1.173-.028a1.835 1.835 0 0 1 .452.048z" fill="#263238"/><path data-name="Path 8464" d="M204.583 137.21a8.35 8.35 0 0 1-.786.3 6.1 6.1 0 0 0-2.975 2.572c-.262.443-.379.746-.4.734a2.225 2.225 0 0 1 .278-.806 5.326 5.326 0 0 1 3.06-2.645 2.135 2.135 0 0 1 .823-.155z" fill="#263238"/><path data-name="Path 8465" d="M152.647 141.507c0 .036-.556.177-1.427.5a8.064 8.064 0 0 0-3.052 1.871 4.677 4.677 0 0 0-1.318 3.225 4.837 4.837 0 0 0 .314 1.455 1.418 1.418 0 0 1-.206-.355 3.152 3.152 0 0 1-.254-1.093 4.62 4.62 0 0 1 1.31-3.387 7.66 7.66 0 0 1 3.157-1.867 10.815 10.815 0 0 1 1.072-.294 1.613 1.613 0 0 1 .404-.055z" fill="#263238"/><path data-name="Path 8466" d="M204.921 148.615a10.238 10.238 0 0 0 .4-1.234 7.938 7.938 0 0 0 .024-3.1 5.083 5.083 0 0 0-.564-1.613 3.761 3.761 0 0 0-.911-1.036c-.633-.488-1.08-.718-1.06-.75a1.076 1.076 0 0 1 .327.137 5.944 5.944 0 0 1 .806.5 3.629 3.629 0 0 1 .988 1.052 5.1 5.1 0 0 1 .609 1.657 7.423 7.423 0 0 1-.089 3.169 4.277 4.277 0 0 1-.343.907c-.099.234-.175.335-.187.311z" fill="#263238"/><path data-name="Path 8467" d="M175.401 135.061v-.113c-4.584-.6-6.7-5.019-7-10.309a65.986 65.986 0 0 1-.089-9.12 47.72 47.72 0 0 1 1.54-10.623 12.89 12.89 0 0 1 10.728-4.132c7.015.528 10.664 9.954 10.664 9.954s-.048 14.324-.464 17.219a23.583 23.583 0 0 0-.351 3.927l-.165 3.54a7.438 7.438 0 0 1-7.43 7.1 7.434 7.434 0 0 1-7.433-7.443z" fill="#ffbe9d"/><path data-name="Path 8468" d="M190.895 119.696c.121-.052 4.927-1.5 4.806 3.419s-5.027 3.778-5.032 3.628.226-7.047.226-7.047z" fill="#ffbe9d"/><path data-name="Path 8469" d="M192.213 124.929c.024 0 .085.06.23.129a.831.831 0 0 0 .637.028 2.116 2.116 0 0 0 1.028-1.875 2.822 2.822 0 0 0-.21-1.234.98.98 0 0 0-.629-.669.427.427 0 0 0-.508.222c-.073.133-.044.234-.069.242s-.1-.085-.06-.286a.572.572 0 0 1 .2-.306.645.645 0 0 1 .476-.113 1.209 1.209 0 0 1 .879.786 2.923 2.923 0 0 1 .262 1.375 2.222 2.222 0 0 1-1.3 2.092.911.911 0 0 1-.778-.149c-.15-.125-.175-.234-.158-.242z" fill="#eb996e"/><path data-name="Path 8470" d="M171.099 118.414c.133.141.939-.468 2.092-.472s2.016.564 2.121.423c.06-.065-.077-.314-.444-.581a2.931 2.931 0 0 0-1.7-.508 2.823 2.823 0 0 0-1.665.548c-.352.276-.468.53-.404.59z" fill="#263238"/><path data-name="Path 8471" d="M182.383 118.22c.137.137.943-.468 2.092-.476s2.016.564 2.125.423c.06-.065-.077-.314-.448-.581a2.951 2.951 0 0 0-1.7-.508 2.822 2.822 0 0 0-1.661.548c-.353.274-.472.53-.408.594z" fill="#263238"/><path data-name="Path 8472" d="M183.578 114.539c.061.242.758.27 1.52.516s1.359.589 1.548.423c.085-.085.036-.306-.181-.573a2.471 2.471 0 0 0-2.419-.738c-.327.098-.495.255-.468.372z" fill="#263238"/><path data-name="Path 8473" d="M171.817 114.084a2.128 2.128 0 0 0 1.657.081c.714-.177 1.133-.5.935-.726a2.13 2.13 0 0 0-1.657-.077c-.714.182-1.133.5-.935.722z" fill="#263238"/><path data-name="Path 8474" d="M179.638 127.013c0 .069.137.19.443.234a1.613 1.613 0 0 0 1.758-1.334c.044-.306-.032-.488-.1-.488-.145 0-.262.649-.835 1.076s-1.234.371-1.266.512z" fill="#263238"/><path data-name="Path 8475" d="M175.397 134.947s5.89.093 7.281-.923c0 0-.887 2.822-7.124 2.528z" fill="#eb996e"/><path data-name="Path 8476" d="M165.41 109.77c-.073-1.153-.423-2.282-.427-3.439a6.237 6.237 0 0 1 2.1-4.56 7.426 7.426 0 0 1 4.729-1.814 31.908 31.908 0 0 0 3.874.052 32.821 32.821 0 0 0 3.165-.911 8.063 8.063 0 0 1 6.491 1.21 22.434 22.434 0 0 1 5.032 4.54s5.031.149 4.806 7.2-.722 7.938-.722 7.938l-1.661-.5a3.389 3.389 0 0 1-.161 2.391 1.286 1.286 0 0 1-1.133.665c-.972-.048-1.294-1.169-1.4-2.076q-.444-3.6-.54-7.221c-.02-.677-.165-1.532-.806-1.689a2.439 2.439 0 0 0-1.149.222 2.141 2.141 0 0 1-2.141-.685c-.081.923-1.33 1.339-2.169.947a4.424 4.424 0 0 1-1.778-2.064 3.721 3.721 0 0 1-.117 1.524 1.262 1.262 0 0 1-1.145.879c-.6-.028-1-.6-1.282-1.129a14.108 14.108 0 0 1-1.395-4.068 8.531 8.531 0 0 1-3.556 5.414l-.625-1.85a3.647 3.647 0 0 1-.875.98 1.246 1.246 0 0 1-1.25.165.806.806 0 0 1-.4-.774 1.431 1.431 0 0 1-1.867.468 1.54 1.54 0 0 1-.548-.589 44.036 44.036 0 0 1-.194 10.918l-1.653-3.729a14.469 14.469 0 0 1-1.21-7.055 9.551 9.551 0 0 0 .016-1.359z" fill="#263238"/><path data-name="Path 8477" d="M190.023 105.802c.032 0 .093-.323.351-.778a3.225 3.225 0 0 1 1.492-1.33 3.153 3.153 0 0 1 1.992-.125c.508.133.786.319.806.29s-.056-.065-.181-.145a2.717 2.717 0 0 0-.6-.254 3.06 3.06 0 0 0-2.1.081 3.1 3.1 0 0 0-1.532 1.435 2.484 2.484 0 0 0-.218.6c-.02.142-.02.226-.01.226z" fill="#263238"/><path data-name="Path 8478" d="M189.399 105.658a1.334 1.334 0 0 0 .214-.153 3.164 3.164 0 0 0 .484-.52 3.975 3.975 0 0 0 .242-4.459 3.536 3.536 0 0 0-.427-.573c-.113-.121-.185-.177-.194-.169a7.324 7.324 0 0 1 .512.806 4.128 4.128 0 0 1-.234 4.326c-.33.48-.617.718-.597.742z" fill="#263238"/><path data-name="Path 8479" d="M177.412 120.961c-.073-.02-.21.234-.371.661-.081.21-.169.468-.258.754l-.137.448a2.3 2.3 0 0 0-.121.552.879.879 0 0 0 .234.657 1 1 0 0 0 .556.278 1.128 1.128 0 0 0 .524-.044 1.58 1.58 0 0 0 .379-.2c.4-.319.512-.577.472-.625s-.3.117-.669.3a.923.923 0 0 1-.617.085.523.523 0 0 1-.262-.149.354.354 0 0 1-.081-.278 1.953 1.953 0 0 1 .089-.431c.036-.157.069-.31.1-.464.064-.294.113-.56.149-.786.078-.451.082-.742.013-.758z" fill="#263238"/><path data-name="Path 8480" d="M192.677 113.245a1.393 1.393 0 0 0 .06-.347c.028-.222.065-.548.1-.952a10.627 10.627 0 0 0-.169-3.157 5.318 5.318 0 0 0-1.54-2.75 3.449 3.449 0 0 0-.806-.548 1.209 1.209 0 0 0-.331-.125 6.45 6.45 0 0 1 1.04.766 5.519 5.519 0 0 1 1.451 2.7 11.908 11.908 0 0 1 .2 3.1 11.021 11.021 0 0 0 0 1.318z" fill="#455a64"/><path data-name="Path 8481" d="M188.399 111.419a2.786 2.786 0 0 0 .577-.71 6.5 6.5 0 0 0 .871-2.016 6.574 6.574 0 0 0 .149-2.2 2.774 2.774 0 0 0-.19-.891c-.028 0 .036.347.065.9a7.556 7.556 0 0 1-.2 2.149 7.782 7.782 0 0 1-.806 2.016 8.763 8.763 0 0 0-.466.752z" fill="#455a64"/><path data-name="Path 8482" d="M177.788 107.089a.724.724 0 0 0 0-.169v-.484a14.3 14.3 0 0 1 .137-1.766 5.241 5.241 0 0 1 .947-2.391 3.4 3.4 0 0 1 1.161-.96 4.434 4.434 0 0 1 1.572-.431 6.16 6.16 0 0 1 3.1.56 7.22 7.22 0 0 1 1.209.706 7.331 7.331 0 0 1 .911.806 6.37 6.37 0 0 1 1.028 1.423c.2.367.282.585.3.581s0-.06-.048-.165a4.185 4.185 0 0 0-.185-.447 6.2 6.2 0 0 0-1-1.48 7.176 7.176 0 0 0-.911-.839 7.351 7.351 0 0 0-1.21-.738 6.233 6.233 0 0 0-3.185-.589 4.434 4.434 0 0 0-1.633.456 3.455 3.455 0 0 0-1.21 1.016 5.217 5.217 0 0 0-.943 2.471 11.1 11.1 0 0 0-.081 1.782v.484a.552.552 0 0 0 .041.174z" fill="#455a64"/><path data-name="Path 8483" d="M172.147 108.154a.572.572 0 0 0 .052-.169l.109-.488c.1-.427.23-1.044.448-1.79a10.584 10.584 0 0 1 1.04-2.508 5.579 5.579 0 0 1 2.379-2.229 7.334 7.334 0 0 1 3.225-.661 13.076 13.076 0 0 1 2.7.339c.758.169 1.367.339 1.79.448l.484.129a.088.088 0 1 0 .012-.036l-.48-.157c-.4-.133-1.02-.323-1.778-.5a12.46 12.46 0 0 0-2.729-.4 7.346 7.346 0 0 0-3.3.669 5.644 5.644 0 0 0-2.439 2.3 10.175 10.175 0 0 0-1.02 2.556c-.206.758-.318 1.383-.4 1.81-.036.218-.06.383-.077.5a.807.807 0 0 0-.016.187z" fill="#455a64"/><path data-name="Path 8484" d="M169.381 109.081c.028 0-.04-.544-.109-1.415a7.556 7.556 0 0 1 .367-3.342 3.81 3.81 0 0 1 1.036-1.5 2.951 2.951 0 0 1 2.713-.649.614.614 0 0 0-.089-.048 1.613 1.613 0 0 0-.27-.089 2.478 2.478 0 0 0-1.052 0 3.1 3.1 0 0 0-1.407.673 3.852 3.852 0 0 0-1.1 1.564 7.108 7.108 0 0 0-.327 3.415c.048.439.1.806.149 1.032a1.491 1.491 0 0 0 .089.359z" fill="#455a64"/><path data-name="Path 8485" d="M185.183 123.776c.048 0 .065-.125.04-.258s-.089-.234-.137-.222-.065.125-.036.258.087.23.133.222z" fill="#eb996e"/><path data-name="Path 8486" d="M183.13 123.345a.149.149 0 0 0 .133-.117c.024-.081 0-.153-.036-.169s-.1.036-.129.113-.012.157.032.173z" fill="#eb996e"/><path data-name="Path 8487" d="M184.174 124.586c.048 0 .1-.1.113-.23s0-.242-.068-.25-.1.1-.109.234.016.242.064.246z" fill="#eb996e"/><path data-name="Path 8488" d="M186.766 124.35c.044 0 .052-.133 0-.266s-.109-.226-.157-.214-.052.133 0 .266.106.224.157.214z" fill="#eb996e"/><path data-name="Path 8489" d="M173.091 123.296c.048 0 .1-.085.109-.206s0-.218-.064-.226-.1.089-.109.206.012.222.064.226z" fill="#eb996e"/><path data-name="Path 8490" d="M171.168 123.248c.048 0 .089-.109.089-.238s-.04-.242-.089-.242-.089.109-.089.242.04.238.089.238z" fill="#eb996e"/><path data-name="Path 8491" d="M169.574 123.151c.048 0 .109-.093.137-.222s0-.25-.04-.258-.109.089-.133.222-.012.246.036.258z" fill="#eb996e"/><path data-name="Path 8492" d="M172.075 124.869c.048 0 .056-.129 0-.262s-.113-.23-.157-.214-.052.133 0 .262.113.233.157.214z" fill="#eb996e"/><path data-name="Path 8493" d="M170.268 124.635c.048 0 .1-.073.109-.177s0-.2-.064-.2-.1.073-.109.177.016.196.064.2z" fill="#eb996e"/><path data-name="Path 8494" d="M182.929 119.901a1.06 1.06 0 0 0 .935 1.149 1.012 1.012 0 0 0 1.165-.863 1.06 1.06 0 0 0-.931-1.149 1.012 1.012 0 0 0-1.169.863z" fill="#263238"/><path data-name="Path 8495" d="M172.353 120.123a1.056 1.056 0 0 0 .931 1.149 1.012 1.012 0 0 0 1.165-.863 1.056 1.056 0 0 0-.931-1.149 1.008 1.008 0 0 0-1.165.863z" fill="#263238"/><path data-name="Path 8496" d="M163.185 150.08l-13.3 13.054h30.77a5.3 5.3 0 0 1 4.592-2.387c2.979.218 16.369 3.927 20.4 3.266l-3.528-14.474s-10.652-3.088-16.715-1.919a8.769 8.769 0 0 0-4.435 2.338z" fill="#fafafa"/><path data-name="Path 8497" d="M163.185 150.079h.742l2.169-.028 8.184-.085 5.8-.052h.907c-.1.04-.02 0-.04 0l.04-.089.149-.141c.1-.089.2-.181.31-.27a8.868 8.868 0 0 1 1.387-.947 8.588 8.588 0 0 1 3.354-1.048 20.845 20.845 0 0 1 3.737-.109 35.381 35.381 0 0 1 3.923.4 67.6 67.6 0 0 1 8.269 1.746h.052v.056c1.1 4.5 2.294 9.382 3.536 14.47l.028.117h-.113a9.671 9.671 0 0 1-1.278.073h-.641l-.641-.048c-.431-.028-.859-.077-1.286-.133s-.863-.1-1.294-.173a104.006 104.006 0 0 1-5.217-.951c-2.661-.54-5.265-1.145-7.833-1.657a8.241 8.241 0 0 0-3.8-.2 5.471 5.471 0 0 0-2.935 2.177l-.032.048h-.052l-30.77-.028h-.177l.129-.125 9.825-9.543 2.657-2.576.689-.661.238-.222-.23.242-.681.681-2.637 2.603-9.724 9.575-.052-.125 30.77-.028-.089.048a5.645 5.645 0 0 1 3.052-2.274 4.839 4.839 0 0 1 1.955-.125c.653.073 1.294.2 1.939.322 2.572.512 5.177 1.117 7.838 1.657 1.746.359 3.483.689 5.2.947.427.073.859.129 1.286.177s.851.1 1.278.129l.633.052h.633a9.108 9.108 0 0 0 1.246-.065l-.085.125c-1.238-5.088-2.419-9.974-3.52-14.474l.064.069a67.773 67.773 0 0 0-8.237-1.754 40.628 40.628 0 0 0-3.907-.4 20.906 20.906 0 0 0-3.709.1 8.441 8.441 0 0 0-3.3 1.02 9.031 9.031 0 0 0-1.367.927c-.1.085-.2.177-.306.266l-.145.137-.073.069c-.024 0 .044 0-.06.028h-.883l-5.785.028-8.18.028h-2.737z" fill="#263238"/><path data-name="Path 8498" d="M180.634 163.129c-.06 0 0-2.967.093-6.62s.246-6.62.3-6.616 0 2.963-.093 6.62-.244 6.616-.3 6.616z" fill="#263238"/><path data-name="Path 8499" d="M176.393 160.637a2.25 2.25 0 0 0-.738-.907 2.943 2.943 0 0 0-1.294-.516 5.71 5.71 0 0 0-1.879.081 39.88 39.88 0 0 1-11.462.806l-.242-.02.185-.157a19.287 19.287 0 0 1 10.043-4.455c.367-.044.73-.085 1.093-.109a2.136 2.136 0 0 1 1.1.1.6.6 0 0 1 .355.484.693.693 0 0 1-.218.544 2.745 2.745 0 0 1-.919.524 8.289 8.289 0 0 1-3.8.568 8 8 0 0 1-1.717-.331 5.434 5.434 0 0 1-.778-.294 2.552 2.552 0 0 1-.661-.46 1.27 1.27 0 0 1-.4-.669.939.939 0 0 1 .165-.722 2.93 2.93 0 0 1 1.093-.742 16.746 16.746 0 0 1 1.931-.782 14.648 14.648 0 0 1 1.601-.432.372.372 0 0 1 .117 0 .438.438 0 0 1-.113.036l-.327.093c-.29.081-.714.206-1.25.4a17.863 17.863 0 0 0-1.907.806 2.823 2.823 0 0 0-1.036.714.807.807 0 0 0-.137.617 1.141 1.141 0 0 0 .363.593 2.482 2.482 0 0 0 .625.427 5.94 5.94 0 0 0 .754.274 7.779 7.779 0 0 0 1.689.314 8.127 8.127 0 0 0 3.709-.572 2.608 2.608 0 0 0 .847-.484.5.5 0 0 0 .165-.4.4.4 0 0 0-.246-.323 1.967 1.967 0 0 0-1-.085c-.355.024-.718.065-1.081.113a18.872 18.872 0 0 0-4.37 1.113 19.065 19.065 0 0 0-5.556 3.29l-.056-.177a41.006 41.006 0 0 0 11.422-.73 5.674 5.674 0 0 1 1.919-.056 3 3 0 0 1 1.318.556 2.1 2.1 0 0 1 .585.677 1.019 1.019 0 0 1 .109.286z" fill="#263238"/><path data-name="Path 8500" d="M204.368 163.935a.576.576 0 0 1 .065.1l.165.314c.145.3.351.706.6 1.21l.028.052-.06.02a16.8 16.8 0 0 1-4.943.722 17.178 17.178 0 0 1-6.961-1.528c-1.766-.806-3.374-1.689-4.939-2.25a9.728 9.728 0 0 0-4.306-.681 6.108 6.108 0 0 0-2.778.947 7.355 7.355 0 0 0-.851.677 3.268 3.268 0 0 1 .806-.746 5.991 5.991 0 0 1 2.822-1.028 9.761 9.761 0 0 1 4.386.649c1.588.56 3.205 1.456 4.959 2.238a17.3 17.3 0 0 0 6.882 1.54 17.591 17.591 0 0 0 4.882-.625l-.032.073c-.238-.528-.423-.939-.564-1.246-.052-.129-.1-.234-.137-.323a.371.371 0 0 1-.024-.115z" fill="#263238"/><path data-name="Path 8501" d="M186.899 156.4a22.256 22.256 0 0 1-.161-4.314 22.258 22.258 0 0 1 .161 4.314z" fill="#263238"/><path data-name="Path 8502" d="M191.064 158.98a7.011 7.011 0 0 1-.9-.568 25.1 25.1 0 0 0-2.193-1.294 29.234 29.234 0 0 0-2.318-1.06 6.365 6.365 0 0 1-.976-.4 4.542 4.542 0 0 1 1.028.27 16.572 16.572 0 0 1 2.363 1.016 16.327 16.327 0 0 1 2.185 1.351 4.255 4.255 0 0 1 .811.685z" fill="#263238"/><path data-name="Path 8503" d="M197.724 155.904a32.591 32.591 0 0 1-3.326 1.613 33.221 33.221 0 0 1-3.411 1.427 33.114 33.114 0 0 1 3.326-1.613 32.175 32.175 0 0 1 3.411-1.427z" fill="#263238"/><path data-name="Path 8504" d="M195.095 156.735a20.209 20.209 0 0 1-.065-2.907 20.527 20.527 0 0 1 .141-2.907 20.451 20.451 0 0 1 .069 2.907 20.913 20.913 0 0 1-.145 2.907z" fill="#263238"/><path data-name="Path 8505" d="M193.484 158.726c-.06 0-.125-.157-.149-.363s0-.379.065-.4.121.157.145.363.003.392-.061.4z" fill="#263238"/><path data-name="Path 8506" d="M194.132 158.641c-.056 0-.121-.234-.141-.532s0-.54.065-.548.125.238.145.536-.009.54-.069.544z" fill="#263238"/><path data-name="Path 8507" d="M193.919 159.722c.024 0 .073.214.266.528a.734.734 0 0 0 .512.339.351.351 0 0 0 .314-.125.29.29 0 0 0 .052-.339l.149-.089a1.475 1.475 0 0 0 1 .657 1.33 1.33 0 0 0 1.254-.431 1.383 1.383 0 0 0 .181-1.669 1.036 1.036 0 0 0-.617-.443 1.547 1.547 0 0 0-.693 0 2.959 2.959 0 0 0-.939.443 1.844 1.844 0 0 1-.335.206 1.878 1.878 0 0 1 .286-.27 2.669 2.669 0 0 1 .951-.524 1.689 1.689 0 0 1 .77-.024 1.21 1.21 0 0 1 .738.508 1.451 1.451 0 0 1 .242.951 1.657 1.657 0 0 1-.431.964 1.524 1.524 0 0 1-1.443.488 1.637 1.637 0 0 1-1.109-.766l.149-.093a.464.464 0 0 1-.081.536.5.5 0 0 1-.439.141.807.807 0 0 1-.581-.423 1.816 1.816 0 0 1-.161-.423c-.039-.085-.043-.138-.035-.142z" fill="#263238"/><path data-name="Path 8508" d="M201.244 158.102a.33.33 0 0 1 .21-.056.7.7 0 0 1 .512.286.806.806 0 0 1 .1.875 1.085 1.085 0 0 1-.939.52 1.145 1.145 0 0 1-.955-.488.806.806 0 0 1-.065-.875.71.71 0 0 1 .468-.359.474.474 0 0 1 .214 0 .479.479 0 0 0-.194.056.722.722 0 0 0-.359.351.677.677 0 0 0 .1.693.964.964 0 0 0 .806.4.9.9 0 0 0 .774-.4.649.649 0 0 0-.048-.689.674.674 0 0 0-.4-.294c-.144-.02-.22 0-.224-.02z" fill="#263238"/><path data-name="Path 8509" d="M200.945 157.315c-.056 0-.121-.274-.145-.617s0-.625.06-.629.125.27.149.617-.003.625-.064.629z" fill="#263238"/><path data-name="Path 8510" d="M201.203 160.964c-.056 0-.1-.2-.1-.456s.048-.456.1-.456.1.206.1.456-.035.456-.1.456z" fill="#263238"/><path data-name="Path 8511" d="M199.882 159.473c.04.04-.145.31-.423.609s-.532.508-.573.468.145-.31.4-.609.551-.509.596-.468z" fill="#263238"/><path data-name="Path 8512" d="M203.356 160.306c-.032.048-.258-.048-.5-.218s-.423-.343-.4-.4.258.052.508.218.424.36.392.4z" fill="#263238"/><path data-name="Path 8513" d="M203.368 158.226c0 .056-.157.157-.4.226s-.427.081-.443.024.153-.157.4-.226.423-.08.443-.024z" fill="#263238"/><path data-name="Path 8514" d="M202.719 156.831c.048.036-.048.23-.21.435s-.335.339-.379.3.048-.23.214-.435.331-.336.375-.3z" fill="#263238"/><path data-name="Path 8515" d="M199.889 157.634c-.032.048-.242-.024-.468-.161s-.4-.29-.363-.343.242.024.472.161.407.29.359.343z" fill="#263238"/><path data-name="Path 8516" d="M199.127 158.311c0 .056-.189.1-.4.1s-.4-.048-.4-.1.185-.1.4-.1.4.039.4.1z" fill="#263238"/><path data-name="Path 8517" d="M191.749 151.256a4.21 4.21 0 0 1 0 .883 72.01 72.01 0 0 1-.133 2.173v.1h-.1l-.5-.02-1.33-.068h-.1v-.093c0-.653 0-1.21.028-1.613a2.474 2.474 0 0 1 .052-.621 2.3 2.3 0 0 1 .065.621c.02.4.036.947.048 1.613l-.093-.1 1.334.052.5.024-.109.093c.069-.863.141-1.613.2-2.169a3.822 3.822 0 0 1 .138-.875z" fill="#263238"/><path data-name="Path 8518" d="M200.216 152.303a20.28 20.28 0 0 1-4.068-.5 9.582 9.582 0 0 1 2.048.145 10.261 10.261 0 0 1 2.02.355z" fill="#263238"/><path data-name="Path 8519" d="M186.185 152.558a14.836 14.836 0 0 1-3.487-.028 7.356 7.356 0 0 1 1.746-.093 7.154 7.154 0 0 1 1.741.121z" fill="#263238"/><path data-name="Path 8520" d="M202.034 140.721l-6.938 1.524s-2.052-1.588-2.935-1.637-4.1 0-4.1 0-3.225 2.471-3.225 3.08a3.769 3.769 0 0 0 .4 1.4s-.48.339-.194 1.592.52 1.343.52 1.343-.609 1.169.137 1.633a9.308 9.308 0 0 0 2.286.806l2.346-.4c-.855.169 6.044-.234 6.378-1.443h8.212c.746-3.568.762-6.906-2.887-7.898z" fill="#ffbe9d"/><path data-name="Path 8521" d="M189.717 143.18a13.965 13.965 0 0 0-2.338.693 22.167 22.167 0 0 0-2.121 1.21 2.041 2.041 0 0 1 .528-.5 7.33 7.33 0 0 1 1.508-.9 4.858 4.858 0 0 1 2.423-.5z" fill="#eb996e"/><path data-name="Path 8522" d="M190.358 145.317c0 .06-1.21.3-2.657.669-.734.181-1.387.371-1.855.532a4.839 4.839 0 0 1-.758.258 2.285 2.285 0 0 1 .706-.4 16.358 16.358 0 0 1 4.564-1.064z" fill="#eb996e"/><path data-name="Path 8523" d="M189.775 148.035a17.781 17.781 0 0 1-2.1-.036c-1.153-.04-2.08.081-2.092.024a5.438 5.438 0 0 1 2.1-.234 7.458 7.458 0 0 1 2.092.246z" fill="#eb996e"/><path data-name="Path 8524" d="M197.394 145.664a1.613 1.613 0 0 1 .125.641 3.842 3.842 0 0 1-.2 1.58 2.619 2.619 0 0 1-.439.774 2.236 2.236 0 0 1-.552.476 1.266 1.266 0 0 1-.621.226c0-.036.226-.121.54-.351a2.419 2.419 0 0 0 .484-.472 2.758 2.758 0 0 0 .4-.726 4.7 4.7 0 0 0 .25-1.5 2.743 2.743 0 0 1 .013-.648z" fill="#eb996e"/><path data-name="Path 8525" d="M167.209 148.74s-.452 1.8 2.08 1.689l.278-4.894s-.109-1.8-2.7-1.516l-.508 2.08a2.548 2.548 0 0 1 .677 1.113 14.757 14.757 0 0 1 .173 1.528z" fill="#ffbe9d"/><path data-name="Path 8526" d="M158.169 138.536l10.047 12.345 2.887.976-.653-3.153-9.8-12.268a1.637 1.637 0 0 0-1.447-.621h-.039a1.653 1.653 0 0 0-.992 2.721z" fill="#455a64"/><path data-name="Path 8527" d="M158.206 138.609c-.024 0 .024-.206.181-.488a3.068 3.068 0 0 1 1.992-1.431.939.939 0 0 1 .516-.02 6.233 6.233 0 0 0-1.54.7 5.965 5.965 0 0 0-1.149 1.239z" fill="#263238"/><path data-name="Path 8528" d="M168.217 150.889a.678.678 0 0 1-.234-.516.463.463 0 0 1 .028-.157l.052-.133a1.561 1.561 0 0 1 .653-.851 5.081 5.081 0 0 1 .617-.4 1.614 1.614 0 0 1 .589-.194c.359-.04.564.077.552.1a2.908 2.908 0 0 0-.528.052 1.612 1.612 0 0 0-.516.214 5.627 5.627 0 0 0-.585.4 2.015 2.015 0 0 0-.484.484c-.052.089-.1.181-.141.27l-.06.129a.29.29 0 0 0-.028.1c-.012.297.121.49.085.502z" fill="#263238"/><path data-name="Path 8529" d="M168.631 149.542c-.044.036-2.229-2.617-4.882-5.927s-4.761-6.019-4.717-6.047 2.23 2.617 4.882 5.922 4.762 6.015 4.717 6.052z" fill="#263238"/><path data-name="Path 8530" d="M169.696 148.525c-.044.036-2.2-2.544-4.806-5.765s-4.685-5.866-4.641-5.9 2.2 2.544 4.806 5.769 4.669 5.857 4.641 5.896z" fill="#263238"/><path data-name="Path 8531" d="M170.813 150.462a.891.891 0 0 0-.806.2.867.867 0 0 0-.254.762l1.339.443z" fill="#263238"/><path data-name="Path 8532" d="M153.163 141.629l5.185 1.673s2.278-1.915 3.165-1.963l3-.149s3.709 2.471 3.709 3.076a3.77 3.77 0 0 1-.4 1.4s1.02.4.806 1.262a1.544 1.544 0 0 1-1.153 1.157s.625 1.685-.121 2.149a9.271 9.271 0 0 1-2.286.806s-1.351 1.072-2.238.98-5.318-.375-5.83-1.21l-5.386-1.306-4.092-1.024s-1.568-2.04.847-4.507a7.712 7.712 0 0 1 4.794-2.344z" fill="#ffbe9d"/><path data-name="Path 8533" d="M168.039 143.971a18.289 18.289 0 0 0-2.29-.52 17.645 17.645 0 0 0-2.346 0 6.015 6.015 0 0 1 4.636.516z" fill="#eb996e"/><path data-name="Path 8534" d="M167.789 145.664c0 .048-.839-.121-1.867-.266a9.965 9.965 0 0 0-1.322-.1c-.339 0-.528.073-.544.048s.181-.161.536-.2a5.534 5.534 0 0 1 1.359.048 5.166 5.166 0 0 1 1.838.47z" fill="#eb996e"/><path data-name="Path 8535" d="M167.442 148.083c-.02.04-.693-.109-1.56-.181s-1.552-.069-1.564-.113a3.7 3.7 0 0 1 1.584-.1 3.553 3.553 0 0 1 1.54.394z" fill="#eb996e"/><path data-name="Path 8536" d="M147.522 148.478a1.241 1.241 0 0 1 .177.028l.508.113 1.927.444 6.854 1.641h.032l.024.036a1.612 1.612 0 0 0 .766.427 7.809 7.809 0 0 0 .951.238c.653.133 1.343.222 2.052.3s1.455.149 2.173.189a2.822 2.822 0 0 0 1.028-.343 7.254 7.254 0 0 0 .956-.617h.044a12.336 12.336 0 0 0 1.391-.4 4.709 4.709 0 0 0 .746-.318.7.7 0 0 0 .4-.569 3.346 3.346 0 0 0-.21-1.524l-.04-.113.117-.028a1.435 1.435 0 0 0 1.068-1.068.806.806 0 0 0-.137-.706 1.5 1.5 0 0 0-.6-.448l-.1-.044.048-.1a4.8 4.8 0 0 0 .318-.806 2.04 2.04 0 0 0 .081-.4.734.734 0 0 0 0-.181.491.491 0 0 0-.085-.153 7.538 7.538 0 0 0-1.177-1.093c-.831-.653-1.641-1.209-2.391-1.738h.044l-2.822.125a2.145 2.145 0 0 0-1.064.339q-.416.234-.806.508c-.484.327-.847.6-1.093.786l-.278.21c-.065.048-.1.073-.1.069s.024-.032.085-.085l.266-.23c.238-.2.593-.484 1.068-.806.242-.169.512-.355.806-.532a2.249 2.249 0 0 1 1.109-.367l2.822-.157h.024a39.322 39.322 0 0 1 2.419 1.73 7.537 7.537 0 0 1 1.21 1.125.738.738 0 0 1 .113.218.4.4 0 0 1 0 .133 1.064 1.064 0 0 1 0 .113 2.735 2.735 0 0 1-.089.439 4.568 4.568 0 0 1-.331.831l-.052-.137a1.681 1.681 0 0 1 .693.516 1.016 1.016 0 0 1 .173.871 1.649 1.649 0 0 1-1.23 1.209l.081-.137a3.588 3.588 0 0 1 .226 1.637 1.06 1.06 0 0 1-.165.4.911.911 0 0 1-.347.29 5.1 5.1 0 0 1-.778.339 13.664 13.664 0 0 1-1.415.4l.04-.024a6.443 6.443 0 0 1-.988.637 2.971 2.971 0 0 1-1.113.367c-.778-.04-1.488-.121-2.209-.2s-1.4-.177-2.068-.31a8.315 8.315 0 0 1-.968-.25 1.71 1.71 0 0 1-.863-.512l.056.04-6.854-1.713-1.911-.5-.5-.137a1.036 1.036 0 0 1-.112-.002z" fill="#eb996e"/><path data-name="Path 8537" d="M116.672 132.803a88.85 88.85 0 0 1-3.967-3.52 11.365 11.365 0 0 0-7.229-3.076l-22.767-1.141h-4.072c-2.31 0-14.764 8.91-16.465 10.764l11.365 10.313 1.415-.754-.165 3.5 33.152-.077.3-4.878 6.156 3.959 8.063-9.567s-3.27-3.419-5.786-5.523z" fill="#00486e"/><path data-name="Path 8538" d="M108.473 128.082a13.771 13.771 0 0 0-1.117 1.04 7.458 7.458 0 0 0-1.661 3.225 9.809 9.809 0 0 0-.117 3.649c.137.935.31 1.5.278 1.508a1.435 1.435 0 0 1-.153-.4 9.274 9.274 0 0 1-.274-1.1 9.091 9.091 0 0 1 .06-3.721 7.116 7.116 0 0 1 1.758-3.27 5.5 5.5 0 0 1 .863-.738 1.4 1.4 0 0 1 .363-.193z" fill="#263238"/><path data-name="Path 8539" d="M92.965 145.055a2.168 2.168 0 0 1-.431-.157 12.813 12.813 0 0 1-1.133-.54 18.365 18.365 0 0 1-6.221-5.374c-.31-.427-.548-.786-.7-1.044a1.886 1.886 0 0 1-.218-.4c.032 0 .4.528 1.032 1.359a21.966 21.966 0 0 0 2.822 2.967 21.658 21.658 0 0 0 3.35 2.367c.919.516 1.515.79 1.499.822z" fill="#263238"/><path data-name="Path 8540" d="M77.327 134.58a.588.588 0 0 1-.266.1 1.767 1.767 0 0 1-.782 0 2.016 2.016 0 0 1-1-.593 2.08 2.08 0 0 1-.528-1.326 2.274 2.274 0 0 1 .4-1.371 2.463 2.463 0 0 1 .875-.766 2.4 2.4 0 0 1 .742-.238.731.731 0 0 1 .282 0 4.943 4.943 0 0 0-.951.375 2.459 2.459 0 0 0-.786.742 2.129 2.129 0 0 0-.347 1.254 1.9 1.9 0 0 0 1.363 1.782 2.753 2.753 0 0 0 1 .04z" fill="#fafafa"/><path data-name="Path 8541" d="M83.894 127.502a1.071 1.071 0 0 1-.153.266 2.322 2.322 0 0 1-.625.552 2.782 2.782 0 0 1-1.169.4 2.56 2.56 0 0 1-2.6-1.318 2.822 2.822 0 0 1-.359-1.21 2.29 2.29 0 0 1 .081-.831c.056-.189.109-.282.121-.278a4.27 4.27 0 0 0-.056 1.093 2.89 2.89 0 0 0 .4 1.109 2.419 2.419 0 0 0 2.419 1.21 2.821 2.821 0 0 0 1.117-.343 4.4 4.4 0 0 0 .818-.653z" fill="#fafafa"/><path data-name="Path 8542" d="M82.862 133.416a.448.448 0 0 1 .129 0 1.614 1.614 0 0 1 .347.125 2.137 2.137 0 0 1 .947.955 2.016 2.016 0 0 1 .214.923 2.161 2.161 0 0 1-.294 1.048 2.278 2.278 0 0 1-.859.847 2.132 2.132 0 0 1-1.27.25 2.418 2.418 0 0 1-1.21-.472 2.221 2.221 0 0 1-.718-.968 2.419 2.419 0 0 1 .113-1.988 1.613 1.613 0 0 1 1.048-.835.936.936 0 0 1 .371 0c.081.02.121.036.121.044a1.574 1.574 0 0 0-.476.036 1.613 1.613 0 0 0-.935.806 2.334 2.334 0 0 0-.065 1.846 2.016 2.016 0 0 0 .673.891 2.222 2.222 0 0 0 1.1.427 1.988 1.988 0 0 0 1.149-.218 2.141 2.141 0 0 0 .786-.766 1.911 1.911 0 0 0 .113-1.81 2.161 2.161 0 0 0-.851-.951 4.424 4.424 0 0 1-.433-.19z" fill="#fafafa"/><path data-name="Path 8543" d="M82.815 147.067c0-.02.153.044.427.069a1.979 1.979 0 0 0 1.113-.242 1.9 1.9 0 0 0 .976-1.31 2.35 2.35 0 0 0-.532-1.935 2.645 2.645 0 0 0-1.83-.867 2.924 2.924 0 0 0-1.653.363 2.282 2.282 0 0 0-.831.806c-.141.238-.177.4-.194.4a.9.9 0 0 1 .121-.427 2.194 2.194 0 0 1 .806-.879 3.016 3.016 0 0 1 1.742-.427 2.822 2.822 0 0 1 1.98.927 2.5 2.5 0 0 1 .56 2.1 2.016 2.016 0 0 1-1.1 1.407 1.923 1.923 0 0 1-1.21.189 1.088 1.088 0 0 1-.318-.093.515.515 0 0 0-.057-.081z" fill="#fafafa"/><path data-name="Path 8544" d="M91.079 142.829s.1-.077.258-.226a1.79 1.79 0 0 0 .472-.77 1.834 1.834 0 0 0-.081-1.306 2.262 2.262 0 0 0-1.169-1.1 2.52 2.52 0 0 0-1.613-.113 2.952 2.952 0 0 0-1.189.633 3.993 3.993 0 0 0-.766 1.008.9.9 0 0 1 .1-.335 2.387 2.387 0 0 1 .56-.782 2.916 2.916 0 0 1 1.238-.71 2.641 2.641 0 0 1 1.75.1 2.419 2.419 0 0 1 1.262 1.21 1.911 1.911 0 0 1 .044 1.427 1.7 1.7 0 0 1-.56.786.746.746 0 0 1-.306.178z" fill="#fafafa"/><path data-name="Path 8545" d="M99.999 140.995a.778.778 0 0 1 .189.056 2.477 2.477 0 0 1 .508.25 3.387 3.387 0 0 1 1.31 1.592 3.137 3.137 0 0 1 .218 1.427 3.326 3.326 0 0 1-.564 1.564 3.435 3.435 0 0 1-1.4 1.189 3.289 3.289 0 0 1-4.528-2.359 2.419 2.419 0 0 1 .468-1.592 12.368 12.368 0 0 1 .867-1.141 3.338 3.338 0 0 1 1.705-1.157 1.811 1.811 0 0 1 .564-.052.4.4 0 0 1 .194.032 2.918 2.918 0 0 0-.738.1 3.338 3.338 0 0 0-1.613 1.173c-.27.331-.556.718-.835 1.137a2.246 2.246 0 0 0-.4 1.48 3.1 3.1 0 0 0 4.249 2.189 3.2 3.2 0 0 0 1.322-1.113 3.133 3.133 0 0 0 .552-1.468 3.044 3.044 0 0 0-.181-1.359 3.455 3.455 0 0 0-1.209-1.576c-.426-.271-.688-.352-.678-.372z" fill="#fafafa"/><path data-name="Path 8546" d="M101.921 133.412h.149a1.465 1.465 0 0 1 .4.089 2.1 2.1 0 0 1 1.149 1.008 2.3 2.3 0 0 1-.133 2.238 2.685 2.685 0 0 1-2.447 1.209 2.471 2.471 0 0 1-1.387-.48 1.75 1.75 0 0 1-.669-1.21 3.507 3.507 0 0 1 .089-1.23 2.786 2.786 0 0 1 .431-.98 1.77 1.77 0 0 1 1.3-.786 1.249 1.249 0 0 1 .423.032c.093.028.137.048.133.056a2.067 2.067 0 0 0-.544 0 1.746 1.746 0 0 0-1.189.786 3.29 3.29 0 0 0-.448 2.1 1.52 1.52 0 0 0 .6 1.056 2.3 2.3 0 0 0 1.274.435 2.508 2.508 0 0 0 2.27-1.109 2.153 2.153 0 0 0 .165-2.068 2.081 2.081 0 0 0-1.044-1 3.906 3.906 0 0 0-.522-.146z" fill="#fafafa"/><path data-name="Path 8547" d="M106.533 130.259a3.048 3.048 0 0 1-.98.141 3.918 3.918 0 0 1-2.314-.613 2.629 2.629 0 0 1-.891-1 2.254 2.254 0 0 1-.23-1.072 1.879 1.879 0 0 1 .173-.718c.081-.157.145-.226.157-.222a3.011 3.011 0 0 0-.181.939 2.27 2.27 0 0 0 .254.984 2.58 2.58 0 0 0 .839.919 4.092 4.092 0 0 0 2.193.637c.601.013.976-.031.98.005z" fill="#fafafa"/><path data-name="Path 8548" d="M110.16 131.819a1.553 1.553 0 0 1 .5 0 2.685 2.685 0 0 1 1.31.4 1.693 1.693 0 0 1 .617.75 1.927 1.927 0 0 1 .1 1.109 2.371 2.371 0 0 1-1.73 1.738 2.419 2.419 0 0 1-1.314 0 2.217 2.217 0 0 1-1.02-.681 2.016 2.016 0 0 1-.4-1.967 1.947 1.947 0 0 1 .867-1.056 1.437 1.437 0 0 1 .347-.141c.085-.02.129-.024.133 0s-.173.056-.435.23a1.943 1.943 0 0 0-.774 1.032 1.875 1.875 0 0 0 .4 1.79 2.016 2.016 0 0 0 .935.613 2.21 2.21 0 0 0 1.21 0 2.181 2.181 0 0 0 1.592-1.572 1.786 1.786 0 0 0-.073-1 1.573 1.573 0 0 0-.54-.693 2.822 2.822 0 0 0-1.234-.451 3.553 3.553 0 0 1-.491-.101z" fill="#fafafa"/><path data-name="Path 8549" d="M110.548 144.663a1.749 1.749 0 0 1 .4-.085 5.8 5.8 0 0 0 1.084-.25 2.137 2.137 0 0 0 1.21-.988 1.943 1.943 0 0 0-.2-1.846 2.3 2.3 0 0 0-1.588-1.04 2.016 2.016 0 0 0-1.5.431 2.129 2.129 0 0 0-.653.863c-.093.242-.109.4-.129.4a.887.887 0 0 1 .052-.4 1.98 1.98 0 0 1 .633-.951 2.113 2.113 0 0 1 1.613-.508 2.439 2.439 0 0 1 1.738 1.113 2.112 2.112 0 0 1 .2 2.048 2.221 2.221 0 0 1-1.339 1.044 4.737 4.737 0 0 1-1.121.193 1.586 1.586 0 0 1-.407-.024z" fill="#fafafa"/><path data-name="Path 8550" d="M119.603 140.467a1.073 1.073 0 0 1-.383.036 3.657 3.657 0 0 1-1.036-.165 3.907 3.907 0 0 1-1.371-.758 3.946 3.946 0 0 1-1.1-1.568 3.6 3.6 0 0 1-.214-1.907 2.471 2.471 0 0 1 .718-1.395 1.975 1.975 0 0 1 .923-.508.867.867 0 0 1 .4-.024 3.016 3.016 0 0 1-.363.1 2.109 2.109 0 0 0-.843.536 2.383 2.383 0 0 0-.629 1.322 3.5 3.5 0 0 0 .218 1.8 3.907 3.907 0 0 0 1.032 1.5 3.992 3.992 0 0 0 1.286.762 6.279 6.279 0 0 0 1.362.269z" fill="#fafafa"/><path data-name="Path 8551" d="M69.881 131.589a1.44 1.44 0 0 1 .194.363 5.473 5.473 0 0 1 .343 1.068 5.693 5.693 0 0 1 .113 1.669 4.878 4.878 0 0 1-.581 1.967 4.278 4.278 0 0 1-1.412 1.493 3.96 3.96 0 0 1-1.564.6 3.183 3.183 0 0 1-1.129 0 1.291 1.291 0 0 1-.4-.125 4.836 4.836 0 0 0 1.5 0 4.225 4.225 0 0 0 2.822-2.048 5.382 5.382 0 0 0 .508-3.508 13.1 13.1 0 0 0-.394-1.479z" fill="#fafafa"/><path data-name="Path 8552" d="M73.816 140.382a2.3 2.3 0 0 1 .3-.1 3.086 3.086 0 0 0 .782-.319 1.068 1.068 0 0 0 .552-.98 1.286 1.286 0 0 0-.935-1.008 2.27 2.27 0 0 0-1.459.2 2.85 2.85 0 0 0-1.012.71 1.129 1.129 0 0 0-.254.762 1.178 1.178 0 0 0 .06.3c-.016.008-.1-.081-.141-.29a1.141 1.141 0 0 1 .218-.863 2.75 2.75 0 0 1 1.048-.806 2.362 2.362 0 0 1 1.613-.23 1.447 1.447 0 0 1 1.072 1.189 1.052 1.052 0 0 1-.2.71 1.4 1.4 0 0 1-.468.4 2.592 2.592 0 0 1-.843.274 1.056 1.056 0 0 1-.333.051z" fill="#fafafa"/><g data-name="Group 633"><path data-name="Path 8553" d="M107.013 147.583a2.193 2.193 0 0 0-1.3-.375c-3.677-.218-7.362.286-11.047.367s-7.507-.294-10.712-2.121c-1.008-.572-1.98-1.209-3.016-1.717a5.982 5.982 0 0 0-5.874.641l-.258 4.511c10.269.081 21.323-.044 31.592.032a1.21 1.21 0 0 0 .7-.145.8.8 0 0 0-.085-1.193z" opacity=".3"/></g><path data-name="Path 8554" d="M77.605 137.391c-.036 0 .081-.524.189-1.367a17.179 17.179 0 0 0-.4-6.58 11.169 11.169 0 0 1-.355-1.334 1.157 1.157 0 0 1 .165.335c.093.222.21.548.335.96a14.7 14.7 0 0 1 .585 3.3 14.376 14.376 0 0 1-.181 3.346c-.073.4-.149.758-.214.992a1.33 1.33 0 0 1-.124.348z" fill="#263238"/><path data-name="Path 8555" d="M76.294 152.788L62.99 165.842h30.749a5.306 5.306 0 0 1 4.6-2.387c2.983.218 16.365 3.927 20.4 3.266l-3.528-14.478s-10.652-3.088-16.715-1.915a8.749 8.749 0 0 0-4.435 2.334z" fill="#fafafa"/><path data-name="Path 8556" d="M76.295 152.788h.742l2.165-.028 8.184-.085 5.8-.052h.9c-.1.04 0 0-.04 0l.077-.069.145-.141.31-.27a8.868 8.868 0 0 1 1.387-.947 8.607 8.607 0 0 1 3.354-1.048 20.839 20.839 0 0 1 3.737-.109 39.337 39.337 0 0 1 3.923.4 67.573 67.573 0 0 1 8.269 1.746h.052v.056c1.1 4.5 2.294 9.382 3.536 14.47l.028.117h-.111a9.675 9.675 0 0 1-1.278.073h-.641l-.641-.048c-.427-.028-.859-.077-1.286-.133s-.863-.1-1.294-.173a99.656 99.656 0 0 1-5.217-.951c-2.657-.54-5.265-1.145-7.834-1.657a8.3 8.3 0 0 0-3.8-.2 5.447 5.447 0 0 0-2.931 2.177l-.036.048h-.052l-30.766-.028h-.184l.129-.125 9.789-9.543 2.653-2.576.693-.661c.153-.149.238-.222.238-.222l-.23.242-.685.681-2.633 2.608-9.724 9.555-.048-.125 30.766-.028-.085.048a5.644 5.644 0 0 1 3.068-2.258 4.839 4.839 0 0 1 1.955-.125c.653.073 1.294.2 1.939.323 2.576.512 5.181 1.117 7.838 1.657 1.746.359 3.487.689 5.2.947.427.073.859.129 1.286.177s.855.1 1.278.129l.637.052h.629a9.112 9.112 0 0 0 1.246-.065l-.085.125c-1.238-5.088-2.419-9.974-3.52-14.474l.065.069a67.8 67.8 0 0 0-8.237-1.754 40.949 40.949 0 0 0-3.907-.4 20.9 20.9 0 0 0-3.709.1 8.466 8.466 0 0 0-3.3 1.02 8.8 8.8 0 0 0-1.363.927c-.109.085-.206.177-.306.266l-.149.137-.073.069c-.024 0 .044 0-.056.028h-.883l-5.789.028-8.18.028h-2.755z" fill="#263238"/><path data-name="Path 8557" d="M93.74 165.842c-.056 0 0-2.967.093-6.62s.246-6.62.306-6.616 0 2.963-.1 6.62-.243 6.616-.299 6.616z" fill="#263238"/><path data-name="Path 8558" d="M90.486 163.045a.863.863 0 0 1-.21 0l-.6.02-2.225.065-7.313.02-7.313-.032-2.217-.028h-.6a1.351 1.351 0 0 1-.21 0 4.087 4.087 0 0 1 .806-.056c.524 0 1.282-.028 2.217-.04 1.871-.024 4.459-.032 7.313-.032s5.443 0 7.317.044l2.213.036.6.024a.665.665 0 0 1 .222-.021z" fill="#263238"/><path data-name="Path 8559" d="M90.854 161.214a.768.768 0 0 1-.2.02h-2.67l-6.918-.073-6.922-.117-2.1-.056-.568-.02a1.422 1.422 0 0 1-.2 0 3.668 3.668 0 0 1 .766-.044h2.1c1.774 0 4.217.024 6.922.065s5.144.089 6.914.137l2.1.064.572.028a.651.651 0 0 1 .204-.004z" fill="#263238"/><path data-name="Path 8560" d="M116.047 163.266a.826.826 0 0 1-.214 0h-.613c-.532 0-1.3-.036-2.25-.113a38.261 38.261 0 0 1-7.3-1.334c-1.4-.4-2.693-.883-3.891-1.238a12.046 12.046 0 0 0-3.249-.568 7.093 7.093 0 0 0-2.209.294c-.5.161-.766.3-.774.282s.06-.048.185-.113a4.515 4.515 0 0 1 .564-.246 6.628 6.628 0 0 1 2.225-.359 11.839 11.839 0 0 1 3.3.532c1.209.347 2.508.835 3.9 1.21a41.959 41.959 0 0 0 7.257 1.391 55.82 55.82 0 0 0 2.238.173l.609.036a.806.806 0 0 1 .222.053z" fill="#263238"/><path data-name="Path 8561" d="M116.075 160.747a.628.628 0 0 1-.214 0h-.609c-.532 0-1.3-.032-2.25-.109a38.2 38.2 0 0 1-7.3-1.334c-1.4-.4-2.693-.883-3.891-1.238a12.223 12.223 0 0 0-3.254-.573 7.046 7.046 0 0 0-2.2.29c-.5.157-.766.3-.774.278a.912.912 0 0 1 .181-.109 4.452 4.452 0 0 1 .564-.246 6.571 6.571 0 0 1 2.229-.359 11.592 11.592 0 0 1 3.282.54c1.21.347 2.5.835 3.895 1.21a42.359 42.359 0 0 0 7.257 1.387c.943.1 1.709.145 2.238.177l.613.036a.973.973 0 0 1 .23.048z" fill="#263238"/><path data-name="Path 8562" d="M116.076 158.23a.808.808 0 0 1-.214 0h-.613c-.532 0-1.3-.032-2.246-.113a38.1 38.1 0 0 1-7.3-1.33c-1.4-.4-2.7-.887-3.895-1.238a11.885 11.885 0 0 0-3.25-.572 6.947 6.947 0 0 0-2.2.29c-.5.157-.762.294-.77.278s.056-.044.181-.113a5.14 5.14 0 0 1 .564-.246 6.735 6.735 0 0 1 2.225-.359 11.758 11.758 0 0 1 3.306.536c1.209.347 2.5.831 3.895 1.21a42.353 42.353 0 0 0 7.257 1.387c.943.1 1.709.141 2.238.177l.609.036a.74.74 0 0 1 .214.056z" fill="#263238"/><path data-name="Path 8563" d="M111.161 154.026a.755.755 0 0 1-.153.044 4.1 4.1 0 0 1-.448.077 10.025 10.025 0 0 1-1.661.073 28.083 28.083 0 0 1-5.4-.9 28.439 28.439 0 0 0-2.955-.508 11.018 11.018 0 0 0-4.644.391.759.759 0 0 1 .141-.073c.1-.04.234-.1.4-.161a8.063 8.063 0 0 1 1.613-.351 12.027 12.027 0 0 1 2.471 0 25.291 25.291 0 0 1 2.979.492 34.522 34.522 0 0 0 5.362.951 12.837 12.837 0 0 0 1.649 0 5.122 5.122 0 0 1 .646-.035z" fill="#263238"/><path data-name="Path 8564" d="M131.634 147.108c-1.133-1.189-9.632-8.225-9.632-8.225l-6.527 7.749 4.007 2.153c-.323.1-5.979 2.544-7.66 3.286a15.2 15.2 0 0 0-3.653-2.117c-.976-.117-3.733 0-3.733 0s-1.318 1.548-1.032 1.722c0 0-1.722 1.262-1.492 2.064l.23.806a.71.71 0 0 0-.863.778c0 .943-.113 1.343.4 1.613a1.955 1.955 0 0 0 .633 1.665 12.86 12.86 0 0 0 1.548 1.322.835.835 0 0 0 .343 1.318 8.528 8.528 0 0 0 3.1.806c.468 0 4.314-1.29 5.733-1.77 0 0 18.038-5.011 19.2-6.81a5.766 5.766 0 0 0-.602-6.36z" fill="#ffbe9d"/><path data-name="Path 8565" d="M128.42 146.538a8.726 8.726 0 0 0-2.6-.157 10.859 10.859 0 0 0-2.733.706 30.682 30.682 0 0 0-3.153 1.488 60.289 60.289 0 0 1-5.733 2.75c-.762.3-1.387.508-1.822.633-.218.069-.4.109-.508.137a.554.554 0 0 1-.181.032 4.982 4.982 0 0 1 .661-.246c.431-.149 1.044-.4 1.794-.7 1.5-.617 3.5-1.637 5.693-2.794a28.661 28.661 0 0 1 3.181-1.484 10.509 10.509 0 0 1 2.79-.673 6.474 6.474 0 0 1 1.931.109 3.632 3.632 0 0 1 .508.133.493.493 0 0 1 .173.065z" fill="#eb996e"/><path data-name="Path 8566" d="M107.577 151.514c0 .028-.23-.1-.6-.206a3.992 3.992 0 0 0-1.5-.109 9.954 9.954 0 0 0-1.5.314 2.172 2.172 0 0 1-.633.137 1.839 1.839 0 0 1 .589-.278 6.341 6.341 0 0 1 1.524-.379 3.444 3.444 0 0 1 1.572.173c.375.151.581.328.548.348z" fill="#eb996e"/><path data-name="Path 8567" d="M105.319 154.602a4.766 4.766 0 0 1-3.092-.1c0-.056.7.077 1.544.1a15.073 15.073 0 0 1 1.548 0z" fill="#eb996e"/><path data-name="Path 8568" d="M105.71 157.222a4.483 4.483 0 0 1-4.128-.367 11.215 11.215 0 0 0 2.04.48 11.55 11.55 0 0 0 2.088-.113z" fill="#eb996e"/><path data-name="Path 8569" d="M107.206 159.465a3.088 3.088 0 0 1-1.613.564 3.149 3.149 0 0 1-1.7-.169c0-.065.762.077 1.673-.04s1.608-.412 1.64-.355z" fill="#eb996e"/><path data-name="Path 8570" d="M75.412 144.636l10.345 14.32 3.133 1.262-.52-3.54-10.079-14.216a1.81 1.81 0 0 0-1.564-.778h-.044a1.834 1.834 0 0 0-1.27 2.951z" fill="#455a64"/><path data-name="Path 8571" d="M75.448 144.709a1.165 1.165 0 0 1 .238-.52 3.462 3.462 0 0 1 1-.968 3.519 3.519 0 0 1 1.3-.492 1.165 1.165 0 0 1 .572 0 6.408 6.408 0 0 0-1.758.665 6.188 6.188 0 0 0-1.352 1.315z" fill="#263238"/><path data-name="Path 8572" d="M85.757 158.957a.376.376 0 0 1-.109-.133.883.883 0 0 1-.109-.456.467.467 0 0 1 .04-.169l.064-.145a2.73 2.73 0 0 1 .165-.323 2.2 2.2 0 0 1 .613-.573 6.6 6.6 0 0 1 .706-.4 1.867 1.867 0 0 1 .661-.177c.4-.024.617.117.6.137a4.416 4.416 0 0 0-.589 0 1.927 1.927 0 0 0-.589.2c-.21.117-.448.254-.677.4a2.354 2.354 0 0 0-.568.508c-.065.1-.117.2-.169.29l-.077.141a.378.378 0 0 0-.04.113 2.765 2.765 0 0 0 .078.587z" fill="#263238"/><path data-name="Path 8573" d="M86.302 157.485c-.048.036-2.294-3.048-5.019-6.878s-4.9-6.971-4.838-7.007 2.294 3.048 5.019 6.882 4.882 6.97 4.838 7.003z" fill="#263238"/><path data-name="Path 8574" d="M87.529 156.429c-.048.032-2.262-2.971-4.947-6.7s-4.838-6.793-4.778-6.826 2.262 2.967 4.947 6.7 4.825 6.79 4.778 6.826z" fill="#263238"/><path data-name="Path 8575" d="M88.66 158.646a1 1 0 0 0-.9.169.976.976 0 0 0-.331.826l1.455.577z" fill="#263238"/><path data-name="Path 8576" d="M85.773 153.619c.951-.577 0-2.649 0-2.649s-4.608-2.709-5.281-2.85a46.626 46.626 0 0 0-5.12.427l-7.459-3.116 2.822-1.814-8.112-7.547s-7.257 5.319-9.436 7.494c-1.637 1.641-1.343 4.866-1.343 4.866 1.1 2.907 18.142 6.854 19.352 7.124l6.314 3.729s2.7.355 3.822.5 1.29-1.435 1.29-1.435a1.709 1.709 0 0 0 1.959-1.79 1.387 1.387 0 0 0 1.967-.649c.684-1.363-.775-2.29-.775-2.29z" fill="#ffbe9d"/><path data-name="Path 8577" d="M67.873 145.523c-.028.032-.448-.4-1.234-.935a10.234 10.234 0 0 0-1.447-.835 11.477 11.477 0 0 0-1.919-.685 11.26 11.26 0 0 0-2.016-.3 10.385 10.385 0 0 0-1.669.048c-.947.1-1.516.282-1.528.246a1.366 1.366 0 0 1 .4-.149 4.159 4.159 0 0 1 .476-.125c.189-.036.4-.093.641-.121a9.465 9.465 0 0 1 1.665-.1 10.54 10.54 0 0 1 2.06.29 10.671 10.671 0 0 1 1.971.722 9.273 9.273 0 0 1 1.451.887c.2.133.359.286.508.4a3.838 3.838 0 0 1 .359.335 1.806 1.806 0 0 1 .278.318z" fill="#eb996e"/><path data-name="Path 8578" d="M84.773 156.565a12.646 12.646 0 0 0-1.306-.911 12.793 12.793 0 0 0-1.5-.548 3.2 3.2 0 0 1 2.822 1.459z" fill="#eb996e"/><path data-name="Path 8579" d="M86.31 154.143a18.389 18.389 0 0 0-1.947-1.032 19.967 19.967 0 0 0-2.125-.585 5.572 5.572 0 0 1 4.072 1.613z" fill="#eb996e"/><path data-name="Path 8580" d="M82.673 158.166c-.04.048-.532-.363-1.21-.722s-1.306-.54-1.294-.6a3.774 3.774 0 0 1 2.52 1.322z" fill="#eb996e"/><path data-name="Path 8581" d="M116.478 114.265c.085-1.556 1.423-2.915 1.23-4.459s-1.794-2.459-2.657-3.753c-1.044-1.572-.947-3.6-1.258-5.463a11.837 11.837 0 0 0-3.076-6.076 8.359 8.359 0 0 1 .806-.669 5.672 5.672 0 0 0 2.145-2.246 3.064 3.064 0 0 0-.443-2.822 3.7 3.7 0 0 0-6.66 2.766 11.652 11.652 0 0 0-2.419-.762 12.385 12.385 0 0 0-1.967-1.4 5.33 5.33 0 0 0-6.261 1.056c-.431 1.8-.907 3.592-1.351 5.394l-15.7 10.236a4.1 4.1 0 0 0-4.378 1.613 18.129 18.129 0 0 0-2.2 4.435 7.375 7.375 0 0 1-3.024 3.846c-.806.423-1.891.722-2.1 1.613a1.613 1.613 0 0 0 .726 1.58 4.676 4.676 0 0 0 1.722.625l6.189 1.363a8.733 8.733 0 0 1 2.8-1.742 1.661 1.661 0 0 0 .456 2.109 4.782 4.782 0 0 0 2.181.855l13.595 2.891c2.758.585 5.777 1.137 8.273-.173 1.068-.56 1.955-1.435 3.052-1.931a9.661 9.661 0 0 1 4.362-.544 12.47 12.47 0 0 0 4.4-.314 3.858 3.858 0 0 0 2.79-3.116c.114-1.698-1.311-3.218-1.233-4.912z" fill="#263238"/><path data-name="Path 8582" d="M110.431 94.591a13.666 13.666 0 0 0-1.73-1.746 12.926 12.926 0 0 0-2.133-1.21 4.838 4.838 0 0 1 2.262 1.052 4.906 4.906 0 0 1 1.601 1.904z" fill="#00486e"/><path data-name="Path 8583" d="M110.923 87.507a.378.378 0 0 1 .226.117 1.282 1.282 0 0 1 .4.573 2.08 2.08 0 0 1 .085 1.032 6.083 6.083 0 0 1-.318 1.21 6.886 6.886 0 0 1-1.125 1.955 2.523 2.523 0 0 1-.669.649 10.647 10.647 0 0 0 1.613-2.677 3.546 3.546 0 0 0 .29-2.117 1.742 1.742 0 0 0-.502-.742z" fill="#455a64"/><path data-name="Path 8584" d="M107.806 103.219v-.195a12.078 12.078 0 0 0-12.381-11.692c-.318 0-.649.028-.98.052a15.533 15.533 0 0 0-1.552.2 12 12 0 0 0-9.676 12.047c.06 4.737.185 11.047.452 12.9a25.419 25.419 0 0 1 .379 4.225l.173 7.257a7.991 7.991 0 0 0 7.8 7.8 7.991 7.991 0 0 0 8.184-7.979v-3.733c4.931-.637 7.2-5.394 7.527-11.083a76.237 76.237 0 0 0 .074-9.799z" fill="#ffbe9d"/><path data-name="Path 8585" d="M83.524 107.706c-.133-.056-5.3-1.613-5.169 3.677s5.406 4.06 5.415 3.911-.246-7.588-.246-7.588z" fill="#ffbe9d"/><path data-name="Path 8586" d="M82.104 113.33c-.024 0-.089.069-.246.141a.915.915 0 0 1-.685.032 2.27 2.27 0 0 1-1.1-2.016 3.056 3.056 0 0 1 .226-1.326 1.06 1.06 0 0 1 .677-.722.472.472 0 0 1 .548.238c.073.145.044.254.073.262s.109-.093.06-.31a.6.6 0 0 0-.214-.327.717.717 0 0 0-.512-.121 1.3 1.3 0 0 0-.943.843 3.145 3.145 0 0 0-.282 1.48 2.39 2.39 0 0 0 1.4 2.25.98.98 0 0 0 .839-.161c.155-.134.183-.255.159-.263z" fill="#eb996e"/><path data-name="Path 8587" d="M105.19 106.194c-.145.149-1.012-.5-2.25-.508s-2.149.6-2.282.452c-.064-.069.081-.335.48-.621a3.112 3.112 0 0 1 1.83-.548 3.007 3.007 0 0 1 1.786.593c.395.293.524.567.436.632z" fill="#263238"/><path data-name="Path 8588" d="M93.978 106.585c-.145.149-1.012-.5-2.25-.508s-2.149.6-2.282.452c-.065-.064.081-.335.48-.621a3.173 3.173 0 0 1 1.83-.548 3.036 3.036 0 0 1 1.786.593c.376.297.508.568.436.632z" fill="#263238"/><path data-name="Path 8589" d="M93.127 103.215c-.1.314-1.137.323-2.278.613s-2.048.714-2.322.488c-.125-.113-.04-.4.294-.738a3.6 3.6 0 0 1 1.669-.871 4 4 0 0 1 1.951 0c.484.149.73.349.686.508z" fill="#263238"/><path data-name="Path 8590" d="M104.902 102.497a3.934 3.934 0 0 1-2.657.524c-1.193-.077-1.943-.431-1.669-.806a3.865 3.865 0 0 1 2.657-.524c1.196.077 1.958.439 1.669.806z" fill="#263238"/><path data-name="Path 8591" d="M96.389 115.958c.02.073-.149.206-.476.25a1.75 1.75 0 0 1-1.891-1.435c-.044-.327.036-.524.113-.524.157 0 .286.7.9 1.157s1.318.411 1.354.552z" fill="#263238"/><path data-name="Path 8592" d="M100.187 124.103s-6.33.1-7.825-.992c0 0 1.121 3.068 7.825 2.742z" fill="#eb996e"/><path data-name="Path 8593" d="M98.022 109.068c.077-.02.222.25.4.71.089.226.185.5.282.806q.065.234.145.484a2.211 2.211 0 0 1 .125.593.936.936 0 0 1-.246.706 1.065 1.065 0 0 1-.6.3 1.242 1.242 0 0 1-.564-.048 1.457 1.457 0 0 1-.4-.218c-.4-.339-.552-.621-.508-.669s.318.129.718.323a.955.955 0 0 0 .661.093.54.54 0 0 0 .286-.161.4.4 0 0 0 .085-.3 2.088 2.088 0 0 0-.093-.464c-.04-.169-.077-.335-.117-.5a15.45 15.45 0 0 1-.161-.847c-.082-.477-.099-.771-.013-.808z" fill="#263238"/><path data-name="Path 8594" d="M89.659 112.092c-.048 0-.069-.133-.04-.278s.093-.246.145-.238.073.133.04.278-.091.246-.145.238z" fill="#eb996e"/><path data-name="Path 8595" d="M91.885 111.626a.16.16 0 0 1-.141-.121c-.028-.085 0-.169.04-.185s.113.036.141.121a.164.164 0 0 1-.04.185z" fill="#eb996e"/><path data-name="Path 8596" d="M90.748 112.963c-.052 0-.109-.1-.121-.246s0-.262.069-.266.1.1.121.246-.012.262-.069.266z" fill="#eb996e"/><path data-name="Path 8597" d="M87.963 112.709c-.048 0-.056-.145 0-.286s.117-.246.169-.23.056.145 0 .286-.117.256-.169.23z" fill="#eb996e"/><path data-name="Path 8598" d="M102.666 111.576c-.052 0-.1-.093-.117-.218s0-.238.069-.242.1.093.121.218-.021.238-.073.242z" fill="#eb996e"/><path data-name="Path 8599" d="M104.735 111.524c-.052 0-.1-.113-.1-.254s.044-.258.1-.258.1.113.1.258-.048.254-.1.254z" fill="#eb996e"/><path data-name="Path 8600" d="M106.444 111.419c-.052 0-.117-.1-.145-.238s0-.266.044-.274.113.1.145.238.009.266-.044.274z" fill="#eb996e"/><path data-name="Path 8601" d="M103.758 113.274c-.052 0-.06-.141 0-.282s.117-.246.169-.23.056.141 0 .282-.12.25-.169.23z" fill="#eb996e"/><path data-name="Path 8602" d="M105.701 113.019c-.052 0-.1-.081-.121-.194s0-.214.069-.218.109.081.121.194-.016.211-.069.218z" fill="#eb996e"/><path data-name="Path 8603" d="M112.148 120.498a3.628 3.628 0 0 0 1.258-.806 4.116 4.116 0 0 0 .927-1.492 5.1 5.1 0 0 0 .294-2.3 8.869 8.869 0 0 0-.778-2.725c-.4-.943-.964-1.9-1.5-2.935a12.288 12.288 0 0 1-1.286-3.427 6.581 6.581 0 0 1-.052-1.951c.081-.657.226-1.31.363-1.963a10.513 10.513 0 0 0 .266-1.947 4.205 4.205 0 0 0-.347-1.834 6.422 6.422 0 0 0-2.395-2.613c-.96-.637-1.955-1.129-2.846-1.657s-1.713-1.028-2.451-1.508a47.3 47.3 0 0 1-3.4-2.419c-.4-.3-.685-.54-.887-.706l-.222-.189c-.052-.044-.077-.069-.073-.069s.032 0 .085.052l.238.173.911.673c.806.581 1.951 1.407 3.431 2.35.738.472 1.56.972 2.459 1.484s1.887 1 2.867 1.649a6.583 6.583 0 0 1 2.475 2.689 4.459 4.459 0 0 1 .367 1.923 10.712 10.712 0 0 1-.27 1.988c-.137.657-.282 1.3-.359 1.943a6.309 6.309 0 0 0 .044 1.891 12.094 12.094 0 0 0 1.258 3.374c.528 1.032 1.08 2 1.488 2.951a8.938 8.938 0 0 1 .77 2.786 5.241 5.241 0 0 1-.331 2.359 4.229 4.229 0 0 1-.98 1.508 3.338 3.338 0 0 1-.943.637 2.366 2.366 0 0 1-.278.1z" fill="#455a64"/><path data-name="Path 8604" d="M108.291 100.167a15.236 15.236 0 0 0-6.362-8.229l-3.725-2.471a8.341 8.341 0 0 0-14.429 1.258c-.282.613-.5 1.274-.786 1.887a5.459 5.459 0 0 0-.778-3.887 4.272 4.272 0 0 0-4.568-1.782 4.06 4.06 0 0 0-2.754 3.907 4.7 4.7 0 0 0 2.742 4.032 5.04 5.04 0 0 0 1.048.335 7.716 7.716 0 0 0-2.455.665 4.052 4.052 0 0 0-2.092 4.032c.117.871.512 1.794.129 2.584-.3.609-.968.915-1.516 1.314a4.745 4.745 0 0 0-1.822 4.54 14.184 14.184 0 0 0-2.113 3.774c-1.294 3.395 1.254 3.552 2.048 4.29l4.673-4.838a5.9 5.9 0 0 1 1.931-.4 23.642 23.642 0 0 1 2.915.089 9.744 9.744 0 0 0 3.379-.282 4.48 4.48 0 0 0 1.633-.891 4.951 4.951 0 0 0 1.161-1.556 14.917 14.917 0 0 0 1.06-3.87 9.447 9.447 0 0 1 1.322-3.665 4 4 0 0 1 1.359-1.21 5.871 5.871 0 0 1 1.681-.548c1.149-.214 2.286-.262 3.326-.532a4.435 4.435 0 0 0 2.492-1.568 5.805 5.805 0 0 0 .984-2.229 11.578 11.578 0 0 0 .25-1.818c0-.214.024-.4.028-.577a24.779 24.779 0 0 0 8.487 8.063c.258.149.665.254.806 0a.56.56 0 0 0-.054-.417zm-9.4-7.088a12.338 12.338 0 0 1-.3 1.786 5.6 5.6 0 0 1-.988 2.141 4.189 4.189 0 0 1-2.387 1.459c-1.008.254-2.137.294-3.314.5a6.072 6.072 0 0 0-1.766.573 4.269 4.269 0 0 0-1.459 1.282 9.641 9.641 0 0 0-1.379 3.778 14.74 14.74 0 0 1-1.032 3.8 4.668 4.668 0 0 1-1.085 1.468 4.217 4.217 0 0 1-1.532.847 9.6 9.6 0 0 1-3.282.294 24.325 24.325 0 0 0-2.939-.052 6.324 6.324 0 0 0-1.613.314l.3-.242a9.1 9.1 0 0 1 6.023-1.851 2.378 2.378 0 0 0 1.391-.4c1.613-.439 2.758-2.536 3.4-4.213.552-1.435.456-3.149 1.379-4.37a4.748 4.748 0 0 1 2.822-1.564c1.056-.238 2.181-.314 3.225-.657a6.854 6.854 0 0 0 4.435-4.911 3.012 3.012 0 0 0 .077-.806c.024.036.052.073.073.109-.007.211-.027.453-.051.715z" fill="#263238"/><path data-name="Path 8605" d="M70.824 116.326a.838.838 0 0 1-.073-.089c-.044-.06-.117-.149-.194-.274a5.7 5.7 0 0 1-.589-1.153 6.583 6.583 0 0 1-.4-2.016 6.071 6.071 0 0 1 .5-2.665 6.418 6.418 0 0 1 2.036-2.568 8.659 8.659 0 0 1 3.491-1.4 10.39 10.39 0 0 0 3.858-1.347 4.576 4.576 0 0 0 1.391-1.613 10.885 10.885 0 0 0 .806-2.08 14.5 14.5 0 0 1 1.613-4.173 4.46 4.46 0 0 1 1.613-1.423 6.333 6.333 0 0 1 1.971-.576c1.326-.177 2.588-.133 3.749-.294a8.952 8.952 0 0 0 3.068-1 9.358 9.358 0 0 0 4.076-4.262c.06-.121.1-.222.145-.3a1.076 1.076 0 0 1 .052-.1 7.03 7.03 0 0 1-.758 1.568 9.567 9.567 0 0 1-3.446 3.22 9.16 9.16 0 0 1-3.116 1.036c-1.177.169-2.447.133-3.745.314a6.048 6.048 0 0 0-1.911.564 4.33 4.33 0 0 0-1.532 1.359 14.874 14.874 0 0 0-1.572 4.116 11.378 11.378 0 0 1-.839 2.121 4.773 4.773 0 0 1-1.459 1.677 10.666 10.666 0 0 1-3.931 1.371 8.9 8.9 0 0 0-3.435 1.351 6.37 6.37 0 0 0-2.016 2.492 6.048 6.048 0 0 0-.516 2.6 6.422 6.422 0 0 0 .367 1.984 8.087 8.087 0 0 0 .794 1.556z" fill="#455a64"/><path data-name="Path 8606" d="M101.493 108.326a1.064 1.064 0 0 0 .935 1.149 1.016 1.016 0 0 0 1.165-.867 1.064 1.064 0 0 0-.931-1.149 1.02 1.02 0 0 0-1.169.867z" fill="#263238"/><path data-name="Path 8607" d="M90.676 108.326a1.064 1.064 0 0 0 .935 1.149 1.016 1.016 0 0 0 1.165-.867 1.064 1.064 0 0 0-.931-1.149 1.02 1.02 0 0 0-1.169.867z" fill="#263238"/><path data-name="Path 8608" d="M83.177 91.769a2.178 2.178 0 0 1-.254.891 4.463 4.463 0 0 1-1.411 1.734 4.524 4.524 0 0 1-2.076.835 2.249 2.249 0 0 1-.927-.02c0-.036.355-.024.9-.129a4.971 4.971 0 0 0 1.976-.851 5.032 5.032 0 0 0 1.4-1.633c.267-.504.359-.827.392-.827z" fill="#00486e"/><path data-name="Path 8609" d="M81.96 93.869a1.209 1.209 0 0 1-.371 0 4.772 4.772 0 0 1-.98-.238 5.427 5.427 0 0 1-3.629-5.128 4.6 4.6 0 0 1 .1-1 1.137 1.137 0 0 1 .109-.355c.04 0-.1.52-.06 1.351a5.576 5.576 0 0 0 3.54 5c.767.285 1.295.329 1.291.37z" fill="#455a64"/><path data-name="Path 8610" d="M97.647 89.209A3.6 3.6 0 0 0 95.47 88a4.757 4.757 0 0 0-2.689.351 10.886 10.886 0 0 0-2.822 1.863 32.781 32.781 0 0 1-2.633 2.205 7.258 7.258 0 0 1-2.532 1.209 4.6 4.6 0 0 1-1.895.085 3 3 0 0 1-.5-.133c-.113-.04-.169-.064-.165-.073s.238.065.677.125a4.863 4.863 0 0 0 1.842-.145 7.31 7.31 0 0 0 2.459-1.21c.851-.613 1.685-1.411 2.608-2.209a10.822 10.822 0 0 1 2.883-1.883 4.838 4.838 0 0 1 2.786-.314 3.532 3.532 0 0 1 1.709.806 2.26 2.26 0 0 1 .351.383c.074.088.106.141.098.149z" fill="#455a64"/><path data-name="Path 8611" d="M98.76 89.559a4.109 4.109 0 0 1 .161.379 6.917 6.917 0 0 0 .556 1.028 11.091 11.091 0 0 0 3.1 2.975c.75.52 1.613 1.044 2.5 1.641a14.638 14.638 0 0 1 2.681 2.181 6.854 6.854 0 0 1 1.8 3.35 8.393 8.393 0 0 1-.5 4.056c-.214.669-.46 1.314-.613 1.967a3.906 3.906 0 0 0-.028 1.939 5.354 5.354 0 0 0 .891 1.673c.371.508.766.992 1.093 1.508a5.394 5.394 0 0 1 .806 3.338 7.475 7.475 0 0 1-.806 2.895 13.668 13.668 0 0 1-2.653 3.435 22.25 22.25 0 0 1-.863.806l-.23.206q-.077.069-.085.06a.7.7 0 0 1 .069-.077l.218-.218.831-.835a14.206 14.206 0 0 0 2.58-3.443 7.415 7.415 0 0 0 .778-2.842 5.241 5.241 0 0 0-.806-3.225c-.323-.5-.718-.98-1.1-1.5a5.548 5.548 0 0 1-.923-1.734 4.112 4.112 0 0 1 .024-2.04c.157-.677.4-1.322.613-1.988a8.2 8.2 0 0 0 .5-3.955 6.7 6.7 0 0 0-1.746-3.258 14.4 14.4 0 0 0-2.633-2.165c-.891-.6-1.742-1.133-2.492-1.665a10.849 10.849 0 0 1-3.08-3.052 6.158 6.158 0 0 1-.528-1.056c-.048-.129-.073-.23-.1-.294a.323.323 0 0 1-.015-.09z" fill="#455a64"/><path data-name="Path 8612" d="M203.062 32.761l4.35 13.772h-3.149l-1.391-4.749z" fill="#263238"/><path data-name="Rectangle 644" fill="#455a64" d="M146.845 46.521h65.01v3.887h-65.01z"/><path data-name="Rectangle 645" fill="#455a64" d="M155.904 49.553h3.145v5.967h-3.145z"/><path data-name="Rectangle 646" fill="#455a64" d="M196.495 49.553h3.145v5.967h-3.145z"/><path data-name="Path 8613" d="M149.054 28.504s-2.919 2.225-.125 5.161a.254.254 0 0 0 .185.081l25.492-.149a4.427 4.427 0 0 0 .371-5.241z" fill="#455a64"/><path data-name="Path 8614" d="M168.97 30.826c0 .028-3.173.052-7.088.052s-7.1-.024-7.1-.052 3.173-.052 7.088-.052 7.1.024 7.1.052z" fill="#e0e0e0"/><path data-name="Path 8615" d="M165.003 31.749c0 .028-1.492.048-3.334.048s-3.33 0-3.33-.048 1.496-.052 3.334-.052 3.33.024 3.33.052z" fill="#e0e0e0"/><path data-name="Path 8616" d="M171.579 33.515s.056-.294.133-.766a10.53 10.53 0 0 0-.032-3.717c-.089-.472-.169-.758-.149-.762a.957.957 0 0 1 .073.2c.04.125.093.314.145.548a9 9 0 0 1 .214 1.871 8.791 8.791 0 0 1-.177 1.875c-.048.238-.1.427-.137.556a.73.73 0 0 1-.069.2z" fill="#e0e0e0"/><path data-name="Path 8617" d="M173.482 28.306a1.574 1.574 0 0 1 .113.185c.032.06.073.137.113.23s.089.194.129.31a5.011 5.011 0 0 1 .242.847 5.877 5.877 0 0 1 .113 1.072 6.376 6.376 0 0 1-.097 1.077 5.371 5.371 0 0 1-.23.847c-.04.121-.089.226-.125.314a2.1 2.1 0 0 1-.109.23.722.722 0 0 1-.113.189s.125-.282.278-.754a7.185 7.185 0 0 0 .206-.843 6.668 6.668 0 0 0 .081-1.06 6.477 6.477 0 0 0-.1-1.052 6.044 6.044 0 0 0-.218-.843c-.154-.467-.303-.739-.283-.749z" fill="#e0e0e0"/><path data-name="Path 8618" d="M153.072 33.547a.807.807 0 0 1-.117-.169 1.919 1.919 0 0 1-.121-.214c-.04-.085-.093-.181-.137-.294a4.65 4.65 0 0 1-.246-.806 5.423 5.423 0 0 1-.1-1.028 5 5 0 0 1 .129-1.024 4.278 4.278 0 0 1 .27-.806 2.714 2.714 0 0 1 .141-.286 1.686 1.686 0 0 1 .125-.21c.077-.113.117-.173.125-.169s-.149.258-.327.693a5.15 5.15 0 0 0-.242.806 5.487 5.487 0 0 0-.117 1 5.237 5.237 0 0 0 .089 1.008 4.959 4.959 0 0 0 .222.806c.171.431.328.681.306.693z" fill="#e0e0e0"/><path data-name="Path 8619" d="M150.344 34.168a.911.911 0 0 1-.133-.194 2.025 2.025 0 0 1-.133-.238 3.251 3.251 0 0 1-.153-.331 5.466 5.466 0 0 1-.294-.9 6.22 6.22 0 0 1-.141-1.149 6.145 6.145 0 0 1 .093-1.157 5.14 5.14 0 0 1 .25-.911 3.5 3.5 0 0 1 .141-.335 2.005 2.005 0 0 1 .121-.246 1.032 1.032 0 0 1 .121-.2c.02 0-.141.3-.314.806a6.259 6.259 0 0 0-.226.9 6.722 6.722 0 0 0-.085 1.137 6.837 6.837 0 0 0 .133 1.133 5.823 5.823 0 0 0 .27.9 4.713 4.713 0 0 0 .35.785z" fill="#e0e0e0"/><path data-name="Path 8620" d="M173.671 41.373v4.878h-9.438v-4.878z" fill="#ebebeb"/><path data-name="Path 8621" d="M143.188 43.84v.133a2.794 2.794 0 0 0 2.822 2.617h28.121v-.359h-6.692a2.439 2.439 0 0 1-2.419-2.419 2.439 2.439 0 0 1 2.419-2.439h6.692v-.516l-28.121.093a2.822 2.822 0 0 0-2.822 2.887z" fill="#00486e"/><path data-name="Path 8622" d="M173.671 43.862c0 .028-1.943.052-4.334.052s-4.334-.024-4.334-.052 1.939-.048 4.334-.048 4.334.018 4.334.048z" fill="#e0e0e0"/><path data-name="Path 8623" d="M173.534 44.961c0 .028-1.838.052-4.1.052s-4.1-.024-4.1-.052 1.838-.052 4.1-.052 4.1.024 4.1.052z" fill="#e0e0e0"/><path data-name="Path 8624" d="M173.671 45.965c0 .028-1.653.052-3.689.052s-3.685-.024-3.685-.052 1.649-.048 3.685-.048 3.689.02 3.689.048z" fill="#e0e0e0"/><path data-name="Path 8625" d="M173.672 42.872c0 .032-1.9.052-4.245.052s-4.245 0-4.245-.052 1.9-.048 4.245-.048 4.245.02 4.245.048z" fill="#e0e0e0"/><path data-name="Path 8626" d="M173.534 41.886c0 .028-1.693.048-3.778.048s-3.782-.02-3.782-.048 1.693-.052 3.782-.052 3.778.022 3.778.052z" fill="#e0e0e0"/><path data-name="Path 8627" d="M146.591 41.018a6.18 6.18 0 0 0-.6.71 3.717 3.717 0 0 0-.641 2.1 3.757 3.757 0 0 0 .689 2.084 5.936 5.936 0 0 0 .617.693.975.975 0 0 1-.206-.149 3.333 3.333 0 0 1-.468-.5 3.568 3.568 0 0 1-.052-4.266 3.487 3.487 0 0 1 .46-.512c.124-.116.193-.168.201-.16z" fill="#f5f5f5"/><path data-name="Path 8628" d="M145.643 40.913a5.49 5.49 0 0 0-.6.71 3.629 3.629 0 0 0 .06 4.185 5.749 5.749 0 0 0 .613.693.766.766 0 0 1-.2-.149 3.128 3.128 0 0 1-.472-.5 3.554 3.554 0 0 1-.048-4.261 3.162 3.162 0 0 1 .456-.516.866.866 0 0 1 .194-.157z" fill="#f5f5f5"/><path data-name="Path 8629" d="M164.741 41.018a6.181 6.181 0 0 0-.6.71 3.717 3.717 0 0 0-.641 2.1 3.757 3.757 0 0 0 .689 2.084 5.935 5.935 0 0 0 .617.693.974.974 0 0 1-.206-.149 3.137 3.137 0 0 1-.468-.5 3.568 3.568 0 0 1-.052-4.266 3.487 3.487 0 0 1 .46-.512c.124-.116.197-.168.201-.16z" fill="#f5f5f5"/><path data-name="Path 8630" d="M163.794 40.913a5.492 5.492 0 0 0-.6.71 3.629 3.629 0 0 0 .052 4.185 5.75 5.75 0 0 0 .613.693.766.766 0 0 1-.2-.149 3.131 3.131 0 0 1-.472-.5 3.629 3.629 0 0 1-.734-2.121 3.592 3.592 0 0 1 .685-2.141 3.162 3.162 0 0 1 .456-.516.865.865 0 0 1 .2-.157z" fill="#f5f5f5"/><path data-name="Path 8631" d="M149.792 44.53c0-.661-.02-1.322-.028-1.984a1.369 1.369 0 0 0-.069-.512.484.484 0 0 0-.379-.318.754.754 0 0 0-.806.4 1.9 1.9 0 0 0-.2.972 15.666 15.666 0 0 0 .077 1.568 1.839 1.839 0 0 0 .185.718.673.673 0 0 0 .6.363.685.685 0 0 0 .532-.46 2.015 2.015 0 0 0 .088-.747z" fill="#f5f5f5"/><path data-name="Path 8632" d="M160.709 43.957c0 .028-2.016.052-4.54.052s-4.54-.024-4.54-.052 2.016-.052 4.54-.052 4.54.02 4.54.052z" fill="#f5f5f5"/><path data-name="Path 8633" d="M147.909 40.82l-.052-4.624h2.516l.089 4.624z" fill="#f5f5f5"/><path data-name="Path 8634" d="M150.223 37.018a13.068 13.068 0 0 1-2.338 0 14.149 14.149 0 0 1 2.338 0z" fill="#e0e0e0"/><path data-name="Path 8635" d="M150.223 37.744a13.066 13.066 0 0 1-2.338 0 14.15 14.15 0 0 1 2.338 0z" fill="#e0e0e0"/><path data-name="Path 8636" d="M150.223 38.445a13.066 13.066 0 0 1-2.338 0 14.148 14.148 0 0 1 2.338 0z" fill="#e0e0e0"/><path data-name="Path 8637" d="M150.223 39.159a13.066 13.066 0 0 1-2.338 0 14.152 14.152 0 0 1 2.338 0z" fill="#e0e0e0"/><path data-name="Path 8638" d="M150.223 39.873a13.068 13.068 0 0 1-2.338 0 14.152 14.152 0 0 1 2.338 0z" fill="#e0e0e0"/><path data-name="Path 8639" d="M147.723 36.075h27.9a13.179 13.179 0 0 1 0 5H147.84v-.343h1.7a.806.806 0 0 0 .806-.806v-2.758a.806.806 0 0 0-.806-.806h-1.817z" fill="#263238"/><path data-name="Path 8646" d="M174.57 41.139c-.028 0-.052-1.149-.052-2.564s.024-2.564.052-2.564.052 1.149.052 2.564-.023 2.564-.052 2.564z" fill="#f5f5f5"/><path data-name="Path 8647" d="M151.742 41.139c-.028 0-.052-1.149-.052-2.564s.024-2.564.052-2.564.052 1.149.052 2.564-.023 2.564-.052 2.564z" fill="#e0e0e0"/><path data-name="Path 8648" d="M175.058 41.139c-.028 0-.048-1.149-.048-2.564s.02-2.564.048-2.564.052 1.149.052 2.564-.023 2.564-.052 2.564z" fill="#f5f5f5"/><path data-name="Path 8649" d="M151.287 41.139c-.032 0-.052-1.149-.052-2.564s.02-2.564.052-2.564.048 1.149.048 2.564-.019 2.564-.048 2.564z" fill="#e0e0e0"/><path data-name="Path 8650" d="M167.805 36.853l2.947 2.379-.4.1-2.492.653-2.258-.955-.637-.274-.169-.073.173.073.641.262 2.262.947 2.487-.657.4-.1v.032l-2.943-2.387" fill="#e0e0e0"/><path data-name="Path 8651" d="M170.483 38.853l.161.153.218-.048-.1.2.113.189-.218-.028-.149.165-.04-.218-.2-.089.194-.1z" fill="#e0e0e0"/><path data-name="Path 8652" d="M167.656 39.792l.109.093.137-.04-.052.133.081.117-.145-.008-.089.113-.032-.137-.137-.052.121-.077z" fill="#e0e0e0"/><path data-name="Path 8653" d="M164.531 38.51l.177.012.1-.141.044.173.165.06-.149.093v.173l-.137-.109-.169.048.065-.165z" fill="#e0e0e0"/><path data-name="Path 8654" d="M171.805 36.895l.177.008.1-.137.044.169.165.06-.149.1v.173l-.137-.113-.169.048.065-.161z" fill="#e0e0e0"/><path data-name="Path 8655" d="M167.664 36.777l.113.008.069-.089.028.109.1.04-.1.056v.113l-.085-.073-.109.032.04-.1z" fill="#e0e0e0"/><path data-name="Path 8656" d="M172.05 37.015s-.956 0-2.129-.069-2.129-.1-2.129-.113.955.02 2.129.069 2.129.101 2.129.113z" fill="#e0e0e0"/><path data-name="Path 8657" d="M173.123 36.03h-28.294a2.388 2.388 0 0 1 0-2.354h28.294a2.734 2.734 0 0 1 0 2.354z" fill="#00486e"/><path data-name="Rectangle 647" fill="#ebebeb" d="M150.691 34.35h15.328v.859h-15.328z"/><path data-name="Path 8658" d="M145.909 36.043a.841.841 0 0 1-.226-.282 2.084 2.084 0 0 1-.149-1.705.9.9 0 0 1 .169-.318 2.042 2.042 0 0 1-.1.343 2.458 2.458 0 0 0-.073.835 2.391 2.391 0 0 0 .218.806 2.912 2.912 0 0 1 .161.321z" fill="#e0e0e0"/><path data-name="Path 8659" d="M146.531 36.043a.806.806 0 0 1-.226-.282 2.084 2.084 0 0 1-.149-1.705.806.806 0 0 1 .169-.318 2.048 2.048 0 0 1-.1.343 2.458 2.458 0 0 0-.073.843 2.391 2.391 0 0 0 .218.806c.092.192.173.305.161.313z" fill="#f5f5f5"/><path data-name="Path 8660" d="M171.978 35.99a4.8 4.8 0 0 0 .2-1.153 4.932 4.932 0 0 0-.185-1.153 2.016 2.016 0 0 1 .29 1.153 2.089 2.089 0 0 1-.305 1.153z" fill="#f5f5f5"/><path data-name="Path 8661" d="M171.45 35.983c-.028 0 .089-.5.085-1.125s-.117-1.121-.085-1.129a2.865 2.865 0 0 1 .19 1.129 2.676 2.676 0 0 1-.19 1.125z" fill="#f5f5f5"/><path data-name="Path 8662" d="M183.646 21.44h19.416v25.335h-19.283z" fill="#263238"/><path data-name="Rectangle 648" fill="#fff" d="M201.538 46.642h-19.304V21.565h19.304z"/><path data-name="Path 8663" d="M201.635 21.469v25.27h-19.5v-25.27zm-.194 25.077V21.663h-19.11v24.883z" fill="#263238"/><path data-name="Rectangle 649" fill="#fff" d="M184.246 24.287h14.78v19.646h-14.78z"/><path data-name="Path 8664" d="M184.21 24.283a.825.825 0 0 1 0 .093v5.378c0 3.455 0 8.358.02 14.171l-.044-.044h14.778l-.052.048V24.287l.04.04-10.732-.02h-.036l10.756-.02h.04v19.735h-14.806v-.049c0-5.826 0-10.74.024-14.2v-5.369z" fill="#263238"/><path data-name="Path 8665" d="M182.194 46.642a2.309 2.309 0 0 1 .262-.4c.169-.254.4-.6.689-.98s.544-.71.742-.947a2.826 2.826 0 0 1 .335-.367 2.149 2.149 0 0 1-.282.4l-.714.964-.714.96a2.24 2.24 0 0 1-.318.371z" fill="#263238"/><path data-name="Path 8666" d="M182.235 21.565a14.171 14.171 0 0 1 1.032 1.33 13.71 13.71 0 0 1 .943 1.387 15.02 15.02 0 0 1-1.032-1.33 14.589 14.589 0 0 1-.943-1.387z" fill="#263238"/><path data-name="Line 63" fill="#fff" d="M201.538 21.565l-2.54 2.814"/><path data-name="Path 8667" d="M198.998 24.379c-.02 0 .532-.661 1.234-1.439a17.777 17.777 0 0 1 1.314-1.375 17.782 17.782 0 0 1-1.234 1.443 18.132 18.132 0 0 1-1.314 1.371z" fill="#263238"/><path data-name="Path 8668" d="M201.546 46.642a16.116 16.116 0 0 1-1.25-1.31 16.333 16.333 0 0 1-1.169-1.379 16.981 16.981 0 0 1 1.25 1.31 16.342 16.342 0 0 1 1.169 1.379z" fill="#263238"/><path data-name="Path 8669" d="M184.928 43.925s1.589-4.927 2.532-5.447a9.035 9.035 0 0 1 4.153-1.137c2.185 0 3.225.141 4.511 1.024 1.484 1.02 2.488 5.5 2.488 5.5" fill="#00486e"/><path data-name="Path 8670" d="M189.938 37.12v-.032c-1.367-.177-2.016-1.5-2.088-3.08a19.28 19.28 0 0 1-.012-2.713 14.4 14.4 0 0 1 .46-3.177 3.878 3.878 0 0 1 3.225-1.234c2.1.157 3.181 2.967 3.181 2.967s0 4.278-.137 5.144a6.742 6.742 0 0 0-.1 1.173l-.048 1.056a2.221 2.221 0 0 1-2.221 2.117 2.221 2.221 0 0 1-2.254-2.221z" fill="#ffbe9d"/><path data-name="Path 8671" d="M194.567 32.532c.036 0 1.472-.448 1.435 1.02a1.106 1.106 0 0 1-1.5 1.089c-.007-.041.065-2.109.065-2.109z" fill="#ffbe9d"/><path data-name="Path 8672" d="M194.962 34.091s.024 0 .069.04a.246.246 0 0 0 .19 0 .625.625 0 0 0 .306-.56.827.827 0 0 0-.06-.367.306.306 0 0 0-.19-.2.133.133 0 0 0-.153.069c-.02.04 0 .069-.02.073s-.028-.028 0-.089a.165.165 0 0 1 .06-.089.206.206 0 0 1 .141-.036.367.367 0 0 1 .262.238.847.847 0 0 1 .081.4.661.661 0 0 1-.4.621.266.266 0 0 1-.234-.044c-.052-.032-.056-.032-.052-.056z" fill="#eb996e"/><path data-name="Path 8673" d="M188.645 32.148c.04.04.278-.141.625-.141s.6.169.633.125-.024-.093-.133-.173a.883.883 0 0 0-.508-.149.806.806 0 0 0-.5.161.339.339 0 0 0-.117.177z" fill="#263238"/><path data-name="Path 8674" d="M192.027 32.1c.04.044.282-.137.625-.141s.6.169.633.129-.02-.1-.133-.173a.871.871 0 0 0-1 0c-.107.08-.145.157-.125.185z" fill="#263238"/><path data-name="Path 8675" d="M192.382 30.992c.02.073.226.081.456.153s.4.177.46.125 0-.089-.052-.169a.742.742 0 0 0-.331-.21.726.726 0 0 0-.4 0c-.089.02-.141.064-.133.101z" fill="#263238"/><path data-name="Path 8676" d="M188.87 30.854c.06.069.282.077.5.024s.339-.149.278-.218a.641.641 0 0 0-.5-.02c-.215.053-.338.149-.278.214z" fill="#263238"/><path data-name="Path 8677" d="M191.209 34.717c0 .02.04.056.129.069a.484.484 0 0 0 .343-.1.456.456 0 0 0 .181-.3c0-.089 0-.145-.028-.145s-.081.194-.25.323-.367.108-.375.153z" fill="#263238"/><path data-name="Path 8678" d="M189.939 37.087a6.287 6.287 0 0 0 2.177-.278s-.266.847-2.129.754z" fill="#eb996e"/><path data-name="Path 8679" d="M186.96 29.568c-.024-.347-.129-.685-.129-1.028a1.863 1.863 0 0 1 .625-1.363 2.209 2.209 0 0 1 1.411-.54 10.153 10.153 0 0 0 1.161 0c.323-.048.625-.194.943-.274a2.419 2.419 0 0 1 1.939.363 6.651 6.651 0 0 1 1.5 1.355s1.5.044 1.435 2.153a8.717 8.717 0 0 1-.214 2.367l-.5-.153a1.012 1.012 0 0 1-.048.714.379.379 0 0 1-.339.2c-.29 0-.4-.347-.4-.617a22.58 22.58 0 0 1-.161-2.157c0-.2-.048-.46-.246-.5a.742.742 0 0 0-.343.065.641.641 0 0 1-.641-.206c0 .278-.4.4-.645.286a1.331 1.331 0 0 1-.532-.617 1.024 1.024 0 0 1-.036.456.375.375 0 0 1-.343.262c-.177 0-.3-.181-.379-.339a4.167 4.167 0 0 1-.4-1.209 2.54 2.54 0 0 1-1.06 1.613c-.065-.185-.125-.371-.185-.552a1.069 1.069 0 0 1-.258.294.367.367 0 0 1-.371.052.246.246 0 0 1-.129-.234.423.423 0 0 1-.556.141.464.464 0 0 1-.165-.177 13.138 13.138 0 0 1-.056 3.262l-.528-1.076a4.35 4.35 0 0 1-.355-2.109 3.379 3.379 0 0 0 .005-.432z" fill="#263238"/><path data-name="Path 8680" d="M194.309 28.383a1.7 1.7 0 0 1 .1-.234.907.907 0 0 1 1.04-.435 2.485 2.485 0 0 1 .238.089l-.052-.044a.746.746 0 0 0-.177-.081.891.891 0 0 0-1.081.456.957.957 0 0 0-.069.177c-.019.044-.019.072.001.072z" fill="#263238"/><path data-name="Path 8681" d="M194.12 28.339s.028 0 .064-.044a.806.806 0 0 0 .145-.157 1.181 1.181 0 0 0 .073-1.33 1.318 1.318 0 0 0-.125-.169c-.036-.04-.056-.056-.06-.052s.069.085.153.238a1.234 1.234 0 0 1-.069 1.294c-.101.147-.185.212-.181.22z" fill="#263238"/><path data-name="Path 8682" d="M190.544 32.906c-.024 0-.065.069-.113.194s-.048.141-.077.226l-.04.137a.561.561 0 0 0-.036.165.25.25 0 0 0 .068.194.286.286 0 0 0 .165.085.335.335 0 0 0 .157 0 .331.331 0 0 0 .113-.06c.117-.093.153-.169.141-.185s-.089.036-.2.093a.29.29 0 0 1-.185.024.174.174 0 0 1-.081-.044.125.125 0 0 1-.024-.085 1.108 1.108 0 0 1 .028-.129l.032-.137c.02-.089.032-.165.044-.234.024-.151.028-.244.008-.244z" fill="#263238"/><path data-name="Path 8683" d="M195.095 30.604a.449.449 0 0 0 0-.1 1.17 1.17 0 0 1 .028-.282 3.138 3.138 0 0 0-.028-.939 1.612 1.612 0 0 0-.46-.806 1.072 1.072 0 0 0-.238-.161.355.355 0 0 0-.1-.04 2.017 2.017 0 0 1 .31.23 1.613 1.613 0 0 1 .435.806 3.567 3.567 0 0 1 .065.927 3.59 3.59 0 0 0-.012.371z" fill="#455a64"/><path data-name="Path 8684" d="M193.822 30.06a.806.806 0 0 0 .173-.214 1.944 1.944 0 0 0 .258-.6 2.05 2.05 0 0 0 .048-.657 1.06 1.06 0 0 0-.057-.266 1.864 1.864 0 0 0 0 .27 2.174 2.174 0 0 1-.3 1.238 2.486 2.486 0 0 1-.122.229z" fill="#455a64"/><path data-name="Path 8685" d="M190.661 28.762v-.2a3.639 3.639 0 0 1 .04-.524 1.525 1.525 0 0 1 .282-.714.968.968 0 0 1 .347-.286 1.3 1.3 0 0 1 .472-.133 1.875 1.875 0 0 1 .923.169 2.048 2.048 0 0 1 .359.21 2.706 2.706 0 0 1 .27.242 1.888 1.888 0 0 1 .306.427c.06.109.085.173.093.173a.189.189 0 0 0 0-.048 1.261 1.261 0 0 0-.056-.137 1.717 1.717 0 0 0-.3-.439 2.089 2.089 0 0 0-.274-.25 1.975 1.975 0 0 0-.363-.222 1.875 1.875 0 0 0-.951-.177 1.335 1.335 0 0 0-.488.137 1.012 1.012 0 0 0-.359.3 1.523 1.523 0 0 0-.282.738 2.925 2.925 0 0 0-.024.532 1.387 1.387 0 0 0 0 .145.3.3 0 0 0 0 .052z" fill="#455a64"/><path data-name="Path 8686" d="M188.971 29.084v-.052l.036-.145c.028-.125.069-.31.133-.536a3.1 3.1 0 0 1 .31-.746 1.649 1.649 0 0 1 .71-.665 2.137 2.137 0 0 1 .96-.2 3.79 3.79 0 0 1 .806.1c.23.048.4.1.536.133l.145.036-.141-.048c-.125-.04-.306-.1-.532-.149a3.8 3.8 0 0 0-.806-.117 2.213 2.213 0 0 0-.988.2 1.7 1.7 0 0 0-.73.685 3.064 3.064 0 0 0-.3.766 5.281 5.281 0 0 0-.117.54.881.881 0 0 1-.024.149c-.003.041-.003.049.002.049z" fill="#455a64"/><path data-name="Path 8687" d="M188.145 29.358a3.381 3.381 0 0 0-.032-.4 2.226 2.226 0 0 1 .109-1 1.178 1.178 0 0 1 .306-.448.911.911 0 0 1 .4-.2.879.879 0 0 1 .4 0h-.028l-.081-.024a.713.713 0 0 0-.314 0 .979.979 0 0 0-.4.2 1.145 1.145 0 0 0-.331.468 2.185 2.185 0 0 0-.1 1.02 1.572 1.572 0 0 0 .044.31c.019.074.023.074.027.074z" fill="#455a64"/><path data-name="Path 8688" d="M192.862 33.749a.087.087 0 0 0 0-.077c-.02-.04-.024-.069-.04-.065s-.02.036 0 .077.028.069.04.065z" fill="#eb996e"/><path data-name="Path 8689" d="M192.249 33.62a.043.043 0 0 0 .04-.032.1.1 0 0 0 0-.052s-.028 0-.036.032-.016.048-.004.052z" fill="#eb996e"/><path data-name="Path 8690" d="M192.56 33.991a.118.118 0 0 0 .036-.069c0-.04 0-.073-.02-.073s-.032.028-.032.069.004.073.016.073z" fill="#eb996e"/><path data-name="Path 8691" d="M193.333 33.918v-.077c0-.04-.032-.069-.044-.065s0 .04 0 .081.032.07.044.061z" fill="#eb996e"/><path data-name="Path 8692" d="M189.249 33.608a.117.117 0 0 0 .036-.065.282.282 0 0 0 0-.065.085.085 0 0 0-.032.06c.003.038-.016.066-.004.07z" fill="#eb996e"/><path data-name="Path 8693" d="M188.677 33.592a.124.124 0 0 0 .028-.073c0-.04 0-.069-.028-.069s-.028.028-.028.069-.004.073.028.073z" fill="#eb996e"/><path data-name="Path 8694" d="M188.202 33.564a.139.139 0 0 0 .04-.069.214.214 0 0 0 0-.077.118.118 0 0 0-.04.069c-.008.04-.012.073 0 .077z" fill="#eb996e"/><path data-name="Path 8695" d="M188.946 34.076v-.077c0-.04-.032-.069-.044-.065s0 .04 0 .081.032.065.044.061z" fill="#eb996e"/><path data-name="Path 8696" d="M188.407 34.007a.1.1 0 0 0 .036-.056c0-.032 0-.056-.02-.06s-.032.024-.036.056.008.056.02.06z" fill="#eb996e"/><path data-name="Path 8697" d="M192.229 32.417a.314.314 0 0 0 .278.343.3.3 0 0 0 .347-.258.315.315 0 0 0-.278-.343.3.3 0 0 0-.347.258z" fill="#263238"/><path data-name="Path 8698" d="M188.943 32.416a.319.319 0 0 0 .278.343.306.306 0 0 0 .351-.258.314.314 0 0 0-.278-.343.306.306 0 0 0-.351.258z" fill="#263238"/><path data-name="Path 8714" d="M123.318 161.986l15.808 1.842 2.75-1.314-2.669-1.81-15.583-1.955a1.612 1.612 0 0 0-1.468.564l-.024.032a1.653 1.653 0 0 0 1.185 2.641z" fill="#00486e"/><path data-name="Path 8715" d="M123.382 162.006a1.054 1.054 0 0 1-.21-.476 3.08 3.08 0 0 1-.036-1.254 3 3 0 0 1 .464-1.161c.185-.266.343-.4.359-.375a6.154 6.154 0 0 0-.617 1.572 6.007 6.007 0 0 0 .04 1.694z" fill="#263238"/><path data-name="Path 8716" d="M144.317 167.866a.68.68 0 0 1-.528-.21.522.522 0 0 1-.089-.129l-.056-.133a2.446 2.446 0 0 1-.113-.306 1.916 1.916 0 0 1 0-.758 4.788 4.788 0 0 1 .161-.722 1.613 1.613 0 0 1 .286-.548c.226-.282.456-.339.464-.319a3.409 3.409 0 0 0-.347.4 1.857 1.857 0 0 0-.218.516c-.052.21-.1.452-.141.7a2.156 2.156 0 0 0 0 .681c.024.1.056.2.089.29l.048.137a.291.291 0 0 0 .048.093c.182.227.416.272.396.308z" fill="#263238"/><path data-name="Path 8717" d="M138.486 162.571c0 .056-3.427-.318-7.632-.843s-7.612-.992-7.6-1.052 3.423.323 7.628.843 7.608.995 7.604 1.052z" fill="#263238"/><path data-name="Path 8718" d="M138.525 161.107c0 .056-3.35-.294-7.467-.786s-7.447-.935-7.442-.992 3.35.294 7.471.786 7.449.94 7.438.992z" fill="#263238"/><path data-name="Path 8719" d="M145.877 165.745a.923.923 0 0 0-.431.7.887.887 0 0 0 .351.726l1.27-.617z" fill="#263238"/><g data-name="Group 634"><g filter="url(#a)" transform="translate(.001 .005)"><rect data-name="Rectangle 650" width="67" height="26" rx="13" transform="translate(15 29.79)" fill="#fff"/></g><g filter="url(#b)" transform="translate(.001 .005)"><circle data-name="Ellipse 59" cx="5.5" cy="5.5" r="5.5" transform="translate(82 54.79)" fill="#fff"/></g><g filter="url(#c)" transform="translate(.001 .005)"><circle data-name="Ellipse 60" cx="3" cy="3" r="3" transform="translate(82 72.79)" fill="#fff"/></g></g><text data-name="2 + 2 = 4" transform="translate(47.001 45.795)" fill="#1b2931" font-size="8" font-family="SegoeUI-Bold, Segoe UI" font-weight="700"><tspan x="-21.387" y="0">2 + 2 = 4</tspan></text><g data-name="Group 634"><g filter="url(#d)" transform="translate(0 -.001)"><rect data-name="Rectangle 650" width="67" height="27" rx="13.5" transform="translate(178 38.79)" fill="#fff"/></g><g filter="url(#e)" transform="translate(0 -.001)"><ellipse data-name="Ellipse 59" cx="5.5" cy="6" rx="5.5" ry="6" transform="translate(167 62.79)" fill="#fff"/></g><g filter="url(#f)" transform="translate(0 -.001)"><ellipse data-name="Ellipse 60" cx="3.5" cy="2.5" rx="3.5" ry="2.5" transform="translate(171 82.79)" fill="#fff"/></g></g><text data-name="3 + 2 = 5" transform="translate(209.001 54.795)" fill="#1b2931" font-size="8" font-family="SegoeUI-Bold, Segoe UI" font-weight="700"><tspan x="-21.387" y="0">3 + 2 = 5</tspan></text><g data-name="Group 657" transform="translate(123.086 148.487)"><rect data-name="Rectangle 679" width="41.141" height="1.765" rx=".83" transform="translate(0 30.535)" fill="#016ca4"/><path data-name="Path 8923" d="M67.765.001H25.084a3.23 3.23 0 0 0-3.057 2.624L17.574 29.67a2.18 2.18 0 0 0 2.192 2.63h42.681a3.23 3.23 0 0 0 3.063-2.63l4.453-27.045a2.174 2.174 0 0 0-2.2-2.624z" fill="#00486e"/><path data-name="Union 1" d="M43.73 23.937a1.524 1.524 0 0 1-.162-.55l-.337-.03a.526.526 0 0 1-.377-.274 1.022 1.022 0 0 1-.102-.571 1.093 1.093 0 0 1 .19-.533 1.12 1.12 0 0 1 .07-1.053 3.35 3.35 0 0 1-.778-.95 5.814 5.814 0 0 1-.68-3.41l.002-.026c.024-.266.063-.504.103-.742a7.22 7.22 0 0 1 .15-.57q-.059-.1-.104-.202a3.876 3.876 0 0 1-.259-1.819 3.717 3.717 0 0 1 .806-2.073 2.733 2.733 0 0 1 .376-.368 4.172 4.172 0 0 1-.347-1.479l-.04-.405.272.158 2.893 1.78 3.473-1.358-.115.391a4.172 4.172 0 0 1-.593 1.397 2.71 2.71 0 0 1 .304.428 3.717 3.717 0 0 1 .435 2.181 3.876 3.876 0 0 1-.57 1.746q-.064.095-.134.19c.018.212.045.426.045.637s-.002.456-.023.695l-.002.027a5.814 5.814 0 0 1-1.269 3.238 3.345 3.345 0 0 1-.932.8 1.117 1.117 0 0 1-.112 1.05 1.088 1.088 0 0 1 .094.558 1.018 1.018 0 0 1-.199.546.559.559 0 0 1-.419.204l-.337-.03a1.524 1.524 0 0 1-.25.514.682.682 0 0 1-.574.271.678.678 0 0 1-.499-.368zm.255-.326a.34.34 0 0 0 .282.212.347.347 0 0 0 .336-.158.575.575 0 0 0 .102-.179l-.789-.069a.575.575 0 0 0 .07.194zm-.817-1.276a.285.285 0 0 0-.094.206.4.4 0 0 0 .054.245.183.183 0 0 0 .144.093l2.163.189a.183.183 0 0 0 .157-.067.4.4 0 0 0 .097-.232.285.285 0 0 0-.057-.219.217.217 0 0 0-.141-.12l-2.163-.188a.217.217 0 0 0-.16.092zm.095-1.09a.338.338 0 0 0-.037.425.217.217 0 0 0 .141.12l2.163.188a.217.217 0 0 0 .16-.093.338.338 0 0 0 .037-.425.161.161 0 0 0-.14-.12l-2.163-.189a.161.161 0 0 0-.16.093zm2.362-.357l.035.003a3.354 3.354 0 0 0 1.099-.844 4.652 4.652 0 0 0 .886-1.69l.17-.628c.038-.211.056-.425.075-.637s.037-.426.037-.64c-.01-.107-.02-.215-.028-.32a2.242 2.242 0 0 1-.407.31 2.315 2.315 0 0 1-.472.199 4.848 4.848 0 0 1-.027.533 3.554 3.554 0 0 1-.804 2.047l-.003.027a2.516 2.516 0 0 1-.754.588l-.09 1.026zm-3.638-4.98c-.056.21-.075.422-.115.66-.002.24-.023.48-.004.696a4.1 4.1 0 0 0 .055.675 5.122 5.122 0 0 0 .564 1.736 3.354 3.354 0 0 0 .935 1.021l.036.003.283.025.09-1.025a2.275 2.275 0 0 1-.64-.712l.002-.027a3.55 3.55 0 0 1-.432-2.154 4.71 4.71 0 0 1 .065-.53 2.285 2.285 0 0 1-.43-.279 2.25 2.25 0 0 1-.35-.379c-.023.094-.042.19-.059.29zm3.037 4.927l.118-1.356a1.64 1.64 0 0 0 .848-.597 3.143 3.143 0 0 0 .682-1.735 3.968 3.968 0 0 0-.02-.854l.272-.084.158-.066a1.975 1.975 0 0 0 1.02-.828 3.531 3.531 0 0 0 .47-1.486 3.037 3.037 0 0 0-.368-1.855 1.642 1.642 0 0 0-.303-.417 1.633 1.633 0 0 1-.165.134 1.84 1.84 0 0 1-.514.28 1.507 1.507 0 0 1 .272.342 2.332 2.332 0 0 1 .292 1.42 2.274 2.274 0 0 1-.535 1.347 1.168 1.168 0 0 1-1.03.5 1.039 1.039 0 0 1-.588-.253c-.042.116-.09.234-.14.354a4.817 4.817 0 0 1-.441.712l-.15.201-.094-.223a4.817 4.817 0 0 1-.312-.777 2.743 2.743 0 0 1-.082-.369 1.037 1.037 0 0 1-.615.147 1.223 1.223 0 0 1-.945-.672 2.4 2.4 0 0 1-.278-1.417 2.466 2.466 0 0 1 .52-1.348 1.67 1.67 0 0 1 .34-.29 1.845 1.845 0 0 1-.453-.364 1.632 1.632 0 0 1-.14-.16 1.64 1.64 0 0 0-.37.358 3.037 3.037 0 0 0-.688 1.758 3.54 3.54 0 0 0 .205 1.544 2.026 2.026 0 0 0 .842.985l.144.093.273.136a3.967 3.967 0 0 0-.17.844 3.007 3.007 0 0 0 .372 1.828 1.64 1.64 0 0 0 .732.734l-.119 1.356zm-.226-5.459c.062.166.123.332.168.47.086-.127.176-.28.265-.432a2.143 2.143 0 0 0 .14-.381q-.039-.06-.076-.123a1.994 1.994 0 0 1-.196-.47 1.989 1.989 0 0 1-.274.428q-.047.057-.097.107a2.14 2.14 0 0 0 .071.4zm.953-2.864a1.837 1.837 0 0 0-.41 1.01 1.859 1.859 0 0 0 .227 1.09.918.918 0 0 0 .695.49.925.925 0 0 0 .79-.36 1.862 1.862 0 0 0 .411-1.036 1.84 1.84 0 0 0-.228-1.066.892.892 0 0 0-.712-.516l-.045-.004a1.4 1.4 0 0 0-.357.078 1.056 1.056 0 0 0-.37.313zm-2.444-.214a1.837 1.837 0 0 0-.41 1.01 1.859 1.859 0 0 0 .225 1.09.924.924 0 0 0 .715.492.919.919 0 0 0 .77-.362 1.863 1.863 0 0 0 .413-1.035 1.84 1.84 0 0 0-.228-1.066 1.062 1.062 0 0 0-.308-.368 1.367 1.367 0 0 0-.34-.142l-.046-.004a.89.89 0 0 0-.792.384zm1.78-.22a1.326 1.326 0 0 1 .175.391 1.38 1.38 0 0 1 .258-.353 1.314 1.314 0 0 1 .45-.318 1.08 1.08 0 0 1 .495-.131l.022.002a2.118 2.118 0 0 0 1.111-.358 2.484 2.484 0 0 0 .729-1.174l-2.906 1.167-.095-.009-2.66-1.652a2.49 2.49 0 0 0 .514 1.277 2.122 2.122 0 0 0 1.034.543l.023.002a1.08 1.08 0 0 1 .462.213 1.315 1.315 0 0 1 .388.4zm.76 1.487c.038-.426.313-.75.614-.723a.378.378 0 0 1 .243.102h-.006c-.113-.01-.22.141-.234.3s.068.301.18.311c.132.012.238-.114.252-.273.002-.027-.014-.055-.012-.081a.927.927 0 0 1 .073.462c-.037.425-.313.775-.633.747-.301-.026-.512-.42-.475-.845zm-2.443-.214c.037-.426.31-.75.63-.721a.348.348 0 0 1 .254.13c-.019-.002-.016-.03-.035-.03-.113-.01-.221.14-.235.3s.069.3.181.31c.132.012.237-.113.251-.273a.158.158 0 0 0-.003-.06.94.94 0 0 1 .062.44c-.037.426-.315.776-.615.75-.315-.026-.527-.42-.49-.846zm1.035-.365a.1.1 0 0 1 .01.021zm2.272-.034l.022.02c-.011-.001-.015-.012-.02-.02zm-.008-.008a.022.022 0 0 1 .008.008z" fill="#fff"/></g></g></svg>