<svg xmlns="http://www.w3.org/2000/svg" width="223.658" height="187.682"><g data-name="Group 662"><ellipse cx="111.829" cy="6.529" rx="111.829" ry="6.529" transform="translate(0 174.624)" fill="#f5f5f5"/><g transform="translate(40.284 25.861)"><rect data-name="Rectangle 667" width="52.682" height="6.293" rx="3.146" transform="translate(.667 86.329)" fill="#00486e"/><path data-name="Path 8878" d="M50.955 151.832h1.459l-1.678-59.211h-2.025z" fill="#407bff"/><path data-name="Path 8879" d="M50.955 151.832h1.459l-1.678-59.211h-2.025z" fill="#fff" opacity=".3"/><path data-name="Path 8880" d="M37.5 151.832h-1.46l1.684-59.211h2.019z" fill="#407bff"/><path data-name="Path 8881" d="M37.5 151.832h-1.46l1.684-59.211h2.019z" fill="#fff" opacity=".3"/><path data-name="Path 8882" d="M16.517 151.832h1.465l-1.684-59.211h-2.025z" fill="#407bff"/><path data-name="Path 8883" d="M16.517 151.832h1.465l-1.684-59.211h-2.025z" fill="#fff" opacity=".3"/><path data-name="Path 8884" d="M3.066 151.832H1.601l1.684-59.211h2.019z" fill="#407bff"/><path data-name="Path 8885" d="M3.066 151.832H1.601l1.684-59.211h2.019z" fill="#fff" opacity=".3"/><path data-name="Path 8886" d="M66.534 136.784l5.2-1.759-4.274-12.147-5.2 1.759z" fill="#ffc3bd"/><path data-name="Path 8887" d="M71.35 133.018l-5.7 2.526a.346.346 0 0 0-.19.49l2.163 4.395a1.113 1.113 0 0 0 1.378.467c1.967-.906 2.849-1.43 5.358-2.532a50.75 50.75 0 0 0 6.581-3.12c1.926-1.24.415-3.028-.531-2.67a16.993 16.993 0 0 1-8.017.381 1.73 1.73 0 0 0-1.044.063z" fill="#263238"/><path data-name="Path 8888" d="M62.26 124.638l5.2-1.765 2.44 6.95-5.289 1.511z" opacity=".2"/><path data-name="Path 8889" d="M29.684 69.902s25.954 4.683 28.048 13.208c4.112 16.853 13.387 43.211 13.387 43.211l-9.874 2.884s-14.119-30.228-15.9-40.4c-14.563 0-32.3 1.154-34.606-5.006-2.024-5.468-1.3-13.871-1.3-13.871z" fill="#263238"/><path data-name="Path 8890" d="M60.702 130.93l11.535-3.807-.986-5.208-12.579 4.43z" fill="#00486e"/><path data-name="Path 8891" d="M43.925 138.63l5.745.438-3.374-14.177-5.358 1.211z" fill="#ffc3bd"/><path data-name="Path 8892" d="M49.525 137.682l-6.189-.686a.352.352 0 0 0-.415.335l-.323 4.891a1.154 1.154 0 0 0 .963 1.09c2.151.2 3.184.185 5.906.484a49.906 49.906 0 0 0 7.261.577c2.29-.121 1.874-2.422.871-2.578a17.021 17.021 0 0 1-7.129-3.68 1.69 1.69 0 0 0-.945-.433z" fill="#263238"/><path data-name="Path 8893" d="M40.937 126.108l5.358-1.211 1.7 7.163-5.416.952z" opacity=".2"/><path data-name="Path 8894" d="M16.176 69.902s31.555 4.724 30.107 16.669c-2.082 17.222 3.264 42.133 3.264 42.133l-10.122 1.808s-7.44-30.961-7.5-41.291c-10.266 0-28.2.732-30.5-5.45C-.599 78.303.125 69.9.125 69.9z" fill="#263238"/><path data-name="Path 8895" d="M38.728 132.198l11.876-2.584-.438-5.277-12.977 3.086z" fill="#00486e"/><path data-name="Path 8896" d="M32.824 36.709c.842 3.3 1.667 6.627 2.474 9.943s1.6 6.639 2.434 9.915l.629 2.44.323 1.2.167.577v.11a.109.109 0 0 0-.029-.075 2.113 2.113 0 0 0-.161-.34l-.087-.133-.063-.086-.115-.127c-.121-.115-.138-.1-.11-.069a1.09 1.09 0 0 0 .208.167 6.271 6.271 0 0 0 .8.456c.623.306 1.35.577 2.094.877 3 1.113 6.31 2.059 9.528 3.08l-.508 3.68a52.386 52.386 0 0 1-5.306-.208 47.26 47.26 0 0 1-5.347-.75 23.392 23.392 0 0 1-2.8-.727 12.631 12.631 0 0 1-1.552-.611 7.212 7.212 0 0 1-.894-.5 5.918 5.918 0 0 1-1.09-.894c-.1-.115-.2-.225-.317-.375l-.161-.219-.161-.271a4.353 4.353 0 0 1-.306-.634l-.092-.265-.225-.634-.433-1.257c-.283-.836-.577-1.673-.813-2.5-1.044-3.334-2-6.65-2.884-9.99s-1.73-6.673-2.5-10.053z" fill="#ffc3bd"/><path data-name="Path 8897" d="M24.713 32.718c3.166-3.53 8.184-1.061 10.3 6.84a15.629 15.629 0 0 1 .7 5.848l-10.924 3.368c-2.343-5.19-4.385-11.246-.076-16.056z" fill="#407bff"/><g data-name="Group 656"><path data-name="Path 8898" d="M24.713 32.719c3.166-3.53 8.184-1.061 10.3 6.84a15.629 15.629 0 0 1 .7 5.848l-10.924 3.368c-2.343-5.19-4.385-11.246-.076-16.056z" fill="#016ca4" opacity=".2"/></g><path data-name="Path 8899" d="M56.637 63.16l-.98-.3a4.574 4.574 0 0 0-1.834-.167l-2.105.248a4.954 4.954 0 0 0-3.213 2.463l-.715 1.4c.358 2.572 5.572 1.73 5.572 1.73h4.92l-.161-3.5a2.082 2.082 0 0 0-1.484-1.874z" fill="#ffc3bd"/><path data-name="Path 8900" d="M60.011 57.53a5.191 5.191 0 0 1-1.154 2.572c-.525.767-1.067 1.528-1.615 2.307-1.1 1.505-2.226 2.988-3.461 4.4a.335.335 0 0 1-.548-.375c.854-1.673 1.817-3.264 2.8-4.845q.744-1.182 1.523-2.347a5.254 5.254 0 0 1 1.944-2.053.381.381 0 0 1 .577.369z" fill="#263238"/><path data-name="Path 8901" d="M25.446 29.298l-6.154-1.73-7.919-.369a5.485 5.485 0 0 0-5.474 3.784 139.585 139.585 0 0 0-3.91 17.009A133.7 133.7 0 0 0 .138 69.909h29.548a159.609 159.609 0 0 1 3.68-30.234 7.913 7.913 0 0 0-4.355-8.651z" fill="#00486e"/><path data-name="Path 8902" d="M17.191 30.452c.75 1.926 3.651 6.044 7.025 7.654 1.874-1.355 2.278-4.314 2.561-5.7z" fill="#fff"/><path data-name="Path 8903" d="M26.777 32.407a3 3 0 0 0-.254-2.272 2.357 2.357 0 0 1 .121-2.492 8.6 8.6 0 0 1 1.413-1.921l-3.87-4.528-3.155-3.657c-.271 3.42-.536 7.659-3.236 10.313-.952.94-1.154 1.223-.606 2.6.75 1.926 3.461 4.614 6.806 6.223a6.558 6.558 0 0 0 2.78-4.268z" fill="#ffc3bd"/><path data-name="Path 8904" d="M26.869 24.943l-2.186-3.547c-.04.092-.092.19-.144.294a8.3 8.3 0 0 0-.473 1.361c-.4 1.575.94 3.824 2.405 4.9.063-.1.115-.2.173-.306a10.772 10.772 0 0 1 1.321-1.863.577.577 0 0 1 .092-.058z" opacity=".2"/><path data-name="Path 8905" d="M34.506 16.465c.508 3.27 5.191-5.145 2.572-6.99-3.195-2.261-3.529.767-2.572 6.99z" fill="#263238"/><path data-name="Path 8906" d="M21.176 12.196c-.3 5.312-.756 8.4 1.684 11.466a7.4 7.4 0 0 0 12.654-1.99c1.73-4.579 1.944-12.493-3.161-15.3a7.386 7.386 0 0 0-11.177 5.824z" fill="#ffc3bd"/><path data-name="Path 8907" d="M31.645 9.007s3.4 3.334 5.82 1.955 2.913-4.949 0-8.075c-1.4-1.505-3.524-2.976-7.688-2.884a3.207 3.207 0 0 0 1.154.721s-5.283-.882-8.963.634a3.38 3.38 0 0 0 1.154 1.073c-3.582-.271-7.065 1.154-4.614 4.516-3.247.317-3.974 4.47-2.244 7.21s2.036 4.793 4.349 6.039c0-3.732.859-4.614.859-4.614 1.667-.709 3.587-4.262 3.2-6.056 3.564 1.437 7.365 1.909 6.973-.519z" fill="#263238"/><path data-name="Path 8908" d="M19.36 6.827a7.325 7.325 0 0 1-2.532-3.2c-.415 1.857 1.505 3.974 1.505 3.974z" fill="#263238"/><path data-name="Path 8909" d="M18.523 15.098a5.053 5.053 0 0 0 1.344 3.27c1.1 1.154 2.6.173 2.884-1.309.231-1.332-.335-3.368-1.73-3.968s-2.538.519-2.498 2.007z" fill="#ffc3bd"/><path data-name="Path 8910" d="M29.874 14.937c-.087.438.069.848.352.917s.577-.231.675-.669-.069-.848-.352-.917-.588.236-.675.669z" fill="#263238"/><path data-name="Path 8911" d="M34.777 16.108c-.092.438.069.842.352.911s.577-.231.675-.669-.075-.848-.358-.911-.583.23-.669.669z" fill="#263238"/><path data-name="Path 8912" d="M33.145 16.073a14.172 14.172 0 0 0 .877 3.668 2.148 2.148 0 0 1-1.823-.208z" fill="#ed847e"/><path data-name="Path 8913" d="M31.293 21.985a3.841 3.841 0 0 1-2.474-1.73.133.133 0 1 1 .231-.127 3.674 3.674 0 0 0 2.78 1.661.121.121 0 0 1 .115.138.127.127 0 0 1-.138.121 4.359 4.359 0 0 1-.513-.063z" fill="#263238"/><path data-name="Path 8914" d="M29.229 13.172a.261.261 0 0 1-.069-.444 2.509 2.509 0 0 1 2.307-.519.264.264 0 0 1-.167.5 2.007 2.007 0 0 0-1.805.427.26.26 0 0 1-.266.036z" fill="#263238"/><path data-name="Path 8915" d="M35.387 13.27a.317.317 0 0 1 0-.127.271.271 0 0 1 .323-.185 2.52 2.52 0 0 1 1.73 1.6.261.261 0 1 1-.5.144 1.978 1.978 0 0 0-1.378-1.24.277.277 0 0 1-.173-.2z" fill="#263238"/><path data-name="Path 8916" d="M12.606 35.118c-1.107 3.161-2.215 6.454-3.2 9.684a102.93 102.93 0 0 0-1.367 4.833 41.237 41.237 0 0 0-.923 4.66c0 .173-.046.363-.052.531v.415c0-.04-.046.035 0 .156a3.294 3.294 0 0 0 .7 1.188 17.758 17.758 0 0 0 3.345 2.884 74.889 74.889 0 0 0 8.68 5.041l-1.234 3.553a45.729 45.729 0 0 1-5.277-1.488 42.307 42.307 0 0 1-5.145-2.151 21.3 21.3 0 0 1-5.018-3.409 9.736 9.736 0 0 1-2.261-3.12 6.852 6.852 0 0 1-.577-2.4v-1.672a39.058 39.058 0 0 1 .721-5.716c.346-1.823.779-3.587 1.246-5.341a102.7 102.7 0 0 1 3.351-10.278z" fill="#ffc3bd"/><path data-name="Path 8917" d="M10.986 27.164c5.641-.052 6.708 4.337 3.639 11.293a39.694 39.694 0 0 1-4.28 7.112l-9.326-4.954c1.246-5.555 3.524-13.394 9.967-13.451z" fill="#016ca4"/><path data-name="Path 8918" d="M26.561 63.956l-2.065-1.154a1.811 1.811 0 0 0-1.107-.208l-2.48.346a6.024 6.024 0 0 0-3.789 2.555l-1.059 1.291c-.052 2.607 6.535 2 6.535 2l5.768-.075-.179-2.272a3.138 3.138 0 0 0-1.626-2.48z" fill="#ffc3bd"/></g><path data-name="Rectangle 668" fill="#00486e" d="M33.764 93.283h156.125v7.308H33.764z"/><path data-name="Rectangle 669" fill="#fff" opacity=".3" d="M33.764 93.283h50.64v7.308h-50.64z"/><path data-name="Rectangle 670" fill="#407bff" d="M35.558 100.591h2.388v80.563h-2.388z"/><path data-name="Rectangle 671" fill="#b3e3ef" opacity=".7" d="M35.558 100.591h2.388v80.563h-2.388z"/><path data-name="Rectangle 672" fill="#407bff" d="M80.228 100.591h2.388v80.563h-2.388z"/><path data-name="Rectangle 673" fill="#b3e3ef" opacity=".7" d="M80.228 100.591h2.388v80.563h-2.388z"/><path data-name="Rectangle 674" fill="#b3e3ef" d="M141.042 100.591h2.388v80.563h-2.388z"/><path data-name="Rectangle 675" fill="#b3e3ef" opacity=".7" d="M141.042 100.591h2.388v80.563h-2.388z"/><path data-name="Rectangle 676" fill="#407bff" d="M185.713 100.591h2.388v80.563h-2.388z"/><path data-name="Rectangle 677" fill="#b3e3ef" opacity=".7" d="M185.713 100.591h2.388v80.563h-2.388z"/><path data-name="Path 8921" d="M62.493 91.519s13.744 2.048 20.377-.658c3.1 1.494 14.154 2.232 18 .658-1.188 1.378-3.98 1.765-3.98 1.765H67.897a8.384 8.384 0 0 1-5.404-1.765z" fill="#407bff"/><path data-name="Path 8922" d="M62.493 91.519s13.744 2.048 20.377-.658c3.1 1.494 14.154 2.232 18 .658-1.188 1.378-3.98 1.765-3.98 1.765H67.897a8.384 8.384 0 0 1-5.404-1.765z" fill="#fff" opacity=".7"/><g data-name="Group 658" transform="translate(105.202 60.983)"><rect data-name="Rectangle 679" width="41.141" height="1.765" rx=".83" transform="translate(0 30.535)" fill="#263238"/><path data-name="Path 8923" d="M67.765.001H25.084a3.23 3.23 0 0 0-3.057 2.624L17.574 29.67a2.18 2.18 0 0 0 2.192 2.63h42.681a3.23 3.23 0 0 0 3.063-2.63l4.453-27.045a2.174 2.174 0 0 0-2.2-2.624z" fill="#515b60"/><path data-name="Union 1" d="M43.73 23.937a1.524 1.524 0 0 1-.162-.55l-.337-.03a.526.526 0 0 1-.377-.274 1.022 1.022 0 0 1-.102-.571 1.093 1.093 0 0 1 .19-.533 1.12 1.12 0 0 1 .07-1.053 3.35 3.35 0 0 1-.778-.95 5.814 5.814 0 0 1-.68-3.41l.002-.026c.024-.266.063-.504.103-.742a7.22 7.22 0 0 1 .15-.57q-.059-.1-.104-.202a3.876 3.876 0 0 1-.259-1.819 3.717 3.717 0 0 1 .806-2.073 2.733 2.733 0 0 1 .376-.368 4.172 4.172 0 0 1-.347-1.479l-.04-.405.272.158 2.893 1.78 3.473-1.358-.115.391a4.172 4.172 0 0 1-.593 1.397 2.71 2.71 0 0 1 .304.428 3.717 3.717 0 0 1 .435 2.181 3.876 3.876 0 0 1-.57 1.746q-.064.095-.134.19c.018.212.045.426.045.637s-.002.456-.023.695l-.002.027a5.814 5.814 0 0 1-1.269 3.238 3.345 3.345 0 0 1-.932.8 1.117 1.117 0 0 1-.112 1.05 1.088 1.088 0 0 1 .094.558 1.018 1.018 0 0 1-.199.546.559.559 0 0 1-.419.204l-.337-.03a1.524 1.524 0 0 1-.25.514.682.682 0 0 1-.574.271.678.678 0 0 1-.499-.368zm.255-.326a.34.34 0 0 0 .282.212.347.347 0 0 0 .336-.158.575.575 0 0 0 .102-.179l-.789-.069a.575.575 0 0 0 .07.194zm-.817-1.276a.285.285 0 0 0-.094.206.4.4 0 0 0 .054.245.183.183 0 0 0 .144.093l2.163.189a.183.183 0 0 0 .157-.067.4.4 0 0 0 .097-.232.285.285 0 0 0-.057-.219.217.217 0 0 0-.141-.12l-2.163-.188a.217.217 0 0 0-.16.092zm.095-1.09a.338.338 0 0 0-.037.425.217.217 0 0 0 .141.12l2.163.188a.217.217 0 0 0 .16-.093.338.338 0 0 0 .037-.425.161.161 0 0 0-.14-.12l-2.163-.189a.161.161 0 0 0-.16.093zm2.362-.357l.035.003a3.354 3.354 0 0 0 1.099-.844 4.652 4.652 0 0 0 .886-1.69l.17-.628c.038-.211.056-.425.075-.637s.037-.426.037-.64c-.01-.107-.02-.215-.028-.32a2.242 2.242 0 0 1-.407.31 2.315 2.315 0 0 1-.472.199 4.848 4.848 0 0 1-.027.533 3.554 3.554 0 0 1-.804 2.047l-.003.027a2.516 2.516 0 0 1-.754.588l-.09 1.026zm-3.638-4.98c-.056.21-.075.422-.115.66-.002.24-.023.48-.004.696a4.1 4.1 0 0 0 .055.675 5.122 5.122 0 0 0 .564 1.736 3.354 3.354 0 0 0 .935 1.021l.036.003.283.025.09-1.025a2.275 2.275 0 0 1-.64-.712l.002-.027a3.55 3.55 0 0 1-.432-2.154 4.71 4.71 0 0 1 .065-.53 2.285 2.285 0 0 1-.43-.279 2.25 2.25 0 0 1-.35-.379c-.023.094-.042.19-.059.29zm3.037 4.927l.118-1.356a1.64 1.64 0 0 0 .848-.597 3.143 3.143 0 0 0 .682-1.735 3.968 3.968 0 0 0-.02-.854l.272-.084.158-.066a1.975 1.975 0 0 0 1.02-.828 3.531 3.531 0 0 0 .47-1.486 3.037 3.037 0 0 0-.368-1.855 1.642 1.642 0 0 0-.303-.417 1.633 1.633 0 0 1-.165.134 1.84 1.84 0 0 1-.514.28 1.507 1.507 0 0 1 .272.342 2.332 2.332 0 0 1 .292 1.42 2.274 2.274 0 0 1-.535 1.347 1.168 1.168 0 0 1-1.03.5 1.039 1.039 0 0 1-.588-.253c-.042.116-.09.234-.14.354a4.817 4.817 0 0 1-.441.712l-.15.201-.094-.223a4.817 4.817 0 0 1-.312-.777 2.743 2.743 0 0 1-.082-.369 1.037 1.037 0 0 1-.615.147 1.223 1.223 0 0 1-.945-.672 2.4 2.4 0 0 1-.278-1.417 2.466 2.466 0 0 1 .52-1.348 1.67 1.67 0 0 1 .34-.29 1.845 1.845 0 0 1-.453-.364 1.632 1.632 0 0 1-.14-.16 1.64 1.64 0 0 0-.37.358 3.037 3.037 0 0 0-.688 1.758 3.54 3.54 0 0 0 .205 1.544 2.026 2.026 0 0 0 .842.985l.144.093.273.136a3.967 3.967 0 0 0-.17.844 3.007 3.007 0 0 0 .372 1.828 1.64 1.64 0 0 0 .732.734l-.119 1.356zm-.226-5.459c.062.166.123.332.168.47.086-.127.176-.28.265-.432a2.143 2.143 0 0 0 .14-.381q-.039-.06-.076-.123a1.994 1.994 0 0 1-.196-.47 1.989 1.989 0 0 1-.274.428q-.047.057-.097.107a2.14 2.14 0 0 0 .071.4zm.953-2.864a1.837 1.837 0 0 0-.41 1.01 1.859 1.859 0 0 0 .227 1.09.918.918 0 0 0 .695.49.925.925 0 0 0 .79-.36 1.862 1.862 0 0 0 .411-1.036 1.84 1.84 0 0 0-.228-1.066.892.892 0 0 0-.712-.516l-.045-.004a1.4 1.4 0 0 0-.357.078 1.056 1.056 0 0 0-.37.313zm-2.444-.214a1.837 1.837 0 0 0-.41 1.01 1.859 1.859 0 0 0 .225 1.09.924.924 0 0 0 .715.492.919.919 0 0 0 .77-.362 1.863 1.863 0 0 0 .413-1.035 1.84 1.84 0 0 0-.228-1.066 1.062 1.062 0 0 0-.308-.368 1.367 1.367 0 0 0-.34-.142l-.046-.004a.89.89 0 0 0-.792.384zm1.78-.22a1.326 1.326 0 0 1 .175.391 1.38 1.38 0 0 1 .258-.353 1.314 1.314 0 0 1 .45-.318 1.08 1.08 0 0 1 .495-.131l.022.002a2.118 2.118 0 0 0 1.111-.358 2.484 2.484 0 0 0 .729-1.174l-2.906 1.167-.095-.009-2.66-1.652a2.49 2.49 0 0 0 .514 1.277 2.122 2.122 0 0 0 1.034.543l.023.002a1.08 1.08 0 0 1 .462.213 1.315 1.315 0 0 1 .388.4zm.76 1.487c.038-.426.313-.75.614-.723a.378.378 0 0 1 .243.102h-.006c-.113-.01-.22.141-.234.3s.068.301.18.311c.132.012.238-.114.252-.273.002-.027-.014-.055-.012-.081a.927.927 0 0 1 .073.462c-.037.425-.313.775-.633.747-.301-.026-.512-.42-.475-.845zm-2.443-.214c.037-.426.31-.75.63-.721a.348.348 0 0 1 .254.13c-.019-.002-.016-.03-.035-.03-.113-.01-.221.14-.235.3s.069.3.181.31c.132.012.237-.113.251-.273a.158.158 0 0 0-.003-.06.94.94 0 0 1 .062.44c-.037.426-.315.776-.615.75-.315-.026-.527-.42-.49-.846zm1.035-.365a.1.1 0 0 1 .01.021zm2.272-.034l.022.02c-.011-.001-.015-.012-.02-.02zm-.008-.008a.022.022 0 0 1 .008.008z" fill="#fff"/></g><g data-name="Group 661" fill="#00486e"><path data-name="Path 8875" d="M154.696 53.281a19.185 19.185 0 0 1-3.146-.255l.048-.281a18.915 18.915 0 0 0 3.087.253z"/><path data-name="Path 8876" d="M160.496 56.188l.149-.3a5.486 5.486 0 0 0 .295-3.667 17.527 17.527 0 0 1-3.367.842l-.042-.281a17.243 17.243 0 0 0 3.446-.887l.14-.051.042.14a5.892 5.892 0 0 1-.132 3.707c3.449-1.372 7.049-6.243 7.049-12.046 0-5.152-6.008-9.344-13.393-9.344s-13.39 4.192-13.39 9.344c0 3.746 3.19 7.122 8.137 8.6l-.081.281c-5.051-1.512-8.328-4.992-8.328-8.867 0-5.306 6.134-9.625 13.671-9.625s13.674 4.318 13.674 9.625c0 6.1-3.928 11.2-7.548 12.425z"/><text data-name="?" transform="translate(151.674 48.266)" font-size="11" font-family="SegoeUI, Segoe UI"><tspan x="0" y="0">?</tspan></text></g><g data-name="Group 660" fill="#00486e"><g data-name="freepik--Bubble--inject-57"><path data-name="Path 8875" d="M62.414 19.252a19.185 19.185 0 0 1-3.146-.255l.048-.281a18.915 18.915 0 0 0 3.087.253z"/><path data-name="Path 8876" d="M68.214 22.159l.149-.3a5.486 5.486 0 0 0 .295-3.667 17.527 17.527 0 0 1-3.367.842l-.042-.281a17.243 17.243 0 0 0 3.446-.887l.14-.051.042.14a5.892 5.892 0 0 1-.132 3.707c3.449-1.372 7.049-6.243 7.049-12.046 0-5.152-6.008-9.344-13.393-9.344s-13.39 4.192-13.39 9.344c0 3.746 3.19 7.122 8.137 8.6l-.081.281c-5.051-1.512-8.328-4.992-8.328-8.867 0-5.306 6.134-9.625 13.671-9.625S76.084 4.323 76.084 9.63c0 6.1-3.928 11.2-7.548 12.425z"/></g><g data-name="Icon ionic-ios-bulb"><path data-name="Path 8924" d="M65.78 7.778a3.124 3.124 0 0 0-6.241 0 2.875 2.875 0 0 0 .637 1.689h-.007c.23.316.451.373.664.738a2.362 2.362 0 0 1 .394 1.174.338.338 0 0 0 .337.323h.188a.085.085 0 0 0 .084-.084V9.625a.682.682 0 0 0-.072-.3l-.443-.886a.221.221 0 0 1 .2-.321.22.22 0 0 1 .2.124l.533 1.084a.662.662 0 0 1 .07.3v1.995a.085.085 0 0 0 .084.084h.506a.085.085 0 0 0 .084-.084V9.623a.662.662 0 0 1 .07-.3l.536-1.088a.213.213 0 0 1 .19-.118.212.212 0 0 1 .19.308l-.449.9a.689.689 0 0 0-.072.3v1.99a.085.085 0 0 0 .084.084h.211a.337.337 0 0 0 .337-.316 2.533 2.533 0 0 1 .388-1.181c.213-.365.434-.422.664-.738a2.875 2.875 0 0 0 .633-1.686z"/><path data-name="Path 8925" d="M62.28 13.579h.755a.3.3 0 0 0 .3-.3.3.3 0 0 0-.3-.3h-.759a.3.3 0 0 0-.3.3.3.3 0 0 0 .304.3z"/><path data-name="Path 8926" d="M61.858 12.651h1.6a.3.3 0 0 0 .3-.3.3.3 0 0 0-.3-.3h-1.6a.3.3 0 0 0-.3.3.3.3 0 0 0 .3.3z"/></g></g></g></svg>