<svg xmlns="http://www.w3.org/2000/svg" width="234.852" height="201.95"><defs><filter id="a" x="170.051" y="0" width="64.801" height="49.781" filterUnits="userSpaceOnUse"><feOffset dy="3"/><feGaussianBlur stdDeviation="3" result="blur"/><feFlood flood-opacity=".161"/><feComposite operator="in" in2="blur"/><feComposite in="SourceGraphic"/></filter><filter id="b" x="62.196" y="6.344" width="64.801" height="49.781" filterUnits="userSpaceOnUse"><feOffset dy="3"/><feGaussianBlur stdDeviation="3" result="blur-2"/><feFlood flood-opacity=".161"/><feComposite operator="in" in2="blur-2"/><feComposite in="SourceGraphic"/></filter></defs><g data-name="Group 654"><path data-name="Path 8779" d="M216.511 15.822H104.619a.825.825 0 0 1-.825-.825.825.825 0 0 1 .825-.819h111.892a.819.819 0 0 1 .819.819.819.819 0 0 1-.819.825z" fill="#e0e0e0"/><g data-name="Group 646"><g data-name="Group 645" transform="translate(99.781 15.688)"><path data-name="Rectangle 663" d="M4.484 2.463H103.1a6.647 6.647 0 0 1 6.647 6.647v66.445a1.432 1.432 0 0 1-1.432 1.432H1.432A1.432 1.432 0 0 1 0 75.555V6.947a4.484 4.484 0 0 1 4.484-4.484z" fill="#b3e3ef"/><rect data-name="Rectangle 664" width="102.221" height="16.045" rx="2.827" transform="translate(3.816 57.325)" fill="#fff"/><rect data-name="Rectangle 665" width="102.221" height="6.508" rx="1.801" transform="translate(3.816 48.163)" fill="#fff"/><g data-name="Group 642" fill="#fff"><path data-name="Path 8855" d="M55.85 15.044H4.856a1.436 1.436 0 0 1-1.436-1.438 1.436 1.436 0 0 1 1.436-1.436H55.85a1.436 1.436 0 0 1 1.436 1.436 1.436 1.436 0 0 1-1.436 1.438z" opacity=".31"/><path data-name="Path 8856" d="M55.85 20.983H4.856a1.436 1.436 0 0 1-1.436-1.436 1.436 1.436 0 0 1 1.436-1.436H55.85a1.436 1.436 0 0 1 1.436 1.436 1.436 1.436 0 0 1-1.436 1.436z" opacity=".31"/><path data-name="Path 8857" d="M55.85 26.918H4.856a1.436 1.436 0 0 1-1.436-1.436 1.436 1.436 0 0 1 1.436-1.436H55.85a1.436 1.436 0 0 1 1.436 1.436 1.436 1.436 0 0 1-1.436 1.436z" opacity=".31"/><path data-name="Path 8858" d="M55.85 32.854H4.856a1.436 1.436 0 0 1-1.436-1.436 1.436 1.436 0 0 1 1.436-1.436H55.85a1.436 1.436 0 0 1 1.436 1.436 1.436 1.436 0 0 1-1.436 1.436z" opacity=".31"/><path data-name="Path 8859" d="M55.85 38.79H4.856a1.437 1.437 0 0 1-1.436-1.436 1.436 1.436 0 0 1 1.436-1.436H55.85a1.436 1.436 0 0 1 1.436 1.436 1.436 1.436 0 0 1-1.436 1.436z" opacity=".31"/><path data-name="Path 8860" d="M43.87 44.728H4.856a1.436 1.436 0 0 1-1.436-1.436 1.436 1.436 0 0 1 1.436-1.436H43.87a1.436 1.436 0 0 1 1.436 1.436 1.436 1.436 0 0 1-1.436 1.436z" opacity=".31"/></g><path data-name="Path 8861" d="M108.634 0H1.112A1.053 1.053 0 0 0 0 .982v7.269h109.746V.982A1.053 1.053 0 0 0 108.634 0z" fill="#00486e"/><g data-name="Group 643" fill="#fff"><path data-name="Path 8862" d="M95.367 4.126a.9.9 0 1 1-.9-.9.895.895 0 0 1 .9.9z"/><path data-name="Path 8863" d="M99.816 4.126a.9.9 0 1 1-.9-.9.9.9 0 0 1 .9.9z"/><path data-name="Path 8864" d="M104.262 4.126a.9.9 0 1 1-.9-.9.9.9 0 0 1 .9.9z"/></g><g data-name="Group 644"><path data-name="Path 8865" d="M106.037 13.105v30.689a.937.937 0 0 1-.938.939H74.741a.935.935 0 0 1-.927-.939V13.105a.933.933 0 0 1 .927-.927h30.358a.935.935 0 0 1 .938.927z" fill="#fff"/><path data-name="Path 8866" d="M106.037 38.039v5.751a.937.937 0 0 1-.938.938H90.041l.64-6.69 7.087-7.837z" fill="#016ca4"/><path data-name="Path 8867" d="M101.823 44.729H74.741a.935.935 0 0 1-.927-.938V38.04l10.6-11.121z" fill="#00486e"/><path data-name="Path 8868" d="M101.775 20.981a3.736 3.736 0 1 1-3.736-3.736 3.736 3.736 0 0 1 3.736 3.736z" fill="#016ca4"/></g></g><g data-name="Group 641"><path data-name="Rectangle 662" fill="#00486e" d="M99.525 84.195h110.001v8.688H99.525z"/><g data-name="Group 639" transform="translate(114.206 87.003)"><path data-name="Path 8852" d="M91.101 2.39H.853a.853.853 0 0 1 0-1.706h90.248a.853.853 0 0 1 0 1.706z" fill="#9494ed"/><path data-name="Path 8853" d="M45.978.682v1.706H.854a.853.853 0 1 1 0-1.706z" fill="#f98094"/><circle data-name="Ellipse 61" cx="1.536" cy="1.536" r="1.536" transform="translate(44.463)" fill="#fff"/></g><g data-name="Group 640" transform="translate(102.763 84.417)"><circle data-name="Ellipse 62" cx="3.427" cy="3.427" r="3.427" transform="rotate(-76.718 4.214 3.335)" fill="#fff"/><path data-name="Path 8854" d="M3.606 2.585l1.879 1.447a.113.113 0 0 1 0 .18L3.606 5.659a.113.113 0 0 1-.183-.09V2.674a.113.113 0 0 1 .183-.089z" fill="#00486e"/></g></g></g><g data-name="Group 652"><g transform="translate(.001)" filter="url(#a)"><path data-name="Rectangle 663" d="M183.534 6h35.67a6.647 6.647 0 0 1 6.646 6.647v23.7a1.432 1.432 0 0 1-1.432 1.432h-43.936a1.432 1.432 0 0 1-1.432-1.431V10.484A4.484 4.484 0 0 1 183.534 6z" fill="#b3e3ef"/></g><path data-name="Path 8861" d="M225.378 4.95h-45.856a.449.449 0 0 0-.474.419v3.1h46.8v-3.1a.449.449 0 0 0-.47-.419z" fill="#fca700"/><path data-name="Path 8862" d="M219.721 6.709a.382.382 0 1 1-.382-.382.382.382 0 0 1 .382.382z" fill="#fff"/><path data-name="Path 8863" d="M221.618 6.709a.382.382 0 1 1-.382-.382.382.382 0 0 1 .382.382z" fill="#fff"/><path data-name="Path 8864" d="M223.515 6.709a.382.382 0 1 1-.382-.382.382.382 0 0 1 .382.382z" fill="#fff"/><g data-name="Group 650" transform="translate(180.51 10.141)"><rect data-name="Rectangle 664" width="43.592" height="6.842" rx="2.827" transform="translate(.169 19.255)" fill="#fff"/><rect data-name="Rectangle 665" width="43.592" height="2.775" rx="1.388" transform="translate(.169 15.348)" fill="#fff"/><path data-name="Path 8855" d="M22.359 1.225H.612A.612.612 0 0 1-.001.613.612.612 0 0 1 .612.001h21.746a.612.612 0 0 1 .612.612.612.612 0 0 1-.611.612z" fill="#fff"/><path data-name="Path 8856" d="M22.359 3.757H.612a.612.612 0 0 1-.613-.612.613.613 0 0 1 .613-.613h21.746a.612.612 0 0 1 .612.613.612.612 0 0 1-.611.612z" fill="#fff"/><path data-name="Path 8857" d="M22.359 6.288H.612a.612.612 0 0 1-.613-.612.612.612 0 0 1 .613-.612h21.746a.612.612 0 0 1 .612.612.612.612 0 0 1-.611.612z" fill="#fff"/><path data-name="Path 8858" d="M22.359 8.82H.612a.612.612 0 0 1-.613-.612.612.612 0 0 1 .613-.612h21.746a.612.612 0 0 1 .612.612.612.612 0 0 1-.611.612z" fill="#fff"/><path data-name="Path 8859" d="M22.359 11.352H.612a.613.613 0 0 1-.613-.612.613.613 0 0 1 .613-.613h21.746a.612.612 0 0 1 .612.613.613.613 0 0 1-.611.612z" fill="#fff"/><path data-name="Path 8860" d="M17.25 13.884H.612a.612.612 0 0 1-.613-.612.612.612 0 0 1 .613-.612h16.637a.612.612 0 0 1 .612.612.612.612 0 0 1-.611.612z" fill="#fff"/><path data-name="Path 8865" d="M43.76.396v13.087a.4.4 0 0 1-.4.4H30.414a.4.4 0 0 1-.4-.4V.396a.4.4 0 0 1 .4-.4H43.36a.4.4 0 0 1 .4.4z" fill="#fff"/><path data-name="Path 8866" d="M43.76 11.031v2.453a.4.4 0 0 1-.4.4h-6.421l.273-2.853 3.022-3.342z" fill="#fca700"/><path data-name="Path 8867" d="M41.962 13.884H30.414a.4.4 0 0 1-.4-.4v-2.453l4.519-4.743z" fill="#fca700"/><path data-name="Path 8868" d="M41.944 3.756a1.593 1.593 0 1 1-1.593-1.593 1.593 1.593 0 0 1 1.593 1.593z" fill="#fca700"/></g><g data-name="Group 651" transform="translate(195.007 14.914)"><circle data-name="Ellipse 62" cx="6.035" cy="6.035" r="6.035" transform="rotate(-76.718 7.422 5.874)" fill="#fca700"/><path data-name="Path 8854" d="M6.351 4.553L9.66 7.102a.2.2 0 0 1 0 .317L6.351 9.968a.2.2 0 0 1-.322-.158v-5.1a.2.2 0 0 1 .322-.157z" fill="#fff"/></g></g><g data-name="Group 653"><g transform="translate(-.004 .004)" filter="url(#b)"><path data-name="Rectangle 663" d="M75.684 12.34h35.67A6.647 6.647 0 0 1 118 18.987v23.7a1.432 1.432 0 0 1-1.432 1.432H72.632a1.432 1.432 0 0 1-1.432-1.431V16.824a4.484 4.484 0 0 1 4.484-4.484z" fill="#b3e3ef"/></g><path data-name="Path 8861" d="M117.523 11.294H71.667a.449.449 0 0 0-.474.419v3.1h46.8v-3.1a.449.449 0 0 0-.47-.419z" fill="#fca700"/><path data-name="Path 8862" d="M111.866 13.053a.382.382 0 1 1-.382-.382.382.382 0 0 1 .382.382z" fill="#fff"/><path data-name="Path 8863" d="M113.763 13.053a.382.382 0 1 1-.382-.382.382.382 0 0 1 .382.382z" fill="#fff"/><path data-name="Path 8864" d="M115.66 13.053a.382.382 0 1 1-.382-.382.382.382 0 0 1 .382.382z" fill="#fff"/><g data-name="Group 650" transform="translate(72.655 16.485)"><rect data-name="Rectangle 664" width="43.592" height="6.842" rx="2.827" transform="translate(.169 19.255)" fill="#fff"/><rect data-name="Rectangle 665" width="43.592" height="2.775" rx="1.388" transform="translate(.169 15.348)" fill="#fff"/><path data-name="Path 8855" d="M22.359 1.225H.612A.612.612 0 0 1-.001.613.612.612 0 0 1 .612.001h21.746a.612.612 0 0 1 .612.612.612.612 0 0 1-.611.612z" fill="#fff"/><path data-name="Path 8856" d="M22.359 3.757H.612a.612.612 0 0 1-.613-.612.613.613 0 0 1 .613-.613h21.746a.612.612 0 0 1 .612.613.612.612 0 0 1-.611.612z" fill="#fff"/><path data-name="Path 8857" d="M22.359 6.288H.612a.612.612 0 0 1-.613-.612.612.612 0 0 1 .613-.612h21.746a.612.612 0 0 1 .612.612.612.612 0 0 1-.611.612z" fill="#fff"/><path data-name="Path 8858" d="M22.359 8.82H.612a.612.612 0 0 1-.613-.612.612.612 0 0 1 .613-.612h21.746a.612.612 0 0 1 .612.612.612.612 0 0 1-.611.612z" fill="#fff"/><path data-name="Path 8859" d="M22.359 11.352H.612a.613.613 0 0 1-.613-.612.613.613 0 0 1 .613-.613h21.746a.612.612 0 0 1 .612.613.613.613 0 0 1-.611.612z" fill="#fff"/><path data-name="Path 8860" d="M17.25 13.884H.612a.612.612 0 0 1-.613-.612.612.612 0 0 1 .613-.612h16.637a.612.612 0 0 1 .612.612.612.612 0 0 1-.611.612z" fill="#fff"/><path data-name="Path 8865" d="M43.76.396v13.087a.4.4 0 0 1-.4.4H30.414a.4.4 0 0 1-.4-.4V.396a.4.4 0 0 1 .4-.4H43.36a.4.4 0 0 1 .4.4z" fill="#fff"/><path data-name="Path 8866" d="M43.76 11.031v2.453a.4.4 0 0 1-.4.4h-6.421l.273-2.853 3.022-3.342z" fill="#ff4d4d"/><path data-name="Path 8867" d="M41.962 13.884H30.414a.4.4 0 0 1-.4-.4v-2.453l4.519-4.743z" fill="#ff4d4d"/><path data-name="Path 8868" d="M41.944 3.756a1.593 1.593 0 1 1-1.593-1.593 1.593 1.593 0 0 1 1.593 1.593z" fill="#ff4d4d"/></g><g data-name="Group 651" transform="translate(87.152 21.258)"><circle data-name="Ellipse 62" cx="6.035" cy="6.035" r="6.035" transform="rotate(-76.718 7.422 5.874)" fill="#fca700"/><path data-name="Path 8854" d="M6.351 4.553L9.66 7.102a.2.2 0 0 1 0 .317L6.351 9.968a.2.2 0 0 1-.322-.158v-5.1a.2.2 0 0 1 .322-.157z" fill="#fff"/></g></g><ellipse cx="111.829" cy="6.529" rx="111.829" ry="6.529" transform="translate(2.018 188.892)" fill="#f5f5f5"/><path data-name="Rectangle 656" fill="#016ca4" d="M29.547 125.621h55.364v1.355H29.547z"/><path data-name="Rectangle 657" fill="#263238" d="M70.232 125.621h14.679v1.355H70.232z"/><path data-name="Path 8781" d="M62.307 194.319h-.836l-3.5-35.788c-.288-2.97-2.226-5.191-4.493-5.191h-6.887c-2.307 0-4.2 2.238-4.493 5.191l-3.5 35.788h-.827l3.507-35.95c.34-3.513 2.624-6.166 5.318-6.166h6.887c2.688 0 4.977 2.653 5.318 6.166z" fill="#263238"/><path data-name="Path 8782" d="M36.255 194.319h-.848l-3.461-35.788c-.288-2.97-2.221-5.191-4.493-5.191h-6.91c-2.272 0-4.2 2.238-4.493 5.191l-3.5 35.788h-.831l3.5-35.95c.34-3.513 2.63-6.166 5.318-6.166h6.887c2.693 0 4.977 2.653 5.318 6.166z" fill="#263238"/><path data-name="Path 8783" d="M32.522 79.081c.127.358.421.577.663.519s.329-.427.2-.79-.421-.577-.658-.519-.349.427-.205.79z" fill="#263238"/><path data-name="Path 8784" d="M32.851 79.353a12.169 12.169 0 0 0 2.515 2.03 1.851 1.851 0 0 1-1.344.813z" fill="#ed893e"/><path data-name="Path 8785" d="M30.983 77.917a.254.254 0 0 1-.115 0 .219.219 0 0 1-.179-.26 2.151 2.151 0 0 1 1.211-1.621.225.225 0 0 1 .167.415 1.73 1.73 0 0 0-.94 1.286.231.231 0 0 1-.144.179z" fill="#263238"/><path data-name="Path 8786" d="M21.351 84.699l3.7 3.507 4.908 2.757a4.274 4.274 0 0 0-.04 1.805 2.884 2.884 0 0 0 2.027 2.661c.577.248 1.154.577 1.263 1.119.115.669-.375 1.5-3.12 1.9a14.5 14.5 0 0 1-7.746-1.09c-1.154-.473-.957-.992-.669-2.088a23.152 23.152 0 0 0-.323-10.571z" fill="#ffb573"/><path data-name="Path 8787" d="M19.874 96.546a31.88 31.88 0 0 0 1.4-4.5s7.5-.548 10 .433 4.037 5.231 4.037 5.231z" fill="#263238"/><path data-name="Path 8788" d="M20.532 82.721c1.771 4.228 2.59 6.789 5.531 8.207 4.424 2.134 9.038-1.794 8.559-6.483-.433-4.222-3.253-10.416-8.075-10.589a6.344 6.344 0 0 0-6.016 8.865z" fill="#ffb573"/><path data-name="Path 8789" d="M29.437 82.501c1.667-1.9.508-5.191-.969-6.477 1.43-.052 5.133-.375 4.037-3.564s-4.908-3.564-6.016-1.99c-3.149-1.73-6.921-.231-6.016 2.174-3.7-.577-4.764 3.1-3.236 4.58-1.944 1.621-2.642 4.81-.1 6.016s2.6 4.21 5.191 5.768 8.545-1.096 7.109-6.507z" fill="#263238"/><path data-name="Path 8790" d="M27.297 83.142a4.182 4.182 0 0 0 2.382 1.776c1.275.34 1.892-1.073 1.419-2.307-.427-1.084-1.73-2.307-2.941-2.128s-1.544 1.58-.86 2.659z" fill="#ffb573"/><path data-name="Path 8791" d="M23.392 102.192l-3.749 7.5c-.629 1.252-1.24 2.5-1.834 3.749s-1.188 2.48-1.7 3.7c-.277.617-.508 1.205-.756 1.811l-.317.859-.04.11v.081-.058a2.739 2.739 0 0 0 .075-.738 1.2 1.2 0 0 0-.1-.531c-.046-.081 0 .075.035.26a4.9 4.9 0 0 0 .283.675c.248.5.577 1.044.888 1.6 1.355 2.238 3.011 4.614 4.51 6.967l.04.058a2.244 2.244 0 0 1-3.115 3.086 37.2 37.2 0 0 1-3.639-2.653 36.636 36.636 0 0 1-3.389-3.086 19.742 19.742 0 0 1-1.621-1.88q-.432-.556-.807-1.154a7.89 7.89 0 0 1-.8-1.73 5.767 5.767 0 0 1-.271-1.586 4.885 4.885 0 0 1 .138-1.275l.092-.369.306-1.194c.231-.744.444-1.517.7-2.226.49-1.459 1.027-2.843 1.569-4.228s1.154-2.728 1.73-4.037c1.223-2.676 2.486-5.266 3.928-7.861a4.441 4.441 0 0 1 7.861 4.135z" fill="#ffb573"/><path data-name="Path 8792" d="M20.48 94.677c4.833.173 7.031 3.789 3.022 10.226-3.461 5.531-3.916 5.647-3.916 5.647l-8.75-4.34c2.942-5.6 4.7-11.718 9.644-11.533z" fill="#016ca4"/><path data-name="Path 8794" d="M22.994 129.185l-.49-.548c-1.511-1.4-2.157-1.229-3.887-1.229l-2.117 1.586c1.28 3.518 3.87 3.363 3.87 3.363l.75.7a1.355 1.355 0 0 0 2.2-.542l.219-.623a2.722 2.722 0 0 0-.542-2.705z" fill="#ffb573"/><path data-name="Path 8795" d="M73.733 181.566l4.135-2.324-4.4-10.076-4.135 2.319z" fill="#ffb573"/><path data-name="Path 8796" d="M71.466 176.37l4.2-2.169-2.2-5.035-4.135 2.319z" opacity=".2"/><path data-name="Path 8797" d="M77.332 177.126l-5.306.375a.346.346 0 0 0-.329.352l.04 4.21a.848.848 0 0 0 .888.784c1.84-.161 2.59-.623 4.9-.952a61.508 61.508 0 0 0 6.765-.934c1.921-.531 1.6-2.307.035-2.226a11.7 11.7 0 0 1-6.166-1.373 1.338 1.338 0 0 0-.827-.236z" fill="#263238"/><path data-name="Path 8798" d="M41.174 133.274s24.155-1.442 26.2 7.925c4.153 19.033 8.161 29.605 8.161 29.605l-6.391 3.3s-9.419-13.186-12.19-26.691c-9.84-1.477-27.039 3.732-31.145-3.657-3.634-6.517-.444-11.2-.444-11.2z" fill="#263238"/><path data-name="Path 8799" d="M69.263 175.822l7.44-3.6-.836-3.051-8.179 3.841z" fill="#00486e"/><path data-name="Path 8800" d="M79.062 177.835a6.234 6.234 0 0 1-1.269-.081.109.109 0 0 1-.052-.2c.144-.115 1.413-1.125 2.007-.94a.421.421 0 0 1 .277.294.623.623 0 0 1-.092.611 1.326 1.326 0 0 1-.871.316zm-.98-.265c.859.11 1.477.04 1.684-.2a.4.4 0 0 0 .052-.4.219.219 0 0 0-.133-.144c-.323-.1-1.079.352-1.6.738z" fill="#407bff"/><path data-name="Path 8801" d="M77.816 177.754a.086.086 0 0 1-.052 0 .1.1 0 0 1-.063-.081c0-.058-.213-1.407.231-1.9a.577.577 0 0 1 .456-.185.433.433 0 0 1 .427.306c.144.508-.49 1.54-.94 1.857a.1.1 0 0 1-.059.003zm.513-1.961a.329.329 0 0 0-.231.115 2.484 2.484 0 0 0-.208 1.523 2.249 2.249 0 0 0 .709-1.494c0-.063-.058-.133-.219-.144z" fill="#407bff"/><path data-name="Path 8802" d="M46.475 190.206l4.695-.225.767-11.085-4.695.225z" fill="#ffb573"/><path data-name="Path 8803" d="M51.641 188.494l-5.312-.167a.346.346 0 0 0-.363.311l-.386 4.193a.836.836 0 0 0 .8.871c1.851 0 2.63-.208 4.966-.133 1.436.046 4.037.277 6.46.277s1.448-1.961.156-2.146a12.631 12.631 0 0 1-5.514-2.884 1.315 1.315 0 0 0-.807-.323z" fill="#263238"/><path data-name="Path 8804" d="M53.286 189.371a6.422 6.422 0 0 1-1.257-.208.111.111 0 0 1-.029-.2c.15-.1 1.523-.975 2.088-.727a.415.415 0 0 1 .248.317.577.577 0 0 1-.156.577 1.257 1.257 0 0 1-.894.242zm-.952-.358c.842.19 1.465.185 1.7-.029a.4.4 0 0 0 .092-.386.2.2 0 0 0-.121-.161c-.294-.133-1.09.242-1.655.577z" fill="#407bff"/><path data-name="Path 8805" d="M52.062 189.163h-.046a.1.1 0 0 1-.058-.092c0-.058-.069-1.419.427-1.869a.577.577 0 0 1 .473-.138.427.427 0 0 1 .386.346c.092.519-.646 1.488-1.154 1.73a.093.093 0 0 1-.029.023zm.709-1.9a.346.346 0 0 0-.242.092 2.446 2.446 0 0 0-.358 1.494c.421-.335.917-1.073.854-1.413 0-.063-.04-.144-.2-.167z" fill="#407bff"/><path data-name="Path 8806" d="M47.242 179.127l4.695-.225-.444 6.339-4.678-.006z" opacity=".2"/><path data-name="Path 8807" d="M30.123 132.773s29.323 5.462 28.752 13.7c-1.021 14.829-5.993 36.019-5.993 36.019l-7.042.1s-.963-22.038-.092-32.766c-8.8 0-26.1-.306-29.49-4.833-3.743-4.995.1-12.845.1-12.845z" fill="#263238"/><path data-name="Path 8808" d="M45.246 183.863l8.888-.127.421-2.89-9.678.283z" fill="#00486e"/><path data-name="Path 8809" d="M36.422 95.006c-2.884-.577-15.873-.4-15.873-.4a5.191 5.191 0 0 0-5.29 4.616c-.456 4 .888 12.868.98 17.436.11 5.606.231 7.971.121 15.515l30.24 1.586c1.154-13.75-3.328-20.383-6-34.064-.395-2.094-1.3-4.13-4.178-4.689z" fill="#407bff"/><path data-name="Path 8810" d="M36.422 95.006c-2.884-.577-15.873-.4-15.873-.4a5.191 5.191 0 0 0-5.29 4.616c-.456 4 .888 12.868.98 17.436.11 5.606.231 7.971.121 15.515l30.24 1.586c1.154-13.75-3.328-20.383-6-34.064-.395-2.094-1.3-4.13-4.178-4.689z" fill="#00486e"/><path data-name="Path 8811" d="M40.102 99.43c1.361 2.422 2.763 4.966 4.176 7.394.7 1.229 1.419 2.434 2.146 3.611s1.477 2.307 2.226 3.4l.577.779c.19.265.375.473.577.709l.138.179.069.087-.046-.046-.1-.075s-.029 0 0 .035a5.088 5.088 0 0 0 .542.392c.986.64 2.267 1.292 3.507 1.949 2.515 1.309 5.145 2.607 7.694 4.037h.035a2.238 2.238 0 0 1-1.43 4.187 60.847 60.847 0 0 1-8.876-1.73 36.013 36.013 0 0 1-4.546-1.53 11.875 11.875 0 0 1-1.367-.7 5.849 5.849 0 0 1-.433-.283l-.236-.173-.306-.26-.15-.133-.1-.1-.115-.115-.231-.231c-.294-.306-.629-.623-.894-.929l-.825-.923a69.958 69.958 0 0 1-5.439-7.538c-1.615-2.578-3.1-5.127-4.476-7.884a4.441 4.441 0 0 1 7.838-4.17z" fill="#ffb573"/><path data-name="Path 8812" d="M31.993 97.855c2.6-4.072 6.835-4.13 10.347 2.59 3.016 5.768 2.884 6.235 2.884 6.235l-8.173 5.347c-3.345-5.376-7.723-10.002-5.058-14.172z" fill="#016ca4"/><path data-name="Path 8814" d="M63.756 121.537l-.715-.133c-2.059-.19-2.457.346-3.83 1.4l-.709 2.549c3.166 2 5.122.294 5.122.294l1.021.1a1.35 1.35 0 0 0 1.4-1.771l-.208-.629a2.705 2.705 0 0 0-2.081-1.81z" fill="#ffb573"/><path data-name="Path 8815" d="M.328 129.652a21.081 21.081 0 0 1 .41-9.228l.577.156a20.481 20.481 0 0 0-.392 8.969z" fill="#407bff"/><path data-name="Rectangle 658" fill="#407bff" d="M.74 132.006l.569-.097.55 3.23-.569.097z"/><path data-name="Path 8816" d="M59.976 149.718l-12.9-.513-3.38-19.87c-1.726-10.237-10.597-18.531-19.789-18.531h-8.111c-9.188 0-15.221 8.294-13.479 18.531l2.307 13.715c.859 5.076 5.254 9.194 9.805 9.194h51.067a.519.519 0 0 0 .2-.963 13.878 13.878 0 0 0-5.716-1.563z" fill="#1b2931"/><path data-name="Path 8817" d="M63.016 151.788h-4.1v-1.055h4.1c10.3 0 18.676-9.361 18.676-20.867v-3.565h1.059v3.564c0 12.089-8.857 21.923-19.735 21.923z" fill="#263238"/><path data-name="Rectangle 659" fill="#016ca4" d="M91.728 125.621h55.364v1.355H91.728z"/><path data-name="Rectangle 660" fill="#e0e0e0" d="M110.138 124.946h18.537v.681h-18.537z"/><path data-name="Rectangle 661" fill="#263238" d="M132.413 125.621h14.679v1.355h-14.679z"/><path data-name="Path 8818" d="M124.488 194.319h-.836l-3.489-35.788c-.294-2.97-2.226-5.191-4.493-5.191h-6.923c-2.272 0-4.2 2.238-4.493 5.191l-3.461 35.788h-.846l3.518-35.95c.34-3.513 2.624-6.166 5.312-6.166h6.921c2.688 0 4.972 2.653 5.318 6.166z" fill="#263238"/><path data-name="Path 8819" d="M98.436 194.319H97.6l-3.5-35.788c-.288-2.97-2.221-5.191-4.493-5.191h-6.91c-2.272 0-4.2 2.238-4.493 5.191l-3.5 35.788h-.827l3.53-35.95c.34-3.513 2.624-6.166 5.318-6.166h6.9c2.688 0 4.977 2.653 5.318 6.166z" fill="#263238"/><path data-name="Path 8820" d="M86.664 111.473l-1.113 8.184c-.352 2.728-.715 5.456-.98 8.138l-.087 1-.04.5a1.369 1.369 0 0 0 0-.248 1.5 1.5 0 0 0-.058-.231 1.154 1.154 0 0 0-.138-.283c-.087-.11-.1-.092-.075-.069a.819.819 0 0 0 .167.138 4.473 4.473 0 0 0 .646.375 25.553 25.553 0 0 0 3.582 1.332c2.561.8 5.249 1.442 7.9 2.105l-.3 2.307a60.046 60.046 0 0 1-8.461-.877 24.319 24.319 0 0 1-4.349-1.154 8.894 8.894 0 0 1-1.205-.577 5.075 5.075 0 0 1-.681-.461 3.8 3.8 0 0 1-.784-.831 3.361 3.361 0 0 1-.369-.75 3.969 3.969 0 0 1-.115-.484 4.039 4.039 0 0 1 0-.5v-1.621c.115-2.849.375-5.635.675-8.415s.652-5.543 1.09-8.311z" fill="#ffc3bd"/><path data-name="Path 8821" d="M102.599 134.872l-1.794 1.638a1.378 1.378 0 0 1-1.534.225l-1.978-.952s-2.93-.121-3.351-1.915l.761-1.39 4.539-.508a2.157 2.157 0 0 1 1.344.3l1.866 1.155a.917.917 0 0 1 .144 1.448z" fill="#ffc3bd"/><path data-name="Path 8822" d="M91.884 94.654c.461 2.809.854 7.942-1.154 9.742a26.248 26.248 0 0 1 8.121 7.048c3.461-2.722.577-6.789.577-6.789-3.091-.836-2.941-3.143-2.336-5.295z" fill="#ffc3bd"/><path data-name="Path 8823" d="M85.187 105.129c-3.536 1.154-4.3 5.889-3.98 9.574l7.135 4.389s1.73-5.381 1.73-8.259c-.027-3.063-2.486-6.483-4.885-5.704z" fill="#263238"/><path data-name="Path 8824" d="M107.652 112.015a205.261 205.261 0 0 1-3.426 22.4l-19.1-.577c.5-7.054-.254-12.308-1.984-24.651a4.037 4.037 0 0 1 3.57-4.545 49.373 49.373 0 0 1 4.037-.26 61.256 61.256 0 0 1 8.651.26c.934.115 1.892.26 2.809.415a6.558 6.558 0 0 1 5.443 6.958z" fill="#263238"/><path data-name="Path 8825" d="M100.708 88.984c.115.363.4.577.64.519s.335-.433.219-.79-.4-.577-.64-.519-.346.433-.219.79z" fill="#263238"/><path data-name="Path 8826" d="M100.829 88.247l.784-.531s-.225.825-.784.531z" fill="#263238"/><path data-name="Path 8827" d="M100.95 89.533a10.042 10.042 0 0 0 2.03 1.892 1.632 1.632 0 0 1-1.211.658z" fill="#ed847e"/><path data-name="Path 8828" d="M100.12 85.732a.219.219 0 0 0 0-.219.225.225 0 0 0-.311-.046 2.2 2.2 0 0 0-.94 1.805.213.213 0 0 0 .231.208.219.219 0 0 0 .213-.231 1.73 1.73 0 0 1 .761-1.419.19.19 0 0 0 .046-.098z" fill="#263238"/><path data-name="Path 8829" d="M87.932 91.39c1.73 4.349 2.307 6.223 5.306 7.781 4.476 2.342 9.442-.7 9.073-5.473-.329-4.291-3.057-10.682-7.971-11.051a6.344 6.344 0 0 0-6.408 8.744z" fill="#ffc3bd"/><path data-name="Path 8830" d="M98.378 90.386c.842-.242 2.307-1.921-.248-5.3 1.367-.248 2.48-2.757-1.269-4.193s-7.838-.738-10.318 2.7c0 0-7.907 2.336-1.465 10.474s14.62 4.821 13.3-3.681z" fill="#263238"/><path data-name="Path 8831" d="M83.613 83.586a1.361 1.361 0 0 0 .629 1.154 2.255 2.255 0 0 0 2.688.161 12.574 12.574 0 0 0 2.382-2.036 2.307 2.307 0 0 0-.173-3.3 2.841 2.841 0 0 0-.335-.242s-4.528.134-5.191 4.263z" fill="#00486e"/><path data-name="Path 8832" d="M84.252 83.044a5.4 5.4 0 0 0 4.118-3.1c-.577-1.523-8.075-11.2-14.465-4.124-6.748 7.5 6.46 15.036 1.73 24.063 8.219-2.766 14.921-8.457 8.617-16.839z" fill="#263238"/><path data-name="Path 8833" d="M96.509 91.286a3.662 3.662 0 0 0 2.128 1.827c1.223.386 1.88-.7 1.575-1.874-.271-1.061-1.234-2.544-2.48-2.417a1.644 1.644 0 0 0-1.223 2.469z" fill="#ffc3bd"/><path data-name="Path 8834" d="M127.418 186.988l4.51-.427-3.04-11.109-4.51.427z" fill="#ffc3bd"/><path data-name="Path 8835" d="M138.007 189.602c-2.757-.813-2.67-2.024-5.422-4.262a1.794 1.794 0 0 0-.986-.45l-4.487-.311a.363.363 0 0 0-.358.311l-.634 3.109a1.7 1.7 0 0 0 1.378 2.146c1.494.058 3.328.115 4.96.225 2.382.167 2.411 1.373 5.191 1.24 1.714-.082 1.298-1.732.358-2.008z" fill="#263238"/><path data-name="Path 8836" d="M144.202 172.696l3.057-2.653-5.116-7.769-3.824 3.622z" fill="#ffc3bd"/><path data-name="Path 8837" d="M146.44 168.399l-3.645 3.374a.409.409 0 0 0-.063.519l1.73 2.676a1.805 1.805 0 0 0 2.688.288c1.194-.923 1.869-2.544 3.282-3.87 2.059-1.926 2.428-1.874 3.7-4.568.865-1.811-1.021-1.817-1.684-1.257-1.667 1.419-1.009 1.477-4.891 2.307a2.307 2.307 0 0 0-1.117.531z" fill="#263238"/><path data-name="Path 8838" d="M97.564 134.088s30.926-4.58 34.127 3.351c5.572 13.79 13.635 29.329 13.635 29.329l-3.634 3.334s-13.842-12.406-18.641-26.266c-5.727 1.857-23.959 7.821-30.638 7.821-7.129 0-10.041-6.079-7.463-16.149a2.024 2.024 0 0 1 1.978-1.523c4.488-.001 10.636.103 10.636.103z" fill="#407bff"/><path data-name="Path 8839" d="M97.564 134.088s30.926-4.58 34.127 3.351c5.572 13.79 13.635 29.329 13.635 29.329l-3.634 3.334s-13.842-12.406-18.641-26.266c-5.727 1.857-23.959 7.821-30.638 7.821-7.129 0-10.041-6.079-7.463-16.149a2.024 2.024 0 0 1 1.978-1.523c4.488-.001 10.636.103 10.636.103z" fill="#fff" opacity=".5"/><path data-name="Path 8840" d="M100.529 138.113s25.378-.767 25.6 8.225c.352 14.875 4.914 36.146 4.914 36.146l-5 .467s-7.579-16.951-9.569-31.5c-9.044.577-17.378.185-24.057.185-7.5 0-8.075-8.219-.813-17.8 4.45.015 8.925 4.277 8.925 4.277z" fill="#407bff"/><path data-name="Path 8841" d="M100.529 138.113s25.378-.767 25.6 8.225c.352 14.875 4.914 36.146 4.914 36.146l-5 .467s-7.579-16.951-9.569-31.5c-9.044.577-17.378.185-24.057.185-7.5 0-8.075-8.219-.813-17.8 4.45.015 8.925 4.277 8.925 4.277z" fill="#fff" opacity=".5"/><path data-name="Path 8842" d="M84.876 132.721l-.542 1.7c-.069.133.081.271.306.277l19.656.577c.173 0 .317-.075.335-.179l.219-1.73c0-.115-.127-.225-.317-.231l-19.345-.577a.329.329 0 0 0-.311.167z" fill="#fff"/><path data-name="Path 8843" d="M87.408 134.959h-.519c-.1 0-.179-.058-.173-.127l.311-2.215c0-.063.1-.115.2-.11h.519c.1 0 .179.058.173.121l-.311 2.215c-.004.07-.096.122-.2.116z" fill="#263238"/><path data-name="Path 8844" d="M102.834 135.42h-.519c-.1 0-.179-.058-.173-.121l.311-2.215c0-.063.1-.115.2-.115h.519c.1 0 .179.058.173.127l-.311 2.213c0 .065-.094.111-.2.111z" fill="#263238"/><path data-name="Path 8845" d="M95.119 135.189h-.513c-.1 0-.185-.058-.173-.121l.306-2.215c0-.063.1-.115.208-.11h.519c.1 0 .179.063.167.127l-.306 2.215c-.012.058-.105.11-.208.104z" fill="#263238"/><path data-name="Path 8846" d="M108.378 114.207c.075.41.185.94.283 1.413s.219.981.346 1.465q.372 1.453.836 2.884a28.937 28.937 0 0 0 1.079 2.717 16.573 16.573 0 0 0 1.378 2.417l.092.144-.035-.046a.5.5 0 0 0-.081-.075 1.075 1.075 0 0 0-.156-.127 1.091 1.091 0 0 0-.479-.2h.058a4.89 4.89 0 0 0 1.154-.265 26.3 26.3 0 0 0 2.745-1.125c1.863-.871 3.761-1.851 5.623-2.826l1.355 1.915a44.318 44.318 0 0 1-5.231 4.037 23.875 23.875 0 0 1-3.016 1.7 9.08 9.08 0 0 1-1.932.663 4.181 4.181 0 0 1-1.54.046 3.046 3.046 0 0 1-1.217-.5 2.6 2.6 0 0 1-.311-.254l-.144-.15-.11-.115-.144-.185a21.393 21.393 0 0 1-3.5-6.194 32.108 32.108 0 0 1-1.044-3.27c-.144-.577-.271-1.107-.392-1.667s-.213-1.1-.3-1.73z" fill="#ffc3bd"/><path data-name="Path 8847" d="M106.084 107.263c3.345 2.578 3.345 10.157 3.345 10.157l-5.768 1.6s-4.147-5.024-3.1-7.406c1.105-2.483 3.717-5.73 5.523-4.351z" fill="#263238"/><path data-name="Path 8848" d="M126.154 120.453a.294.294 0 0 1-.248-.15l-4.562-8.738a.277.277 0 0 1 .121-.375.283.283 0 0 1 .375.115l4.568 8.738a.277.277 0 0 1-.121.375.265.265 0 0 1-.133.035z" fill="#263238"/><path data-name="Path 8849" d="M124.227 115.481l-1.73 1.061a2.307 2.307 0 0 0-.952 1.154l-1.618 4.21-.744 2.676c1.73.623 4.868-3.461 4.868-3.461l1.973-1.482a.986.986 0 0 0 .358-1.044l-.675-2.515a.986.986 0 0 0-1.482-.6z" fill="#ffc3bd"/><path data-name="Path 8850" d="M122.157 149.718l-12.925-.531-3.38-19.87c-1.73-10.238-10.6-18.531-19.783-18.531h-8.091c-9.188 0-15.221 8.294-13.479 18.531l2.307 13.715c.865 5.076 5.26 9.194 9.805 9.194h51.078a.519.519 0 0 0 .19-.963 13.843 13.843 0 0 0-5.721-1.546z" fill="#1b2931"/><path data-name="Path 8851" d="M125.197 151.788h-4.1v-1.055h4.1c10.3 0 18.676-9.361 18.676-20.867v-3.565h1.05v3.564c-.001 12.089-8.848 21.923-19.726 21.923z" fill="#263238"/></g></svg>