<svg data-name="Layer 2" xmlns="http://www.w3.org/2000/svg" width="390.668" height="219.447"><g data-name="Layer 1"><path data-name="Path 6858" d="M9.529 193.367c17.562-4.864 35.546-6.986 53.662-8.257 1.06 2.456-.379 5.533 1.905 7.687.413 1.952-.972 2.949-2.151 4.056-1.06.645-2.466.935-2.744 2.529 2.244.53 4.143-.363 6.1-.695 1.774-.3 2.469-1.364 1.937-3.135q.076-1.266.146-2.531c1.8-2.709.127-5.757.837-8.573a11.047 11.047 0 0 0 4.541-.672c.419 2.061.78 4.137 1.281 6.178.257 1.048-.369 2.633 1.492 2.87.286 2.1-1.4 2.954-2.592 4.121-1.007.606-2.17 1.041-2.825 2.475 2.379.494 4.37-.308 6.392-.695 1.631-.311 2.224-1.328 1.844-2.931l-.021-3.055c1.6-3.106.22-6.456.786-9.647 5.013.426 9.967-.517 14.956-.647.406 3.679-.067 7.325-.346 10.983-.195 2.55-1.526 5.323 1.06 7.5q-.007 1.42-.012 2.841c.019.938-1.353 2.064-.086 2.755 2.3 1.251 4.637.6 7.058-.3-1.277-1.457-2.946-1.706-4.258-2.566l-.042-2.743c1.784-.242 1.7-1.838 2.272-3.016 1.026-2.114-.167-4.591 1.2-6.612l6.136.032c1.292 2.273.691 4.88 1.187 7.312.476 2.335 1.635 2.354 3.294 2.235 2.108-.152 2.253-1.861 1.99-3.215a33.132 33.132 0 0 1-.234-6.439l28.027.126c.113 1.812 1.384 2 2.794 1.992l1.318 8.938c.058 2.626 2.332 1.914 3.75 2.424.542.2 1.487.567 1.742-.277.283-.927-.659-1.277-1.335-1.657-2.814-2.81-1.157-6.375-1.616-9.582a6.924 6.924 0 0 1 3.648-.233l1.32 9.292c0 2.6 2.211 2.06 3.664 2.489.626.185 1.726.69 1.969-.407.186-.839-.72-1.274-1.47-1.569-2.727-2.933-1.095-6.611-1.7-9.907.953-.125 1.728-.447 1.763-1.591l21.4.01c.08 3.853.269 7.708.2 11.558-.037 2.011.512 3.273 2.6 3.6.287 1.151-.445 1.146-1.292 1.386-1.723.488-3.631.86-5.007 3.333 2.18 0 3.732.092 5.265-.035.893-.076 2.141.682 2.63-.741.474-1.383-.387-1.927-1.515-2.424-.473-.209-.521-.958-.2-1.523 2.335-.356 3.248-1.556 3.323-4.063.112-3.7.819-7.39 1.272-11.083l5.3.007c.733 3.667 1.363 7.359 2.256 10.984.3 1.231-.243 3.181 1.934 3.441-.241 1.63.727 2.067 2.088 2.115-.571.8-2.441.164-2.121 1.988.124.712.159 1.37 1.085 1.31 2.143-.139 4.362.436 6.821-.606a10.446 10.446 0 0 0-5.117-2.878l-.064-2.532c1.776-.9 1.3-2.543 1.114-3.925a66.618 66.618 0 0 1-.35-9.876h25.161c-.047 3.053-.087 6.105-.142 9.158-.024 1.343-.4 2.671 1.868 2.675 1.913 0 2.893-.335 3.1-2.437.308-3.131.9-6.233 1.369-9.348l4.8-.055c.195 1.229.379 2.458.586 3.685.454 2.684-.227 5.579 1.5 8.029 1.244.9 1.426 1.723-.161 2.45a69.947 69.947 0 0 0-3.058 1.479c-.79.411-.858 1.471-.325 1.652a8.332 8.332 0 0 0 6.255-.582c1.8-.843.542-1.948-.083-2.984a1.485 1.485 0 0 1 .489-2.092c1.118-3.8.277-7.767 1.007-11.6l18.436-.032.251 4.629q-.016 1.3-.027 2.6c-.269 1.983-.629 4.054 2.505 3.708 1.954-.215 5.211.923 5.593-.57.613-2.4-2.894-2.385-4.4-3.712l.135-1.939c3.187-.21 1.582-3.319 2.841-4.7l10.487-.02c.993 1.411-.151 3.742 2 4.65a3.765 3.765 0 0 0 .523 2.615c-.482 2.7.391 4.091 3.376 3.707a33.306 33.306 0 0 1 3.722-.02c.539-.01 1.207.088 1.421-.606.2-.635-.279-1.07-.713-1.4a13.49 13.49 0 0 0-4.525-2.223q-.076-1.05-.156-2.1c1.03-1.479-.058-3.122.36-4.649 7.459.136 7.459.136 7.5-7.431 0-.454.019-.909.03-1.363l8.832-.048c.323 4.49.757 8.967.817 13.483.02 1.65 0 3.616 1.324 5.067a3.864 3.864 0 0 1-2.626 4.516c-1.047.558-2.451.624-2.954 2.228 2.354.9 4.737.692 7.1.513 1.185-.089 1.885-.728 1.662-2.04l-.016-5.193c1.332-1.037.735-2.512.833-3.812.355-4.707.439-9.436 1.293-14.1l5.383.6c1.235 5.055 2.447 10.116 3.722 15.161.248.98.623 2.006 1.932 2.074-.034 1.732.062 3.508-1.563 4.714a4.472 4.472 0 0 0-3.3 2.57c2.637.665 4.884-.065 7.144-.536 1.457-.3 1.749-1.193 1.089-2.467l-.687-4.276c.66-.455.595-1.07.534-1.786-.414-4.9-.77-9.8-1.144-14.7 20.51 1.459 40.909 3.67 60.86 8.938a61.587 61.587 0 0 1 6.427 2.954c3.456 2.067 3.284 4.545-.379 6.642-5.316 3.039-11.255 4.216-17.152 5.406a352.921 352.921 0 0 1-40.726 5.605c-11.641.964-23.264 2.073-34.934 2.735-16.794.952-33.594 1.529-50.4 2.1-30.867 1.061-61.728.418-92.59.411-12.608 0-25.224-.724-37.822-1.319-11.108-.523-22.227-1.065-33.3-2.059-23.243-2.085-46.58-3.6-69.306-9.5a30.332 30.332 0 0 1-9.448-3.803c-2.864-1.918-2.793-3.807-.021-5.825a26.446 26.446 0 0 1 7.43-3.356zm218.508 13.421c-2.287-2.511-4.295-.707-6.348.41-1.117.655-2.2 1.48.033 1.866a20.427 20.427 0 0 0 5.043 0c1.372-.112 2.037-.857 1.272-2.276zm-110.307-.568c-1.363-1.667-3.36-1.938-5.063-2.727-1.349-.626-1.913.525-2.322 1.38-.524 1.1-.123 2.149 1.194 2.252 2.071.163 4.269.755 6.191-.909z" fill="#b9c8ec"/><path data-name="Path 6859" d="M179.774 191.265l-21.4-.011-1.439-23.221c1.46-.8 1-2.067.865-3.315-.186-1.683-.233-3.381-.339-5.075a10.014 10.014 0 0 1 2.21 3.231 1.679 1.679 0 0 0 2.561.81c.935-.514 2.248-.874 1.6-2.492-2.858-7.173-4.459-14.788-7.682-21.834-.374-.784-.833-1.45-1.851-1.352l-.979-.807c1-.789 1.955-1.672 1.948-3.03a15.506 15.506 0 0 0-3.273-10.159c-1.716-2.045-4.178-1.648-6.211-.3-3.6 2.385-4.284 10.134-1.313 13.421l-.758.815a1.887 1.887 0 0 0-2.287 1.162l-1.1.523-.626.393.06-.045c-3.042.86-4.393 2.872-4.25 6.021.123 2.705-.025 5.427.192 8.121.421 5.252.846 5.53 5.954 4.772.61 3.072-.7 6.287.711 9.3l.151 23.146-28.027-.125q-.133-12.745-.263-25.492c1.7-2.252.053-4.772.569-7.12 5.321.161 5.523.033 5.775-5.156.063-1.288.73-2.624-.027-3.918q.171-.623.345-1.246c-.264-2.622 2.051-5.869-1.839-7.616-1.276-4.358-5.363-4.656-8.711-6.025-2.331-.622-1.37 1.259-1.363 2.025.041 7.272.189 14.544.3 21.809-.076.061-.235.151-.227.181a3.33 3.33 0 0 0 .242.477l.032 3.388h-7.14c.319-7.575.545-15.15.985-22.717.343-5.887.462-5.88-5.189-4.592l-.018-27.371q-.04-2.344-.076-4.687c-.033-5.514.563-11.044-.423-16.534 1.159-6.167.24-12.389.481-18.58v-9.413c.012-6.717.138-13.437-.02-20.149-.062-2.62.84-3.362 3.342-3.235 3.291.166 6.6-.023 9.9-.06l12.333-.008 6.535-.03 15.032.048 16.063-.019h5.369l.25.043.252-.044 15.8.08 2.145-.011 4.58-.034 15.2.1.732-.052 1.284.009 6.185.03 11.549-.077 15.232.028 7.455-.184h2.753l21.74.151c5.442.023 10.892.239 16.322-.007 3.126-.142 3.766.974 3.733 3.875-.129 11.108 0 22.219.034 33.329l-.087 14.867.246 16.944c.276 1.688-1.2 3.655.8 5.067a102.018 102.018 0 0 0-.995 16.21c-.1 3.467.586 6.978-.584 10.384-.279-.863-.606-1.713-.82-2.591a1.078 1.078 0 0 0-1.456-.953c-.885.182-2.507.634-2.323.973 1.19 2.205-.307 5.586 2.933 6.852l2.9 5.206c-.872 3.684-.678 7.438-.731 11.176l-1.638-.817a142.491 142.491 0 0 1-7.57-19.922c-1.463-5.234-4.721-7.762-10.112-7.624-.273-.723-.882-1.556-.037-2.167 3.03-2.2 2.418-5.014 1.493-7.919-.443-1.232 1.329-2.4.408-3.427-2.138-2.376-8.787-.766-9.713 2.18-.641 2.045.855 3.385 1.429 5.031.849 2.16 2.745 4.037 1.812 6.68l-2.3.515a6.363 6.363 0 0 0-3.292.833c-1.945.136-2.144 2.067-3.2 3.116-1.889.648-4.272 1.675-3.835 3.707.976 4.534-.833 8.494-1.534 12.693-.3 1.8-.334 3.727 2.024 4.43l1.349 7.981c-.326 1.076-.581 2.179-.993 3.221-.563 1.424-.192 2.291 1.185 3 1.49.767 1.623-.523 2.46-1.066 2.634-1.707.573-3.461.516-5.174.838-1.164 2.03-.455 3.064-.581-.522 10.034-1.235 20.053-2.355 30.04l-18.436.032c.014-4.214.1-8.428.026-12.642-.1-6.018.891-12.089-.809-18.036l.124-1.329c3.174.311 5.1-.985 5.488-4.262 2.4-1.327.483-3.135.526-4.724a25.469 25.469 0 0 1-1.869-4.6c-.573-2.856-2.409-4.446-4.772-5.693l.179-1.132a3.56 3.56 0 0 0 4.6-1.779c1.136-1.941-1.128-2.782-1.241-3.787-.333-2.968-3.959-3.383-4.059-6.065-.118-3.194-2.727-2.921-4.629-3.484a3.871 3.871 0 0 0-4.749 1.607 39.044 39.044 0 0 0-3.176 6c-1.976 4.562-2.348 4.4 1.522 7.37-3.17 2.418-3.268 6.274-4.5 9.6-1.526-2.767-3.315-5.4-3.324-8.787 0-1.826-1.844-2.032-2.966-1.988a1.538 1.538 0 0 0-1.1 2.55c2.954 3.353 3.056 7.712 4.479 11.6 1.114 3.04 2.1 3.257 4.973 1.264.53-.519.648-1.445 1.6-1.6a7.282 7.282 0 0 1 .379 4.006c-.161 1.885-1.64 3.575-.826 5.6-2.22 9.969-2.325 20.149-3.079 30.271h-25.161l-.34-4.782c2.262-.461 2.879-1.555 2.5-4.024-1.107-7.171-1.9-14.392-2.638-21.618-.812-7.959-2.473-15.915.917-23.815 1.032-2.4.947-5.368.525-8.092-.538-3.478.062-7.232-2.374-10.274-.716-2.144-1.4-4.3-2.162-6.428-.335-.935-.579-2.086-1.823-2.232-.864-.1-2.525-.123-2.419.455.278 1.515-1.018 3.409.7 4.545a6.261 6.261 0 0 1 2.863 3.636c-1.243.8-.636 2.055-.7 3.1-.218 3.4-.365 6.8-.46 10.2-.067 2.424-1.007 4.14-3.459 4.808q-.014-.918-.026-1.837c3.322-2.08 2.309-5.091 1.719-8.01.606-2.57-.649-4.079-3.553-4.283-2.038-1.733 1.667-2.291.674-3.968-3.024.7-6.039 1.377-8.019 4.271-.454.661-.872 2.529-2.361.886q-.063-.47-.123-.942l-.093-1.364c-.012-1.212.289-2.494-.717-3.506a7.117 7.117 0 0 1 1.335-5.146c1.344-1.87-.968-2.691-1.1-4.188-.083-.916-1.276-.355-2.007-.058-1.7.69-1.629 2.07-1.229 3.419a14.959 14.959 0 0 1 .316 5.394c-1.486 4.281-.592 8.723-.848 13.087a16.172 16.172 0 0 0 2.716 10.05 10.144 10.144 0 0 1 1.61 6.776c-.935 11.583-1.7 23.183-2.775 34.753-.27 2.9.619 4.23 3.337 4.6q-.104 2.312-.2 4.585zm-77.448-63.648c.667 2.147 2.446 3.859 2.3 6.37-.04.675 1.091 1.086 1.927 1.089a1.665 1.665 0 0 0 1.558-1.126c1.537-3.527 3.671-6.942 2.1-11.059-.665-2.424-2.512-3.069-4.747-3.271-2.51-.227-3.592 1.482-4.647 3.247-1.272 2.125.255 3.406 1.509 4.749z" fill="#eee1e1"/><path data-name="Path 6860" d="M291.472 87.293l.087-14.867c2.741-4.462 4.768-9.56 10.283-11.549.421-.151.86-.253 1.288-.379l1.7 8.455a22.219 22.219 0 0 0 1.439 6.867l1.612-11.643c.737-1.771.682-3.675.932-5.53 6.119-2.787 8.711-7.888 9.42-14.26a11.758 11.758 0 0 1 .7-2.235l2.424-.069a15.808 15.808 0 0 1-.023 11.611c-6.983 17.675-5.833 36.222-6.5 54.589-.055 1.506.475 3.386-2.133 3.155l-7.587-.145-5.193-.486-7.388-1.5c-2-1.413-.53-3.38-.807-5.069l5.553-24.77-.909-.3c-.675 1-1.339 2-2.029 2.991-1.135 1.618-.877 4.004-2.869 5.134z" fill="#00486e"/><path data-name="Path 6861" d="M97.764 58.629v9.414a4.878 4.878 0 0 1-3.052 1.309c-1.825-.061-2.058.733-1.617 2.272 1.431 4.99 2.8 10 4.188 15 .985 5.49.389 11.019.423 16.532a10.61 10.61 0 0 0-2.879 3.14c-1.275.472-1.693 2.121-3.316 2.389-1.136-2.22-.9-5-3.046-7.863a11.154 11.154 0 0 0 .119 4.665c.336 1.089 1.136 2.765-1.078 3.171l-6.1.7c-3.013.817-3.747-.321-3.578-3.35.454-8.173.195-16.4.894-24.542.484-5.635-1.176-9.612-5.786-12.758-4.956-3.381-6.715-8.676-7.742-14.281a1.528 1.528 0 0 1 .624-1.485l1.969-.82c1.282 2.488 2.07 5.249 3.962 7.4 1.1 1.252 2.147 2.679 4.141 2.472a11.021 11.021 0 0 0 5.474 1.367 53.981 53.981 0 0 0 4.056 11.775l.833-11.786 7.975-2.172z" fill="#00486e"/><path data-name="Path 6862" d="M307.789 183.098c-.854 4.66-.938 9.393-1.293 14.1-.1 1.3.5 2.775-.833 3.811l-3.171-.023c-1.32-1.451-1.3-3.418-1.324-5.068-.058-4.516-.494-8.993-.817-13.483.788-9.683-3.554-19.846 2.713-29.011 1.565 1.2 3.246-.844 4.818.173a1.308 1.308 0 0 0-.284.163c-.061.06-.138.208-.112.24 2.021 2.505 4.186-.1 6.274.173.713.311.948.985 1.237 1.621-1.061 3.2-.152 5.731 2.41 6.714l3.493 21.95c.375 4.9.73 9.8 1.145 14.7.061.716.126 1.332-.53 1.786h-2.685c-1.31-.068-1.685-1.094-1.932-2.074-1.275-5.045-2.488-10.106-3.721-15.16l-4.257-16.036c-1.186 5.505-1.035 10.472-1.131 15.424z" fill="#81b4f8"/><path data-name="Path 6863" d="M69.222 184.446c-.71 2.816.965 5.864-.837 8.573l-3.287-.227c-2.283-2.154-.843-5.231-1.907-7.687-.464-5.984-1.017-11.958-1.364-17.947-.341-5.882-.6-11.8 2.557-17.177l12.13.454c.287 1.206.585 2.41.859 3.619 2.169 9.56 2.285 19.316 2.746 29.038-.566 3.191.817 6.541-.786 9.647l-2.8.085c-1.861-.237-1.235-1.823-1.492-2.87-.5-2.042-.862-4.117-1.281-6.178-.985-6.584-1.808-13.207-4.541-19.391z" fill="#00486e"/><path data-name="Path 6864" d="M224.293 35.223l-11.54.076a3.163 3.163 0 0 1-2.185-3.631c.14-1.969.379-4.03-.516-5.968a22.672 22.672 0 0 0-1.272 6.28 3.1 3.1 0 0 1-2.212 3.288l-1.284-.008-.73-.651c-.135-7.395.515-14.594 5.126-20.82 2.734.436 3.333-2.479 5.243-3.339.758.972 1.545 1.888 2.987 1.515.438 1.539 1.288 2.519 3.058 2.235 1.222.992 2.741 1.676 3.39 3.263-2.2.3-1.634 2.318-2.17 3.606-.472 1.136-1.407 2.607.727 3.211 2.5.707 1.94-1.345 2.272-2.582 1.932.743 3.233 4.6 1.48 5.874-2.986 2.176-1.957 5.018-2.374 7.651z" fill="#00486e"/><path data-name="Path 6865" d="M123.32 35.179l-12.336.008a17.976 17.976 0 0 1-.793-10.954c.632-2.911 1.989-5.359 5.084-6.192a11.32 11.32 0 0 0 4.376-2.769l3.882.633c.518.576.285 1.818 1.188 1.917 5.347.591 6.046 5.024 7.5 8.863.076.19.286.327.435.489a12.8 12.8 0 0 1-2.518 6.211c-1.457-.2-2.92-.37-4.368-.623-1.99-.352-2.682.545-2.45 2.417z" fill="#00486e"/><path data-name="Path 6866" d="M255.938 12.713c8.35-.411 17.164 10.553 12.147 18.8l-4.644.286c0-.342.009-.682.01-1.026.011-7.949.011-7.963-7.825-7.933-2.838.011-6.478-.949-8.307.439-2.2 1.673-.412 5.525-.734 8.413-.122 1.094.268 2.432-1.6 2.226-.751-.894-1.833-.612-2.787-.785-4.02-7.87-1.758-14.7 6.329-19.126.769-.421 1.76-.632 1.882-1.76 1.649 2.451 3.515 2.338 5.529.466z" fill="#e4f1fe"/><path data-name="Path 6867" d="M182.621 35.258q-7.9-.04-15.8-.076c.263-2.916-.466-5.9.606-8.762 2.045-3.887 1.639-8.069 1.468-12.222 1.976-.392.947-3.024 2.682-3.594.882-.214 1.623-.421 2.165.757 1.061 2.3 2.3 2.016 3.56.057.258-.4.886-.561 1.344-.833 2.025.4 1.938 2.111 2.218 3.593-1.314 4.644-1.153 9.022 2.307 12.807a32.717 32.717 0 0 1-.55 8.273z" fill="#fca700"/><path data-name="Path 6868" d="M307.883 153.588c-1.572-1.017-3.252 1.023-4.818-.171-.191-2.551.889-5.319-1.268-7.542a12.833 12.833 0 0 0-2.892-5.264 10.226 10.226 0 0 1 3.567-4.862l3.609-.5c1.288-.27 2.782.531 3.863-.766 4.989-.963 8.211 2.185 11.584 4.98q.171.92.339 1.841c-1.85.042-2.4 2.742-4.533 2.207-1.452-1.212-1.9-.3-2.114 1.019-.444 2.754-.866 5.511-1.3 8.268-2.025.121-3.938 1.18-6.037.79z" fill="#fca700"/><path data-name="Path 6869" d="M76.515 150.436l-12.127-.45a7.463 7.463 0 0 1-.814-3.344c1.579.076 3.159.172 4.739.233.571.022 1.158-.035 1.248-.786a1.109 1.109 0 0 0-.758-1.307 10.423 10.423 0 0 1-3.872-2.651l.682-2.116a18.088 18.088 0 0 1 2.357.031c1.69.227 2.358-.358 2.489-2.142.129-1.765-.41-2.491-2.121-2.532-1.234-.03-2.475-.3-3.7-.227-2.126.144-2.665-1.031-2.667-2.807 2.576-1.419 5.732-1.742 7.81-4.109l3.419.028c.873.379.548 1.724 1.655 1.97 4.488 1 6.083 4.268 6.521 8.419z" fill="#f7f8f9"/><path data-name="Path 6870" d="M69.781 128.229c-2.078 2.369-5.233 2.69-7.807 4.111l.093.032c-.985-1.888-.943-3.463 1.233-4.527.579-.282 1.523-.962 1.452-1.257-.857-3.59 2.669-4.977 3.712-7.591a4.194 4.194 0 0 1 5.276-2.631c2.527.58 4.563 2.018 4.377 4.86-.139 2.121.37 3.416 2.262 4.393 1.31.682 1.6 1.986 1.532 3.511-.156 3.325.61 3.69 3.672 1.977 1.916.7 3.03-1.077 4.585-1.493.514 1.464-.054 2.34-1.479 2.792-2.054.653-4.274.881-4 4.143.128 1.515-1.7 2.152-3.314 2.093-.439-4.151-2.033-7.423-6.521-8.419-1.107-.246-.782-1.591-1.654-1.97.043-2.059 1.769-2.934 3.265-4.263-2.034-.579-2.71-2.156-3.436-3.612-.944-1.894-2.091-1.752-3.414-.538a4 4 0 0 0-1.425 4.076c.273 1.632 1.833 2.625 1.591 4.313z" fill="#1b2931"/><path data-name="Path 6871" d="M321.524 139.464c-3.373-2.8-6.6-5.943-11.584-4.98-.07-2.672 1.427-4.4 3.935-5.848-2.293-1.011-3.264-2.8-4.226-4.55-.821-1.491-1.779-1.562-3.034-.66-1.7 1.22-2.775 2.4-2.26 4.964.467 2.329 3.371 4.065 1.722 6.859l-3.609.5a10.216 10.216 0 0 0-1.846-4.681c-1.8-2.636-.878-4.772 1.339-6.439 1.383-1.042 2.7-2.013 3.287-3.712 1.844-1.7 4.034-1.691 6.306-1.269a6.377 6.377 0 0 1 4.452 5.86c.032.548.126 1.387.475 1.579 5.05 2.784 3.263 8.308 5.043 12.377z" fill="#0d0b38"/><path data-name="Path 6872" d="M214.92 10.454c-1.909.861-2.51 3.775-5.243 3.339-.6-2.109-1.78-3.893-1.028-6.49 1.468-5.075 8.256-8.938 12.667-6.336 4.38 2.581 6.23 7.335 2.885 11.761-.935 1.237-2.07 1.188-3.235 1.473-1.771.284-2.62-.7-3.059-2.234.868-1.483 2.859-1.529 3.741-3.213 1.015-1.937.79-3.615-.53-4.924-.938-.931-2.1.195-3.11.748a34.642 34.642 0 0 1-3.409 1.429c.399 1.398 1.257 2.872.321 4.447z" fill="#0d0b38"/><path data-name="Path 6873" d="M130.141 33.381a12.835 12.835 0 0 0 2.518-6.211 3.717 3.717 0 0 1 2.874-1.483c3.631.107 7.272.064 10.9.031 1.758-.017 2.265.62 1.515 2.284-1.071 2.376-2.045 4.8-3.064 7.2l-15.033-.05q.143-.886.29-1.771z" fill="#81b4f8"/><path data-name="Path 6874" d="M90.168 129.617c-1.555.416-2.669 2.189-4.585 1.493 2.17-1.718 1.47-3.2.508-5.594-2.083-5.176-3.181-10.747-4.684-16.157l6.1-.7c1.076 6.962 3.008 13.811 2.661 20.958z" fill="#f67369"/><path data-name="Path 6875" d="M189.348 35.211l-4.581.035c-.291-3.437.767-7.051-1.351-10.246a9.924 9.924 0 0 1 .176-9.325c5.788 3.315 8.189 10.214 6.235 17.921-.141.542-.319 1.076-.479 1.615z" fill="#fca700"/><path data-name="Path 6876" d="M166.32 35.176h-5.371a19.272 19.272 0 0 1 3.09-17.362 5.552 5.552 0 0 1 2.756-2.393 24.4 24.4 0 0 1-.045 9.7c-2.506 3.252-.556 6.693-.43 10.055z" fill="#fca700"/><path data-name="Path 6877" d="M317.334 143.516c2.13.536 2.684-2.164 4.533-2.207 3.887 3.813 4.031 5.3.909 9.453a23.429 23.429 0 0 1-2.088 2.656c-1.958 1.938-3.987 3.749-2.543 6.969a1.86 1.86 0 0 1-.735 2.117c-2.56-.985-3.469-3.516-2.414-6.715 1.16-1.667 2.377-3.294 3.472-5 2.426-3.79 2.322-4.304-1.134-7.273z" fill="#f09093"/><path data-name="Path 6878" d="M54.697 154.967c-.454-4.73 2.776-8.22 4.176-12.327a26.424 26.424 0 0 1 1.663-3.333q.24 1.363.478 2.734c.266 1.417-1.052 3.03.526 4.282a1.112 1.112 0 0 0 1.557.227h.057a38.263 38.263 0 0 1-5.858 9.44 4.074 4.074 0 0 0-2.599-1.023z" fill="#fdfdfd"/><path data-name="Path 6879" d="M94.233 61.175l-7.976 2.176-.74-.53c-.238-.745-.909-1.747-.648-2.192 2.727-4.589-1.591-5.171-3.818-6.944a3.017 3.017 0 0 1-.417-.518l.183-.186 6.355.1c.261 2.073 1.067 3.636 3.442 3.838 2.591.219 1.759 3.388 3.619 4.256z" fill="#1b2931"/><path data-name="Path 6880" d="M303.833 59.133c.633-2.411-2.5-2.9-2.539-4.963 1.469-1.507 1.941-3.834 3.993-4.869a2.073 2.073 0 0 0-.1-.3l-.051.036c1.154.1 2.377-.151 3.383.682 1.957 3.136 1.342 6.026-.833 8.766-1.082 1.418-2.313 1.95-3.853.648z" fill="#f09093"/><path data-name="Path 6881" d="M87.171 53.074l-6.355-.1a2.613 2.613 0 0 0-1.764-2.053c2.165-2.459.292-3.761-2.051-5.13 6.616-.963 10.616 2.458 14.494 6.31a1.958 1.958 0 0 1-1.977.045c-.368-.387-.56-1.562-1.3-.294z" fill="#1b2931"/><path data-name="Path 6882" d="M255.939 12.713c-2.013 1.867-3.879 1.985-5.53-.467-2.085-.985-3.762-2.262-3.547-4.907 2.063-3.152 4.706-3.443 7.786-1.58.247 2.353.144 4.771 1.291 6.954z" fill="#f09093"/><path data-name="Path 6883" d="M311.559 119.649c-2.272-.421-4.461-.433-6.306 1.27l-.143-9.62 7.587.145q-.57 4.101-1.138 8.205z" fill="#212c33"/><path data-name="Path 6884" d="M299.426 49.777c-1.263-1.857-2.82-.367-4.516-.344 3.419-4.347 7-7.963 13-7.851-.348 1.66-3.424 2.581-1.282 4.8q-.745 1.325-1.487 2.651l.052-.036c-1.989-.212-3.864.39-5.767.78z" fill="#0d0b38"/><path data-name="Path 6885" d="M123.535 15.907l-3.882-.632c1.051-2.094-1.637-3.42-1.111-5.407 2.57-1.884 5.2-3.547 8.624-2.485.426 3.536-.599 6.456-3.631 8.524z" fill="#f09093"/><path data-name="Path 6886" d="M178.653 10.581c-.455.271-1.086.433-1.344.833-1.266 1.959-2.507 2.243-3.56-.057-.542-1.179-1.283-.971-2.165-.757.682-2.2-1.183-4.462.178-6.642 3.04-.479 5.668.054 7.323 2.98.667 1.31-2.407 2.179-.432 3.643z" fill="#f09093"/><path data-name="Path 6887" d="M127.165 7.381c-3.419-1.06-6.054.6-8.624 2.485a17.761 17.761 0 0 1-.676-2.6c-.3-2.706.833-4.681 3.636-4.721 2.325-.033 4.8.258 6.178 2.833.554 1.036-.07 1.412-.514 2.003z" fill="#16115e"/><path data-name="Path 6888" d="M254.65 5.757c-3.08-1.86-5.723-1.569-7.785 1.583-2.2-1.152-1.835-2.878-.884-4.568 1.23-2.192 3.081-2.929 5.656-2.5 2.168.358 2.822 1.557 2.909 3.451.033.676.07 1.357.104 2.034z" fill="#0d0b38"/><path data-name="Path 6889" d="M179.082 6.938c-1.655-2.923-4.284-3.459-7.323-2.98-1.873-3.01-1.5-4.023 1.875-3.95a20.32 20.32 0 0 1 4.3.215c2.618.638 3.005 3.261 1.148 6.715z" fill="#0d0b38"/><path data-name="Path 6890" d="M263.441 31.799l4.644-.286c1.539.865 3.4 1.433 3.386 3.717l-21.74-.152c1.212-.87 2.613-.543 3.892-.44 3.663.291 7.033-.198 9.818-2.839z" fill="#16115e"/><path data-name="Path 6891" d="M62.068 132.37s-.092-.029-.093-.032c0 1.774.539 2.949 2.665 2.8 1.221-.083 2.462.194 3.7.227 1.715.042 2.254.767 2.121 2.532-.131 1.784-.8 2.372-2.489 2.142a18.484 18.484 0 0 0-2.357-.031c-1.1-1.179-2.077-2.685-4.065-1.577.387-2-.275-4.093.518-6.061z" fill="#0d0b38"/><path data-name="Path 6892" d="M79.052 50.929a2.609 2.609 0 0 1 1.764 2.053l-.183.186c-3.141 1.679-3.516 3.643-1.813 6.554.849 1.451 3.24 1.419 3.106 3.585a3.276 3.276 0 0 1-.558.054 11.023 11.023 0 0 1-5.474-1.367c-1.224-4.339.81-7.747 3.158-11.065z" fill="#1b2931"/><path data-name="Path 6893" d="M61.54 146.321c-1.579-1.255-.261-2.866-.526-4.281q1.958.045 3.915.087a10.347 10.347 0 0 0 3.872 2.651 1.109 1.109 0 0 1 .757 1.307c-.091.751-.677.808-1.248.787-1.58-.061-3.159-.152-4.739-.233l-.18-.166-.236.067h-.058z" fill="#0d0b38"/><path data-name="Path 6894" d="M183.592 15.674a9.942 9.942 0 0 0-.176 9.326l-.239 1.981c-3.46-3.787-3.621-8.163-2.307-12.807a3.833 3.833 0 0 1 2.722 1.5z" fill="#0d0b38"/><path data-name="Path 6895" d="M303.833 59.131c1.54 1.3 2.771.77 3.85-.651l1.132.168c-.248 1.854-.195 3.758-.932 5.53-1.188-.8.027-2.666-1.545-3.568-1.237 2.784.595 5.949-1.506 8.346l-1.7-8.457z" fill="#f7f8f9"/><path data-name="Path 6896" d="M225.185 21.701c-.334 1.236.227 3.289-2.272 2.582-2.134-.606-1.2-2.077-.726-3.211.536-1.288-.031-3.311 2.17-3.606 3.287.82 1.075 2.721.828 4.235z" fill="#0d0b38"/><path data-name="Path 6897" d="M67.789 52.122l-1.969.82a12.411 12.411 0 0 0-1.082-4.556c-.53-1.136-.9-2.389.385-3.345.424-.316 1.24-.84 1.452-.356.53 1.212 2.333 1.969 1.407 3.771-.597 1.158-.246 2.436-.193 3.666z" fill="#f09093"/><path data-name="Path 6898" d="M166.749 25.123a24.4 24.4 0 0 0 .045-9.7 3.036 3.036 0 0 1 2.1-1.229c.171 4.153.579 8.332-1.468 12.222z" fill="#0d0b38"/><path data-name="Path 6899" d="M54.697 154.966a4.074 4.074 0 0 1 2.6 1.017c-.151 1.24.536 2.644-1.092 3.56-.775.436-1.044 1.91-2.354.929a2.014 2.014 0 0 1-.7-2.919q.77-1.297 1.546-2.587z" fill="#f09093"/><path data-name="Path 6900" d="M321.357 42.085l-2.424.069a14.719 14.719 0 0 1-1.435-2.232c-.5-1.2.773-1.9 1.1-2.894.076-.233 1.244-.272 1.85-.133 1.15.263 1.029 1.306 1.029 2.183-.004 1.002-.075 2.005-.12 3.007z" fill="#f09093"/><path data-name="Path 6901" d="M299.426 49.777a18.571 18.571 0 0 1 5.766-.776 1.83 1.83 0 0 1 .1.3c-2.051 1.035-2.523 3.362-3.993 4.869-.689-1.438-2.344-2.464-1.873-4.393z" fill="#2038c9"/><path data-name="Path 6902" d="M64.929 142.127l-3.915-.087-.478-2.735 1.013-.87c1.988-1.109 2.963.4 4.065 1.576l-.685 2.116z" fill="#f09093"/><path data-name="Path 6903" d="M242.2 33.132c.954.173 2.035-.109 2.786.785-.012 1.551 1.785-.022 1.991 1.153l-7.455.184c.213-1.565 1.767-1.438 2.678-2.122z" fill="#16115e"/><path data-name="Path 6904" d="M305.136 49.037l1.487-2.651c2.272.176 2.617 1.449 1.894 3.333-1.004-.837-2.227-.583-3.381-.682z" fill="#2038c9"/><path data-name="Path 6905" d="M88.216 51.861c.742-1.268.934-.093 1.3.294a1.159 1.159 0 0 1-1.3-.294z" fill="#16115e"/><path data-name="Path 6906" d="M204.55 34.617l.73.651-.733.051z" fill="#dae5fa"/><path data-name="Path 6907" d="M90.168 129.617c.348-7.142-1.585-14-2.665-20.957 2.213-.406 1.413-2.082 1.077-3.171a11.153 11.153 0 0 1-.119-4.665c2.145 2.863 1.907 5.642 3.046 7.863 1.623-.269 2.045-1.917 3.317-2.389.745.978 1.576 1.79 2.959 1.549l.018 27.371c-4.424 3.189-5.038 8.43-6.929 12.976-.048.116.58.513.893.779-.179 1.233-.443 2.462-.521 3.7-.261 4.2-2.22 8.484.626 12.526-.047 1.379-.024 2.691 2 2.013a2.213 2.213 0 0 0 1.9.792c-.2 4.814.594 9.677-.7 14.438-4.989.131-9.943 1.073-14.956.648-.461-9.722-.577-19.478-2.746-29.038-.274-1.212-.572-2.413-.859-3.619q2.43-5.9 4.862-11.791c1.612.059 3.442-.579 3.314-2.093-.275-3.262 1.944-3.49 4-4.143 1.43-.452 1.996-1.326 1.483-2.789z" fill="#dae5fa"/><path data-name="Path 6908" d="M241.382 160.645c1.7 5.947.71 12.018.809 18.036.069 4.213-.012 8.428-.027 12.642-.729 3.832.111 7.8-1.007 11.6l-3.116.076c-1.722-2.448-1.044-5.344-1.5-8.029-.207-1.227-.391-2.456-.586-3.684a116.3 116.3 0 0 0-2.4-19.736c-.876 7.206-2.121 13.434-2.4 19.791-.47 3.115-1.061 6.217-1.369 9.348-.207 2.1-1.187 2.441-3.1 2.437-2.265 0-1.894-1.332-1.868-2.675.055-3.053.1-6.105.142-9.158.758-10.118.859-20.3 3.078-30.268 4.456.145 8.921.609 13.344-.38z" fill="#050635"/><path data-name="Path 6909" d="M260.6 191.291c1.12-9.987 1.833-20.006 2.353-30.04 2.154-.682 4.776.889 6.6-1.37l7.81-.3a7.272 7.272 0 0 0 3.812.015l2.816 31.679c-.417 1.526.67 3.17-.358 4.646a5.039 5.039 0 0 0-3.649.026c-2.156-.909-1.011-3.241-2-4.651a176.993 176.993 0 0 0-5.328-25.01c-2.084 8.332-4.166 16.573-5.158 25.03-1.259 1.376.346 4.485-2.839 4.7a4.855 4.855 0 0 0-3.807-.086q-.125-2.323-.252-4.639z" fill="#00486e"/><path data-name="Path 6910" d="M95.075 182.445c1.294-4.762.505-9.624.7-14.438q.366-.682.734-1.363c4.992 2.33 4.99 2.33 5.349-3.122.022-.333.1-.664.146-1h7.14l.367 4.808 4.527-1.608.263 25.492a33.136 33.136 0 0 0 .234 6.439c.263 1.354.118 3.064-1.99 3.215-1.66.119-2.818.1-3.294-2.235-.5-2.432.1-5.039-1.187-7.311a99.319 99.319 0 0 0-2.777-18.6l-3.357 18.572c-1.37 2.021-.177 4.5-1.2 6.612-.573 1.179-.491 2.774-2.272 3.016l-2.66.011c-2.591-2.176-1.26-4.948-1.065-7.5.276-3.662.748-7.309.342-10.988z" fill="#9fc5f6"/><path data-name="Path 6911" d="M156.75 168.035q.718 11.61 1.439 23.221c-.035 1.143-.81 1.465-1.761 1.591l-3.787.1a6.907 6.907 0 0 0-3.646.234 4.714 4.714 0 0 0-3.863.152c-1.41.007-2.681-.18-2.794-1.992l-.151-23.146c2.892-.368.926-3.416 2.505-4.474 1.621 4.954 2.488 5.489 7.715 4.792 1.44-.191 2.892-.319 4.343-.478z" fill="#00486e"/><path data-name="Path 6912" d="M301.798 145.876c2.156 2.223 1.076 4.991 1.268 7.542-6.267 9.166-1.925 19.33-2.713 29.012l-8.832.047q-.031-10.221-.059-20.441c3.524-1.838.518-3.653-.019-5.475.053-3.739-.141-7.493.73-11.177 3.026 3.756 6.318 2.255 9.625.492z" fill="#dbe6fc"/><path data-name="Path 6913" d="M291.462 162.038l.059 20.441c-.01.454-.027.909-.029 1.364-.036 7.566-.036 7.566-7.5 7.431l-2.817-31.677c4.383-1.212.565-4.418 1.69-6.605 1.793 1.34 2.434 3.753 4.421 4.869.739 2.044 1.483 4.089 4.176 4.177z" fill="#fdfdfd"/><path data-name="Path 6914" d="M267.499 191.314c1-8.457 3.075-16.694 5.158-25.03a177.033 177.033 0 0 1 5.328 25.01z" fill="#f7f8f9"/><path data-name="Path 6915" d="M199.457 186.517l.341 4.781a66.912 66.912 0 0 0 .35 9.876c.19 1.383.661 3.022-1.114 3.926a4.681 4.681 0 0 0-2.69.606c-2.177-.263-1.63-2.21-1.934-3.441-.893-3.628-1.522-7.32-2.256-10.984l-.56-4.06a28.922 28.922 0 0 1 7.863-.704z" fill="#212c33"/><path data-name="Path 6916" d="M179.587 191.264q.1-2.272.19-4.551l7.253.592-.172 3.963c-.454 3.693-1.16 7.379-1.272 11.083-.076 2.507-.988 3.707-3.322 4.064h.116c-2.084-.323-2.633-1.585-2.6-3.6.076-3.841-.113-7.696-.193-11.551z" fill="#212c33"/><path data-name="Path 6917" d="M101.931 191.291l3.357-18.571a99.453 99.453 0 0 1 2.777 18.6z" fill="#f7f8f9"/><path data-name="Path 6918" d="M69.222 184.447v-20.065c2.733 6.188 3.553 12.811 4.541 19.392a10.979 10.979 0 0 1-4.541.673z" fill="#dae5fa"/><path data-name="Path 6919" d="M231.153 191.341c.277-6.357 1.524-12.585 2.4-19.791a116.074 116.074 0 0 1 2.4 19.736z" fill="#f7f8f9"/><path data-name="Path 6920" d="M307.789 183.098c.1-4.952-.055-9.923 1.128-15.437 1.51 5.687 2.885 10.862 4.257 16.036z" fill="#dae5fa"/><path data-name="Path 6921" d="M152.635 192.948l3.787-.1c.6 3.3-1.032 6.974 1.693 9.907-1.515.833-2.769-.392-4.166-.513z" fill="#f09093"/><path data-name="Path 6922" d="M145.125 193.336a4.688 4.688 0 0 1 3.863-.151c.455 3.206-1.2 6.771 1.613 9.581-1.509.871-2.769-.357-4.159-.491z" fill="#f09093"/><path data-name="Path 6923" d="M238.041 203.004l3.116-.076a1.49 1.49 0 0 0-.489 2.093c.625 1.035 1.881 2.142.083 2.984a8.348 8.348 0 0 1-6.254.583c-.531-.181-.465-1.242.325-1.652a67.8 67.8 0 0 1 3.058-1.479c1.589-.735 1.405-1.553.161-2.453z" fill="#16115e"/><path data-name="Path 6924" d="M283.793 198.021a13.5 13.5 0 0 1 4.525 2.223c.434.329.909.764.713 1.4-.214.691-.882.593-1.421.606a33.906 33.906 0 0 0-3.722.02c-2.985.387-3.858-1.008-3.376-3.7 1.183.357 2.2-.284 3.281-.549z" fill="#f7f8f9"/><path data-name="Path 6925" d="M117.73 206.216c-1.922 1.666-4.12 1.067-6.192.9-1.317-.1-1.718-1.156-1.194-2.252.41-.855.973-2.006 2.322-1.38 1.704.794 3.701 1.063 5.064 2.732z" fill="#16115e"/><path data-name="Path 6926" d="M264.524 197.948c1.5 1.328 5.01 1.309 4.4 3.711-.379 1.493-3.636.355-5.592.57-3.134.346-2.774-1.725-2.507-3.706 1.332.458 2.499-.161 3.699-.575z" fill="#f7f8f9"/><path data-name="Path 6927" d="M98.497 203.662c1.312.86 2.981 1.109 4.258 2.565-2.424.9-4.762 1.549-7.058.3-1.267-.691.1-1.818.086-2.754z" fill="#0d0b38"/><path data-name="Path 6928" d="M302.493 200.982l3.171.023.015 5.2c-1.957-.067-4.03.814-5.812-.7a3.864 3.864 0 0 0 2.626-4.523z" fill="#f09093"/><path data-name="Path 6929" d="M182.379 206.421h-.116c-.327.565-.278 1.314.195 1.523 1.13.5 1.991 1.042 1.515 2.424-.489 1.423-1.737.667-2.63.741-1.533.127-3.085.036-5.265.036 1.376-2.476 3.284-2.848 5.007-3.333.851-.245 1.582-.24 1.294-1.391z" fill="#0d0b38"/><path data-name="Path 6930" d="M186.858 191.271l.17-3.962 4.565-.091.56 4.06z" fill="#f7f8f9"/><path data-name="Path 6931" d="M199.097 207.632a10.429 10.429 0 0 1 5.117 2.878c-2.459 1.043-4.678.469-6.821.606-.926.06-.96-.6-1.085-1.31-.318-1.824 1.552-1.189 2.121-1.987z" fill="#0d0b38"/><path data-name="Path 6932" d="M299.867 205.498c1.782 1.515 3.856.635 5.813.7.222 1.311-.477 1.95-1.662 2.039-2.365.178-4.748.383-7.1-.513.498-1.602 1.903-1.668 2.949-2.226z" fill="#16115e"/><path data-name="Path 6933" d="M322.199 205.212c.66 1.274.369 2.163-1.088 2.467-2.26.471-4.507 1.2-7.144.536a4.46 4.46 0 0 1 3.3-2.57c1.796 1.567 3.298-.185 4.932-.433z" fill="#16115e"/><path data-name="Path 6934" d="M322.199 205.212c-1.635.249-3.137 2-4.933.433 1.623-1.206 1.527-2.982 1.562-4.714h2.685z" fill="#f09093"/><path data-name="Path 6935" d="M68.238 195.552c.53 1.772-.163 2.835-1.937 3.135-1.959.332-3.858 1.222-6.1.695.279-1.591 1.687-1.885 2.744-2.529 2.172 1.229 3.594-.601 5.293-1.301z" fill="#0d0b38"/><path data-name="Path 6936" d="M79.359 195.796c.379 1.6-.213 2.62-1.844 2.931-2.023.387-4.015 1.188-6.392.695.655-1.434 1.818-1.87 2.823-2.474 2.157 1.3 3.595-.81 5.413-1.152z" fill="#0d0b38"/><path data-name="Path 6937" d="M68.239 195.552c-1.7.7-3.122 2.532-5.295 1.3 1.18-1.107 2.565-2.1 2.152-4.056l3.289.227-.146 2.529z" fill="#f09093"/><path data-name="Path 6938" d="M79.355 195.796c-1.814.342-3.252 2.452-5.413 1.151 1.2-1.167 2.878-2.026 2.594-4.122l2.8-.085q.008 1.528.019 3.056z" fill="#f09093"/><path data-name="Path 6939" d="M264.524 197.947c-1.2.414-2.367 1.033-3.7.577l.029-2.6a4.883 4.883 0 0 1 3.81.088q-.072.965-.139 1.935z" fill="#f09093"/><path data-name="Path 6940" d="M283.793 198.022c-1.08.265-2.1.909-3.281.541a3.765 3.765 0 0 1-.523-2.618 5.044 5.044 0 0 1 3.65-.025c.049.702.101 1.405.154 2.102z" fill="#f09093"/><path data-name="Path 6941" d="M228.037 206.784c.765 1.423.1 2.168-1.272 2.277a20.6 20.6 0 0 1-5.043 0c-2.231-.385-1.15-1.212-.033-1.866 2.179.827 4.325 1.163 6.348-.411z" fill="#16115e"/><path data-name="Path 6942" d="M146.443 202.273c1.39.134 2.651 1.364 4.159.491.676.379 1.618.731 1.335 1.657-.257.844-1.2.473-1.742.277-1.424-.511-3.696.202-3.752-2.425z" fill="#0d0b38"/><path data-name="Path 6943" d="M153.955 202.24c1.394.121 2.651 1.35 4.166.513.751.3 1.657.73 1.47 1.569-.243 1.1-1.344.592-1.969.407-1.456-.43-3.665.111-3.667-2.489z" fill="#16115e"/><path data-name="Path 6944" d="M228.038 206.78c-2.023 1.574-4.166 1.238-6.348.41 2.053-1.11 4.06-2.917 6.348-.41z" fill="#050635"/><path data-name="Path 6945" d="M98.497 203.663l-2.715.109.012-2.842 2.66-.01.043 2.743z" fill="#fdfdfd"/><path data-name="Path 6946" d="M199.098 207.633l-.665.189c-1.364-.049-2.33-.485-2.089-2.115a4.679 4.679 0 0 1 2.69-.606q.03 1.265.064 2.532z" fill="#f7f8f9"/><path data-name="Path 6947" d="M191.594 187.218l-4.565.091-7.251-.593c-2.719-.375-3.607-1.708-3.338-4.6 1.075-11.57 1.841-23.169 2.776-34.753a10.146 10.146 0 0 0-1.61-6.776 16.172 16.172 0 0 1-2.717-10.05c.256-4.364-.638-8.806.849-13.087a4.453 4.453 0 0 0 2.688.58c1.006 1.012.7 2.291.717 3.506-.63.5-.583.95.092 1.364l.123.943c.267 1.764-.472 3.743 1.122 5.22.839 2.176.666 5.13 2.732 6.355 3.3 1.957 3.153 5.026 3.651 8.007l1.543 12.941.764-.014.75-8.233 1-11.336c2.452-.668 3.393-2.381 3.46-4.808.095-3.4.242-6.8.46-10.2.066-1.046-.541-2.3.7-3.1l2.841.025c2.435 3.043 1.836 6.8 2.374 10.275.422 2.727.507 5.689-.525 8.092-3.39 7.9-1.729 15.856-.917 23.815.737 7.222 1.53 14.447 2.638 21.618.378 2.469-.237 3.56-2.5 4.024a28.917 28.917 0 0 0-7.857.694z" fill="#00486e"/><path data-name="Path 6948" d="M156.749 168.035c-1.451.158-2.9.286-4.349.48-5.227.7-6.094.162-7.715-4.792-1.579 1.06.387 4.106-2.5 4.474-1.41-3.011-.1-6.23-.711-9.3.076-1.093.347-2.051-.947-2.913-3.978-2.647-4.768-5.091-3.326-9.767.655-2.121 1.576-4.158 2.376-6.233l-.06.046.626-.394 1.1-.521c1.415 2.852.9 6.083 1.527 9.884 2.244-4.156.892-7.632.757-11.047.253-.272.506-.543.758-.817l2.714-.682h3.65l2.487.747.979.807c-.1 2.268.651 4.545-.11 6.806-1.728.447-3.437 1-5.19 1.31s-1.95 1.086-1.71 2.781c.518 3.646 3.056 1.667 4.772 1.986a2.127 2.127 0 0 0 1.364 2.113c-.442 1.674-2.121 1.906-3.238 2.79-.648.511-1.236 1.753-.106 1.65a22.1 22.1 0 0 0 7.5-1.925c1.31-.633-.454-2.4-.213-3.7.026-1.163.686-2.591-1.226-2.949l-.191-2.708.2-6.805c3.221 7.045 4.823 14.661 7.681 21.834.646 1.618-.667 1.979-1.6 2.492a1.68 1.68 0 0 1-2.561-.811 10.017 10.017 0 0 0-2.21-3.232c.106 1.692.151 3.39.339 5.075.135 1.254.592 2.518-.867 3.321z" fill="#fca700"/><path data-name="Path 6949" d="M269.558 159.881c-1.829 2.258-4.451.682-6.6 1.369-1.032.127-2.225-.582-3.062.58l-3.169.02-1.349-7.981a65.478 65.478 0 0 1 3.345-20.831c1.061-1.049 1.256-2.98 3.2-3.116 1.644 2.5.93 5.227.734 7.9-.188 2.569-.421 5.135-.634 7.7 3.533-5.132 3.3-10.8 3.192-16.437l2.3-.516.258 1.584q.267 3.78.53 7.559l.227 5.115c.366 5.685.097 11.406 1.028 17.054z" fill="#07061e"/><path data-name="Path 6950" d="M287.286 157.859c-1.987-1.117-2.628-3.529-4.421-4.869-1.125 2.187 2.693 5.395-1.69 6.605a7.3 7.3 0 0 1-3.812-.014q-1.554-8.4-3.106-16.812l-1.038-5.431-1.478-9 .233.041.152-.184c5.39-.138 8.649 2.39 10.111 7.624a142.25 142.25 0 0 0 7.57 19.922z" fill="#07061e"/><path data-name="Path 6951" d="M241.381 160.645c-4.424.989-8.888.525-13.344.379-.813-2.028.665-3.718.826-5.605a7.278 7.278 0 0 0-.379-4.006c-.951.151-1.073 1.078-1.6 1.6a14.114 14.114 0 0 1-2.06-4.64c1.228-3.328 1.326-7.184 4.495-9.6 1.818.2 2.39-1.37 3.36-2.373l3.285.008c1.688.227 1.445 2.418 2.912 2.87l-1.17 6.648-.475 1.217c-.455.427-.372.779.146 1.072l1.894 3.43c1.021 2.478.9 5.289 2.23 7.676q-.058.66-.12 1.324z" fill="#00486e"/><path data-name="Path 6952" d="M102.005 162.527c-.05.333-.124.663-.146 1-.359 5.454-.357 5.454-5.349 3.121l-.151-3.38c1.335-4.179-.686-8.492.53-12.714.379-1.3-.955-.784-1.632-.851l-3.492-.726c-.313-.266-.941-.664-.893-.78 1.894-4.545 2.5-9.787 6.929-12.976 5.652-1.288 5.53-1.3 5.189 4.592-.44 7.563-.666 15.146-.985 22.714z" fill="#0d0b38"/><path data-name="Path 6953" d="M305.109 111.294l.143 9.62c-.583 1.7-1.9 2.667-3.287 3.712-2.217 1.671-3.142 3.806-1.339 6.439a10.227 10.227 0 0 1 1.846 4.681 10.22 10.22 0 0 0-3.568 4.862c-1.725 2.671-3.591 2.749-5.616.323-.5-.606-1.06-1.166-1.59-1.747q-.379-1.644-.753-3.288c1.17-3.409.485-6.918.584-10.385 2.545 1.6 4.043 1.111 4.8-2 1.035-4.274 2.381-8.473 3.593-12.7z" fill="#dae5fa"/><path data-name="Path 6954" d="M246.978 35.071c-.206-1.175-2 .4-1.991-1.153 1.865.206 1.476-1.132 1.6-2.226.322-2.888-1.47-6.742.734-8.413 1.829-1.388 5.469-.427 8.307-.439 7.837-.03 7.837-.016 7.826 7.933 0 .342-.007.682-.01 1.026-2.784 2.641-6.155 3.13-9.817 2.836-1.279-.1-2.682-.43-3.892.44z" fill="#00486e"/><path data-name="Path 6955" d="M232.682 136.396c-.97 1-1.542 2.575-3.36 2.373-3.863-2.967-3.5-2.807-1.521-7.369a39 39 0 0 1 3.176-6 3.871 3.871 0 0 1 4.749-1.607c1.9.563 4.511.289 4.629 3.484.1 2.682 3.726 3.1 4.059 6.065.113 1.007 2.376 1.848 1.241 3.787a3.554 3.554 0 0 1-4.594 1.778l-2.182.369c-1.468-.455-1.225-2.641-2.914-2.869-.112-2.121 1.566-3.291 3.069-5.02-2.178-.031-2.714-1.548-3.7-2.569-.747-.771-1.057-2.554-2.82-1.429-1.6 1.021-2.513 2.261-2.2 4.337.284 1.87 1.768 3.026 2.368 4.67z" fill="#0d0b38"/><path data-name="Path 6956" d="M114.04 165.727l-4.527 1.608-.367-4.808-.032-3.387-.018-.66c-.117-7.272-.266-14.539-.3-21.809 0-.766-.965-2.647 1.363-2.025l.667 2.034c.26 1.39-1.167 2.575-.479 4.02.227 4.028.728 7.962 3.871 10.962l-.017-.033.413 6.979c-.521 2.347 1.125 4.867-.574 7.119z" fill="#0d0b38"/><path data-name="Path 6957" d="M153.136 137.205l-2.486-.746a3.873 3.873 0 0 1 .841-3.4c1.3-1.667-.108-5.345-2.309-6.375-2.464-1.153-1.807 1.346-2.364 2.332-.539.955-2.054.363-2.376 1.667 2.11 1.363 3.148 3.215 2.558 5.77l-2.714.682c-2.97-3.286-2.292-11.035 1.313-13.42 2.033-1.346 4.5-1.742 6.211.3a15.5 15.5 0 0 1 3.273 10.159c.008 1.359-.952 2.242-1.947 3.031z" fill="#0d0b38"/><path data-name="Path 6958" d="M299.915 110.814c-1.212 4.231-2.557 8.43-3.593 12.7-.754 3.112-2.252 3.6-4.8 2a102.015 102.015 0 0 1 .995-16.21z" fill="#212c33"/><path data-name="Path 6959" d="M272.124 128.195l-.152.184-.232-.041c-1.189.9-3.174.058-3.969 1.818l-.258-1.584c.934-2.643-.962-4.519-1.811-6.679 1.449.03 1.151-1.069 1.175-1.894.034-1.207.547-1.986 1.795-1.894 1.64.117 3.274-.594 4.906.007.925 2.906 1.54 5.724-1.494 7.919-.843.608-.233 1.441.04 2.164z" fill="#f09093"/><path data-name="Path 6960" d="M110.025 122.889c1.567 4.118-.567 7.533-2.1 11.059a1.661 1.661 0 0 1-1.558 1.126c-.833 0-1.969-.414-1.927-1.089.151-2.512-1.63-4.223-2.3-6.37 1.712-2.892 4.522-3.939 7.605-4.537.102-.019.186-.119.28-.189z" fill="#f09093"/><path data-name="Path 6961" d="M224.828 148.372a14.1 14.1 0 0 0 2.06 4.64c-2.878 1.995-3.863 1.777-4.975-1.263-1.423-3.887-1.528-8.245-4.479-11.6a1.538 1.538 0 0 1 1.1-2.55c1.122-.044 2.962.162 2.966 1.988.012 3.385 1.802 6.018 3.328 8.785z" fill="#f09093"/><path data-name="Path 6962" d="M291.472 87.294c1.992-1.13 1.734-3.517 2.862-5.131.69-.985 1.354-1.993 2.029-2.991l.909.3-5.553 24.77q-.127-8.475-.247-16.948z" fill="#dae5fa"/><path data-name="Path 6963" d="M180.48 129.055c-1.591-1.477-.855-3.456-1.122-5.22 1.49 1.642 1.909-.227 2.362-.887 1.981-2.894 5-3.568 8.02-4.271 1 1.676-2.713 2.234-.677 3.965.69 2.108-.459 3.135-2.256 3.694-1.272.4-2.668.465-3.636 1.556-.615-.589-1.186-1.364-2.2-.874-.937.456-.324 1.356-.491 2.037z" fill="#0d0b38"/><path data-name="Path 6964" d="M110.822 136.681l-.666-2.035c3.345 1.369 7.432 1.666 8.711 6.026l1.838 7.615-.345 1.247a.44.44 0 0 0-.494.048c-4.305-1.186-4.674-5.277-5.538-8.489-.628-2.309-1.401-3.669-3.506-4.412z" fill="#16115e"/><path data-name="Path 6965" d="M192.617 126.927c.589 2.919 1.6 5.93-1.72 8.008-.919.871-1.126 2.494-2.759 2.616-1.476-2.3-3.141-4.5-3.92-7.181.934 1.922 1.961.571 2.226-.218 1.063-3.163 3.624-3.109 6.173-3.225z" fill="#f09093"/><path data-name="Path 6966" d="M291.696 139.187c.53.582 1.089 1.143 1.591 1.748 2.025 2.424 3.891 2.348 5.616-.323a12.859 12.859 0 0 1 2.892 5.264c-3.306 1.762-6.6 3.263-9.625-.492l-2.9-5.206z" fill="#f09093"/><path data-name="Path 6967" d="M97.282 86.627c-1.391-5-2.757-10.009-4.188-15-.441-1.539-.208-2.334 1.617-2.272a4.864 4.864 0 0 0 3.052-1.309c-.24 6.192.678 12.413-.481 18.581z" fill="#dae5fa"/><path data-name="Path 6968" d="M139.571 139.983c-.8 2.075-1.722 4.112-2.376 6.233-1.439 4.676-.651 7.12 3.326 9.767 1.294.861 1.024 1.818.947 2.912-5.109.758-5.53.482-5.955-4.772-.217-2.694-.069-5.416-.192-8.121-.142-3.147 1.208-5.159 4.25-6.019z" fill="#16115e"/><path data-name="Path 6969" d="M273.58 118.109c-1.631-.6-3.265.11-4.906-.007-1.248-.089-1.761.691-1.8 1.894-.023.825.274 1.923-1.175 1.894-.574-1.646-2.07-2.989-1.429-5.031.926-2.946 7.575-4.556 9.712-2.18.927 1.026-.845 2.2-.402 3.43z" fill="#16115e"/><path data-name="Path 6970" d="M239.275 151.644l-1.894-3.43q-.075-.536-.146-1.072.238-.606.472-1.212c1.124-2.272 1.858 1.626 2.931.189 1.784 2.238 2.6 6.055 6.882 4.216-.042 1.591 1.878 3.4-.526 4.724-2.91-.381-4.91-2.815-7.719-3.415z" fill="#f09093"/><path data-name="Path 6971" d="M110.025 122.888c-.093.065-.178.17-.28.19-3.083.6-5.893 1.645-7.605 4.537-1.254-1.346-2.781-2.624-1.509-4.752 1.055-1.765 2.137-3.473 4.647-3.247 2.232.199 4.081.849 4.747 3.272z" fill="#f67369"/><path data-name="Path 6972" d="M247.519 150.327c-4.282 1.839-5.1-1.979-6.881-4.215-1.395-2.083-.228-4.067.238-6.078 2.365 1.246 4.2 2.836 4.772 5.693a25.615 25.615 0 0 0 1.871 4.6z" fill="#00486e"/><path data-name="Path 6973" d="M258.719 133.041a65.475 65.475 0 0 0-3.345 20.831c-2.358-.7-2.325-2.626-2.024-4.43.7-4.2 2.51-8.16 1.534-12.693-.437-2.033 1.946-3.06 3.835-3.708z" fill="#fca700"/><path data-name="Path 6974" d="M265.212 129.089c.1 5.643.341 11.307-3.192 16.438.213-2.567.446-5.133.634-7.7.2-2.671.909-5.4-.734-7.9a6.345 6.345 0 0 1 3.292-.838z" fill="#fca700"/><path data-name="Path 6975" d="M198.386 118.693l-2.842-.025a6.254 6.254 0 0 0-2.863-3.636c-1.717-1.136-.421-3.026-.7-4.545-.106-.578 1.555-.555 2.419-.455 1.244.146 1.487 1.3 1.823 2.232.766 2.128 1.45 4.285 2.163 6.429z" fill="#f09093"/><path data-name="Path 6976" d="M178.426 118.026a4.458 4.458 0 0 1-2.688-.58 14.9 14.9 0 0 0-.317-5.394c-.4-1.349-.468-2.727 1.229-3.419.732-.3 1.925-.858 2.007.058.135 1.5 2.448 2.319 1.1 4.188a7.119 7.119 0 0 0-1.331 5.147z" fill="#f09093"/><path data-name="Path 6977" d="M291.696 139.188l-2.418.991c-3.241-1.266-1.742-4.646-2.934-6.851-.184-.339 1.439-.791 2.323-.973a1.078 1.078 0 0 1 1.456.953c.21.879.542 1.729.82 2.591q.375 1.645.753 3.289z" fill="#0d0b38"/><path data-name="Path 6978" d="M119.862 149.582a.439.439 0 0 1 .494-.048c.758 1.294.09 2.626.027 3.918-.252 5.19-.455 5.318-5.775 5.156q-.205-3.49-.413-6.979c1.251.786 1.488 3.175 3.582 2.541 2.055-.623 1.994-2.522 2.056-4.247.002-.117.022-.227.029-.341z" fill="#fca700"/><path data-name="Path 6979" d="M239.275 151.641c2.809.606 4.809 3.034 7.718 3.409-.385 3.28-2.314 4.573-5.488 4.262-1.33-2.381-1.209-5.193-2.23-7.671z" fill="#fca700"/><path data-name="Path 6980" d="M192.618 126.928c-2.55.116-5.111.062-6.173 3.225-.265.79-1.292 2.14-2.226.218l-1.049-2.479c.969-1.091 2.366-1.16 3.636-1.556 1.8-.559 2.946-1.586 2.256-3.694 2.907.207 4.159 1.716 3.556 4.286z" fill="#f67369"/><path data-name="Path 6981" d="M256.723 161.852l3.169-.021c.055 1.713 2.116 3.467-.518 5.175-.833.542-.969 1.833-2.459 1.066-1.376-.708-1.748-1.575-1.185-3 .412-1.04.667-2.144.993-3.22z" fill="#f09093"/><path data-name="Path 6982" d="M287.29 157.859l2.515-2.121 1.637.817c.537 1.824 3.544 3.636.019 5.477-2.693-.083-3.441-2.128-4.171-4.173z" fill="#f09093"/><path data-name="Path 6983" d="M143.527 137.951c.133 3.415 1.484 6.893-.757 11.047-.626-3.8-.112-7.032-1.527-9.884a1.885 1.885 0 0 1 2.284-1.163z" fill="#16115e"/><path data-name="Path 6984" d="M206.567 35.273a3.1 3.1 0 0 0 2.212-3.288 22.664 22.664 0 0 1 1.272-6.28c.893 1.938.656 4 .516 5.968a3.163 3.163 0 0 0 2.185 3.631z" fill="#dae5fa"/><path data-name="Path 6985" d="M188.139 137.552c1.633-.121 1.84-1.742 2.759-2.616l.027 1.839q-.5 5.668-1.005 11.335c-1.1-3.149-.227-6.658-1.771-9.725l-.01-.833z" fill="#dae5fa"/><path data-name="Path 6986" d="M130.146 33.38l-.287 1.769-6.536.03c-.227-1.872.461-2.769 2.455-2.424 1.443.256 2.907.422 4.368.625z" fill="#f09093"/><path data-name="Path 6987" d="M240.876 140.036c-.468 2.011-1.633 3.995-.238 6.078-1.073 1.439-1.807-2.46-2.931-.19q.589-3.328 1.173-6.651l2.182-.37c-.066.379-.126.756-.186 1.133z" fill="#fca700"/><path data-name="Path 6988" d="M183.178 26.981l.239-1.981c2.121 3.2 1.061 6.809 1.351 10.246l-2.146.011a33.03 33.03 0 0 0 .556-8.276z" fill="#dae5fa"/><path data-name="Path 6989" d="M154.004 144.817c.762-2.257.012-4.538.111-6.806 1.018-.1 1.478.568 1.852 1.352l-.2 6.8c-.551-.5-.737-1.468-1.763-1.346z" fill="#16115e"/><path data-name="Path 6990" d="M166.749 25.123l.682 1.292c-1.076 2.86-.346 5.846-.61 8.762l-.254.043s-.252-.042-.25-.043c-.123-3.363-2.071-6.804.432-10.054z" fill="#b9c8ec"/><path data-name="Path 6991" d="M97.784 107.847c-1.383.241-2.214-.571-2.959-1.549a10.694 10.694 0 0 1 2.878-3.14l.081 4.689z" fill="#f67369"/><path data-name="Path 6992" d="M120.703 148.287l-1.838-7.615c3.888 1.746 1.577 4.992 1.838 7.615z" fill="#fca700"/><path data-name="Path 6993" d="M179.235 122.892c-.675-.41-.723-.861-.093-1.364l.093 1.364z" fill="#0d0b38"/><path data-name="Path 6994" d="M140.136 139.635l-.626.393z" fill="#16115e"/><path data-name="Path 6995" d="M109.095 158.481l.018.66a3.416 3.416 0 0 1-.242-.479c-.011-.031.145-.12.224-.181z" fill="#9fc5f6"/><path data-name="Path 6996" d="M304.832 68.955c2.1-2.4.269-5.561 1.506-8.346 1.572.9.357 2.764 1.545 3.569l-1.612 11.644a22.238 22.238 0 0 1-1.439-6.867z" fill="#f09093"/><path data-name="Path 6997" d="M81.366 63.362a3.292 3.292 0 0 0 .558-.054c1.406 1.379 2.532.691 3.592-.485l.74.53q-.418 5.893-.833 11.786a54.119 54.119 0 0 1-4.057-11.777z" fill="#f7f8f9"/><path data-name="Path 6998" d="M317.335 143.516c3.456 2.969 3.56 3.484 1.132 7.272-1.094 1.708-2.312 3.338-3.471 5-.286-.635-.522-1.31-1.236-1.62l.164-1.363c.431-2.756.852-5.514 1.3-8.268.209-1.32.659-2.237 2.111-1.021z" fill="#dae5fa"/><path data-name="Path 6999" d="M313.925 152.802l-.164 1.364c-2.088-.273-4.252 2.331-6.274-.174-.025-.032.051-.18.112-.24a1.306 1.306 0 0 1 .284-.163c2.099.39 4.009-.67 6.042-.787z" fill="#0d0b38"/><path data-name="Path 7000" d="M214.92 10.453c.936-1.576.076-3.05-.323-4.451a34.735 34.735 0 0 0 3.408-1.429c1.015-.553 2.173-1.679 3.11-.748 1.322 1.312 1.547 2.991.53 4.927-.882 1.685-2.873 1.73-3.741 3.213-1.439.382-2.226-.539-2.984-1.512z" fill="#f09093"/><path data-name="Path 7001" d="M306.082 135.254c1.648-2.794-1.255-4.53-1.722-6.859-.515-2.569.563-3.744 2.26-4.965 1.255-.9 2.213-.833 3.033.66.962 1.748 1.932 3.539 4.226 4.55-2.509 1.439-4.006 3.176-3.935 5.848-1.081 1.296-2.577.496-3.862.766z" fill="#f09093"/><path data-name="Path 7002" d="M69.781 128.227c.242-1.686-1.318-2.679-1.591-4.309a4.006 4.006 0 0 1 1.425-4.076c1.323-1.212 2.47-1.353 3.414.539.726 1.455 1.4 3.03 3.436 3.612-1.5 1.329-3.221 2.2-3.265 4.263z" fill="#f09093"/><path data-name="Path 7003" d="M61.54 146.321l1.556.227a1.112 1.112 0 0 1-1.556-.227z" fill="#dbe6fc"/><path data-name="Path 7004" d="M85.516 62.822c-1.06 1.176-2.186 1.863-3.592.485.136-2.166-2.255-2.134-3.106-3.585-1.7-2.91-1.327-4.875 1.813-6.554a3.035 3.035 0 0 0 .417.518c2.229 1.773 6.544 2.355 3.818 6.944-.261.445.413 1.447.65 2.192z" fill="#f09093"/><path data-name="Path 7005" d="M91.763 148.974l3.491.726c-.53 2.307-1.092 4.608-1.585 6.922-.435 2.036-1.813 3.989-.61 6.189-.537.727-1.5 1.244-1.189 2.391-2.847-4.041-.888-8.332-.626-12.526.079-1.24.343-2.467.519-3.702z" fill="#f09093"/><path data-name="Path 7006" d="M91.871 165.202c-.3-1.147.652-1.667 1.189-2.392a1.059 1.059 0 0 1 1.544.415l-.733 3.991c-2.021.676-2.047-.635-2-2.014z" fill="#fca700"/><path data-name="Path 7007" d="M93.872 167.215l.733-3.99 1.752.04.152 3.38-.734 1.364a2.216 2.216 0 0 1-1.903-.794z" fill="#f67369"/><path data-name="Path 7008" d="M274.259 142.77q1.554 8.408 3.105 16.812l-7.809.3c-.932-5.648-.663-11.369-1.027-17.052z" fill="#f7f8f9"/><path data-name="Path 7009" d="M188.139 137.551c0 .278.007.555.009.833-1.672 1.363.246 3.636-1.288 5.032-.5-2.981-.348-6.05-3.651-8.007-2.066-1.225-1.894-4.179-2.732-6.354.167-.682-.446-1.582.5-2.038 1.009-.488 1.579.286 2.2.874l1.048 2.478c.773 2.682 2.439 4.881 3.914 7.182z" fill="#f7f8f9"/><path data-name="Path 7010" d="M186.863 143.417c1.531-1.4-.387-3.672 1.288-5.032 1.546 3.067.67 6.576 1.772 9.725l-.75 8.234-.763.014z" fill="#f67369"/><path data-name="Path 7011" d="M147.001 136.455c.59-2.554-.448-4.41-2.558-5.77.322-1.307 1.837-.715 2.376-1.667.557-.985-.1-3.484 2.364-2.332 2.2 1.03 3.609 4.71 2.309 6.375a3.878 3.878 0 0 0-.841 3.4z" fill="#f09093"/><path data-name="Path 7012" d="M154.004 144.817c1.026-.123 1.212.848 1.759 1.351q.1 1.355.191 2.709c-2.313-1.254-2.9.979-4.079 2.018-1.713-.319-4.252 1.659-4.772-1.986-.24-1.7-.055-2.472 1.71-2.781s3.463-.864 5.191-1.311z" fill="#0d0b38"/><path data-name="Path 7013" d="M157.179 151.826c-.241 1.3 1.523 3.063.213 3.7a22.088 22.088 0 0 1-7.5 1.925c-1.13.1-.542-1.136.106-1.65 1.121-.884 2.8-1.116 3.238-2.79z" fill="#0d0b38"/><path data-name="Path 7014" d="M157.18 151.826l-3.939 1.182a2.126 2.126 0 0 1-1.361-2.11c1.179-1.038 1.766-3.272 4.079-2.018 1.906.355 1.246 1.783 1.221 2.946z" fill="#f09093"/><path data-name="Path 7015" d="M267.772 130.159c.795-1.76 2.78-.918 3.969-1.818l1.478 9c-1.591.7-3.271.3-4.914.379q-.264-3.783-.533-7.561z" fill="#f7f8f9"/><path data-name="Path 7016" d="M268.307 137.716c1.642-.076 3.321.326 4.914-.379l1.039 5.433-5.728.06-.225-5.114z" fill="#fca700"/><path data-name="Path 7017" d="M232.682 136.395c-.606-1.644-2.085-2.8-2.368-4.671-.314-2.076.6-3.316 2.2-4.337 1.763-1.125 2.073.658 2.819 1.429.989 1.021 1.524 2.538 3.7 2.569-1.5 1.729-3.181 2.9-3.069 5.02z" fill="#f09093"/><path data-name="Path 7018" d="M237.234 147.139q.076.536.146 1.072c-.518-.293-.604-.646-.146-1.072z" fill="#f67369"/><path data-name="Path 7019" d="M96.357 163.265l-1.752-.04c-.372-.669-.92-.682-1.545-.415-1.2-2.2.176-4.151.61-6.187.494-2.314 1.054-4.615 1.585-6.922.682.067 2.01-.454 1.634.851-1.217 4.221.804 8.534-.532 12.713z" fill="#dae5fa"/><path data-name="Path 7020" d="M119.862 149.58c-.01.114-.024.227-.029.34-.062 1.725 0 3.624-2.056 4.247-2.094.634-2.332-1.755-3.582-2.541l.017.033c-1.112-3.716-1.131-7.819-3.871-10.961-.688-1.439.739-2.63.479-4.02 2.106.745 2.878 2.1 3.5 4.413.868 3.214 1.236 7.305 5.542 8.489z" fill="#f09093"/><path data-name="Path 7021" d="M110.342 140.7c2.74 3.142 2.759 7.245 3.871 10.962-3.141-3-3.641-6.932-3.871-10.962z" fill="#fca700"/></g></svg>