<svg xmlns="http://www.w3.org/2000/svg" width="316.752" height="219.896"><g data-name="Group 596"><g data-name="Group 566"><path data-name="Path 7488" d="M149.129 155.864l-41.809 16.791L55.565 43.786l35.341-14.193a6.97 6.97 0 0 1 9.066 3.871z" fill="#f4a640"/><g data-name="Group 564"><path data-name="Rectangle 539" fill="#adcfd8" d="M54.041 52.704l80.054-14.192 19.954 112.556-80.054 14.192z"/><path data-name="Rectangle 540" fill="#55769f" d="M78.126 59.956l35.749-6.338.142.803-35.749 6.337z"/><path data-name="Rectangle 541" fill="#55769f" d="M70.255 59.252l50.77-9 .142.802-50.77 9z"/><path data-name="Rectangle 542" fill="#55769f" d="M66.697 70.674l61.595-10.92.142.803-61.595 10.92z"/><path data-name="Rectangle 543" fill="#55769f" d="M67.381 74.534l61.595-10.92.142.803-61.595 10.92z"/><path data-name="Rectangle 544" fill="#55769f" d="M68.75 82.255l61.617-10.947.142.803-61.616 10.947z"/><path data-name="Rectangle 545" fill="#55769f" d="M69.434 86.115l61.617-10.947.142.803-61.616 10.947z"/><path data-name="Rectangle 546" fill="#55769f" d="M70.118 89.975l61.617-10.947.142.803-61.616 10.947z"/><path data-name="Rectangle 547" fill="#55769f" d="M73.128 106.953l61.617-10.947.142.803-61.616 10.947z"/><path data-name="Rectangle 548" fill="#55769f" d="M73.838 110.956l61.595-10.92.142.803-61.595 10.92z"/><path data-name="Rectangle 549" fill="#55769f" d="M74.548 114.958l61.617-10.947.142.803-61.616 10.947z"/><path data-name="Rectangle 550" fill="#55769f" d="M75.257 118.961l61.617-10.947.142.803L75.4 119.764z"/><path data-name="Rectangle 551" fill="#55769f" d="M75.967 122.964l61.617-10.947.142.803-61.616 10.947z"/><path data-name="Rectangle 552" fill="#55769f" d="M76.676 126.967l61.595-10.92.142.803-61.595 10.92z"/><path data-name="Rectangle 553" fill="#55769f" d="M77.386 130.969l61.617-10.947.142.803-61.616 10.947z"/></g><g data-name="Group 565"><path data-name="Rectangle 554" fill="#daeef7" d="M43.933 56.394l78.619-20.732 29.15 110.539-78.62 20.732z"/><path data-name="Rectangle 555" fill="#55769f" d="M68.53 61.652l35.108-9.258.208.788-35.108 9.258z"/><path data-name="Rectangle 556" fill="#55769f" d="M60.628 61.594l49.863-13.122.208.788-49.864 13.122z"/><path data-name="Rectangle 557" fill="#55769f" d="M58.016 73.269l60.49-15.952.209.789-60.491 15.951z"/><path data-name="Rectangle 558" fill="#55769f" d="M59.014 77.06l60.495-15.92.208.788-60.496 15.92z"/><path data-name="Rectangle 559" fill="#55769f" d="M61.01 84.643l60.495-15.92.208.788-60.496 15.92z"/><path data-name="Rectangle 560" fill="#55769f" d="M62.007 88.434l60.49-15.952.209.789-60.491 15.951z"/><path data-name="Rectangle 561" fill="#55769f" d="M63.005 92.225l60.495-15.92.208.788-60.496 15.92z"/><path data-name="Rectangle 562" fill="#55769f" d="M67.394 108.9l60.49-15.952.209.789-60.491 15.951z"/><path data-name="Rectangle 563" fill="#55769f" d="M68.428 112.831l60.495-15.92.208.788-60.496 15.92z"/><path data-name="Rectangle 564" fill="#55769f" d="M69.463 116.763l60.495-15.92.208.788-60.496 15.92z"/><path data-name="Rectangle 565" fill="#55769f" d="M70.497 120.694l60.49-15.952.209.789-60.491 15.951z"/><path data-name="Rectangle 566" fill="#55769f" d="M71.532 124.625l60.49-15.952.209.789-60.491 15.951z"/><path data-name="Rectangle 567" fill="#55769f" d="M72.567 128.557l60.49-15.952.209.789-60.491 15.951z"/><path data-name="Rectangle 568" fill="#55769f" d="M73.601 132.488l60.495-15.92.208.788-60.496 15.92z"/></g><path data-name="Path 7489" d="M133.266 162.235l-84.172 33.8L-.002 73.797l70.731-43.632a7.53 7.53 0 0 1 10.941 3.6z" fill="#feb546"/></g><g data-name="Group 567"><path data-name="Path 7490" d="M21.93 176.257l-12.008-.218c-4.169-7.555-7.228-14.125-7.228-14.125 13.562-3.126 25.007-1.843 34.543 1.823l5.255 12.765 1.125-9.828c23.633 12.755 33.37 39.748 33.37 39.748s-41.765-4.449-50.62-8.566c-3.419-1.59-7.727-7.311-11.727-13.735 3.201-3.047 7.29-7.864 7.29-7.864z" fill="#ff5b7e"/><path data-name="Path 7491" d="M2.695 161.916s53.622 22.565 74.292 44.509c0 0-41.765-4.449-50.62-8.566-3.419-1.59-7.727-7.311-11.727-13.735 3.2-3.047 7.29-7.864 7.29-7.864l-12.008-.218c-4.168-7.558-7.227-14.126-7.227-14.126z" fill="#e03268"/><path data-name="Path 7492" d="M4.406 197.984a55.046 55.046 0 0 1 21.554-7.688c2.066 2.569 4.6 5.59 4.6 5.59l.268-6.022c27.046-1.232 49.458 16.89 49.458 16.89-15.665 9.873-29.028 12.6-39.973 11.714-.648-2.107-1.566-5.25-1.566-5.25l-1.934 4.838a47.211 47.211 0 0 1-13.876-4.457c1.024-2.51 2.1-5.379 2.1-5.379l-5.829 3.311a51.106 51.106 0 0 1-14.802-13.547z" fill="#ff5b7e"/><path data-name="Path 7493" d="M40.314 218.462c-.648-2.107-1.566-5.25-1.566-5.25l-1.934 4.838a47.2 47.2 0 0 1-13.876-4.458c1.024-2.51 2.1-5.378 2.1-5.378l-5.829 3.311a51.109 51.109 0 0 1-14.8-13.547c31.513-3.641 75.881 8.77 75.881 8.77-15.668 9.874-29.034 12.596-39.976 11.714z" fill="#e03268"/></g><path data-name="Path 7494" d="M162.22 35.509l9.68-7.109c-.958-8.576-2.251-15.706-2.251-15.706-12.879 5.275-21.484 12.93-27.155 21.427l3.077 13.457-6.592-7.377c-11.937 24.055-4.305 51.721-4.305 51.721s31.538-27.74 36.391-36.214c1.874-3.272 2.09-10.43 1.648-17.985-4.374-.639-10.493-2.214-10.493-2.214z" fill="#00486e"/><path data-name="Path 7495" d="M169.648 12.696s-30.762 49.378-34.975 79.228c0 0 31.538-27.74 36.391-36.214 1.874-3.272 2.09-10.43 1.648-17.985-4.373-.641-10.492-2.214-10.492-2.214l9.68-7.109c-.958-8.576-2.252-15.706-2.252-15.706z" fill="#297ba7"/><path data-name="Path 7496" d="M189.069 43.135a55.053 55.053 0 0 0-22.038 6.166c-.2 3.29-.532 7.221-.532 7.221l-3.695-4.763c-22.8 14.606-30.637 42.34-30.637 42.34 18.491-.979 30.974-6.469 39.4-13.508-.687-2.095-1.751-5.191-1.751-5.191l4.372 2.835a47.216 47.216 0 0 0 8.758-11.65c-2.285-1.458-4.822-3.178-4.822-3.178l6.671-.661a51.107 51.107 0 0 0 4.274-19.611z" fill="#00486e"/><path data-name="Path 7497" d="M171.57 80.588c-.687-2.095-1.751-5.191-1.751-5.191l4.372 2.835a47.216 47.216 0 0 0 8.758-11.65c-2.285-1.458-4.822-3.178-4.822-3.178l6.671-.661a51.107 51.107 0 0 0 4.27-19.608c-27.834 15.217-56.9 50.961-56.9 50.961 18.49-.979 30.973-6.469 39.402-13.508z" fill="#297ba7"/><g data-name="Group 568"><path data-name="Path 7498" d="M266.447 78.31h5.756a6.018 6.018 0 0 0-3.4-1.029h-144.2c-7.544 0-13.66 5.422-13.66 12.109v7.691c0 6.687 6.116 12.109 13.66 12.109l142.586-.043z" fill="#e03268"/><path data-name="Path 7499" d="M123.039 97.081V89.39c0-6.687 6.116-12.109 13.66-12.109h-3.1c-7.544 0-13.66 5.422-13.66 12.109v7.691c0 6.687 6.116 12.109 13.66 12.109h3.056c-7.523-.02-13.616-5.437-13.616-12.109z" fill="#feb546"/><path data-name="Path 7500" d="M156.811 97.081V89.39c0-6.687 6.116-12.109 13.66-12.109h-3.1c-7.544 0-13.66 5.422-13.66 12.109v7.691c0 6.687 6.116 12.109 13.66 12.109h3.055c-7.526-.02-13.615-5.437-13.615-12.109z" fill="#feb546"/><path data-name="Path 7501" d="M184.582 77.306c-7.215 0-13.063 5.185-13.063 11.58v8.692c0 6.4 5.849 11.58 13.063 11.58h89.767v-1.944h-.371l-22.821-1.916-4.613-16.04s8.9-8.864 9.483-9.093 17.95-.922 17.95-.922h.371v-1.937z" fill="#ff5b7e"/><path data-name="Path 7502" d="M268.528 93.179c0-9.378 5.467-13.925 5.467-13.925h-87.574c-6.627 0-12 4.762-12 10.636v6.691c0 5.874 5.372 10.636 12 10.636h87.574s-5.467-2.23-5.467-14.038z" fill="#daeef7"/><path data-name="Path 7503" d="M174.422 89.891v6.691a9.51 9.51 0 0 0 .35 2.551c2.954-6.406 8.614-12.576 19.39-14.56 25.16-4.632 79.833-5.318 79.833-5.318h-87.574c-6.627-.001-11.999 4.761-11.999 10.636z" fill="#daeef7" style="mix-blend-mode:multiply;isolation:isolate"/></g><g data-name="Group 569"><path data-name="Path 7504" d="M264.073 142.089h6.515a6.36 6.36 0 0 0-3.85-1.289H103.533a15.311 15.311 0 0 0-15.461 15.157v9.627a15.311 15.311 0 0 0 15.461 15.157l161.38-.054z" fill="#284c7a"/><path data-name="Path 7505" d="M171.417 140.837a14.642 14.642 0 0 0-14.785 14.495v10.88a14.642 14.642 0 0 0 14.785 14.495h101.6v-2.434h-.42l-25.829-2.4-5.22-20.078s10.076-11.095 10.733-11.381 20.316-1.154 20.316-1.154h.42v-2.42z" fill="#55769f"/><path data-name="Path 7506" d="M266.428 160.7c0-11.739 6.188-17.43 6.188-17.43h-99.117a13.449 13.449 0 0 0-13.58 13.314v8.375a13.449 13.449 0 0 0 13.58 13.314h99.117s-6.188-2.792-6.188-17.573z" fill="#daeef7"/><path data-name="Path 7507" d="M159.918 156.584v8.375a13.093 13.093 0 0 0 .4 3.193c3.343-8.019 9.75-15.741 21.946-18.225 28.476-5.8 90.355-6.657 90.355-6.657h-99.117a13.449 13.449 0 0 0-13.584 13.314z" fill="#daeef7" style="mix-blend-mode:multiply;isolation:isolate"/></g><g data-name="Group 570"><path data-name="Path 7508" d="M82.692 110.131h-6.517a7.5 7.5 0 0 1 3.851-1.022h163.269c8.542 0 15.467 5.385 15.467 12.026v7.636c0 6.642-6.925 12.026-15.467 12.026l-161.443-.042z" fill="#02ccc0"/><path data-name="Path 7509" d="M175.384 109.138c8.169 0 14.791 5.149 14.791 11.5v8.633c0 6.352-6.622 11.5-14.791 11.5H73.745v-1.931h.42l25.839-1.9 5.223-15.931s-10.08-8.8-10.737-9.03-20.324-.916-20.324-.916h-.42v-1.921z" fill="#06bfad"/><path data-name="Path 7510" d="M80.338 124.898a17.554 17.554 0 0 0-6.191-13.83h99.156c7.5 0 13.586 4.73 13.586 10.564v6.645c0 5.834-6.083 10.564-13.586 10.564H74.147s6.191-2.215 6.191-13.943z" fill="#daeef7"/><path data-name="Path 7511" d="M186.887 121.632v6.645a8.367 8.367 0 0 1-.4 2.534c-3.344-6.363-9.754-12.491-21.955-14.461-28.487-4.6-90.391-5.282-90.391-5.282h99.156c7.509 0 13.59 4.73 13.59 10.564z" fill="#daeef7" style="mix-blend-mode:multiply;isolation:isolate"/><path data-name="Path 7512" d="M228.853 128.771v-7.639c0-6.642-6.924-12.026-15.467-12.026h15.5c8.542 0 15.467 5.385 15.467 12.026v7.639c0 6.642-6.925 12.027-15.467 12.027h-15.3c8.452-.086 15.267-5.435 15.267-12.027z" fill="#55769f" opacity=".5"/></g><path data-name="Path 7513" d="M70.362 181.966h-7.026a7.875 7.875 0 0 1 4.152-1.142H243.5c9.208 0 16.674 6.016 16.674 13.437v8.535c0 7.421-7.465 13.437-16.674 13.437l-174.039-.048z" fill="#feb546"/><path data-name="Path 7514" d="M170.286 180.856c8.806 0 15.945 5.753 15.945 12.851v9.646c0 7.1-7.139 12.85-15.945 12.85H60.721v-2.155h.453l27.855-2.126 5.63-17.8s-10.866-9.836-11.575-10.09-21.91-1.023-21.91-1.023h-.453v-2.146z" fill="#f4a640"/><path data-name="Path 7515" d="M67.827 198.465c0-10.407-6.673-15.452-6.673-15.452H168.05c8.089 0 14.646 5.285 14.646 11.8v7.425c0 6.519-6.557 11.8-14.646 11.8H61.15s6.677-2.469 6.677-15.573z" fill="#daeef7"/><path data-name="Path 7516" d="M182.692 194.816v7.425a9.663 9.663 0 0 1-.427 2.831c-3.605-7.109-10.515-13.956-23.668-16.157-30.709-5.14-97.443-5.9-97.443-5.9H168.05c8.084-.005 14.642 5.283 14.642 11.801z" fill="#daeef7" style="mix-blend-mode:multiply;isolation:isolate"/><path data-name="Rectangle 569" d="M18.687 215.99h296.111a1.954 1.954 0 0 1 1.954 1.954 1.954 1.954 0 0 1-1.954 1.954H18.687a1.954 1.954 0 0 1-1.954-1.954 1.954 1.954 0 0 1 1.954-1.954z" fill="#c4dfe8"/><path data-name="Path 7517" d="M14.913 87.293l57.309-32.778 7.746 15.343L21.33 100.88z" fill="#f4a640"/><g data-name="Group 588"><g data-name="Group 586"><path data-name="Path 7547" d="M284.096 134.269l10.418.836-3.362 8.427-5.259-.422-2.19 7.025c-.533-.244-.927-.429-1.005-.481a64.391 64.391 0 0 1-1.251-6.884z" fill="#daeef7" style="mix-blend-mode:multiply;isolation:isolate"/><path data-name="Path 7548" d="M290.043 211.767v3.673a.548.548 0 0 0 .548.549h8.574a.623.623 0 0 0 .333-1.147l-4.81-3.075a4.547 4.547 0 0 1-4.645 0z" fill="#e03268"/><path data-name="Path 7549" d="M273.212 56.101a.169.169 0 0 1-.228-.191c.215-1.02.87-4.233.623-4.347-.294-.135-.95 2.722-1.248 2.756s.412-2.736.074-2.83-.9 2.454-1.056 2.464.122-2.489-.043-2.663-.787 2.457-.972 2.523-.361-1.893-.531-1.9-.282-.036-1.152 4.486a6.269 6.269 0 0 1-.345 2.046l.653 1.332 2.023.067s4.395-3.976 4.358-4.218-.227-.28-2.156.475z" fill="#ffc0bb"/><path data-name="Path 7550" d="M294.031 57.103a.169.169 0 0 0 .29-.066c.274-1.006 1.155-4.164 1.427-4.153.323.014-.4 2.855-.146 3.022s.881-2.623 1.224-2.553-.318 2.594-.184 2.674 1.026-2.271 1.252-2.35-.42 2.545-.284 2.689 1.184-1.52 1.337-1.447.268.1-1.02 4.518a6.274 6.274 0 0 0-.626 1.978l-1.187.888-1.831-.862s-2.1-5.542-1.957-5.741.332-.149 1.705 1.403z" fill="#ffc0bb"/><path data-name="Path 7551" d="M277.957 93.313l.032 7.731-7.51-1.158 1.253-8.693z" fill="#ffc0bb"/><path data-name="Path 7552" d="M271.154 95.196l.577-4 6.232 2.853v1.526a11.331 11.331 0 0 1-6.809-.379z" fill="#fc8d84" opacity=".6"/><path data-name="Path 7553" d="M264.387 211.358v4.028a.6.6 0 0 1-.6.6h-9.431a.682.682 0 0 1-.367-1.258l5.291-3.372a5.015 5.015 0 0 0 5.107.002z" fill="#e03268"/><g data-name="Group 575"><g data-name="Group 574"><g data-name="Group 573"><path data-name="Path 7554" d="M255.773 142.929c.019-.862-2.224 1.678-2.182.991.88-14.3 28.826-2.311 28.826-2.311l6.821 5.006 7.7 66.289s-4.181 1.21-6.931.22l-17.054-56.8-2.1-.807s-9.322-6.516-15.08-12.588z" fill="#07085b"/></g></g></g><g data-name="Group 585"><g data-name="Group 584"><g data-name="Group 576"><path data-name="Path 7555" d="M253.556 144.501a62.96 62.96 0 0 0-.023.514c.011-.178.023-.349.023-.514z" fill="#06bfad"/></g><g data-name="Group 578"><path data-name="Path 7557" d="M253.515 145.646c-.006.2-.011.394-.015.6l.015-.6z" fill="#06bfad"/></g><g data-name="Group 580"><path data-name="Path 7559" d="M253.59 140.666c5.758 6.077 17.263 14.843 17.263 14.843l2.1.807-2.1-.807-6.484 57.391s-4.621.88-7.261-.55c.003 0-3.89-54.63-3.518-71.684z" fill="#07085b"/></g><g data-name="Group 581"><path data-name="Path 7560" d="M296.94 212.9a17.994 17.994 0 0 1-3.816.6 17.994 17.994 0 0 0 3.816-.6z" fill="#06bfad"/></g><g data-name="Group 583"><path data-name="Path 7562" d="M293.125 213.499a11.207 11.207 0 0 1-1.455-.032 11.207 11.207 0 0 0 1.455.032z" fill="#06bfad"/></g></g></g><path data-name="Path 7563" d="M289.239 146.611l1.1 9.461c-2.908 1.126-10 2.329-15.339-9.355-1.684-3.685-2.117-6.337-1.807-8.242a75.865 75.865 0 0 1 9.226 3.13z" fill="#050645"/><path data-name="Path 7564" d="M263.598 107.995c.323 0 5.163-10.971 5.163-10.971 4.141 2.9 9.761.887 9.761.887s22.614 41.383 7.448 47.836-29.471-1.4-29.471-1.4-3.227-8.389-3.227-8.712 10.003-27.64 10.326-27.64z" fill="#daeef7"/><path data-name="Path 7565" d="M293.068 61.529s.98 19.634-.86 23.232c-6.1 11.939-13.687 13.149-13.687 13.149s-2.608 41.759-.457 51.762c0 0 7.153 2.205 17.693-2.743 0 0-8.067-32.375-7.637-36.462 0 0 12.907-11.509 13.337-25.061a91.506 91.506 0 0 0-3.119-25.6z" fill="#55769f"/><path data-name="Path 7566" d="M258.274 148.168a190.642 190.642 0 0 1 4.356-30.278c3.549-14.735 6.131-20.866 6.131-20.866-4.759-5.244-3.969-9.983-3.549-16.134.484-7.1 7.422-21.3 7.422-21.3l-4.679-3.065c-22.426 26.943-10 48.4-10 48.4s-8.39 29.686-9.519 38.721a68.344 68.344 0 0 0 9.838 4.522z" fill="#55769f"/><path data-name="Path 7567" d="M287.903 110.425a4.967 4.967 0 0 1-.9-.857 9.1 9.1 0 0 1-1.785-3.885 11.3 11.3 0 0 0 1.92 3.771 4.575 4.575 0 0 0 1.048.958l-.064.058c0 .027 0 .055-.007.085a2.453 2.453 0 0 1-1.7-.4 7.745 7.745 0 0 1-1.434-1.029 10.371 10.371 0 0 0 1.487.926 3.212 3.212 0 0 0 1.435.373z" fill="#fff"/><path data-name="Path 7568" d="M258.123 104.831a4.963 4.963 0 0 0 1.024-.943 10.977 10.977 0 0 0 1.92-3.771 9.109 9.109 0 0 1-1.785 3.884 4.979 4.979 0 0 1-.9.857 2.022 2.022 0 0 0 .631-.073 4.124 4.124 0 0 0 .81-.3 10.126 10.126 0 0 0 1.487-.926 7.838 7.838 0 0 1-1.434 1.029 4.219 4.219 0 0 1-.824.345 1.743 1.743 0 0 1-.919.047l-.172-.046z" fill="#fff"/><path data-name="Path 7569" d="M267.183 77.538l-.454 5.306.838.527 1.55-6.461z" fill="#07085b"/><path data-name="Path 7570" d="M268.31 82.295a1.817 1.817 0 1 1-2.158-1.842 2.032 2.032 0 0 1 2.158 1.842z" fill="#f99893"/><path data-name="Path 7571" d="M266.938 87.2a17.51 17.51 0 0 1-.074-4.457c.029-.29.042-.58.049-.871a9.466 9.466 0 1 1 18.746 2.083 2.046 2.046 0 0 1 1.835.221 2.854 2.854 0 0 1-3.225 4.54 1.812 1.812 0 0 1-.363-.346 8.876 8.876 0 0 1-10.249 6.247 8.714 8.714 0 0 1-6.719-7.417z" fill="#ffc0bb"/><path data-name="Path 7572" d="M277.201 82.957a.827.827 0 1 0 .751-.515.828.828 0 0 0-.751.515z" fill="#333"/><path data-name="Path 7573" d="M270.169 81.904a.827.827 0 1 0 .752-.516.828.828 0 0 0-.752.516z" fill="#333"/><path data-name="Path 7574" d="M276.107 88.737a5.421 5.421 0 0 1-1.328.456 4.19 4.19 0 0 1-1.383.053 3.572 3.572 0 0 1-1.3-.453 4.989 4.989 0 0 1-1.08-.893 3.822 3.822 0 0 0 1.013 1 3.259 3.259 0 0 0 1.345.509 3.743 3.743 0 0 0 1.433-.093 4.106 4.106 0 0 0 1.3-.579z" fill="#f99893"/><path data-name="Path 7575" d="M276.534 81.28a7.727 7.727 0 0 1 1.235-.132 4.079 4.079 0 0 1 1.148.136 3.779 3.779 0 0 1 1.055.458 11.946 11.946 0 0 1 1.012.726 2.735 2.735 0 0 0-.725-1.1 2.686 2.686 0 0 0-1.189-.664 2.812 2.812 0 0 0-1.361-.023 2.606 2.606 0 0 0-1.175.599z" fill="#07085b"/><path data-name="Path 7576" d="M273.246 80.739a2.607 2.607 0 0 0-.922-.943 2.812 2.812 0 0 0-1.3-.414 2.689 2.689 0 0 0-1.34.247 2.752 2.752 0 0 0-1.039.81 11.567 11.567 0 0 1 1.191-.364 3.779 3.779 0 0 1 1.147-.1 4.074 4.074 0 0 1 1.131.239 7.718 7.718 0 0 1 1.132.525z" fill="#07085b"/><path data-name="Path 7577" d="M274.681 81.781a11.873 11.873 0 0 0-1.077 1.168 11.219 11.219 0 0 0-.926 1.3 3.1 3.1 0 0 0-.406.957c-.027.173-.013.342.276.627a3.814 3.814 0 0 0 .624.517 5.183 5.183 0 0 0 .692.4 8.68 8.68 0 0 1-1.124-1.08 1.532 1.532 0 0 1-.182-.283.61.61 0 0 1 .056-.295 4.289 4.289 0 0 1 .343-.675c.262-.446.559-.878.849-1.314s.59-.874.875-1.322z" fill="#f99893"/><path data-name="Path 7578" d="M268.17 71.872s-2.787-.537.646-2.219 11.849-2.663 16.249 1.106c0 0 1.48-1.9 2.809-1.064s-1.385 1.756-1.385 1.756 1.858.358 2.216 1.39c.265.763-.871.537-1.482.367 1.01.416 3.979 3.22.123 10.88-.683-.32-5.1-6.615-5.1-6.615s-8.871 2.915-7.254.5c0 0-10.339 2.6-7.833-2.086.005-.002-3.806-.576 1.011-4.015z" fill="#07085b"/><path data-name="Path 7579" d="M287.347 84.088a1.818 1.818 0 0 0-1.692-.133c-1.023.379-1.673 2.674-1.673 2.674s-3.348 2.742-1.715-9.207c1.6-11.739 3.825 1.954 3.825 1.954z" fill="#07085b"/></g><g data-name="Group 587"><path data-name="Path 7580" d="M264.417 46.986l-1.448-.142a1.522 1.522 0 0 1 .881-.175l36.275 3.567a3.275 3.275 0 0 1 3.137 3.384l-.19 1.935a3.275 3.275 0 0 1-3.736 2.708l-35.868-3.538z" fill="#e03268"/><path data-name="Path 7581" d="M300.029 55.256l.19-1.935a3.275 3.275 0 0 0-3.137-3.384l.779.077a3.275 3.275 0 0 1 3.137 3.384l-.19 1.935a3.275 3.275 0 0 1-3.736 2.708l-.769-.076a3.273 3.273 0 0 0 3.726-2.709z" fill="#feb546"/><path data-name="Path 7582" d="M291.534 54.421l.19-1.935a3.275 3.275 0 0 0-3.137-3.384l.779.077a3.274 3.274 0 0 1 3.136 3.384l-.19 1.935a3.275 3.275 0 0 1-3.736 2.708l-.769-.076a3.273 3.273 0 0 0 3.727-2.709z" fill="#feb546"/><path data-name="Path 7583" d="M285.036 48.76a3.132 3.132 0 0 1 3 3.236l-.215 2.186a3.132 3.132 0 0 1-3.573 2.59l-22.582-2.22.048-.489.093.009 5.788.082 1.557-3.921s-2.02-2.45-2.161-2.522-4.493-.676-4.493-.676l-.093-.01.048-.486z" fill="#ff5b7e"/><path data-name="Path 7584" d="M263.526 50.675a4.683 4.683 0 0 0-1.031-3.638l22.03 2.166a2.876 2.876 0 0 1 2.755 2.972l-.165 1.683a2.877 2.877 0 0 1-3.282 2.379l-22.03-2.166s1.431-.425 1.723-3.396z" fill="#daeef7"/><path data-name="Path 7585" d="M287.281 52.176l-.165 1.683a2.41 2.41 0 0 1-.151.633 6.342 6.342 0 0 0-4.518-4.142c-6.215-1.788-19.951-3.313-19.951-3.313l22.03 2.166a2.876 2.876 0 0 1 2.755 2.973z" fill="#daeef7" style="mix-blend-mode:multiply;isolation:isolate"/></g></g><g data-name="Group 591"><path data-name="Path 7586" d="M220.425 102.687l-1.5 3.337a.547.547 0 0 0 .275.723l7.813 3.5a.62.62 0 0 0 .771-.906l-3.024-4.711a4.813 4.813 0 0 1-4.335-1.943z" fill="#55769f"/><path data-name="Path 7587" d="M210.497 102.687l-1.5 3.337a.547.547 0 0 0 .275.723l7.813 3.5a.619.619 0 0 0 .771-.906l-3.024-4.711a4.814 4.814 0 0 1-4.335-1.943z" fill="#55769f"/><path data-name="Path 7588" d="M193.621 10.69l-.831 5.211-1.755-6.947s2.46-1.194 2.569-.76a19.355 19.355 0 0 1 .017 2.496z" fill="#07085b"/><path data-name="Path 7589" d="M179.657 21.906l-.76 9.008 7.949-.38-.917-7.977z" fill="#ffc0bb"/><path data-name="Path 7590" d="M186.365 26.351l-.436-3.794-6.273-.651-.263 3.12c1.247 1.247 3.49 2.531 6.972 1.325z" fill="#f99893"/><g data-name="Group 589"><path data-name="Path 7591" d="M191.239 15.837a1.63 1.63 0 1 0 2.3-1.1 1.823 1.823 0 0 0-2.3 1.1z" fill="#f99893"/><path data-name="Path 7592" d="M192.393 16.56c.042-.258.1-.512.16-.766a8.494 8.494 0 1 0-16.734-2.532 1.834 1.834 0 0 0-1.642-.233 2.561 2.561 0 0 0 1.745 4.683 1.626 1.626 0 0 0 .395-.216 7.965 7.965 0 0 0 7.44 7.788 7.621 7.621 0 0 0 5.3-1.822c1.956-1.442 2.948-4.5 3.336-6.902z" fill="#ffc0bb"/><path data-name="Path 7593" d="M186.2 13.837c.016.486.02.961.045 1.427a3.168 3.168 0 0 0 .262 1.262 1.206 1.206 0 0 1 .337.744 1 1 0 0 1-.371.786 1.638 1.638 0 0 1-1.462.285 2.022 2.022 0 0 0 1.2-.557.644.644 0 0 0 .176-.488c-.02-.178-.075-.215-.29-.513a1.891 1.891 0 0 1-.23-.777 3.954 3.954 0 0 1 0-.749 5.072 5.072 0 0 1 .333-1.42z" fill="#f99893"/><path data-name="Path 7594" d="M183.379 14.361a.742.742 0 1 1-.586-.642.742.742 0 0 1 .586.642z" fill="#333"/><path data-name="Path 7595" d="M189.72 15.078a.742.742 0 1 1-.585-.644.742.742 0 0 1 .585.644z" fill="#333"/><path data-name="Path 7596" d="M182.139 19.5a5.4 5.4 0 0 0 .613.465 5.3 5.3 0 0 0 .66.382 4.6 4.6 0 0 0 1.439.442 3.919 3.919 0 0 0 1.494-.11 5.512 5.512 0 0 0 1.39-.631 4.12 4.12 0 0 1-1.346.774 3.538 3.538 0 0 1-1.561.16 4.056 4.056 0 0 1-1.484-.5 4.44 4.44 0 0 1-1.205-.982z" fill="#f99893"/><path data-name="Path 7597" d="M184.313 12.805a7.568 7.568 0 0 0-1.084-.26 3.755 3.755 0 0 0-1.03-.023 3.478 3.478 0 0 0-.99.263c-.247.077-.846.429-1 .5a2.493 2.493 0 0 1 1.927-1.34 2.5 2.5 0 0 1 1.219.162 2.278 2.278 0 0 1 .958.698z" fill="#07085b"/><path data-name="Path 7598" d="M187.58 13.173a2.279 2.279 0 0 1 1.079-.5 2.5 2.5 0 0 1 1.227.078 2.494 2.494 0 0 1 1.63 1.689c-.142-.1-.66-.56-.886-.682a3.481 3.481 0 0 0-.921-.45 3.774 3.774 0 0 0-1.015-.178 7.593 7.593 0 0 0-1.114.043z" fill="#07085b"/></g><path data-name="Path 7599" d="M184.034 64.163s-1.658 11.245 9.208 13.2 24.385 1.375 24.385 1.375l1.881 25.832 5.672.289s14.606-35.891-5.611-41.5l-18.168.089-7.481-.534s-7.57-1.87-7.659-1.514-2.049 2.944-2.227 2.763z" fill="#070852"/><path data-name="Path 7600" d="M174.048 64.222s-1.658 11.245 9.208 13.2 24.384 1.375 24.384 1.375l1.881 25.832 5.672.29s14.606-35.891-5.611-41.5l-18.168.089-7.481-.534s-7.57-1.87-7.659-1.514-2.048 2.94-2.226 2.762z" fill="#10116b"/><path data-name="Path 7601" d="M187.733 27.322s7.481.95 9.381 2.494 11.043 24.224 11.043 24.224l-7.6 8.906-16.15.119s-12.112 6.531-19.712.356-3.681-27.668.712-32.3 12.231-4.512 12.231-4.512 7.127 4.987 10.095.713z" fill="#ff5b7e"/><path data-name="Path 7602" d="M173.246 38.603a31.348 31.348 0 0 1 .548 3.75c.065.629.092 1.261.129 1.893.019.632.034 1.265.025 1.9a25 25 0 0 1-.312 3.79 12.463 12.463 0 0 1-1.1 3.63 18.64 18.64 0 0 0 .724-3.682c.138-1.242.185-2.494.2-3.745s0-2.506-.044-3.762-.103-2.513-.17-3.774z" fill="#fff"/><path data-name="Path 7603" d="M195.63 37.772c.342 1.839.7 3.672 1.072 5.5s.764 3.652 1.207 5.462.924 3.61 1.511 5.374a26.331 26.331 0 0 0 1.009 2.6 10 10 0 0 0 1.435 2.381 9.1 9.1 0 0 1-1.65-2.275 21.419 21.419 0 0 1-1.153-2.573c-.336-.878-.625-1.772-.9-2.67s-.5-1.807-.73-2.717-.42-1.827-.6-2.745-.354-1.839-.5-2.764a68.462 68.462 0 0 1-.701-5.573z" fill="#fff"/><g data-name="Group 590"><path data-name="Path 7604" d="M211.829 41.874c-1.382-2.15-12.7-5.8-12.7-5.8v3.64l11.523 4.028z" fill="#ededed"/><path data-name="Path 7605" d="M211.015 41.728l-13.146-6.062v2.353l12.819 4.626z" fill="#fff"/><path data-name="Path 7606" d="M210.285 41.727l-13.876-5.25v4.057l13.737 2.11z" fill="#ededed"/><path data-name="Path 7607" d="M211.832 41.313s2.675-6.256 3.771-7.554a36.868 36.868 0 0 1-1.664 9.291z" fill="#fff"/><path data-name="Path 7608" d="M213.002 41.59l3.243-8.2v3.9l-2.228 5.346z" fill="#ededed"/><path data-name="Path 7609" d="M214.012 41.728l3.535-7.969v2.84z" fill="#fff"/><path data-name="Path 7610" d="M214.012 66.279l4.457-7.676V34.051l-4.457 7.676z" fill="#26426e"/><path data-name="Path 7611" d="M193.478 62.573l15.781 3.709V41.728l-15.781-3.709z" fill="#55769f"/><path data-name="Path 7612" d="M209.259 41.728c1.391-.665 4.3-.43 4.753 0-.238 1.404-4.399 1.679-4.753 0z" fill="#e0e0e0"/><path data-name="Path 7613" d="M209.259 66.282c0 .6 4.775.6 4.775 0V41.728c-.483.714-4.236.694-4.775 0z" fill="#3a5782"/></g><path data-name="Path 7614" d="M199.39 57.813c-.047-.376-2.9-.8-3.951-.85-.795-.041-6.064-.217-7.856-.3l.132.461-.027 2.035-.294 1.349c1.572.1 5.416.25 6.216.408a19.646 19.646 0 0 1 2.924 1.018s.771-.175-.209-.6a4.705 4.705 0 0 1-1.573-1.127c-.134-.15.012-.418.109-.393 2.669.7 2.943.815 2.943.815s3.136-.018.018-.722c-1.869-.422-2.539-.668-2.706-.878-.071-.089.056-.393.17-.4 1.62-.1 4.527.474 3.73.1a20.554 20.554 0 0 0-3.489-.77c-.049-.008-.128-.3.089-.322 1.543-.129 3.818.526 3.774.176z" fill="#ffc0bb"/><path data-name="Path 7615" d="M171.421 53.253c.657.16 1.3.343 1.964.481.655.156 1.319.27 1.977.408q1.986.362 3.984.639c1.333.175 2.669.336 4.007.465s2.69.246 4.01.32l.177.01.039.154a10.928 10.928 0 0 1 .244 1.332 10.694 10.694 0 0 1 .079 1.345 8.658 8.658 0 0 1-.117 1.346 6.2 6.2 0 0 1-.391 1.3l-.015.036-.029.019-1.467.984q-.733.492-1.474.973c.46-.369.924-.731 1.39-1.09l1.4-1.079-.044.055a5.93 5.93 0 0 0 .307-1.248 8.591 8.591 0 0 0 .063-1.292 12.12 12.12 0 0 0-.118-1.293 10.6 10.6 0 0 0-.26-1.265l.217.164c-.7-.018-1.358-.063-2.037-.113s-1.348-.1-2.021-.174c-1.345-.139-2.687-.306-4.023-.52s-2.664-.476-3.98-.787c-.656-.167-1.312-.329-1.957-.533-.652-.183-1.289-.411-1.925-.637z" fill="#fff"/><path data-name="Path 7616" d="M193.782 5.76s2.494.08-.123-2.029-9.644-4.582-14.148-2.2c0 0-.9-1.915-2.2-1.458s.847 1.775.847 1.775-1.663-.054-2.17.762c-.375.6.643.629 1.2.6-.947.161-4.575 2.453-2.754 9.769.647-.142 4.336-5.491 4.336-5.491s8.435 4.686 7.6.96c0 0 8.739 5.454 7.5.949-.005-.001 3.374.243-.088-3.637z" fill="#07085b"/><path data-name="Path 7617" d="M174.417 13.022a1.6 1.6 0 0 1 1.45.351c.751.6.668 2.691.668 2.691s3.586 2.312 3.208-7.472c-.4-10.409-2.991.835-2.991.835z" fill="#07085b"/></g><g data-name="Group 595"><path data-name="Path 7618" d="M101.722 208.172l1.5 3.337a.547.547 0 0 1-.275.723l-7.813 3.5a.62.62 0 0 1-.771-.906l3.024-4.711a4.814 4.814 0 0 0 4.335-1.943z" fill="#07085b"/><path data-name="Path 7619" d="M111.847 207.774l1.5 3.337a.547.547 0 0 1-.275.723l-7.813 3.5a.619.619 0 0 1-.771-.906l3.024-4.711a4.814 4.814 0 0 0 4.335-1.943z" fill="#07085b"/><path data-name="Path 7620" d="M120.979 99.72s-8.515-1.436-11.372 8.077l3.526 5.279s7.4-2.841 7.425-3.12.421-10.236.421-10.236z" fill="#3a3838"/><path data-name="Path 7621" d="M134.684 104.005s2.484 3.735 3.75 5.216c3.187 3.726 3.6 2.557 5.578 5.761 2.138 3.459-.025 5.625-1.254 6.621s.828 4.684-1.463 6.751c-3 2.706-5.773.154-7.836 1.67s-2.514 3.763-7.4 3.338-4.842-16.414-4.842-16.414 4-8.477 4.161-8.547 9.306-4.396 9.306-4.396z" fill="#3a3838"/><path data-name="Path 7622" d="M109.607 107.797a14.355 14.355 0 0 1-1.263 4.624c-2.441 4.252-3.756 2.859-5.108 6.376-1.46 3.8 1.068 5.523 2.461 6.274s.055 4.757 2.69 6.363c3.449 2.1 5.7-.919 8.01.188s3.168 3.231 7.895 1.907 1.715-17.027 1.715-17.027-5.505-7.588-5.674-7.627-10.726-1.078-10.726-1.078z" fill="#3a3838"/><path data-name="Path 7623" d="M121.962 126.732s8.161-1.5 11.915-1.375-2.274 9.885-2.274 9.885l-6.13.136s-3.758-4.2-3.51-4.685a18.128 18.128 0 0 0-.012-3.69z" fill="#ffc0bb"/><g data-name="Group 593"><path data-name="Path 7624" d="M129.239 118.943l2.153 6.534s-1.875 3.875-7.614 2.2c0 0 .655-1.353-.223-4.14-.898-2.844 5.684-4.594 5.684-4.594z" fill="#ffc0bb"/><path data-name="Path 7625" d="M129.239 118.943l1.01 3.052c-.6 2.231-2.555 3.75-6.239 4.222a8.856 8.856 0 0 0-.456-2.676c-.897-2.848 5.685-4.598 5.685-4.598z" fill="#fc8d84" opacity=".6"/><g data-name="Group 592"><path data-name="Path 7626" d="M116.108 114.159a1.721 1.721 0 1 1-2.381-1.247 1.924 1.924 0 0 1 2.381 1.247z" fill="#f99893"/><path data-name="Path 7627" d="M115.87 118.977a16.58 16.58 0 0 1-1.007-4.1 11.24 11.24 0 0 0-.138-.814 8.964 8.964 0 1 1 17.746-2.023 1.937 1.937 0 0 1 1.741-.182 2.7 2.7 0 0 1-2.022 4.871 1.716 1.716 0 0 1-.408-.243 8.406 8.406 0 0 1-8.148 7.925 8.248 8.248 0 0 1-7.764-5.434z" fill="#ffc0bb"/><path data-name="Path 7628" d="M121.496 112.246a5.483 5.483 0 0 1 .287 1.511 4.248 4.248 0 0 1-.027.788 1.991 1.991 0 0 1-.271.8c-.2.252-.3.335-.328.537a.689.689 0 0 0 .171.53 2.119 2.119 0 0 0 1.246.627 1.736 1.736 0 0 1-1.523-.364 1.047 1.047 0 0 1-.355-.835 1.277 1.277 0 0 1 .382-.765 1.9 1.9 0 0 0 .222-.612 6.429 6.429 0 0 0 .1-.716c.049-.488.068-.989.096-1.501z" fill="#f99893"/><path data-name="Path 7629" d="M124.454 112.909a.783.783 0 1 0 .641-.656.783.783 0 0 0-.641.656z" fill="#333"/><path data-name="Path 7630" d="M117.739 113.418a.783.783 0 1 0 .641-.656.783.783 0 0 0-.641.656z" fill="#333"/><path data-name="Path 7631" d="M124.583 118.983a2.63 2.63 0 0 0-2.172.289 1.936 1.936 0 0 0-2.036-.032 2.163 2.163 0 0 0 2.287 1.581 1.932 1.932 0 0 0 1.921-1.838z" fill="#f99893" opacity=".3" style="mix-blend-mode:multiply;isolation:isolate"/><path data-name="Path 7632" d="M125.563 118.375a5.667 5.667 0 0 1-.664.467 5.589 5.589 0 0 1-.711.378 4.848 4.848 0 0 1-1.535.41 4.126 4.126 0 0 1-1.571-.174 5.812 5.812 0 0 1-1.441-.719 4.94 4.94 0 0 0 .65.5 4.538 4.538 0 0 0 .739.37 3.868 3.868 0 0 0 .806.207 4.1 4.1 0 0 0 .835.022 4.286 4.286 0 0 0 1.585-.473 4.679 4.679 0 0 0 1.307-.988z" fill="#f99893"/><path data-name="Path 7633" d="M123.529 111.231a8.056 8.056 0 0 1 1.153-.232 3.976 3.976 0 0 1 1.087.016 3.671 3.671 0 0 1 1.034.315c.257.09.876.486 1.037.564a2.632 2.632 0 0 0-1.98-1.488 2.639 2.639 0 0 0-1.291.124 2.407 2.407 0 0 0-1.04.701z" fill="#333"/><path data-name="Path 7634" d="M120.07 111.493a2.406 2.406 0 0 0-1.119-.57 2.641 2.641 0 0 0-1.3.034 2.63 2.63 0 0 0-1.784 1.718c.152-.1.718-.565.961-.685a3.672 3.672 0 0 1 .988-.439 3.966 3.966 0 0 1 1.077-.148 8.081 8.081 0 0 1 1.177.09z" fill="#333"/></g></g><path data-name="Path 7635" d="M136.158 166.654s2.407 11.327-8.514 14.016-24.7 2.963-24.7 2.963l-.255 26.384-5.749.658s-17.153-35.554 3.041-42.556l18.478-1.076 7.572-1.024s7.576-2.387 7.69-2.031 2.267 2.859 2.437 2.666z" fill="#ffc0bb"/><path data-name="Path 7636" d="M146.314 166.073s2.407 11.327-8.514 14.016-24.7 2.963-24.7 2.963l-.255 26.384-5.749.658s-17.154-35.554 3.041-42.556l18.478-1.075 7.572-1.024s7.577-2.387 7.69-2.031 2.267 2.857 2.437 2.665z" fill="#ffc0bb"/><path data-name="Path 7637" d="M107.048 164.737c-9.209.141-17.609 5.428-20.6 15.7s-9.8 20.863-9.155 20.76c14.444 8.086 18.985-.036 28.968 2.365s13.522 1.315 13.522 1.315c-2.889-14.494-6.69-21.823-6.69-21.823.839.15 25.339.512 31.391-6.2 1.7-1.882 3-4.247 2.738-10.03-.48-10.761-37.503-2.127-40.174-2.087z" fill="#07788f"/><path data-name="Path 7638" d="M109.788 183.809c.315-.057.63-.111.94-.184s.618-.156.922-.247c.152-.048.306-.1.456-.154a3.412 3.412 0 0 1-.462-.133 3.907 3.907 0 0 1-.844-.432 4.419 4.419 0 0 1-1.259-1.369l.313.34c.112.1.216.216.333.314a4.65 4.65 0 0 0 .727.539 4.359 4.359 0 0 0 .81.38 3.113 3.113 0 0 0 .859.173l.51.019-.453.21a5.983 5.983 0 0 1-.928.325 9.308 9.308 0 0 1-.95.2c-.319.052-.639.1-.961.12s-.643.039-.965.038c.324-.039.642-.082.952-.139z" fill="#daeef7"/><path data-name="Path 7639" d="M112.687 142.633s-.743 18.507-2.825 21.405l11.446-2.6v-20.142z" fill="#ffc0bb"/><path data-name="Path 7640" d="M117.311 145.164a40.255 40.255 0 0 1 2.134 7.132 29.345 29.345 0 0 1-1.334 13.976c-1.784 4.905 12.021 3.039 12.354 3.047 14.588.347 14.452-.249 14.452-.249l2.329-1.869c-.325-5.994-1.154-11.177-1.025-16.522l.133-5.515-.669-5.574-20.649-1.626z" fill="#07788f"/><g data-name="Group 594"><path data-name="Path 7641" d="M110.242 149.274c1.261-1.962 11.589-5.294 11.589-5.294v3.321l-10.513 3.676z" fill="#ededed"/><path data-name="Path 7642" d="M110.242 149.274c1.261-1.962 11.589-5.294 11.589-5.294v3.321l-10.513 3.676z" fill="#ededed"/><path data-name="Path 7643" d="M110.985 149.14l11.994-5.53v2.147l-11.7 4.22z" fill="#fff"/><path data-name="Path 7644" d="M111.651 149.14l12.66-4.79v3.7l-12.533 1.925z" fill="#ededed"/><path data-name="Path 7645" d="M110.242 148.762s-2.441-5.708-3.441-6.892a33.643 33.643 0 0 0 1.518 8.478z" fill="#fff"/><path data-name="Path 7646" d="M109.177 149.014l-2.959-7.478v3.563l2.033 4.878z" fill="#ededed"/><path data-name="Path 7647" d="M108.251 149.141l-3.225-7.27v2.591z" fill="#fff"/><path data-name="Path 7648" d="M108.25 171.543l-2.96-6.811v-22.4l2.96 6.811z" fill="#f5577a"/><path data-name="Path 7649" d="M126.986 168.159l-14.4 3.384v-22.4l14.4-3.384z" fill="#ff5b7e"/><path data-name="Path 7650" d="M112.587 149.141c-1.269-.607-3.925-.393-4.337 0 .217 1.281 4.014 1.532 4.337 0z" fill="#e0e0e0"/><path data-name="Path 7651" d="M112.588 171.546c0 .548-4.357.548-4.357 0v-22.4c.441.652 3.865.633 4.357 0z" fill="#de4b6c"/></g><path data-name="Path 7652" d="M150.68 140.398l-9.8 4.54s-.763 12.538-1.236 13.092c-.857 1-9.547 3.881-14.125 4.722a4.277 4.277 0 0 1-2.2-.173c-2.27-.8-6.288-2.245-6.922-2.46-.995-.337-3.8-1-3.985-.668-.17.308 2.186.54 3.573 1.229.2.1.013.343-.036.333a20.51 20.51 0 0 0-3.527-.572c-.879.056 2.034.6 3.5 1.286.1.049.109.377.01.434-.232.134-.945.115-2.839-.183-3.159-.5-.25.678-.25.678s.3-.006 3.036.329c.1.012.137.315-.044.405a4.7 4.7 0 0 1-1.878.467c-1.067.031-.415.479-.415.479a19.646 19.646 0 0 1 3.093.134c.8.148 4.43 1.427 5.928 1.915l.185-.23c2.077.483 21.223 1.883 23.548-3.8a67.621 67.621 0 0 0 4.384-21.957z" fill="#ffc0bb"/><path data-name="Path 7653" d="M121.961 126.732s5.548 6.476 11.914-1.375c0 0 6.956-.567 12.084 3.075s8.2 11.822 8.2 11.822-7.361 4.906-13.293 4.906l-13.914-4.983-9.641 4.983a24.329 24.329 0 0 1-8.267-2.23s.654-13.002 12.917-16.198z" fill="#07788f"/><path data-name="Path 7654" d="M139.174 137.784c.239.8.455 1.613.668 2.423.4 1.591.768 3.107 1.038 4.735a8.725 8.725 0 0 0 1.566-.122 30.4 30.4 0 0 0 6.823-2.2c3.573-1.628 3.091-1.47 4.891-2.359a46.955 46.955 0 0 1-4.742 2.682 26.024 26.024 0 0 1-6.9 2.36 6.794 6.794 0 0 1-2.048.078c-.181-1.194-.389-2.416-.96-5.093l-.531-2.451-.547-2.451c.268.787.507 1.59.742 2.398z" fill="#07085b"/><path data-name="Path 7655" d="M117.12 139.286a13.815 13.815 0 0 0-.235 2.971 20.121 20.121 0 0 0 .783 3.189l-.229.087a22.186 22.186 0 0 1-.934-3.246 10.713 10.713 0 0 1 .134-3.087 16.226 16.226 0 0 1 .838-2.958 15.641 15.641 0 0 1 1.348-2.746q-.545 1.427-.989 2.869a25.161 25.161 0 0 0-.716 2.921z" fill="#07085b"/><path data-name="Path 7656" d="M132.47 112.042s-9.529-2.3-14.081-8.773c0 0-.079-5.9 8.668-4.559 8.5 1.299 10.49 9.57 5.413 13.332z" fill="#3a3838"/></g></g></svg>