<svg xmlns="http://www.w3.org/2000/svg" width="460.6" height="567.065"><defs><linearGradient id="a" x1="1.15" y1="-.084" x2=".185" y2="1.129" gradientUnits="objectBoundingBox"><stop offset="0" stop-color="#916003"/><stop offset=".472" stop-color="#d6c25a"/><stop offset=".736" stop-color="#a67a19"/><stop offset="1" stop-color="#d6c157"/></linearGradient><linearGradient id="b" x1=".152" y1=".613" x2=".824" y2=".608" gradientUnits="objectBoundingBox"><stop offset="0" stop-color="#916003"/><stop offset=".335" stop-color="#f1db6c"/><stop offset=".736" stop-color="#a67a19"/><stop offset="1" stop-color="#d6c157"/></linearGradient></defs><g data-name="Group 667"><path data-name="Union 3" d="M116.216 364.333a33.166 33.166 0 0 1-7.442-13.67h-12.38a21.32 21.32 0 0 1-14.357-6.15c-3.418-3.417-5.47-8.885-5.47-14.354a21.941 21.941 0 0 1 5.189-14.011 21.941 21.941 0 0 1-5.189-14.011A21.64 21.64 0 0 1 81 289.114c-11.51-5.786-22.3-13.148-31.089-22.517a120.326 120.326 0 0 1-35.548-85.435v-.683a168.044 168.044 0 0 1 1.367-19.137c1.054-5.269 2.108-10.132 3.475-14.9q-2.171-2.389-4.16-4.921A77.4 77.4 0 0 1 22.56 41.049a83.034 83.034 0 0 1 8.494-7.439C25.5 29.682 20.922 23.539 17.775 10.252L15.04 0l10.255 3.418 110.064 22.594L256.361 0l-2.733 10.252c-3.148 13.287-7.727 19.429-13.28 23.358a83.054 83.054 0 0 1 8.493 7.439 77.4 77.4 0 0 1 7.52 100.471q-2.027 2.579-4.249 5.018c1.319 5.389 2.968 10.78 3.567 16.17a144.334 144.334 0 0 1 1.368 17.77v.683A120.327 120.327 0 0 1 221.5 266.6c-8.786 9.369-19.579 16.731-31.089 22.517a21.64 21.64 0 0 1 4.428 13.022 21.941 21.941 0 0 1-5.189 14.011 21.941 21.941 0 0 1 5.189 14.011c0 5.468-2.052 10.937-5.47 14.354-4.1 3.417-8.887 6.15-14.355 6.15h-12.388a33.166 33.166 0 0 1-7.442 13.67 27.812 27.812 0 0 1-19.826 8.2 27.418 27.418 0 0 1-19.142-8.202zm8.2-8.885c2.735 3.418 6.837 4.785 10.938 4.785 4.786 0 8.888-1.367 11.622-4.785a13.182 13.182 0 0 0 3.109-4.785h-28.774a13.193 13.193 0 0 0 3.108 4.785zm-33.5-30.757a6.219 6.219 0 0 0-2.733 5.468 8.348 8.348 0 0 0 2.733 6.152 7.767 7.767 0 0 0 5.47 2.05h78.618a7.763 7.763 0 0 0 5.468-2.05 8.345 8.345 0 0 0 2.735-6.152 6.217 6.217 0 0 0-2.735-5.468c-1.367-1.367-3.418-2.733-5.468-2.733h-78.61c-2.052-.001-4.102 1.366-5.47 2.732zm0-28.021a6.835 6.835 0 0 0 0 10.935c1.368 1.367 3.418 2.733 5.47 2.733h78.618c2.05 0 4.1-1.367 5.468-2.733a8.231 8.231 0 0 0-5.468-13.67h-78.61a6.218 6.218 0 0 0-5.47 2.735zm84.088-14.354q.673 0 1.332.041a116.291 116.291 0 0 0 36.959-23.957 104.414 104.414 0 0 0 26.661-45.109l4.1-16.4a131.722 131.722 0 0 0 .683-16.4 131.722 131.722 0 0 0-.683-16.4c-.68-2.723-1.361-5.445-2.042-8.083a78.34 78.34 0 0 1-13.683 8.766 98.443 98.443 0 0 1-16.407 6.152 87.147 87.147 0 0 1 .683 13.669c0 21.189-8.2 40.326-22.56 54v.683a86.378 86.378 0 0 1-25.3 16.7v26.362zM28.03 163.392c-1.367 5.468-1.367 10.935-2.05 17.087.683 6.152.683 12.3 2.05 17.77a77.769 77.769 0 0 0 4.1 17.087A115.524 115.524 0 0 0 58.109 258.4a116.285 116.285 0 0 0 36.95 23.961q.666-.04 1.335-.04h10.253V256a78.083 78.083 0 0 1-25.295-16.743v-.683c-14.357-13.67-22.56-32.807-22.56-54a87.146 87.146 0 0 1 .683-13.669 98.454 98.454 0 0 1-16.408-6.152 78.413 78.413 0 0 1-13.812-8.869 73.853 73.853 0 0 0-1.225 7.508zm125.1 118.924V247.46a58.939 58.939 0 0 0 28.713-17.087 65.147 65.147 0 0 0 19.142-45.794 73.361 73.361 0 0 0-3.418-21.871l9.57-2.733 5.47-2.052c13.672-4.1 25.978-12.3 34.181-23.237a69.372 69.372 0 0 0 12.3-38.959c0-18.454-6.837-34.857-19.142-46.476a50.053 50.053 0 0 0-11.449-9.477 71.122 71.122 0 0 0-6.317 3.326 73.685 73.685 0 0 1-17.623 8.272 50.642 50.642 0 0 1 25.829 43.671c0 14.354-5.47 26.656-15.04 35.541-8.887 9.569-21.193 15.037-35.55 15.037a48.7 48.7 0 0 1-22.069-5.214c-1.122 3.045-2.517 6.181-3.911 9.317a115.693 115.693 0 0 1-13.672 19.137l-4.786 5.468-4.1-5.468a115.693 115.693 0 0 1-13.672-19.137 56.88 56.88 0 0 1-4.125-9.21 48.706 48.706 0 0 1-21.854 5.106 50.06 50.06 0 0 1-36.233-15.037 49.481 49.481 0 0 1-14.356-35.541A50.68 50.68 0 0 1 55.373 59.5a55.04 55.04 0 0 1 11.36-8.167A73.629 73.629 0 0 1 49.221 43.1a71.156 71.156 0 0 0-6.321-3.326 50.091 50.091 0 0 0-11.449 9.476C19.142 60.869 12.3 77.273 12.3 95.727a69.373 69.373 0 0 0 12.306 38.959c8.2 10.935 20.508 19.137 33.5 23.237l5.468 2.052 10.255 2.733a73.314 73.314 0 0 0-3.418 21.871c0 17.77 6.837 34.174 19.142 45.794a58.939 58.939 0 0 0 28.713 17.087v34.856zm-25.291-138.745c2.735 4.1 5.47 8.2 7.52 11.619 2.735-3.417 5.47-7.518 8.2-11.619a42.914 42.914 0 0 0 3.861-10.049q-1.634-1.4-3.176-2.939a48.394 48.394 0 0 1-8.546-11.55 48.394 48.394 0 0 1-8.546 11.55q-1.542 1.542-3.178 2.94a42.918 42.918 0 0 0 3.865 10.048zm25.3-75.185c-6.837 6.835-11.622 16.4-11.622 26.656a38.71 38.71 0 0 0 11.622 27.34 37.752 37.752 0 0 0 26.661 10.936 38.187 38.187 0 0 0 27.346-10.935 38.71 38.71 0 0 0 11.622-27.34c0-10.252-4.785-19.82-11.622-26.656-6.837-7.518-16.408-11.619-27.346-11.619q-.827 0-1.648.035a66.57 66.57 0 0 0-12.583 2.792 35.166 35.166 0 0 0-12.434 8.791zm-88.874 0C57.425 75.222 52.64 84.79 52.64 95.042a38.71 38.71 0 0 0 11.622 27.34 38.184 38.184 0 0 0 27.345 10.935 37.749 37.749 0 0 0 26.661-10.935 38.71 38.71 0 0 0 11.622-27.34c0-10.252-4.785-19.82-11.622-26.656a35.166 35.166 0 0 0-12.22-8.7A64.845 64.845 0 0 0 93.254 56.8q-.821-.035-1.648-.035c-10.938.003-20.506 4.103-27.345 11.621zm63.578-9.567c3.418 2.733 5.47 6.15 7.52 9.569a35.958 35.958 0 0 1 8.2-9.569 47.346 47.346 0 0 1 15.265-9.105 50.357 50.357 0 0 1 17.433-4.442l.8-.123c13.673-2.05 27.346-4.1 38.968-11.619 4.771-3.3 9.346-2.873 13.406-4.2.563-.644 1.111-1.3 1.634-1.951q.56.336 1.109.673c2.4-1.537 4.561-4.279 6.411-9.6L137.411 38.314h-3.418L32.815 18.454c1.85 5.319 4.014 8.061 6.411 9.6q.549-.337 1.109-.673c.523.654 1.07 1.307 1.634 1.951 4.06 1.327 8.635.9 13.406 4.2C67 41.049 80.669 43.1 94.341 45.149l.8.123a50.355 50.355 0 0 1 17.442 4.445 47.325 47.325 0 0 1 15.256 9.102zm32.133 36.223a19.837 19.837 0 0 1 19.824-19.82 17.734 17.734 0 0 1 9.084 2.072.855.855 0 0 0-.2-.022c-4.1 0-7.52 4.1-7.52 8.2a7.586 7.586 0 0 0 7.52 7.518c4.785 0 8.2-3.417 8.2-7.518 0-.683-.683-1.367-.683-2.05a18.562 18.562 0 0 1 4.1 11.619 20.565 20.565 0 0 1-20.501 20.506c-10.941 0-19.828-9.568-19.828-20.505zm-88.874 0c0-10.935 8.887-19.82 20.508-19.82a15.7 15.7 0 0 1 9.572 2.733c-.685 0-.685-.683-1.368-.683-4.1 0-7.52 4.1-7.52 8.2a7.586 7.586 0 0 0 7.52 7.518c4.786 0 8.2-3.417 8.2-7.518a2.921 2.921 0 0 0-.292-1.544 18.534 18.534 0 0 1 3.71 11.112c0 10.937-8.887 20.505-19.825 20.505A20.565 20.565 0 0 1 71.1 95.042zm36.232-11.619a2.367 2.367 0 0 1 .391.506q-.195-.255-.396-.506zm81.9-5.941q.4.223.821.473c-.435 0-.594-.272-.824-.473zm-.348-.188a.8.8 0 0 1 .348.188l-.352-.189z" transform="translate(94.912 194.531)" fill="url(#a)"/><path data-name="Union 4" d="M119.6 232.791l-18-44.325h251.761l-11.455 44.325zm236.57-57.165q-129.067-.155-258.137-.044c-2.441 0-4.116-.27-5.376-2.892Q68.2 121.829 43.491 71.084c-.245-.507-.422-1.046-.63-1.568 24.663 31.531 56.2 48.425 96.452 45.306 39.9-3.092 68.655-24.17 88.078-59.238 19.834 35.137 48.991 56.292 89.178 59.295 39.993 2.986 71.819-13.492 96.75-44.536-.591 1.331-1.128 2.687-1.78 3.988q-24.4 48.6-48.764 97.229c-1.494 3-3.2 4.067-6.586 4.067zM101.594 94.739a85.485 85.485 0 0 0 27.774-30.906 88.066 88.066 0 0 0 29.376 31.719 95.016 95.016 0 0 1-27.408 4.181 93.8 93.8 0 0 1-29.742-4.994zm198.129 1.678c13.027-8.469 22.925-18.779 30.269-32.575 6.869 12.076 15.369 22 26.925 29.965a92.12 92.12 0 0 1-32.189 5.908 100.439 100.439 0 0 1-25.005-3.298zm31.167-47.426a14.658 14.658 0 0 1-14.544-15.05c.017-8.506 6.3-14.777 14.712-14.692a14.639 14.639 0 0 1 14.475 14.642c.086 8.143-6.656 15.1-14.626 15.1zM115.706 34.18c-.066-8.53 6.132-14.919 14.481-14.924a14.747 14.747 0 0 1 14.746 14.86 15.089 15.089 0 0 1-14.453 14.852h-.359a14.661 14.661 0 0 1-14.415-14.788zm308.071-9.862a18.411 18.411 0 1 1 36.82-.126 18.413 18.413 0 1 1-36.82.126zM18.269 42.967A18.659 18.659 0 0 1 18.3 5.656a18.743 18.743 0 0 1 18.508 18.729 18.5 18.5 0 0 1-18.455 18.582zm191.2-18.407A18.866 18.866 0 0 1 220.59 1.389C221.7.95 222.8.465 223.9 0h6.409c7.642 2.9 13.589 7.342 14.734 16.179 1.294 9.977-4.708 18.985-14.052 21.035a17.633 17.633 0 0 1-3.777.408 18.672 18.672 0 0 1-17.749-13.062z" fill="url(#b)"/></g></svg>