<svg xmlns="http://www.w3.org/2000/svg" width="520.861" height="467.33"><g data-name="Group 1705"><g data-name="Group 1701"><path data-name="Path 20196" d="M122.886 280.782l-17.857 29.636s-19.03 31.6-22.033 40.117-15.506 82.031-15.527 87.634c-.057 12.623 13.393 23.966 21.43 23.966s24.133-6.943 38.154-14.457 40.115-37.86 40.115-37.86l4.688-65.187 6.117-59.807z" fill="#1b2931"/><path data-name="Path 20197" d="M127.497 418.747a1.575 1.575 0 0 0 .1-.336c.055-.245.134-.569.222-.972.19-.9.47-2.164.806-3.784.689-3.348 1.674-8.058 2.879-13.906l4.174-20.651c.771-3.884 1.6-7.97 2.434-12.2a127.544 127.544 0 0 0 2.031-13.227c.191-2.288.27-4.565.236-6.809s-.179-4.465-.291-6.586-.211-4.264-.178-6.329l.133-1.518a9.786 9.786 0 0 1 .1-1.474 22.115 22.115 0 0 1 .692-2.891 54.717 54.717 0 0 1 4.466-10.258c1.662-3.1 3.348-5.894 4.955-8.45 3.17-5.089 5.748-9.208 7.334-12.166.781-1.5 1.384-2.646 1.719-3.46l.4-.927c.089-.212.122-.323.122-.323a1.989 1.989 0 0 0-.179.3c-.111.223-.268.525-.446.893-.38.8-1 1.942-1.808 3.4-1.642 2.924-4.275 7-7.49 12.066-1.586 2.544-3.349 5.324-5.035 8.427a55.091 55.091 0 0 0-4.541 10.337 25.223 25.223 0 0 0-.715 2.958 9.612 9.612 0 0 0-.212 1.529c0 .524-.1 1.049-.134 1.563 0 2.087 0 4.219.167 6.374s.245 4.342.29 6.563a64.887 64.887 0 0 1-.245 6.7 130.713 130.713 0 0 1-1.955 13.183c-.826 4.23-1.642 8.3-2.4 12.2-1.531 7.813-2.915 14.78-4.065 20.673s-2.053 10.613-2.688 13.94l-.705 3.808c-.076.4-.133.736-.166.981a1.114 1.114 0 0 0-.007.372z" fill="#263238"/><path data-name="Path 20198" d="M106.512 315.631a7.277 7.277 0 0 0 .893 1.116c.3.357.682.782 1.117 1.251a22.39 22.39 0 0 0 1.616 1.573 42.628 42.628 0 0 0 4.61 3.65 46.451 46.451 0 0 0 6.264 3.561 47.693 47.693 0 0 0 6.753 2.467 39.831 39.831 0 0 0 5.77 1.116c.827.134 1.587.167 2.233.223a15.87 15.87 0 0 0 1.7.067 7.363 7.363 0 0 0 1.452 0c0-.111-2.055-.134-5.336-.647a46.86 46.86 0 0 1-5.67-1.262 50.981 50.981 0 0 1-6.7-2.478 52.812 52.812 0 0 1-6.205-3.482 45.6 45.6 0 0 1-4.632-3.517c-2.437-2.153-3.787-3.717-3.865-3.638z" fill="#263238"/><g data-name="Group 1698"><path data-name="Path 20199" d="M157.859 295.886a238.114 238.114 0 0 0-13.171 37.717c-3.182 12.9-4.163 26.6-.738 39.436 2.233 8.36 5.225 18.741 1.051 26.321.356-7.669-1.508-25.785-5.58-29.156-3.63 12.278-7.2 30.561-10.828 42.9 2.713-19.368 7.9-36.133 10.334-55.655.672-5.29-.211-17.233.527-22.5 2.23-15.962 4.2-14.512 18.371-39.067" opacity=".3"/></g><path data-name="Path 20200" d="M137.913 367.3c-.091 0 .893 1.8 2.152 4.767a59.55 59.55 0 0 1 3.65 12.021 58.929 58.929 0 0 1 .993 12.524c-.089 3.215-.356 5.2-.245 5.222a7.166 7.166 0 0 0 .268-1.383 34.735 34.735 0 0 0 .392-3.83 52.574 52.574 0 0 0-4.677-24.723c-.693-1.474-1.3-2.635-1.765-3.416a6.155 6.155 0 0 0-.768-1.182z" fill="#263238"/><path data-name="Path 20201" d="M321.306 356.093c-.134.089 7.423 12.133 16.866 26.911s17.224 26.679 17.357 26.6-7.411-12.133-16.866-26.912-17.224-26.677-17.357-26.599z" fill="#263238"/><path data-name="Path 20202" d="M343.061 281.944l-62.273-11.485-67.1 1.339h-16.621l-35.551 23.563s-6.7 95.246 7.4 125.63c4.655 10.047 23.072 41.166 23.072 41.166l139.136.515 35.719-30.819-13.313-57.051z" fill="#1b2931"/><g data-name="Group 1699"><path data-name="Path 20203" d="M242.612 426.503l.737-.108a40.433 40.433 0 0 1 14.064 20.938c-9.242-.4-17.4-6.763-22.324-14.6s-7.043-17.045-8.93-26.1c4.911 7.115 9.856 14.337 16.453 19.87z" opacity=".3"/></g><path data-name="Path 20204" d="M439.289 462.136c8.193-2.891 4.331-49.459-16.4-71.617-2.712-2.9-48.767-89.353-68.513-103.428-14.287-10.191-27.336-6.184-30.707 14.064s-2.411 54.94-2.411 54.94l34.313 53.512-10.6 5.782-36.156 2.409 6.753 44.338z" fill="#1b2931"/><path data-name="Path 20205" d="M315.523 462.136v-.2l-.067-.592c-.078-.559-.179-1.328-.313-2.309-.29-2.057-.714-4.992-1.239-8.676A6170.821 6170.821 0 0 1 309.439 420l-.235.3 27.694-3.571 8.115-1.061h.056l5.659-3.227c1.875-1 3.561-2.23 5.391-3.182a63.887 63.887 0 0 1 10.771-4.631 73.614 73.614 0 0 1 10.269-2.434 68.032 68.032 0 0 1 9.108-.725 61.277 61.277 0 0 1 13.082 1.184c1.529.246 2.679.591 3.472.758l.9.2.3.055a.767.767 0 0 1-.29-.1l-.893-.256c-.781-.213-1.931-.582-3.449-.873a59.03 59.03 0 0 0-13.127-1.383 66.928 66.928 0 0 0-9.175.669 69.73 69.73 0 0 0-10.359 2.392 63.31 63.31 0 0 0-10.872 4.652c-1.864.917-3.55 2.234-5.425 3.182l-5.659 3.182h.111l-8.115 1.051-27.693 3.626h-.268v.27c1.931 12.353 3.561 22.87 4.722 30.325.592 3.685 1.116 6.608 1.4 8.652.167.98.3 1.74.391 2.3a3.338 3.338 0 0 0 .112.591c.024.156.08.2.091.19z" fill="#263238"/><path data-name="Path 20206" d="M343.898 415.789a46.115 46.115 0 0 1 5.681 2.23 26.931 26.931 0 0 1 15.158 23.442 45.216 45.216 0 0 1-.335 6.094 2.089 2.089 0 0 0 .134-.415 11.1 11.1 0 0 0 .257-1.192 23.768 23.768 0 0 0 .357-4.465 26.389 26.389 0 0 0-15.392-23.787 23.943 23.943 0 0 0-4.242-1.529c-.513-.146-.926-.2-1.194-.257a2.435 2.435 0 0 1-.424-.121z" fill="#263238"/><g data-name="Group 1700"><path data-name="Path 20207" d="M355.305 409.249c11.229-12.11 29.111-17.179 44.648-11.687 1.463.515 3.17 1.554 2.947 3.081-.268 1.932-3 2.02-4.911 1.675a62.746 62.746 0 0 0-42.416 6.932" opacity=".3"/></g><path data-name="Path 20208" d="M319.53 332.909s-.1-.77-.29-2.121a37.655 37.655 0 0 1-.369-5.781 35.887 35.887 0 0 1 18.607-31.254 38.155 38.155 0 0 1 5.257-2.434 19.183 19.183 0 0 0 2-.759 1.972 1.972 0 0 0-.536.111 13.611 13.611 0 0 0-1.529.436 31.2 31.2 0 0 0-5.38 2.288 35.26 35.26 0 0 0-18.83 31.645 32.824 32.824 0 0 0 .558 5.815c.111.682.268 1.194.346 1.552a1.887 1.887 0 0 0 .167.5z" fill="#263238"/><path data-name="Path 20209" d="M166.8 314.338a1.194 1.194 0 0 0-.089.323l-.179.982c-.156.9-.369 2.166-.647 3.784-.536 3.281-1.306 8.025-2.154 13.919s-1.764 12.915-2.422 20.762a210.035 210.035 0 0 0-.7 25.583 141.906 141.906 0 0 0 3.293 25.394 107.037 107.037 0 0 0 6.508 19.857 85.855 85.855 0 0 0 6.7 12.414c.87 1.429 1.674 2.431 2.166 3.157.245.336.435.6.591.806a1.366 1.366 0 0 0 .213.267.529.529 0 0 0-.168-.3l-.536-.839c-.458-.735-1.238-1.773-2.076-3.2a93.7 93.7 0 0 1-6.485-12.469 109.065 109.065 0 0 1-6.362-19.812 143.049 143.049 0 0 1-3.226-25.293c-.681-18.128 1.4-34.5 2.946-46.267.826-5.86 1.5-10.615 1.977-13.942l.524-3.795.134-.993a1.478 1.478 0 0 0 0-.335z" fill="#263238"/><path data-name="Path 20249" d="M308.011 384.187c-13.684 13.172-62.039 59.46-62.039 59.46l-9.767 3.6 3.025-10.1 61.849-60.121a4.989 4.989 0 0 1 7.1.135 4.977 4.977 0 0 1-.168 7.031z" fill="#ff725e"/><path data-name="Path 20250" d="M240.19 430.88l14.511-18.441 28.218-7.5 26.242 16.912 5.38 34.682s-5.782 0-8.595-.2c-1.842-.133-16.006-1.977-16.006-1.977s-11.754-.142-17.056-1.283-7.256-3.5-11.006-3.5-4.733-4.332-4.733-4.332a34.474 34.474 0 0 1-6.854-3.1c-2.769-1.786-2.768-6.026-2.768-6.026s-1.474.645-5.224 0-2.109-5.235-2.109-5.235z" fill="#ffbe9d"/><path data-name="Path 20251" d="M247.167 435.168a5.094 5.094 0 0 0 .871-.95l2.232-2.68a29.357 29.357 0 0 1 8.685-7.311 42.014 42.014 0 0 1 10.894-3.46l3.427-.657a6.1 6.1 0 0 0 1.261-.3 5.137 5.137 0 0 0-1.294.08c-.815.087-2.009.244-3.472.478a37.515 37.515 0 0 0-11.084 3.351 27.492 27.492 0 0 0-8.74 7.568c-.926 1.113-1.629 2.119-2.11 2.8a6.565 6.565 0 0 0-.669 1.083z" fill="#eb996e"/><path data-name="Path 20252" d="M255.331 442.912a7.244 7.244 0 0 1 2-2.836c1.641-1.437 4.632-2.3 7.747-3.572s5.983-2.388 8.025-3.248a21.317 21.317 0 0 0 3.271-1.5 21.094 21.094 0 0 0-3.416 1.117c-2.076.76-4.945 1.841-8.093 3.081-1.563.624-3.059 1.205-4.465 1.773a11.3 11.3 0 0 0-3.349 2.045 5.732 5.732 0 0 0-1.529 2.176 1.8 1.8 0 0 0-.19.959z" fill="#eb996e"/><path data-name="Path 20253" d="M263.442 448.582a9.8 9.8 0 0 0 2.5-.378c1.529-.312 3.627-.839 5.916-1.521s4.32-1.4 5.771-1.973a10.11 10.11 0 0 0 2.311-1.117 11.708 11.708 0 0 0-2.444.669c-1.484.481-3.527 1.116-5.8 1.807s-4.342 1.263-5.849 1.687a11.6 11.6 0 0 0-2.4.826z" fill="#eb996e"/><path data-name="Path 20270" d="M170.417 209.249a30.428 30.428 0 1 1 42.251-8.159 30.429 30.429 0 0 1-42.251 8.159z" fill="#8ad6fb"/><path data-name="Path 20271" d="M177.437 156.705s-5.056 50.375-5.681 84.6l-2.233 40.4s23.7-7.534 47.651-6.418l19.355-49.615z" fill="#e9ab4f"/><path data-name="Path 20272" d="M311.338 165.489c-4.576-21.208-9.264-43.242-26.51-56.369-15.37-11.709-32.728-14.8-52.038-13.685-9.5.525-20.159 5.068-28.374 9.867-11.251 6.586-15.873 19.679-21.208 31.6-10.626 23.865-8.785 55.945-1.228 64.74l99.823 50.911c17.4-9.376 29.078-13.808 33.486-33.084 2.981-13.127-1.105-40.82-3.951-53.98z" fill="#e9ab4f"/><path data-name="Path 20273" d="M282.964 128.722l-62.608-17.513c-20.092-2.634-34.167 21.878-35.954 42.092-1.987 22.469-3.516 49.973-1.272 66.828 4.465 33.888 30.283 38.833 30.283 38.833s.067.513 0 10.548l-.591 22.57c59.847-6.934 55.471-18.547 72.431-19.545l7.545-123.52c.502-9.7-3.717-19.489-9.834-20.293z" fill="#ffbe9d"/><path data-name="Path 20274" d="M190.061 181.072a4.34 4.34 0 0 0 4.074 4.465 4.131 4.131 0 0 0 4.554-3.8 4.33 4.33 0 0 0-4.063-4.465 4.15 4.15 0 0 0-4.564 3.8z" fill="#263238"/><path data-name="Path 20275" d="M189.904 173.571c.525.58 3.862-1.764 8.528-1.641s8.015 2.545 8.527 1.987c.257-.246-.268-1.272-1.729-2.4a11.914 11.914 0 0 0-6.81-2.233 11.385 11.385 0 0 0-6.8 2.009c-1.459 1.005-1.972 2.016-1.716 2.278z" fill="#263238"/><path data-name="Path 20276" d="M234.108 181.068a4.319 4.319 0 0 0 4.063 4.464 4.131 4.131 0 0 0 4.555-3.795 4.32 4.32 0 0 0-4.063-4.465 4.131 4.131 0 0 0-4.554 3.8z" fill="#263238"/><path data-name="Path 20277" d="M235.714 173.472c.525.58 3.874-1.764 8.528-1.641s8.015 2.545 8.528 1.987c.257-.246-.257-1.272-1.73-2.4a11.808 11.808 0 0 0-6.809-2.232 11.388 11.388 0 0 0-6.8 2.009c-1.46 1.004-1.973 2.02-1.717 2.277z" fill="#263238"/><path data-name="Path 20278" d="M218.011 203.921c0-.268-2.857-.837-7.534-1.563-1.183-.145-2.311-.413-2.489-1.228a6.823 6.823 0 0 1 .882-3.5l3.75-8.93c5.213-12.781 9.008-23.3 8.495-23.441s-5.157 9.979-10.37 22.76c-1.25 3.148-2.456 6.15-3.594 9.03-.491 1.34-1.295 2.847-.737 4.644a2.98 2.98 0 0 0 1.908 1.8 8.1 8.1 0 0 0 2.021.324c4.71.272 7.646.361 7.668.104z" fill="#263238"/><path data-name="Path 20279" d="M213.412 258.96a85.835 85.835 0 0 0 45.508-10.917s-11.765 23.34-45.475 19.333z" fill="#eb996e"/><path data-name="Path 20280" d="M233.18 212.997a7.469 7.469 0 0 0-6.14-3.538 9.712 9.712 0 0 0-8.929 4.163c-.815.938-.815 3.617-.5 4.365s0 .379.625.9c2.031 1.886 4.186 3.784 6.854 4.465a7.313 7.313 0 0 0 7.814-2.646 7.446 7.446 0 0 0 .279-7.713z" fill="#eb996e"/><path data-name="Path 20281" d="M232.476 207.673c-.759-.067-.926 4.99-5.358 8.45s-9.8 2.724-9.867 3.438c-.079.313 1.116 1.016 3.438 1.116a12.56 12.56 0 0 0 8.227-2.589 10.964 10.964 0 0 0 4.175-7.088c.256-2.078-.302-3.351-.615-3.327z" fill="#263238"/><path data-name="Path 20282" d="M233.716 156.45c.346 1.306 5.034 1.116 10.425 2.232s9.678 2.958 10.5 1.886c.368-.514-.3-1.775-1.976-3.137a18.574 18.574 0 0 0-15.951-3.114c-2.06.615-3.154 1.519-2.998 2.133z" fill="#263238"/><path data-name="Path 20283" d="M190.117 161.035c1.116.893 4.465-.748 8.684-1.484s7.981-.547 8.64-1.775c.279-.58-.458-1.54-2.232-2.232a13.308 13.308 0 0 0-7.356-.591 13 13 0 0 0-6.608 3.215c-1.295 1.259-1.608 2.42-1.128 2.867z" fill="#263238"/><path data-name="Path 20284" d="M221.17 107.553c-.056.246-.089.491-.145.737h.123c0-.207.011-.464.022-.737z" fill="#263238"/><path data-name="Path 20674" d="M235.434 285.534c5.643-2.326-2.98 34.106-15.5 32.164s-58.368-18.139-43.217-30.177 37.686-31.194 37.847-15.347 15.227 15.685 20.87 13.36z" fill="#fff"/><path data-name="Path 20675" d="M238.914 285.823c-9.176-2.326 6.224 33.351 22.892 31.081s68.416-28.126 43.78-40.163-27.084-9.609-27.084-9.609-30.415 21.016-39.588 18.691z" fill="#fff"/><path data-name="Path 20285" d="M287.015 271.618c-.569.29-1.8 34.882-6.284 49.716-1.6 5.28-18.417 5.2-18.417 5.2-1.976 0 1.964-66.381 2.846-81.26.569-9.421 11.3-23.105 13.663-32.247 3.773-14.622-1.842-23.7-4.063-38.721-8.461-.926-20.862-6.63-26.577-13.1-6.875-7.813-11.106-17.513-15.236-27.057a45.643 45.643 0 0 0 9.555 26.1c-3.728.837-7.713-.714-10.559-3.27a27.331 27.331 0 0 1-6.307-9.5 74.667 74.667 0 0 1-6.362-26.9 96.883 96.883 0 0 0 4.967 39.347c-2.378-.692-4.889 0-7.334.391s-5.246.357-7-1.384a8.8 8.8 0 0 1-1.976-4.465 101.378 101.378 0 0 1-1.619-34.324c-2.914 6.206-5.815 12.479-7.467 19.143s-2 13.785.145 20.3c-.949 1.25-3.014 1.116-4.186 0a7.114 7.114 0 0 1-1.9-4.208c-.971-5.659 0-11.452.871-17.111-3.292 6.027-4.309 12.981-6.083 19.623s-4.644 13.45-10.336 17.3a90.07 90.07 0 0 1 .469-25.918c1.038-7.088 4.3-14.154 7.3-20.661 3.349-7.278 8.093-14.433 13.4-19.232 9.812-8.852 14.031-5.157 20.427-1.931l.748.3v-.469l.268-1.351a95.2 95.2 0 0 1 50.229 1.63c12.022 3.728 26.923 15.828 33.174 26.789.111.2.246.4.357.625 13.395 26.655 29.713 92.02 28.653 145.018l-16.084-2.969z" fill="#e9ab4f"/><path data-name="Path 20286" d="M278.146 213.235a30.428 30.428 0 1 1 43.032 0 30.428 30.428 0 0 1-43.032 0z" fill="#8ad6fb"/><path data-name="Path 20287" d="M300.209 161.293s-1.496-62.776-56.737-70.946c0 0-28.051-2.232-31.868 11.162 0 0 14.388-7.813 28.7-4.063 9.43 2.466 43.865 17.761 45.484 68.881l14.221 6.128z" fill="#8ad6fb"/><path data-name="Path 20288" d="M278.086 191.553v-.357a5.857 5.857 0 0 1 .078-1.061 11.152 11.152 0 0 1 .2-1.708 17.321 17.321 0 0 1 .48-2.3 21.5 21.5 0 0 1 2.489-5.894 22.125 22.125 0 0 1 5.648-6.262 21.881 21.881 0 0 1 9.3-4.108 22.2 22.2 0 0 1 11.6.971 20.8 20.8 0 0 1 5.581 3 25.181 25.181 0 0 1 2.5 2.132 23.813 23.813 0 0 1 2.166 2.556 22.154 22.154 0 0 1 4.286 13.026 23.744 23.744 0 0 1-1.116 6.954 21.5 21.5 0 0 1-3.147 6.072 20.5 20.5 0 0 1-4.666 4.688 20.77 20.77 0 0 1-5.581 3 22.175 22.175 0 0 1-26.543-9.4 21.521 21.521 0 0 1-2.467-5.86 17.427 17.427 0 0 1-.48-2.3 11.155 11.155 0 0 1-.2-1.708c0-.435-.056-.781-.078-1.06a1.253 1.253 0 0 1 0-.357 1.3 1.3 0 0 0 0 .369v1.06a9.352 9.352 0 0 0 .145 1.719 15.377 15.377 0 0 0 .424 2.333 20.99 20.99 0 0 0 2.434 6 22.373 22.373 0 0 0 26.968 9.733 21.36 21.36 0 0 0 5.726-3.058 26.2 26.2 0 0 0 2.567-2.177 25.287 25.287 0 0 0 2.232-2.623 21.766 21.766 0 0 0 3.237-6.229 22.332 22.332 0 0 0 0-14.265 21.763 21.763 0 0 0-3.237-6.229 20.987 20.987 0 0 0-4.8-4.8 21.523 21.523 0 0 0-5.726-3.058 22.7 22.7 0 0 0-11.854-.949 22.329 22.329 0 0 0-9.477 4.264 22.052 22.052 0 0 0-5.67 6.418 20.973 20.973 0 0 0-2.433 6.005 15.372 15.372 0 0 0-.424 2.333 9.392 9.392 0 0 0-.145 1.719v1.116a1.268 1.268 0 0 0-.011.279z" fill="#263238"/><path data-name="Path 20289" d="M293.223 182.389c-.112.112 3.873 4.275 8.93 9.31s9.2 9.008 9.309 8.93-3.862-4.287-8.93-9.309-9.197-9.043-9.309-8.931z" fill="#263238"/><path data-name="Path 20290" d="M296.727 190.315a21.2 21.2 0 0 0 3.349 3.684 21.791 21.791 0 0 0 3.761 3.27 42.955 42.955 0 0 0-7.1-6.954z" fill="#263238"/><path data-name="Path 20291" d="M223.157 180.425a30.9 30.9 0 0 1 .715-4.755 18.811 18.811 0 0 1 2.232-5.157 19.4 19.4 0 0 1 4.956-5.492 19.165 19.165 0 0 1 8.148-3.594 19.474 19.474 0 0 1 10.146.859 19.342 19.342 0 0 1 8.963 6.731 19.222 19.222 0 0 1 0 22.815 19.344 19.344 0 0 1-8.963 6.731 19.481 19.481 0 0 1-10.146.86 19.168 19.168 0 0 1-8.148-3.594 19.39 19.39 0 0 1-4.967-5.514 18.819 18.819 0 0 1-2.232-5.156 31.082 31.082 0 0 1-.714-4.755.988.988 0 0 0 0 .313v.938a8.983 8.983 0 0 0 .123 1.518 14.209 14.209 0 0 0 .379 2.042 18.681 18.681 0 0 0 2.121 5.269 19.716 19.716 0 0 0 23.719 8.561 18.533 18.533 0 0 0 5.023-2.69 17.655 17.655 0 0 0 4.208-4.208 19.734 19.734 0 0 0 0-23.44 22.658 22.658 0 0 0-1.942-2.3 21.326 21.326 0 0 0-2.233-1.909 18.235 18.235 0 0 0-5.022-2.69 19.722 19.722 0 0 0-18.741 2.913 19.44 19.44 0 0 0-4.979 5.648 18.556 18.556 0 0 0-2.121 5.268 14.156 14.156 0 0 0-.379 2.043 8.933 8.933 0 0 0-.123 1.518v.927a1.056 1.056 0 0 0-.022.3z" fill="#455a64"/><path data-name="Path 20292" d="M172.515 180.424a32.042 32.042 0 0 1 .726-4.755 18.822 18.822 0 0 1 2.232-5.157 19.512 19.512 0 0 1 4.945-5.492 19.272 19.272 0 0 1 8.16-3.594 19.472 19.472 0 0 1 10.146.859 19.342 19.342 0 0 1 8.963 6.731 19.222 19.222 0 0 1 0 22.815 21.4 21.4 0 0 1-1.887 2.232 22.651 22.651 0 0 1-2.232 1.864 17.931 17.931 0 0 1-4.889 2.634 19.477 19.477 0 0 1-10.146.859 19.277 19.277 0 0 1-8.16-3.594 19.519 19.519 0 0 1-4.945-5.492 18.824 18.824 0 0 1-2.232-5.157 32.3 32.3 0 0 1-.725-4.755 1.338 1.338 0 0 0 0 .313v.938a9.036 9.036 0 0 0 .123 1.518 14.062 14.062 0 0 0 .368 2.042 18.411 18.411 0 0 0 2.132 5.269 19.7 19.7 0 0 0 23.708 8.562 18.605 18.605 0 0 0 5.034-2.69 20.181 20.181 0 0 0 2.232-1.909 22.782 22.782 0 0 0 1.954-2.3 19.736 19.736 0 0 0 0-23.44 22.836 22.836 0 0 0-1.954-2.3 20.2 20.2 0 0 0-2.232-1.908 18.3 18.3 0 0 0-5.034-2.69 19.7 19.7 0 0 0-23.708 8.561 18.284 18.284 0 0 0-2.132 5.269 14.06 14.06 0 0 0-.368 2.043 8.955 8.955 0 0 0-.078 1.451v.926a1.414 1.414 0 0 0 0 .346z" fill="#455a64"/><path data-name="Path 20293" d="M210.677 174.498a20.218 20.218 0 0 0 1.987-.636 12.591 12.591 0 0 1 9.555 1.116c1.116.614 1.708 1.116 1.774 1.116a4.637 4.637 0 0 0-1.562-1.429 11.255 11.255 0 0 0-9.9-1.116 4.675 4.675 0 0 0-1.853.949z" fill="#455a64"/><path data-name="Path 20294" d="M285.251 165.156a60.028 60.028 0 0 1 7.9-2.534 60.844 60.844 0 0 1 8.26-.837 7.625 7.625 0 0 0-2.455-.29 26.507 26.507 0 0 0-11.575 2.422 7.617 7.617 0 0 0-2.132 1.239z" fill="#263238"/><path data-name="Path 20295" d="M212.799 101.162a12.3 12.3 0 0 1 2.88-3.684 14.716 14.716 0 0 1 4.778-2.668 20.906 20.906 0 0 1 7.188-.949 51.17 51.17 0 0 1 8.8 1.116 64.074 64.074 0 0 1 9.745 2.69 69.589 69.589 0 0 1 20.226 11.452 67.306 67.306 0 0 1 15.27 17.569 70.159 70.159 0 0 1 9.678 30.171c.146 1.518.179 2.69.223 3.494v.915a2.565 2.565 0 0 0 0 .312.986.986 0 0 0 0-.312v-.915c0-.8 0-1.987-.111-3.516a65.669 65.669 0 0 0-2.054-12.747 69.834 69.834 0 0 0-7.384-17.68 66.991 66.991 0 0 0-15.3-17.736 69.708 69.708 0 0 0-20.405-11.5 64.054 64.054 0 0 0-9.9-2.712 51.446 51.446 0 0 0-8.874-1.038 20.988 20.988 0 0 0-7.312 1.06 14.241 14.241 0 0 0-4.811 2.8 10.743 10.743 0 0 0-2.232 2.735 5.38 5.38 0 0 0-.4 1.139z" fill="#263238"/><path data-name="Path 20296" d="M181.633 257.801l37.951 2.042 10.258 18.819a2.087 2.087 0 0 1-1.808 3.1c-1.82 0-3.94-.257-5.113-1.306-2.332-2.1-6.764-8.405-6.764-8.405l2.333 14.009-10.749 11.675-2.345 2.355a2.379 2.379 0 0 1-1.831.693 2.377 2.377 0 0 1-1.729-.916c-1.172-1.529-2.5-3.516-2.5-4.7 0 0-5.135-1.406-5.369-4.677a56.041 56.041 0 0 1 .469-8.64s-3.5-2.1-3.974-4.2l-5.581 5.837-25.037 8.93-14.867-4.465-20.339-7.457s12.369-10.783 14.948-12.647 42.047-10.047 42.047-10.047z" fill="#ffbe9d"/><path data-name="Path 20297" d="M181.633 257.801s-.38.056-1.116.2l-3.271.658c-2.868.581-7.077 1.452-12.435 2.612s-11.877 2.567-19.311 4.465a40.856 40.856 0 0 0-5.716 1.786 21.251 21.251 0 0 0-2.488 1.886l-2.455 2.043c-3.351 2.779-6.7 5.749-10.325 8.852l-.312.268.312.156 16.743 6.139c1.462.514 2.924 1.116 4.465 1.585l4.6 1.4 9.454 2.88h.179l25.048-8.93h.067l5.58-5.837-.49-.145a5 5 0 0 0 1.384 2.232 13.473 13.473 0 0 0 2.021 1.708l.7.458-.146-.291a54.6 54.6 0 0 0-.491 8.193 4.054 4.054 0 0 0 .524 2.065 5.59 5.59 0 0 0 1.418 1.563 11.75 11.75 0 0 0 3.673 1.808l-.224-.279a4.682 4.682 0 0 0 .592 1.886 16.624 16.624 0 0 0 .971 1.607c.357.514.7 1 1.116 1.507a2.668 2.668 0 0 0 3.7.29c.479-.446.87-.859 1.306-1.294.871-.837 1.7-1.708 2.489-2.6l9.487-10.313.09-.1v-.134l-2.344-14.008-.48.19q1.742 2.444 3.55 4.744c.6.759 1.217 1.507 1.853 2.232a9.089 9.089 0 0 0 2.144 1.976 7.465 7.465 0 0 0 2.768.781c.469.056.938.079 1.4.09a2.677 2.677 0 0 0 1.451-.268 2.343 2.343 0 0 0 1.194-2.534 4.451 4.451 0 0 0-.569-1.272l-.636-1.116-9.32-17.034-.057-.1h-.111L191.71 258.4l-7.512-.346-1.954-.078h-.658l.67.066 1.942.134 7.522.458 27.85 1.585-.156-.111 9.254 17.067.625 1.116a3.938 3.938 0 0 1 .524 1.116 1.851 1.851 0 0 1-.949 2.02 2.229 2.229 0 0 1-1.216.2 6.861 6.861 0 0 1-1.351-.089 7.116 7.116 0 0 1-2.59-.726 8.976 8.976 0 0 1-2-1.875 40.179 40.179 0 0 1-1.831-2.232 118.625 118.625 0 0 1-3.516-4.722l-.658-.927.178 1.117q1.116 6.8 2.333 14.008l.067-.234-9.488 10.3c-.8.893-1.629 1.764-2.489 2.6-.424.413-.87.871-1.272 1.25a2.1 2.1 0 0 1-1.484.469 2.046 2.046 0 0 1-1.406-.7c-.357-.436-.726-.96-1.116-1.451a14.814 14.814 0 0 1-.937-1.552 3.994 3.994 0 0 1-.524-1.619v-.212l-.212-.067a11.3 11.3 0 0 1-3.472-1.708 3.9 3.9 0 0 1-1.708-3.2 53.376 53.376 0 0 1 .491-8.082v-.19l-.167-.1-.659-.435a12.6 12.6 0 0 1-1.942-1.63 4.583 4.583 0 0 1-1.228-1.953l-.134-.514-.357.379c-1.931 2-3.84 3.985-5.581 5.838l.1-.078-25.037 8.93h.179l-9.454-2.857-4.6-1.4c-1.519-.447-2.97-1.061-4.465-1.563l-16.754-6.109.078.413q5.358-4.671 10.293-8.929l2.442-2.043a19.79 19.79 0 0 1 2.446-1.864 41.069 41.069 0 0 1 5.581-1.764c7.411-1.942 13.93-3.349 19.276-4.587l12.4-2.746 3.259-.714a10.939 10.939 0 0 0 1.29-.258z" fill="#eb996e"/><path data-name="Path 20298" d="M189.737 262.165a2.21 2.21 0 0 0 .513.224l1.485.547 5.525 1.875 8.193 2.735a4.465 4.465 0 0 1 1.953 1.271 5.827 5.827 0 0 1 1.049 2.233 50.43 50.43 0 0 1 1.116 5.324 37.971 37.971 0 0 1 .3 10.47 32.193 32.193 0 0 1-2.389 8.215 34.442 34.442 0 0 1-2.712 5.124c-.759 1.116-1.25 1.729-1.206 1.764a2.308 2.308 0 0 0 .391-.4 11 11 0 0 0 .994-1.238 28.779 28.779 0 0 0 2.9-5.079 30.77 30.77 0 0 0 2.545-8.3 37.287 37.287 0 0 0-.245-10.638 50.023 50.023 0 0 0-1.172-5.391 6.319 6.319 0 0 0-1.172-2.434 4.984 4.984 0 0 0-2.232-1.418c-3.114-1.016-5.9-1.875-8.26-2.623l-5.581-1.708-1.53-.435a1.926 1.926 0 0 0-.468-.112z" fill="#eb996e"/><path data-name="Path 20299" d="M179.792 265.658a10.308 10.308 0 0 0 1.6.647l4.464 1.563 6.6 2.232a27.481 27.481 0 0 1 3.806 1.417 6.7 6.7 0 0 1 2.746 3.136 40.616 40.616 0 0 1 2.869 7.948 18.658 18.658 0 0 1 .357 6.831 14.806 14.806 0 0 1-2.232 5.895 2.8 2.8 0 0 0 .313-.324 8.167 8.167 0 0 0 .737-1.049 12.788 12.788 0 0 0 1.6-4.464 18.179 18.179 0 0 0-.235-7.01 39.151 39.151 0 0 0-2.868-8.092 7.212 7.212 0 0 0-3-3.349 28.842 28.842 0 0 0-3.929-1.474l-6.63-2.121-4.465-1.4a8.929 8.929 0 0 0-1.733-.386z" fill="#eb996e"/><path data-name="Path 20300" d="M181.142 273.785a8.6 8.6 0 0 0 4.275 3.037 8.72 8.72 0 0 0 5.2.58 30.182 30.182 0 0 1-5-1.116 29.788 29.788 0 0 1-4.475-2.501z" fill="#eb996e"/><path data-name="Path 20301" d="M157.111 288.395a7.992 7.992 0 0 0 2.79.4 17.276 17.276 0 0 0 6.7-1.272 17.055 17.055 0 0 0 5.682-3.74 8.144 8.144 0 0 0 1.719-2.232c-.077-.055-.737.782-2.009 1.931a19.18 19.18 0 0 1-12.078 4.9c-1.722.055-2.783-.088-2.804.013z" fill="#eb996e"/><path data-name="Path 20302" d="M200.073 260.16c0 .067 1.283.167 3.349.569 1.026.189 2.232.435 3.594.736a15.633 15.633 0 0 1 4.208 1.317 7.6 7.6 0 0 1 3.148 2.9 11.329 11.329 0 0 1 1.261 3.349c.446 2.02.58 3.348.681 3.348a2.572 2.572 0 0 0 0-.915 21.54 21.54 0 0 0-.278-2.478 11.229 11.229 0 0 0-1.217-3.538 7.892 7.892 0 0 0-3.349-3.159 15.633 15.633 0 0 0-4.364-1.317 57.475 57.475 0 0 0-3.64-.613 10.646 10.646 0 0 0-3.393-.2z" fill="#eb996e"/><path data-name="Path 20303" d="M325.435 362.556c-.134.09 6.977 10.672 15.862 23.608s16.219 23.374 16.352 23.283-6.976-10.657-15.872-23.607-16.186-23.372-16.342-23.284z" fill="#263238"/><path data-name="Path 20674" d="M463.128 126.558c1.881-.775-.994 11.372-5.169 10.725s-15.687-10.586-10.635-14.6 9.243-7.607 9.3-2.322 4.619 6.973 6.504 6.197z" fill="#fff"/><path data-name="Path 20675" d="M463.943 126.92c-3.059-.775 7.632 10.363 7.632 10.363s20.641-6.35 12.427-10.363-10.531-4.014-10.531-4.014-6.471 4.789-9.528 4.014z" fill="#fff"/></g><path data-name="Path 9141" d="M48.358 372.469c-5.009-2.585-10.9-2.916-16.457-2-2.985.492-6.1 1.384-8.131 3.637s-2.413 6.187-.091 8.108a7.749 7.749 0 0 0 5.135 1.3c4.346 0 9.149-.812 12.649 1.807 1.99 1.487 3.305 3.968 5.718 4.7a5.6 5.6 0 0 0 6.164-2.733 9.641 9.641 0 0 0 .7-7.079 10.813 10.813 0 0 0-5.684-7.742z" fill="#f1db6c"/><path data-name="Path 9142" d="M59.794 350.326c-3.065 4.369-9.012 2.928-11.768.252s-3.923-6.53-4.986-10.224c-2.424-8.429-4.872-17.269-3.065-25.846a14.427 14.427 0 0 1 3.294-7.033 7.537 7.537 0 0 1 7.113-2.367c3 .8 4.86 3.728 6.21 6.53a61.567 61.567 0 0 1 6.1 26.441c-.004 4.264-.496 8.722-2.898 12.247z" fill="#f1db6c"/><path data-name="Path 9143" d="M68.201 356.591c-3.328-3.934-3.957-9.7-2.47-14.638s4.815-9.149 8.669-12.58a46.979 46.979 0 0 1 15.531-9.149 16.488 16.488 0 0 1 6.976-1.144 7.306 7.306 0 0 1 5.867 3.545c1.635 3.111.069 6.862-1.635 9.972a118.288 118.288 0 0 1-10.19 15.531c-3.065 3.945-6.564 7.834-11.219 9.618s-9.5 1.5-11.928-1.7" fill="#f1db6c"/><path data-name="Path 9144" d="M60 416.277a9.576 9.576 0 0 1-.274-1.99c-.137-1.441-.32-3.259-.526-5.421a76.085 76.085 0 0 0-1.224-7.948 61.487 61.487 0 0 0-2.893-9.389 34.586 34.586 0 0 0-4.792-8.5 17.907 17.907 0 0 0-6.061-5.032 16.83 16.83 0 0 0-5.1-1.59 9.107 9.107 0 0 1-1.978-.286 9.254 9.254 0 0 1 2.013 0 15.5 15.5 0 0 1 5.318 1.384 17.77 17.77 0 0 1 6.393 5.089 33.607 33.607 0 0 1 4.975 8.657 57.924 57.924 0 0 1 2.871 9.538 67.138 67.138 0 0 1 1.052 8.063c.172 2.287.24 4.163.274 5.455a9.424 9.424 0 0 1-.046 1.967z" fill="#1b2931" opacity=".42"/><path data-name="Path 9145" d="M59.623 412.1a4.08 4.08 0 0 1 0-.915v-2.642c0-2.287 0-5.592-.114-9.687-.206-8.177-.9-16.971-2.287-29.38-1.292-11.665-3.019-25.24-4.838-34.069-.389-2.013-.789-3.82-1.144-5.4s-.663-2.951-.949-4.06l-.618-2.562a3.822 3.822 0 0 1-.16-.915 4.717 4.717 0 0 1 .32.869c.206.663.457 1.5.766 2.527s.686 2.447 1.086 4.037.846 3.374 1.269 5.375a298.79 298.79 0 0 1 5.089 31.61c1.361 12.443 1.979 23.753 2.036 31.953 0 4.106 0 7.422-.149 9.709 0 1.075-.114 1.944-.16 2.63a3.436 3.436 0 0 1-.149.915z" fill="#1b2931" opacity=".42"/><path data-name="Path 9146" d="M59.578 390.272a18.166 18.166 0 0 1 0-2.756c.1-1.761.355-4.323.846-7.456a98.528 98.528 0 0 1 2.424-10.865 89.391 89.391 0 0 1 4.575-12.866 68.352 68.352 0 0 1 13.346-20.791 32.284 32.284 0 0 1 3.145-2.916c.48-.412.9-.812 1.338-1.144l1.212-.846a18.919 18.919 0 0 1 2.287-1.487c.137.183-3.282 2.2-7.594 6.782a72.291 72.291 0 0 0-13.013 20.711 100.238 100.238 0 0 0-4.575 12.751 110 110 0 0 0-2.585 10.762c-.572 3.1-.892 5.627-1.144 7.388a17.8 17.8 0 0 1-.263 2.733z" fill="#1b2931" opacity=".42"/><path data-name="Path 9147" d="M80.677 428.789l-2.186 29.975h-38.5l-2.2-29.975z" fill="#8ad6fb"/><path data-name="Path 9148" d="M33.205 416.976h51.189v11.814H33.205z" fill="#8ad6fb"/><path data-name="Path 9149" d="M84.395 457.608v3.282H34.052v-3.282z" fill="#8ad6fb"/><path data-name="Path 9150" d="M79.637 466.656l2.356-5.764H35.882l2.756 5.764z" fill="#8ad6fb"/><path data-name="Path 9151" d="M38.512 438.579s.057.1.183.286l.572.755c.549.7 1.292 1.67 2.287 2.87l.1.126.091-.126 5.467-7.628h-.32l5.432 7.685.172.24.183-.229 6.439-7.651h-.366c.1.149.229.3.355.446l5.718 7.216.183.24.183-.252c1.956-2.756 3.774-5.341 5.421-7.674h-.309l6.679 7.617.126.137.091-.16 2.093-3.511.537-.938a1.775 1.775 0 0 0 .16-.332s-.08.092-.229.3l-.583.9-2.207 3.431h.217l-6.587-7.708-.16-.194-.149.206-5.478 7.651h.366l-5.716-7.227-.355-.446-.183-.229-.183.229-6.416 7.674h.354l-5.478-7.639-.16-.229-.16.229-5.387 7.7h.194l-2.287-2.8-.629-.72a1.5 1.5 0 0 0-.263-.24z" fill="#f5f5f5"/><path data-name="Path 9152" d="M37.265 428.597c0 .126 9.641.24 21.546.24s21.546-.114 21.546-.24-9.652-.24-21.546-.24-21.546.1-21.546.24z" fill="#f5f5f5"/><path data-name="Path 9153" d="M35.321 461.212c0 .137 10.476.24 23.41.24s23.422-.1 23.422-.24-10.487-.24-23.422-.24-23.41.057-23.41.24z" fill="#f5f5f5"/><path data-name="Path 9154" d="M17.892 27.283h77.984v81.289H17.892z" fill="#e0e0e0"/><path data-name="Path 9155" d="M23.176 27.283h77.984v81.289H23.176z" fill="#fafafa"/><path data-name="Path 9156" d="M23.198 108.608h77.984V27.261H23.198zm77.984-.057H23.198v-81.2h77.938z" fill="#e0e0e0"/><path data-name="Path 9157" d="M33.651 38.216h57.021v59.435H33.651z" fill="#fafafa"/><path data-name="Path 9158" d="M90.672 98.039a9.47 9.47 0 0 0 1.407 1.635c.915.961 2.2 2.287 3.625 3.682s2.756 2.665 3.728 3.568a9.494 9.494 0 0 0 1.647 1.372 9.032 9.032 0 0 0-1.4-1.635c-.915-.961-2.2-2.287-3.637-3.682s-2.756-2.676-3.728-3.568a9.5 9.5 0 0 0-1.647-1.372z" fill="#e0e0e0"/><path data-name="Path 9159" d="M33.651 97.902a9.338 9.338 0 0 0-1.635 1.407c-.961.9-2.287 2.184-3.671 3.625s-2.676 2.745-3.568 3.717a9.545 9.545 0 0 0-1.373 1.644 8.025 8.025 0 0 0 1.635-1.4c.961-.915 2.287-2.2 3.682-3.637s2.676-2.756 3.568-3.728a8.649 8.649 0 0 0 1.361-1.635z" fill="#e0e0e0"/><path data-name="Path 9160" d="M33.811 38.366a9.348 9.348 0 0 0-1.464-1.624c-.915-.961-2.2-2.287-3.625-3.671s-2.755-2.676-3.728-3.568a9.055 9.055 0 0 0-1.647-1.37 8.846 8.846 0 0 0 1.407 1.635c.9.961 2.184 2.287 3.625 3.682s2.768 2.676 3.74 3.568a8.654 8.654 0 0 0 1.693 1.349z" fill="#e0e0e0"/><path data-name="Path 9161" d="M90.833 38.513a8.876 8.876 0 0 0 1.635-1.407c.961-.9 2.287-2.184 3.671-3.625s2.676-2.756 3.568-3.728a9.05 9.05 0 0 0 1.372-1.647 9.586 9.586 0 0 0-1.624 1.407c-.961.9-2.287 2.2-3.682 3.625s-2.687 2.768-3.58 3.74a8.644 8.644 0 0 0-1.36 1.635z" fill="#e0e0e0"/><path data-name="Path 9162" d="M33.811 97.652v-4.335c0-2.813 0-6.862.057-12.111 0-10.407.069-25.24.114-42.989l-.217.217h56.861l-.252-.252v59.47l.217-.217-41.171.114-11.562.057h11.471l41.308.114h.217V37.771h-57.26V38c0 17.806.08 32.685.114 43.138 0 5.181 0 9.252.057 12.054v3.98a2.34 2.34 0 0 0 .046.48z" fill="#e0e0e0"/><path data-name="Path 9163" d="M52.647 58.413h19.03v19.03h-19.03z" fill="#ebebeb"/><path data-name="Path 9164" d="M17.892 127.857h77.984v81.289H17.892z" fill="#e0e0e0"/><path data-name="Path 9165" d="M23.176 127.857h77.984v81.289H23.176z" fill="#fafafa"/><path data-name="Path 9166" d="M23.198 209.178h77.984v-81.346H23.198zm77.984-.057H23.198v-81.2h77.938z" fill="#e0e0e0"/><path data-name="Path 9167" d="M33.651 138.787h57.021v59.434H33.651z" fill="#fafafa"/><path data-name="Path 9168" d="M90.672 198.622a9.992 9.992 0 0 0 1.407 1.635c.915.961 2.2 2.287 3.625 3.671s2.756 2.676 3.728 3.568a9.463 9.463 0 0 0 1.647 1.372 9.067 9.067 0 0 0-1.4-1.635c-.915-.961-2.2-2.287-3.637-3.683s-2.756-2.676-3.728-3.568a8.507 8.507 0 0 0-1.647-1.361z" fill="#e0e0e0"/><path data-name="Path 9169" d="M33.651 198.473a9.363 9.363 0 0 0-1.635 1.407c-.961.9-2.287 2.184-3.671 3.625s-2.676 2.745-3.568 3.717a8.919 8.919 0 0 0-1.372 1.658 8.846 8.846 0 0 0 1.635-1.407c.961-.9 2.287-2.2 3.682-3.625s2.676-2.768 3.568-3.74a8.638 8.638 0 0 0 1.361-1.635z" fill="#e0e0e0"/><path data-name="Path 9170" d="M33.811 138.947a8.716 8.716 0 0 0-1.407-1.647c-.915-.961-2.2-2.287-3.625-3.671s-2.755-2.667-3.728-3.567a9.106 9.106 0 0 0-1.647-1.372 8.846 8.846 0 0 0 1.407 1.635c.9.961 2.184 2.287 3.625 3.682s2.768 2.676 3.74 3.568a9.727 9.727 0 0 0 1.635 1.372z" fill="#e0e0e0"/><path data-name="Path 9171" d="M90.833 139.085a8.845 8.845 0 0 0 1.635-1.407c.961-.9 2.287-2.184 3.671-3.625s2.676-2.745 3.568-3.717a9.515 9.515 0 0 0 1.372-1.647 8.564 8.564 0 0 0-1.624 1.4c-.961.9-2.287 2.2-3.682 3.625s-2.687 2.768-3.58 3.74a8.669 8.669 0 0 0-1.361 1.635z" fill="#e0e0e0"/><path data-name="Path 9172" d="M33.811 198.22v-4.324c0-2.825 0-6.862.057-12.122 0-10.407.069-25.24.114-42.989l-.217.217h56.861l-.252-.252v59.469l.3-.229-41.171.114h-.091l41.308.114h.217v-59.7H33.594v.229c0 17.806.08 32.685.114 43.138 0 5.181 0 9.252.057 12.065v3.968a2.153 2.153 0 0 0 .046.3z" fill="#e0e0e0"/><path data-name="Path 9173" d="M52.647 158.984h19.03v19.03h-19.03z" fill="#ebebeb"/><path data-name="Path 9174" d="M264.505 82.486l-.675 1.144a7.769 7.769 0 0 1-3.179 2.928l-1.144.572 1.144.686a7.628 7.628 0 0 1 2.928 3.179l.583 1.144.675-1.144a7.7 7.7 0 0 1 3.179-2.928l1.144-.583-1.143-.675a7.7 7.7 0 0 1-2.928-3.179z" fill="#e0e0e0"/><path data-name="Path 9175" d="M143.978 50.933l-.675 1.144a7.628 7.628 0 0 1-3.179 2.962l-1.144.583 1.144.675a7.7 7.7 0 0 1 2.928 3.179l.583 1.144.675-1.144a7.769 7.769 0 0 1 3.179-2.928l1.144-.583-1.144-.675a7.7 7.7 0 0 1-2.928-3.179z" fill="#e0e0e0"/><path data-name="Path 9176" d="M205.39 12.725l-.343.56a3.841 3.841 0 0 1-1.59 1.464l-.595.3.56.332a3.837 3.837 0 0 1 1.475 1.6l.286.583.343-.56a3.778 3.778 0 0 1 1.59-1.464l.595-.3-.568-.342a3.855 3.855 0 0 1-1.464-1.59z" fill="#e0e0e0"/><path data-name="Path 9177" d="M158.73 51.356l-.332.56a3.874 3.874 0 0 1-1.6 1.464l-.583.3.56.332a3.881 3.881 0 0 1 1.464 1.6l.3.583.332-.56a3.875 3.875 0 0 1 1.6-1.464l.583-.3-.56-.332a3.879 3.879 0 0 1-1.464-1.6z" fill="#e0e0e0"/><path data-name="Path 9178" d="M202.965 92.596l-.343.56a3.855 3.855 0 0 1-1.59 1.464l-.595.3.572.332a3.881 3.881 0 0 1 1.464 1.6l.3.583.332-.56a3.946 3.946 0 0 1 1.59-1.475l.595-.286-.56-.343a3.881 3.881 0 0 1-1.475-1.59z" fill="#e0e0e0"/><path data-name="Path 9179" d="M149.066 126.848c-.412-3.008 3.843-5.489 7.045-5.718a18.293 18.293 0 0 0 4.575-.389c3.134-1.144 4.38-5.135 7.434-6.427 2.287-.96 4.918-.1 7.136 1.006s4.4 2.516 6.862 2.676c2.15.137 4.494-.663 6.37.389 1.407.789 2.139 2.4 3.431 3.362a8.3 8.3 0 0 0 4.483 1.212 12.584 12.584 0 0 1 4.632.755 3.636 3.636 0 0 1 2.287 3.705z" fill="#ebebeb"/><path data-name="Path 9180" d="M246.562 17.826c-.572-4.14 5.272-7.548 9.652-7.891 2.1-.172 4.277.149 6.256-.549 4.3-1.5 6.016-7.045 10.2-8.817 3.134-1.315 6.747-.137 9.789 1.384s6.038 3.431 9.435 3.671c2.951.194 6.153-.9 8.737.538 1.933 1.075 2.939 3.294 4.712 4.575a11.31 11.31 0 0 0 6.153 1.67 17.438 17.438 0 0 1 6.347 1.029c1.956.9 3.58 2.973 3.179 5.089z" fill="#f5f5f5"/><path data-name="Path 9181" d="M367.991 6.366h132.352V225.44H367.991z" fill="#e0e0e0"/><path data-name="Path 9182" d="M372.395 6.366h132.352V225.44H372.395z" fill="#ebebeb"/><path data-name="Path 9183" d="M378.033 10.804h121.08v210.188h-121.08z" fill="#fafafa"/><path data-name="Path 9184" d="M401.603 38.114h74.45v155.568h-74.45z" fill="#ebebeb"/><path data-name="Path 9185" d="M476.077 138.638c.172-14.536-12.889-28.728-27.287-30.752-6.862-.972-14.147.4-20.585-2.287-11.437-4.704-15.086-19.904-26.601-24.417l-.526 112.441h75z" fill="#e0e0e0"/><path data-name="Path 9186" d="M455.605 77.844a1.257 1.257 0 0 0-.1.309l-.252.915a13.232 13.232 0 0 1-.469 1.487c-.206.572-.423 1.247-.755 1.967l-.5 1.144-.652 1.235a12.02 12.02 0 0 1-.755 1.315c-.286.435-.538.915-.881 1.372a29.608 29.608 0 0 1-12.962 10.578 27.831 27.831 0 0 1-4.929 1.544 47.445 47.445 0 0 1-5.432.755c-3.74.366-7.788.572-11.665 2.127a28.374 28.374 0 0 0-10.156 7.605 36.922 36.922 0 0 0-7 10.613 19.691 19.691 0 0 0-1.4 5.924 22.247 22.247 0 0 0 .366 5.81 70.143 70.143 0 0 0 3.094 10.292 48.5 48.5 0 0 1 2.447 8.966 18.617 18.617 0 0 1-.286 7.594 14.151 14.151 0 0 1-2.482 5.169 10.408 10.408 0 0 1-2.676 2.47c-.7.446-1.144.618-1.144.64a7.365 7.365 0 0 0 1.144-.572 10.274 10.274 0 0 0 2.745-2.447 14 14 0 0 0 2.573-5.2 18.844 18.844 0 0 0 .355-7.7 49.566 49.566 0 0 0-2.424-9.023 71.8 71.8 0 0 1-3.042-10.293 22.66 22.66 0 0 1-.343-5.718 18.987 18.987 0 0 1 1.384-5.8 36.832 36.832 0 0 1 6.93-10.51 28.019 28.019 0 0 1 10.018-7.5c3.785-1.544 7.8-1.75 11.551-2.127a51.547 51.547 0 0 0 5.467-.778 28.213 28.213 0 0 0 5.032-1.51 29.483 29.483 0 0 0 13-10.762c.343-.457.606-.938.881-1.384a14.345 14.345 0 0 0 .743-1.338l.64-1.235.492-1.144a18.287 18.287 0 0 0 .732-1.99 12.575 12.575 0 0 0 .423-1.5c.091-.4.172-.709.217-.926a2.545 2.545 0 0 0 .071-.374z" fill="#455a64"/><path data-name="Path 9187" d="M432.355 65.721l-.252.229-.709.686c-.309.309-.652.72-1.144 1.144a8.53 8.53 0 0 0-1.327 1.738 24.568 24.568 0 0 0-2.825 5.306 25.479 25.479 0 0 0-1.727 7.765 26.608 26.608 0 0 0 .172 4.632 33.354 33.354 0 0 0 1.075 4.918c.949 3.339 2.287 6.77 3.294 10.533a26.783 26.783 0 0 1 .835 5.867 25.019 25.019 0 0 1-.629 6.141 28.585 28.585 0 0 1-5.65 11.665 32.44 32.44 0 0 1-10.03 8.188 38.976 38.976 0 0 1-11.436 3.98c-3.82.709-7.525.892-10.956 1.418a27.673 27.673 0 0 0-9.218 2.79 21.176 21.176 0 0 0-10.293 13.918c-.069.423-.114.743-.16.984a2.3 2.3 0 0 0 0 .332 1.085 1.085 0 0 1 .08-.332 8.137 8.137 0 0 0 .194-.961 23 23 0 0 1 1.144-3.591 21.613 21.613 0 0 1 3.122-5.066 20.585 20.585 0 0 1 6.061-4.986 27.45 27.45 0 0 1 9.149-2.71c3.431-.515 7.125-.686 10.979-1.384a39.773 39.773 0 0 0 11.551-4 32.868 32.868 0 0 0 10.155-8.28 29.3 29.3 0 0 0 5.718-11.768 26.378 26.378 0 0 0 .618-6.233 27.219 27.219 0 0 0-.846-5.947c-.972-3.8-2.379-7.228-3.339-10.544a33.054 33.054 0 0 1-1.144-4.86 25.082 25.082 0 0 1-.194-4.575 25.687 25.687 0 0 1 4.4-12.992c.446-.7.915-1.247 1.292-1.761a6.683 6.683 0 0 1 1.052-1.144l.675-.72a2.685 2.685 0 0 0 .313-.38z" fill="#455a64"/><path data-name="Path 9188" d="M375.528 147.674a6.066 6.066 0 0 0 .892.812 56.454 56.454 0 0 0 2.585 2.07 103 103 0 0 0 8.966 6.2 105.328 105.328 0 0 0 9.572 5.226 65.421 65.421 0 0 0 3 1.372 5.689 5.689 0 0 0 1.144.435 8.728 8.728 0 0 0-1.064-.572l-2.951-1.475c-2.482-1.258-5.867-3.088-9.481-5.318s-6.77-4.437-9.012-6.084l-2.642-1.967a7.812 7.812 0 0 0-1.006-.7z" fill="#455a64"/><path data-name="Path 9189" d="M381.669 142.87a5.189 5.189 0 0 0 .9.538l2.493 1.349c2.1 1.144 4.986 2.768 8.108 4.677s5.867 3.763 7.834 5.123l2.287 1.624a7.078 7.078 0 0 0 .881.56 5.631 5.631 0 0 0-.789-.686 55.893 55.893 0 0 0-2.287-1.715c-1.933-1.43-4.677-3.305-7.8-5.226s-6.038-3.511-8.177-4.574a57.24 57.24 0 0 0-2.562-1.247 6.116 6.116 0 0 0-.892-.423z" fill="#455a64"/><path data-name="Path 9190" d="M390.476 141.018a12.591 12.591 0 0 0 1.773 1.292c1.144.743 2.688 1.75 4.449 2.813s3.374 1.967 4.575 2.607a12.412 12.412 0 0 0 1.967.949 13.207 13.207 0 0 0-1.83-1.144l-4.506-2.7-4.506-2.71a12.061 12.061 0 0 0-1.921-1.109z" fill="#455a64"/><path data-name="Path 9191" d="M398.687 131.297a7.258 7.258 0 0 0 1.338.972l3.305 2.219 3.282 2.287a7.489 7.489 0 0 0 1.4.881 6.086 6.086 0 0 0-1.235-1.144 55.05 55.05 0 0 0-3.225-2.356 40.236 40.236 0 0 0-3.431-2.127 6.3 6.3 0 0 0-1.434-.732z" fill="#455a64"/><path data-name="Path 9192" d="M399.338 122.627c0 .057.972.583 2.539 1.487s3.705 2.219 5.958 3.8 4.22 3.156 5.6 4.323a28.269 28.269 0 0 0 2.287 1.876 4.171 4.171 0 0 0-.526-.595 40.693 40.693 0 0 0-1.567-1.487 58.306 58.306 0 0 0-11.608-8.154c-.8-.423-1.464-.743-1.921-.961a3.156 3.156 0 0 0-.766-.286z" fill="#455a64"/><path data-name="Path 9193" d="M403.628 115.904c-.057.091 3.957 2.985 8.966 6.484s9.149 6.244 9.149 6.164-3.946-3-8.955-6.484-9.092-6.255-9.16-6.164z" fill="#455a64"/><path data-name="Path 9194" d="M407.047 108.321a4.5 4.5 0 0 0 .778.572c.572.389 1.292.881 2.161 1.452 1.83 1.224 4.346 2.939 7.079 4.883s5.158 3.774 6.862 5.1l2.081 1.578a4.52 4.52 0 0 0 .789.538 4.168 4.168 0 0 0-.7-.663c-.457-.4-1.144-.972-2-1.67-1.715-1.384-4.117-3.248-6.862-5.192s-5.284-3.637-7.148-4.8c-.938-.583-1.7-1.041-2.287-1.349a4.287 4.287 0 0 0-.755-.446z" fill="#455a64"/><path data-name="Path 9195" d="M414.103 104.124c-.069.08 3.339 2.55 7.594 5.512s7.765 5.272 7.834 5.192-3.351-2.562-7.605-5.512-7.766-5.284-7.823-5.192z" fill="#455a64"/><path data-name="Path 9196" d="M421.502 99.892a32.366 32.366 0 0 0 3.911 3.374 35.072 35.072 0 0 0 4.152 3.079 34.952 34.952 0 0 0-3.911-3.431 35.074 35.074 0 0 0-4.151-3.019z" fill="#455a64"/><path data-name="Path 9197" d="M426.488 89.268a12.689 12.689 0 0 0 1.67 1.543c1.064.9 2.573 2.127 4.289 3.431s3.305 2.379 4.483 3.145a11.55 11.55 0 0 0 1.956 1.144 14.876 14.876 0 0 0-1.807-1.384c-1.144-.823-2.7-1.956-4.4-3.225s-3.236-2.459-4.346-3.317a14.22 14.22 0 0 0-1.841-1.338z" fill="#455a64"/><path data-name="Path 9198" d="M424.338 82.04a4.576 4.576 0 0 0 .766.595c.492.366 1.235.869 2.15 1.475 1.841 1.224 4.426 2.859 7.342 4.575s5.627 3.111 7.605 4.094c.984.492 1.8.881 2.356 1.144a4.262 4.262 0 0 0 .892.366 5.174 5.174 0 0 0-.823-.492l-2.287-1.247c-1.944-1.041-4.575-2.5-7.537-4.2s-5.512-3.271-7.388-4.437l-2.216-1.37a4.336 4.336 0 0 0-.858-.5z" fill="#455a64"/><path data-name="Path 9199" d="M427.769 74.321a6.249 6.249 0 0 0 .835.629c.549.389 1.349.938 2.356 1.613 2 1.327 4.792 3.134 7.914 5.066s5.97 3.625 8.005 4.815c1.041.595 1.887 1.075 2.482 1.4a6.592 6.592 0 0 0 .938.457 5.523 5.523 0 0 0-.858-.595l-2.424-1.5-8.005-4.906-8.007-4.966-2.425-1.51a5.042 5.042 0 0 0-.812-.5z" fill="#455a64"/><path data-name="Path 9204" d="M65.833 253.871l.343-.16.995-.5 3.831-1.99 14.078-7.4h-.126l43.367 16.571.389.149-.114-.4-1.327-4.792c-3.031-10.933-5.9-21.283-8.417-30.386v-.069l-24.016-18-6.862-5.078-1.818-1.338-.469-.332q-.149-.125-.172-.1l.149.126.457.366 1.784 1.372 6.77 5.158 23.948 18.127-.069-.1c2.516 9.149 5.364 19.442 8.383 30.409.457 1.635.9 3.271 1.327 4.792l.274-.252-43.458-16.457h-.069l-14.009 7.514-3.785 2.047-.983.549z" fill="#016ca4"/><path data-name="Path 9205" d="M122.752 259.863l2.6.766.835 2.573 1.532-2.23h2.71l-1.647-2.15.835-2.573-2.55.9-2.184-1.59.069 2.71z" fill="#016ca4"/><path data-name="Path 9206" d="M115.261 224.126l1.635.595.446 1.693 1.075-1.372 1.75.1-.984-1.452.64-1.624-1.681.48-1.349-1.109-.057 1.75z" fill="#016ca4"/><path data-name="Path 9207" d="M82.427 198.932l1.189 1.8-.789 1.99 2.07-.583 1.647 1.372.091-2.15 1.807-1.144-2.013-.743-.526-2.081-1.338 1.681z" fill="#016ca4"/><path data-name="Path 9208" d="M63.203 251.606l1.2 1.8-.8 1.99 2.07-.583 1.658 1.372.08-2.15 1.818-1.144-2.013-.743-.538-2.081-1.327 1.681z" fill="#016ca4"/><path data-name="Path 9209" d="M83.376 242.789l.766 1.144-.515 1.269 1.327-.377 1.052.881.046-1.372 1.167-.732-1.292-.48-.332-1.327-.858 1.086z" fill="#016ca4"/><g data-name="Group 1466"><path data-name="Path 9211" d="M219.903 64.35a3.58 3.58 0 1 0 1.049-2.531 3.58 3.58 0 0 0-1.049 2.531z" fill="#fff" opacity=".3"/></g><g data-name="Group 1467"><path data-name="Path 9212" d="M224.935 54.012a2.081 2.081 0 1 0 .61-1.472 2.082 2.082 0 0 0-.61 1.472z" fill="#fff" opacity=".3"/></g><path data-name="Path 9220" d="M131.13 171.975c.114 0 .194-16.148.194-36.059s-.08-36.058-.194-36.058-.194 16.136-.194 36.058.094 36.059.194 36.059z" fill="#263238"/><path data-name="Path 9221" d="M128.984 100.477a32.353 32.353 0 0 0 2.447-4.186h-.343v.091a34.947 34.947 0 0 0 2.093 4.494 30.141 30.141 0 0 0-1.738-4.643v-.091l-.16-.366-.183.343a30.2 30.2 0 0 0-2.116 4.358z" fill="#263238"/><path data-name="Path 9222" d="M131.534 91.338c.069.08.663-.309 1.144-1.029s.595-1.418.492-1.441-.377.572-.812 1.235-.892 1.157-.824 1.235z" fill="#263238"/><path data-name="Path 9223" d="M132.667 93.42a13.507 13.507 0 0 0-.915-2.573 12.86 12.86 0 0 0-1.052-2.516 7.612 7.612 0 0 0 .7 2.653 7.508 7.508 0 0 0 1.269 2.436z" fill="#263238"/><path data-name="Path 9224" d="M136.303 109.351a21.4 21.4 0 0 1-.663-2.219 22.441 22.441 0 0 1 0-2.287 4.181 4.181 0 0 0 .663 4.506z" fill="#263238"/><path data-name="Path 9225" d="M135.595 106.341a.717.717 0 0 0 .549.423 1.075 1.075 0 0 0 .789-.137 1.076 1.076 0 0 0-.686-1.99c-.469 0-.629.343-.583.366a2.21 2.21 0 0 1 .595-.091.771.771 0 0 1 .311.06.768.768 0 0 1 .467.764.8.8 0 0 1-.076.308.808.808 0 0 1-.192.253.786.786 0 0 1-.59.194c-.356.012-.539-.194-.584-.15z" fill="#263238"/><path data-name="Path 9226" d="M74.994 166.853c0 .1 13.815.194 30.878.194s30.878-.091 30.878-.194-13.8-.194-30.878-.194-30.878.091-30.878.194z" fill="#263238"/><path data-name="Path 9227" d="M74.364 166.772a9.317 9.317 0 0 0 2.585-.8 9.552 9.552 0 0 0 2.4-1.144 9.057 9.057 0 0 0-2.539.812 9.286 9.286 0 0 0-2.447 1.132z" fill="#263238"/><path data-name="Path 9228" d="M73.69 167.002a12.452 12.452 0 0 0 4.209 1.473 7.1 7.1 0 0 0-2.047-.915 6.444 6.444 0 0 0-2.161-.56z" fill="#263238"/><path data-name="Path 9229" d="M134.04 168.808a1.9 1.9 0 0 0-.8 1.281 2.722 2.722 0 0 0 .126 1.681 1.938 1.938 0 0 0 .618.835 1.051 1.051 0 0 0 1.144 0 2.2 2.2 0 0 0 .892-1.876 1.959 1.959 0 0 0-.686-1.544 1.5 1.5 0 0 0-.508-.287 1.481 1.481 0 0 0-.579-.067c-.274 0-.4.126-.389.137a3.55 3.55 0 0 0 .389 0 1.5 1.5 0 0 1 .9.412 1.721 1.721 0 0 1 .4.607 1.7 1.7 0 0 1 .112.719 1.916 1.916 0 0 1-.732 1.555.7.7 0 0 1-.755 0 1.637 1.637 0 0 1-.515-.663 2.691 2.691 0 0 1-.183-1.487 4.673 4.673 0 0 1 .56-1.3z" fill="#263238"/><path data-name="Path 9230" d="M83.811 169.62s-.217-.126-.515.126a.771.771 0 0 0-.263.618 1.311 1.311 0 0 0 .366.789c.435.48 1.235.663 1.6 1.247a1.03 1.03 0 0 1 0 .995.972.972 0 0 1-.938.469.927.927 0 0 1-.812-.663 1.02 1.02 0 0 1 .194-.984 2.814 2.814 0 0 1 .823-.652 1.2 1.2 0 0 0 .451-.3 1.217 1.217 0 0 0 .281-.46 1 1 0 0 0 0-.451 1.01 1.01 0 0 0-.194-.407 1.279 1.279 0 0 0-.515-.389c-.332-.114-.526-.091-.537-.069a1.369 1.369 0 0 1 .469.206 1.154 1.154 0 0 1 .412.377.776.776 0 0 1 .1.663c-.114.492-1.029.56-1.567 1.258a1.4 1.4 0 0 0-.274 1.327 1.314 1.314 0 0 0 1.144.915 1.349 1.349 0 0 0 1.3-.652 1.393 1.393 0 0 0 0-1.372 2.294 2.294 0 0 0-.915-.755 4.066 4.066 0 0 1-.789-.5 1.062 1.062 0 0 1-.343-.618.652.652 0 0 1 .025-.261.665.665 0 0 1 .124-.231c.145-.226.373-.192.373-.226z" fill="#263238"/><path data-name="Path 9231" d="M83.971 168.179a7.559 7.559 0 0 0 0-3.431 7.556 7.556 0 0 0 0 3.431z" fill="#263238"/><path data-name="Path 9232" d="M67.469 166.922a2.768 2.768 0 0 0 1.052.16l1.144.069a.414.414 0 0 0 .263 0 .317.317 0 0 0 .124-.15.328.328 0 0 0 .014-.193.707.707 0 0 0-.24-.366l-.5-.526a1.671 1.671 0 0 1-.629-1.086.7.7 0 0 1 .48-.709 1.152 1.152 0 0 1 .675.126c.172.069.263.114.286.091s-.057-.1-.206-.217a1.15 1.15 0 0 0-.8-.274.985.985 0 0 0-.789.995 1.966 1.966 0 0 0 .686 1.338l.526.515c.092.08.16.16.16.194h-1.212a3.11 3.11 0 0 0-1.029.034z" fill="#263238"/><path data-name="Path 9233" d="M122.923 166.852v-1.064c0-.675 0-1.67.057-2.825 0-2.4.069-5.718.08-9.515l-.183.194h3.58l-.194-.194v7.592c0 2.287 0 4.231.057 5.8l.114-.114-2.608.057c-.618 0-.961 0-.972.057a7 7 0 0 0 .9 0l2.676.057h.114v-13.506l-.194-.194h-3.66v.183c0 3.877 0 7.251.092 9.641v2.79a6.131 6.131 0 0 0 .137 1.041z" fill="#263238"/><path data-name="Path 9234" d="M88.786 166.855a2.252 2.252 0 0 0 0-.412v-1.144c0-1.029 0-2.424.057-4.151 0-3.5.069-8.348.08-13.849l-.194.183h3.591l-.194-.183v11.322c0 3.317.057 6.13.069 8.188l.1-.1H88.71a6.27 6.27 0 0 0 .9 0l2.688.057h.1v-.1c0-2.059 0-4.872.069-8.188v-11.332l-.194-.194H88.5v.194c0 5.581 0 10.5.08 13.987 0 1.7 0 3.088.057 4.106v1.144c0 .342.149.48.149.472z" fill="#263238"/><path data-name="Path 9235" d="M114.289 166.85a3.071 3.071 0 0 0 0-.5v-1.418c0-1.247 0-3 .057-5.169 0-4.38 0-10.43.08-17.257l-.194.194h3.591c-.389-.389-.1-.1-.194-.183v14.363c0 4.163.057 7.594.08 9.972l.091-.091h.092v-.091c0-2.379 0-5.81.069-9.972v-14.365c-.092-.091.194.183-.194-.206h-3.774v.183c0 6.862.057 12.98.08 17.395 0 2.15 0 3.888.057 5.123v1.372a1.535 1.535 0 0 0 .159.65z" fill="#263238"/><path data-name="Path 9236" d="M105.848 166.773a1.36 1.36 0 0 0 0-.194v-2.79c0-1.91 0-4.643.057-8.005 0-6.793.057-16.182.091-26.727l-.194.194h3.625l-.183-.183v22.77c0 6.5.069 11.7.092 14.867l.069-.069h.046v-.08c0-3.225 0-8.429.08-14.867v-22.77c-.08-.091.194.183-.194-.206h-3.774v.194c0 10.59 0 20.036.08 26.864 0 3.362 0 6.084.057 8.005v2.7c.137.251.137.308.148.297z" fill="#263238"/><path data-name="Path 9237" d="M97.191 166.772v-5c0-3.214 0-7.857.057-13.586 0-11.436 0-27.367.08-45.093l-.194.194h3.591c-.377-.377-.114-.091-.194-.172v39.844c0 11.093.08 19.522.1 23.81h.057v-.069c0-4.289.057-12.717.091-23.81v-39.818c-.091-.091.194.172-.194-.217h-3.774v.217c0 17.783 0 33.714.08 45.23 0 5.718 0 10.293.057 13.541v4.6a.38.38 0 0 0 .243.329z" fill="#263238"/><path data-name="Path 9238" d="M481.108 170.547l-3.053 53.556-89.6-5.112zm-14.97 20.78l-38.54 20.585 37.248 2.093z" fill="#fca700"/><path data-name="Path 9239" d="M472.211 175.223a10.993 10.993 0 0 0 1.418 3.328 10.8 10.8 0 0 0 1.978 3.053 10.871 10.871 0 0 0-1.418-3.362 10.994 10.994 0 0 0-1.978-3.019z" fill="#263238"/><path data-name="Path 9240" d="M458.464 182.325a10.756 10.756 0 0 0 1.418 3.282 10.167 10.167 0 0 0 1.956 2.962 10.437 10.437 0 0 0-1.407-3.282 9.882 9.882 0 0 0-1.967-2.962z" fill="#263238"/><path data-name="Path 9241" d="M444.729 189.428a10.462 10.462 0 0 0 1.738 3.1 9.765 9.765 0 0 0 2.287 2.745 10.452 10.452 0 0 0-1.738-3.111 10.051 10.051 0 0 0-2.287-2.733z" fill="#263238"/><path data-name="Path 9242" d="M431.211 196.85a9.853 9.853 0 0 0 1.738 3.111 10.537 10.537 0 0 0 2.287 2.745 9.866 9.866 0 0 0-1.738-3.111 10.555 10.555 0 0 0-2.287-2.745z" fill="#263238"/><path data-name="Path 9243" d="M417.099 204.088a10.827 10.827 0 0 0 1.578 3.305 10.937 10.937 0 0 0 2.1 2.973 20.816 20.816 0 0 0-3.682-6.279z" fill="#263238"/><path data-name="Path 9244" d="M402.449 211.717a9.456 9.456 0 0 0 1.4 3.134 9.729 9.729 0 0 0 1.944 2.825 9.654 9.654 0 0 0-1.407-3.145 9.263 9.263 0 0 0-1.933-2.813z" fill="#263238"/><path data-name="Path 9245" d="M467.922 177.464c-.149.092.1.869.572 1.761s.972 1.521 1.144 1.441-.1-.869-.572-1.75-.996-1.509-1.144-1.452z" fill="#263238"/><path data-name="Path 9246" d="M463.428 179.696c-.16.08.1.869.572 1.75s.961 1.532 1.144 1.452-.114-.869-.572-1.761-.995-1.51-1.144-1.441z" fill="#263238"/><path data-name="Path 9247" d="M453.398 185.012c-.149.091.1.869.572 1.761s.972 1.532 1.144 1.441-.1-.869-.572-1.75-.996-1.53-1.144-1.452z" fill="#263238"/><path data-name="Path 9248" d="M448.893 187.266c-.149.08.1.869.572 1.75s.972 1.532 1.144 1.452-.1-.869-.572-1.761-.984-1.521-1.144-1.441z" fill="#263238"/><path data-name="Path 9249" d="M439.823 192.344c-.16.08.1.869.572 1.75s.961 1.532 1.144 1.452-.1-.869-.572-1.761-.995-1.51-1.144-1.441z" fill="#263238"/><path data-name="Path 9250" d="M435.523 194.563c-.16.08.1.869.572 1.75s.961 1.532 1.144 1.452-.1-.881-.572-1.761a3.376 3.376 0 0 0-1.144-1.441z" fill="#263238"/><path data-name="Path 9251" d="M426.249 199.411c-.149.091.1.869.572 1.761s.961 1.521 1.144 1.441-.1-.869-.572-1.75-.996-1.532-1.144-1.452z" fill="#263238"/><path data-name="Path 9252" d="M421.262 202.053c-.149.091.1.869.572 1.761s.972 1.532 1.144 1.441-.1-.869-.572-1.75-.996-1.53-1.144-1.452z" fill="#263238"/><path data-name="Path 9253" d="M412.296 206.777c-.149.08.1.869.572 1.75s.972 1.532 1.144 1.452-.1-.869-.572-1.761-.984-1.521-1.144-1.441z" fill="#263238"/><path data-name="Path 9254" d="M407.127 209.429c-.149.091.1.881.572 1.761s.972 1.532 1.144 1.441-.1-.869-.572-1.75-.992-1.532-1.144-1.452z" fill="#263238"/><path data-name="Path 9255" d="M327.862 96.028V84.82c0-7.091.057-17.154.091-29.323l-.172.16h40.53l-.183-.194v40.53l.16-.172-29.323.091h-.114l29.437.08h.286v-40.9H327.69v.172c0 12.168.057 22.312.08 29.437v11.098z" fill="#ff725e"/><path data-name="Path 9256" d="M327.861 96.031a2.838 2.838 0 0 0-.309-.217l-.926-.595-3.591-2.288-13.2-8.154.069.126V44.975l-.183.194h39.993l13.644 7.582 3.728 2.081.972.526.332.172a3.674 3.674 0 0 0-.309-.206l-.961-.572-3.682-2.139-13.541-7.777h-40.254v40.2h.069l13.266 8.108 3.625 2.2.949.56z" fill="#ff725e"/><path data-name="Path 9257" d="M309.77 44.931c-.057.091 3.946 2.527 8.943 5.444s9.149 5.215 9.149 5.123-3.946-2.527-8.955-5.455-9.092-5.2-9.137-5.112z" fill="#ff725e"/><path data-name="Path 9258" d="M366.471 94.358a2.135 2.135 0 0 0 .869.72c.526.3 1.006.48 1.052.389s-.332-.412-.858-.72-1.006-.48-1.063-.389z" fill="#ff725e"/><path data-name="Path 9259" d="M362.628 92.15c-.057.091.332.423.869.72s1.006.48 1.052.389-.332-.412-.869-.72-.995-.48-1.052-.389z" fill="#ff725e"/><path data-name="Path 9260" d="M358.786 89.943c-.057.091.332.423.858.72s1.006.48 1.064.389-.332-.412-.869-.72-1.008-.48-1.053-.389z" fill="#ff725e"/><path data-name="Path 9261" d="M354.936 87.736a2.234 2.234 0 0 0 .869.72c.526.309 1.006.48 1.064.389s-.343-.412-.869-.72-1.012-.48-1.064-.389z" fill="#ff725e"/><path data-name="Path 9262" d="M351.089 85.528c0 .092.332.412.869.72s1.006.48 1.052.389-.332-.412-.858-.72-1.006-.479-1.063-.389z" fill="#ff725e"/><path data-name="Path 9263" d="M350.114 81.654c-.1 0-.183.492-.183 1.144s.091 1.144.206 1.144.183-.492.183-1.144-.1-1.158-.206-1.144z" fill="#ff725e"/><path data-name="Path 9264" d="M350.083 77.214c-.1 0-.194.492-.183 1.144s.092 1.144.194 1.144.194-.5.194-1.144-.102-1.144-.205-1.144z" fill="#ff725e"/><path data-name="Path 9265" d="M350.048 72.778c-.1 0-.194.5-.183 1.144s.091 1.144.194 1.144.194-.5.194-1.144-.102-1.144-.205-1.144z" fill="#ff725e"/><path data-name="Path 9266" d="M350.011 68.339c-.1 0-.194.5-.183 1.144s.092 1.144.194 1.144.194-.492.183-1.144-.088-1.144-.194-1.144z" fill="#ff725e"/><path data-name="Path 9267" d="M349.98 63.914c-.1 0-.194.492-.183 1.144s.091 1.144.194 1.144.194-.492.183-1.144-.091-1.144-.194-1.144z" fill="#ff725e"/><path data-name="Path 9268" d="M349.945 59.478c-.114 0-.194.492-.183 1.144s.091 1.144.194 1.144.194-.5.183-1.144-.091-1.144-.194-1.144z" fill="#ff725e"/><path data-name="Path 9269" d="M349.911 55.039c-.114 0-.194.5-.183 1.144s.092 1.144.194 1.144.194-.5.183-1.144-.087-1.144-.194-1.144z" fill="#ff725e"/><path data-name="Path 9270" d="M349.876 50.602c-.114 0-.194.5-.183 1.144s.091 1.144.194 1.144.194-.492.183-1.144-.091-1.144-.194-1.144z" fill="#ff725e"/><path data-name="Path 9271" d="M349.842 46.176c-.114 0-.194.492-.183 1.144s.092 1.144.194 1.144.194-.492.183-1.144-.091-1.144-.194-1.144z" fill="#ff725e"/><path data-name="Path 9272" d="M311.976 84.866c0-.091-.492-.172-1.144-.172s-1.144.08-1.144.172.492.183 1.144.183 1.144-.08 1.144-.183z" fill="#ff725e"/><path data-name="Path 9273" d="M316.414 84.866c0-.091-.492-.172-1.144-.172s-1.144.08-1.144.172.5.183 1.144.183 1.144-.08 1.144-.183z" fill="#ff725e"/><path data-name="Path 9274" d="M320.851 84.866c0-.091-.492-.172-1.144-.172s-1.144.08-1.144.172.492.183 1.144.183 1.144-.08 1.144-.183z" fill="#ff725e"/><path data-name="Path 9275" d="M325.291 84.866c0-.091-.5-.172-1.144-.172s-1.144.08-1.144.172.492.183 1.144.183 1.144-.08 1.144-.183z" fill="#ff725e"/><path data-name="Path 9276" d="M329.691 84.866c0-.091-.492-.172-1.144-.172s-1.144.08-1.144.172.492.183 1.144.183 1.144-.08 1.144-.183z" fill="#ff725e"/><path data-name="Path 9277" d="M334.151 84.866c0-.091-.492-.172-1.144-.172s-1.144.08-1.144.172.5.183 1.144.183 1.144-.08 1.144-.183z" fill="#ff725e"/><path data-name="Path 9278" d="M338.589 84.866c0-.091-.492-.172-1.144-.172s-1.144.08-1.144.172.492.183 1.144.183 1.144-.08 1.144-.183z" fill="#ff725e"/><path data-name="Path 9279" d="M343.026 84.866c0-.091-.5-.172-1.144-.172s-1.144.08-1.144.172.492.183 1.144.183 1.144-.08 1.144-.183z" fill="#ff725e"/><path data-name="Path 9280" d="M347.452 84.866c0-.091-.492-.172-1.144-.172s-1.144.08-1.144.172.492.183 1.144.183 1.144-.08 1.144-.183z" fill="#ff725e"/><path data-name="Path 9281" d="M350.14 84.866c0-.091-.1-.172-.229-.172s-.24.08-.24.172a.222.222 0 0 0 .24.183.209.209 0 0 0 .081-.007.205.205 0 0 0 .071-.037.211.211 0 0 0 .053-.062.2.2 0 0 0 .024-.077z" fill="#ff725e"/><path data-name="Path 9282" d="M304.863 71.361a5.255 5.255 0 0 1-1.018 0 3.164 3.164 0 0 1-2.1-1.59 4.252 4.252 0 0 1 .114-3.854 1.145 1.145 0 0 1 .8-.64 1.417 1.417 0 0 1 1.029.274 4.891 4.891 0 0 1 1.292 2.15 9.967 9.967 0 0 1 .572 2.756h.377c0-2.939.057-5.5.057-7.331v-2.15a3.277 3.277 0 0 0 0-.778 3.95 3.95 0 0 0-.08.778 19.3 19.3 0 0 1-.091 2.15 428.16 428.16 0 0 0-.194 7.331h.377a10.319 10.319 0 0 0-.595-2.859 11.426 11.426 0 0 0-.549-1.258 3.124 3.124 0 0 0-.869-1.064 1.773 1.773 0 0 0-1.327-.343 1.556 1.556 0 0 0-1.029.823 4.481 4.481 0 0 0 0 4.174 3.189 3.189 0 0 0 2.287 1.59 2.4 2.4 0 0 0 .778 0 .72.72 0 0 0 .172-.16z" fill="#ff725e"/><path data-name="Path 9283" d="M445.156 261.156a1.316 1.316 0 0 1 .469.137c.309.137.766.24 1.349.48a26.4 26.4 0 0 1 4.872 2.539 27.017 27.017 0 0 1 6.4 5.89 23.822 23.822 0 0 1 4.78 10.43 23.219 23.219 0 0 1-1.773 13.723 21.574 21.574 0 0 1-4.46 6.4 20.714 20.714 0 0 1-3.191 2.585c-.606.343-1.144.709-1.83 1.029s-1.258.629-1.933.869c-5.329 2.116-11.436 2.207-17.566 1.624-3.065-.3-6.153-.743-9.3-1.235a56.158 56.158 0 0 1-9.412-2.184 23.835 23.835 0 0 1-8.429-4.735 19.068 19.068 0 0 1-3.088-3.637 19.647 19.647 0 0 1-1.978-4.266 22.105 22.105 0 0 1-.9-9.023 24.145 24.145 0 0 1 2.493-8.314 27.779 27.779 0 0 1 11.345-11.162 37.555 37.555 0 0 1 13.289-4.231 52.015 52.015 0 0 1 11.528-.08 77.039 77.039 0 0 1 8.589 1.407c2.287.526 4.117 1.006 5.329 1.338l1.372.4.469.16-.48-.114-1.384-.355a124.202 124.202 0 0 0-5.341-1.258 77.182 77.182 0 0 0-8.589-1.315 51 51 0 0 0-11.436.137 37.511 37.511 0 0 0-13.14 4.243 27.448 27.448 0 0 0-11.146 11.029 23.6 23.6 0 0 0-2.413 8.188 21.8 21.8 0 0 0 .892 8.84 18.756 18.756 0 0 0 1.921 4.163 18.365 18.365 0 0 0 3 3.545 23.636 23.636 0 0 0 8.268 4.643 56.17 56.17 0 0 0 9.355 2.161c3.122.492 6.221.938 9.263 1.235 6.061.583 12.134.5 17.372-1.578a20.32 20.32 0 0 0 11.219-10.636 23.027 23.027 0 0 0 1.807-13.518 23.738 23.738 0 0 0-4.677-10.293 27.3 27.3 0 0 0-6.29-5.89 28.625 28.625 0 0 0-4.815-2.607c-.583-.24-1.029-.389-1.338-.515z" fill="#263238"/><path data-name="Path 9284" d="M414.621 290.707a3.616 3.616 0 0 1-.926.114l-2.55.126h-.846a3.549 3.549 0 0 1-.972 0 .833.833 0 0 1-.48-.389 1.4 1.4 0 0 1-.149-.549l-.069-1.041c-.08-1.441-.172-3-.263-4.574s-.194-3.191-.206-4.643a4.131 4.131 0 0 1 .48-2.047 2.882 2.882 0 0 1 1.4-1.144 5.834 5.834 0 0 1 2.573-.286 3.01 3.01 0 0 1 .926.172 5.347 5.347 0 0 1-.938 0 6.046 6.046 0 0 0-2.436.4 2.473 2.473 0 0 0-1.144 1.086 3.844 3.844 0 0 0-.4 1.853c0 1.4.172 2.985.24 4.575s.16 3.191.24 4.574c.069.675-.08 1.521.389 1.635a2.994 2.994 0 0 0 .858 0h3.431a3.37 3.37 0 0 1 .846.137z" fill="#263238"/><path data-name="Path 9285" d="M413.34 283.216a6.669 6.669 0 0 1-2.379.274 6.528 6.528 0 0 1-2.39-.183 6.393 6.393 0 0 1 2.379-.274 6.5 6.5 0 0 1 2.39.183z" fill="#263238"/><path data-name="Path 9286" d="M425.234 281.09a20.232 20.232 0 0 1-3.625.183 22.977 22.977 0 0 1-3.614 0 10.74 10.74 0 0 1 3.6-.492 11.223 11.223 0 0 1 3.639.309z" fill="#263238"/><path data-name="Path 9287" d="M425.943 286.557a11.628 11.628 0 0 1-3.591.252 11.359 11.359 0 0 1-3.557-.423 18.6 18.6 0 0 1 3.568 0 19.926 19.926 0 0 1 3.58.171z" fill="#263238"/><path data-name="Path 9288" d="M445.168 289.839v-1.4a13.877 13.877 0 0 0-.686-3.751 3.82 3.82 0 0 0-1.327-2.161 1.143 1.143 0 0 0-1.247.08 3.134 3.134 0 0 0-.949 1.144 16.012 16.012 0 0 0-1.144 7.1h-.446a30.114 30.114 0 0 0-.069-5.261 20.96 20.96 0 0 0-.3-2.116 2.744 2.744 0 0 0-.961-1.647 1.431 1.431 0 0 0-1.67 0 2.541 2.541 0 0 0-1.052 1.441 9.778 9.778 0 0 0-.32 1.818 24.28 24.28 0 0 0-.149 1.784 28.123 28.123 0 0 0 0 3.259h-.355c-.091-2.573-.172-4.677-.229-6.221v-1.693a2.4 2.4 0 0 1 0-.595 3.145 3.145 0 0 1 .08.595l.137 1.693c.091 1.532.229 3.637.389 6.2h-.355a31.016 31.016 0 0 1 0-3.294 17.54 17.54 0 0 1 .137-1.807 9.6 9.6 0 0 1 .332-1.9 2.987 2.987 0 0 1 1.212-1.693 2.083 2.083 0 0 1 1.144-.32 1.949 1.949 0 0 1 1.144.377 3.194 3.194 0 0 1 1.144 1.91 20.326 20.326 0 0 1 .32 2.173 31.01 31.01 0 0 1 0 5.341h-.441a16.014 16.014 0 0 1 1.258-7.262 3.355 3.355 0 0 1 1.144-1.3 1.5 1.5 0 0 1 1.624-.08 4.062 4.062 0 0 1 1.43 2.367 13.3 13.3 0 0 1 .572 3.843 5.077 5.077 0 0 1-.057 1.041 1.4 1.4 0 0 1-.309.332z" fill="#263238"/><path data-name="Path 9289" d="M455.186 289.118a1.778 1.778 0 0 1-.549.389 4.335 4.335 0 0 1-1.773.435 4.639 4.639 0 0 1-2.63-.721 4.575 4.575 0 0 1-1.464-6.05 4.694 4.694 0 0 1 2.013-1.841 4.29 4.29 0 0 1 1.773-.423 1.6 1.6 0 0 1 .663.091 6.607 6.607 0 0 0-2.287.618 4.579 4.579 0 0 0-1.784 1.761 4.311 4.311 0 0 0 1.327 5.5 4.5 4.5 0 0 0 2.4.743 6.275 6.275 0 0 0 2.31-.5z" fill="#263238"/><path data-name="Path 9290" d="M457.885 276.16a23.431 23.431 0 0 0-5.089.881l-.766.252.572-.583a15.933 15.933 0 0 0 2.836-3.431 5.144 5.144 0 0 0 .595-3.511c-.126-.537-.446-.961-.881-.972a2.793 2.793 0 0 0-1.292.343 5.053 5.053 0 0 0-1.578 1.269c-.309.377-.435.629-.469.606a1.524 1.524 0 0 1 .332-.709 4.342 4.342 0 0 1 1.567-1.441 2.952 2.952 0 0 1 1.464-.446 1.146 1.146 0 0 1 .835.4 2.01 2.01 0 0 1 .423.835 5.432 5.432 0 0 1-.595 3.843 14.777 14.777 0 0 1-2.962 3.534l-.194-.343a14.14 14.14 0 0 1 3.751-.595 4.135 4.135 0 0 1 1.451.068z" fill="#263238"/><path data-name="Path 9296" d="M333.065 408.604a3.156 3.156 0 0 0 .194-.5c.114-.377.274-.858.469-1.475l.732-2.367a7.051 7.051 0 0 1 1.327-2.962 9.465 9.465 0 0 1 3.431-2.1 27.579 27.579 0 0 1 4.643-1.3 68.914 68.914 0 0 1 11.436-1.144h.309v-.3l-3.362-21.923c-2.161-13.8-4.128-26.3-5.558-35.453-.743-4.483-1.338-8.131-1.761-10.716-.206-1.224-.377-2.2-.5-2.916a3.144 3.144 0 0 0-.149-.755.748.748 0 0 0-.069-.252.679.679 0 0 0 0 .263 2.509 2.509 0 0 0 .091.766c.092.72.229 1.693.389 2.928.377 2.6.915 6.256 1.567 10.75 1.4 9.149 3.294 21.626 5.4 35.453 1.235 7.891 2.39 15.359 3.431 21.912l.263-.309a68.195 68.195 0 0 0-11.562 1.292 27.457 27.457 0 0 0-4.7 1.384 9.526 9.526 0 0 0-3.534 2.287 4.274 4.274 0 0 0-.892 1.59l-.423 1.521c-.263.926-.48 1.727-.663 2.39s-.3 1.144-.389 1.5a2.5 2.5 0 0 0-.114.446z" fill="#263238"/><path data-name="Path 9297" d="M384.357 417.935a6.433 6.433 0 0 0-.3-1.532 23.823 23.823 0 0 0-1.441-4.014 27.32 27.32 0 0 0-21.855-15.908 23.827 23.827 0 0 0-4.254-.137 7.066 7.066 0 0 0-1.555.194 51.117 51.117 0 0 1 5.718.355 28.194 28.194 0 0 1 21.535 15.668 54.051 54.051 0 0 1 2.15 5.375z" fill="#263238"/><path data-name="Path 9298" d="M375.746 387.538a2.856 2.856 0 0 0-.892-.08 18.987 18.987 0 0 0-2.459.114 28.041 28.041 0 0 0-7.857 1.967 28.662 28.662 0 0 0-6.976 4.128 18.369 18.369 0 0 0-1.818 1.647c-.4.423-.618.663-.583.7s1.006-.8 2.653-2.013a32.958 32.958 0 0 1 14.638-6.016c2.024-.298 3.294-.344 3.294-.447z" fill="#263238"/><path data-name="Path 9303" d="M346.206 443.999a1.69 1.69 0 0 0 .286.309 7.9 7.9 0 0 0 .926.789 14.49 14.49 0 0 0 3.934 2.081 22.543 22.543 0 0 0 6.5 1.144 59.419 59.419 0 0 0 8.005-.286c5.718-.492 10.8-1.327 14.467-1.979 1.841-.332 3.328-.618 4.346-.835a7.764 7.764 0 0 0 1.59-.389 9.8 9.8 0 0 0-1.624.16l-4.38.64c-3.682.56-8.783 1.315-14.455 1.807a64.968 64.968 0 0 1-8.005.332 23.319 23.319 0 0 1-6.381-1.029 19.655 19.655 0 0 1-5.2-2.745z" fill="#263238"/><path data-name="Path 9326" d="M207.941 199.581a20.726 20.726 0 0 1-3.431-5.519 21.021 21.021 0 0 1-.995-6.439 4.564 4.564 0 0 0-.343 1.944 12.64 12.64 0 0 0 .778 4.7 12.421 12.421 0 0 0 2.47 4.071c.835.889 1.475 1.301 1.521 1.243z" fill="#fff"/><path data-name="Path 9327" d="M205.172 181.514c-.091-.137-.743.194-1.144.972s-.229 1.487-.069 1.475.3-.595.606-1.224.71-1.097.607-1.223z" fill="#fff"/><path data-name="Path 9330" d="M212.505 223.508a4.831 4.831 0 0 1-3.042.183 5.971 5.971 0 0 1-2.8-1.727 7.249 7.249 0 0 1-1.807-3.591 6.519 6.519 0 0 1 .48-3.98 7.283 7.283 0 0 1 2.047-2.619 11.909 11.909 0 0 1 2.745-1.5 1.974 1.974 0 0 0-.858.114 6.681 6.681 0 0 0-2.15 1.041 7.5 7.5 0 0 0-2.287 2.733 6.859 6.859 0 0 0-.572 4.311 7.651 7.651 0 0 0 2.013 3.877 6.176 6.176 0 0 0 3.1 1.75 4.255 4.255 0 0 0 2.39-.126c.534-.215.763-.443.741-.466z" fill="#e0e0e0"/><path data-name="Path 9340" d="M116.187 413.391s.766-15 16.32-18.115 42.79 10.115 42.79 10.115l76.326 53.19-2.287 6.576-77.47-10.8-7.091 2.722-54.414-35.75-51.344-37.119 5.718-4.472s14.387 9.915 23.9 14.181 23.275 11.745 27.552 19.472z" fill="#f5f5f5"/><path data-name="Path 9341" d="M252.805 467.33l-64.592-40.13-68.286-10.967s-3.431 4.963-9.229 3.751l-56.152-38.883-1.064 2.344 108.9 76.509a9.339 9.339 0 0 0 9.481-1.853z" fill="#1b2931"/><path data-name="Path 9342" d="M119.927 416.232a2.5 2.5 0 0 0 .526.435l1.578 1.144a231.61 231.61 0 0 1 5.718 4.22c4.849 3.6 11.436 8.737 18.55 14.558s13.506 11.23 18.081 15.176l5.455 4.689 1.487 1.258a2.643 2.643 0 0 0 .538.412 4.707 4.707 0 0 0-.457-.492l-1.407-1.35c-1.235-1.144-3.031-2.813-5.295-4.815-4.506-4.026-10.83-9.469-17.978-15.313s-13.724-10.922-18.675-14.444a150.045 150.045 0 0 0-5.89-4.071l-1.635-1.052a3.765 3.765 0 0 0-.596-.355z" fill="#263238"/><path data-name="Path 9343" d="M120.624 407.883c6.187-6.645 15.931-9.012 24.988-8.3s17.646 4.083 26.1 7.434l79.013 54.082-.709 2.036-79.437-53.751s-17.749-5.718-25.606-6.7c-13.13-1.64-24.349 5.199-24.349 5.199z" fill="#e0e0e0"/><path data-name="Path 9344" d="M108.226 415l-37.99-25.633s31.13 16.194 37.99 25.633z" fill="#e0e0e0"/><path data-name="Path 9345" d="M250.724 461.097a2.017 2.017 0 0 0-.32-.263l-.983-.7-3.785-2.665-14-9.7-46.317-31.8-13.449-9.149a95.314 95.314 0 0 0-24.016-7.216 35.926 35.926 0 0 0-19.693 2.779 24.446 24.446 0 0 0-6.3 4.231 18.631 18.631 0 0 0-3.522 4.472 14.739 14.739 0 0 0-1.372 3.305c-.08.377-.149.675-.206.9a2.563 2.563 0 0 0-.057.309 18.723 18.723 0 0 1 1.807-4.414 19.156 19.156 0 0 1 3.545-4.357 25.253 25.253 0 0 1 6.267-4.117 35.9 35.9 0 0 1 19.442-2.607 96.14 96.14 0 0 1 23.833 7.171h-.057l13.451 9.151 46.351 31.69 14.112 9.549 3.843 2.562 1.018.663a2.134 2.134 0 0 0 .412.206z" fill="#263238"/><path data-name="Path 9346" d="M181.557 420.212a2.524 2.524 0 0 0-.595-.366c-.4-.217-.995-.549-1.761-.938a137.8 137.8 0 0 0-6.633-3.2 86.251 86.251 0 0 0-23.181-7.1 50.542 50.542 0 0 0-24.016 2.2 36.406 36.406 0 0 0-6.645 3.191 14.758 14.758 0 0 0-1.67 1.144 3.749 3.749 0 0 0-.56.423s.835-.48 2.344-1.338a40.4 40.4 0 0 1 6.667-2.985 51.741 51.741 0 0 1 23.822-2 91.517 91.517 0 0 1 23.09 6.862 231.05 231.05 0 0 1 6.7 3.031l1.807.835a3.39 3.39 0 0 0 .629.252z" fill="#263238"/><path data-name="Path 9347" d="M61.053 382.598a4.779 4.779 0 0 0 .492.377l1.475.983 5.478 3.522c4.643 2.973 11.036 7.079 18.046 11.7s13.278 8.863 17.852 11.951l5.409 3.637 1.487.972a2.419 2.419 0 0 0 .538.3 2.9 2.9 0 0 0-.469-.4l-1.43-1.064a308.22 308.22 0 0 0-5.3-3.8c-4.506-3.168-10.773-7.479-17.795-12.1s-13.46-8.669-18.149-11.551a315.379 315.379 0 0 0-5.581-3.362l-1.544-.892a3.134 3.134 0 0 0-.509-.273z" fill="#263238"/><path data-name="Path 9349" d="M119.263 443.016a8.084 8.084 0 0 0 5.718-4.8c-.149-.091-1.075 1.327-2.653 2.642s-3.145 1.986-3.065 2.158z" fill="#eb996e"/><path data-name="Path 9350" d="M116.656 429.213c0-.069-.423-.194-1.144-.1a4.957 4.957 0 0 0-3.972 3.276c-.217.663-.183 1.144-.1 1.144a8.959 8.959 0 0 1 2.013-2.836 9.159 9.159 0 0 1 3.203-1.484z" fill="#eb996e"/><path data-name="Path 9351" d="M115.158 435.582c.172 0 .252-1.7.926-3.648s1.624-3.374 1.487-3.431a6.394 6.394 0 0 0-2.047 3.282 6.3 6.3 0 0 0-.366 3.8z" fill="#eb996e"/><path data-name="Path 9352" d="M96.391 422.076c0 .057.4-.172.812-.72a5.245 5.245 0 0 0 .572-5.089c-.275-.618-.583-.926-.64-.881a7.483 7.483 0 0 1-.743 6.69z" fill="#eb996e"/><path data-name="Path 9353" d="M125.062 450.999a4.994 4.994 0 0 0 2.23 0 14.873 14.873 0 0 0 5.032-1.876 27.8 27.8 0 0 0 4.334-3.145 7.453 7.453 0 0 0 1.567-1.555 8.907 8.907 0 0 0-1.83 1.224 42.908 42.908 0 0 1-4.369 2.962 17.993 17.993 0 0 1-4.815 1.978 19.46 19.46 0 0 0-2.149.412z" fill="#eb996e"/><path data-name="Path 9354" d="M119.755 447.73c-.16 0-.172 1.144.789 2.093s2.127.9 2.1.743-.9-.389-1.681-1.144-1.036-1.718-1.208-1.692z" fill="#eb996e"/><path data-name="Path 9355" d="M111.968 442.012c-.069 0-.069.309.149.72a2.815 2.815 0 0 0 1.292 1.144 2.874 2.874 0 0 0 1.727.252c.457-.091.686-.274.652-.343a5.53 5.53 0 0 1-2.127-.446c-1.076-.541-1.531-1.387-1.693-1.327z" fill="#eb996e"/><path data-name="Path 9356" d="M139.437 454.991c.057.149 7.639-3.008 16.926-7.068s16.766-7.479 16.651-7.617-7.651 3.019-16.937 7.079-16.708 7.457-16.64 7.606z" fill="#eb996e"/><path data-name="Path 9357" d="M5.861 465.187c0 .16 115.3.3 257.488.3s257.511-.137 257.511-.3-115.278-.3-257.511-.3-257.488.133-257.488.3z" fill="#263238"/><path data-name="Path 9358" d="M506.131 343.361l-24.817 121.83h-215.4a4.3 4.3 0 0 1-4.3-4.3 4.3 4.3 0 0 1 4.3-4.311h43.364l23.01-113.345a4.691 4.691 0 0 1 4.575-3.763l164.6-1.761a4.712 4.712 0 0 1 4.666 5.65z" fill="#8ad6fb"/><path data-name="Path 9359" d="M506.13 343.359l.069-.366a4.7 4.7 0 0 0 0-1.144 4.76 4.76 0 0 0-2.287-3.557 4.578 4.578 0 0 0-1.418-.572 8.224 8.224 0 0 0-1.693-.1h-3.877l-9.7.08-62.248.583-43.389.446-24.314.24-12.74.137-6.519.069h-1.67a5.022 5.022 0 0 0-1.67.492 4.908 4.908 0 0 0-2.356 2.47 7.653 7.653 0 0 0-.457 1.658l-.332 1.635c-.217 1.144-.446 2.2-.675 3.294q-.664 3.306-1.35 6.656l-2.756 13.552q-2.791 13.724-5.718 28.053c-3.877 19.1-7.925 38.963-12.077 59.469l.286-.229h-42.645a8.614 8.614 0 0 0-1.681.1 4.6 4.6 0 0 0-1.235 8.543 4.692 4.692 0 0 0 2.036.549h215.78v-.183c7.594-37.454 13.724-67.909 18.035-89.02 2.127-10.544 3.774-18.756 4.895-24.336q.823-4.186 1.258-6.347c.286-1.441.412-2.173.412-2.173s-.172.732-.469 2.15-.755 3.568-1.327 6.336c-1.144 5.581-2.848 13.781-5.021 24.325-4.323 21.1-10.556 51.543-18.229 88.974l.229-.183-101.129-.06H265.762a4.157 4.157 0 0 1-1.761-.469 4.042 4.042 0 0 1-2.047-2.916 4.107 4.107 0 0 1 .663-2.893 4.064 4.064 0 0 1 2.459-1.635 8.531 8.531 0 0 1 1.555-.087h42.886v-.229c4.151-20.482 8.188-40.347 12.054-59.469q2.916-14.341 5.718-28.065l2.745-13.552c.446-2.23.9-4.449 1.35-6.645.217-1.144.446-2.207.663-3.294l.332-1.647a8.142 8.142 0 0 1 .412-1.555 4.458 4.458 0 0 1 3.614-2.653h1.613l6.519-.08 12.751-.137 24.3-.286 43.4-.515 62.248-.766 9.687-.126 3.877-.057a7.227 7.227 0 0 1 1.67.091 4.6 4.6 0 0 1 1.4.538 4.7 4.7 0 0 1 2.287 3.431 6.863 6.863 0 0 1-.023 1.475z" fill="#263238"/><path data-name="Path 9360" d="M413.988 406.226a7.113 7.113 0 1 1 7.113-7.113 7.114 7.114 0 0 1-7.113 7.113z" fill="#fff"/><path data-name="Path 9361" d="M505.925 344.377h-11.288l-30.8.149-101.612.709-14.7.126h-3.607a9.273 9.273 0 0 0-1.841.114 5.148 5.148 0 0 0-3.934 3.671c-.274 1.144-.469 2.287-.709 3.431l-5.249 26.463c-3.328 16.869-6.336 32.022-8.852 44.819s-4.577 23.067-5.924 30.215c-.686 3.557-1.212 6.324-1.578 8.223-.172.926-.309 1.647-.4 2.15s-.114.732-.114.732.069-.24.172-.72.263-1.212.457-2.139l1.693-8.154c1.441-7.148 3.522-17.452 6.107-30.18s5.6-27.939 8.978-44.8c1.681-8.429 3.431-17.28 5.284-26.452.24-1.144.446-2.287.7-3.431a4.574 4.574 0 0 1 1.944-2.63 4.441 4.441 0 0 1 1.544-.618 8.507 8.507 0 0 1 1.738-.1h3.6l14.7-.114 101.612-.892 30.8-.343 8.371-.229h2.916z" fill="#263238"/><g data-name="Group 1704"><path data-name="Path 20304" d="M58.548 253.514L1.431 273.065l42.312 17.095z" fill="none" stroke="#f38697" stroke-miterlimit="10"/><path data-name="Path 20305" d="M45.208 286.531l-3.626-1.465-1.465 3.626 3.626 1.465z" fill="none" stroke="#f38697" stroke-miterlimit="10"/><path data-name="Path 20306" d="M40.677 274.691l-13.219-5.34a1.05 1.05 0 0 0-1.367.58l-.7 1.722a1.05 1.05 0 0 0 .581 1.367l13.218 5.341a1.05 1.05 0 0 0 1.367-.58l.7-1.723a1.05 1.05 0 0 0-.58-1.367z" fill="#8c55b4"/><path data-name="Path 20307" d="M38.107 281.052l-13.219-5.338a1.05 1.05 0 0 0-1.366.58l-.7 1.723a1.049 1.049 0 0 0 .58 1.367l13.219 5.341a1.049 1.049 0 0 0 1.366-.581l.7-1.722a1.049 1.049 0 0 0-.58-1.37z" fill="#8c55b4"/></g><path data-name="Path 20308" d="M213.981 47.92a24.275 24.275 0 0 1 29.313-14.57l2.333-6.04 10.244 3.957-22.124 57.176-10.233-3.967 2.336-6.041a24.276 24.276 0 0 1-11.869-30.515zm10.269 3.974a13.276 13.276 0 0 0 5.608 16.187l9.433-24.379a13.276 13.276 0 0 0-15.041 8.192z" fill="#3b9ed4"/><g data-name="Group 1703"><path data-name="Path 19942" d="M118.817 27l-2.833 19.817 15.749 12.361 18.579-7.451 2.832-19.822-15.746-12.36z" fill="#f07080"/><path data-name="Path 19943" d="M124.839 33.948c.651-1.132 1.271-2.239 1.927-3.331a3.51 3.51 0 0 1 3.377-1.649 66.73 66.73 0 0 1 5.611.439c3.346.431 6.684.957 10.021 1.442l.434.062-.447 3.133-4.841-.687c-.158.809-.281 1.6-.469 2.371-.4 1.747-.834 3.487-1.227 5.237a12.712 12.712 0 0 0-.412 3.828 2.287 2.287 0 0 0 4.474.663c.084-.207.134-.423.215-.677l.779.109c-.106.4-.182.8-.319 1.17a6.538 6.538 0 0 1-2.339 3.354 3.962 3.962 0 0 1-4.438.125 3.5 3.5 0 0 1-1.827-3.621 47.285 47.285 0 0 1 .916-5.032c.551-2.5 1.178-4.986 1.767-7.48.038-.148.046-.3.074-.488l-4.5-.64c-.123.524-.253 1.061-.382 1.6-.706 2.969-1.393 5.944-2.134 8.9a13.73 13.73 0 0 1-1.7 4.362 2.527 2.527 0 0 1-3.216 1.052 2.226 2.226 0 0 1-.831-.622 2.231 2.231 0 0 1-.45-1.971 2.226 2.226 0 0 1 .479-.922c.73-.846 1.541-1.625 2.258-2.484a16.517 16.517 0 0 0 3.19-6.382c.308-1.131.516-2.293.782-3.44.066-.291.008-.453-.316-.474a21 21 0 0 0-2.378-.145 3.237 3.237 0 0 0-2.355 1.243 14.08 14.08 0 0 0-.556.685c-.436.533-.439.538-1.167.27z" fill="#ffd864"/></g><g data-name="Group 1593" fill="#005180"><path d="M448.431 45.963a34.4 34.4 0 0 0-.79 3.553 27.785 27.785 0 0 0-.263 3.422v.132a23.171 23.171 0 0 0 6.843 16.45 22.068 22.068 0 0 0 7.106 4.869 2.955 2.955 0 0 1 1.842-.79h3.29a21.548 21.548 0 0 1-10.66-5.659 20.1 20.1 0 0 1-5.132-8.686l-.79-3.158a37.969 37.969 0 0 1 0-6.317c.263-1.053.526-2.106.79-3.027zm31.716 28.426a22.068 22.068 0 0 0 7.106-4.869 23.171 23.171 0 0 0 6.843-16.45v-.132a32.354 32.354 0 0 0-.263-3.685 30.147 30.147 0 0 0-.921-3.685l-2.237.658a16.074 16.074 0 0 1 .79 3.422 25.021 25.021 0 0 1 .395 3.29 27.126 27.126 0 0 1-.395 3.422 14.956 14.956 0 0 1-.79 3.29 22.241 22.241 0 0 1-5 8.291 21.548 21.548 0 0 1-10.66 5.659h3.29a2.666 2.666 0 0 1 1.842.789z"/><path d="M488.569 49.912a16.127 16.127 0 0 0 5.4-4.474 14.907 14.907 0 0 0-1.455-19.346 16.9 16.9 0 0 0-3.419-2.632 10.485 10.485 0 0 1-1.711 1.711 10.953 10.953 0 0 1 3.422 2.5 12.1 12.1 0 0 1 3.685 8.949 13.359 13.359 0 0 1-2.369 7.5 13.085 13.085 0 0 1-6.448 4.474l-1.053.395-1.974.526a14.124 14.124 0 0 1 .658 4.211 12.014 12.014 0 0 1-3.685 8.817 11.344 11.344 0 0 1-5.527 3.29v2.369a15.129 15.129 0 0 0 7.106-3.948v-.132a14.194 14.194 0 0 0 4.343-10.4 16.779 16.779 0 0 0-.132-2.632 18.933 18.933 0 0 0 3.159-1.178zm-21.188 15.924a11.344 11.344 0 0 1-5.527-3.29 12.544 12.544 0 0 1-3.685-8.817 14.124 14.124 0 0 1 .658-4.211l-1.842-.526-1.053-.395a12.875 12.875 0 0 1-6.58-4.474 13.359 13.359 0 0 1-2.369-7.5 12.1 12.1 0 0 1 3.685-8.949 10.953 10.953 0 0 1 3.422-2.5 10.485 10.485 0 0 1-1.712-1.714 16.9 16.9 0 0 0-3.422 2.632 14.907 14.907 0 0 0-1.442 19.345 16.127 16.127 0 0 0 5.4 4.474 18.932 18.932 0 0 0 3.158 1.184 16.778 16.778 0 0 0-.132 2.632 14.194 14.194 0 0 0 4.343 10.4v.132a15.791 15.791 0 0 0 7.106 3.948zm10.923 6.71h-15.135a3.819 3.819 0 1 0 0 7.633h15.134a4 4 0 0 0 2.764-1.053 4.154 4.154 0 0 0 0-5.527 4 4 0 0 0-2.763-1.053zm-15.134 2.237h15.134a1.494 1.494 0 0 1 1.049 2.632 1.624 1.624 0 0 1-1.053.526h-15.131a1.625 1.625 0 0 1-1.053-.526 1.585 1.585 0 0 1 1.053-2.632zm2.237 9.739a5.862 5.862 0 0 0 1.579 3.817 5.353 5.353 0 0 0 3.821 1.583 5.278 5.278 0 0 0 3.685-1.579 5.862 5.862 0 0 0 1.575-3.821h-2.369a2.779 2.779 0 0 1-.79 2.106 2.618 2.618 0 0 1-2.106.921 2.711 2.711 0 0 1-2.237-.921 2.779 2.779 0 0 1-.79-2.106z"/><path d="M478.304 77.942h-15.135a3.615 3.615 0 0 0-3.816 3.816 4 4 0 0 0 1.053 2.764 4.387 4.387 0 0 0 2.764 1.184h15.134a4.1 4.1 0 0 0 2.764-1.184 4 4 0 0 0 1.053-2.764 4.247 4.247 0 0 0-1.053-2.764 4 4 0 0 0-2.764-1.052zm-15.134 2.237h15.134a1.625 1.625 0 0 1 1.053.526 1.2 1.2 0 0 1 .526 1.053 1.607 1.607 0 0 1-.53 1.184 1.494 1.494 0 0 1-1.053.395h-15.131a1.494 1.494 0 0 1-1.053-.395 1.607 1.607 0 0 1-.526-1.184 1.2 1.2 0 0 1 .526-1.053 1.625 1.625 0 0 1 1.053-.526zm16.055-53.298a10 10 0 0 0-6.843 2.764 9.759 9.759 0 0 0-2.764 6.843 9.66 9.66 0 0 0 9.607 9.738 9.635 9.635 0 0 0 6.975-2.9 9.529 9.529 0 0 0 2.764-6.843 9.759 9.759 0 0 0-2.764-6.843 10.079 10.079 0 0 0-6.975-2.759zm-5.132 4.474a6.87 6.87 0 0 1 5.132-2.237 6.95 6.95 0 0 1 5.264 2.237 7.305 7.305 0 0 1-5.264 12.5 7.265 7.265 0 0 1-5.132-2.106 7.157 7.157 0 0 1 0-10.4z"/><path d="M462.248 26.881a9.529 9.529 0 0 0-6.843 2.764 9.337 9.337 0 0 0-2.9 6.843 9.889 9.889 0 0 0 9.739 9.738 9.66 9.66 0 0 0 9.607-9.738 9.759 9.759 0 0 0-2.764-6.843 10 10 0 0 0-6.839-2.764zm-5.264 4.474a6.95 6.95 0 0 1 5.264-2.237 6.87 6.87 0 0 1 5.132 2.237 7.157 7.157 0 0 1 0 10.4 7.265 7.265 0 0 1-5.132 2.106 7.349 7.349 0 0 1-5.264-2.106 7.157 7.157 0 0 1 0-10.4z"/><path d="M473.04 43.463a6.27 6.27 0 0 1-.79 2.369c-.526.79-1.053 1.579-1.448 2.237-.526-.658-1.053-1.448-1.579-2.237a6.271 6.271 0 0 1-.79-2.369l-2.369.132a13.266 13.266 0 0 0 1.184 3.422 22.277 22.277 0 0 0 2.632 3.685l.921 1.053.79-1.053a22.276 22.276 0 0 0 2.632-3.685 9.667 9.667 0 0 0 1.184-3.422zm18.95-27.768l-21.188 7.5-23.293-8.158.526 1.974c1.184 5 3.422 7.9 6.054 9.475a19.7 19.7 0 0 0 8.42 2.632 9.52 9.52 0 0 1 5.264 2.106c1.184 1.053 1.842 2.764 1.842 5.132h2.237a6.614 6.614 0 0 1 1.974-5.132 8.723 8.723 0 0 1 5.132-2.106 19.7 19.7 0 0 0 8.422-2.632c2.632-1.579 4.869-4.474 6.054-9.475l.53-1.974zm-20.925 9.87l19.478-6.975a11.667 11.667 0 0 1-4.343 6.054c-2.237 1.448-4.869 1.842-7.5 2.237a12 12 0 0 0-6.448 2.632 6.4 6.4 0 0 0-1.448 1.842 6.926 6.926 0 0 0-1.579-1.842 12 12 0 0 0-6.448-2.632c-2.632-.395-5.264-.79-7.5-2.237a11.667 11.667 0 0 1-4.343-6.054l19.475 6.975z"/><path d="M462.249 32.672a3.427 3.427 0 0 0-1.974.526c.132 0 .132-.132.263-.132a1.58 1.58 0 0 1 1.448 1.579 1.46 1.46 0 0 1-1.448 1.448 1.494 1.494 0 0 1-1.579-1.448c0-.132.132-.263.132-.395a3.574 3.574 0 0 0-.79 2.237 3.883 3.883 0 1 0 7.765 0 3.819 3.819 0 0 0-3.817-3.815zm16.976 0a3.022 3.022 0 0 0-1.842.526c.132 0 .132-.132.263-.132a1.58 1.58 0 0 1 1.448 1.579 1.46 1.46 0 0 1-1.448 1.448 1.494 1.494 0 0 1-1.579-1.448.483.483 0 0 1 .132-.395 3.574 3.574 0 0 0-.79 2.237 3.883 3.883 0 1 0 7.764 0 3.85 3.85 0 0 0-3.948-3.815z" fill-rule="evenodd"/><path d="M476.33 67.414v5.659h-2.237v-5.659zm-8.949 0v5.659h-2.237v-5.659z"/></g></g></svg>