<svg xmlns="http://www.w3.org/2000/svg" width="706.063" height="371.615"><g data-name="Group 1460" transform="translate(-628.164 -221.905)"><g data-name="Group 168"><circle data-name="Ellipse 21" cx="16.973" cy="16.973" r="16.973" transform="rotate(-76.778 938.4 -571.078)" fill="#e0e4f0" opacity=".5"/></g><g data-name="Group 169"><path data-name="Path 5719" d="M1074.192 249.809a21.98 21.98 0 1 1-21.98-21.981 21.98 21.98 0 0 1 21.98 21.981z" fill="#e0e4f0" opacity=".5"/></g><g data-name="Group 170"><path data-name="Path 5720" d="M771.939 277.861a11.2 11.2 0 1 1-11.2-11.2 11.2 11.2 0 0 1 11.2 11.2z" fill="#e0e4f0" opacity=".5"/></g><g data-name="Group 171"><path data-name="Path 5721" d="M1165.916 299.194a11.2 11.2 0 1 1-11.2-11.2 11.2 11.2 0 0 1 11.2 11.2z" fill="#e0e4f0" opacity=".5"/></g><g data-name="Group 172"><circle data-name="Ellipse 22" cx="11.201" cy="11.201" r="11.201" fill="#e0e4f0" transform="translate(887.572 221.905)" opacity=".5"/></g><g data-name="Group 173"><path data-name="Path 5722" d="M1321.68 509.531a4.6 4.6 0 1 1-4.6-4.6 4.6 4.6 0 0 1 4.6 4.6z" fill="#e0e4f0" opacity=".5"/></g><g data-name="Group 174"><path data-name="Path 5723" d="M1142.864 258.826a3.452 3.452 0 1 1-3.452-3.452 3.451 3.451 0 0 1 3.452 3.452z" fill="#e0e4f0" opacity=".5"/></g><g data-name="Group 175"><circle data-name="Ellipse 23" cx="4.492" cy="4.492" r="4.492" fill="#e0e4f0" transform="translate(800.445 228.613)" opacity=".5"/></g><g data-name="Group 177"><path data-name="Path 5725" d="M1312.061 387.608a5.976 5.976 0 1 1-5.976-5.976 5.977 5.977 0 0 1 5.976 5.976z" fill="#e0e4f0" opacity=".5"/></g><g data-name="Group 178"><circle data-name="Ellipse 24" cx="25.343" cy="25.343" r="25.343" transform="rotate(-80.8 532.281 -228.82)" fill="#e0e4f0" opacity=".5"/></g><g data-name="Group 180"><circle data-name="Ellipse 25" cx="24.567" cy="24.567" r="24.567" fill="#e0e4f0" transform="translate(1243.23 274.628)" opacity=".5"/></g><g data-name="Group 182"><path data-name="Path 5727" d="M1296.896 591.684a316.139 316.139 0 0 0-27.305-128.917 100.045 100.045 0 0 0-119.811-138.895 315.757 315.757 0 0 0-170.144-49.449q-11.7 0-23.188.836a81.717 81.717 0 0 0-125.483 36.115 318.2 318.2 0 0 0-66.174 46.888 90.566 90.566 0 0 0-90.131 145.734 317.37 317.37 0 0 0-12.284 87.688z" fill="#d7f3ff"/></g><g data-name="Group 184"><path data-name="Path 5728" d="M1208.314 591.008c0-127.26-103.165-230.427-230.427-230.427S747.465 463.748 747.465 591.008z" fill="#e0e4f0" opacity=".47"/></g><g data-name="Group 210"><g data-name="Group 190"><g data-name="Group 185"><path data-name="Rectangle 79" d="M821.258 367.978h234.371a1.25 1.25 0 0 1 1.25 1.25v147.633H820.008V369.228a1.25 1.25 0 0 1 1.25-1.25z" fill="#00486e"/></g><g data-name="Group 186"><path data-name="Rectangle 80" fill="#fcd991" d="M832.153 381.374h212.579v123.45H832.153z"/></g><g data-name="Group 187"><path data-name="Path 5729" d="M1070.685 523.523H806.203a40.249 40.249 0 0 0 28.369 11.7h207.741a40.243 40.243 0 0 0 28.372-11.7z" fill="#e5e4e3"/></g><g data-name="Group 188"><path data-name="Rectangle 81" fill="#fff" d="M806.204 516.085h264.478v7.437H806.204z"/></g><g data-name="Group 189"><path data-name="Path 5730" d="M954.811 521.827h-32.738a2.029 2.029 0 0 1-2.023-2.023 2.029 2.029 0 0 1 2.023-2.023h32.738a2.03 2.03 0 0 1 2.025 2.023 2.03 2.03 0 0 1-2.025 2.023z" fill="#e5e4e3"/></g></g><g data-name="Group 191"><path data-name="Path 5731" d="M1030.004 504.824H846.881l-8.835-136.846h200.8z" fill="#231f20" opacity=".3"/></g><g data-name="Group 209"><g data-name="Group 192"><path data-name="Rectangle 82" d="M850.162 303.307h176.562a4.257 4.257 0 0 1 4.257 4.257v197.26H845.905v-197.26a4.257 4.257 0 0 1 4.257-4.257z" fill="#fff"/></g><g data-name="Group 193"><path data-name="Path 5732" d="M1030.981 331.165v-21.444a6.414 6.414 0 0 0-6.412-6.414h-172.25a6.414 6.414 0 0 0-6.414 6.414v21.444z" fill="#00486e"/></g><g data-name="Group 195"><g data-name="Group 194"><rect data-name="Rectangle 83" width="90.416" height="58.369" rx=".572" fill="#00486e" transform="translate(860.227 365.987)"/></g></g><g data-name="Group 196"><path data-name="Path 5733" d="M867.641 317.235a3.707 3.707 0 1 1-3.708-3.706 3.706 3.706 0 0 1 3.708 3.706z" fill="#fff"/></g><g data-name="Group 197"><path data-name="Path 5734" d="M879.992 317.235a3.707 3.707 0 1 1-3.706-3.706 3.705 3.705 0 0 1 3.706 3.706z" fill="#fff"/></g><g data-name="Group 198"><path data-name="Path 5735" d="M892.342 317.235a3.706 3.706 0 1 1-3.706-3.706 3.7 3.7 0 0 1 3.706 3.706z" fill="#fff"/></g><g data-name="Group 199"><path data-name="Path 5736" d="M1024.569 303.307h-8.193a6.414 6.414 0 0 1 6.412 6.414v195.1h8.193v-195.1a6.414 6.414 0 0 0-6.412-6.414z" fill="#bebcba" opacity=".2"/></g><g data-name="Group 200"><path data-name="Path 5737" d="M1012.413 375.903h-49.007a3.962 3.962 0 0 1-3.961-3.963 3.962 3.962 0 0 1 3.961-3.961h49.007a3.962 3.962 0 0 1 3.963 3.961 3.963 3.963 0 0 1-3.963 3.963z" fill="#f3f4f9"/></g><g data-name="Group 201"><path data-name="Path 5738" d="M1012.413 391.488h-49.007a3.962 3.962 0 0 1-3.961-3.961 3.962 3.962 0 0 1 3.961-3.963h49.007a3.963 3.963 0 0 1 3.963 3.963 3.962 3.962 0 0 1-3.963 3.961z" fill="#f3f4f9"/></g><g data-name="Group 202"><path data-name="Path 5739" d="M1012.413 407.074h-49.007a3.961 3.961 0 0 1-3.961-3.961 3.961 3.961 0 0 1 3.961-3.961h49.007a3.961 3.961 0 0 1 3.963 3.961 3.961 3.961 0 0 1-3.963 3.961z" fill="#f3f4f9"/></g><g data-name="Group 203"><path data-name="Path 5740" d="M989.693 422.66h-26.287a3.961 3.961 0 0 1-3.961-3.963 3.961 3.961 0 0 1 3.961-3.961h26.287a3.962 3.962 0 0 1 3.961 3.961 3.962 3.962 0 0 1-3.961 3.963z" fill="#f3f4f9"/></g><g data-name="Group 204"><path data-name="Path 5741" d="M893.135 442.757h-26.286a3.961 3.961 0 0 1-3.963-3.961 3.963 3.963 0 0 1 3.963-3.963h26.286a3.962 3.962 0 0 1 3.961 3.963 3.961 3.961 0 0 1-3.961 3.961z" fill="#f3f4f9"/></g><g data-name="Group 205"><path data-name="Path 5742" d="M1012.412 462.8H866.849a3.961 3.961 0 0 1-3.963-3.961 3.961 3.961 0 0 1 3.963-3.961h145.563a3.961 3.961 0 0 1 3.963 3.961 3.961 3.961 0 0 1-3.963 3.961z" fill="#f3f4f9"/></g><g data-name="Group 206"><path data-name="Path 5743" d="M1012.412 479.832H866.849a3.963 3.963 0 0 1-3.963-3.963 3.962 3.962 0 0 1 3.963-3.961h145.563a3.962 3.962 0 0 1 3.963 3.961 3.963 3.963 0 0 1-3.963 3.963z" fill="#f3f4f9"/></g><g data-name="Group 207"><path data-name="Path 5744" d="M946.682 496.853h-79.833a3.961 3.961 0 0 1-3.963-3.965 3.963 3.963 0 0 1 3.963-3.963h79.833a3.963 3.963 0 0 1 3.961 3.963 3.961 3.961 0 0 1-3.961 3.965z" fill="#f3f4f9"/></g></g></g><g data-name="Group 235"><g data-name="Group 221"><g data-name="Group 211"><rect data-name="Rectangle 84" width="10.849" height="57.723" rx=".721" fill="#fec55e" transform="translate(1144.444 477.192)"/></g><g data-name="Group 212"><path data-name="Rectangle 85" fill="#fff" d="M1148.143 481.653h2.866v2.866h-2.866z"/></g><g data-name="Group 213"><path data-name="Rectangle 86" fill="#fff" d="M1148.143 487.385h2.866v2.865h-2.866z"/></g><g data-name="Group 214"><path data-name="Rectangle 87" fill="#fff" d="M1148.143 493.116h2.866v2.866h-2.866z"/></g><g data-name="Group 215"><path data-name="Rectangle 88" fill="#fff" d="M1148.143 498.848h2.866v2.866h-2.866z"/></g><g data-name="Group 216"><path data-name="Rectangle 89" fill="#fff" d="M1148.143 504.579h2.866v2.866h-2.866z"/></g><g data-name="Group 217"><path data-name="Rectangle 90" fill="#fff" d="M1148.143 510.31h2.866v2.865h-2.866z"/></g><g data-name="Group 218"><path data-name="Rectangle 91" fill="#fff" d="M1148.143 516.042h2.866v2.866h-2.866z"/></g><g data-name="Group 219"><path data-name="Rectangle 92" fill="#fff" d="M1148.143 521.773h2.866v2.866h-2.866z"/></g><g data-name="Group 220"><path data-name="Rectangle 93" fill="#fff" d="M1148.143 527.504h2.866v2.866h-2.866z"/></g></g><g data-name="Group 225"><g data-name="Group 222"><rect data-name="Rectangle 94" width="10.849" height="57.723" rx=".721" transform="rotate(-19.781 1962.198 -3102.238)" fill="#fec55e"/></g><g data-name="Group 223"><path data-name="Path 5746" d="M1178.191 487.473a4.178 4.178 0 1 1-5.345-2.517 4.178 4.178 0 0 1 5.345 2.517z" fill="#fff"/></g><g data-name="Group 224"><path data-name="Path 5747" d="M1190.54 521.812a4.178 4.178 0 1 1-5.345-2.517 4.178 4.178 0 0 1 5.345 2.517z" fill="#fff"/></g></g><g data-name="Group 230"><g data-name="Group 226"><rect data-name="Rectangle 95" width="10.849" height="61.817" rx=".503" fill="#00486e" transform="translate(1155.221 473.097)"/></g><g data-name="Group 227"><path data-name="Path 5748" d="M1156.459 534.915h4.186v-61.823h-4.186a1.239 1.239 0 0 0-1.239 1.239v59.339a1.239 1.239 0 0 0 1.239 1.245z" fill="#043c5a"/></g><g data-name="Group 228"><path data-name="Rectangle 96" fill="#fff" d="M1155.221 480.588h10.849v8.597h-10.849z"/></g><g data-name="Group 229"><path data-name="Rectangle 97" fill="#fff" d="M1155.221 518.799h10.849v8.597h-10.849z"/></g></g><g data-name="Group 234"><g data-name="Group 231"><rect data-name="Rectangle 98" width="15.352" height="65.297" rx=".589" fill="#00486e" transform="translate(1128.997 469.618)"/></g><g data-name="Group 232"><path data-name="Path 5749" d="M1130.447 534.915h6.227v-65.3h-6.227a1.449 1.449 0 0 0-1.449 1.449v62.4a1.449 1.449 0 0 0 1.449 1.451z" fill="#00486e"/></g><g data-name="Group 233"><path data-name="Rectangle 99" d="M1134.662 477.192h4.022a.292.292 0 0 1 .292.292v52.636a.292.292 0 0 1-.292.292h-4.023a.291.291 0 0 1-.291-.291v-52.637a.292.292 0 0 1 .292-.292z" fill="#212121"/></g></g></g><g data-name="Group 236"><path data-name="Path 5750" d="M1164.327 276.467h-28.424v22.435a5.45 5.45 0 0 0 5.449 5.449h28.424v-22.435a5.45 5.45 0 0 0-5.449-5.449z" fill="#231f20" opacity=".3"/></g><g data-name="Group 238"><g data-name="Group 237"><path data-name="Path 5751" d="M1139.606 293.916v23.832a5.45 5.45 0 0 0 5.449 5.451h2.511v12.936a.615.615 0 0 0 1.086.4l13.813-13.331h16.281a5.45 5.45 0 0 0 5.449-5.451v-23.837a5.45 5.45 0 0 0-5.449-5.449h-33.689a5.45 5.45 0 0 0-5.451 5.449z" fill="#00486e"/></g></g><g data-name="Group 250"><g data-name="Group 243"><g data-name="Group 239"><path data-name="Path 5752" d="M1258.419 558.295c-.122.06-.244.119-.367.177-3.825 1.829-5.856 1.524-9.583-.2a39.082 39.082 0 0 1-9.6-5.976c-3.6-3.181-6.393-7.48-6.973-12.247a4.346 4.346 0 0 1 .511-3.112 3.5 3.5 0 0 1 4.041-.839 12.207 12.207 0 0 1 3.566 2.6 4.037 4.037 0 0 0 1.573 1.007 1.474 1.474 0 0 0 1.66-.555c.5-.873-.353-1.878-1.125-2.522-1.787-1.49-3.464-2.351-5.339-3.672a17.641 17.641 0 0 1-5.825-6.254 9.233 9.233 0 0 1-.237-8.31 5.062 5.062 0 0 1 1.711-1.951 6.1 6.1 0 0 1 4.516-.46 43.565 43.565 0 0 0 4.531 1.064c3.651.379 5.087-2.189 5.014-5.55-.049-2.252-.777-4.443-.906-6.692-.229-3.96 1.725-8.18 5.313-9.874s8.6-.072 9.881 3.682c1.4 4.08-1.789 8.661.317 12.559a11.905 11.905 0 0 0 3.448 3.771c2 1.239 4.885-.216 7.217-.111a2.1 2.1 0 0 1 1.444.467 1.987 1.987 0 0 1 .45 1.039 8.629 8.629 0 0 1-2.612 7.869c-2.413 2.2-6.6 3.317-7.625 6.757-.637 2.137-.361 7.463 3.039 6.923 1.275-.2 2.129-1.465 3.352-1.878a3.4 3.4 0 0 1 3.924 1.938 5.957 5.957 0 0 1-.112 4.659 19.491 19.491 0 0 1-4.475 6.04c-3.607 3.742-5.973 7.306-10.729 9.651z" fill="#00486e"/></g><g data-name="Group 240"><path data-name="Rectangle 100" fill="#fcd991" d="M1252.55 508.642h1.626v82.973h-1.626z"/></g><g data-name="Group 241"><path data-name="Path 5753" d="M1253.363 533.796l-10.2-10.2 1.15-1.15 9.051 9.051 9.05-9.051 1.15 1.15z" fill="#fcd991"/></g><g data-name="Group 242"><path data-name="Path 5754" d="M1253.363 553.132l-10.2-10.2 1.15-1.15 9.051 9.05 9.05-9.05 1.15 1.15z" fill="#fcd991"/></g></g><g data-name="Group 244"><path data-name="Path 5755" d="M1273.208 515.299a2.1 2.1 0 0 0-1.444-.467c-2.332-.106-5.215 1.35-7.217.111a11.905 11.905 0 0 1-3.456-3.771c-1.527-2.826-.278-6.012 0-9.1a4.136 4.136 0 0 0-3.241 1.561 6.093 6.093 0 0 0-.716 4.352c.813 6.667 4.719 12.679 9.752 17.127.424.376.86.735 1.3 1.091a18.687 18.687 0 0 0 2.864-1.99 8.629 8.629 0 0 0 2.612-7.869 1.987 1.987 0 0 0-.454-1.045z" fill="#191c3c" opacity=".3"/></g><g data-name="Group 249"><g data-name="Group 245"><path data-name="Path 5756" d="M1298.092 533.492c-.171.085-.341.168-.514.249-5.349 2.558-8.189 2.13-13.4-.275a54.575 54.575 0 0 1-13.431-8.359c-5.033-4.448-8.939-10.46-9.752-17.127a6.093 6.093 0 0 1 .716-4.352c1.22-1.672 3.721-1.919 5.651-1.172a17.045 17.045 0 0 1 4.986 3.636 5.66 5.66 0 0 0 2.2 1.408 2.064 2.064 0 0 0 2.324-.776c.694-1.221-.494-2.628-1.574-3.527-2.5-2.083-4.844-3.288-7.466-5.134a24.67 24.67 0 0 1-8.147-8.747c-1.807-3.6-2.212-8.061-.332-11.621a7.1 7.1 0 0 1 2.394-2.729c1.836-1.158 4.192-1.1 6.316-.644a61.353 61.353 0 0 0 6.334 1.488c5.106.53 7.111-3.062 7.01-7.762-.068-3.15-1.086-6.212-1.267-9.357-.32-5.539 2.413-11.44 7.43-13.81s12.022-.1 13.818 5.148c1.95 5.706-2.5 12.112.444 17.564a16.658 16.658 0 0 0 4.83 5.274c2.8 1.732 6.833-.3 10.094-.156a2.949 2.949 0 0 1 2.02.652 2.782 2.782 0 0 1 .629 1.455 12.066 12.066 0 0 1-3.652 11c-3.374 3.072-9.227 4.639-10.663 9.45-.891 2.987-.5 10.434 4.249 9.679 1.784-.285 2.978-2.047 4.688-2.626 2.116-.717 4.54.688 5.487 2.711a8.324 8.324 0 0 1-.158 6.514c-1.3 3.28-3.808 5.908-6.258 8.448-5.046 5.234-8.355 10.22-15.006 13.498z" fill="#fcd991"/></g><g data-name="Group 246"><path data-name="Rectangle 101" fill="#191c3c" d="M1290.208 464.057h1.626v127.558h-1.626z"/></g><g data-name="Group 247"><path data-name="Path 5757" d="M1291.021 498.777l-14.035-14.035 1.15-1.15 12.886 12.886 12.885-12.886 1.15 1.15z" fill="#191c3c"/></g><g data-name="Group 248"><path data-name="Path 5758" d="M1291.021 525.812l-14.035-14.035 1.15-1.15 12.886 12.886 12.885-12.886 1.15 1.15z" fill="#191c3c"/></g></g></g><g data-name="Group 255"><g data-name="Group 251"><path data-name="Path 5759" d="M688.124 558.579l-.385.187c-4.015 1.919-6.149 1.6-10.061-.208a40.947 40.947 0 0 1-10.082-6.274c-3.779-3.339-6.711-7.851-7.321-12.857a4.572 4.572 0 0 1 .537-3.267 3.672 3.672 0 0 1 4.243-.881 12.83 12.83 0 0 1 3.743 2.73 4.245 4.245 0 0 0 1.651 1.057 1.546 1.546 0 0 0 1.743-.582c.522-.917-.371-1.973-1.181-2.649-1.877-1.563-3.638-2.467-5.605-3.852a18.538 18.538 0 0 1-6.116-6.568 9.7 9.7 0 0 1-.249-8.723 5.324 5.324 0 0 1 1.8-2.049 6.409 6.409 0 0 1 4.742-.483 45.69 45.69 0 0 0 4.755 1.117c3.833.4 5.339-2.3 5.262-5.827-.05-2.365-.815-4.664-.951-7.025-.241-4.158 1.812-8.588 5.578-10.367s9.027-.075 10.373 3.865c1.465 4.283-1.878 9.092.333 13.185a12.517 12.517 0 0 0 3.626 3.96c2.1 1.3 5.129-.229 7.578-.117a2.213 2.213 0 0 1 1.516.489 2.085 2.085 0 0 1 .472 1.091 9.06 9.06 0 0 1-2.74 8.261c-2.534 2.306-6.928 3.483-8.006 7.093-.668 2.242-.379 7.833 3.191 7.266 1.338-.213 2.234-1.535 3.519-1.971a3.569 3.569 0 0 1 4.119 2.036 6.257 6.257 0 0 1-.119 4.89c-.976 2.462-2.859 4.435-4.7 6.342-3.788 3.927-6.273 7.669-11.265 10.131z" fill="#00486e"/></g><g data-name="Group 252"><path data-name="Rectangle 102" fill="#191c3c" d="M682.003 506.452h1.626v86.905h-1.626z"/></g><g data-name="Group 253"><path data-name="Path 5760" d="M682.816 532.805l-10.679-10.677 1.15-1.15 9.53 9.53 9.531-9.53 1.15 1.15z" fill="#191c3c"/></g><g data-name="Group 254"><path data-name="Path 5761" d="M682.816 553.1l-10.68-10.68 1.15-1.15 9.53 9.53 9.531-9.53 1.15 1.15z" fill="#191c3c"/></g></g><g data-name="Group 260"><g data-name="Group 256"><path data-name="Path 5762" d="M705.918 488.454c-.143.072-.286.141-.431.21-4.479 2.142-6.858 1.784-11.224-.231a45.749 45.749 0 0 1-11.248-7c-4.217-3.724-7.487-8.76-8.168-14.343a5.1 5.1 0 0 1 .6-3.646c1.021-1.4 3.116-1.608 4.732-.982a14.3 14.3 0 0 1 4.178 3.046 4.722 4.722 0 0 0 1.841 1.179 1.728 1.728 0 0 0 1.945-.649c.582-1.023-.415-2.2-1.319-2.955-2.093-1.745-4.056-2.753-6.253-4.3a20.679 20.679 0 0 1-6.822-7.326 10.813 10.813 0 0 1-.278-9.733 5.916 5.916 0 0 1 2-2.285 7.134 7.134 0 0 1 5.29-.54 51.174 51.174 0 0 0 5.3 1.246c4.277.444 5.957-2.564 5.872-6.5-.057-2.638-.909-5.2-1.062-7.838-.267-4.638 2.021-9.58 6.223-11.565s10.071-.083 11.574 4.313c1.633 4.779-2.1 10.144.372 14.71a13.941 13.941 0 0 0 4.044 4.417c2.347 1.451 5.723-.255 8.455-.13a2.463 2.463 0 0 1 1.691.546 2.334 2.334 0 0 1 .527 1.218 10.105 10.105 0 0 1-3.059 9.216c-2.826 2.573-7.728 3.885-8.931 7.915-.746 2.5-.423 8.739 3.56 8.1 1.493-.237 2.493-1.714 3.926-2.2a3.98 3.98 0 0 1 4.6 2.272 6.978 6.978 0 0 1-.132 5.456c-1.09 2.747-3.191 4.947-5.241 7.074-4.219 4.384-6.992 8.558-12.562 11.305z" fill="#e2b348"/></g><g data-name="Group 257"><path data-name="Rectangle 103" fill="#191c3c" d="M699.183 430.3h1.626v162.596h-1.626z"/></g><g data-name="Group 258"><path data-name="Path 5763" d="M699.997 459.567l-11.848-11.849 1.15-1.15 10.7 10.7 10.7-10.7 1.15 1.15z" fill="#191c3c"/></g><g data-name="Group 259"><path data-name="Path 5764" d="M699.997 482.209l-11.848-11.848 1.15-1.15 10.7 10.7 10.7-10.7 1.15 1.15z" fill="#191c3c"/></g></g><g data-name="Group 261"><path data-name="Rectangle 104" fill="#f5f7f9" d="M738.272 535.451h508.597v57.559H738.272z"/></g><g data-name="Group 263"><g data-name="Group 262"><path data-name="Rectangle 105" fill="#b1d9ee" d="M738.272 535.451h508.597v14.639H738.272z"/></g></g><g data-name="Group 264"><path data-name="Path 5765" d="M858.802 493.555h-5.23a3.624 3.624 0 0 0-.925.133l-.021.008a3.633 3.633 0 0 0-.976.413l-15.678 6.636.216-2.955.431-5.867 1.02-.33 22.137.764a3.768 3.768 0 0 0 3.682-4.916l-6.547-20.438 2.826-.465-10.521-28.87a15.929 15.929 0 0 0-11.031-10.107l-2.555-.659-11.156-4.677a12.676 12.676 0 0 0 .33-2.771v-1.715a3.96 3.96 0 0 0 1.607-2.363s2.28-6.153.463-7.271c.166-1.021.27-2.062.353-3.086 1.047.133-.255.325 1.579-.958-1.083-2.485-.616-3.711-1.049-6.422a7.947 7.947 0 0 0-1-3.415 4.16 4.16 0 0 0-.836-.846c0-2.942-3.078-5.482-5.914-5.866v128.574h-13.8v7.438a40.25 40.25 0 0 0 26.25 11.642 15.845 15.845 0 0 0 6.869-3.1l11.561-9.069.013.151q.163 2 .343 4.025l.046.5q.159 1.761.325 3.527l.078.818c.1 1.08.218 2.137.327 3.21h20.466c.667-9.4 1.252-18.849 1.5-25.964a15.179 15.179 0 0 0-15.183-15.709zm-21.165-15.5l.132-1.8.872-11.884 1.706 5.35 1.831-.3 4.37 10.855h-9.074l.163-2.223z" fill="#191c3c" opacity=".3"/></g><g data-name="Group 265"><path data-name="Rectangle 106" fill="#8184c4" d="M754.881 558.68h12.131v15.799h-12.131z"/></g><g data-name="Group 266"><path data-name="Rectangle 107" fill="#8184c4" d="M853.457 558.68h12.131v15.799h-12.131z"/></g><g data-name="Group 268"><g data-name="Group 267"><path data-name="Path 5766" d="M800.907 421.598l-17.431 4.5-3.516 36.234 4.842 47.591 46.318.978 3.46-47.076-3.013-37.474-11.337-4.753z" fill="#eda03a"/></g></g><g data-name="Group 269"><path data-name="Path 5767" d="M766.434 521.886l10 8.964a15.839 15.839 0 0 0 10.57 4.043h38.481a15.833 15.833 0 0 0 9.775-3.378l15.206-11.93-1.881-26.452-32.35 13.693H794.5l-28.063-15.241-3.085 9.593z" fill="#4d5068"/></g><g data-name="Group 270"><path data-name="Path 5768" d="M802.49 497.967a2.1 2.1 0 0 0 2.295 2.088l20.126-1.908a1.4 1.4 0 0 0 1.4-1.4v-31.314a1.4 1.4 0 0 0-1.4-1.4l-20.521 1.947a2.1 2.1 0 0 0-1.9 2.088z" fill="#191c3c"/></g><circle data-name="Ellipse 27" cx="3.002" cy="3.002" r="3.002" transform="translate(812.145 476.045)" fill="#3c4370"/><circle data-name="Ellipse 28" cx="1.337" cy="1.337" r="1.337" transform="translate(804.312 467.837)" fill="#3c4370"/><g data-name="Group 271"><path data-name="Path 5769" d="M766.434 521.886l10 8.964a15.839 15.839 0 0 0 10.57 4.043h38.481a15.833 15.833 0 0 0 9.775-3.378l15.206-11.93-1.881-26.452-32.35 13.693H794.5l-28.063-15.241-3.085 9.593z" fill="#4d5068"/></g><g data-name="Group 272"><path data-name="Path 5770" d="M754.792 571.299a35.2 35.2 0 0 1-8.043 16.989v3.906h23.543l.459-5.446s-3.467-8.729-3.81-12.835c.004 0-1.193-5.964-12.149-2.614z" fill="#fff"/></g><g data-name="Group 273"><path data-name="Path 5771" d="M770.64 588.122s-19.639-1.185-23.889.166v3.911h23.541z" fill="#fec55e"/></g><g data-name="Group 274"><path data-name="Rectangle 108" fill="#191c3c" d="M754.881 575.465h6.589v1.626h-6.589z"/></g><g data-name="Group 275"><path data-name="Rectangle 109" fill="#191c3c" d="M754.311 577.891h6.589v1.626h-6.589z"/></g><g data-name="Group 276"><path data-name="Rectangle 110" fill="#191c3c" d="M753.027 580.987h6.589v1.626h-6.589z"/></g><g data-name="Group 277"><path data-name="Path 5772" d="M865.394 571.299a35.217 35.217 0 0 0 8.043 16.989v3.906h-23.545l-.457-5.446s3.467-8.729 3.809-12.835c0 0 1.198-5.964 12.15-2.614z" fill="#fff"/></g><g data-name="Group 278"><path data-name="Path 5773" d="M849.551 588.122s19.638-1.185 23.887.166v3.911h-23.545z" fill="#fec55e"/></g><g data-name="Group 279"><path data-name="Rectangle 111" fill="#191c3c" d="M858.721 575.465h6.589v1.626h-6.589z"/></g><g data-name="Group 280"><path data-name="Rectangle 112" fill="#191c3c" d="M859.291 577.891h6.589v1.626h-6.589z"/></g><g data-name="Group 281"><path data-name="Rectangle 113" fill="#191c3c" d="M860.574 580.987h6.589v1.626h-6.589z"/></g><g data-name="Group 282"><path data-name="Path 5774" d="M754.967 569.804h13.181s3.269-53.192 1.751-74.343a4.264 4.264 0 0 0-4.264-3.952h-4.7c-8.594 0-14.574 7.132-15.18 15.7-1.57 22.206 9.212 62.595 9.212 62.595z" fill="#4d5068"/></g><g data-name="Group 283"><path data-name="Path 5775" d="M865.497 571.299h-13.179s-7.568-54.02-6.461-74.83a3.654 3.654 0 0 1 3.649-3.465h5.231a15.179 15.179 0 0 1 15.179 15.706c-.736 21.059-4.419 62.589-4.419 62.589z" fill="#4d5068"/></g><g data-name="Group 285"><g data-name="Group 284"><path data-name="Path 5776" d="M855.563 519.326l.878-.011a6.5 6.5 0 0 1-5.067-3.15c-.867-1.608.244-4.908-1.872-5.318-1.681-.325-6.661 3.313-8.258 4.116l-8.419 4.244a28.863 28.863 0 0 1-7.737 3c-4.846.87-9.764-.776-14.684-.961-3.735-.14-7.513.563-11.193-.1a26.833 26.833 0 0 1-5.461-1.758c-7.5-3.1-14.751-7.093-22.737-8.531-1.059-.19-3.971-1.345-4.635-.642-.755.8.594 5.088.813 6.082a12.846 12.846 0 0 0-4.306-4.4 41.5 41.5 0 0 0 4.326 14.834c-1.364-1.119-2.706-2.291-4.122-3.337.942 2.327 2.935 3.75 3.924 5.9 1.228 2.669.623 6.793.73 9.682.024.659-.011 1.442-.564 1.8a12.524 12.524 0 0 0-4.737-4.563 18.425 18.425 0 0 1 1.761 7.189 11.133 11.133 0 0 1-3.974-3.34c-.447-.607-1.107-1.348-1.794-1.041-.62.276-.607 1.148-.494 1.818a10.407 10.407 0 0 0 1.132 3.747c1.782 2.934 5.584 4.2 7.671 6.962.714.946 1.483 1.852 2.238 2.771.4-8.272.855-18.851 1.111-29.167l6.345 5.685a15.839 15.839 0 0 0 10.57 4.043h38.47a15.833 15.833 0 0 0 9.775-3.378l11.561-9.069c.927 11.395 2.3 23.562 3.436 32.9.093-.213.2-.423.283-.637a17.9 17.9 0 0 0 1.805 1.251c.859-3.438.764-8.019-.9-11.222-.275-.529-.633-1.011-.888-1.55-.758-1.6-.524-3.464-.272-5.214a16.655 16.655 0 0 0 3.776 2.454c.285.135.725.2.829-.094-.516-3.4-2.979-6.1-4.716-8.931a18.048 18.048 0 0 1 7.474-.883l.574-.356a10.364 10.364 0 0 1-2.652-10.825z" fill="#3a3c4e" opacity=".5"/></g></g><g data-name="Group 286"><path data-name="Path 5777" d="M784.8 462.043c1.14.289 2.986.623 2 0a56.5 56.5 0 0 1-7.989-6.275l.312 3.07c.369.32.738.637 1.117.945a1.014 1.014 0 0 0-.964.566l.171 1.68c.26.138.67.076 1.187.322l-.3-.036a.866.866 0 0 0-.813.423l.14 1.374.348.273a.69.69 0 0 0 .075.044.782.782 0 0 0-.353.372l1.969 19.352q.412 2.961.6 5.931l1.036 10.188a1.033 1.033 0 0 0 1.052-.985 78.942 78.942 0 0 0-1.467-20.308 50.7 50.7 0 0 1-.919-11.987c.06-2.3 2.638-.33 2.173-1.7a23.589 23.589 0 0 0-2.054-2.551c-1.116-1.969.544-1.242 2.679-.698z" fill="#191c3c" opacity=".1"/></g><g data-name="Group 288"><g data-name="Group 287"><path data-name="Path 5778" d="M789.236 474.768l-2.95-.117-5.207 5.077h-10.325l4.42-10.982-14.741-2.425-6.589 20.566a3.768 3.768 0 0 0 3.682 4.916l22.822-.764 6.449 2.093 6.664-2.052 6-3.252.55-5.5a1.229 1.229 0 0 0-1.223-1.35h-6.344l-4.108-1.96h.9z" fill="#ffc0bb"/></g></g><g data-name="Group 289"><path data-name="Path 5779" d="M759.6 468.923l14.541 2.392 1.034-2.568-14.741-2.425z" fill="#191c3c" opacity=".3"/></g><g data-name="Group 291"><g data-name="Group 290"><path data-name="Path 5780" d="M787.653 438.197l13.253-16.6-20.963 5.412a15.932 15.932 0 0 0-11.034 10.107l-10.521 28.87 19.391 3.189z" fill="#feb546"/></g></g><g data-name="Group 292"><path data-name="Path 5781" d="M833.705 475.708l.872-11.884-.049-.6a.864.864 0 0 0-.392-.02l-.6.13a3.271 3.271 0 0 1 .911-1.148l-.169-2.108c-.878.075.236-.337-.642-.262.855-.644-.311-.826.5-1.525l-.176-2.186a44.717 44.717 0 0 1-5.9 4.583c-.672.437.824.576 1.751.5 1.127-.1.948.946 2.075.851q-.3 1.037-.592 2.072a.89.89 0 0 0 .743 1.307c-.166.192-.637 1.625-.8 1.816-.753.74.5.533 1.368.138l.8-.288-.68.834a.958.958 0 0 0-.143.964c-.452.376-1.34 2.748-1.8 3.257-.628.694.683.054 1.512-.587.366-.281.68-.507.961-.722-.231.4-.447.818-.7 1.21-.244.418.276 1.737.568 1.982-.722 1.542-1.825 2.176-2.547 3.717a.91.91 0 0 0 .315 1.2l.888.629a.866.866 0 0 0 .886 0c-.626.364-1.208 8.376-1.478 9.995a41.76 41.76 0 0 0-.663 7.194.883.883 0 0 0 1.6.476l1.449-19.732a.816.816 0 0 0-.855 0 5.49 5.49 0 0 0 .987-1.793z" fill="#191c3c" opacity=".1"/></g><g data-name="Group 294"><g data-name="Group 293"><path data-name="Path 5782" d="M852.804 466.322l6.588 20.566a3.768 3.768 0 0 1-3.682 4.916l-22.137-.764-6.449 2.093-6.664-2.05-6-3.252-.55-5.5a1.229 1.229 0 0 1 1.223-1.35h6.344l4.108-1.96h-1.769l-2.2.33a2.205 2.205 0 0 1-2.532-2.182l4.275-2.343 4.282-.171 5.205 5.077h9.64l-4.422-10.982z" fill="#ffc0bb"/></g></g><g data-name="Group 295"><path data-name="Path 5783" d="M852.805 466.322l-14.741 2.425.826 2.053 14.581-2.4z" fill="#191c3c" opacity=".3"/></g><g data-name="Group 297"><g data-name="Group 296"><path data-name="Path 5784" d="M826.406 438.197l-13.253-16.6 20.965 5.412a15.929 15.929 0 0 1 11.032 10.107l10.521 28.87-19.389 3.189z" fill="#feb546"/></g></g><g data-name="Group 299"><g data-name="Group 298"><path data-name="Path 5785" d="M808.219 440.97a8.586 8.586 0 0 1-8.586-8.59v-14.89h17.171v14.89a8.586 8.586 0 0 1-8.585 8.59z" fill="#eab8a0"/></g></g><g data-name="Group 300"><path data-name="Path 5786" d="M823.281 402.948c-.35 4.374-.533 9.5-4.809 11.98a3.5 3.5 0 0 1-1.055.437 3.6 3.6 0 0 1-.945.036 9.383 9.383 0 0 1-3.688-1.039 4.727 4.727 0 0 0-1.231-.537c-1.433-.285-2.594 1.059-3.8 1.882-2.278 1.55-5.322 1.332-7.981.616-1.517-.408-3.228-1.225-3.469-2.776-.122-.784.172-1.628-.141-2.356a3.949 3.949 0 0 0-1.319-1.335c-1.132-.909-1.044-2.686-1.075-4.039l-.073-3.267a9.179 9.179 0 0 0-.13-1.61c-.128-.642-.394-1.257-.46-1.908-.081-.8.328-1.049.585-1.681.22-.537.119-1.145.423-1.686a20.047 20.047 0 0 1 1.329-1.761c.569-.79.948-1.7 1.485-2.514a3.69 3.69 0 0 1 2.249-1.737c.361-.068.733-.052 1.093-.119a6.407 6.407 0 0 0 2.706-1.808 9.632 9.632 0 0 1 2.755-1.639 4.852 4.852 0 0 1 2.212-.389c1 .1 1.935.663 2.94.62.478-.021.942-.181 1.418-.2 1.161-.054 2.217.7 3.374.8 2.965.257 6.339 2.982 6.2 6.093a2.9 2.9 0 0 0 .072 1.132c.2.543.756.87 1.049 1.371.676 1.158-.288 2.62-.089 3.947a11.763 11.763 0 0 0 .311 1.137 7.269 7.269 0 0 1 .064 2.35z" fill="#191c3c"/></g><g data-name="Group 302"><g data-name="Group 301"><path data-name="Path 5787" d="M800.41 417.833a3.94 3.94 0 0 1-4.342-3s-2.631-7.093 0-7.437c0 0 5.54 3.618 5.54 5.233a25.1 25.1 0 0 1-1.198 5.204z" fill="#fda29a"/></g></g><g data-name="Group 304"><g data-name="Group 303"><path data-name="Path 5788" d="M818.003 417.833a3.94 3.94 0 0 0 4.342-3s2.631-7.093 0-7.437c0 0-5.54 3.618-5.54 5.233a25.094 25.094 0 0 0 1.198 5.204z" fill="#fda29a"/></g></g><g data-name="Group 305"><path data-name="Path 5789" d="M799.633 429.253a12.722 12.722 0 0 0 3.75 3.482 10.5 10.5 0 0 0 10.637.127l.309-.176a12.706 12.706 0 0 0 2.475-1.867v-9.222h-17.171z" fill="#191c3c" opacity=".3"/></g><g data-name="Group 306"><path data-name="Path 5790" d="M814.333 429.948l-.309.176a10.489 10.489 0 0 1-5.209 1.384 10.5 10.5 0 0 1-5.428-1.511 12.725 12.725 0 0 1-6.145-10.891v-20.955h23.5v20.752a12.722 12.722 0 0 1-6.409 11.045z" fill="#ffc0bb"/></g><path data-name="Path 5791" d="M822.692 393.678a5.794 5.794 0 0 0-1.979-1.6 19.933 19.933 0 0 0-23.685 3.823 10.462 10.462 0 0 0-2 2.945c-1.075 2.55-.59 5.462.021 8.16l-.356.1a6.662 6.662 0 0 0 2.615-.459 1.925 1.925 0 0 0 .873-1.577.76.76 0 0 1 .112-.53c.158-.169.431-.114.662-.086a1.928 1.928 0 0 0 2.031-2.584 1.126 1.126 0 0 0 1.238-.312c.763-.792.276-2.3 1.06-3.01 1.251-1.129 2.145.974 3.161 1.6a2.706 2.706 0 0 0 3.108-.262 1.842 1.842 0 0 0 1.181 2.412 3.41 3.41 0 0 0 2.888-.6c.081.179.158.361.228.545 3.791 2.625 9.429 4.127 10.331-2.078a12.837 12.837 0 0 0-1.489-6.487z" fill="#191c3c"/><g data-name="Group 307"><path data-name="Path 5792" d="M808.989 417.609a2.066 2.066 0 0 1-2.01-1.6 2.122 2.122 0 0 0-.057.468 2.067 2.067 0 1 0 4.134 0 2.03 2.03 0 0 0-.059-.468 2.066 2.066 0 0 1-2.008 1.6z" fill="#191c3c" opacity=".3"/></g><g data-name="Group 308" transform="translate(799.158 406.226)"><circle data-name="Ellipse 29" cx="1.167" cy="1.167" r="1.167" transform="translate(3.182 6.145)" fill="#1d0300"/><circle data-name="Ellipse 30" cx="1.167" cy="1.167" r="1.167" transform="translate(14.635 6.145)" fill="#1d0300"/><path data-name="Path 5796" d="M0 2.379l7.627-.688S6.944-.285 3.861.036C.706.364 0 2.379 0 2.379z" fill="#191c3c"/><path data-name="Path 5797" d="M19.659 2.379l-7.627-.688s.683-1.976 3.766-1.655c3.157.328 3.861 2.343 3.861 2.343z" fill="#191c3c"/><path data-name="Path 5798" d="M6.407 14.903h7.523s-.353 2.3-3.874 2.3-3.649-2.3-3.649-2.3z" fill="#fff"/></g><g data-name="Group 312"><g data-name="Group 310"><path data-name="Path 5799" d="M1042.347 409.795l10.367 48.789-1.22 6.3 1.22 8.334 3 2.643 1.164.345v-61.617l-.083-.831.083-.8v-42.943a2.032 2.032 0 0 0-2.033-2.033h-10.79a8.576 8.576 0 0 0-1.524 4.477l-1.2 25.715h2.033l-.122 1.379z" fill="#191c3c" opacity=".3"/></g><g data-name="Group 311"><path data-name="Path 5800" d="M1070.682 516.085h-4.931a52.89 52.89 0 0 0-.917 12.239 40.363 40.363 0 0 0 5.848-4.8z" fill="#191c3c" opacity=".3"/></g></g><g data-name="Group 355"><path data-name="Path 5825" d="M738.272 535.451v56.5h3.88a1.652 1.652 0 0 0 1.651-1.651v-54.849z" fill="#191c3c" opacity=".3"/></g><g data-name="Group 356"><path data-name="Path 5826" d="M723.856 464.623a3.98 3.98 0 0 0-4.6-2.272c-1.433.485-2.433 1.961-3.926 2.2-3.983.634-4.306-5.6-3.56-8.1 1.2-4.03 6.1-5.342 8.931-7.915a9.489 9.489 0 0 0 1.272-1.454h-9.365a1.652 1.652 0 0 0-1.652 1.652v36.318c2.665-2.329 4.8-5.069 7.529-7.9 2.051-2.127 4.152-4.327 5.241-7.074a6.978 6.978 0 0 0 .13-5.455z" fill="#191c3c" opacity=".3"/></g><g data-name="Group 380"><g data-name="Group 357"><rect data-name="Rectangle 123" width="24.717" height="144.87" rx="1.015" transform="rotate(180 369.869 295.974)" fill="#efbd60"/></g><g data-name="Group 358"><path data-name="Path 5827" d="M719.674 447.072h8.6v144.87h-8.6a4.654 4.654 0 0 1-4.656-4.654V451.732a4.655 4.655 0 0 1 4.656-4.66z" fill="#fed17e"/></g><g data-name="Group 359"><path data-name="Rectangle 124" fill="#191c3c" d="M718.116 583.805h-3.095v-1.593h3.095z"/></g><g data-name="Group 360"><path data-name="Rectangle 125" fill="#191c3c" d="M718.116 577.37h-3.095v-1.593h3.095z"/></g><g data-name="Group 361"><path data-name="Rectangle 126" fill="#191c3c" d="M718.116 570.935h-3.095v-1.593h3.095z"/></g><g data-name="Group 362"><path data-name="Rectangle 127" fill="#191c3c" d="M718.116 564.501h-3.095v-1.593h3.095z"/></g><g data-name="Group 363"><path data-name="Rectangle 128" fill="#191c3c" d="M721.211 558.065h-6.19v-1.593h6.19z"/></g><g data-name="Group 364"><path data-name="Rectangle 129" fill="#191c3c" d="M718.116 551.63h-3.095v-1.593h3.095z"/></g><g data-name="Group 365"><path data-name="Rectangle 130" fill="#191c3c" d="M718.116 545.195h-3.095v-1.593h3.095z"/></g><g data-name="Group 366"><path data-name="Rectangle 131" fill="#191c3c" d="M718.116 538.759h-3.095v-1.593h3.095z"/></g><g data-name="Group 367"><path data-name="Rectangle 132" fill="#191c3c" d="M718.116 532.325h-3.095v-1.593h3.095z"/></g><g data-name="Group 368"><path data-name="Rectangle 133" fill="#191c3c" d="M721.211 525.889h-6.19v-1.593h6.19z"/></g><g data-name="Group 369"><path data-name="Rectangle 134" fill="#191c3c" d="M718.116 519.454h-3.095v-1.593h3.095z"/></g><g data-name="Group 370"><path data-name="Rectangle 135" fill="#191c3c" d="M718.116 513.019h-3.095v-1.593h3.095z"/></g><g data-name="Group 371"><path data-name="Rectangle 136" fill="#191c3c" d="M718.116 506.583h-3.095v-1.593h3.095z"/></g><g data-name="Group 372"><path data-name="Rectangle 137" fill="#191c3c" d="M718.116 500.148h-3.095v-1.593h3.095z"/></g><g data-name="Group 373"><path data-name="Rectangle 138" fill="#191c3c" d="M721.211 493.713h-6.19v-1.593h6.19z"/></g><g data-name="Group 374"><path data-name="Rectangle 139" fill="#191c3c" d="M718.116 487.279h-3.095v-1.593h3.095z"/></g><g data-name="Group 375"><path data-name="Rectangle 140" fill="#191c3c" d="M718.116 480.842h-3.095v-1.593h3.095z"/></g><g data-name="Group 376"><path data-name="Rectangle 141" fill="#191c3c" d="M718.116 474.408h-3.095v-1.593h3.095z"/></g><g data-name="Group 377"><path data-name="Rectangle 142" fill="#191c3c" d="M718.116 467.972h-3.095v-1.593h3.095z"/></g><g data-name="Group 378"><path data-name="Rectangle 143" fill="#191c3c" d="M721.211 461.537h-6.19v-1.593h6.19z"/></g><g data-name="Group 379"><path data-name="Rectangle 144" fill="#191c3c" d="M718.116 455.102h-3.095v-1.593h3.095z"/></g></g><g data-name="Group 387"><g data-name="Group 382"><g data-name="Group 381"><path data-name="Path 5828" d="M1024.073 591.709h-48.156a3.445 3.445 0 0 1-3.446-3.446v-56.394a3.445 3.445 0 0 1 3.446-3.446h48.156z" fill="#00486e"/></g></g><g data-name="Group 383"><path data-name="Rectangle 145" fill="#fec55e" d="M979.11 537.176h44.963v12.577H979.11z"/></g><g data-name="Group 384"><path data-name="Path 5829" d="M972.47 551.952l6.64-2.2v-12.576l-6.64 2.2z" fill="#fec55e"/></g><g data-name="Group 385"><path data-name="Path 5830" d="M976.908 528.423a4.439 4.439 0 0 0-4.439 4.438v54.41a4.439 4.439 0 0 0 4.439 4.438h2.2v-63.286z" fill="#231f20" opacity=".3"/></g><g data-name="Group 386"><path data-name="Rectangle 146" fill="#fff" d="M987.487 552.708h28.497v3.983h-28.497z"/></g></g><g data-name="Group 388"><path data-name="Path 5831" d="M979.108 528.423h-3.194a3.445 3.445 0 0 0-3.446 3.446v56.39a3.445 3.445 0 0 0 3.446 3.446h10.546a3.493 3.493 0 0 0 1.065-2.512v-60.77z" fill="#191c3c" opacity=".3"/></g><g data-name="Group 404"><g data-name="Group 389"><rect data-name="Rectangle 147" width="64.98" height="84.29" rx="2.158" fill="#4d5068" transform="translate(918.482 508.416)"/></g><g data-name="Group 390"><path data-name="Rectangle 148" fill="#e8eaed" d="M926.365 518.641h49.215v62.009h-49.215z"/></g><g data-name="Group 391"><path data-name="Path 5832" d="M958.047 514.94h-14.149a.854.854 0 0 1-.854-.854.854.854 0 0 1 .854-.854h14.149a.854.854 0 0 1 .854.854.854.854 0 0 1-.854.854z" fill="#191c3c"/></g><g data-name="Group 392"><path data-name="Rectangle 149" d="M961.685 518.433h8.233v59.578a2.639 2.639 0 0 1-2.639 2.639h-5.594v-62.217z" fill="#231f20" opacity=".3"/></g><g data-name="Group 393"><path data-name="Rectangle 150" d="M926.365 518.433h41.795v60.252a1.965 1.965 0 0 1-1.965 1.965h-39.83v-62.217z" fill="#fff"/></g><g data-name="Group 395"><g data-name="Group 394"><path data-name="Path 5833" d="M939.734 532.967h-5.965l-.976 2.151h-2.33l5.116-11.406h2.347l5.116 11.406h-2.347zm-2.982-6.859l-2.117 4.856h4.236z" fill="#191c3c"/></g></g><g data-name="Group 396"><path data-name="Path 5834" d="M963.155 542.829h-31.012a1.678 1.678 0 0 1-1.678-1.678 1.679 1.679 0 0 1 1.678-1.68h31.011a1.681 1.681 0 0 1 1.68 1.68 1.68 1.68 0 0 1-1.679 1.678z" fill="#ececec"/></g><g data-name="Group 397"><path data-name="Path 5835" d="M963.154 535.548h-17.008a1.678 1.678 0 0 1-1.678-1.68 1.678 1.678 0 0 1 1.678-1.678h17.008a1.68 1.68 0 0 1 1.68 1.678 1.68 1.68 0 0 1-1.68 1.68z" fill="#ececec"/></g><g data-name="Group 398"><path data-name="Path 5836" d="M963.154 528.27h-17.008a1.678 1.678 0 0 1-1.678-1.678 1.678 1.678 0 0 1 1.678-1.68h17.008a1.68 1.68 0 0 1 1.68 1.68 1.68 1.68 0 0 1-1.68 1.678z" fill="#ececec"/></g><g data-name="Group 399"><path data-name="Path 5837" d="M963.155 550.11h-31.012a1.678 1.678 0 0 1-1.678-1.68 1.678 1.678 0 0 1 1.678-1.678h31.011a1.68 1.68 0 0 1 1.68 1.678 1.68 1.68 0 0 1-1.679 1.68z" fill="#ececec"/></g><g data-name="Group 400"><path data-name="Path 5838" d="M963.155 557.391h-31.012a1.679 1.679 0 0 1-1.678-1.68 1.68 1.68 0 0 1 1.678-1.68h31.011a1.681 1.681 0 0 1 1.68 1.68 1.681 1.681 0 0 1-1.679 1.68z" fill="#ececec"/></g><g data-name="Group 401"><path data-name="Path 5839" d="M963.155 564.669h-31.012a1.678 1.678 0 0 1-1.678-1.678 1.678 1.678 0 0 1 1.678-1.68h31.011a1.68 1.68 0 0 1 1.68 1.68 1.68 1.68 0 0 1-1.679 1.678z" fill="#ececec"/></g><g data-name="Group 402"><path data-name="Path 5840" d="M963.155 571.95h-31.012a1.679 1.679 0 0 1-1.678-1.68 1.679 1.679 0 0 1 1.678-1.68h31.011a1.681 1.681 0 0 1 1.68 1.68 1.681 1.681 0 0 1-1.679 1.68z" fill="#ececec"/></g><g data-name="Group 403"><path data-name="Path 5841" d="M968.16 577.307a3.6 3.6 0 0 0-3.469-3.83h-1.485v-58.941h1.436a3.519 3.519 0 0 1 3.519 3.519z" fill="#fec55e"/></g></g><g data-name="Group 405"><path data-name="Path 5842" d="M932.463 550.968h-.319v-1.052a5.731 5.731 0 0 0-6.3-5.7 5.9 5.9 0 0 0-5.15 5.952v.8h-2.213v38.228a3.5 3.5 0 0 0 2.361 3.3h11.621a6.094 6.094 0 0 0 6.093-6.093v-29.341a6.094 6.094 0 0 0-6.093-6.094zm-3.7 0h-4.692v-1.052a2.349 2.349 0 0 1 2.59-2.334 2.442 2.442 0 0 1 2.1 2.472z" fill="#191c3c" opacity=".3"/></g><g data-name="Group 423"><g data-name="Group 406"><rect data-name="Rectangle 151" width="41.529" height="41.529" rx="5.035" fill="#fff" transform="translate(893.775 550.969)"/></g><g data-name="Group 407"><path data-name="Path 5843" d="M929.211 550.969h-29.343a6.094 6.094 0 0 0-6.093 6.093v6.368h41.531v-6.368a6.094 6.094 0 0 0-6.095-6.093z" fill="#fec55e"/></g><g data-name="Group 408"><path data-name="Path 5844" d="M903.246 556.828a3.16 3.16 0 1 1-3.16-3.16 3.16 3.16 0 0 1 3.16 3.16z" fill="#bf9447"/></g><g data-name="Group 409"><path data-name="Path 5845" d="M902.246 556.828a2.159 2.159 0 1 1-2.16-2.158 2.159 2.159 0 0 1 2.16 2.158z" fill="#403118"/></g><g data-name="Group 410"><path data-name="Path 5846" d="M922.392 556.828a3.16 3.16 0 1 1-3.161-3.16 3.161 3.161 0 0 1 3.161 3.16z" fill="#bf9447"/></g><g data-name="Group 411"><path data-name="Path 5847" d="M921.391 556.828a2.159 2.159 0 1 1-2.16-2.158 2.158 2.158 0 0 1 2.16 2.158z" fill="#403118"/></g><g data-name="Group 413"><g data-name="Group 412"><path data-name="Path 5848" d="M919.132 557.59a1.689 1.689 0 0 1-1.69-1.69v-5.727a5.9 5.9 0 0 1 5.153-5.953 5.731 5.731 0 0 1 6.3 5.7v1.048h-3.379v-.914a2.442 2.442 0 0 0-2.1-2.472 2.349 2.349 0 0 0-2.59 2.334v5.984a1.689 1.689 0 0 1-1.694 1.69z" fill="#191c3c"/></g></g><g data-name="Group 415"><g data-name="Group 414"><path data-name="Path 5849" d="M899.987 557.59a1.689 1.689 0 0 1-1.69-1.69v-5.727a5.9 5.9 0 0 1 5.153-5.953 5.731 5.731 0 0 1 6.3 5.7v1.048h-3.379v-.914a2.442 2.442 0 0 0-2.1-2.472 2.349 2.349 0 0 0-2.591 2.334v5.984a1.689 1.689 0 0 1-1.693 1.69z" fill="#191c3c"/></g></g><g data-name="Group 416"><path data-name="Path 5850" d="M929.211 550.969h-3.025a6.093 6.093 0 0 1 6.093 6.093v29.343a6.093 6.093 0 0 1-6.093 6.093h3.026a6.094 6.094 0 0 0 6.093-6.093v-29.343a6.094 6.094 0 0 0-6.094-6.093z" fill="#212121" opacity=".3"/></g><g data-name="Group 422"><g data-name="Group 417"><circle data-name="Ellipse 31" cx="15.15" cy="15.15" r="15.15" fill="#4d5068" transform="translate(898.698 561.89)"/></g><g data-name="Group 418"><path data-name="Path 5851" d="M926.656 577.039a12.809 12.809 0 1 1-12.809-12.809 12.809 12.809 0 0 1 12.809 12.809z" fill="#717386"/></g><g data-name="Group 419"><path data-name="Path 5852" d="M924.054 577.04a10.207 10.207 0 1 1-10.208-10.206 10.205 10.205 0 0 1 10.208 10.206z" fill="#fff"/></g><g data-name="Group 420"><path data-name="Path 5853" d="M913.847 577.039a.611.611 0 0 1-.611-.613v-7.051a.612.612 0 0 1 .611-.613.612.612 0 0 1 .613.613v7.054a.611.611 0 0 1-.613.61z" fill="#212121"/></g><g data-name="Group 421"><path data-name="Path 5854" d="M919.916 576.426a.612.612 0 0 0-.613-.612h-5.454a.611.611 0 0 0-.613.612.611.611 0 0 0 .613.613h5.451a.612.612 0 0 0 .616-.613z" fill="#212121"/></g></g></g><g data-name="Group 428"><g data-name="Group 424"><path data-name="Path 5855" d="M797.55 343.728v30.919a7.07 7.07 0 0 1-7.071 7.071h-3.256V398.5a.8.8 0 0 1-1.412.514l-17.919-17.3h-36.9a7.071 7.071 0 0 1-7.071-7.071v-30.915a7.071 7.071 0 0 1 7.071-7.071h59.484a7.07 7.07 0 0 1 7.074 7.071z" fill="#00486e"/></g><g data-name="Group 425"><path data-name="Path 5856" d="M785.244 351.888h-48.558a1.927 1.927 0 0 1-1.927-1.929 1.926 1.926 0 0 1 1.927-1.927h48.558a1.927 1.927 0 0 1 1.931 1.927 1.929 1.929 0 0 1-1.931 1.929z" fill="#fff"/></g><g data-name="Group 426"><path data-name="Path 5857" d="M785.244 360.884h-48.558a1.927 1.927 0 0 1-1.927-1.929 1.926 1.926 0 0 1 1.927-1.927h48.558a1.927 1.927 0 0 1 1.931 1.927 1.929 1.929 0 0 1-1.931 1.929z" fill="#fff"/></g><g data-name="Group 427"><path data-name="Path 5858" d="M768.175 369.878h-31.489a1.926 1.926 0 0 1-1.927-1.927 1.926 1.926 0 0 1 1.927-1.927h31.489a1.927 1.927 0 0 1 1.927 1.927 1.927 1.927 0 0 1-1.927 1.927z" fill="#fff"/></g></g><g data-name="Group 429"><path data-name="Rectangle 152" fill="#191c3c" d="M628.164 591.894h706.063v1.626H628.164z"/></g><g data-name="Group 432" fill="#fff"><path d="M919.415 391.946a20.653 20.653 0 0 1 .474 2.133 16.683 16.683 0 0 1 .158 2.054v.079a13.91 13.91 0 0 1-4.108 9.875 13.246 13.246 0 0 1-4.266 2.923 1.774 1.774 0 0 0-1.106-.474h-1.975a12.936 12.936 0 0 0 6.4-3.4 12.069 12.069 0 0 0 3.081-5.214l.474-1.9a22.792 22.792 0 0 0 0-3.792 58.891 58.891 0 0 0-.474-1.817zm-19.04 17.063a13.246 13.246 0 0 1-4.266-2.923 13.91 13.91 0 0 1-4.108-9.877v-.079a19.421 19.421 0 0 1 .158-2.212 18.1 18.1 0 0 1 .553-2.209l1.343.4a9.649 9.649 0 0 0-.474 2.054 15.02 15.02 0 0 0-.237 1.975 16.286 16.286 0 0 0 .237 2.054 8.978 8.978 0 0 0 .474 1.975 13.352 13.352 0 0 0 3 4.977 12.936 12.936 0 0 0 6.4 3.4h-1.974a1.6 1.6 0 0 0-1.106.465z"/><path d="M895.319 394.317a9.681 9.681 0 0 1-3.239-2.686 8.949 8.949 0 0 1 .869-11.614 10.143 10.143 0 0 1 2.054-1.58 6.294 6.294 0 0 0 1.027 1.027 6.575 6.575 0 0 0-2.054 1.5 7.263 7.263 0 0 0-2.212 5.373 8.019 8.019 0 0 0 1.422 4.5 7.855 7.855 0 0 0 3.871 2.69l.632.237 1.185.316a8.479 8.479 0 0 0-.4 2.528 7.212 7.212 0 0 0 2.212 5.293 6.81 6.81 0 0 0 3.318 1.975v1.422a9.082 9.082 0 0 1-4.262-2.37v-.079a8.521 8.521 0 0 1-2.607-6.241 10.073 10.073 0 0 1 .079-1.58 11.366 11.366 0 0 1-1.895-.711zm12.723 9.559a6.81 6.81 0 0 0 3.318-1.975 7.531 7.531 0 0 0 2.212-5.293 8.479 8.479 0 0 0-.4-2.528l1.106-.316.632-.237a7.729 7.729 0 0 0 3.952-2.69 8.019 8.019 0 0 0 1.422-4.5 7.263 7.263 0 0 0-2.212-5.372 6.575 6.575 0 0 0-2.054-1.5 6.294 6.294 0 0 0 1.024-1.028 10.143 10.143 0 0 1 2.054 1.58 8.949 8.949 0 0 1 .869 11.613 9.681 9.681 0 0 1-3.239 2.686 11.366 11.366 0 0 1-1.9.711 10.073 10.073 0 0 1 .079 1.58 8.521 8.521 0 0 1-2.607 6.241v.079a9.48 9.48 0 0 1-4.266 2.37zm-6.561 4.029h9.085a2.292 2.292 0 1 1 0 4.582h-9.085a2.4 2.4 0 0 1-1.659-.632 2.493 2.493 0 0 1 0-3.318 2.4 2.4 0 0 1 1.659-.632zm9.085 1.343h-9.085a.9.9 0 0 0-.632 1.58.975.975 0 0 0 .632.316h9.085a.975.975 0 0 0 .632-.316.951.951 0 0 0-.632-1.58zm-1.342 5.846a3.519 3.519 0 0 1-.948 2.291 3.213 3.213 0 0 1-2.291.948 3.168 3.168 0 0 1-2.212-.948 3.519 3.519 0 0 1-.949-2.291h1.422a1.668 1.668 0 0 0 .474 1.264 1.572 1.572 0 0 0 1.264.553 1.628 1.628 0 0 0 1.343-.553 1.668 1.668 0 0 0 .474-1.264z"/><path d="M901.481 411.144h9.085a2.17 2.17 0 0 1 2.291 2.291 2.4 2.4 0 0 1-.632 1.659 2.633 2.633 0 0 1-1.659.711h-9.085a2.463 2.463 0 0 1-1.659-.711 2.4 2.4 0 0 1-.632-1.659 2.55 2.55 0 0 1 .632-1.659 2.4 2.4 0 0 1 1.659-.632zm9.085 1.343h-9.085a.975.975 0 0 0-.632.316.718.718 0 0 0-.316.632.965.965 0 0 0 .316.711.9.9 0 0 0 .632.237h9.085a.9.9 0 0 0 .632-.237.965.965 0 0 0 .316-.711.718.718 0 0 0-.316-.632.975.975 0 0 0-.632-.316zm-9.638-31.996a6 6 0 0 1 4.108 1.659 5.859 5.859 0 0 1 1.659 4.108 5.8 5.8 0 0 1-5.767 5.846 5.784 5.784 0 0 1-4.187-1.738 5.72 5.72 0 0 1-1.659-4.108 5.858 5.858 0 0 1 1.659-4.108 6.051 6.051 0 0 1 4.187-1.659zm3.081 2.686a4.124 4.124 0 0 0-3.081-1.343 4.172 4.172 0 0 0-3.16 1.343 4.385 4.385 0 0 0 3.16 7.505 4.361 4.361 0 0 0 3.081-1.264 4.3 4.3 0 0 0 0-6.241z"/><path d="M911.119 380.491a5.72 5.72 0 0 1 4.108 1.659 5.6 5.6 0 0 1 1.738 4.108 5.936 5.936 0 0 1-5.846 5.846 5.8 5.8 0 0 1-5.767-5.846 5.858 5.858 0 0 1 1.659-4.108 6 6 0 0 1 4.108-1.659zm3.16 2.686a4.172 4.172 0 0 0-3.16-1.343 4.124 4.124 0 0 0-3.081 1.343 4.3 4.3 0 0 0 0 6.241 4.361 4.361 0 0 0 3.081 1.264 4.412 4.412 0 0 0 3.16-1.264 4.3 4.3 0 0 0 0-6.241z"/><path d="M904.641 390.445a3.764 3.764 0 0 0 .474 1.422c.316.474.632.948.869 1.343.316-.395.632-.869.948-1.343a3.764 3.764 0 0 0 .474-1.422l1.422.079a7.965 7.965 0 0 1-.711 2.054 13.38 13.38 0 0 1-1.58 2.212l-.553.632-.474-.632a13.375 13.375 0 0 1-1.58-2.212 5.8 5.8 0 0 1-.711-2.054zm-11.376-16.664l12.715 4.5 13.988-4.9-.316 1.185c-.711 3-2.054 4.74-3.634 5.688a11.823 11.823 0 0 1-5.056 1.58 5.715 5.715 0 0 0-3.16 1.264 3.945 3.945 0 0 0-1.107 3.083h-1.343a3.971 3.971 0 0 0-1.185-3.081 5.237 5.237 0 0 0-3.081-1.264 11.823 11.823 0 0 1-5.056-1.58c-1.58-.948-2.923-2.686-3.634-5.688l-.316-1.187zm12.561 5.92l-11.692-4.187a7 7 0 0 0 2.607 3.634 11.056 11.056 0 0 0 4.5 1.343 7.2 7.2 0 0 1 3.871 1.58 3.842 3.842 0 0 1 .868 1.11 4.158 4.158 0 0 1 .948-1.106 7.2 7.2 0 0 1 3.871-1.58 11.056 11.056 0 0 0 4.5-1.343 7 7 0 0 0 2.607-3.634l-11.685 4.183z"/><path d="M911.12 383.967a2.057 2.057 0 0 1 1.185.316c-.079 0-.079-.079-.158-.079a.949.949 0 0 0-.869.948.877.877 0 0 0 .869.869.9.9 0 0 0 .948-.869c0-.079-.079-.158-.079-.237a2.145 2.145 0 0 1 .474 1.343 2.331 2.331 0 1 1-4.661 0 2.293 2.293 0 0 1 2.291-2.291zm-10.192 0a1.814 1.814 0 0 1 1.106.316c-.079 0-.079-.079-.158-.079a.949.949 0 0 0-.869.948.877.877 0 0 0 .869.869.9.9 0 0 0 .948-.869.29.29 0 0 0-.079-.237 2.145 2.145 0 0 1 .474 1.343 2.331 2.331 0 1 1-4.661 0 2.311 2.311 0 0 1 2.37-2.291z" fill-rule="evenodd"/><path d="M902.666 404.824v3.4h1.343v-3.4zm5.373 0v3.4h1.343v-3.4z"/></g><path data-name="Path 5859" d="M1153.07 306.322c.148-1.063.279-2.1.444-3.136a2.884 2.884 0 0 1 2.067-2.3c1.454-.519 2.924-1 4.417-1.395 2.687-.7 5.4-1.331 8.091-1.989l.352-.086.625 2.528-3.906.968c.128.667.279 1.309.374 1.953.234 1.456.438 2.918.678 4.375a10.477 10.477 0 0 0 .865 3.049 1.82 1.82 0 0 0 2.653.9 1.8 1.8 0 0 0 .965-1.777c0-.184-.028-.365-.045-.583l.628-.156c.042.338.1.664.117.99a5.384 5.384 0 0 1-.751 3.281 3.261 3.261 0 0 1-3.348 1.462 2.881 2.881 0 0 1-2.511-2.2 38.8 38.8 0 0 1-.854-4.121c-.352-2.079-.642-4.168-.96-6.252-.017-.126-.059-.246-.095-.4l-3.627.9c.067.438.134.887.2 1.336.377 2.483.77 4.966 1.116 7.455a11.308 11.308 0 0 1 .045 3.853 2.079 2.079 0 0 1-2.126 1.794 1.841 1.841 0 0 1-1.7-2.436c.3-.87.675-1.716.957-2.592a13.6 13.6 0 0 0 .466-5.859c-.114-.96-.312-1.908-.463-2.865-.039-.243-.134-.349-.388-.265a17.539 17.539 0 0 0-1.861.622 2.67 2.67 0 0 0-1.409 1.674c-.078.229-.148.46-.215.695-.159.551-.162.557-.801.577z" fill="#ffd864"/><g data-name="Group 558"><path data-name="Path 7445" d="M1099.26 396.101c.632 6.2 1.513 12.368 1.975 18.588a242.287 242.287 0 0 1 .345 26.88c-.32 8.707-.758 17.411-1.14 26.116-.059 1.349-.092 2.7-.136 4.047a8.063 8.063 0 0 0-.059 2.7l-.32 7.5a45.524 45.524 0 0 0-.259 7.823l.038 2.405a39.411 39.411 0 0 0-.276 6.89c-.028 1.139-.074 2.277-.079 3.416a1.3 1.3 0 0 1-1.18 1.456c-1.124.207-2.24.456-3.359.687a51.572 51.572 0 0 1-16.794-.372 2.61 2.61 0 0 1-1.185-2.423 291.619 291.619 0 0 0-4.532-37.533 177.673 177.673 0 0 0-4.978-21.155c-1.982-6.215-1.808-12.524-.9-18.873.135-.937.261-1.875.391-2.812a2 2 0 0 1 .745-.9 18.109 18.109 0 0 0 7.543-12.232c1.019-6.428 4.235-9.489 10.482-10.579a50.211 50.211 0 0 1 5.8-.579 18.57 18.57 0 0 0 7.658-1.734l.215.67-.049.019z" fill="#121d16"/><path data-name="Path 7446" d="M1099.044 395.414a18.571 18.571 0 0 1-7.658 1.734 50.211 50.211 0 0 0-5.8.579c-6.246 1.09-9.463 4.151-10.482 10.579a18.108 18.108 0 0 1-7.543 12.232 2 2 0 0 0-.745.9c-.55-.034-.914.354-1.348.588-3.194 1.721-6.146.608-7.319-2.8a37.22 37.22 0 0 1-1.764-7.865q-1.126-9.8-2.107-19.614c-.479-4.812-.766-9.643-1.3-14.449-.25-2.261-.139-4.576-.842-6.782.006-.549.034-1.1.014-1.648-.247-6.8-.646-13.6.886-20.319 1.154-5.062 2.979-9.819 6.521-13.742 2.19-2.426 4.849-3.679 8.176-2.84 1.06.267 2.075.711 3.111 1.074a15.928 15.928 0 0 0 3.121 2.117 25.748 25.748 0 0 1 6.118 7.478 48.783 48.783 0 0 0 2.572 4.221 25 25 0 0 0 10.447 9.166 20.759 20.759 0 0 1 6.194 4.51l1.308 4.175-.095.861c-2.089 1.282-2.135 1.722-.317 3.071a.414.414 0 0 0 .039.257c-.242.173-.462.443-.729.5-3.252.732-5.923 2.813-9.034 3.864-.9.3-1.136.623-.511 1.578a9.82 9.82 0 0 1 2.075 4.891c.038 1.059.274 2.061.39 3.092.092.82.52.492.923.376.432 1.063.965 1.069 1.716.246.868-.95 1.826-1.819 2.724-2.742.173-.178.736-.409.065-.7a1.277 1.277 0 0 1 .91-.708 39.471 39.471 0 0 0 1.6 10c.722 2.334.706 4.422-1.316 6.12z" fill="#3a70ef"/><path data-name="Path 7447" d="M1070.846 333.044c-1.035-.363-2.051-.807-3.111-1.074-3.327-.839-5.986.414-8.176 2.84-3.541 3.923-5.366 8.68-6.521 13.742-1.531 6.718-1.132 13.522-.886 20.319.02.549-.008 1.1-.014 1.648-7.232-3.705-12.47-14.206-10.839-21.757a12.1 12.1 0 0 1 2.738-5.594c2.862-3.232 3.128-6.832 1.265-10.589-1.558-3.14-3.292-6.155-2.96-9.887a28.693 28.693 0 0 1 2.3-9.078c5.029-11.418 12.857-20.192 24.512-25.128a29.017 29.017 0 0 1 17.929-1.685 15.649 15.649 0 0 1 9.951 6.473 19.96 19.96 0 0 0 3.883 3.884 11.738 11.738 0 0 1 4.231 11.649 33.526 33.526 0 0 1-9.189 17.551c-3 3.083-3.292 6.453-1.966 10.217a28.418 28.418 0 0 0 2.884 5.423c2.584 4.168 4.335 8.567 3.687 13.615a20.369 20.369 0 0 1-1.266 4.925 20.77 20.77 0 0 0-6.194-4.509 25 25 0 0 1-10.447-9.166 48.808 48.808 0 0 1-2.572-4.221 25.743 25.743 0 0 0-6.118-7.478c1.17-2.2 2.366-4.386 3.5-6.605a3 3 0 0 1 2.933-1.9 4.963 4.963 0 0 1 2.8 1.586 7.09 7.09 0 0 0 1.908 1.423 2.471 2.471 0 0 0 3.786-1.295c.27-.585.422-1.247 1.135-1.491 1.565-.274 1.817-1.9 2.819-2.761.052-.045-.12-.351-.187-.535 0-.856.522-1.033 1.268-1.124a1.81 1.81 0 0 0 1.772-2.269c-.181-1.539-.285-3.087-.4-4.632-.033-.437-.079-.787-.647-.764-1.591.065-1.92-1.179-2.394-2.271a6.248 6.248 0 0 1 1.035.819c1.353 1.24 1.593 1.218 2.689-.211.213-.277.454-.532.692-.788 2.052-2.2 2.526-4.851 2.33-7.845a10.445 10.445 0 0 1-4.559.657 13.788 13.788 0 0 0-11.385 4.692c-.471.51-.879 1.19-1.711 1.358.728-3.553.213-4.751-2.18-5.186a.7.7 0 0 0-.862.022 3.873 3.873 0 0 0-3.306 3.142 11.822 11.822 0 0 0 .019 5.322q.1 3.283.207 6.566c-.077.847-.138 1.7-.234 2.54-.412 3.57-.942 7.088-4.149 9.43z" fill="#261516"/><path data-name="Path 7448" d="M1078.016 504.238a51.57 51.57 0 0 0 16.794.373c-.075 2.8-.9 5.492-1.186 8.259-.377 3.609-.887 7.2-1.28 10.81-.979 8.967-.893 17.951-.809 26.937a66.365 66.365 0 0 0 2.2 17.139 33.481 33.481 0 0 0 3.167 7.422c1.65 2.936 2.874 6.12 5.077 8.757.424.508 1.337.608 1.321 1.482a8.1 8.1 0 0 1-1.213.58c-3.261.95-5.887.919-8.138-1.8a55 55 0 0 1-3.959-5.243c-3.208-4.987-6.238-10.1-10.552-14.274.122-1.187.288-2.373.358-3.563a57.091 57.091 0 0 0-1.549-15.122c-1.276-6.081-2.915-12.1-3.7-18.263-.655-5.126-1.087-10.336.416-15.439a26.074 26.074 0 0 1 2.252-5.352 5.584 5.584 0 0 0 .801-2.703z" fill="#fdd7cb"/><path data-name="Path 7449" d="M1098.763 379.297a1.27 1.27 0 0 0-.908.708 21.341 21.341 0 0 0-4.506 3.2c-.4.116-.831.445-.923-.376-.115-1.031-.352-2.034-.39-3.092a9.819 9.819 0 0 0-2.075-4.891c-.625-.955-.389-1.274.511-1.578 3.111-1.051 5.782-3.132 9.034-3.864.267-.06.487-.33.729-.5a2.934 2.934 0 0 0 1.512-.884l.876-.038c.41.017.61-.179.595-.59l.009-.01c.4-.027.749-.085.33-.579v-.534a.832.832 0 0 0 .814-.932 2.622 2.622 0 0 0 .4-1.483c.348-.481.981-.809.836-1.555l2.142-1.829 1.5-.232a.525.525 0 0 0 .912-.03c1.853-.44 3.7-1.126 5.475.306a9.488 9.488 0 0 1 1.464 1.833c-.427.55-.852 1.1-1.281 1.651-.182.233-.458.464-.32.781.172.394.583.326.923.318a5.55 5.55 0 0 0 3.674-1.454l3.555-3.182c2.271.967 2.2 2.543 1.057 4.411a26.607 26.607 0 0 1-5.55 5.828 2.106 2.106 0 0 1-.88.55c-2.841.517-5.472 2.044-8.364 2.1a12.177 12.177 0 0 0-7.069 2.71c-1.407 1.009-2.724 2.154-4.082 3.237z" fill="#fdd7cb"/><path data-name="Path 7450" d="M1079.432 564.676c4.314 4.169 7.344 9.287 10.552 14.274a55.013 55.013 0 0 0 3.96 5.243c2.251 2.723 4.877 2.754 8.138 1.8a8.082 8.082 0 0 0 1.213-.58 30.386 30.386 0 0 0 6.265 2l1.432.695a5.439 5.439 0 0 1 .927.72c.761.9.412 1.767-.767 1.936-2.141.306-4.286.594-6.428.889l-2.074.034-2.136.067a5.42 5.42 0 0 0-2.091-.082l-1.184-.013-2.416.037c-2.173-.335-3.456-1.688-4.5-3.555-1.9-3.4-3.832-6.8-7.247-9.01a8 8 0 0 0-3.258-1.443c-1.064-.14-1.825.357-1.828 1.456a91.538 91.538 0 0 0 .177 10.352c.055.5.061 1 .07 1.5.007.441-.259.615-.671.622-.375.006-.716-.042-.774-.507a19.51 19.51 0 0 1-.248-2.229c-.035-4.7.15-9.5-1.384-13.966-1.581-4.61 1.161-7.212 3.717-10.07.114-.123.368-.116.555-.17z" fill="#016ca4"/><path data-name="Path 7451" d="M1123.653 360.458l-3.556 3.182a5.55 5.55 0 0 1-3.673 1.454c-.339.008-.751.076-.923-.318-.138-.317.138-.548.32-.781q.643-.823 1.281-1.651c2.367-1.995 4.424-4.308 6.631-6.467a146.6 146.6 0 0 0 3.176-3.182 1.54 1.54 0 1 1 2.155 2.2c-1.828 1.827-3.61 3.704-5.411 5.563z" fill="#261516"/><path data-name="Path 7452" d="M1138.413 334.632c.081.777.792.851 1.3 1.082a12.26 12.26 0 0 1 7.207 8.809 14.39 14.39 0 0 1-.673 8.254c-.7-1.434-.114-2.6.047-3.691a11.581 11.581 0 0 0-2.475-8.912c-2.221-3.012-5.354-4.3-8.877-4.935-.33-.06-.961.206-.848-.464.082-.485.568-.357.991-.325 1.108.086 2.189.782 3.333.183z" fill="#fdc0a9"/><path data-name="Path 7453" d="M1142.339 352.021a1.316 1.316 0 0 1-.139-1.5 8.677 8.677 0 0 0-6.936-11.336 2.5 2.5 0 0 0-1.014.138c-.326.1-.687.646-.9-.05-.155-.512-.018-.86.648-1.083a4.347 4.347 0 0 1 3 .5 9.427 9.427 0 0 1 5.691 12.9 2.654 2.654 0 0 1-.35.431z" fill="#fdc0a9"/><path data-name="Path 7454" d="M1133.842 349.975c-1.6.012-2.368-.7-2.34-2.168a2.409 2.409 0 1 1 4.806.039c-.005 1.372-.87 2.117-2.466 2.129zm.225-3.623c-1.03 0-1.646.376-1.647 1.374a1.471 1.471 0 0 0 2.938.171c.022-.838-.347-1.553-1.291-1.545z" fill="#fdc0a9"/><path data-name="Path 7455" d="M1139.626 347.877a5.807 5.807 0 0 1-.375 2.384c-.1.437-.284 1.216-.85 1-.6-.228-.182-.813.071-1.244a4.86 4.86 0 0 0 .5-3.048c-.263-2.653-2.983-3.948-4.911-4.223-.416-.06-1.208.352-1.157-.441.038-.6.79-.463 1.271-.453 3.126.065 5.454 2.594 5.451 6.025z" fill="#fdc0a9"/><path data-name="Path 7456" d="M1107.756 360.466l-2.142 1.829c-.885-.122-.991-.663-.518-1.25.961-1.192 2.007-2.316 3.022-3.464.391-.443.757-.364 1.122.054s.3.731-.078 1.15c-.487.54-1.219.889-1.406 1.681z" fill="#fdc0a9"/><path data-name="Path 7457" d="M1104.777 363.85a2.624 2.624 0 0 1-.4 1.482 8.408 8.408 0 0 0-.994-.243c-1.1-.137-1.474.835-2.042 1.439-.55.583-.016 1.064.4 1.487a2.934 2.934 0 0 1-1.512.884.413.413 0 0 1-.039-.257 6.717 6.717 0 0 0 .317-3.071l.095-.861a1.263 1.263 0 0 0 1.074-.423 2.3 2.3 0 0 1 3.101-.437z" fill="#fdc0a9"/><path data-name="Path 7458" d="M1110.163 360.204a.525.525 0 0 1-.912.03c.286-.542.604-.129.912-.03z" fill="#fdc0a9"/><path data-name="Path 7459" d="M1138.414 334.633c.038-.217.031-.472.359-.454a.135.135 0 0 1 .093.093c.019.329-.239.32-.454.36z" fill="#fdc0a9"/><path data-name="Path 7460" d="M1099.26 396.101h-.049l.049-.018z" fill="#ef3a5b"/><path data-name="Path 7461" d="M1080.398 326.657a3 3 0 0 0-2.933 1.9c-1.133 2.219-2.329 4.405-3.5 6.605a15.932 15.932 0 0 1-3.121-2.117c3.207-2.342 3.736-5.86 4.14-9.431.1-.845.157-1.693.234-2.54a7.487 7.487 0 0 0 2.47-.238c.34.856.389 1.984 1.219 2.444 1.441.795 1.605 1.985 1.491 3.377z" fill="#fdc0a9"/><path data-name="Path 7462" d="M1093.349 383.203a21.34 21.34 0 0 1 4.506-3.2c.67.292.107.523-.067.7-.9.924-1.856 1.792-2.724 2.742-.754.827-1.283.821-1.715-.242z" fill="#feab8e"/><path data-name="Path 7463" d="M1100.511 365.571a6.717 6.717 0 0 1-.317 3.071c-1.817-1.349-1.771-1.789.317-3.071z" fill="#feab8e"/><path data-name="Path 7464" d="M1080.399 326.658c.114-1.393-.049-2.583-1.489-3.38-.83-.46-.879-1.588-1.219-2.444 1.762-1.141 2.412-2.74 1.776-4.374-.65-1.671-2.237-2.367-4.453-1.954a11.82 11.82 0 0 1-.019-5.322 3.872 3.872 0 0 1 3.306-3.142c-.232.364-.9.672-.131 1.157 1.241.779.54 1.082-.329 1.374-.906.3-1.458 1.037-.879 1.813a20.236 20.236 0 0 1 1.079 2.059c.248.419.961 1.042 1.077.718.4-1.1 1.99-1.882 1.642-2.815-.534-1.432.2-3.387-1.6-4.327 2.393.434 2.908 1.633 2.18 5.186.832-.168 1.24-.847 1.711-1.358a13.787 13.787 0 0 1 11.385-4.692 10.444 10.444 0 0 0 4.559-.657c.2 2.995-.277 5.644-2.33 7.845-.238.256-.48.511-.692.788-1.1 1.429-1.336 1.45-2.689.211a6.252 6.252 0 0 0-1.035-.819c.474 1.092.8 2.336 2.394 2.271.569-.023.615.327.647.764.116 1.546.22 3.093.4 4.632a1.809 1.809 0 0 1-1.772 2.269c-.746.091-1.268.268-1.268 1.123a12.841 12.841 0 0 0-2.71.524c-1.082.6.62 1.589.208 2.508-.04.09-.087.177-.13.265-.712.244-.865.906-1.135 1.491a2.471 2.471 0 0 1-3.785 1.295 7.089 7.089 0 0 1-1.908-1.423 4.963 4.963 0 0 0-2.791-1.586zm11.068-17.041c1.411.222 3.05-.308 4.054 1.262.152.238.169.837.667.55.411-.237.278-.748.113-1.083a2.213 2.213 0 0 0-1.855-1.306 4.682 4.682 0 0 0-3 .608l.036.042z" fill="#fdd7cb"/><path data-name="Path 7465" d="M1075.013 314.507c2.215-.413 3.8.283 4.453 1.954.636 1.634-.014 3.233-1.776 4.374a7.487 7.487 0 0 1-2.47.238l-.207-6.566z" fill="#016ca4"/><path data-name="Path 7466" d="M1079.163 306.022c1.8.94 1.063 2.9 1.6 4.327.348.934-1.245 1.715-1.642 2.815-.117.324-.83-.3-1.077-.718a20.211 20.211 0 0 0-1.079-2.059c-.579-.776-.027-1.509.879-1.813.869-.292 1.571-.6.33-1.374-.773-.485-.1-.793.131-1.157a.7.7 0 0 1 .858-.021z" fill="#fdc0a9"/><path data-name="Path 7467" d="M1090.022 326.881c.044-.088.09-.176.13-.265.412-.919-1.291-1.907-.208-2.508a12.843 12.843 0 0 1 2.71-.524c.068.185.239.492.187.536-1.001.858-1.258 2.491-2.819 2.761z" fill="#fc5252"/><path data-name="Path 7468" d="M1101.746 368.015c-.421-.424-.954-.9-.4-1.487.568-.6.946-1.575 2.042-1.439a8.388 8.388 0 0 1 .994.243.832.832 0 0 1-.814.932c-.09-.168-.2-.314-.413-.212-.05.024-.081.217-.065.225a4.819 4.819 0 0 0 .474.2v.323a.613.613 0 0 0-.33.579l-.009.01a.569.569 0 0 0-.595.59z" fill="#feab8e"/><path data-name="Path 7469" d="M1102.623 367.978a.569.569 0 0 1 .595-.59c.017.411-.183.606-.595.59z" fill="#fdc0a9"/><path data-name="Path 7470" d="M1103.226 367.378a.614.614 0 0 1 .33-.579c.419.494.075.552-.33.579z" fill="#fdc0a9"/><path data-name="Path 7471" d="M1103.559 366.476a4.777 4.777 0 0 1-.474-.2c-.016-.009.015-.2.065-.225.211-.1.323.044.413.212 0 .072-.002.142-.004.213z" fill="#fdc0a9"/><path data-name="Path 7472" d="M1134.067 346.352c.944-.008 1.313.708 1.291 1.545a1.471 1.471 0 0 1-2.938-.171c-.003-.998.617-1.381 1.647-1.374z" fill="#feab8e"/><path data-name="Path 7473" d="M1091.442 309.652a4.672 4.672 0 0 1 3-.612 2.213 2.213 0 0 1 1.855 1.306c.165.335.3.845-.113 1.083-.5.288-.515-.311-.667-.55-1-1.57-2.643-1.041-4.054-1.262z" fill="#261516"/><path data-name="Path 7474" d="M1091.466 309.616l.015.075a.474.474 0 0 0-.037-.041z" fill="#261516"/></g></g></svg>