<svg xmlns="http://www.w3.org/2000/svg" width="168" height="46"><path fill="none" d="M0 0h168v46H0z"/><g data-name="Group 8"><path d="M29.624 18.886a20.974 20.974 0 0 1 .481 2.166 16.942 16.942 0 0 1 .16 2.086v.08a14.127 14.127 0 0 1-4.171 10.027 13.454 13.454 0 0 1-4.333 2.969 1.8 1.8 0 0 0-1.123-.481h-2.006a13.137 13.137 0 0 0 6.5-3.45 12.257 12.257 0 0 0 3.129-5.3l.481-1.926a23.148 23.148 0 0 0 0-3.851 59.25 59.25 0 0 0-.481-1.845zm-19.341 17.33a13.454 13.454 0 0 1-4.333-2.969 14.127 14.127 0 0 1-4.167-10.029v-.08a19.725 19.725 0 0 1 .16-2.247 18.383 18.383 0 0 1 .562-2.246l1.364.4a9.8 9.8 0 0 0-.481 2.086 15.254 15.254 0 0 0-.241 2.006 16.54 16.54 0 0 0 .241 2.086 9.117 9.117 0 0 0 .481 2.006 13.56 13.56 0 0 0 3.049 5.055 13.137 13.137 0 0 0 6.5 3.45h-2.007a1.626 1.626 0 0 0-1.128.482z" fill="#005180"/><path d="M5.153 21.293a9.832 9.832 0 0 1-3.29-2.727 9.088 9.088 0 0 1 .883-11.8 10.3 10.3 0 0 1 2.086-1.6 6.392 6.392 0 0 0 1.043 1.043 6.677 6.677 0 0 0-2.086 1.524 7.376 7.376 0 0 0-2.247 5.456 8.144 8.144 0 0 0 1.444 4.577 7.977 7.977 0 0 0 3.932 2.725l.642.241 1.2.321a8.611 8.611 0 0 0-.4 2.567 7.324 7.324 0 0 0 2.247 5.376 6.916 6.916 0 0 0 3.37 2.006v1.444a9.224 9.224 0 0 1-4.333-2.407v-.08a8.653 8.653 0 0 1-2.646-6.339 10.23 10.23 0 0 1 .08-1.6 11.544 11.544 0 0 1-1.925-.727zm12.918 9.708a6.916 6.916 0 0 0 3.37-2.006 7.648 7.648 0 0 0 2.247-5.376 8.611 8.611 0 0 0-.4-2.567l1.123-.321.642-.241a7.849 7.849 0 0 0 4.009-2.724 8.144 8.144 0 0 0 1.444-4.573 7.376 7.376 0 0 0-2.247-5.456 6.677 6.677 0 0 0-2.086-1.524 6.392 6.392 0 0 0 1.044-1.047 10.3 10.3 0 0 1 2.086 1.6 9.088 9.088 0 0 1 .883 11.8 9.832 9.832 0 0 1-3.29 2.728 11.544 11.544 0 0 1-1.926.722 10.229 10.229 0 0 1 .08 1.6 8.653 8.653 0 0 1-2.652 6.342v.08a9.627 9.627 0 0 1-4.333 2.407zm-6.66 4.092h9.227a2.328 2.328 0 1 1 0 4.654h-9.227a2.437 2.437 0 0 1-1.685-.642 2.532 2.532 0 0 1 0-3.37 2.437 2.437 0 0 1 1.685-.642zm9.227 1.364h-9.227a.911.911 0 0 0-.642 1.6.99.99 0 0 0 .642.321h9.227a.99.99 0 0 0 .642-.321.966.966 0 0 0-.642-1.6zm-1.363 5.937a3.574 3.574 0 0 1-.963 2.327 3.263 3.263 0 0 1-2.327.963 3.218 3.218 0 0 1-2.247-.963 3.574 3.574 0 0 1-.963-2.327h1.444a1.694 1.694 0 0 0 .481 1.284 1.6 1.6 0 0 0 1.284.562 1.653 1.653 0 0 0 1.364-.562 1.694 1.694 0 0 0 .481-1.284z" fill="#005180"/><path d="M11.411 38.383h9.227a2.2 2.2 0 0 1 2.327 2.327 2.437 2.437 0 0 1-.642 1.685 2.674 2.674 0 0 1-1.685.722h-9.227a2.5 2.5 0 0 1-1.685-.722 2.437 2.437 0 0 1-.642-1.685 2.589 2.589 0 0 1 .642-1.685 2.437 2.437 0 0 1 1.685-.642zm9.227 1.364h-9.227a.99.99 0 0 0-.642.321.73.73 0 0 0-.321.642.98.98 0 0 0 .321.722.911.911 0 0 0 .642.241h9.227a.911.911 0 0 0 .642-.241.98.98 0 0 0 .321-.722.73.73 0 0 0-.321-.642.991.991 0 0 0-.642-.321zM10.849 7.252a6.1 6.1 0 0 1 4.172 1.685 5.95 5.95 0 0 1 1.685 4.172 5.889 5.889 0 0 1-5.857 5.937 5.874 5.874 0 0 1-4.252-1.765 5.809 5.809 0 0 1-1.685-4.172 5.95 5.95 0 0 1 1.685-4.172 6.145 6.145 0 0 1 4.252-1.685zm3.129 2.728a4.188 4.188 0 0 0-3.129-1.364A4.237 4.237 0 0 0 7.64 9.98a4.454 4.454 0 0 0 3.209 7.622 4.429 4.429 0 0 0 3.129-1.284 4.363 4.363 0 0 0 0-6.338z" fill="#005180"/><path d="M21.199 7.252a5.809 5.809 0 0 1 4.172 1.685 5.692 5.692 0 0 1 1.765 4.172 6.029 6.029 0 0 1-5.937 5.937 5.889 5.889 0 0 1-5.857-5.937 5.95 5.95 0 0 1 1.685-4.172 6.1 6.1 0 0 1 4.172-1.685zm3.209 2.728a4.237 4.237 0 0 0-3.209-1.364A4.188 4.188 0 0 0 18.07 9.98a4.363 4.363 0 0 0 0 6.338 4.429 4.429 0 0 0 3.129 1.284 4.48 4.48 0 0 0 3.209-1.284 4.364 4.364 0 0 0 0-6.338z" fill="#005180"/><path d="M14.62 17.361a3.823 3.823 0 0 0 .481 1.444c.321.481.642.963.883 1.364.321-.4.642-.883.963-1.364a3.823 3.823 0 0 0 .481-1.444l1.444.08a8.088 8.088 0 0 1-.722 2.086 13.586 13.586 0 0 1-1.6 2.247l-.562.642-.481-.642a13.585 13.585 0 0 1-1.6-2.247 5.893 5.893 0 0 1-.731-2.086zM3.063.431l12.921 4.574L30.185.031l-.322 1.2c-.722 3.049-2.086 4.814-3.691 5.777a12.008 12.008 0 0 1-5.135 1.6 5.8 5.8 0 0 0-3.209 1.284 4.007 4.007 0 0 0-1.122 3.139h-1.364a4.032 4.032 0 0 0-1.2-3.129 5.318 5.318 0 0 0-3.129-1.284 12.008 12.008 0 0 1-5.135-1.6c-1.6-.963-2.969-2.728-3.691-5.777L1.863.031zM15.824 6.45L3.949 2.197a7.113 7.113 0 0 0 2.648 3.691 11.229 11.229 0 0 0 4.573 1.364 7.313 7.313 0 0 1 3.931 1.6 3.9 3.9 0 0 1 .883 1.123 4.222 4.222 0 0 1 .963-1.123 7.313 7.313 0 0 1 3.931-1.6 11.229 11.229 0 0 0 4.573-1.364 7.113 7.113 0 0 0 2.648-3.691L16.225 6.45z" fill="#005180"/><path d="M21.2 10.782a2.089 2.089 0 0 1 1.2.321c-.08 0-.08-.08-.16-.08a.963.963 0 0 0-.883.963.89.89 0 0 0 .883.883.911.911 0 0 0 .963-.883c0-.08-.08-.16-.08-.241a2.179 2.179 0 0 1 .481 1.364 2.367 2.367 0 1 1-4.734 0 2.328 2.328 0 0 1 2.33-2.327zm-10.351 0a1.842 1.842 0 0 1 1.123.321c-.08 0-.08-.08-.16-.08a.963.963 0 0 0-.883.963.89.89 0 0 0 .883.883.911.911 0 0 0 .963-.883.3.3 0 0 0-.08-.241 2.179 2.179 0 0 1 .481 1.364 2.367 2.367 0 1 1-4.734 0 2.347 2.347 0 0 1 2.407-2.327z" fill="#005180" fill-rule="evenodd"/><path d="M12.614 31.964v3.45h1.364v-3.45zm5.456 0v3.45h1.364v-3.45z" fill="#005180"/><path d="M101.753 19.046v8.828h1.926c2.728 0 4.654-1.6 4.654-4.413s-1.926-4.413-4.654-4.413zm2.166-4.012a8.425 8.425 0 1 1 0 16.849h-4.252a1.986 1.986 0 0 1-2.005-2.009V17.121a2.055 2.055 0 0 1 2.006-2.086zm20.139 5.94l3.45-5.055a2.039 2.039 0 0 1 3.771 1.123 1.842 1.842 0 0 1-.321 1.123v.08l-4.814 6.74v4.974a2.088 2.088 0 0 1-4.172 0v-4.974l-4.814-6.82a1.842 1.842 0 0 1-.321-1.123 2.039 2.039 0 0 1 3.771-1.123zm-35.784-6.018a2.124 2.124 0 0 1 2.086 2.086v8.264c0 4.092-3.209 6.82-7.141 6.82-4.012 0-7.141-2.728-7.141-6.82v-8.264a2.046 2.046 0 1 1 4.092 0v8.344a2.8 2.8 0 0 0 3.049 2.808 2.739 2.739 0 0 0 2.969-2.808v-8.344a2.124 2.124 0 0 1 2.086-2.088zm-22.947 4.092V29.96a1.986 1.986 0 0 1-2.006 2.006 2.055 2.055 0 0 1-2.086-2.006V19.046h-3.129a2.006 2.006 0 1 1 0-4.012h10.43a1.986 1.986 0 0 1 2.006 2.006 2.038 2.038 0 0 1-2.006 2.006zm-18.213 7.7c0-1.444-8.906-.722-8.906-6.5 0-3.611 3.29-5.376 6.5-5.376a12.431 12.431 0 0 1 4.573.722 1.979 1.979 0 0 1 1.284 1.845 1.92 1.92 0 0 1-1.926 2.006 2.343 2.343 0 0 1-.722-.16 9.208 9.208 0 0 0-2.969-.481c-.8 0-2.648.16-2.648 1.284 0 2.086 8.906.562 8.906 6.82 0 3.53-3.37 5.215-6.5 5.215A13.73 13.73 0 0 1 39.33 31a2.1 2.1 0 0 1-1.282-1.844 1.986 1.986 0 0 1 2.006-2.006 2.85 2.85 0 0 1 .8.16 8.509 8.509 0 0 0 3.691.8c.965.003 2.569-.078 2.569-1.361z" fill="#00486e" fill-rule="evenodd"/><path d="M160.645 20.972l3.45-5.055a2.11 2.11 0 0 1 1.764-.963 2.072 2.072 0 0 1 2.086 2.086 1.915 1.915 0 0 1-.4 1.123v.08l-4.814 6.74v4.971a2.055 2.055 0 0 1-2.086 2.006 1.986 1.986 0 0 1-2.006-2.006V24.98l-4.894-6.82a2.613 2.613 0 0 1-.321-1.123 2.039 2.039 0 0 1 3.771-1.123zm-18.695 6.82h5.777a2.055 2.055 0 0 1 2.006 2.086 1.986 1.986 0 0 1-2.006 2.006h-7.462a2.364 2.364 0 0 1-2.407-2.407V17.04a2.055 2.055 0 0 1 2.006-2.086 2.124 2.124 0 0 1 2.086 2.086z" fill="#3b9ed4" fill-rule="evenodd"/></g></svg>