<svg data-name="Student guy studying on internet [Converted]-01" xmlns="http://www.w3.org/2000/svg" width="776.484" height="531.964"><g data-name="Layer 1"><path data-name="Path 11081" d="M23.113 77.603c19.293 40.855 15.676 38.814 6.633 75.708s-25.327 134.572 20.5 214.762 104.305 90.443 132.648 80.795 51.251-25.327 100.088-1.192 169.441 95.252 258.662 53.65 52.249-111.122 83.6-140.666 105.118-37.2 128.029-108.953S738.202 22.307 651.981 12.8L50.251 8.721S3.824 36.748 23.118 77.603z" fill="#feefdc"/><path data-name="Path 11082" d="M137.855 255.443c-8.641 0-28.9.271-46.382 2.741a12.338 12.338 0 0 1-14.079-11.728c-.1-2.98.771-6.52 3.319-10.608 9.812-15.748 29.165-2.33 29.418 5.363 0 0 3.1-11.788 14.6-10.405s8.421 18.45 8.421 18.45 3.629-.983 6.275.6a3.019 3.019 0 0 1-1.572 5.587z" fill="#fff"/><path data-name="Path 11083" d="M145.85 510.808c-2.557-2.521-22.494-37.815-36.3-19.666 0 0-22.556-51.176-51.123-41.156 0 0-18.212 10.4-4.982 36.3 0 0-44.1-2.774-43.519 24.517z" fill="#258d8c"/><path data-name="Path 11084" d="M77.639 455.945a.223.223 0 0 0 .176-.086.221.221 0 0 0-.038-.3c-.224-.173-5.507-4.237-10.34-4.809a.221.221 0 0 0-.053.438c4.7.557 10.062 4.678 10.131 4.72a.219.219 0 0 0 .125.036z"/><path data-name="Path 11085" d="M77.64 458.507a.227.227 0 0 0 .173-.08.224.224 0 0 0-.033-.3 26.99 26.99 0 0 0-8.28-4.228.226.226 0 0 0-.277.152.221.221 0 0 0 .152.274 26.324 26.324 0 0 1 8.123 4.148.23.23 0 0 0 .142.034z"/><ellipse data-name="Ellipse 89" cx="14.332" cy="7.697" rx="14.332" ry="7.697" transform="rotate(-130.38 123.664 222.018)" fill="#258d8c"/><ellipse data-name="Ellipse 90" cx="8.483" cy="4.556" rx="8.483" ry="4.556" transform="rotate(-130.38 123.849 231.253)" fill="#258d8c"/><path data-name="Path 11086" d="M488.071 151.768c-18.364-1.457-63.17-4.362-90.219-.617a4.3 4.3 0 0 1-3.874-7.041c1.868-2.145 5.17-3.93 10.947-4.133 0 0-5.092-25.119 19.174-27.24 24.94-2.181 25.03 24.186 25.03 24.186s14.7-13.683 21.6 3.5c0 0 15.453-6.582 22.348 1.847a5.839 5.839 0 0 1-5.006 9.498z" fill="#fff"/><path data-name="Rectangle 837" fill="#49263e" d="M384.041 375.69h62.481v130.898h-62.481z"/><path data-name="Path 11087" d="M227.118 423.266V243.951a15.426 15.426 0 0 1 15.426-15.426h347.684a15.426 15.426 0 0 1 15.426 15.426v179.315z" fill="#49263e"/><path data-name="Path 11088" d="M605.65 423.266v28.736c0 5.977-3.951 10.822-8.826 10.822H235.941c-4.872 0-8.823-4.845-8.823-10.822v-28.736z" fill="#3a1f33"/><path data-name="Path 11089" d="M235.98 415.48V244.431a8.267 8.267 0 0 1 8.409-8.12h343.988a8.27 8.27 0 0 1 8.412 8.12v171.05z" fill="#e8f2fc"/><path data-name="Path 11090" d="M330.762 510.336c-1.058-6.186 3.1-11.2 9.282-11.2h150.361a13.835 13.835 0 0 1 13.111 11.2H330.755z" fill="#3a1f33"/><path data-name="Path 11091" d="M235.941 463.275h360.883c5.116 0 9.279-5.065 9.279-11.272V243.951a15.9 15.9 0 0 0-15.879-15.879v.894a14.991 14.991 0 0 1 14.973 14.985v208.051c0 5.718-3.754 10.37-8.373 10.37H235.941z" fill="#21111d"/><path data-name="Rectangle 838" fill="#21111d" d="M251.193 443.299l-8.61-11.99.737-.529 8.609 11.99z"/><path data-name="Rectangle 839" fill="#21111d" d="M251.198 448.967l-8.612-11.672.73-.538 8.611 11.672z"/><path data-name="Rectangle 840" fill="#21111d" d="M431.108 473.393l-4.286-7.5.784-.448 4.286 7.5z"/><path data-name="Rectangle 841" fill="#21111d" d="M430.4 477.695l-3.877-6.608.78-.457 3.876 6.608z"/><path data-name="Path 11103" d="M502.605 274.484h17.813a1.826 1.826 0 0 1 1.826 1.829h-21.468a1.829 1.829 0 0 1 1.829-1.829z" fill="#e2f2f1"/><path data-name="Path 11105" d="M497.534 300.156a.3.3 0 0 0 .134-.557 34.925 34.925 0 0 1-5.03-2.872.3.3 0 0 0-.328.48 35.459 35.459 0 0 0 5.137 2.929.3.3 0 0 0 .087.02z" fill="#f07162"/><path data-name="Path 11106" d="M497.249 303.819a.3.3 0 0 0 .1-.569 18.09 18.09 0 0 1-4.9-2.268.29.29 0 0 0-.331.477 18.307 18.307 0 0 0 5.083 2.351z" fill="#f07162"/><path data-name="Path 11107" d="M496.262 307.943a.289.289 0 0 0 .1-.566 15.383 15.383 0 0 1-4.258-2.187.3.3 0 0 0-.352.465 15.833 15.833 0 0 0 4.446 2.277z" fill="#f07162"/><path data-name="Path 11110" d="M518.166 290.67h-2.816s-3 19.282 1.1 28.131h3.5s-4.087-18.086-1.784-28.131z" fill="#e2f2f1"/><path data-name="Path 11133" d="M235.539 415.933h361.25v-.894H236.433V244.431a7.829 7.829 0 0 1 7.959-7.667v-.894a8.729 8.729 0 0 0-8.862 8.573z" fill="#21111d"/><g data-name="Group 1694" transform="rotate(150 391.757 312.436)" fill="#f75553"><path data-name="Path 11139" d="M393.761 377.437a1.359 1.359 0 0 1 1.767-.748l25.056 10.185a1.356 1.356 0 0 1-.513 2.613 1.339 1.339 0 0 1-.509-.1l-25.056-10.182a1.356 1.356 0 0 1-.745-1.768z"/><ellipse data-name="Ellipse 92" cx="2.276" cy="2.276" rx="2.276" ry="2.276" transform="translate(407.106 373.938)"/><path data-name="Path 11140" d="M404.827 388.138a2.276 2.276 0 1 1-1.611.666 2.276 2.276 0 0 1 1.611-.666z"/></g><path data-name="Path 11141" d="M408.557 288.726a2.039 2.039 0 0 1-1.422.572 2.061 2.061 0 0 1-1.476-.625l-10.347-10.761-10.347 10.761a2.049 2.049 0 0 1-2.951-2.843l10.469-10.869-10.469-10.869a2.049 2.049 0 0 1 2.951-2.843l10.347 10.761 10.347-10.761a2.049 2.049 0 1 1 2.951 2.843l-10.464 10.869 10.464 10.864a2.047 2.047 0 0 1-.054 2.9z" fill="#fe9f73"/><path data-name="Path 11142" d="M677.94 390.689h18.96l7.637 109.713h-34.234z" fill="#258d8c"/><path data-name="Path 11143" d="M701.102 379.629h-27.2v10.429a2.825 2.825 0 0 0 2.825 2.825h21.556a2.825 2.825 0 0 0 2.825-2.825v-10.429z" fill="#f99247"/><path data-name="Path 11144" d="M682.011 393.347h14.8a4.747 4.747 0 0 0 4.75-4.741v-8.978h-.894v8.978a3.841 3.841 0 0 1-3.838 3.835h-14.8z" fill="#21111d"/><circle data-name="Ellipse 93" cx="57.616" cy="57.616" r="57.616" transform="rotate(-135 428.918 62.938)" fill="#fecc86"/><circle data-name="Ellipse 94" cx="49.711" cy="49.711" r="49.711" transform="rotate(-135 426.602 57.348)" fill="#e2f2f1"/><path data-name="Path 11145" d="M687.705 387.317a58.067 58.067 0 1 0-40.1-100.061l.626.652a57.17 57.17 0 1 1 .3 82.955l-.62.659a57.842 57.842 0 0 0 39.794 15.795z" fill="#21111d"/><ellipse data-name="Ellipse 95" cx="8.918" cy="18.671" rx="8.918" ry="18.671" transform="rotate(-135 397.165 26.543)" fill="#f3fffe"/><path data-name="Rectangle 843" fill="#21111d" d="M703.785 496.408l-7.4-103.483.901-.064 7.4 103.483z"/><path data-name="Path 11146" d="M718.3 298.977l.715-.551c-.069-.089-7.059-9-17.682-11.287l-.191.894c10.293 2.205 17.087 10.858 17.158 10.944z" fill="#21111d"/><path data-name="Path 11147" d="M715.469 304.537l.715-.551c-.069-.089-7.059-9-17.682-11.287l-.191.894c10.293 2.206 17.087 10.846 17.158 10.944z" fill="#21111d"/><path data-name="Path 11148" d="M748.535 485.783H620.912v24.552h130.511v-21.662a2.879 2.879 0 0 0-2.887-2.89z" fill="#f99247"/><path data-name="Rectangle 844" fill="#fecc86" d="M739.554 485.784h1.609v12.27h-1.609z"/><path data-name="Rectangle 845" fill="#fecc86" d="M722.773 485.784h1.609v12.27h-1.609z"/><path data-name="Rectangle 846" fill="#fecc86" d="M731.113 485.784h1.609v7.449h-1.609z"/><path data-name="Rectangle 847" fill="#fecc86" d="M704.433 485.784h1.609v12.27h-1.609z"/><path data-name="Rectangle 848" fill="#fecc86" d="M712.776 485.784h1.609v7.449h-1.609z"/><path data-name="Rectangle 849" fill="#fecc86" d="M686.096 485.784h1.609v12.27h-1.609z"/><path data-name="Rectangle 850" fill="#fecc86" d="M694.436 485.784h1.609v7.449h-1.609z"/><path data-name="Rectangle 851" fill="#fecc86" d="M667.756 485.784h1.609v12.27h-1.609z"/><path data-name="Rectangle 852" fill="#fecc86" d="M676.096 485.784h1.609v7.449h-1.609z"/><path data-name="Rectangle 853" fill="#fecc86" d="M649.416 485.784h1.609v12.27h-1.609z"/><path data-name="Rectangle 854" fill="#fecc86" d="M657.756 485.784h1.609v7.449h-1.609z"/><path data-name="Path 11149" d="M589.458 349.11l-.083 161.1-112.263.116zm-15.739 53.831l-61.143 88.578 61.236-.063z" fill="#fecc86"/><path data-name="Rectangle 855" fill="#f99247" d="M586.001 369.353l-.824 1.184-7.173-4.992.824-1.183z"/><path data-name="Rectangle 856" fill="#f99247" d="M574.305 385.947l-.824 1.184-7.085-4.93.823-1.184z"/><path data-name="Rectangle 857" fill="#f99247" d="M576.213 374.859l-.822 1.182-3.54-2.462.822-1.182z"/><path data-name="Rectangle 858" fill="#f99247" d="M562.506 402.9l-.824 1.184-7.097-4.939.823-1.184z"/><path data-name="Rectangle 859" fill="#f99247" d="M564.513 392.475l-.824 1.184-3.556-2.475.824-1.183z"/><path data-name="Rectangle 860" fill="#f99247" d="M550.707 419.858l-.824 1.184-7.11-4.948.824-1.183z"/><path data-name="Rectangle 861" fill="#f99247" d="M552.717 409.43l-.824 1.184-3.568-2.483.824-1.184z"/><path data-name="Rectangle 862" fill="#f99247" d="M538.911 436.814l-.824 1.184-7.122-4.956.823-1.184z"/><path data-name="Rectangle 863" fill="#f99247" d="M540.919 426.389l-.824 1.184-3.588-2.497.824-1.183z"/><path data-name="Rectangle 864" fill="#f99247" d="M527.11 453.77l-.824 1.184-7.134-4.965.823-1.183z"/><path data-name="Rectangle 865" fill="#f99247" d="M529.121 443.342l-.824 1.184-3.588-2.497.824-1.183z"/><path data-name="Rectangle 866" fill="#f99247" d="M515.322 470.722l-.824 1.184-7.147-4.973.824-1.184z"/><path data-name="Rectangle 867" fill="#f99247" d="M517.321 460.3l-.824 1.184-3.605-2.509.824-1.183z"/><path data-name="Rectangle 868" fill="#f99247" d="M503.524 487.68l-.824 1.184-7.159-4.982.824-1.184z"/><path data-name="Rectangle 869" fill="#f99247" d="M505.531 477.25l-.824 1.184-3.617-2.517.824-1.184z"/><path data-name="Rectangle 870" fill="#f99247" d="M491.723 504.636l-.824 1.184-7.173-4.992.824-1.183z"/><path data-name="Rectangle 871" fill="#f99247" d="M493.732 494.208l-.824 1.184-3.63-2.526.824-1.184z"/><path data-name="Path 11151" d="M627.816 511.21h-11.254c-1.192 0-2.744-.069-4.487-.122a.436.436 0 0 1-.328.122c-1.451-.122-2.9-.173-4.3-.188s-2.852.066-4.3.188a.436.436 0 0 1-.328-.122c-1.743.054-3.278.122-4.487.122h-11.26c-27.273-3.031 68.017-3.031 40.744 0z" fill="#ff424d"/><ellipse data-name="Ellipse 96" cx="5.599" cy="11.719" rx="5.599" ry="11.719" transform="rotate(-120 408.198 51.825)" fill="#f46e6e"/><path data-name="Path 11156" d="M751.348 510.777a.45.45 0 0 0 .45-.453V490.15a4.824 4.824 0 0 0-4.821-4.821h-93.3a.453.453 0 0 0 0 .894h93.3a3.922 3.922 0 0 1 3.918 3.916v20.2a.453.453 0 0 0 .453.438z" fill="#21111d"/><path data-name="Path 11157" d="M154.098 127.587a75.088 75.088 0 1 1 128.52 52.768s-22.726 24.3-30.393 50.792c0 0-13.111 4.47-23.021 4.7-9.9-.247-23.024-4.7-23.024-4.7-7.672-26.49-30.393-50.792-30.393-50.792a74.836 74.836 0 0 1-21.689-52.768z" fill="#fecc86"/><path data-name="Path 11158" d="M229.207 275.271a11.671 11.671 0 0 0 11.671-11.671h-23.343a11.671 11.671 0 0 0 11.672 11.671z" fill="#4cb7d8"/><path data-name="Path 11159" d="M254.237 225.158h-50.059v19.67a21.954 21.954 0 0 0 21.95 21.95h6.153a21.954 21.954 0 0 0 21.951-21.931v-19.689z" fill="#4cb7d8"/><path data-name="Path 11160" d="M154.097 127.592a74.743 74.743 0 0 1 12.533-41.546c21.963 54.111 56.99 90.508 107.442 104.623-6.353 8.343-14.776 20.888-19.869 34.493h-50.029c-9-24.052-28.406-44.806-28.406-44.806a74.833 74.833 0 0 1-21.671-52.764z" fill="#fecc86" opacity=".3"/><path data-name="Path 11161" d="M216.918 225.453l2.148-.6c-.069-.256-7.071-26-11.919-52.377-8.427-45.759-3.575-55.467.057-57.177 3.719-1.752 6.645-1.436 8.695.933.149.173.3.355.432.545a13.879 13.879 0 0 0-6.82 9.773c-.834 5.313 1.543 10.617 5.295 11.823.894.3 2.657.438 4.171-1.847 2.4-3.629 3.153-12.708.465-18.772a24.663 24.663 0 0 1 9.323-1.618h2.166a24.751 24.751 0 0 1 9.327 1.615c-2.682 6.055-1.94 15.134.462 18.772 1.51 2.285 3.26 2.139 4.172 1.847 3.754-1.207 6.129-6.511 5.3-11.824a13.909 13.909 0 0 0-6.821-9.776c.137-.188.281-.37.429-.542 2.05-2.369 4.976-2.682 8.695-.933 3.638 1.71 8.486 11.418.057 57.177-4.857 26.373-11.859 52.121-11.919 52.377l2.148.6c.071-.259 7.094-26.084 11.969-52.55 6.728-36.531 6.305-56.018-1.3-59.594-5.9-2.774-9.419-.718-11.323 1.49a10.481 10.481 0 0 0-.754.989 26.474 26.474 0 0 0-10.429-1.844h-2.166a26.517 26.517 0 0 0-10.429 1.844 10.45 10.45 0 0 0-.754-.989c-1.913-2.214-5.432-4.267-11.323-1.49-7.6 3.576-8.027 23.078-1.3 59.594 4.853 26.47 11.878 52.295 11.946 52.554zm25.328-106.694a11.242 11.242 0 0 1 5.727 8.149c.727 4.636-1.368 8.582-3.778 9.356-.224.072-.823.265-1.63-.954-2.056-3.094-2.599-11.319-.319-16.551zm-24.818 0c2.28 5.232 1.737 13.442-.319 16.552-.808 1.219-1.406 1.025-1.63.954-2.41-.775-4.505-4.72-3.778-9.356a11.243 11.243 0 0 1 5.724-8.15z" fill="#f99247"/><path data-name="Path 11162" d="M254.609 225.682c.6-1.71.867-2.336 1.46-3.71l.322-.751c9.374-21.895 26.46-40.3 26.63-40.485l.057-.057a75.652 75.652 0 1 0-117.227-94.471l.933.611a74.535 74.535 0 1 1 115.421 93.151l-.727.733h.054c-3.278 3.656-17.786 20.477-26.177 40.074l-.322.748c-.6 1.4-.876 2.035-1.49 3.784z" fill="#21111d"/><path data-name="Path 11163" d="M281.629 92.922l1.07-.3c-.053-.188-5.6-18.668-24.284-25.625l-.39 1.043c18.142 6.748 23.55 24.701 23.604 24.882z" fill="#21111d"/><path data-name="Path 11164" d="M278.187 99.605l1.07-.313c-.057-.185-5.608-18.668-24.288-25.625l-.387 1.046c18.143 6.755 23.552 24.722 23.605 24.892z" fill="#21111d"/><path data-name="Path 11165" d="M226.477 267.351h5.456a22.887 22.887 0 0 0 22.861-22.86v-19.89h-50.62v1.114h49.508v18.772a21.772 21.772 0 0 1-21.752 21.752h-5.456a21.624 21.624 0 0 1-15.25-6.242l-.781.793a22.72 22.72 0 0 0 16.034 6.561z" fill="#21111d"/><path data-name="Path 11166" d="M228.882 275.834c10.849 0 12.416-10.524 12.431-10.631l-1.106-.152c-.054.4-1.49 9.9-11.689 9.666l-.024 1.115z" fill="#21111d"/><path data-name="Path 11167" d="M177.697 169.622l.665-.894c-9.914-7.351-11.472-19.627-11.487-19.752l-1.105.131c.014.128 1.62 12.869 11.927 20.515z" fill="#21111d"/><path data-name="Path 11168" d="M179.889 164.274l.665-.894c-7.223-5.363-8.364-14.3-8.376-14.4l-1.105.131c.044.383 1.197 9.51 8.816 15.163z" fill="#21111d"/><path data-name="Path 11169" d="M256.537 235.17v-1.114c-.423 0-42.636-.551-56.018-5.536l-.39 1.046c13.574 5.049 54.669 5.583 56.408 5.604z" fill="#21111d"/><path data-name="Path 11170" d="M256.531 244.577l.021-1.114c-.462 0-46.269-.918-54.826-5.5l-.527.98c8.792 4.71 53.437 5.604 55.332 5.634z" fill="#21111d"/><path data-name="Path 11171" d="M254.232 254.231v-1.114c-.414 0-41.519-.438-52.532-6.126l-.51.989c11.256 5.804 51.333 6.236 53.042 6.251z" fill="#21111d"/><path data-name="Path 11172" d="M323.421 115.767a1.142 1.142 0 0 0 .143 0l26.573-2.262a1.672 1.672 0 1 0-.283-3.328l-26.573 2.262a1.672 1.672 0 0 0 .14 3.334z" fill="#fecc86"/><path data-name="Path 11173" d="M309.678 73.435a1.669 1.669 0 0 0 .941-.3l22.011-15.059a1.672 1.672 0 0 0-1.886-2.759l-22.011 15.059a1.672 1.672 0 0 0 .945 3.051z" fill="#fecc86"/><path data-name="Path 11174" d="M269.901 43.068a1.681 1.681 0 0 0 1.55-1.043l10.036-24.708a1.673 1.673 0 1 0-3.1-1.257l-10.036 24.708a1.675 1.675 0 0 0 1.546 2.3z" fill="#fecc86"/><path data-name="Path 11175" d="M136.291 120.592a1.672 1.672 0 0 0 .107-3.337l-26.608-1.758a1.672 1.672 0 1 0-.221 3.334l26.612 1.758z" fill="#fecc86"/><path data-name="Path 11176" d="M149.234 77.997a1.672 1.672 0 0 0 .918-3.069l-22.291-14.639a1.67 1.67 0 1 0-1.833 2.792l22.291 14.642a1.658 1.658 0 0 0 .915.274z" fill="#fecc86"/><path data-name="Path 11177" d="M183.28 42.97a1.675 1.675 0 0 0 1.534-2.33l-10.5-24.514a1.671 1.671 0 1 0-3.072 1.317l10.5 24.514a1.678 1.678 0 0 0 1.538 1.013z" fill="#fecc86"/><path data-name="Path 11178" d="M226.117 30.01h.027a1.675 1.675 0 0 0 1.645-1.7l-.412-26.665A1.671 1.671 0 0 0 225.706 0h-.024a1.675 1.675 0 0 0-1.648 1.7l.411 26.668a1.675 1.675 0 0 0 1.672 1.642z" fill="#fecc86"/><g data-name="Group 1591"><ellipse data-name="Ellipse 97" cx="8.787" cy="18.4" rx="8.787" ry="18.4" transform="rotate(-122.8 118.632 -.644)" fill="#f3fffe" opacity=".5"/></g><path data-name="Path 11179" d="M718.193 268.384a.894.894 0 0 0 .864-.644c.021-.066.5-1.645 1.144-4.434a.904.904 0 0 0-1.761-.411c-.635 2.726-1.108 4.306-1.114 4.32a.906.906 0 0 0 .867 1.168z" fill="#21111d"/><path data-name="Path 11180" d="M721.083 254.976a.894.894 0 0 0 .894-.763c.486-3.051.876-6.147 1.159-9.2a.9.9 0 0 0-1.788-.167 140.46 140.46 0 0 1-1.147 9.088.894.894 0 0 0 .751 1.034.821.821 0 0 0 .131.012zm1.684-18.349a.894.894 0 0 0 .894-.894c.021-.944.03-1.892.03-2.819 0-2.175-.057-4.353-.176-6.469a.904.904 0 1 0-1.806.1c.116 2.086.173 4.228.173 6.371 0 .912 0 1.847-.03 2.777a.894.894 0 0 0 .894.924zm-1.046-18.391a.959.959 0 0 0 .131 0 .894.894 0 0 0 .766-1.025 91.97 91.97 0 0 0-1.788-9.13.9.9 0 1 0-1.746.411 90.173 90.173 0 0 1 1.743 8.954.894.894 0 0 0 .894.781zm-82.189-9.744a.9.9 0 0 0 .17-1.788 15.013 15.013 0 0 1-7.652-3.874.904.904 0 1 0-1.245 1.311 16.8 16.8 0 0 0 8.558 4.35 1.1 1.1 0 0 0 .17 0zm9.124-.346a.92.92 0 0 0 .3-.054 13.027 13.027 0 0 0 7-6.657.906.906 0 1 0-1.612-.825 11.272 11.272 0 0 1-6 5.778.894.894 0 0 0 .3 1.758zm68.578-7.759a.894.894 0 0 0 .846-1.222 71.261 71.261 0 0 0-3.835-8.507.904.904 0 0 0-1.594.852 70.147 70.147 0 0 1 3.737 8.289.894.894 0 0 0 .846.587zm-90.583-3.76a.9.9 0 0 0 .867-1.192 26.888 26.888 0 0 1-1.311-8.543v-.241a.894.894 0 0 0-.894-.909.894.894 0 0 0-.894.894v.25a28.683 28.683 0 0 0 1.406 9.118.894.894 0 0 0 .819.623zm30.989-3.519a.894.894 0 0 0 .894-.8 39.507 39.507 0 0 0 .238-4.389 45.827 45.827 0 0 0-.28-5.012.9.9 0 0 0-1.788.2 44.44 44.44 0 0 1 .268 4.815 37.282 37.282 0 0 1-.226 4.172.894.894 0 0 0 .8 1zm50.917-8.921a.9.9 0 0 0 .727-1.439 63.812 63.812 0 0 0-6.052-7.116.905.905 0 1 0-1.287 1.272 61.752 61.752 0 0 1 5.876 6.913.894.894 0 0 0 .736.37zm-81.968-5.739a.894.894 0 0 0 .87-.661 34.313 34.313 0 0 1 3.483-8.248.905.905 0 0 0-1.558-.921 36.24 36.24 0 0 0-3.677 8.683.894.894 0 0 0 .629 1.114.862.862 0 0 0 .253.033zm29.2-3.576a.894.894 0 0 0 .87-1.153 64.147 64.147 0 0 0-3.242-8.766.906.906 0 0 0-1.648.751 61.767 61.767 0 0 1 3.156 8.522.894.894 0 0 0 .87.65zm39.907-3.817a.894.894 0 0 0 .557-1.615 76.53 76.53 0 0 0-7.676-5.295.904.904 0 1 0-.933 1.549 74.927 74.927 0 0 1 7.494 5.17.894.894 0 0 0 .561.192zm-59.594-8.063a.894.894 0 0 0 .575-.206 26.62 26.62 0 0 1 7.708-4.4.907.907 0 1 0-.632-1.7 28.452 28.452 0 0 0-8.227 4.7.894.894 0 0 0 .575 1.6zm43.834-1.424a.894.894 0 0 0 .367-1.731 67.225 67.225 0 0 0-8.778-3.191.905.905 0 0 0-.495 1.74 65.476 65.476 0 0 1 8.543 3.1.941.941 0 0 0 .367.083zm-31.713-3.433a.894.894 0 0 0 .766-1.385 74.482 74.482 0 0 0-5.459-7.554.905.905 0 1 0-1.4 1.147 72.726 72.726 0 0 1 5.325 7.378.894.894 0 0 0 .772.415zm14.028-1.514a.9.9 0 1 0 .1-1.788 46.467 46.467 0 0 0-9.386-.152.904.904 0 1 0 .161 1.8 44.576 44.576 0 0 1 9.02.146zm-25.7-12.693a.894.894 0 0 0 .614-1.567 61.252 61.252 0 0 0-7.321-5.81.902.902 0 1 0-1.016 1.49 59.63 59.63 0 0 1 7.107 5.638.894.894 0 0 0 .617.244zm-15.173-10.375a.894.894 0 0 0 .405-1.71 84.323 84.323 0 0 0-8.552-3.7.906.906 0 0 0-.629 1.7 83.724 83.724 0 0 1 8.37 3.623.892.892 0 0 0 .405.089zm-17.255-6.463a.902.902 0 0 0 .235-1.788 112.433 112.433 0 0 0-9.064-2.056.91.91 0 1 0-.331 1.788c3.06.572 6.064 1.252 8.939 2.023a.914.914 0 0 0 .225.033zm-18.114-3.418a.901.901 0 1 0 .1-1.8 149.71 149.71 0 0 0-9.237-.778.904.904 0 0 0-.1 1.806c3.06.161 6.135.42 9.136.769a.631.631 0 0 0 .1.006z" fill="#21111d"/><path data-name="Path 11181" d="M563.034 122.883h.068c.018 0 1.669-.125 4.47-.164a.904.904 0 0 0 0-1.809c-2.858.042-4.5.164-4.571.17a.904.904 0 0 0 .065 1.806z" fill="#21111d"/><path data-name="Path 11182" d="M550.573 131.178l-5.107-5.852s-25.327-2.747-25.691-2.926l-13.382-6.716 16.368-.951 26.758 3.853z" fill="#7fc6a6"/><path data-name="Path 11183" d="M555.586 105.49l-49.19 10.194 43.125 2.9z" fill="#b9edd6"/><path data-name="Path 11184" d="M545.466 125.326l-6.359 13.945-32.711-23.587z" fill="#b9edd6"/><path data-name="Path 11185" d="M271.337 470.408s-8.307 20.9-1.338 36.713l-159.712 1.338-14.741-1.338-12.989-8.045v-12.318l3.612-10.185 11.791-6.165z" fill="#fff"/><path data-name="Path 11186" d="M102.805 510.494h172.551a2.035 2.035 0 1 0 0-4.067H102.805c-10.429 0-18.888-7.864-18.888-17.53s8.471-17.527 18.888-17.527h172.551a2.035 2.035 0 1 0 0-4.07H102.805c-12.661 0-22.958 9.69-22.958 21.6s10.282 21.594 22.958 21.594z" fill="#61a3c5"/><path data-name="Path 11187" d="M184.315 489.35h84.677a.453.453 0 1 0 0-.894h-84.677a.453.453 0 1 0 0 .894z" fill="#aac9f8"/><path data-name="Path 11188" d="M90.13 489.35h82.269a.453.453 0 0 0 0-.894H90.13a.453.453 0 1 0 0 .894z" fill="#aac9f8"/><path data-name="Path 11189" d="M92.332 497.452h42.2a.453.453 0 1 0 0-.894h-42.21a.453.453 0 1 0 0 .894z" fill="#aac9f8"/><path data-name="Path 11190" d="M140.734 497.452h128.258a.453.453 0 1 0 0-.894H140.734a.453.453 0 1 0 0 .894z" fill="#aac9f8"/><path data-name="Path 11191" d="M84.229 427.608s8.307 20.9 1.338 36.713l159.712 1.341 14.741-1.341 12.988-8.045v-12.318l-3.611-10.181-11.791-6.165z" fill="#fff"/><path data-name="Path 11192" d="M252.761 467.697H80.21a2.035 2.035 0 0 1 0-4.07h172.551c10.429 0 18.891-7.864 18.891-17.53s-8.477-17.527-18.891-17.527H80.21a2.035 2.035 0 1 1 0-4.07h172.551c12.661 0 22.944 9.69 22.944 21.6s-10.283 21.597-22.944 21.597z" fill="#f75553"/><path data-name="Path 11193" d="M86.574 446.55h84.677a.453.453 0 1 0 0-.894H86.574a.453.453 0 1 0 0 .894z" fill="#aac9f8"/><path data-name="Path 11194" d="M183.177 446.55h82.269a.453.453 0 1 0 0-.894h-82.269a.453.453 0 0 0 0 .894z" fill="#aac9f8"/><path data-name="Path 11195" d="M221.024 454.652h42.21a.453.453 0 1 0 0-.894h-42.21a.453.453 0 1 0 0 .894z" fill="#aac9f8"/><path data-name="Path 11196" d="M86.575 454.652h128.258a.453.453 0 1 0 0-.894H86.575a.453.453 0 1 0 0 .894z" fill="#aac9f8"/><path data-name="Path 11197" d="M244.371 387.299s-7.708 19.4-1.242 34.07l-148.227 1.25-13.68-1.246-12.056-7.47v-11.427l3.352-9.452 10.941-5.718z" fill="#fff"/><path data-name="Path 11198" d="M87.961 424.5h160.143a1.889 1.889 0 1 0 0-3.775H87.961c-9.669 0-17.533-7.3-17.533-16.266s7.864-16.266 17.533-16.266h160.143a1.889 1.889 0 1 0 0-3.778H87.961c-11.749 0-21.308 8.993-21.308 20.044S76.212 424.5 87.961 424.5z" fill="#258d8c"/><path data-name="Path 11199" d="M163.605 404.911h78.589a.453.453 0 0 0 0-.894h-78.589a.453.453 0 0 0 0 .894z" fill="#aac9f8"/><path data-name="Path 11200" d="M76.187 404.911h76.352a.453.453 0 0 0 0-.894H76.187a.453.453 0 0 0 0 .894z" fill="#aac9f8"/><path data-name="Path 11201" d="M78.24 412.429h39.174a.453.453 0 0 0 0-.894H78.24a.453.453 0 0 0 0 .894z" fill="#aac9f8"/><path data-name="Path 11202" d="M78.24 397.388h163.955a.453.453 0 0 0 0-.894H78.24a.453.453 0 0 0 0 .894z" fill="#aac9f8"/><path data-name="Path 11203" d="M80.206 468.147h172.552c12.908 0 23.411-9.89 23.411-22.05s-10.5-22.05-23.411-22.05H80.206a2.488 2.488 0 1 0 0 4.973.453.453 0 0 0 0-.894 1.585 1.585 0 1 1 0-3.167h172.552c12.41 0 22.508 9.487 22.508 21.156s-10.1 21.156-22.508 21.156H80.206a1.585 1.585 0 1 1 0-3.167.453.453 0 0 0 0-.894 2.488 2.488 0 1 0 0 4.973z" fill="#21111d"/><path data-name="Path 11204" d="M87.96 424.953h160.141a2.342 2.342 0 0 0 0-4.681.453.453 0 1 0 0 .894 1.439 1.439 0 0 1 0 2.875H87.96c-11.5 0-20.857-8.79-20.857-19.592s9.356-19.592 20.857-19.592h160.141a1.436 1.436 0 1 1 0 2.872.453.453 0 1 0 0 .894 2.342 2.342 0 0 0 0-4.681H87.96c-12 0-21.751 9.2-21.751 20.5s9.752 20.511 21.751 20.511z" fill="#21111d"/><path data-name="Path 11205" d="M102.804 510.948h172.552a2.488 2.488 0 1 0 0-4.973.453.453 0 0 0 0 .894 1.585 1.585 0 1 1 0 3.167H102.804c-12.41 0-22.508-9.488-22.508-21.156s10.1-21.156 22.508-21.156h172.552a1.582 1.582 0 1 1 0 3.164.453.453 0 0 0 0 .894 2.488 2.488 0 1 0 0-4.976H102.804c-12.911 0-23.411 9.893-23.411 22.05s10.501 22.092 23.411 22.092z" fill="#21111d"/><path data-name="Path 11206" d="M223.376 480.792s5.435 13.537 2.3 23.5l-4.416-6.823a58.859 58.859 0 0 0-4.866 6.823s-3.37-22.258-9.907-23.5z" fill="#f75553"/><path data-name="Path 11207" d="M107.557 437.992s-5.435 13.537-2.3 23.5l4.416-6.823a58.642 58.642 0 0 1 4.863 6.823s3.373-22.258 9.91-23.5z" fill="#7fc6a6"/><path data-name="Path 11208" d="M216.332 411.976s5.435 13.54 2.3 23.5l-4.416-6.823a58.944 58.944 0 0 0-4.863 6.823s-3.373-22.258-9.911-23.5z" fill="#4cb7d8"/><path data-name="Path 11209" d="M92.331 481.245h176.665a.453.453 0 0 0 0-.894H92.336a.453.453 0 0 0 0 .894z" fill="#aac9f8"/><path data-name="Path 11210" d="M86.574 438.445h176.66a.453.453 0 0 0 0-.894H86.574a.453.453 0 0 0 0 .894z" fill="#aac9f8"/><path data-name="Path 11211" d="M123.159 412.429h119.035a.453.453 0 0 0 0-.894H123.159a.453.453 0 0 0 0 .894z" fill="#aac9f8"/><path data-name="Path 11230" d="M174.199 385.964a33.6 33.6 0 0 0-7.69-1.192l.018-.492a34.275 34.275 0 0 1 7.824 1.225z" fill="#21111d"/><path data-name="Path 11233" d="M141.04 366.512l-10.253-5.632 13.239-2.452z" fill="#5089a0"/><path data-name="Path 11234" d="M141.425 365.868c-.173-.11-9.913-5.283-9.913-5.283l-.152.6 9.681 5.319z" fill="#4cb7d8"/><path data-name="Path 11238" d="M148.889 361.947a.164.164 0 0 1-.17-.062l-3.892-5.346a.162.162 0 0 1 .262-.191l3.895 5.345a.161.161 0 0 1-.036.226.118.118 0 0 1-.059.028z" fill="#f07162"/><path data-name="Path 11239" d="M147.178 363.503a.161.161 0 0 1-.173-.068l-3.716-5.509a.164.164 0 0 1 .271-.182l3.716 5.51a.164.164 0 0 1-.045.226.123.123 0 0 1-.053.023z" fill="#f07162"/><path data-name="Path 11240" d="M145.114 364.498a.164.164 0 0 1-.173-.068l-3.09-4.672a.164.164 0 1 1 .271-.182l3.093 4.672a.167.167 0 0 1-.047.227.2.2 0 0 1-.054.023z" fill="#f07162"/><path data-name="Path 11241" d="M127.879 388.216a199.057 199.057 0 0 0 20.024-.846l-.057-.486c-.167.018-16.984 1.889-42.1 0l-.036.489c8.424.631 15.918.843 22.169.843z" fill="#21111d"/><ellipse data-name="Ellipse 101" cx="1.439" cy="1.439" rx="1.439" ry="1.439" transform="translate(162.071 345.106)" fill="#e2f2f1"/><circle data-name="Ellipse 102" cx="6.796" cy="6.796" r="6.796" transform="translate(398.437 64.32)" fill="#fecc86"/><circle data-name="Ellipse 103" cx="2.973" cy="2.973" r="2.973" transform="translate(384.844 83.86)" fill="#fecc86"/><circle data-name="Ellipse 104" cx="6.796" cy="6.796" r="6.796" transform="translate(575.142 156.071)" fill="#fecc86"/><circle data-name="Ellipse 105" cx="6.796" cy="6.796" r="6.796" transform="translate(633.761 251.22)" fill="#fecc86"/><circle data-name="Ellipse 106" cx="2.973" cy="2.973" r="2.973" transform="translate(595.531 185.805)" fill="#fecc86"/><circle data-name="Ellipse 107" cx="2.973" cy="2.973" r="2.973" transform="translate(684.733 238.477)" fill="#fecc86"/><circle data-name="Ellipse 108" cx="6.796" cy="6.796" r="6.796" transform="translate(345.765 171.363)" fill="#fecc86"/><ellipse data-name="Ellipse 109" cx="2.549" cy="2.973" rx="2.549" ry="2.973" transform="translate(376.348 186.655)" fill="#fecc86"/><ellipse data-name="Ellipse 110" cx="5.097" cy="5.522" rx="5.097" ry="5.522" transform="translate(323.677 205.345)" fill="#fecc86"/><circle data-name="Ellipse 111" cx="6.796" cy="6.796" r="6.796" transform="translate(53.521 269.061)" fill="#fecc86"/><circle data-name="Ellipse 112" cx="6.796" cy="6.796" r="6.796" transform="translate(186.05 303.042)" fill="#fecc86"/><circle data-name="Ellipse 113" cx="2.973" cy="2.973" r="2.973" transform="translate(84.105 284.352)" fill="#fecc86"/><ellipse data-name="Ellipse 114" cx="3.398" cy="2.973" rx="3.398" ry="2.973" transform="translate(172.458 276.707)" fill="#fecc86"/><circle data-name="Ellipse 115" cx="5.522" cy="5.522" r="5.522" transform="translate(31.433 303.042)" fill="#fecc86"/><path data-name="Path 11255" d="M477.997 509.871l-.319.465-.194.441h-1.24l112.844-161.926a.453.453 0 1 1 .742.515l-111.852 160.5z" fill="#21111d"/><path data-name="Rectangle 875" fill="#21111d" d="M0 510.332h776.484v2.549H0z"/><g data-name="Group 1593"><g data-name="Group 1593" fill="#005180"><path d="M262.972 301.927a33.947 33.947 0 0 0-.779 3.506 27.418 27.418 0 0 0-.26 3.376v.13a22.864 22.864 0 0 0 6.753 16.232 21.775 21.775 0 0 0 7.012 4.8 2.916 2.916 0 0 1 1.818-.779h3.246a21.263 21.263 0 0 1-10.518-5.584 19.838 19.838 0 0 1-5.064-8.57l-.779-3.116a37.465 37.465 0 0 1 0-6.233c.26-1.039.519-2.078.779-2.987zm31.3 28.049a21.775 21.775 0 0 0 7.012-4.8 22.864 22.864 0 0 0 6.749-16.239v-.13a31.926 31.926 0 0 0-.26-3.636 29.748 29.748 0 0 0-.91-3.634l-2.208.649a15.861 15.861 0 0 1 .779 3.376 24.689 24.689 0 0 1 .39 3.246 26.768 26.768 0 0 1-.39 3.376 14.757 14.757 0 0 1-.779 3.246 21.946 21.946 0 0 1-4.935 8.181 21.263 21.263 0 0 1-10.518 5.584h3.246a2.631 2.631 0 0 1 1.819.781z"/><path d="M302.578 305.821a15.913 15.913 0 0 0 5.328-4.414 14.709 14.709 0 0 0-1.432-19.086 16.673 16.673 0 0 0-3.376-2.6 10.346 10.346 0 0 1-1.692 1.688 10.807 10.807 0 0 1 3.376 2.467 11.938 11.938 0 0 1 3.636 8.83 13.182 13.182 0 0 1-2.337 7.4 12.911 12.911 0 0 1-6.36 4.415l-1.039.39-1.948.519a13.937 13.937 0 0 1 .649 4.155 11.854 11.854 0 0 1-3.636 8.7 11.193 11.193 0 0 1-5.454 3.246v2.337a14.929 14.929 0 0 0 7.012-3.9v-.13a14.005 14.005 0 0 0 4.285-10.259 16.556 16.556 0 0 0-.13-2.6 18.684 18.684 0 0 0 3.118-1.158zm-20.907 15.714a11.193 11.193 0 0 1-5.454-3.246 12.378 12.378 0 0 1-3.636-8.7 13.937 13.937 0 0 1 .649-4.155l-1.818-.519-1.039-.39a12.7 12.7 0 0 1-6.493-4.415 13.182 13.182 0 0 1-2.337-7.4 11.938 11.938 0 0 1 3.636-8.83 10.807 10.807 0 0 1 3.377-2.471 10.346 10.346 0 0 1-1.688-1.688 16.673 16.673 0 0 0-3.376 2.6 14.709 14.709 0 0 0-1.429 19.086 15.913 15.913 0 0 0 5.324 4.414 18.684 18.684 0 0 0 3.119 1.17 16.556 16.556 0 0 0-.13 2.6 14.005 14.005 0 0 0 4.285 10.259v.13a15.582 15.582 0 0 0 7.012 3.9zm10.779 6.622h-14.934a3.768 3.768 0 1 0 0 7.532h14.934a3.944 3.944 0 0 0 2.727-1.039 4.1 4.1 0 0 0 0-5.454 3.944 3.944 0 0 0-2.727-1.039zm-14.934 2.208h14.934a1.474 1.474 0 0 1 1.039 2.6 1.6 1.6 0 0 1-1.039.519h-14.934a1.6 1.6 0 0 1-1.039-.519 1.564 1.564 0 0 1 1.039-2.6zm2.207 9.609a5.785 5.785 0 0 0 1.558 3.766 5.282 5.282 0 0 0 3.766 1.558 5.208 5.208 0 0 0 3.636-1.558 5.785 5.785 0 0 0 1.558-3.766h-2.337a2.742 2.742 0 0 1-.779 2.078 2.583 2.583 0 0 1-2.078.909 2.675 2.675 0 0 1-2.208-.909 2.741 2.741 0 0 1-.779-2.078z"/><path d="M292.45 333.481h-14.934a3.567 3.567 0 0 0-3.766 3.766 3.944 3.944 0 0 0 1.039 2.727 4.329 4.329 0 0 0 2.727 1.169h14.934a4.05 4.05 0 0 0 2.727-1.169 3.944 3.944 0 0 0 1.039-2.727 4.191 4.191 0 0 0-1.039-2.727 3.943 3.943 0 0 0-2.727-1.039zm-14.934 2.207h14.934a1.6 1.6 0 0 1 1.039.519 1.181 1.181 0 0 1 .519 1.039 1.586 1.586 0 0 1-.519 1.169 1.474 1.474 0 0 1-1.039.39h-14.934a1.474 1.474 0 0 1-1.039-.39 1.586 1.586 0 0 1-.519-1.169 1.181 1.181 0 0 1 .519-1.039 1.6 1.6 0 0 1 1.039-.519zm15.843-52.591a9.867 9.867 0 0 0-6.753 2.727 9.63 9.63 0 0 0-2.727 6.753 9.532 9.532 0 0 0 9.48 9.609 9.507 9.507 0 0 0 6.882-2.857 9.4 9.4 0 0 0 2.727-6.753 9.63 9.63 0 0 0-2.727-6.753 9.946 9.946 0 0 0-6.882-2.726zm-5.064 4.415a6.779 6.779 0 0 1 5.064-2.208 6.858 6.858 0 0 1 5.194 2.208 7.208 7.208 0 0 1-5.194 12.336 7.169 7.169 0 0 1-5.064-2.078 7.062 7.062 0 0 1 0-10.259z"/><path d="M276.606 283.097a9.4 9.4 0 0 0-6.753 2.727 9.213 9.213 0 0 0-2.856 6.753 9.758 9.758 0 0 0 9.609 9.609 9.532 9.532 0 0 0 9.48-9.609 9.63 9.63 0 0 0-2.727-6.753 9.867 9.867 0 0 0-6.753-2.727zm-5.194 4.415a6.858 6.858 0 0 1 5.194-2.208 6.779 6.779 0 0 1 5.064 2.208 7.062 7.062 0 0 1 0 10.259 7.169 7.169 0 0 1-5.064 2.078 7.252 7.252 0 0 1-5.194-2.078 7.062 7.062 0 0 1 0-10.259z"/><path d="M287.255 299.459a6.187 6.187 0 0 1-.779 2.337c-.519.779-1.039 1.558-1.428 2.208-.519-.649-1.039-1.428-1.558-2.208a6.188 6.188 0 0 1-.779-2.337l-2.337.13a13.091 13.091 0 0 0 1.169 3.376 21.984 21.984 0 0 0 2.6 3.636l.909 1.039.779-1.039a21.983 21.983 0 0 0 2.6-3.636 9.538 9.538 0 0 0 1.169-3.376zm18.7-27.4l-20.907 7.4-22.985-8.049.519 1.948c1.169 4.935 3.376 7.791 5.973 9.35a19.434 19.434 0 0 0 8.311 2.6 9.394 9.394 0 0 1 5.197 2.074c1.169 1.039 1.818 2.727 1.818 5.064h2.208a6.526 6.526 0 0 1 1.948-5.064 8.607 8.607 0 0 1 5.064-2.078 19.434 19.434 0 0 0 8.311-2.6c2.6-1.558 4.8-4.415 5.973-9.35l.517-1.944zm-20.648 9.74l19.219-6.883a11.512 11.512 0 0 1-4.285 5.974c-2.208 1.428-4.8 1.818-7.4 2.208a11.836 11.836 0 0 0-6.363 2.6 6.315 6.315 0 0 0-1.43 1.812 6.834 6.834 0 0 0-1.558-1.818 11.836 11.836 0 0 0-6.363-2.6c-2.6-.39-5.194-.779-7.4-2.208a11.512 11.512 0 0 1-4.285-5.973l19.221 6.888z"/><path d="M276.611 288.811a3.382 3.382 0 0 0-1.948.519c.13 0 .13-.13.26-.13a1.559 1.559 0 0 1 1.428 1.558 1.441 1.441 0 0 1-1.428 1.428 1.474 1.474 0 0 1-1.558-1.428c0-.13.13-.26.13-.39a3.526 3.526 0 0 0-.779 2.208 3.831 3.831 0 1 0 7.662 0 3.769 3.769 0 0 0-3.767-3.765zm16.747 0a2.982 2.982 0 0 0-1.818.519c.13 0 .13-.13.26-.13a1.559 1.559 0 0 1 1.428 1.558 1.441 1.441 0 0 1-1.428 1.428 1.474 1.474 0 0 1-1.558-1.428.477.477 0 0 1 .13-.39 3.526 3.526 0 0 0-.779 2.208 3.831 3.831 0 1 0 7.662 0 3.8 3.8 0 0 0-3.897-3.765z" fill-rule="evenodd"/><path d="M290.502 323.093v5.584h-2.208v-5.584zm-8.831 0v5.584h-2.207v-5.584z"/></g><g data-name="Group 1594"><g data-name="Group 436" fill-rule="evenodd"><path d="M351.75 371.002v12.821h2.8c3.963 0 6.76-2.331 6.76-6.41s-2.8-6.41-6.76-6.41zm3.147-5.828a12.239 12.239 0 1 1 0 24.476h-6.178a2.885 2.885 0 0 1-2.913-2.909v-18.537a2.986 2.986 0 0 1 2.914-3.03zm29.255 8.625l5.012-7.343a2.962 2.962 0 0 1 5.478 1.632 2.676 2.676 0 0 1-.466 1.632v.117l-6.993 9.79v7.226a3.033 3.033 0 0 1-6.061 0v-7.226l-6.993-9.907a2.676 2.676 0 0 1-.466-1.632 2.963 2.963 0 0 1 5.478-1.632zm-51.983-8.742a3.086 3.086 0 0 1 3.03 3.03v12c0 5.944-4.662 9.907-10.373 9.907-5.828 0-10.373-3.963-10.373-9.907v-12a2.973 2.973 0 1 1 5.944 0v12.122c0 2.564 1.981 4.079 4.429 4.079a3.978 3.978 0 0 0 4.312-4.079v-12.121a3.086 3.086 0 0 1 3.031-3.03zm-33.334 5.944v15.851a2.886 2.886 0 0 1-2.914 2.914 2.986 2.986 0 0 1-3.031-2.914v-15.85h-4.546a2.914 2.914 0 1 1 0-5.828h15.152a2.886 2.886 0 0 1 2.914 2.914 2.96 2.96 0 0 1-2.914 2.914zm-26.459 11.19c0-2.1-12.937-1.049-12.937-9.441 0-5.245 4.779-7.809 9.441-7.809a18.058 18.058 0 0 1 6.644 1.049 2.874 2.874 0 0 1 1.865 2.681 2.79 2.79 0 0 1-2.8 2.914 3.4 3.4 0 0 1-1.049-.233 13.375 13.375 0 0 0-4.312-.7c-1.165 0-3.846.233-3.846 1.865 0 3.03 12.938.816 12.938 9.907 0 5.128-4.9 7.576-9.441 7.576a19.944 19.944 0 0 1-7.809-1.632 3.056 3.056 0 0 1-1.864-2.68 2.885 2.885 0 0 1 2.914-2.914 4.139 4.139 0 0 1 1.166.233 12.361 12.361 0 0 0 5.361 1.165c1.398 0 3.729-.116 3.729-1.981z" fill="#00486e"/><path d="M437.299 373.799l5.012-7.343a3.065 3.065 0 0 1 2.564-1.4 3.009 3.009 0 0 1 3.03 3.03 2.784 2.784 0 0 1-.583 1.632v.117l-6.993 9.79v7.232a2.986 2.986 0 0 1-3.03 2.914 2.886 2.886 0 0 1-2.914-2.914v-7.226l-7.109-9.907a3.794 3.794 0 0 1-.467-1.632 2.962 2.962 0 0 1 5.478-1.632zm-27.157 9.907h8.392a2.986 2.986 0 0 1 2.914 3.03 2.885 2.885 0 0 1-2.914 2.914h-10.835a3.434 3.434 0 0 1-3.5-3.5v-18.063a2.986 2.986 0 0 1 2.913-3.03 3.086 3.086 0 0 1 3.031 3.03z" fill="#3b9ed4"/></g></g></g><g data-name="Group 1693"><path data-name="Path 7586" d="M168.585 421.728l-2.035 4.54a.744.744 0 0 0 .374.984l10.632 4.766a.843.843 0 0 0 1.049-1.232l-4.115-6.41a6.549 6.549 0 0 1-5.905-2.648z" fill="#55769f"/><path data-name="Path 7587" d="M155.077 421.728l-2.035 4.54a.744.744 0 0 0 .375.984l10.632 4.766a.843.843 0 0 0 1.049-1.232l-4.115-6.41a6.55 6.55 0 0 1-5.906-2.648z" fill="#55769f"/><path data-name="Path 7588" d="M132.112 296.547l-1.131 7.09-2.388-9.453s3.348-1.624 3.5-1.034a26.32 26.32 0 0 1 .019 3.397z" fill="#07085b"/><path data-name="Path 7589" d="M113.111 311.807l-1.034 12.258 10.817-.517-1.247-10.855z" fill="#ffc0bb"/><path data-name="Path 7590" d="M122.239 317.857l-.593-5.162-8.536-.886-.358 4.245c1.697 1.69 4.749 3.443 9.487 1.803z" fill="#f99893"/><g data-name="Group 589"><path data-name="Path 7591" d="M128.871 303.549a2.218 2.218 0 1 0 3.126-1.494 2.481 2.481 0 0 0-3.126 1.494z" fill="#f99893"/><path data-name="Path 7592" d="M130.441 304.534c.057-.35.134-.7.217-1.042a11.558 11.558 0 1 0-22.77-3.446 2.5 2.5 0 0 0-2.234-.317c-1.408.525-2.017 2.376-1.361 4.136s2.328 2.761 3.736 2.236a2.214 2.214 0 0 0 .537-.294 10.838 10.838 0 0 0 10.124 10.6 10.371 10.371 0 0 0 7.207-2.479c2.667-1.96 4.017-6.127 4.544-9.394z" fill="#ffc0bb"/><path data-name="Path 7593" d="M122.016 300.828c.022.662.027 1.308.061 1.941a4.311 4.311 0 0 0 .357 1.717 1.642 1.642 0 0 1 .458 1.012 1.365 1.365 0 0 1-.5 1.07 2.229 2.229 0 0 1-1.989.388 2.751 2.751 0 0 0 1.626-.758.876.876 0 0 0 .239-.664c-.027-.243-.1-.292-.4-.7a2.573 2.573 0 0 1-.313-1.057 5.38 5.38 0 0 1 0-1.019 6.9 6.9 0 0 1 .461-1.93z" fill="#f99893"/><path data-name="Path 7594" d="M118.172 301.541a1.009 1.009 0 1 1-.8-.874 1.01 1.01 0 0 1 .8.874z" fill="#333"/><path data-name="Path 7595" d="M126.806 302.521a1.01 1.01 0 1 1-.8-.876 1.01 1.01 0 0 1 .8.876z" fill="#333"/><path data-name="Path 7596" d="M116.489 308.534a7.363 7.363 0 0 0 .833.633 7.219 7.219 0 0 0 .9.52 6.252 6.252 0 0 0 1.958.6 5.331 5.331 0 0 0 2.033-.15 7.5 7.5 0 0 0 1.891-.859 5.606 5.606 0 0 1-1.831 1.054 4.814 4.814 0 0 1-2.125.218 5.519 5.519 0 0 1-2.02-.684 6.042 6.042 0 0 1-1.639-1.332z" fill="#f99893"/><path data-name="Path 7597" d="M119.448 299.425a10.3 10.3 0 0 0-1.475-.354 5.111 5.111 0 0 0-1.4-.031 4.732 4.732 0 0 0-1.348.357c-.336.1-1.151.584-1.363.677a3.392 3.392 0 0 1 2.621-1.823 3.4 3.4 0 0 1 1.658.221 3.1 3.1 0 0 1 1.307.953z" fill="#07085b"/><path data-name="Path 7598" d="M123.893 299.925a3.1 3.1 0 0 1 1.468-.682 3.4 3.4 0 0 1 1.669.105 3.393 3.393 0 0 1 2.218 2.3c-.193-.134-.9-.762-1.206-.929a4.735 4.735 0 0 0-1.253-.613 5.135 5.135 0 0 0-1.381-.242 10.328 10.328 0 0 0-1.515.061z" fill="#07085b"/></g><path data-name="Path 7599" d="M119.07 369.307s-2.256 15.3 12.529 17.968 33.18 1.87 33.18 1.87l2.56 35.15 7.718.394s19.875-48.838-7.635-56.473l-24.722.121-10.179-.727s-10.3-2.545-10.422-2.06-2.79 4-3.029 3.757z" fill="#070852"/><path data-name="Path 7600" d="M105.48 369.392s-2.256 15.3 12.529 17.968 33.18 1.871 33.18 1.871l2.56 35.15 7.718.394s19.875-48.838-7.635-56.473l-24.722.121-10.179-.727s-10.3-2.545-10.422-2.06-2.787 3.995-3.029 3.756z" fill="#10116b"/><path data-name="Path 7601" d="M124.101 319.177s10.18 1.293 12.765 3.393 15.027 32.962 15.027 32.962l-10.341 12.119-21.975.162s-16.481 8.887-26.822.485-5.009-37.648.969-43.95 16.643-6.14 16.643-6.14 9.695 6.786 13.734.969z" fill="#ff5b7e"/><path data-name="Path 7602" d="M104.389 334.527a42.694 42.694 0 0 1 .745 5.1c.088.856.125 1.716.175 2.576.026.861.046 1.722.034 2.584a34.017 34.017 0 0 1-.424 5.158 16.962 16.962 0 0 1-1.5 4.94 25.369 25.369 0 0 0 .986-5.01c.187-1.689.252-3.393.274-5.1s-.007-3.41-.06-5.119-.139-3.413-.23-5.129z" fill="#fff"/><path data-name="Path 7603" d="M134.847 333.397c.465 2.5.958 5 1.458 7.487s1.04 4.97 1.642 7.433 1.257 4.912 2.057 7.312a35.773 35.773 0 0 0 1.374 3.532 13.6 13.6 0 0 0 1.952 3.24 12.381 12.381 0 0 1-2.244-3.1 29.14 29.14 0 0 1-1.569-3.5c-.458-1.195-.85-2.412-1.221-3.633s-.687-2.459-.993-3.7-.572-2.486-.823-3.735-.481-2.5-.682-3.761a94.796 94.796 0 0 1-.951-7.575z" fill="#fff"/><path data-name="Path 7614" d="M139.962 360.667c-.064-.512-3.948-1.083-5.376-1.157-1.082-.056-8.251-.3-10.689-.405l.179.627-.037 2.769-.4 1.835c2.139.135 7.369.34 8.458.555a26.726 26.726 0 0 1 3.979 1.385s1.049-.238-.284-.814a6.4 6.4 0 0 1-2.14-1.534c-.183-.2.016-.569.148-.534 3.631.952 4 1.109 4 1.109s4.267-.024.024-.983c-2.543-.575-3.455-.909-3.682-1.195-.1-.121.076-.535.231-.544 2.2-.136 6.159.645 5.076.133a27.967 27.967 0 0 0-4.748-1.048c-.066-.01-.174-.413.122-.439 2.102-.175 5.199.715 5.139.24z" fill="#ffc0bb"/><path data-name="Path 7615" d="M101.904 354.462c.894.217 1.775.467 2.673.655.891.213 1.8.368 2.69.556q2.7.493 5.421.869c1.814.238 3.631.457 5.453.633s3.66.334 5.456.435l.242.013.053.209a14.867 14.867 0 0 1 .332 1.812 14.551 14.551 0 0 1 .107 1.83 11.776 11.776 0 0 1-.159 1.832 8.432 8.432 0 0 1-.532 1.767l-.021.049-.04.026-2 1.339q-1 .67-2.006 1.324c.626-.5 1.257-.994 1.892-1.483l1.9-1.468-.06.075a8.073 8.073 0 0 0 .418-1.7 11.7 11.7 0 0 0 .085-1.758 16.479 16.479 0 0 0-.16-1.759 14.414 14.414 0 0 0-.353-1.722l.295.223c-.949-.025-1.848-.086-2.772-.154s-1.835-.14-2.75-.237c-1.83-.189-3.657-.417-5.474-.708s-3.625-.648-5.416-1.071c-.892-.228-1.785-.448-2.663-.725-.879-.243-1.746-.554-2.611-.862z" fill="#fff"/><path data-name="Path 7616" d="M132.328 289.84s3.394.109-.167-2.76-13.123-6.235-19.252-3c0 0-1.225-2.605-3-1.984s1.152 2.415 1.152 2.415-2.262-.073-2.953 1.037c-.51.82.875.856 1.632.819-1.288.219-6.225 3.337-3.747 13.293.881-.194 5.9-7.472 5.9-7.472s11.478 6.377 10.343 1.306c0 0 11.891 7.421 10.2 1.291.008 0 4.606.337-.108-4.945z" fill="#07085b"/><path data-name="Path 7617" d="M105.983 299.72a2.173 2.173 0 0 1 1.973.477c1.022.811.909 3.661.909 3.661s4.879 3.146 4.365-10.167c-.547-14.164-4.07 1.136-4.07 1.136z" fill="#07085b"/></g><path data-name="Path 11242" d="M178.795 339.148l-7.723 31.055-37.945-.856 4.9-34.159z" fill="#4cb7d8"/><g data-name="Group 1695"><path data-name="Path 20151" d="M490.635 277.458c-.513 1.741-2.82 77.479 11.222 137.3l69.879.157c.932-40.864 16.541-104.406-6.05-139.55z" fill="#263238"/><path data-name="Path 20152" d="M561.177 132.886c2.307 8.392 5.8 15.113 9.2 18.49s7.042 7.33 6.921 12.118c-.052 1.881-.679 3.874.148 5.572 1.062 2.194 3.909 2.673 6.042 3.874a10.118 10.118 0 0 1 4.779 9.167 14.685 14.685 0 0 1-4.492 9.576c-2.612 2.664-6.842 4.527-10.133 2.708-1.985-1.1-3.116-3.239-4.118-5.276q-7.774-15.818-14.068-32.3" fill="#e9ab4f"/><path data-name="Path 20153" d="M539.969 96.958a21.616 21.616 0 0 0-37.677 14.695c.061 5.615 2.255 11.509 0 16.662-1.568 3.656-5.224 6.416-5.7 10.36-.583 4.57 3.334 8.706 3.125 13.328-.131 3.012-2.02 5.668-4.187 7.757s-4.693 3.8-6.686 6.093c-5.528 6.286-5.876 16.21-1.741 23.453s12.248 11.8 20.553 12.788 16.785-1.306 24.141-5.3c4.788-2.612 9.289-6.024 12.135-10.673s3.83-10.673 1.575-15.67" fill="#e9ab4f"/><path data-name="Path 20154" d="M513.609 93.572a28.409 28.409 0 0 1 3.717.174 48.888 48.888 0 0 1 8.662 2.42 24.586 24.586 0 0 0 8.923 1.576 11.208 11.208 0 0 0 2.716-.47 4.21 4.21 0 0 0 .941-.383 18.6 18.6 0 0 1-3.666.557 26.243 26.243 0 0 1-8.784-1.68 42.652 42.652 0 0 0-8.758-2.316 15.024 15.024 0 0 0-2.76 0 3.564 3.564 0 0 0-.991.122z" fill="#916003"/><path data-name="Path 20155" d="M583.932 197.272a24.373 24.373 0 0 0-.427-3.2 27.125 27.125 0 0 0-16.184-19.422l-21.024-8.871-24.027.619s-17.855 8.157-21.451 12.405c-.27.313-2.664 2.681-2.821 3.6l-18.081 53.678-23.113 14.408 6.338 8.079 34.074-3.23 4.126-6.712c-2.255 5.057-11.247 25.577-11.247 31.862 0 0 52.59 11.256 73.527 9.15 9.21-.931 11.4-1.793 11.4-1.793l-6.146-23.035c5.093-.349 10.3-3.482 12.388-7.835 3.626-7.55 3.321-49.57 2.668-59.703z" fill="#016ca4"/><path data-name="Path 20672" d="M522.275 207.769c1.636-4.624 2.839-3.458 3.223-9.105s1.132-10.1-1.688-13.486-1.533-7.051-1.535-12.645v-6.139h0s-17.855 8.157-21.451 12.405c-.27.313-2.664 2.681-2.821 3.6l-18.081 53.678-23.113 14.408 6.338 8.079 34.074-3.23 4.126-6.712c-2.255 5.057-11.247 25.577-11.247 31.862 0 0 6.412 6.095 26.747 0 9.21-.931 8.652-9.262 8.652-9.262l-3.223-9.961s-2.089-13.573 0-17.926c3.394-7.057-9.613-14.362-3.322-26.18.282-.519 1.681-4.762 3.321-9.386z" fill="#263238" stroke="#707070"/><path data-name="Path 20671" d="M583.932 197.272a24.373 24.373 0 0 0-.427-3.2 27.125 27.125 0 0 0-16.184-19.422l-21.024-8.871-10.134 20.57s12.313 29.056 8.718 33.3c-.27.313-13.179 13.333-13.335 14.256l7.587 10.959-1.546 7.74v5.693s1.838 10.41.751 11.082-5.63.369-4.669 5.434-1.051 6.01 1.128 9.084 7.887 7.847 28.824 5.74c9.21-.931 11.4-1.793 11.4-1.793l-6.146-23.035c5.093-.349 10.3-3.482 12.388-7.835 3.627-7.549 3.322-49.569 2.669-59.702z" fill="#263238" stroke="#707070"/><path data-name="Path 20156" d="M419.781 205.272h-3.622l4.962 46.844 42.831-2.943-4.832-40.333z" fill="#e0e0e0"/><path data-name="Path 20157" d="M419.781 202.956l3.787 47.515 84.566-2.725-10.42-44.79-38.017 3.674z" fill="#fafafa"/><path data-name="Path 20158" d="M419.781 203.001l.679.052 2.046.175 7.922.679 29.285 2.612 38.017-3.709h.183v.174c3.212 13.755 6.738 28.894 10.447 44.79l.061.27h-.279l-3.987.122-80.57 2.542h-.176v-.175c-1.123-14.591-2.037-26.482-2.681-34.744-.3-4.1-.548-7.3-.705-9.489q-.122-1.6-.183-2.455v-.87a7.1 7.1 0 0 0 .078.87c.078.566.131 1.411.218 2.49.192 2.2.461 5.406.81 9.524.679 8.235 1.654 20.083 2.855 34.613l-.183-.157 80.57-2.612 4-.122-.217.27c-3.691-15.888-7.2-31.026-10.395-44.79l.218.156-38.017 3.622-29.158-2.77-7.948-.766-2.081-.209z" fill="#263238"/><path data-name="Path 20159" d="M466.59 248.512a1.644 1.644 0 0 1-.139-.409c-.078-.322-.183-.714-.3-1.184a218.247 218.247 0 0 1-.992-4.353c-.81-3.717-1.82-8.862-2.777-14.582s-1.663-10.917-2.107-14.686a198.9 198.9 0 0 1-.479-4.475 46.83 46.83 0 0 1-.1-1.218 1.335 1.335 0 0 1 0-.427 2.349 2.349 0 0 1 .1.417 9.153 9.153 0 0 0 .183 1.21c.157 1.115.366 2.612.627 4.448.522 3.761 1.289 8.949 2.237 14.66s1.915 10.865 2.612 14.591c.348 1.811.635 3.3.871 4.405.087.488.165.87.218 1.21a1.686 1.686 0 0 1 .052.391z" fill="#263238"/><path data-name="Path 20162" d="M454.881 259.847l-7.835-5.745.427-13.058a4.353 4.353 0 0 1 3.4 3.691c.322 3.065.592 5.973.592 5.973l2.464.74-.34-1.7 5.989-8.532s2.272 1.68 1.323 3.892c1.088-1.062 2.812-.183 2.612.8l.418-2.324s2.725-.81 2.612 1.95a17.647 17.647 0 0 1-.322 3.291h9.515s-2.751 4.649-4.353 5.911-16.044 5.179-16.044 5.179" fill="#ffbe9d"/><path data-name="Path 20163" d="M455.603 257.341a14.8 14.8 0 0 1-2.011-7.5c.139 0 .392 1.741.949 3.77a36.667 36.667 0 0 1 1.062 3.73z" fill="#eb996e"/><path data-name="Path 20164" d="M458.773 255.321a31.089 31.089 0 0 1-.949-5.154v-.148l.148-.253a33.9 33.9 0 0 1 2.925-4.692 34.8 34.8 0 0 1-2.533 4.918l-.148.253v-.14a31.675 31.675 0 0 1 .557 5.216z" fill="#eb996e"/><path data-name="Path 20165" d="M462.655 253.815a13.27 13.27 0 0 1-.374-3.1v-.053c.113-.5.218-1.01.34-1.541a24.376 24.376 0 0 1 1.245-4.518 24.8 24.8 0 0 1-.81 4.623l-.357 1.523v-.052a14.142 14.142 0 0 1-.044 3.118z" fill="#eb996e"/><path data-name="Path 20166" d="M550.623 104.14v4.274l.87 63.933c.1 7.417-9.115 0-9.115 0s-19.743 7.5-19.97 0c-.244-7.835-.635-16.149-.635-16.149s-10.186-1.4-12.649-14.564c-1.228-6.547-1.193-17.341-.87-26.169a13.929 13.929 0 0 1 15.1-13.45z" fill="#ffbe9d"/><path data-name="Path 20167" d="M513.27 125.008a1.74 1.74 0 0 0 1.68 1.671 1.62 1.62 0 0 0 1.741-1.576 1.741 1.741 0 0 0-1.68-1.671 1.609 1.609 0 0 0-1.741 1.576z" fill="#263238"/><path data-name="Path 20168" d="M510.806 121.011c.217.209 1.479-.775 3.3-.818s3.186.871 3.378.6-.13-.5-.723-.871a4.648 4.648 0 0 0-2.716-.757 4.477 4.477 0 0 0-2.612.932c-.544.409-.732.81-.627.914z" fill="#263238"/><path data-name="Path 20674" d="M529.204 174.558c1.881-.775-.994 11.372-5.169 10.725s-15.687-10.586-10.635-14.6 9.243-7.607 9.3-2.322 4.619 6.973 6.504 6.197z" fill="#fff"/><path data-name="Path 20675" d="M530.02 174.92c-3.059-.775 7.632 10.363 7.632 10.363s20.641-6.35 12.427-10.363-10.531-4.014-10.531-4.014-6.471 4.789-9.528 4.014z" fill="#fff"/><path data-name="Path 20169" d="M531.263 125.008a1.741 1.741 0 0 0 1.68 1.672 1.62 1.62 0 0 0 1.742-1.576 1.741 1.741 0 0 0-1.68-1.671 1.62 1.62 0 0 0-1.741 1.576z" fill="#263238"/><path data-name="Path 20170" d="M528.756 120.85c.218.218 1.48-.775 3.3-.818s3.186.871 3.377.6-.121-.5-.722-.871a4.651 4.651 0 0 0-2.716-.749 4.474 4.474 0 0 0-2.612.923c-.549.415-.731.824-.627.915z" fill="#263238"/><path data-name="Path 20171" d="M522.505 134.575a11.9 11.9 0 0 0-2.977-.453c-.471 0-.914-.122-1-.435a2.382 2.382 0 0 1 .27-1.393l1.288-3.587c1.741-5.1 3.038-9.3 2.838-9.367s-1.811 4.013-3.587 9.115l-1.227 3.613a2.75 2.75 0 0 0-.192 1.837 1.174 1.174 0 0 0 .792.653 3.013 3.013 0 0 0 .792.1 12.676 12.676 0 0 0 3.003-.083z" fill="#263238"/><path data-name="Path 20172" d="M521.844 156.199a33.656 33.656 0 0 0 17.577-5.223s-4.049 9.2-17.316 8.331z" fill="#eb996e"/><path data-name="Path 20173" d="M523.402 138.945a3.281 3.281 0 0 1 2.908-1.3 2.969 2.969 0 0 1 2.107 1.053 1.906 1.906 0 0 1 .209 2.168 2.212 2.212 0 0 1-2.377.67 6.9 6.9 0 0 1-2.377-1.323 2.182 2.182 0 0 1-.531-.522.619.619 0 0 1 0-.688" fill="#eb996e"/><path data-name="Path 20174" d="M527.912 135.689c-.3 0-.244 1.967-1.906 3.421s-3.77 1.3-3.778 1.567c0 .131.479.374 1.376.374a4.956 4.956 0 0 0 3.16-1.2 4.284 4.284 0 0 0 1.462-2.864c.078-.836-.174-1.315-.314-1.298z" fill="#263238"/><path data-name="Path 20175" d="M528.086 113.716c.192.488 2.011.2 4.161.4s3.892.74 4.17.287c.113-.218-.2-.679-.87-1.14a7.279 7.279 0 0 0-6.347-.522c-.809.34-1.192.74-1.114.975z" fill="#263238"/><path data-name="Path 20176" d="M511.328 115.71c.34.4 1.585-.061 3.091-.122s2.8.2 3.082-.244c.131-.209-.087-.627-.653-1a4.3 4.3 0 0 0-2.533-.609 4.257 4.257 0 0 0-2.446.871c-.523.47-.68.904-.541 1.104z" fill="#263238"/><path data-name="Path 20177" d="M533.998 99.953c-3.535 4.7.139 11.317 4.214 15.6s9.037 9.167 7.922 14.939c-1.288 6.695-10.447 10.978-9.08 17.655.5 2.438 2.42 4.518 2.429 6.964 0 4.492-5.8 6.669-7.469 10.838-2.289 5.711 4.013 11.4 4.109 17.559.052 3.482-1.933 6.756-2.037 10.246-.218 7.156 8.252 12.4 15.191 10.638s11.691-8.532 13.206-15.531-.784-16.836-1.907-23.905l12.023 2.786c2.246-2.133-.818-4.4-1.323-7.461-1.262-7.652-6.294-14.129-8.705-21.511-2.1-6.451-2.107-13.354-3.021-20.075s-3-13.72-8.132-18.151-14.007-4.98-18.159.383" fill="#e9ab4f"/><path data-name="Path 20178" d="M541.789 222.527l-3.656-4.971 4.97-11.073 1.741-25.934s-3.6-.949-3.97 3.125c-.217 2.394-.409 4.536-.409 4.536l-4.092-1.315-5.823 1.741s.261 2.96 2.612 2.376a14.709 14.709 0 0 1 4.24-.435l2.229 3.273v1.175l-2.96-2.116h-5.85l-3.621 3.126s1.227 2.9 3.125 2.02c0 0-3.16 8.548-3.482 10.159 0 0-3.221 8.331 0 13.154a54.765 54.765 0 0 0 7.556 8.766z" fill="#ffbe9d"/><path data-name="Path 20179" d="M543.253 197.194a2.331 2.331 0 0 0 .244-1.3 16.276 16.276 0 0 0-1.271-3.065 26.031 26.031 0 0 1-1.741-4.466 26.072 26.072 0 0 1 2.185 4.275c.261.592.513 1.158.748 1.741a4.1 4.1 0 0 1 .427 1.524 1.742 1.742 0 0 1-.27 1.044c-.175.194-.306.264-.322.247z" fill="#eb996e"/><path data-name="Path 20180" d="M541.731 196.523a10.943 10.943 0 0 1-2.681-1.619c-1.41-1-2.481-1.933-2.376-2.055a16.317 16.317 0 0 1 2.611 1.689 11.122 11.122 0 0 1 2.446 1.984z" fill="#eb996e"/><path data-name="Path 20181" d="M539.109 201.416a4.481 4.481 0 0 1-1.227-1.384 9.819 9.819 0 0 1-.958-1.741 11.423 11.423 0 0 1-.409-1.115.523.523 0 0 0-.253-.357 2.229 2.229 0 0 0-.548-.113c-1.193-.157-2.324-.357-3.23-.444h.061a3.457 3.457 0 0 0-.87.7c-.253.261-.47.488-.662.661-.383.366-.679.5-.7.461s.209-.209.531-.61l.6-.722a3.145 3.145 0 0 1 .975-.871h.06c.984.052 2.081.226 3.282.383a2.257 2.257 0 0 1 .688.157 1 1 0 0 1 .479.609c.121.409.226.757.366 1.105a11.885 11.885 0 0 0 .87 1.741 11.06 11.06 0 0 1 .945 1.54z" fill="#eb996e"/><path data-name="Path 20182" d="M533.666 202.131a9.412 9.412 0 0 1 .348-2.865 8.893 8.893 0 0 1 .8-2.777 9.3 9.3 0 0 1-.357 2.865 9.108 9.108 0 0 1-.792 2.777z" fill="#eb996e"/><path data-name="Path 20183" d="M538.071 207.022a1.426 1.426 0 0 0-.114-.87 1.538 1.538 0 0 0-.714-.644 1.867 1.867 0 0 0-1.254 0 5.651 5.651 0 0 0-1.436.767 5.928 5.928 0 0 1-1.742.87 2.028 2.028 0 0 1-2.15-.688 1.486 1.486 0 0 1-.156-1.271 3.232 3.232 0 0 1 .635-1.071 19.537 19.537 0 0 1 3.282-3.029 3.981 3.981 0 0 1 1.863-.757 2.928 2.928 0 0 1 1.742.4 5.352 5.352 0 0 1 1.741 1.741 2.767 2.767 0 0 1 .444.783 4.161 4.161 0 0 1-.583-.679 5.868 5.868 0 0 0-1.741-1.567 2.693 2.693 0 0 0-1.524-.305 3.676 3.676 0 0 0-1.663.723 20.929 20.929 0 0 0-3.168 2.986c-.5.557-.819 1.28-.462 1.8a1.645 1.645 0 0 0 1.689.531c1.227-.331 2.133-1.332 3.212-1.576a2.052 2.052 0 0 1 1.453.087 1.653 1.653 0 0 1 .758.8c.167.665-.112.996-.112.969z" fill="#eb996e"/><path data-name="Path 20184" d="M576.185 261.205a6.18 6.18 0 0 1-.792.871 9.727 9.727 0 0 1-2.777 1.784 13.055 13.055 0 0 1-5.128 1.053 16.529 16.529 0 0 1-6.764-1.454 31.888 31.888 0 0 1-7.121-4.457 182.188 182.188 0 0 1-7.339-6.242 67.676 67.676 0 0 1-7.382-7.678 73.9 73.9 0 0 1-6.39-9.48c-.41-.723-.81-1.445-1.219-2.151l-.078-.147.121-.122 13.359-13.772.113-.122.148.087c8.705 5.4 16.053 10.211 21.259 13.528l6.094 3.883 1.61 1.036.418.27.13.1a.334.334 0 0 1-.157-.069l-.427-.244-1.645-.984c-1.437-.87-3.482-2.141-6.146-3.778-5.223-3.264-12.588-8.018-21.346-13.389h.261l-13.312 13.742v-.27c.4.713.809 1.427 1.21 2.15a74 74 0 0 0 6.381 9.437 66.667 66.667 0 0 0 7.321 7.644c5.058 4.457 9.576 8.706 14.3 10.717a16.329 16.329 0 0 0 6.634 1.5 13.215 13.215 0 0 0 5.058-.958 10.107 10.107 0 0 0 2.786-1.7c.568-.502.82-.802.82-.785z" fill="#707070"/><path data-name="Path 20185" d="M561.854 206.013a5.253 5.253 0 0 1 0 .932c0 .7-.043 1.541-.07 2.525-.078 2.255-.182 5.145-.3 8.349s-.252 6.207-.374 8.34l-.157 2.524a3.7 3.7 0 0 1-.122.923 3.3 3.3 0 0 1-.052-.932v-2.533c0-2.133.122-5.084.244-8.34s.279-6.207.427-8.34a16.543 16.543 0 0 1 .4-3.448z" fill="#263238"/><path data-name="Path 20186" d="M572.876 183.1c0 .078-.941.4-2.342 1.228a16.052 16.052 0 0 0-2.316 1.654 16.484 16.484 0 0 0-4.17 5.511 15.648 15.648 0 0 0-.966 2.672c-.417 1.576-.461 2.612-.548 2.612a1.929 1.929 0 0 1 0-.714 10.711 10.711 0 0 1 .261-1.941 14.29 14.29 0 0 1 .87-2.777 15.4 15.4 0 0 1 4.283-5.65 14.125 14.125 0 0 1 2.429-1.619 10.632 10.632 0 0 1 1.8-.775 2.341 2.341 0 0 1 .7-.2z" fill="#263238"/><path data-name="Path 20187" d="M504.929 231.608a9.456 9.456 0 0 1-.627-1.376c-.374-.87-.914-2.2-1.506-3.839a39.323 39.323 0 0 1-2.777-13.293 23.559 23.559 0 0 1 .322-3.891 35.1 35.1 0 0 1 .87-3.535c.645-2.211 1.254-4.179 1.584-5.876a15.6 15.6 0 0 0 .322-4.065c-.052-.958-.183-1.489-.131-1.5a1.957 1.957 0 0 1 .113.375 7.278 7.278 0 0 1 .192 1.114 14.541 14.541 0 0 1-.174 4.127 58.373 58.373 0 0 1-1.506 5.937c-.3 1.105-.6 2.272-.809 3.482a23.756 23.756 0 0 0-.3 3.822 41.693 41.693 0 0 0 2.611 13.189c.549 1.645 1.045 2.968 1.367 3.883a9.257 9.257 0 0 1 .452 1.445z" fill="#707070"/><path data-name="Path 20188" d="M547.552 266.977a1.409 1.409 0 0 1-.392.175l-1.132.418c-.984.357-2.438.81-4.248 1.306s-4 .992-6.443 1.436a74.481 74.481 0 0 1-8.017.966 76.944 76.944 0 0 1-8.079.1 63.466 63.466 0 0 1-6.573-.574c-1.864-.261-3.361-.5-4.353-.731l-1.175-.261a1.748 1.748 0 0 1-.409-.122 1.3 1.3 0 0 1 .426 0l1.193.183c1.036.174 2.534.383 4.353.583s4.083.384 6.555.479a78.939 78.939 0 0 0 8.036-.139c2.812-.183 5.537-.54 7.974-.932s4.623-.87 6.433-1.332 3.273-.87 4.274-1.167l1.158-.331a1.478 1.478 0 0 1 .418-.061z" fill="#707070"/><path data-name="Path 20189" d="M501.856 247.468a5.5 5.5 0 0 1-.366 1.332c-.287.871-.74 2.046-1.3 3.526-1.132 2.969-2.725 7.043-4.405 11.579s-3.125 8.705-4.1 11.683l-1.14 3.578a8.123 8.123 0 0 1-.453 1.306 8.03 8.03 0 0 1 .287-1.349c.2-.871.548-2.1.993-3.631.87-3.039 2.3-7.2 3.987-11.744s3.326-8.6 4.527-11.543l1.437-3.482c.342-.802.507-1.263.533-1.255z" fill="#707070"/><path data-name="Path 20190" d="M562.77 414.592a1.536 1.536 0 0 1 0-.321v-.941c0-.87-.052-2.054-.087-3.6a761.647 761.647 0 0 1-.078-13.267c0-11.2.157-26.674 0-43.763s-.7-32.559-1.741-43.71c-.278-2.786-.47-5.31-.792-7.5l-.391-3.082c-.061-.47-.113-.923-.165-1.349s-.148-.871-.218-1.219a457.299 457.299 0 0 0-.6-3.56c-.061-.383-.1-.7-.139-.923a1.251 1.251 0 0 1 0-.323 1.592 1.592 0 0 1 .078.314l.192.87c.156.87.392 2.028.678 3.543.079.392.157.792.236 1.219s.121.87.191 1.358c.131.948.27 1.967.427 3.073.349 2.2.566 4.727.871 7.513 1.123 11.152 1.741 26.639 1.872 43.737s-.07 32.567-.148 43.763c0 5.58-.052 10.107-.06 13.267v4.544a1.349 1.349 0 0 1-.122.365z" fill="#455a64"/><path data-name="Path 20191" d="M553.028 102.887a5.439 5.439 0 0 1 3.125-5.589 7.4 7.4 0 0 1 6.616.427 8.976 8.976 0 0 1 1.593 14.59 6.382 6.382 0 0 1-4.44 1.741 13.622 13.622 0 0 1-4.092-1.28 5.3 5.3 0 0 0-4.187-.226" fill="#e9ab4f"/><path data-name="Path 20192" d="M558.964 114.047a37.642 37.642 0 0 0-2.4-6.477 36.439 36.439 0 0 0-3.97-5.65 6.564 6.564 0 0 1 1.523 1.375 19.581 19.581 0 0 1 4.579 8.706 6.742 6.742 0 0 1 .27 2.046z" fill="#ff725e"/><path data-name="Path 20193" d="M556.814 108.633a5.574 5.574 0 0 1-.958.644 18.04 18.04 0 0 1-2.872 1.306 20.572 20.572 0 0 1-10.308.871 19.59 19.59 0 0 1-5.467-1.793 9 9 0 0 1-3.56-3.056 5.7 5.7 0 0 1-.932-3.029 3.469 3.469 0 0 1 .087-.871c.043-.192.079-.287.1-.287a7.779 7.779 0 0 0 0 1.14 5.842 5.842 0 0 0 1.027 2.864c1.428 2.211 4.919 3.883 8.828 4.579a21.478 21.478 0 0 0 10.133-.731 35.5 35.5 0 0 0 3.926-1.637z" fill="#916003"/><path data-name="Path 20194" d="M557.729 113.333a4.72 4.72 0 0 1-.4.566 11.385 11.385 0 0 1-1.315 1.332 17 17 0 0 1-11.4 4.213 10.583 10.583 0 0 1-1.863-.157c-.444-.078-.679-.131-.67-.165s.975.052 2.533 0a19.222 19.222 0 0 0 5.937-1.158 19 19 0 0 0 5.224-2.986c1.258-1.001 1.893-1.732 1.954-1.645z" fill="#916003"/><path data-name="Path 20195" d="M565.955 103.757a2.928 2.928 0 0 1-.174 1.671 5.79 5.79 0 0 1-6.451 4.013 3.106 3.106 0 0 1-1.575-.583c0-.07.617.183 1.61.261a5.911 5.911 0 0 0 6.094-3.8c.392-.888.427-1.562.496-1.562z" fill="#916003"/><text data-name="6x" transform="rotate(-10.02 1422.166 -2319.462)" fill="#f75553" font-size="20" font-family="SegoePrint, Segoe Print"><tspan x="0" y="25">6x</tspan></text><text data-name="4y" transform="rotate(-10.02 1443.263 -2560.164)" fill="#fe9f73" font-size="20" font-family="SegoePrint, Segoe Print"><tspan x="0" y="25">4y</tspan></text><text data-name="+" transform="rotate(-10.02 1440.356 -2473.884)" fill="#005180" font-size="20" font-family="SegoePrint-Bold, Segoe Print" font-weight="700"><tspan x="0" y="25">+</tspan></text><text data-name="2" transform="rotate(-10.02 1422.613 -2445.934)" fill="#f75553" font-size="9" font-family="SegoePrint-Bold, Segoe Print" font-weight="700"><tspan x="0" y="11">2</tspan></text><text data-name="2" transform="rotate(-10.02 1435.405 -2698.175)" fill="#fe9f73" font-size="9" font-family="SegoePrint-Bold, Segoe Print" font-weight="700"><tspan x="0" y="11">2</tspan></text></g><g data-name="Group 1734"><path data-name="Path 20831" d="M215.502 531.964c-39.072 0-70.746-5.328-70.746-11.9s31.674-11.9 70.746-11.9 70.746 5.329 70.746 11.9-31.675 11.9-70.746 11.9" fill="#f3f3f3"/><path data-name="Path 20832" d="M170.132 505.772c4.046 1.912 8.328 3.234 12.447 4.969a35.037 35.037 0 0 0 5.714 1.647c3.86.9 7.709 1.843 11.566 2.755a9.991 9.991 0 0 0 1.226.141 66.638 66.638 0 0 0 9.777-3.56.923.923 0 0 1 1.223.182c2.44 2.763 5.075 5.364 7.075 8.493a2.361 2.361 0 0 1 .465 1.139c1.908 2.308 1.951 2.332 4.682 1.438a18.055 18.055 0 0 1 3.254-.8c2.349-.637 4.8-.656 7.155-1.377 4.4-1.347 8.8-2.651 12.838-4.944a5.655 5.655 0 0 1 1.737-.659c5.2-.983 9.705-3.511 14.046-6.4 1.794-1.193 3.625-2.331 5.439-3.494 3.409-2.5 7.04-4.678 10.347-7.339 3.457-2.78 6.134-5.928 6.509-10.559a8.47 8.47 0 0 0-.469-4.156c-1.458-3.372-4.191-5.207-7.518-6.418a18.73 18.73 0 0 0-11.6-.29c.012.525-.446.565-.766.662a24.712 24.712 0 0 0-7.629 4.3 31.037 31.037 0 0 1-5.2 3.552 16.644 16.644 0 0 1-5.455 3.185c-2.446.87-4.537 2.473-7.03 3.144a70.288 70.288 0 0 1-14.2 2.455 15.9 15.9 0 0 1-4.447-.276c-2.433-.544-4.813.088-7.158.545-6.562 1.278-11.785-.961-15.917-5.956a11.26 11.26 0 0 0-6.788-3.82c-2.633-.528-4.412-2.167-6.075-4.06a57.922 57.922 0 0 1-4.931-4.326 11.02 11.02 0 0 0-5.333-2.966c-.37-.028-.741-.048-1.11-.087a23.754 23.754 0 0 0-6.7-.166 9.492 9.492 0 0 0-7.281 5.212c-1.977 3.834-2.847 7.815-1.734 12.028 1.807 6.841 5.2 12.554 11.847 15.8" fill="#24636c"/><path data-name="Path 20833" d="M195.783 428.27c1.8 2.989 4.618 3.59 7.772 3.221a8.647 8.647 0 0 0 5.747-3.6 18.831 18.831 0 0 0 2.278-10.39c-.049-.783.008-1.572.017-2.358a44.231 44.231 0 0 1 1.565-12.79 11.061 11.061 0 0 1 3.158-4.709c3.4-3.576 7.078-6.9 9.815-11.071.452-.689.982.167.982.167s4.9 8.209 5.651 13.057c.215 1.391.519 2.768.762 4.155a20.093 20.093 0 0 1-.61 8.987 16.769 16.769 0 0 0-.41 4.693 16.069 16.069 0 0 0 3.4 7.966c.238.33.611.572.662 1.023.9.852 1.772 1.732 2.7 2.549 2.872 2.523 8.366 2.1 11-1.781a11.23 11.23 0 0 0 1.844-8.063 11.9 11.9 0 0 1 .314-4.825 13.07 13.07 0 0 0 .18-6.045c-.484-3.137-2.177-5.733-3.766-8.355a28.114 28.114 0 0 1-3.979-10.673 28.761 28.761 0 0 0-3.874-11.223c-2.688-4.372-6.216-7.916-11.358-9.134a23.835 23.835 0 0 0-18.151 2.756 29.311 29.311 0 0 0-8.646 7.25c-2.746 3.585-5.266 7.313-5.13 12.142.062 2.2.032 4.408.3 6.6a20.071 20.071 0 0 1-1.74 11.294c-.945 1.985-1.8 4.016-2.691 6.025a16.652 16.652 0 0 0 2.2 13.126" fill="#e9ab4f"/><path data-name="Path 20834" d="M176.644 473.143a11.24 11.24 0 0 1 3.369 2.058c1.808 1.76 3.775 3.331 5.635 5.029l.248.251c3.058 1.113 4.272.212 6.976-3.232.993-1.265 1.807-2.672 2.676-4.032a3.622 3.622 0 0 1 3.888-1.609 26.044 26.044 0 0 0 5.566.024 28.5 28.5 0 0 1 8.765.695c2.041.5 4.052.58 5.638-1.193a.806.806 0 0 1 .777-.306c2.454.519 4.956.052 7.433.414 2.454.358 4.47 1.716 6.729 2.5 1.564.543 3.113 1.117 4.684 1.644a12.982 12.982 0 0 1 4.147 2.9 45.066 45.066 0 0 0 5.7 4.806c1.088.672 2.235 1.245 3.36 1.853l.081-.047a42.744 42.744 0 0 0 4.88-3.426 27.283 27.283 0 0 1 8.85-4.931 51.694 51.694 0 0 1-1.192-7.068 70.371 70.371 0 0 0-1.358-12.067c-.553-2.621-.858-5.31-1.969-7.792a14 14 0 0 0-13.4 2.628c-.975.792-.726 1.977-.359 3.008.819 2.3 1.431 4.654 2.02 7.014.342 1.375 1 2.628 1.358 3.99a1.289 1.289 0 0 1 .013.963c-.966-.433-1.939-.841-2.886-1.3-2.128-1.032-4.214-2.159-6.376-3.113a4.792 4.792 0 0 1-2.6-2.686c-.934-2.215-1.966-4.392-2.779-6.649a34.593 34.593 0 0 1-.943-3.445c-.463-1.888-1.666-2.59-3.5-1.906-.608 2.448-.86 4.956-1.22 7.443-.112.766-.252 1.145-1.09 1.036a60.1 60.1 0 0 1-7.845-1.085 6.516 6.516 0 0 0-3.551.069c-1.206.349-1.467.884-.948 2.239l-2.855-.992c-2.041-.337-2.042-.337-.9-1.975.255-.367.437-.8.886-.991a4.878 4.878 0 0 0 1.268-4.94c-.178-.745-.3-1.551-1.2-1.842-.554-.016-1.13 0-1.435.545-1.526 2.728-4.273 4.111-6.562 6-1.7 1.4-3.512 2.648-5.16 4.1a14.672 14.672 0 0 1-4.5 2.327c-1.8.721-3.635 1.367-5.613 2.224.215-2.227.346-4.309.633-6.37.285-2.042.743-4.059 1.094-6.1.314-1.825-.356-2.84-2.09-3.536a28.677 28.677 0 0 0-12.213-2.405c-.4.02-.846-.152-1.156.261-.084.4-.191.8-.248 1.211-.5 3.6-.865 7.221-1.344 10.82a109.628 109.628 0 0 0-.921 16.834 1.609 1.609 0 0 1 1.537.154" fill="#f3a966"/><path data-name="Path 20835" d="M185.371 480.28c.182.074.356.14.526.2q-.125-.124-.248-.251c-1.86-1.7-3.827-3.269-5.635-5.029a11.24 11.24 0 0 0-3.369-2.058 1.609 1.609 0 0 0-1.537-.154 11.016 11.016 0 0 1 5.333 2.966 58.027 58.027 0 0 0 4.931 4.325m66.942 4.623l-.081.047.212.114a31.039 31.039 0 0 0 5.2-3.552 24.711 24.711 0 0 1 7.629-4.3c.32-.1.778-.137.766-.662a27.283 27.283 0 0 0-8.85 4.931 42.74 42.74 0 0 1-4.88 3.426" fill="#f3a966"/><path data-name="Path 20836" d="M179.016 443.536a26.252 26.252 0 0 1 10.719 1.906c.351.133.7.273 1.049.4 2.311.845 3 1.983 2.5 4.4a80.659 80.659 0 0 0-1.5 11.477c2-.923 3.94-1.568 5.855-2.294a20.057 20.057 0 0 0 5.559-3.5c1.99-1.634 3.966-3.29 6.1-4.747a11.256 11.256 0 0 0 3.169-3.139 2.142 2.142 0 0 1 2.134-1.232l.046.01c.137-1.1.269-2.2.418-3.3a2.543 2.543 0 0 1 2.564-2.4c3.59.023 7.189-.325 10.759.477 2.537.57 3.48 1.675 3.646 4.78.027.522.023 1.048.031 1.571 1.515-.884 3.145-.157 3.753 1.686.6 1.811.938 3.7 1.675 5.471.717 1.728 1.538 3.407 2.26 5.131a3.935 3.935 0 0 0 2.024 2.1c2.95 1.414 5.816 3.01 8.861 4.26a1.152 1.152 0 0 0-.1-1.111c-1.118-2.7-1.629-5.573-2.508-8.339-.163-.513-.28-1.039-.481-1.543-.785-1.977-.359-3.188 1.348-4.392a14.987 14.987 0 0 1 11.035-2.374c.589.076 1.276.082 1.59.78a1.665 1.665 0 0 0 .926-2.076 10.854 10.854 0 0 0-.781-2.62c-1.338-2.81-2.725-5.6-4.022-8.424a23.452 23.452 0 0 0-7.369-9.1c-.941 2.282-2.851 3.17-5.114 3.533a7.553 7.553 0 0 1-7.248-2.581c-.466-.522-1-.979-1.456-1.515-2.534 4.747-6.7 7.494-11.677 9.039-3.236 1.006-6.266-.176-9.128-1.773a26.657 26.657 0 0 1-5.254-4.285 4 4 0 0 1-1-1.6 8.762 8.762 0 0 1-9.606 3.425 6.187 6.187 0 0 1-3.852-2.535 17.106 17.106 0 0 1-3-12.5 2.328 2.328 0 0 1 .634-1.453 21.589 21.589 0 0 1-2.221.767 12.173 12.173 0 0 0-8.05 6.328 81.507 81.507 0 0 0-7.283 19.106c-.58 2.163-.549 2.171 1.593 2.78.177-.87.9-.564 1.4-.589" fill="#fada52"/><path data-name="Path 20837" d="M195.948 429.102a6.19 6.19 0 0 0 3.852 2.534 8.762 8.762 0 0 0 9.606-3.425q-.056-.156-.1-.316a8.646 8.646 0 0 1-5.747 3.6c-3.153.37-5.969-.231-7.772-3.221a16.652 16.652 0 0 1-2.2-13.126 2.331 2.331 0 0 0-.634 1.453 17.106 17.106 0 0 0 3 12.5m43.327.074c-.931-.816-1.8-1.7-2.7-2.549l-.113.2c.452.536.99.993 1.456 1.515a7.553 7.553 0 0 0 7.248 2.581c2.263-.363 4.172-1.251 5.114-3.533-2.637 3.885-8.13 4.3-11 1.781m20.659 19.663a14.987 14.987 0 0 0-11.035 2.374c-1.707 1.2-2.133 2.415-1.348 4.392.2.5.318 1.03.481 1.543.879 2.766 1.39 5.644 2.508 8.339a1.15 1.15 0 0 1 .1 1.111c-3.045-1.25-5.911-2.846-8.861-4.261a3.931 3.931 0 0 1-2.024-2.1c-.722-1.724-1.543-3.4-2.26-5.131-.738-1.775-1.077-3.66-1.676-5.471-.607-1.844-2.237-2.57-3.752-1.686v.169c1.834-.684 3.038.018 3.5 1.906a34.593 34.593 0 0 0 .943 3.445c.813 2.257 1.844 4.435 2.779 6.648a4.791 4.791 0 0 0 2.6 2.686c2.162.954 4.247 2.081 6.376 3.113.947.46 1.921.867 2.886 1.3a1.287 1.287 0 0 0-.013-.962c-.354-1.363-1.015-2.616-1.358-3.991-.589-2.36-1.2-4.716-2.02-7.014-.367-1.031-.616-2.215.359-3.008a14 14 0 0 1 13.4-2.628c-.313-.7-1-.7-1.59-.78m-81.163-4.968a28.678 28.678 0 0 1 12.213 2.405c1.734.7 2.4 1.711 2.09 3.536-.351 2.036-.809 4.053-1.094 6.1-.288 2.061-.418 4.143-.633 6.37 1.978-.857 3.813-1.5 5.613-2.224a14.671 14.671 0 0 0 4.5-2.327c1.648-1.447 3.465-2.7 5.16-4.1 2.289-1.884 5.036-3.268 6.562-6 .305-.543.881-.561 1.435-.545l.031-.257-.046-.01a2.143 2.143 0 0 0-2.134 1.232 11.256 11.256 0 0 1-3.169 3.139c-2.132 1.456-4.108 3.113-6.1 4.747a20.072 20.072 0 0 1-5.559 3.5c-1.916.726-3.86 1.372-5.855 2.294a80.659 80.659 0 0 1 1.5-11.477c.5-2.421-.191-3.559-2.5-4.4-.352-.128-.7-.268-1.049-.4a26.252 26.252 0 0 0-10.719-1.906c-.5.025-1.222-.281-1.4.589.31-.413.759-.241 1.156-.261" fill="#fada52"/><path data-name="Path 20838" d="M199.689 524.023a18.141 18.141 0 0 0 1.569-4.677 2.886 2.886 0 0 0-.526-2.341c-.429-.589-.424-1.046-.034-1.432a7.4 7.4 0 0 1-1.916-.316c-4.649-1.223-9.425-1.987-13.995-3.466a125.446 125.446 0 0 1-13.451-5.177 2.561 2.561 0 0 1-1.2-.846c-1.48.74-2.928 1.551-4.444 2.2a8.539 8.539 0 0 0-5.092 6.453 5.09 5.09 0 0 0 .818 4.239c1.977 2.9 5.069 4.3 8.113 5.461a24.2 24.2 0 0 0 5.68 1.557c3.648.436 7.26 1.1 10.941 1.355 3.1.215 6.2.405 9.3.605 1.55.1 3.284.476 4.454-1.124a1.971 1.971 0 0 1-.215-2.5" fill="#222b51"/><path data-name="Path 20839" d="M171.335 506.619a125.445 125.445 0 0 0 13.451 5.177c4.569 1.478 9.345 2.243 13.995 3.466a7.4 7.4 0 0 0 1.916.316 2.05 2.05 0 0 1 .388-.293 10 10 0 0 1-1.226-.141c-3.857-.912-7.705-1.858-11.566-2.756a34.994 34.994 0 0 1-5.715-1.646c-4.118-1.735-8.4-3.057-12.446-4.969a2.561 2.561 0 0 0 1.2.846m96.708-.489c-3.782 2.32-7.318 5.039-11.368 6.925a26.386 26.386 0 0 1-6.083 2.161 12.436 12.436 0 0 0-3.613 1.308c-4.745 2.588-9.9 4.011-15.1 5.325-1.424.359-2.894.034-4.319.331a12.186 12.186 0 0 1 4.488.834 52.057 52.057 0 0 0 5 1.461 80.976 80.976 0 0 0 8.586 1.249c2.3.294 4.612.493 6.921.688.771.065 1.844.388 2.236-.283a1.757 1.757 0 0 1 1.865-.842 21.33 21.33 0 0 0 4.553-.54c4.53-.9 8.226-2.86 10.072-7.487 1.179-2.957 1.366-5.735-.165-8.61a16.2 16.2 0 0 0-2.344-3.341 1.8 1.8 0 0 1-.736.822" fill="#222b51"/><path data-name="Path 20840" d="M263.339 508.802c-4.341 2.888-8.843 5.416-14.046 6.4a5.617 5.617 0 0 0-1.738.659c-4.034 2.292-8.434 3.6-12.838 4.943-2.358.72-4.806.74-7.155 1.377 1.425-.3 2.9.028 4.319-.331 5.195-1.314 10.351-2.738 15.1-5.325a12.435 12.435 0 0 1 3.613-1.308 26.388 26.388 0 0 0 6.083-2.161c4.05-1.886 7.585-4.605 11.367-6.925a1.8 1.8 0 0 0 .736-.822c-1.814 1.163-3.644 2.3-5.439 3.494" fill="#222b51"/><path data-name="Path 20841" d="M212.348 512.625c-.547-.75-1.226-.684-1.986-.339a54.094 54.094 0 0 1-9.34 3.27 2.74 2.74 0 0 0 .266 1.84 3.442 3.442 0 0 1 .177 2.534 16.584 16.584 0 0 1-1.018 3.172 4.731 4.731 0 0 0-.543 3.42c2.712.7 5.364-.13 7.989-.5 3.876-.544 7.393-2.374 10.992-3.853a3.17 3.17 0 0 0 .742-.634 61.053 61.053 0 0 0-4.394-5.658c-.933-1.112-2.027-2.077-2.883-3.254" fill="#f3a966"/><path data-name="Path 20842" d="M219.161 520.398c-2-3.13-4.636-5.731-7.076-8.493a.923.923 0 0 0-1.223-.182 66.67 66.67 0 0 1-9.777 3.56 3.055 3.055 0 0 0-.062.273 54.094 54.094 0 0 0 9.34-3.27c.76-.346 1.439-.412 1.986.339.856 1.177 1.949 2.142 2.882 3.254a60.94 60.94 0 0 1 4.395 5.658 2.367 2.367 0 0 0-.464-1.139" fill="#f3a966"/><path data-name="Path 20843" d="M200.445 523.103a16.571 16.571 0 0 0 1.019-3.172 3.443 3.443 0 0 0-.177-2.534 2.74 2.74 0 0 1-.266-1.84l-.032.007c-.1.008-.2.013-.294.013-.389.386-.395.843.035 1.432a2.888 2.888 0 0 1 .525 2.341 18.114 18.114 0 0 1-1.569 4.674 1.971 1.971 0 0 0 .215 2.5 4.731 4.731 0 0 1 .543-3.42" fill="#f3a966"/><path data-name="Path 20844" d="M200.697 515.577c.1 0 .2 0 .294-.013l.032-.007c.017-.091.037-.182.063-.273a2.059 2.059 0 0 0-.388.293" fill="#f3a966"/><path data-name="Path 20845" d="M242.913 478.538a13.35 13.35 0 0 0-5.487-3.3 34.565 34.565 0 0 1-6.012-2.4 14.463 14.463 0 0 0-6.752-1.437 17.856 17.856 0 0 1-3.854-.144 1.524 1.524 0 0 0-1.393.368c-1.654 1.547-3.643 1.516-5.632 1.076a29.46 29.46 0 0 0-10.011-.593 13.739 13.739 0 0 1-3.73-.068c-2.5-.381-3.5.131-4.83 2.326a20.122 20.122 0 0 1-4.628 5.81c-1.568 1.217-2.825 1.426-4.366.621a12.056 12.056 0 0 0 6.038 3.394 10.648 10.648 0 0 1 6.519 4.076 18.962 18.962 0 0 0 4.949 4.151 10.205 10.205 0 0 0 5.432 1.56 48.921 48.921 0 0 0 9.167-.878 5.621 5.621 0 0 1 1.98 0c4.367.849 8.676.3 12.961-.6q1.524-.326 3.066-.558a19.393 19.393 0 0 0 7.01-2.475c2.006-1.168 4.34-1.658 6.311-2.952.808-.531 1.658-1.017 2.5-1.51a11.982 11.982 0 0 1-4.637-2.448c-1.613-1.241-3.085-2.653-4.593-4.017" fill="#fada52"/><path data-name="Path 20846" d="M252.143 485.007c-.837.494-1.687.979-2.5 1.51-1.971 1.294-4.306 1.783-6.311 2.952a19.418 19.418 0 0 1-7.01 2.475 50.917 50.917 0 0 0-3.066.558c-4.285.9-8.594 1.45-12.961.6a5.621 5.621 0 0 0-1.98 0 48.92 48.92 0 0 1-9.167.878 10.2 10.2 0 0 1-5.432-1.56 18.948 18.948 0 0 1-4.949-4.151 10.648 10.648 0 0 0-6.519-4.076 12.056 12.056 0 0 1-6.038-3.394 7.589 7.589 0 0 1-.846-.516c1.663 1.895 3.442 3.533 6.075 4.061a11.259 11.259 0 0 1 6.788 3.82c4.132 5 9.355 7.234 15.917 5.956 2.346-.457 4.725-1.089 7.158-.545a15.872 15.872 0 0 0 4.447.276 70.287 70.287 0 0 0 14.2-2.455c2.493-.67 4.584-2.274 7.03-3.144a16.652 16.652 0 0 0 5.455-3.185q-.151-.029-.3-.063" fill="#fada52"/><path data-name="Path 20847" d="M186.217 480.796c1.541.8 2.8.6 4.366-.622a20.122 20.122 0 0 0 4.628-5.81c1.325-2.195 2.327-2.707 4.83-2.326a13.713 13.713 0 0 0 3.73.068 29.46 29.46 0 0 1 10.011.593c1.989.44 3.978.471 5.632-1.076a1.522 1.522 0 0 1 1.393-.368 17.856 17.856 0 0 0 3.854.144 14.47 14.47 0 0 1 6.752 1.436 34.569 34.569 0 0 0 6.012 2.4 13.348 13.348 0 0 1 5.488 3.3c1.508 1.364 2.98 2.776 4.593 4.017a11.962 11.962 0 0 0 4.637 2.447l.09-.052c-1.125-.609-2.273-1.182-3.36-1.853a45.07 45.07 0 0 1-5.7-4.806 12.993 12.993 0 0 0-4.147-2.9c-1.57-.527-3.121-1.1-4.684-1.644-2.259-.785-4.275-2.143-6.729-2.5-2.477-.362-4.979.105-7.433-.414a.806.806 0 0 0-.777.306c-1.585 1.773-3.6 1.691-5.638 1.193a28.483 28.483 0 0 0-8.765-.694 26.09 26.09 0 0 1-5.566-.025 3.621 3.621 0 0 0-3.888 1.61c-.869 1.359-1.683 2.766-2.676 4.031-2.7 3.443-3.918 4.345-6.976 3.233q.158.159.32.313" fill="#fada52"/><path data-name="Path 20848" d="M185.898 480.482c-.17-.062-.344-.128-.526-.2a7.58 7.58 0 0 0 .846.516q-.162-.155-.32-.314m66.246 4.52c.1.022.2.043.3.062l-.212-.114-.09.053" fill="#fada52"/><path data-name="Path 20849" d="M219.828 424.997a5.419 5.419 0 0 0 3.85-.572 13.566 13.566 0 0 0 3.8-2.55c1.529-1.389 3.15-2.676 4.74-4 0-.092-.008-.184-.008-.277a20.051 20.051 0 0 1 .645-5.921 17.017 17.017 0 0 0 .363-7.409c-.806-4.364-1.313-8.8-3.3-12.864a27.141 27.141 0 0 0-2.753-4c-.313-.428-.683-.676-1.077-.107-2.818 4.053-6.432 7.389-9.864 10.88-2.523 2.569-3.277 5.787-3.775 9.15a41.378 41.378 0 0 0-.515 7.944v.675a24.578 24.578 0 0 0 3.135 5.616 9.851 9.851 0 0 0 4.763 3.429" fill="#ffbe9d"/><path data-name="Path 20850" d="M211.932 415.275a41.434 41.434 0 0 1 .515-7.944c.5-3.362 1.252-6.581 3.775-9.15 3.432-3.491 7.045-6.827 9.864-10.88.394-.569.764-.32 1.077.107a27.139 27.139 0 0 1 2.753 4c1.988 4.06 2.5 8.5 3.3 12.864a17.017 17.017 0 0 1-.363 7.409 20.053 20.053 0 0 0-.645 5.921c0 .093 0 .185.008.277.1-.08.194-.158.29-.24a16.822 16.822 0 0 1 .41-4.693 20.083 20.083 0 0 0 .611-8.987c-.243-1.386-.547-2.764-.762-4.155-.748-4.848-2.327-9.325-5.651-13.057-.318-.358-.529-.856-.982-.167-2.736 4.167-6.411 7.495-9.815 11.071a11.061 11.061 0 0 0-3.158 4.709 44.23 44.23 0 0 0-1.565 12.79q.165.4.335.805v-.675" fill="#f3a966"/><path data-name="Path 20851" d="M232.24 418.175a5.7 5.7 0 0 1-1.232 1.074c-1.832 1.426-3.431 3.129-5.343 4.453a11.5 11.5 0 0 1-2.195 1.165 5.867 5.867 0 0 1-6.189-.827 14.863 14.863 0 0 1-5.348-7.709c.024 2.72.152 5.447-.784 8.093a14.151 14.151 0 0 1-1.54 3.529l-.118.15c.769.839 1.5 1.714 2.288 2.539a18.6 18.6 0 0 0 6.475 4.314 10.578 10.578 0 0 0 9.8-.712c3.191-1.814 6.122-3.867 7.947-7.174a.907.907 0 0 1 .348-.365 20.834 20.834 0 0 1-3.507-6.079 10.192 10.192 0 0 1-.6-2.45" fill="#cc8e55"/><path data-name="Path 20852" d="M209.608 427.957a14.152 14.152 0 0 0 1.54-3.529c.936-2.646.808-5.373.784-8.093q-.186-.587-.336-1.185c-.008.785-.065 1.576-.017 2.358a18.831 18.831 0 0 1-2.278 10.39l.188.209.119-.15m23.235-7.327a20.822 20.822 0 0 0 3.507 6.078l.222-.079c-.05-.451-.424-.693-.662-1.023a16.069 16.069 0 0 1-3.4-7.966 1.8 1.8 0 0 1-.268.54 10.225 10.225 0 0 0 .6 2.45" fill="#cc8e55"/><path data-name="Path 20853" d="M236.351 426.706a.9.9 0 0 0-.348.366c-1.826 3.306-4.757 5.359-7.947 7.173a10.578 10.578 0 0 1-9.8.712 18.609 18.609 0 0 1-6.475-4.314c-.791-.825-1.52-1.7-2.288-2.539l-.085.107a4 4 0 0 0 1 1.6 26.655 26.655 0 0 0 5.25 4.286c2.862 1.6 5.892 2.78 9.128 1.774 4.972-1.546 9.143-4.292 11.677-9.04l-.087-.1-.021-.028" fill="#cc8e55"/><path data-name="Path 20854" d="M236.351 426.705l.022.028.087.1.113-.2-.222.079m-27.049 1.19c.031.107.067.212.1.316l.085-.107-.188-.209m7.978-3.854a5.867 5.867 0 0 0 6.189.827 11.464 11.464 0 0 0 2.195-1.165c1.912-1.324 3.512-3.027 5.343-4.453a5.719 5.719 0 0 0 1.233-1.073q-.014-.15-.022-.3c-1.59 1.322-3.211 2.609-4.74 4a13.565 13.565 0 0 1-3.8 2.55 5.419 5.419 0 0 1-3.85.572 9.853 9.853 0 0 1-4.762-3.429 24.577 24.577 0 0 1-3.135-5.616v.379a14.863 14.863 0 0 0 5.348 7.709" fill="#cc8e55"/><path data-name="Path 20855" d="M232.24 418.177a1.774 1.774 0 0 0 .269-.539c-.1.081-.194.16-.29.24 0 .1.012.2.021.3m-20.308-2.221c-.114-.268-.224-.536-.335-.805q.151.6.336 1.184v-.379" fill="#cc8e55"/><path data-name="Path 20856" d="M228.561 442.069a20.541 20.541 0 0 0-5.786-.607c-1.532.057-3.067-.011-4.6.018-1.684.034-2.407.748-2.8 2.409-.229.98.081 2.092-.57 2.97a1.475 1.475 0 0 1 1.015 1.054c.541 1.877 1.034 3.773-.527 5.457-.14.151-.255.324-.392.474-.122.119-.24.243-.354.367q0 1.176.011 2.351c.1.022.2.041.295.064a7.3 7.3 0 0 1 .952.3c.541.212.968.394 1.129-.482.13-.7.778-1.035 1.451-1.216a6.61 6.61 0 0 1 3.446-.079 64.6 64.6 0 0 0 7.376 1.057c.832.122 1.229-.244 1.316-1.069.164-1.567.556-3.1.717-4.67a5.42 5.42 0 0 1 .623-2.386l.126-.077c-.556-.838-.292-1.841-.466-2.754a3.4 3.4 0 0 0-2.963-3.177" fill="#999a99"/><path data-name="Path 20857" d="M231.867 448.079a5.42 5.42 0 0 0-.623 2.386c-.161 1.57-.553 3.1-.717 4.67-.086.825-.484 1.191-1.316 1.069a64.6 64.6 0 0 1-7.376-1.057 6.61 6.61 0 0 0-3.446.079c-.673.181-1.321.514-1.452 1.216-.16.877-.587.695-1.128.482a7.292 7.292 0 0 0-.952-.3l-.295-.063v.266l2.855.992c-.519-1.355-.258-1.891.948-2.239a6.516 6.516 0 0 1 3.551-.069 59.981 59.981 0 0 0 7.845 1.085c.839.109.978-.27 1.09-1.036.36-2.487.612-4.995 1.22-7.443l-.083-.119-.126.077m-16.957 5.77c.137-.15.252-.323.391-.474 1.56-1.684 1.068-3.58.526-5.457a1.473 1.473 0 0 0-1.015-1.054l-.187.222c.894.291 1.017 1.1 1.2 1.842a4.878 4.878 0 0 1-1.268 4.94v.349c.114-.125.231-.248.354-.367" fill="#999a99"/><path data-name="Path 20858" d="M215.377 443.89c.389-1.662 1.111-2.376 2.8-2.409 1.534-.029 3.069.039 4.6-.018a20.525 20.525 0 0 1 5.785.607 3.4 3.4 0 0 1 2.963 3.177c.174.914-.091 1.917.466 2.755l.081-.05c-.008-.524 0-1.049-.031-1.571-.167-3.105-1.109-4.21-3.646-4.78-3.57-.8-7.169-.454-10.759-.477a2.543 2.543 0 0 0-2.564 2.4c-.149 1.1-.28 2.2-.418 3.3l.156.036c.651-.877.341-1.989.57-2.97" fill="#999a99"/><path data-name="Path 20859" d="M232.07 447.953l-.081.049.083.12zm-17.418-1.127c-.009.086-.021.171-.031.257l.187-.222-.156-.035" fill="#999a99"/><path data-name="Path 20860" d="M214.314 454.484q-.237.283-.445.587c-.772 1.135-.792 1.156.538 1.459a2.828 2.828 0 0 1-.093-2.046" fill="#fada52"/><path data-name="Path 20861" d="M213.872 455.071c.14-.2.289-.4.445-.587a4.816 4.816 0 0 1 .234-.62c-.449.192-.631.624-.886.991-1.142 1.638-1.142 1.638.9 1.975a3.169 3.169 0 0 1-.155-.3c-1.33-.3-1.31-.323-.538-1.459" fill="#fada52"/><path data-name="Path 20862" d="M214.314 454.484a2.828 2.828 0 0 0 .093 2.046l.085.02.069.015-.011-2.351a6.73 6.73 0 0 0-.236.271" fill="#fada52"/><path data-name="Path 20863" d="M214.491 456.549l-.085-.02a3.152 3.152 0 0 0 .155.3v-.268l-.069-.015m.059-2.336v-.349a4.786 4.786 0 0 0-.234.62 6.73 6.73 0 0 1 .236-.271" fill="#fada52"/><path data-name="Path 20864" d="M285.165 483.253c-1.458-3.372-4.191-5.207-7.518-6.418a18.73 18.73 0 0 0-11.6-.29c.012.525-.446.565-.766.662a24.712 24.712 0 0 0-7.629 4.3 31.037 31.037 0 0 1-5.2 3.552 16.644 16.644 0 0 1-5.455 3.185l-.244.092c-.271.225-.537.454-.809.677a138.475 138.475 0 0 1-17.492 12.138c-3.226 1.9-6.523 3.67-9.785 5.5-1.656.931-3.3 1.886-4.9 2.911a8.38 8.38 0 0 0-1.15.825c-.28.253-.544.522-.81.791-.13.131-.261.263-.393.392a.838.838 0 0 1 .676.325c2.44 2.763 5.075 5.364 7.075 8.493a2.361 2.361 0 0 1 .465 1.139c1.908 2.308 1.951 2.332 4.682 1.438a18.055 18.055 0 0 1 3.254-.8c2.349-.637 4.8-.656 7.155-1.377 4.4-1.347 8.8-2.651 12.838-4.944a5.655 5.655 0 0 1 1.737-.659c5.2-.983 9.705-3.511 14.046-6.4 1.794-1.193 3.625-2.331 5.439-3.494 3.409-2.5 7.04-4.678 10.347-7.339 3.457-2.78 6.134-5.928 6.509-10.559a8.471 8.471 0 0 0-.469-4.156" fill="#358b8e"/><path data-name="Path 21008" d="M223.947 405.71c.024.93.03 1.839.067 2.729a7.534 7.534 0 0 0 .392 2.414 2.643 2.643 0 0 1 .5 1.423 2.16 2.16 0 0 1-.554 1.5 2.036 2.036 0 0 1-2.184.545 2.805 2.805 0 0 0 1.786-1.066 1.456 1.456 0 0 0 .262-.933c-.03-.341-.112-.411-.434-.982a4.4 4.4 0 0 1-.344-1.485 9.683 9.683 0 0 1 0-1.433 12.016 12.016 0 0 1 .509-2.712z" fill="#f99893"/><path data-name="Path 21015" d="M219.401 418.673a3.319 3.319 0 0 1 1.286-.749 4.374 4.374 0 0 1 1.622-.2 3.858 3.858 0 0 1 1.162.226 3.022 3.022 0 0 1 .945.544 1.241 1.241 0 0 1 .444.768 1.1 1.1 0 0 1-.236.816 2.413 2.413 0 0 1-1.086.51 2.993 2.993 0 0 1-1.29-.02 7.892 7.892 0 0 1-2.377-.967 2.019 2.019 0 0 1-.531-.382.355.355 0 0 1 0-.5" fill="#fb8a92"/><path data-name="Path 21009" d="M219.731 406.712c.082.966-.585 1.743-1.329 1.55a1.345 1.345 0 0 1-.874-1.232c-.078-.963.585-1.736 1.326-1.546a1.342 1.342 0 0 1 .877 1.228z" fill="#333"/><path data-name="Path 21010" d="M229.206 408.086c.079.963-.585 1.736-1.326 1.546a1.344 1.344 0 0 1-.877-1.228c-.081-.965.585-1.743 1.329-1.55a1.345 1.345 0 0 1 .874 1.232z" fill="#333"/><path data-name="Path 21011" d="M217.88 416.544a8.658 8.658 0 0 0 .915.89 7.733 7.733 0 0 0 .987.731 5.826 5.826 0 0 0 2.149.845 4.62 4.62 0 0 0 2.232-.21 7.526 7.526 0 0 0 2.076-1.208 5.994 5.994 0 0 1-2.011 1.481 4.2 4.2 0 0 1-2.332.306 5.229 5.229 0 0 1-2.218-.962 7.284 7.284 0 0 1-1.798-1.873z" fill="#f99893"/><path data-name="Path 21012" d="M221.128 403.739a9.288 9.288 0 0 0-1.62-.5 4.4 4.4 0 0 0-1.538-.044 4.326 4.326 0 0 0-1.48.5c-.369.147-1.263.821-1.5.951a4.445 4.445 0 0 1 1.162-1.718 3.167 3.167 0 0 1 1.716-.845 3 3 0 0 1 1.82.31 3.592 3.592 0 0 1 1.44 1.346z" fill="#07085b"/><path data-name="Path 21013" d="M226.008 404.441a3.14 3.14 0 0 1 1.612-.958 2.957 2.957 0 0 1 1.833.148 3.6 3.6 0 0 1 1.556 1.256 5.019 5.019 0 0 1 .879 1.974c-.212-.189-.986-1.071-1.324-1.305a4.839 4.839 0 0 0-1.376-.861 4.543 4.543 0 0 0-1.516-.34 8.877 8.877 0 0 0-1.664.086z" fill="#07085b"/><path data-name="Path 21014" d="M214.994 397.906s17.521-6.773 20.709 1-7.174-17.236-7.174-17.236z" fill="#e9ab4f"/></g></g></svg>