<svg xmlns="http://www.w3.org/2000/svg" width="616.979" height="807.726"><defs><linearGradient id="a" x1=".612" y1="1" x2=".58" y2="-.041" gradientUnits="objectBoundingBox"><stop offset="0" stop-color="#9dcfea"/><stop offset="1" stop-color="#fff" stop-opacity=".522"/></linearGradient><clipPath id="b"><path data-name="Path 5007" d="M406.92 277.613l9.528 38.6 38.2 11.049 28.671-27.553-9.534-38.6-38.194-11.049z" transform="translate(-406.92 -250.06)" fill="none"/></clipPath><clipPath id="c"><path data-name="Path 5011" d="M718.539 309.726l-66.66-36.4a1.576 1.576 0 0 1-.424-2.5l16.241-16.16a6.457 6.457 0 0 1 7.649-.983l67.643 36.946a1.569 1.569 0 0 1 .37 2.552l-17.385 15.783a6.457 6.457 0 0 1-7.434.762z" transform="translate(-651.01 -252.849)" fill="none"/></clipPath><clipPath id="d"><rect data-name="Rectangle 25" width="93.943" height="70.552" rx="2.94" transform="rotate(-74.83 59.264 45.335)" fill="#3b9ed4"/></clipPath><clipPath id="e"><path data-name="Path 5020" d="M191.476 123.152a39.68 39.68 0 0 0-53.341-4.134l-7.245-7.723-13.09 12.268 68.532 73.1 13.076-12.275-7.238-7.723a39.68 39.68 0 0 0-.694-53.513zm-13.13 12.309a21.7 21.7 0 0 1 1.414 27.964l-29.223-31.169a21.7 21.7 0 0 1 27.809 3.205z" transform="translate(-117.8 -110.623)" fill="none"/></clipPath><clipPath id="f"><circle data-name="Ellipse 3" cx="14.975" cy="14.975" r="14.975" transform="matrix(.242 -.97 .97 .242 0 29.063)" fill="none"/></clipPath><clipPath id="g"><path data-name="Path 5031" d="M869.454 55.893L761.633.458a4.04 4.04 0 0 0-5.865 3.784l5.892 121.092a4.04 4.04 0 0 0 6.208 3.192l101.922-65.65a4.04 4.04 0 0 0-.337-6.982zm-53.813 8.228L791.4 79.736a2.431 2.431 0 0 1-3.737-1.926l-1.4-28.8a2.431 2.431 0 0 1 3.535-2.276l25.634 13.2a2.424 2.424 0 0 1 .209 4.188z" transform="translate(-755.764 -.02)" fill="none"/></clipPath><linearGradient id="h" x1="199.982" y1="1" x2="199.982" gradientUnits="objectBoundingBox"><stop offset=".86" stop-color="#ffda7d"/><stop offset="1" stop-color="#feac22"/></linearGradient></defs><g data-name="Group 2109" transform="translate(-707.637)"><path data-name="Path 5003" d="M447.382 326.975c-7.164-30.65-36.946-52.318-67.616-60.829-15.339-4.255-32.051-6.383-44.44-16.389-13.507-10.908-19-29.223-19.277-46.581-.316-19.574 3.656-42.831-11.231-55.537-11.171-9.534-27.647-7.932-42.05-10.773-49.732-9.938-87.1-67.966-74.545-116.446h469.831v140.9c0 7.319.673 14.47-1.892 21.23-5.488 14.4-15.776 26.6-20.429 41.794-8.753 28.482-5.01 59.314-10.908 88.516-9.312 46.069-44.218 86.092-88.6 101.586-10.773 3.771-37.171 4.1-47.352 9.339-11.079 5.777-19.66 15.6-25.782 26.488 6.733-7.238.315-16.5-5.651-24.381s3.58-15.345-1.786-23.654c-13.17-20.4-3.508-47.49-7.521-71.441q-.28-1.916-.751-3.822z" transform="translate(639.174 -6.684)" fill="url(#a)"/><path data-name="Path 5001" d="M994.531 68.518L788 112.13l139.6 77.285z" fill="none" stroke="#6189cf" stroke-miterlimit="10"/><path data-name="Rectangle 13" fill="none" stroke="#6189cf" stroke-miterlimit="10" d="M915.632 182.798l6.619-11.966 11.965 6.62-6.618 11.965z"/><path data-name="Path 5002" d="M816.731 105.208a44.508 44.508 0 0 1-3.589 21.365" fill="none" stroke="#6189cf" stroke-miterlimit="10"/><path data-name="Path 5004" d="M1285.189 230.341l-117.22 101.518h117.22z" fill="none" stroke="#f38697" stroke-miterlimit="10"/><path data-name="Rectangle 14" fill="none" stroke="#f38697" stroke-miterlimit="10" d="M1275.143 321.806h10.046v10.046h-10.046z"/><path data-name="Path 5005" d="M1183.987 317.18a32.634 32.634 0 0 1 5.306 15.029" fill="none" stroke="#f38697" stroke-miterlimit="10"/><g data-name="Group 2" transform="translate(973.853 168.36)" clip-path="url(#b)"><path data-name="Path 5006" d="M0 27.553l9.528 38.6 38.2 11.049 28.671-27.553-9.534-38.6L28.671 0z" fill="#f07080"/></g><path data-name="Path 5008" d="M990.114 204.222c.357-2.565.673-5.07 1.071-7.568.465-2.9 2.41-4.626 4.989-5.548 3.508-1.252 7.057-2.411 10.659-3.367 6.484-1.7 13.022-3.212 19.527-4.8l.848-.209 1.508 6.1-9.427 2.336c.31 1.609.673 3.158.9 4.713.566 3.515 1.057 7.043 1.636 10.558a25.284 25.284 0 0 0 2.087 7.36c1.347 2.693 3.791 3.535 6.4 2.182a4.333 4.333 0 0 0 2.33-4.289c0-.444-.067-.882-.108-1.407l1.515-.377c.1.815.249 1.6.283 2.39a12.994 12.994 0 0 1-1.811 7.918c-1.912 2.942-4.787 3.912-8.08 3.528a6.952 6.952 0 0 1-6.06-5.3 93.623 93.623 0 0 1-2.06-9.945c-.848-5.016-1.549-10.06-2.316-15.089-.04-.3-.141-.593-.229-.956l-8.753 2.168c.162 1.057.323 2.141.485 3.225.909 5.993 1.858 11.985 2.693 17.992a27.29 27.29 0 0 1 .108 9.3 5.019 5.019 0 0 1-5.131 4.33 4.444 4.444 0 0 1-4.094-5.878c.714-2.1 1.629-4.141 2.309-6.255a32.81 32.81 0 0 0 1.125-14.14c-.276-2.316-.754-4.606-1.118-6.915-.094-.586-.323-.842-.936-.64a42.323 42.323 0 0 0-4.491 1.5 6.444 6.444 0 0 0-3.4 4.04 34.316 34.316 0 0 0-.518 1.677c-.392 1.305-.399 1.319-1.941 1.366z" fill="#ffd864"/><g data-name="Group 3" transform="translate(1138.207 170.238)" clip-path="url(#c)"><path data-name="Path 5009" d="M67.529 56.877l-66.66-36.4a1.576 1.576 0 0 1-.424-2.5l16.241-16.16a6.457 6.457 0 0 1 7.649-.983L91.978 37.78a1.569 1.569 0 0 1 .37 2.552L74.963 56.115a6.457 6.457 0 0 1-7.434.762z" fill="#ffd864"/><path data-name="Path 5010" d="M67.529 56.877l-30.3-16.544 13.662-25.021 41.073 22.442a1.569 1.569 0 0 1 .37 2.552L74.949 56.089a6.457 6.457 0 0 1-7.42.788z" fill="#ff80be"/></g><rect data-name="Rectangle 15" width="39.895" height="9.615" rx="1.27" transform="rotate(-43.42 716.724 -907.81)" fill="#ffacb8"/><path data-name="Path 5012" d="M830.655 218.652a5.461 5.461 0 1 1-3.82-1.712 5.467 5.467 0 0 1 3.82 1.712z" fill="#ffacb8"/><path data-name="Path 5013" d="M852.303 241.533a5.461 5.461 0 1 1-3.82-1.712 5.467 5.467 0 0 1 3.82 1.712z" fill="#ffacb8"/><rect data-name="Rectangle 16" width="42.016" height="10.167" rx="1.05" transform="translate(1223.687 297.97)" fill="#8c55b4"/><rect data-name="Rectangle 17" width="42.016" height="10.167" rx="1.05" transform="translate(1223.687 315.591)" fill="#8c55b4"/><rect data-name="Rectangle 18" width="31.155" height="9.723" rx=".71" transform="translate(1059.434 143.683)" fill="#3b62b2"/><rect data-name="Rectangle 19" width="9.723" height="31.155" rx=".71" transform="translate(1070.153 132.963)" fill="#3b62b2"/><g data-name="Group 557" transform="translate(-12 -29)" fill="#ffd864"><rect data-name="Rectangle 20" width="12.026" height="38.542" rx=".87" transform="rotate(-20.96 1501.328 -2748.12)"/><rect data-name="Rectangle 21" width="38.542" height="12.026" rx=".87" transform="rotate(-20.96 1543.792 -2718.913)"/></g><path data-name="Path 5014" d="M842.695 318.648l-4.552-11.884a1.151 1.151 0 0 0-1.495-.673l-14.409 5.515-5.521-14.409a1.165 1.165 0 0 0-1.495-.673l-11.884 4.558a1.151 1.151 0 0 0-.673 1.495l5.521 14.409-14.4 5.528a1.158 1.158 0 0 0-.673 1.495l4.552 11.891a1.158 1.158 0 0 0 1.495.673l14.409-5.521 5.521 14.409a1.151 1.151 0 0 0 1.495.673l11.925-4.565a1.158 1.158 0 0 0 .673-1.495l-5.527-14.41 14.409-5.521a1.151 1.151 0 0 0 .629-1.495z" fill="none" stroke="#6189cf" stroke-miterlimit="10"/><rect data-name="Rectangle 22" width="40.077" height="9.272" rx=".85" transform="translate(1198.868 154.005)" fill="#ab5e98"/><path data-name="Path 5015" d="M1071.372 75.447l-8.141-3.05a1.192 1.192 0 0 1-.781-1.037l-1.852-30.111a1.212 1.212 0 0 0-.781-1.05l-5.717-2.141a1.212 1.212 0 0 1-.707-1.549l2.168-5.777a1.192 1.192 0 0 1 1.542-.673l10.928 4.094a1.185 1.185 0 0 1 .774 1.05l1.434 23.284a1.205 1.205 0 0 0 2.229.552l24.6-40.6a1.2 1.2 0 0 1 1.448-.5l60.034 22.442a1.192 1.192 0 0 1 .673 1.542l-5.05 13.467a1.2 1.2 0 0 1-1.549.673l-5.778-2.151a1.205 1.205 0 0 1-.673-1.549l2.02-5.461a1.205 1.205 0 0 0-.673-1.549l-45.356-16.932a1.2 1.2 0 0 0-1.448.5l-27.9 46.029a1.2 1.2 0 0 1-1.448.5z" fill="#ffdfcc"/><path data-name="Path 5016" d="M1046.267 113.019a1.286 1.286 0 0 0-.673.04 4.287 4.287 0 0 0-.673.242 5.385 5.385 0 0 1-.72.256 1.01 1.01 0 0 1-1.118-.283l-4.716-18.233a.626.626 0 0 0-1.124.2 27.366 27.366 0 0 0-1.677 3.367 26.313 26.313 0 0 1-1.67 3.367 3.367 3.367 0 0 1-2.4-1 57.24 57.24 0 0 1 5.225-12.012 1.434 1.434 0 0 0 .754 0 3.8 3.8 0 0 0 .673-.263 3.209 3.209 0 0 1 .673-.263c.747-.2 1.239 0 1.481.572a20.982 20.982 0 0 1 .673 2.3q.485 1.879 1.259 5.71t1.266 5.717a36.012 36.012 0 0 0 1.1 3.535 17.021 17.021 0 0 0 .673 1.778 1.9 1.9 0 0 0 .094.357 2.017 2.017 0 0 0 .061.411c.067.269.209.673.417 1.252s.35 1 .431 1.3a3.293 3.293 0 0 1-.009 1.65z" fill="#f07080"/><path data-name="Path 5017" d="M1146.758 128.714a15.8 15.8 0 0 0 .121 1.946l.148.263a5.664 5.664 0 0 1-2.222 1.111 16.466 16.466 0 0 1-1.784.3 17.459 17.459 0 0 0-1.852.33 20.744 20.744 0 0 0-2.087.727 18.564 18.564 0 0 1-2.094.734c-1.347.343-3.367.9-6.06 1.643s-4.76 1.306-6.141 1.663q-8.188 2.121-14.813 3.528-1.279-11.447 4.491-18.254a32.22 32.22 0 0 1 6.632-5.6l6.013-3.831a20.5 20.5 0 0 0 5.111-4.969 4.929 4.929 0 0 0 .922-4.114 13.66 13.66 0 0 0-.821-2.3q-3.663-2.693-9.38-1.219a61.9 61.9 0 0 0-9.521 4.134 20.8 20.8 0 0 0-3.367 2.5 13.008 13.008 0 0 1-3.676 2.431 53.511 53.511 0 0 1-3.623-4 31.891 31.891 0 0 1 16.281-9.608 29.837 29.837 0 0 1 11.036-1.1 15.716 15.716 0 0 1 4.9 1.623 7.981 7.981 0 0 1 3.8 3.5l.088.357q1.475 5.7-4.161 12.4-1.8 2.141-7.279 5.077-4.942 2.639-6.875 5.723c-.283.478-.774 1.219-1.481 2.209a22.224 22.224 0 0 0-2.081 3.427 6.059 6.059 0 0 0-.673 3.892l1.468.673 27.607-7.144a1.67 1.67 0 0 1 1.239 1.273 2.118 2.118 0 0 1 .134.675z" fill="#f07080"/><path data-name="Path 5018" d="M1186.829 98.405c-.236.148-.586.343-1.05.593a4.41 4.41 0 0 1-1.044.236 32.6 32.6 0 0 1-7.885-.458c-.209 0-.552-.074-1.037-.121s-.862-.094-1.118-.141a11.578 11.578 0 0 0-1.387-.579c-2.235-.889-3.441-1.347-3.609-1.448a11.115 11.115 0 0 1-3.225-2.114 23.1 23.1 0 0 1 1.919-2.3q6.2 3.824 10.06 4.437a11.972 11.972 0 0 0 3.791.04 10.629 10.629 0 0 1 1.192-.209l.9-.1q2.417-.579 2.693-2.289a4.491 4.491 0 0 0-.108-1.858 2.5 2.5 0 0 0-.99-1.555 3.577 3.577 0 0 0-.788-.323 42.57 42.57 0 0 0-6.956-2.067.936.936 0 0 1-.094-.673 4.293 4.293 0 0 1 .155-.579 5.223 5.223 0 0 0 .148-.572 1.055 1.055 0 0 0 0-.323 23.608 23.608 0 0 0 7.077.047c.343-.343.673-.673 1.084-1.03a2.532 2.532 0 0 0 .72-1.286 2.074 2.074 0 0 0-.552-1.562q-1.818-2.377-6.5-3.118a11.952 11.952 0 0 0-7.131 1.071q-1.131-.384-1.427-2.828c.525-.1 1.306-.269 2.363-.505a8.554 8.554 0 0 1 .808-.31 12.8 12.8 0 0 1 6.228-.209 13.972 13.972 0 0 1 7.986 3.865 5.876 5.876 0 0 1 .909 1.1 5.313 5.313 0 0 1 .269 3.084 4.41 4.41 0 0 1-1.582 2.909 5.79 5.79 0 0 1-.855.579c-.29.168-.451.316-.471.451v.04a.338.338 0 0 1 0 .081 7.315 7.315 0 0 1 2.162 1.784 4.04 4.04 0 0 1 1.118 3.535q-.38 2.526-3.773 4.705z" fill="#f07080"/><rect data-name="Rectangle 23" width="93.943" height="70.552" rx="2.94" transform="rotate(-74.83 759.596 -558.228)" fill="#3b9ed4"/><g data-name="Group 4" transform="translate(1099.597 230.308)" clip-path="url(#d)"><rect data-name="Rectangle 24" width="93.943" height="70.552" rx="2.94" transform="rotate(-74.83 59.264 45.335)" fill="#3b9ed4"/></g><rect data-name="Rectangle 26" width="13.002" height="56.075" rx="1.51" transform="rotate(-74.83 728.277 -608.966)" fill="#0e0e4f"/><rect data-name="Rectangle 27" width="31.788" height="11.521" rx=".91" transform="rotate(-74.83 788.627 -590.264)" fill="#ffd864"/><rect data-name="Rectangle 28" width="6.464" height="11.878" rx=".49" transform="rotate(-74.84 735.562 -599.177)" fill="#ffacb8"/><rect data-name="Rectangle 29" width="6.491" height="11.928" rx=".492" transform="rotate(-74.995 743.36 -606.113)" fill="#ffacb8"/><rect data-name="Rectangle 30" width="6.464" height="11.878" rx=".49" transform="rotate(-74.84 754.82 -613.905)" fill="#ffacb8"/><rect data-name="Rectangle 31" width="6.464" height="11.878" rx=".49" transform="rotate(-74.84 764.446 -621.27)" fill="#ffacb8"/><rect data-name="Rectangle 32" width="6.888" height="11.878" rx=".51" transform="rotate(-74.83 741.693 -591.428)" fill="#ffebdd"/><rect data-name="Rectangle 33" width="6.888" height="11.878" rx=".51" transform="rotate(-74.83 751.326 -598.799)" fill="#ffebdd"/><rect data-name="Rectangle 34" width="6.888" height="11.878" rx=".51" transform="rotate(-74.84 760.847 -606.026)" fill="#ffebdd"/><rect data-name="Rectangle 35" width="6.888" height="11.878" rx=".51" transform="rotate(-74.83 770.586 -613.536)" fill="#ffebdd"/><rect data-name="Rectangle 36" width="6.888" height="11.878" rx=".51" transform="rotate(-74.83 747.645 -583.657)" fill="#ffebdd"/><rect data-name="Rectangle 37" width="6.917" height="11.928" rx=".512" transform="rotate(-74.995 755.35 -590.548)" fill="#ffebdd"/><rect data-name="Rectangle 38" width="6.888" height="11.878" rx=".51" transform="rotate(-74.84 766.793 -598.253)" fill="#ffebdd"/><rect data-name="Rectangle 39" width="6.888" height="11.878" rx=".51" transform="rotate(-74.83 753.905 -575.471)" fill="#ffebdd"/><rect data-name="Rectangle 40" width="6.888" height="11.878" rx=".51" transform="rotate(-74.83 763.532 -582.839)" fill="#ffebdd"/><rect data-name="Rectangle 41" width="6.888" height="11.878" rx=".51" transform="rotate(-74.83 773.16 -590.205)" fill="#ffebdd"/><rect data-name="Rectangle 42" width="6.888" height="26.529" rx=".76" transform="rotate(-74.83 759.693 -567.9)" fill="#ffd864"/><rect data-name="Rectangle 43" width="6.888" height="11.878" rx=".51" transform="rotate(-74.83 778.956 -582.635)" fill="#ffebdd"/><rect data-name="Rectangle 44" width="13.057" height="55.441" rx="1.386" transform="rotate(-74.995 728.172 -606.86)" fill="#2b2377"/><path data-name="Line 9" fill="none" stroke="#a2c0f0" stroke-miterlimit="10" d="M1012.853 316.325l-.189 11.743"/><path data-name="Line 10" fill="none" stroke="#a2c0f0" stroke-miterlimit="10" d="M1006.887 322.102l11.743.189"/><path data-name="Line 11" fill="none" stroke="#a2c0f0" stroke-miterlimit="10" d="M1008.671 317.982l8.174 8.43"/><path data-name="Line 12" fill="none" stroke="#a2c0f0" stroke-miterlimit="10" d="M1008.543 326.284l8.43-8.174"/><path data-name="Line 13" fill="none" stroke="#a2c0f0" stroke-miterlimit="10" d="M800.821 46.312l-.189 11.736"/><path data-name="Line 14" fill="none" stroke="#a2c0f0" stroke-miterlimit="10" d="M794.854 52.089l11.743.182"/><path data-name="Line 15" fill="none" stroke="#a2c0f0" stroke-miterlimit="10" d="M796.639 47.962l8.174 8.437"/><path data-name="Line 16" fill="none" stroke="#a2c0f0" stroke-miterlimit="10" d="M796.511 56.264l8.43-8.168"/><g data-name="Group 5" transform="translate(779.179 74.473)" clip-path="url(#e)"><path data-name="Path 5019" d="M73.676 12.529a39.68 39.68 0 0 0-53.341-4.134L13.09.672 0 12.94l68.532 73.1 13.076-12.275-7.238-7.723a39.68 39.68 0 0 0-.694-53.513zm-13.13 12.309a21.7 21.7 0 0 1 1.414 27.964L32.737 21.633a21.7 21.7 0 0 1 27.809 3.205z" fill="#3b9ed4"/></g><path data-name="Line 17" fill="none" stroke="#1a1017" stroke-miterlimit="10" stroke-width=".5" d="M811.822 95.93l-12.214-13.049"/><path data-name="Line 18" fill="none" stroke="#1a1017" stroke-miterlimit="10" stroke-width=".5" d="M853.549 140.659l-12.585-13.608"/><path data-name="Path 5021" d="M917.044 169.263l-.734.2-1.064-4.006 1.38-.364z" fill="#ffdfcb"/><path data-name="Path 5022" d="M955.451 159.089l.734-.2-1.064-4.006-1.374.37z" fill="#ffdfcb"/><path data-name="Path 5023" d="M906.163 40.892l-4.821 1.279-3.2-12.059a2.5 2.5 0 0 1 1.771-3.05 2.5 2.5 0 0 1 3.057 1.771z" fill="#ffda65"/><path data-name="Path 5024" d="M917.993 165.115l-3.219.848-13.358-104.016 11.26-2.983z" fill="#00486e"/><path data-name="Path 5025" d="M952.57 155.951l3.212-.848-39.896-96.994-11.251 2.98z" fill="#00486e"/><g data-name="Group 6" transform="translate(888.586 34.644)" clip-path="url(#f)"><circle data-name="Ellipse 2" cx="14.975" cy="14.975" r="14.975" transform="matrix(.242 -.97 .97 .242 0 29.063)" fill="#ffda65"/></g><path data-name="Path 5026" d="M907.806 56.836a4.188 4.188 0 1 1 2.976-5.117 4.188 4.188 0 0 1-2.976 5.117z" fill="#ff80be"/><path data-name="Path 5027" d="M937.998 104.448l-32.852 8.706a1.885 1.885 0 0 1-2.3-1.347l36.481-9.669a1.872 1.872 0 0 1-1.333 2.31z" fill="#ffdfcb"/><path data-name="Path 5028" d="M923.649 116.642a.9.9 0 0 1-1.1-.673l-4.424-16.685a.9.9 0 0 1 .64-1.1.909.909 0 0 1 1.1.64l4.417 16.692a.9.9 0 0 1-.64 1.131z" fill="#f07080"/><path data-name="Path 5029" d="M900.063 39.384a15.177 15.177 0 0 1 5.279-1.5" fill="none" stroke="#4d3837" stroke-miterlimit="10" stroke-width=".5"/><g data-name="Group 7" transform="translate(1208.741)" clip-path="url(#g)"><path data-name="Path 5030" d="M113.69 55.873L5.869.438A4.04 4.04 0 0 0 .004 4.222l5.892 121.092a4.04 4.04 0 0 0 6.208 3.192l101.922-65.65a4.04 4.04 0 0 0-.337-6.982zm-53.813 8.228L35.636 79.716a2.431 2.431 0 0 1-3.737-1.926l-1.4-28.8a2.431 2.431 0 0 1 3.535-2.276l25.634 13.2a2.424 2.424 0 0 1 .209 4.188z" fill="#ffda65"/></g><path data-name="Line 19" fill="none" stroke="#4d3837" stroke-miterlimit="10" stroke-width=".5" d="M1214.583 112.864l4.673-.263"/><path data-name="Line 20" fill="none" stroke="#4d3837" stroke-miterlimit="10" stroke-width=".5" d="M1214.213 106.353l4.673-.269"/><path data-name="Line 21" fill="none" stroke="#4d3837" stroke-miterlimit="10" stroke-width=".5" d="M1213.849 99.835l4.673-.263"/><path data-name="Line 22" fill="none" stroke="#4d3837" stroke-miterlimit="10" stroke-width=".5" d="M1213.479 93.324l4.673-.263"/><path data-name="Line 23" fill="none" stroke="#4d3837" stroke-miterlimit="10" stroke-width=".5" d="M1213.115 86.807l4.673-.263"/><path data-name="Line 24" fill="none" stroke="#4d3837" stroke-miterlimit="10" stroke-width=".5" d="M1212.745 80.295l4.673-.263"/><path data-name="Line 25" fill="none" stroke="#4d3837" stroke-miterlimit="10" stroke-width=".5" d="M1212.375 73.784l4.673-.263"/><path data-name="Line 26" fill="none" stroke="#4d3837" stroke-miterlimit="10" stroke-width=".5" d="M1212.011 67.266l4.673-.263"/><path data-name="Line 27" fill="none" stroke="#4d3837" stroke-miterlimit="10" stroke-width=".5" d="M1211.641 60.755l4.673-.263"/><path data-name="Line 28" fill="none" stroke="#4d3837" stroke-miterlimit="10" stroke-width=".5" d="M1211.271 54.243l4.673-.269"/><path data-name="Line 29" fill="none" stroke="#4d3837" stroke-miterlimit="10" stroke-width=".5" d="M1210.907 47.726l4.673-.263"/><path data-name="Line 30" fill="none" stroke="#4d3837" stroke-miterlimit="10" stroke-width=".5" d="M1210.536 41.215l4.673-.263"/><path data-name="Line 31" fill="none" stroke="#4d3837" stroke-miterlimit="10" stroke-width=".5" d="M1210.166 34.703l4.673-.269"/><path data-name="Line 32" fill="none" stroke="#4d3837" stroke-miterlimit="10" stroke-width=".5" d="M1209.803 28.186l4.673-.263"/><path data-name="Line 33" fill="none" stroke="#4d3837" stroke-miterlimit="10" stroke-width=".5" d="M1209.432 21.675l4.673-.263"/><path data-name="Path 5032" d="M804.503 214.982l-5.676-8.4 5.676-8.76 5.676 8.76z" fill="#89aae4"/><path data-name="Path 5033" d="M813.27 200.721l-3.138-5.36 3.138-4.841 3.131 4.841z" fill="#89aae4"/><path data-name="Path 5034" d="M1006.995 97.95l-9.844-14.585 9.844-15.19 9.844 15.19z" fill="#ffd4dc"/><path data-name="Path 5035" d="M1076.913 225.486l-3.326-4.923 3.326-5.131 3.319 5.131z" fill="#ffd4dc"/><path data-name="Path 5036" d="M1090.427 217.264l-7.09-10.511 7.09-10.948 7.1 10.948z" fill="#ffd4dc"/><path data-name="Path 5037" d="M997.81 63.334l-4.437-6.57 4.437-6.848 4.437 6.848z" fill="#ffd4dc"/><path data-name="Path 5038" d="M1015.755 71.077l-3.131-5.36 3.131-4.835 3.138 4.835z" fill="#ffd4dc"/><path data-name="Path 5039" d="M1264.76 155.089l-6.41-9.5 6.41-9.891 6.41 9.891z" fill="#ffd4dc"/><path data-name="Path 5040" d="M1272.079 129.556l-4.356-6.457 4.356-6.727 4.356 6.727z" fill="#ffd4dc"/><path data-name="Path 5041" d="M1278.584 190.021l-3.138-5.36 3.138-4.841 3.131 4.841z" fill="#ffd4dc"/><path data-name="Path 5072" d="M931.75 641.673h3.555c1.172 0 2.134-1.347 2.134-2.936v-31.255c0-1.609-.963-2.936-2.134-2.936h-3.555v-5.858h226.11c3.535 0 6.4 3.946 6.4 8.794v31.256c0 4.855-2.868 8.794-6.4 8.794H931.75z" fill="#136fb7"/><path data-name="Path 5073" d="M931.75 641.673h3.555c1.172 0 2.134-1.347 2.134-2.936v-31.255c0-1.609-.963-2.936-2.134-2.936h-3.555v-5.858h117.31v48.84H931.75z" fill="#1386b7"/><path data-name="Path 5074" d="M937.435 638.737v-31.252c0-1.609-.963-2.936-2.134-2.936h222.554c1.172 0 2.134 1.347 2.134 2.936v31.256c0 1.616-.963 2.936-2.134 2.936h-222.55c1.172-.004 2.13-1.351 2.13-2.94z" fill="#bcd0e2"/><path data-name="Path 5075" d="M937.435 638.737v-31.252c0-1.609-.963-2.936-2.134-2.936h118.059c1.178 0 2.134 1.347 2.134 2.936v31.256c0 1.616-.956 2.936-2.134 2.936H935.305c1.172-.004 2.13-1.351 2.13-2.94z" fill="#d8e8ed"/><path data-name="Path 5076" d="M945.58 595.28h3.138a1.818 1.818 0 0 0 1.872-1.751v-18.658a1.825 1.825 0 0 0-1.872-1.751h-3.138v-3.494h199.212a5.458 5.458 0 0 1 5.636 5.245v18.655a5.459 5.459 0 0 1-5.636 5.252H945.58z" fill="#e2b348"/><path data-name="Path 5078" d="M950.59 593.531v-18.66a1.825 1.825 0 0 0-1.872-1.751h196.075a1.831 1.831 0 0 1 1.879 1.751v18.66a1.824 1.824 0 0 1-1.879 1.751H948.718a1.818 1.818 0 0 0 1.872-1.751z" fill="#bcd0e2"/><path data-name="Path 5079" d="M950.59 593.532v-18.66a1.825 1.825 0 0 0-1.872-1.751h103.969a1.818 1.818 0 0 1 1.879 1.751v18.66a1.818 1.818 0 0 1-1.879 1.751H948.718a1.818 1.818 0 0 0 1.872-1.751z" fill="#d8e8ed"/><path data-name="Path 5080" d="M1155.033 544.821c-1.151 6.134-1.778-10.423-1.778-3.656a104.16 104.16 0 0 0 2.222 21.729H979.509v-18.073z" fill="#bcd0e2"/><path data-name="Path 5081" d="M1155.034 544.821a92.445 92.445 0 0 0-.707 4.3H995.575v-4.3z" fill="#2e95d1" opacity=".2"/><path data-name="Path 5082" d="M972.48 538.37h184.433a1.932 1.932 0 0 1 2.02 1.845v4.605h-84.7v18.071h84.685v4.606a1.932 1.932 0 0 1-2.02 1.845H972.48a1.939 1.939 0 0 1-2.02-1.845v-27.282a1.939 1.939 0 0 1 2.02-1.845z" fill="#06597d"/><path data-name="Path 5083" d="M926.956 538.37h142.565a1.939 1.939 0 0 0-2.02 1.845v27.283a1.939 1.939 0 0 0 2.02 1.845H926.956a1.939 1.939 0 0 1-2.02-1.845v-27.283a1.939 1.939 0 0 1 2.02-1.845z" fill="#00486e"/><path data-name="Path 5084" d="M926.955 538.37h142.565a1.939 1.939 0 0 0-2.02 1.845v6.141H924.942v-6.141a1.939 1.939 0 0 1 2.013-1.845z" fill="#003855"/><path data-name="Path 5085" d="M981.818 620.288h-4.2a2.771 2.771 0 0 1-2.5-2.942v-31.344a2.758 2.758 0 0 1 2.5-2.942h4.2v-5.872h-266.64c-4.161 0-7.541 3.953-7.541 8.814v31.344c0 4.868 3.367 8.821 7.541 8.821h266.64z" fill="#136fb7"/><path data-name="Path 5086" d="M981.818 620.288h-4.2a2.771 2.771 0 0 1-2.5-2.942v-31.344a2.758 2.758 0 0 1 2.5-2.942h4.2v-5.872H843.462v49h138.356z" fill="#06497d"/><path data-name="Path 5087" d="M975.113 617.346v-31.344a2.758 2.758 0 0 1 2.5-2.943H715.166a2.776 2.776 0 0 0-2.512 2.943v31.344a2.759 2.759 0 0 0 2.512 2.942h262.451a2.754 2.754 0 0 1-2.504-2.942z" fill="#fff"/><path data-name="Path 5088" d="M975.112 617.346v-31.344a2.758 2.758 0 0 1 2.5-2.943h-139.18a2.772 2.772 0 0 0-2.518 2.943v31.344a2.755 2.755 0 0 0 2.518 2.942h139.185a2.754 2.754 0 0 1-2.505-2.942z" fill="#bcd0e2"/><path data-name="Path 5089" d="M954.575 573.512h-3a1.919 1.919 0 0 1-1.791-2.02v-35.485a1.912 1.912 0 0 1 1.791-2.02h3v-4.04H724.969c-2.983 0-5.387 2.693-5.387 6.06v35.485c0 3.326 2.417 6.02 5.387 6.02h229.606z" fill="#06497d"/><path data-name="Path 5090" d="M954.576 573.512h-3a1.919 1.919 0 0 1-1.791-2.02v-35.485a1.912 1.912 0 0 1 1.791-2.02h3v-4.04H816.785v47.53h137.791z" fill="#021e4c"/><path data-name="Path 5091" d="M949.782 571.499v-35.485a1.912 1.912 0 0 1 1.791-2.02H724.996a1.919 1.919 0 0 0-1.8 2.02v35.485a1.926 1.926 0 0 0 1.8 2.02h226.577a1.919 1.919 0 0 1-1.791-2.02z" fill="#fff"/><path data-name="Path 5092" d="M949.781 571.499v-35.485a1.912 1.912 0 0 1 1.791-2.02h-138.39a1.912 1.912 0 0 0-1.8 2.02v35.485a1.919 1.919 0 0 0 1.8 2.02h138.39a1.919 1.919 0 0 1-1.791-2.02z" fill="#bcd0e2"/><path data-name="Path 5093" d="M748.491 592.897l-8.794-5.468-8.78 5.468v-27.418h17.574z" fill="#975140"/><path data-name="Path 5094" d="M749.128 526.203h2.93a1.838 1.838 0 0 0 1.751-1.9v-20.2a1.838 1.838 0 0 0-1.751-1.9h-2.93v-3.782h185.93a5.49 5.49 0 0 1 5.259 5.683v20.2a5.487 5.487 0 0 1-5.259 5.69h-185.93z" fill="#06497d"/><path data-name="Path 5095" d="M749.128 526.203h2.93a1.838 1.838 0 0 0 1.751-1.9v-20.2a1.838 1.838 0 0 0-1.751-1.9h-2.93v-3.782h96.468v31.586h-96.468z" fill="#2e95d1"/><path data-name="Path 5096" d="M753.808 524.305v-20.2a1.838 1.838 0 0 0-1.751-1.9h183a1.838 1.838 0 0 1 1.751 1.9v20.2a1.838 1.838 0 0 1-1.751 1.9h-183a1.838 1.838 0 0 0 1.751-1.9z" fill="#c4d1e1"/><path data-name="Path 5097" d="M753.808 524.305v-20.2a1.838 1.838 0 0 0-1.751-1.9h97.047a1.838 1.838 0 0 1 1.751 1.9v20.2a1.831 1.831 0 0 1-1.751 1.9h-97.047a1.838 1.838 0 0 0 1.751-1.9z" fill="#fff"/><path data-name="Path 5098" d="M953.667 473.65c-1.172 6.147-1.8-10.45-1.8-3.663a103.245 103.245 0 0 0 2.278 21.786H775.786V473.65z" fill="#b0bfde"/><path data-name="Path 5099" d="M953.667 473.65c-.269 1.414-.5 2.855-.72 4.309h-160.88v-4.309z" fill="#2e95d1" opacity=".2"/><path data-name="Path 5100" d="M768.655 467.179h186.937a1.946 1.946 0 0 1 2.02 1.852v4.619h-85.816v18.119h85.83v4.619a1.953 1.953 0 0 1-2.02 1.852H768.655a1.959 1.959 0 0 1-2.02-1.852V469.03a1.953 1.953 0 0 1 2.02-1.851z" fill="#e2b348"/><path data-name="Path 5101" d="M722.518 467.179h144.524a1.946 1.946 0 0 0-2.02 1.852v27.357a1.953 1.953 0 0 0 2.02 1.852H722.518a1.96 1.96 0 0 1-2.02-1.852V469.03a1.953 1.953 0 0 1 2.02-1.851z" fill="#f8c44f"/><path data-name="Path 5102" d="M724.444 632.449c1.172 6.154 1.8-10.45 1.8-3.663 0 7.636-.808 28.63-2.283 35.444h178.364v-31.781z" fill="#d8e8ed"/><path data-name="Path 5103" d="M724.444 632.449c.269 1.414.5 2.855.72 4.309h160.88v-4.309z" fill="#2e95d1" opacity=".2"/><path data-name="Path 5104" d="M909.449 625.985H722.518a1.953 1.953 0 0 0-2.02 1.845v4.619h85.816v31.781h-85.836v4.619a1.96 1.96 0 0 0 2.02 1.852h186.951a1.96 1.96 0 0 0 2.02-1.852v-41.02a1.953 1.953 0 0 0-2.02-1.845z" fill="#ad5c49"/><path data-name="Path 5105" d="M955.592 625.985H811.061a1.946 1.946 0 0 1 2.02 1.845v41.019a1.953 1.953 0 0 1-2.02 1.852h144.531a1.953 1.953 0 0 0 2.02-1.852v-41.02a1.946 1.946 0 0 0-2.02-1.845z" fill="#975140"/><path data-name="Path 5106" d="M955.592 625.986H811.061a1.946 1.946 0 0 1 2.02 1.845v6.155h144.544v-6.161a1.946 1.946 0 0 0-2.033-1.845z" fill="#834637"/><path data-name="Path 5107" d="M1105.759 686.827h-3.286a2.1 2.1 0 0 1-1.966-2.2v-14.815a2.094 2.094 0 0 1 1.966-2.2h3.286v-4.392h-251.55c-3.266 0-5.912 2.963-5.912 6.612v14.813c0 3.649 2.646 6.592 5.912 6.592h251.55z" fill="#06597d"/><path data-name="Path 5108" d="M1105.759 686.827h-3.286a2.1 2.1 0 0 1-1.966-2.2v-14.815a2.094 2.094 0 0 1 1.966-2.2h3.286v-4.392H954.784v28h150.975z" fill="#01284c"/><path data-name="Path 5109" d="M1100.494 684.625v-14.813a2.094 2.094 0 0 1 1.966-2.2H854.209a2.094 2.094 0 0 0-1.966 2.2v14.813a2.1 2.1 0 0 0 1.966 2.2h248.264a2.1 2.1 0 0 1-1.979-2.2z" fill="#fff"/><path data-name="Path 5110" d="M1100.494 684.625v-14.813a2.094 2.094 0 0 1 1.966-2.2H950.839a2.1 2.1 0 0 0-1.973 2.2v14.813a2.107 2.107 0 0 0 1.973 2.2h151.634a2.1 2.1 0 0 1-1.98-2.2z" fill="#bcd0e2"/><path data-name="Path 5111" d="M258.131 1029.728l-9.629-5.986-9.622 5.986v-22.738h19.251z" transform="translate(621.826 -328.963)" fill="url(#h)"/><path data-name="Path 5112" d="M865.534 598.734c1.064 6.154 1.636-7.858 1.636-1.071a113.293 113.293 0 0 1-2.074 21.785h161.863v-20.714z" fill="#fff"/><path data-name="Path 5113" d="M865.534 598.735c.242 1.421.451 2.862.673 4.316h145.977v-4.316z" fill="#06597d" opacity=".2"/><path data-name="Path 5114" d="M1033.423 592.277H863.784a1.845 1.845 0 0 0-1.852 1.845v4.615h77.9v20.719h-77.9v4.612a1.852 1.852 0 0 0 1.852 1.852h169.64a1.852 1.852 0 0 0 1.852-1.852v-29.946a1.845 1.845 0 0 0-1.852-1.845z" fill="#f8c44f"/><path data-name="Path 5115" d="M1075.298 592.277H944.139a1.845 1.845 0 0 1 1.845 1.845v29.936a1.852 1.852 0 0 1-1.845 1.852h131.159a1.852 1.852 0 0 0 1.845-1.852v-29.936a1.845 1.845 0 0 0-1.845-1.845z" fill="#e2b348"/><path data-name="Path 5116" d="M1075.298 592.277H944.139a1.845 1.845 0 0 1 1.845 1.845v6.154h131.159v-6.154a1.845 1.845 0 0 0-1.845-1.845z" fill="#cba141"/><path data-name="Path 5117" d="M880.657 658.877h3.205a2.108 2.108 0 0 0 1.919-2.249v-23.977a2.114 2.114 0 0 0-1.919-2.256h-3.205v-4.491h203.71c3.185 0 5.764 3.023 5.764 6.733v23.977c0 3.724-2.579 6.733-5.764 6.733h-203.71z" fill="#06597d"/><path data-name="Path 5118" d="M880.657 658.877h3.205a2.108 2.108 0 0 0 1.919-2.249v-23.977a2.114 2.114 0 0 0-1.919-2.256h-3.205v-4.491H986.37v37.471H880.657z" fill="#1386b7"/><path data-name="Path 5119" d="M885.781 656.628v-23.977a2.114 2.114 0 0 0-1.919-2.256h200.505a2.114 2.114 0 0 1 1.919 2.256v23.977a2.108 2.108 0 0 1-1.919 2.249H883.862a2.108 2.108 0 0 0 1.919-2.249z" fill="#b0bfde"/><path data-name="Path 5120" d="M885.781 656.628v-23.977a2.114 2.114 0 0 0-1.919-2.256h106.34a2.114 2.114 0 0 1 1.919 2.256v23.977a2.108 2.108 0 0 1-1.919 2.249h-106.34a2.108 2.108 0 0 0 1.919-2.249z" fill="#d8e8ed"/><g data-name="Group 87" transform="translate(-645.39 -57.823)"><path data-name="Path 5279" d="M1601.082 575.466c-7.89-3.178-16.121 3.635-16.49 26 12.396-1.894 18.148-7.302 16.49-26z" fill="#542e2e"/><path data-name="Path 5280" d="M1601.843 575.466c7.889-3.178 16.12 3.635 16.489 26-12.395-1.894-18.147-7.302-16.489-26z" fill="#542e2e"/><g data-name="Group 52"><path data-name="Line 43" fill="none" stroke="#ef8b6c" stroke-linecap="round" stroke-linejoin="round" stroke-width="6.647" d="M1583.989 595.754l-14.564 31.803"/><path data-name="Path 5281" d="M1591.875 593.041l-13.572 27.228-8.878-4.625c3.4-6.979 9.259-24 16.835-25.441.968-.185 6.474-2.585 7.519-2.007.838.462-2.78 3.909-1.904 4.845z" fill="#254c66"/><path data-name="Path 5282" d="M1578.81 619.784l-9.252-4.7z" fill="#fff" stroke="#fff" stroke-miterlimit="10" stroke-width="1.708"/></g><g data-name="Group 53"><path data-name="Line 44" fill="none" stroke="#ef8b6c" stroke-linecap="round" stroke-linejoin="round" stroke-width="10.805" d="M1618.842 596.293l15.826 36.915"/><path data-name="Path 5283" d="M1612.121 592.217l11.45 28.7 9.133-4.1c-3.006-7.228-7.83-24.038-15.508-26.4-.876-.27-6.092-2.786-7.091-2.312-.869.412 2.952 3.212 2.016 4.112z" fill="#254c66"/><path data-name="Path 5284" d="M1623.091 620.407l9.512-4.146z" fill="#fff" stroke="#fff" stroke-miterlimit="10" stroke-width="1.708"/></g><g data-name="Group 55"><path data-name="Path 5285" d="M1620.569 560.19c0 5.082-3.037 11.851-5.485 15.11-2.941 3.918-8.623 2.256-13.458 2.256-4.794 0-10.443 1.487-13.383-2.451-2.018-2.7-4.839-8.488-5.37-12.228-.026-.185-.05-.368-.071-.555a19.326 19.326 0 0 1-.118-2.132 18.952 18.952 0 0 1 12.856-17.945c.069-.024.137-.045.205-.069a18.825 18.825 0 0 1 4.183-.855q.656-.057 1.324-.071h.371a18.952 18.952 0 0 1 18.506 14.879v.012a18.811 18.811 0 0 1 .375 2.544q.066.744.065 1.505z" fill="#542e2e"/><g data-name="Group 54" transform="translate(1582.684 537.685)"><path data-name="Path 5286" d="M37.885 18.95a18.944 18.944 0 0 1-37.7 2.688c-.026-.185-.05-.368-.071-.555a19.328 19.328 0 0 1-.118-2.133A18.954 18.954 0 0 1 12.852 1.005l.205-.069A18.877 18.877 0 0 1 17.24.081q.656-.056 1.324-.07a3.08 3.08 0 0 1 .371-.005c6.336.622 4.575 1.68 6.648 1.866 4.851.435 10.449 6.569 11.858 13.015v.012a18.8 18.8 0 0 1 .375 2.544q.07.745.069 1.507z" fill="#6d3b3b"/><path data-name="Path 5287" d="M34.522 61.28v44.324H3.935V62.652a16.672 16.672 0 0 1 .651-4.764 12.876 12.876 0 0 1 4.5-6.61 15.4 15.4 0 0 1 4.217-2.314c.329-.121.654-.226.968-.319a12.714 12.714 0 0 1 3.419-.58c.367 0 .732 1.093 1.1 1.093h3.6c.177 0 .354 0 .53.013.774.033.96 2.55 1.69 2.723.352.084.7.173 1.045.266.177.048.35.1.523.15a18.017 18.017 0 0 1 3.979 1.647 7.975 7.975 0 0 1 4.36 7.324z" fill="#254c66"/><path data-name="Path 5288" d="M34.513 62.652v47.689H3.927V61.28a8.43 8.43 0 0 1 .659-3.393c1.194-2.76 3.9-4.376 7.125-5.408.688-.219 1.4-.414 2.122-.587s.915-2.69 1.69-2.723c.175-.011.353-.013.53-.013h3.6c.374 0 .741-1.093 1.106-1.093a12.585 12.585 0 0 1 3.3.542c.113.031.23.068.346.1a15.868 15.868 0 0 1 4.774 2.42 12.9 12.9 0 0 1 4.683 6.743 16.647 16.647 0 0 1 .651 4.784z" fill="#254c66"/><path data-name="Path 5289" d="M26.305 53.646a7.344 7.344 0 0 1-14.688 0 7.352 7.352 0 0 1 1.688-4.683 13.773 13.773 0 0 1 4.385-.9c.367 0 .733 1.091 1.105 1.091h.859c.373 0 .739-1.091 1.1-1.091a13.008 13.008 0 0 1 3.642.646 7.331 7.331 0 0 1 1.9 4.935z" fill="#fff"/><path data-name="Path 5290" d="M24.739 53.371a5.778 5.778 0 1 1-5.778-5.778 5.778 5.778 0 0 1 5.778 5.778z" fill="#f5af87"/><path data-name="Rectangle 66" fill="#ef8b6c" d="M14.978 41.999h7.964v6.515h-7.964z"/><circle data-name="Ellipse 12" cx="14.4" cy="14.4" r="14.4" transform="translate(4.561 17.517)" fill="#ef8b6c"/><circle data-name="Ellipse 13" cx="14.4" cy="14.4" r="14.4" transform="translate(4.561 15.242)" fill="#f5af87"/><path data-name="Path 5291" d="M32.872 21.781c-.889 6.753-6.925 11.567-13.933 11.567a14.4 14.4 0 1 1 0-28.8c7.566 0 12.839 5.861 13.878 13.26.053.376.094.757.125 1.14a13.339 13.339 0 0 1-.07 2.833z" fill="#f5af87"/><path data-name="Path 5292" d="M7.619 26.562a2.667 2.667 0 1 1-2.667-2.666 2.667 2.667 0 0 1 2.667 2.666z" fill="#f5af87"/><path data-name="Path 5293" d="M35.954 26.563a2.667 2.667 0 1 1-2.667-2.667 2.666 2.666 0 0 1 2.667 2.667z" fill="#f5af87"/><path data-name="Path 5294" d="M30.278 33.337a2.111 2.111 0 1 1-2.111-2.111 2.111 2.111 0 0 1 2.111 2.111z" fill="#ed807a"/><path data-name="Path 5295" d="M12.2 33.337a2.111 2.111 0 1 1-2.111-2.111 2.111 2.111 0 0 1 2.111 2.111z" fill="#ed807a"/><path data-name="Path 5296" d="M22.943 48.64c0 1.018-1.341 2.664-3.982 2.664s-3.982-1.646-3.982-2.664 1.782-1.842 3.982-1.842 3.982.825 3.982 1.842z" fill="#ef8b6c"/><path data-name="Path 5297" d="M32.876 21.781c-5.289.281-10.861-1.969-13.6-3.492 0 0 10-.5 13.545-.479.053.376.094.757.125 1.14a13.339 13.339 0 0 1-.07 2.831z" fill="#ef8b6c"/></g><path data-name="Path 5298" d="M1585.747 547.857c.82-.745 6.2-4.5 6.2-4.5l9.7-3.1 11.441 3.1 3.829 10.882-10.438-3.5-13.707.581s-8.386 1.153-8.572.795 1.455-3.715 1.455-3.715z" fill="#6d3b3b"/><path data-name="Path 5299" d="M1608.455 535.544c1.265 1.223 1.285 3.765-.153 5.506l-1.656-1.439a4.379 4.379 0 0 0 1.809-4.067z" fill="#421727"/><path data-name="Path 5300" d="M1598.572 573.562a5.082 5.082 0 0 0 7.034.055" fill="none" stroke="#be3a24" stroke-linecap="round" stroke-miterlimit="10" stroke-width=".719"/><path data-name="Path 5301" d="M1603.796 612.692h-3.732V598.14l1.866.373 1.866-.373z" fill="#1d4056"/><path data-name="Path 5302" d="M1602.687 604.677a1.016 1.016 0 0 1-1.436 0 1.016 1.016 0 0 1 0-1.436 1.016 1.016 0 0 1 1.436 0 1.016 1.016 0 0 1 0 1.436z" fill="#fff"/><path data-name="Path 5303" d="M1602.707 607.459a1.016 1.016 0 0 1-1.436 0 1.016 1.016 0 0 1 0-1.436 1.016 1.016 0 0 1 1.436 0 1.016 1.016 0 0 1 0 1.436z" fill="#fff"/><path data-name="Path 5304" d="M1602.745 610.522a1.016 1.016 0 0 1-1.436 0 1.015 1.015 0 0 1 0-1.435 1.016 1.016 0 0 1 1.436 0 1.015 1.015 0 0 1 0 1.435z" fill="#fff"/><path data-name="Path 5306" d="M1603.41 643.293l12.668-.006z" fill="#28a6ad"/><path data-name="Path 5307" d="M1610.703 588.029c2.9 5.407 1.111 10.494-3.176 15.412l-5.6-4.928c5.846-2.444 7.768-7.345 4.3-12.36a15.115 15.115 0 0 1 4.476 1.876z" fill="#fff"/><path data-name="Path 5308" d="M1592.974 588.065c-2.9 5.407-1.3 10.458 2.985 15.376l5.97-4.928c-5.846-2.444-7.946-7.3-4.477-12.314a16.514 16.514 0 0 0-4.478 1.866z" fill="#fff"/></g><path data-name="Path 5309" d="M1622.713 658.056h-42.159l3.829-19.435h34.5z" fill="#142b35"/><g data-name="Group 58"><path data-name="Path 5310" d="M1634.168 712.208c.12-2.723-1.7-6.19-3.147-9.763l-6.719 2.133 2.468 9.451z" fill="#fdffff"/><g data-name="Group 56" transform="rotate(-85 1206.692 -516.866)"><path data-name="Path 5311" d="M15.007 1.7l-2.545 5.346-9.033 18.97a.691.691 0 0 1-.776.378.673.673 0 0 1-.147-.05l-1.488-.709a.7.7 0 0 1-.329-.926L9.693 5.791 12.263.4a.7.7 0 0 1 .926-.329l1.489.705a.691.691 0 0 1 .381.5.668.668 0 0 1-.052.424z" fill="#fdfdfd"/><rect data-name="Rectangle 67" width="7.085" height="3.039" rx=".466" transform="rotate(-64.539 20.707 13.075)" fill="#fdfdfd"/><path data-name="Path 5312" d="M23.048 4.545a92.3 92.3 0 0 1-2.558 9.668 13.238 13.238 0 0 1-.525 1.275c-.531 1.123-1.046 1.771-1.141 1.648-2.987 1.183-5.993 2.632-7.407 4.425a4.351 4.351 0 0 0-.426.63c-1.743 3.184-2.851 4.954-2.851 4.954-1.392 2.675-5.425 1.178-5.692-.323l.2-.428 9.3-19.594 2.063-4.325a2.166 2.166 0 0 1 1.048-1.2c1.189-.477 3.181.814 7.989 3.27z" fill="#ffd421"/><path data-name="Path 5313" d="M11.419 21.56a10.6 10.6 0 0 1 1.578-3.547c2.094-3.084 5.293-4.655 7.495-3.798-.856 1.8-1.538 3.083-1.667 2.922-2.987 1.184-5.991 2.632-7.406 4.423z" fill="#e28805"/></g><g data-name="Group 57"><path data-name="Path 5314" d="M1615.025 657.423l12.234 42.026z" fill="#28a6ad"/><path data-name="Path 5315" d="M1621.982 655.402l7.848 26.966 3.474 11.928.91 3.13a7.243 7.243 0 1 1-13.905 4.048l-.464-1.581-2.027-6.955-9.748-33.488a7.123 7.123 0 0 1-.094-.356 7.242 7.242 0 0 1 14.006-3.692z" fill="#b5335c"/></g><path data-name="Path 5316" d="M1620.908 674.54l8.403 32.949z" fill="#28a6ad" stroke="#b5335c" stroke-miterlimit="10" stroke-width="14.42"/><path data-name="Path 5317" d="M1622.959 707.716a92.3 92.3 0 0 1 9.408 3.389 13.238 13.238 0 0 1 1.224.634c-.081-.007-.164-.026-.249-.044-3.514-.682-6.819 3.535-8.816 6.785q-.152.245-.289.482c-.51.856-.92 1.617-1.202 2.168l-5.147-3.03a.7.7 0 0 1-.25-.956l.835-1.417a.691.691 0 0 1 .532-.336c-.371-1.222 1.087-3.098 3.954-7.675z" fill="#f2b29c" style="mix-blend-mode:multiply;isolation:isolate"/></g><g data-name="Group 61"><path data-name="Path 5318" d="M1578.455 715.343c-.59-2.661.599-6.392 1.403-10.162l6.99.938-.787 9.737z" fill="#fdffff"/><g data-name="Group 59" transform="rotate(74.99 334.477 1392.055)"><rect data-name="Rectangle 68" width="3.039" height="28.317" rx=".932" transform="rotate(-25.45 6.755 -16.483)" fill="#fdfdfd"/><rect data-name="Rectangle 69" width="3.039" height="7.085" rx=".466" transform="rotate(-25.461 55.75 -27.55)" fill="#fdfdfd"/><path data-name="Path 5319" d="M20.6 27.052L9.037 2.707C7.873.261 6.518 1.444 0 4.778a92.63 92.63 0 0 0 2.556 9.668c.663 1.876 1.538 3.083 1.667 2.921 2.986 1.185 5.991 2.633 7.4 4.424a4.352 4.352 0 0 1 .427.632c1.746 3.185 2.854 4.952 2.854 4.952 1.396 2.677 5.429 1.179 5.696-.323z" fill="#ffd421"/><path data-name="Path 5320" d="M11.628 21.791a10.575 10.575 0 0 0-1.572-3.547c-2.1-3.084-5.3-4.655-7.5-3.798.856 1.8 1.538 3.083 1.667 2.921 2.986 1.185 5.991 2.633 7.405 4.424z" fill="#e28805"/></g><g data-name="Group 60"><path data-name="Path 5321" d="M1587.787 658.06l-4.746 43.52z" fill="#28a6ad"/><path data-name="Path 5322" d="M1584.737 708.62a6.974 6.974 0 0 1-1.332.19 6.675 6.675 0 0 1-1.147-.032 7.237 7.237 0 0 1-6.416-7.985l.218-2.001 1.497-13.742 3.03-27.773a7.233 7.233 0 0 1 4.44-5.91 7.146 7.146 0 0 1 3.545-.505 7.072 7.072 0 0 1 2.12.57 7.239 7.239 0 0 1 4.294 7.414l-.549 5.037-3.365 30.885-.83 7.595a7.234 7.234 0 0 1-5.505 6.257z" fill="#e7436e"/></g><path data-name="Path 5323" d="M1585.836 675.96l-3.416 33.891z" fill="#28a6ad" stroke="#e7436e" stroke-miterlimit="10" stroke-width="14.422"/></g><g data-name="Group 68"><path data-name="Path 5324" d="M1590.29 564.224a2.666 2.666 0 1 1-2.663-2.779 2.723 2.723 0 0 1 2.663 2.779z" fill="#f5af87"/><path data-name="Path 5325" d="M1618.592 564.224a2.666 2.666 0 1 1-2.664-2.779 2.723 2.723 0 0 1 2.664 2.779z" fill="#f5af87"/><path data-name="Path 5326" d="M1607.149 564.356a1.766 1.766 0 0 0 3.13 0" fill="none" stroke="#000" stroke-linecap="round" stroke-miterlimit="10" stroke-width=".563"/><path data-name="Path 5327" d="M1593.436 564.356a1.766 1.766 0 0 0 3.131 0" fill="none" stroke="#000" stroke-linecap="round" stroke-miterlimit="10" stroke-width=".563"/><path data-name="Path 5328" d="M1607.328 560.542l2.634 1.122z" stroke="#492c26" stroke-linecap="round" stroke-miterlimit="10" stroke-width="1.324"/><path data-name="Path 5329" d="M1596.064 560.542l-2.634 1.122z" stroke="#492c26" stroke-linecap="round" stroke-miterlimit="10" stroke-width="1.324"/><g data-name="Group 65"><g data-name="Group 62"><path data-name="Path 5330" d="M1608.229 561.824l-3.1 6.088.594.625 3.434-6.712z" fill="#fff" opacity=".65"/></g><g data-name="Group 63"><path data-name="Path 5331" d="M1594.514 561.66l-3.1 6.088.594.625 3.434-6.712z" fill="#fff" opacity=".65"/></g><g data-name="Group 64" transform="translate(1590.122 561.445)"><ellipse data-name="Ellipse 14" cx="3.794" cy="4.82" rx="3.794" ry="4.82" transform="matrix(.023 -1 1 .023 0 7.587)" fill="#e2e1de" opacity=".32"/><path data-name="Path 5332" d="M23.024 3.914c.029 2.1-2.106 3.794-4.768 3.793s-4.842-1.7-4.871-3.8S15.491.113 18.153.114s4.842 1.704 4.871 3.8z" fill="#e2e1de" stroke="#6f8424" stroke-miterlimit="10" stroke-width=".188" opacity=".32"/><ellipse data-name="Ellipse 15" cx="3.794" cy="4.82" rx="3.794" ry="4.82" transform="matrix(.023 -1 1 .023 0 7.587)" fill="none" stroke="#6f8424" stroke-miterlimit="10" stroke-width=".892"/><path data-name="Path 5333" d="M18.256 7.707a5.576 5.576 0 0 1-.888-.067 5.289 5.289 0 0 1-2.691-1.175 3.432 3.432 0 0 1-1.292-2.555C13.357 1.815 15.491.117 18.153.118a6.025 6.025 0 0 1 1.749.258 4.815 4.815 0 0 1 2.375 1.543 3.252 3.252 0 0 1 .747 2c.029 2.091-2.105 3.789-4.768 3.788z" fill="none" stroke="#6f8424" stroke-miterlimit="10" stroke-width=".892"/><path data-name="Path 5334" d="M13.751 4.343c-1.41-1.771-2.872-1.875-4.4 0L9.139 1.61a7.973 7.973 0 0 0 4.748 0z" fill="#6f8424"/></g></g><g data-name="Group 66"><path data-name="Path 5335" d="M1612.971 563.832l1.872-2.8c1-1.15 2.019.513 1.634.472-.2-.021-.478.368-.546.447l-2.361 3.562c-.136.21-.82-1.351-.599-1.681z" fill="#6f8424"/></g><g data-name="Group 67"><path data-name="Path 5336" d="M1590.737 563.832l-1.872-2.8c-1-1.15-2.018.513-1.634.472.205-.021.478.368.545.447l2.361 3.562c.136.21.821-1.351.6-1.681z" fill="#6f8424"/></g><path data-name="Path 5337" d="M1603.298 570.821a.584.584 0 0 0-.441-.266.546.546 0 0 0-.123-.014h-1.8a.55.55 0 0 0-.091.01.582.582 0 0 0-.506.252.637.637 0 0 0 .128.865 2.188 2.188 0 0 0 1.313.379 2.469 2.469 0 0 0 1.365-.367.636.636 0 0 0 .155-.859z" fill="#f19674"/></g><path data-name="Path 5338" d="M1619 555.174a6.329 6.329 0 0 1-3.328 2.352c-.2-2.886-1.655-4.034-4.319-4.448a1.751 1.751 0 0 0-.122-.024 52 52 0 0 0-16.89-.254c-1.315.18-2.611.4-3.873.664-2.041.479-2.7 1.19-3.057 2.264-.172.512-.277 1.107-.435 1.8-.714-4.551-.444-8.317 1.643-10.334 5.191-5.158 14.763-.393 19.848.218 1.277.151 2.271.043 2.843-.55s.717-1.655.31-3.421a8.794 8.794 0 0 1 6.869 3.77c1.739 2.485 2.093 5.685.511 7.963z" fill="#a55656"/><path data-name="Path 5339" d="M1587.417 555.727c4.006-7.182 17.206 4.812 28.261 1.8l2.645-2.893-19.011-6.751c-7.248.853-11.676 3.218-11.895 7.844z" fill="#a55656"/><path data-name="Path 5340" d="M1618.999 555.174c-.434-1.495-3.448-2.213-8.638-1.614a54.878 54.878 0 0 1-16.02-.76 32.866 32.866 0 0 1-4.963-1.377c-.07-.026-.134-.052-.2-.078l.46-.158c1.367-.467 5.329-1.8 5.528-1.6a57.9 57.9 0 0 0 6.323-.93 538.13 538.13 0 0 0 6.973-1.248c1.55-.287 2.631-.5 2.752-.539a.479.479 0 0 1 .091-.011c.654-.051 4.178.156 7.179.349 1.743 2.488 2.096 5.688.515 7.966z" fill="#6d3b3b"/><path data-name="Rectangle 70" fill="#f5af87" d="M1597.644 585.279h7.964v6.515h-7.964z"/><path data-name="Path 5341" d="M1605.627 585.532c0 1.017-1.341 2.663-3.982 2.663s-3.982-1.646-3.982-2.663 1.782-1.843 3.982-1.843 3.982.825 3.982 1.843z" fill="#ef8b6c"/><g data-name="Group 76"><path data-name="Path 5343" d="M1566.346 624.748l.255 1.256.625-.24z" fill="#ef8b6c"/><path data-name="Path 5344" d="M1577.076 622.991l.226 1.273-.81-.4z" fill="#ef8b6c"/><path data-name="Path 5345" d="M1577.399 625.684l.226 1.258-.747-.412z" fill="#ef8b6c"/><g data-name="Group 73"><g data-name="Group 69"><path data-name="Path 5346" d="M1576.823 627.795a1.108 1.108 0 0 0 .428-.177.737.737 0 0 0 .185-1.137l-1.782-1.879a1.067 1.067 0 0 0-1.34-.08.738.738 0 0 0-.185 1.138l1.782 1.878a1 1 0 0 0 .912.257z" fill="#ef8b6c"/></g><g data-name="Group 71"><g data-name="Group 70"><path data-name="Path 5347" d="M1566.601 626.003a1.125 1.125 0 0 0 .295.406l1.844 1.679c.937.854 3.222.768 5.4.025 2.142-.732 3.777-1.383 2.84-2.237l-2.415-2.2c-.937-.853-3.413-.934-5.531-.18-1.803.645-2.765 1.685-2.433 2.507z" fill="#ef8b6c"/></g></g><g data-name="Group 72"><path data-name="Path 5348" d="M1576.495 625.098a.985.985 0 0 0 .777-.637.755.755 0 0 0-.685-.942l-3.316-.539a1.045 1.045 0 0 0-1.166.642.755.755 0 0 0 .684.942l3.317.539a1.112 1.112 0 0 0 .389-.005z" fill="#ef8b6c"/></g></g><g data-name="Group 75"><path data-name="Line 45" fill="none" stroke="#f5af87" stroke-linecap="round" stroke-linejoin="round" stroke-width="1.763" d="M1574.672 623.986l1.783 1.879"/><g data-name="Group 74"><path data-name="Path 5349" d="M1566.385 624.859a1.126 1.126 0 0 0 .295.406l1.844 1.68c.937.853 3.222.767 5.4.024 2.142-.731 3.777-1.382 2.84-2.236l-2.415-2.2c-.937-.853-3.414-.935-5.531-.18-1.803.645-2.765 1.685-2.433 2.506z" fill="#f5af87"/></g><path data-name="Line 46" fill="none" stroke="#f5af87" stroke-linecap="round" stroke-linejoin="round" stroke-width="1.763" d="M1576.131 623.169l-3.316-.539"/></g></g><path data-name="Path 5350" d="M1601.942 599.715l-6.545 5.4c-4.515-5.178-6.307-10.491-3.627-16.154a15.394 15.394 0 0 1 4.217-2.314c.329-.121.654-.226.968-.319-3.694 5.459-1.384 10.727 4.987 13.387z" fill="#86a8a7" style="mix-blend-mode:multiply;isolation:isolate"/><path data-name="Path 5351" d="M1608.077 605.117l-6.135-5.4c6.36-2.659 8.483-7.969 4.8-13.423.113.031.23.068.346.1a15.868 15.868 0 0 1 4.774 2.42c2.738 5.709.756 11.093-3.785 16.303z" fill="#86a8a7" style="mix-blend-mode:multiply;isolation:isolate"/><path data-name="Path 5352" d="M1610.702 588.03c2.9 5.407 1.111 10.494-3.176 15.412l-5.6-4.928c5.846-2.444 7.768-7.345 4.3-12.36a15.115 15.115 0 0 1 4.476 1.876z" fill="#fff"/><path data-name="Path 5353" d="M1592.974 588.065c-2.9 5.407-1.3 10.458 2.985 15.376l5.97-4.928c-5.846-2.444-7.946-7.3-4.477-12.314a16.514 16.514 0 0 0-4.478 1.866z" fill="#fff"/><path data-name="Path 5354" d="M1586.691 603.441l-7.709 15.482.18.09-.749 1.527-2.086-1.088z" fill="#86a8a7" style="mix-blend-mode:multiply;isolation:isolate"/><path data-name="Path 5355" d="M1617.015 604.486l6.556 16.436 2.19-.982z" fill="#86a8a7" style="mix-blend-mode:multiply;isolation:isolate"/><g data-name="Group 84"><path data-name="Path 5356" d="M1631.548 621.247l-.018 1.171-.658-.109z" fill="#ef8b6c"/><path data-name="Path 5357" d="M1620.679 621.49l.014 1.181.722-.494z" fill="#ef8b6c"/><path data-name="Path 5358" d="M1620.862 623.966l.012 1.168.658-.5z" fill="#ef8b6c"/><g data-name="Group 81"><g data-name="Group 77"><path data-name="Path 5359" d="M1621.823 625.759a1.206 1.206 0 0 1-.454-.086.654.654 0 0 1-.393-.99l1.4-1.989a1.128 1.128 0 0 1 1.3-.3.653.653 0 0 1 .392.989l-1.4 1.989a1.039 1.039 0 0 1-.845.387z" fill="#ef8b6c"/></g><g data-name="Group 79"><g data-name="Group 78"><path data-name="Path 5360" d="M1631.532 622.418a1 1 0 0 1-.214.415l-1.5 1.821c-.762.925-3.023 1.236-5.3.938-2.241-.293-3.968-.6-3.206-1.526l1.964-2.383c.762-.925 3.18-1.418 5.4-1.1 1.892.27 3.031 1.04 2.856 1.835z" fill="#ef8b6c"/></g></g><g data-name="Group 80"><path data-name="Path 5361" d="M1621.642 623.285a1.012 1.012 0 0 1-.882-.44c-.212-.37.011-.8.5-.963l3.159-1.045a1.1 1.1 0 0 1 1.266.378c.212.37-.011.8-.5.962l-3.159 1.046a1.221 1.221 0 0 1-.384.062z" fill="#ef8b6c"/></g></g><g data-name="Group 83"><path data-name="Line 47" fill="none" stroke="#f5af87" stroke-linecap="round" stroke-linejoin="round" stroke-width="1.685" d="M1623.227 621.976l-1.403 1.989"/><g data-name="Group 82"><path data-name="Path 5362" d="M1631.532 621.355a1 1 0 0 1-.214.415l-1.5 1.821c-.762.925-3.023 1.236-5.3.938-2.241-.293-3.968-.6-3.206-1.526l1.964-2.383c.762-.925 3.18-1.418 5.4-1.1 1.892.268 3.031 1.041 2.856 1.835z" fill="#f5af87"/></g><path data-name="Line 48" fill="none" stroke="#f5af87" stroke-linecap="round" stroke-linejoin="round" stroke-width="1.685" d="M1621.641 621.49l3.158-1.046"/></g></g><g data-name="Group 86"><path data-name="Path 5363" d="M1619.438 534.454v2.774l.022 12.037c-2.318 2.589-11.5 3.806-20.028 3.522a67.356 67.356 0 0 1-1.873-.087 56.965 56.965 0 0 1-4.22-.4c-4.12-.55-7.524-1.535-9.083-2.972l-.027-14.81z" fill="#254c66"/><path data-name="Path 5364" d="M1571.516 532.428l30.79-7.428 29.351 7.315-29.812 7.814z" fill="#254c66"/><path data-name="Path 5365" d="M1631.658 532.316l-29.812 7.814v1.94l29.811-8.2z" fill="#193c4f"/><path data-name="Path 5366" d="M1571.516 532.428l30.33 7.7v1.94l-30.331-8.089z" fill="#438db5"/><path data-name="Path 5367" d="M1588.716 538.672a12.2 12.2 0 0 1 .259-1.782s11.525-3.188 13.125-3.579 3.25-.907 2.866-1.781-7.178 1.028-7.178 1.028l-8.685 2.441-1.881 1.932.177 1.256z" fill="#7e728e" style="mix-blend-mode:multiply;isolation:isolate"/><path data-name="Path 5368" d="M1614.604 538.559l-12.756 3.509-17.474-4.659 6.452 6.59c-.079 3.078-.014 6.027.045 7.9l1.316.232c-.05-1.622-.1-4.116-.041-6.787l7.287 7.441c6.745.224 13.9-.491 17.746-2.081a6.289 6.289 0 0 0 2.283-1.443l-.021-12.036z" fill="#7e728e" opacity=".82" style="mix-blend-mode:multiply;isolation:isolate"/><path data-name="Path 5369" d="M1619.443 537.227l.022 12.036a6.289 6.289 0 0 1-2.283 1.443 47.65 47.65 0 0 0-2.578-12.147z" fill="#254c66"/><path data-name="Path 5370" d="M1592.427 534.053c-2.6.737-4.117 1.419-4.685 2.28-.957 1.453-.655 3.045-.533 10.849" fill="none" stroke="#fdc00e" stroke-linecap="round" stroke-linejoin="round" stroke-width="1.313"/><g data-name="Group 85"><path data-name="Path 5371" d="M1602.472 531.861a.654.654 0 0 1-.521.764l-.321.063c.181-.106.3-.179.3-.179s-1.686-.208-1.754.041c-.063.229-.231.416-.675.553q-1.153.232-2.145.443c-1.99.422-3.525.791-4.757 1.14a.64.64 0 0 1-.118.022.653.653 0 0 1-.238-1.278c1.678-.476 3.895-.987 7.024-1.611q1.135-.227 2.436-.477a.655.655 0 0 1 .769.519z" fill="#fdc00e"/></g><path data-name="Path 5372" d="M1586.67 557.403l-.375-2.087-.28 2.208-1.2-.334 1.938-9.595h.978l2.812 9.015z" fill="#f7bc00"/><path data-name="Line 49" fill="none" stroke="#ffdf43" stroke-linecap="round" stroke-miterlimit="10" stroke-width="1.751" d="M1587.209 547.391l.001.447"/><path data-name="Path 5373" d="M1602.473 531.861a.654.654 0 0 1-.521.764l-.321.063c.181-.106.3-.179.3-.179s-1.03 0-1.1.252c-.062.229-.887.2-1.331.341q-1.153.232-2.145.443a2.866 2.866 0 0 1 .519-.146 1.273 1.273 0 0 0 1.029-1.49c.757-.151 1.931-.4 2.8-.567a.655.655 0 0 1 .77.519z" fill="#bc6619"/><path data-name="Path 5374" d="M1605.215 531.628c.053.64-1.321 1.278-3.07 1.425s-3.211-.254-3.265-.895l-.1-.829 5.455-.346.916-.192z" fill="#193c4f"/><path data-name="Path 5375" d="M1605.037 530.617c.054.64-1.321 1.278-3.07 1.425s-3.211-.254-3.264-.895 1.32-1.278 3.07-1.425 3.21.255 3.264.895z" fill="#336689"/></g><rect data-name="Rectangle 71" width="58.473" height="3.15" rx="1.226" transform="translate(1572.27 646.218)" fill="#b3b6ba"/><rect data-name="Rectangle 72" width="58.495" height="38.562" rx="2.428" transform="translate(1572.428 606.15)" fill="#fff"/><path data-name="Path 5376" d="M1630.924 644.333a2.022 2.022 0 0 1-2.016 2.016h-54.44a2.047 2.047 0 0 1-2.036-2.016l-.341-34.529a2 2 0 0 1 2-2.016h54.815a2.023 2.023 0 0 1 2.016 2.016z" fill="#9fa4aa"/></g><g data-name="Group 91"><path data-name="Path 5377" d="M791.115 509.776l2.331 5.2a.852.852 0 0 1-.429 1.126l-12.175 5.458a.966.966 0 0 1-1.2-1.412l4.712-7.34a7.5 7.5 0 0 0 6.761-3.032z" fill="#07085b"/><path data-name="Path 5378" d="M806.892 509.157l2.331 5.2a.853.853 0 0 1-.429 1.126l-12.175 5.458a.965.965 0 0 1-1.2-1.411l4.711-7.341a7.5 7.5 0 0 0 6.762-3.032z" fill="#07085b"/><path data-name="Path 5379" d="M821.122 340.786s-13.268-2.237-17.72 12.587l5.495 8.225s11.524-4.427 11.57-4.861.655-15.951.655-15.951z" fill="#652020"/><path data-name="Path 5380" d="M842.478 347.464s3.87 5.82 5.844 8.128c4.966 5.805 5.606 3.984 8.692 8.978 3.332 5.389-.039 8.764-1.955 10.317s1.29 7.3-2.28 10.52c-4.673 4.216-9 .24-12.21 2.6s-3.918 5.863-11.537 5.2-7.546-25.576-7.546-25.576 6.237-13.209 6.484-13.318 14.508-6.849 14.508-6.849z" fill="#652020"/><path data-name="Path 5381" d="M803.402 353.372s-.456 4.572-1.967 7.205c-3.8 6.625-5.853 4.455-7.96 9.934-2.275 5.914 1.664 8.605 3.834 9.776s.086 7.412 4.191 9.915c5.374 3.276 8.884-1.432 12.481.293s4.937 5.035 12.3 2.972 2.672-26.532 2.672-26.532-8.578-11.823-8.842-11.885-16.709-1.678-16.709-1.678z" fill="#652020"/><path data-name="Path 5382" d="M822.653 382.876s12.717-2.339 18.565-2.142-3.544 15.4-3.544 15.4l-9.551.212s-5.855-6.54-5.47-7.3-.018-5.75-.018-5.75z" fill="#ffc0bb"/><g data-name="Group 89"><path data-name="Path 5383" d="M833.995 370.742l3.355 10.181s-2.921 6.038-11.865 3.434c0 0 1.021-2.108-.348-6.451-1.401-4.437 8.858-7.164 8.858-7.164z" fill="#ffc0bb"/><path data-name="Path 5384" d="M833.995 370.742l1.574 4.756c-.937 3.476-3.981 5.843-9.721 6.578a13.8 13.8 0 0 0-.711-4.17c-1.401-4.437 8.858-7.164 8.858-7.164z" fill="#fc8d84" opacity=".6"/><g data-name="Group 88"><path data-name="Path 5385" d="M813.536 363.288c.726 1.653.242 3.464-1.081 4.045s-2.983-.289-3.709-1.943-.242-3.464 1.081-4.045 2.979.289 3.709 1.943z" fill="#f99893"/><path data-name="Path 5386" d="M813.161 370.795a25.84 25.84 0 0 1-1.569-6.387c-.053-.426-.13-.848-.215-1.269a13.968 13.968 0 1 1 27.652-3.151 3.017 3.017 0 0 1 2.713-.284c1.677.7 2.331 2.959 1.461 5.055s-2.935 3.231-4.611 2.535a2.672 2.672 0 0 1-.636-.379 13.1 13.1 0 0 1-12.7 12.349 12.851 12.851 0 0 1-12.095-8.469z" fill="#ffc0bb"/><path data-name="Path 5387" d="M821.932 360.305a8.54 8.54 0 0 1 .447 2.354 6.62 6.62 0 0 1-.043 1.228 3.11 3.11 0 0 1-.423 1.254c-.306.392-.465.522-.51.836a1.074 1.074 0 0 0 .267.825 3.3 3.3 0 0 0 1.942.977 2.7 2.7 0 0 1-2.373-.568 1.633 1.633 0 0 1-.553-1.3 1.989 1.989 0 0 1 .6-1.193 2.962 2.962 0 0 0 .347-.953 10.01 10.01 0 0 0 .159-1.116c.062-.766.092-1.546.14-2.344z" fill="#f99893"/><path data-name="Path 5388" d="M826.535 361.34a1.22 1.22 0 1 0 1-1.022 1.221 1.221 0 0 0-1 1.022z" fill="#333"/><path data-name="Path 5389" d="M816.074 362.133a1.22 1.22 0 1 0 1-1.022 1.221 1.221 0 0 0-1 1.022z" fill="#333"/><path data-name="Path 5390" d="M827.625 370.375a8.077 8.077 0 0 0-4.272.879 9.954 9.954 0 0 0-3.853-.379s1.33 2.97 4.244 2.792 3.881-3.292 3.881-3.292z" fill="#f99893" opacity=".3" style="mix-blend-mode:multiply;isolation:isolate"/><path data-name="Path 5391" d="M828.265 369.857a8.767 8.767 0 0 1-1.035.728 8.659 8.659 0 0 1-1.108.589 7.554 7.554 0 0 1-2.391.639 6.427 6.427 0 0 1-2.448-.271 9.069 9.069 0 0 1-2.245-1.121 7.717 7.717 0 0 0 1.013.777 7.071 7.071 0 0 0 1.151.577 6.039 6.039 0 0 0 1.256.323 6.394 6.394 0 0 0 1.3.034 6.68 6.68 0 0 0 2.47-.738 7.3 7.3 0 0 0 2.037-1.537z" fill="#f99893"/><path data-name="Path 5392" d="M825.095 358.724a12.535 12.535 0 0 1 1.8-.362 6.19 6.19 0 0 1 1.694.025 5.726 5.726 0 0 1 1.612.491c.4.141 1.365.757 1.616.879a4.1 4.1 0 0 0-3.085-2.319 4.108 4.108 0 0 0-2.012.193 3.751 3.751 0 0 0-1.625 1.093z" fill="#925e5e"/><path data-name="Path 5393" d="M819.705 359.136a3.751 3.751 0 0 0-1.743-.888 4.115 4.115 0 0 0-2.021.054 4.1 4.1 0 0 0-2.78 2.677c.237-.153 1.119-.881 1.5-1.068a5.714 5.714 0 0 1 1.54-.684 6.184 6.184 0 0 1 1.678-.231 12.6 12.6 0 0 1 1.826.14z" fill="#925e5e"/></g></g><path data-name="Path 5394" d="M844.773 445.083s3.75 17.649-13.267 21.84-38.493 4.617-38.493 4.617l-.4 41.112-8.958 1.026s-26.729-55.4 4.739-66.31l28.792-1.676 11.8-1.595s11.806-3.72 11.983-3.165 3.54 4.451 3.804 4.151z" fill="#003450"/><path data-name="Path 5395" d="M860.599 444.179s3.751 17.65-13.267 21.84-38.493 4.617-38.493 4.617l-.4 41.112-8.958 1.025s-26.729-55.4 4.738-66.311l28.792-1.676 11.8-1.595s11.806-3.72 11.983-3.165 3.54 4.453 3.805 4.153z" fill="#00486e"/><path data-name="Path 5397" d="M803.692 471.815c.491-.089.981-.172 1.465-.286s.963-.243 1.436-.385c.237-.074.476-.154.71-.24a5.409 5.409 0 0 1-.721-.207 6.109 6.109 0 0 1-1.315-.673 6.887 6.887 0 0 1-1.962-2.133l.487.529c.175.163.337.337.519.489a7.244 7.244 0 0 0 1.132.84 6.791 6.791 0 0 0 1.263.592 4.831 4.831 0 0 0 1.338.27l.8.029-.706.328a9.336 9.336 0 0 1-1.447.506 14.488 14.488 0 0 1-1.48.317 17.457 17.457 0 0 1-3 .247c.494-.074.99-.134 1.481-.223z" fill="#daeef7"/><path data-name="Path 5398" d="M808.201 407.653s2.885 16.788 1.356 26.83c-.756 4.965-10.789 4.952-11.917 6.524l6.384 5.18 15.748-3.831 1.863-36.788z" fill="#f5aaa4"/><path data-name="Path 5399" d="M815.407 411.591s2.875 7.258 3.326 11.113c1.121 9.574-.1 16.328-2.078 21.777-2.779 7.644 18.732 4.736 19.25 4.748 22.731.54 22.519-.387 22.519-.387l3.629-2.913c-.506-9.339-1.8-17.416-1.6-25.745l.208-8.593-1.042-8.686-32.176-2.534z" fill="#feb546"/><path data-name="Path 5411" d="M867.402 404.171l-15.271 7.074s-1.188 19.537-1.925 20.4c-1.336 1.564-14.877 6.047-22.01 7.358a6.67 6.67 0 0 1-3.429-.269c-3.537-1.25-9.8-.094-10.786-.428-1.551-.525-5.925-1.558-6.21-1.041-.265.48 3.406.843 5.567 1.916.3.151.02.535-.056.518a32 32 0 0 0-5.5-.892c-1.37.087 3.17.928 5.458 2 .161.076.17.588.015.677-.362.208-1.473.179-4.423-.285-4.922-.773-.39 1.056-.39 1.056s.464-.01 4.731.512c.156.019.213.491-.068.632a7.32 7.32 0 0 1-2.926.727c-1.662.049-.646.746-.646.746a30.625 30.625 0 0 1 4.819.208c1.25.231 6.9-1.181 9.237-.421l.288-.358c3.237.753 33.07 2.934 36.693-5.917 6.667-16.268 6.832-34.213 6.832-34.213z" fill="#ffc0bb"/><path data-name="Path 5412" d="M822.653 382.876s8.646 10.091 18.565-2.142c0 0 10.838-.883 18.829 4.792s12.776 18.421 12.776 18.421-11.47 7.644-20.714 7.644l-21.681-7.764-15.022 7.764a37.91 37.91 0 0 1-12.882-3.475s1.02-20.26 20.129-25.24z" fill="#feb546"/><path data-name="Path 5413" d="M849.473 400.092c.373 1.251.708 2.513 1.041 3.776.623 2.479 1.2 4.841 1.617 7.378a13.6 13.6 0 0 0 2.44-.19 47.333 47.333 0 0 0 10.631-3.433c5.568-2.536 4.817-2.291 7.621-3.676a73.138 73.138 0 0 1-7.389 4.179 40.578 40.578 0 0 1-10.746 3.677 10.589 10.589 0 0 1-3.192.122c-.282-1.86-.606-3.765-1.495-7.936l-.828-3.82-.852-3.819c.414 1.239.781 2.491 1.152 3.742z" fill="#ac741f"/><path data-name="Path 5414" d="M815.109 402.439a21.532 21.532 0 0 0-.366 4.629 31.355 31.355 0 0 0 1.22 4.969l-.357.135a34.567 34.567 0 0 1-1.455-5.057 16.7 16.7 0 0 1 .209-4.81 25.3 25.3 0 0 1 1.306-4.609 24.406 24.406 0 0 1 2.1-4.279q-.85 2.224-1.541 4.471a39.262 39.262 0 0 0-1.116 4.551z" fill="#ac741f"/><path data-name="Path 5415" d="M839.028 359.987s-14.849-3.582-21.942-13.671c0 0-.123-9.188 13.507-7.1 13.246 2.022 16.346 14.91 8.435 20.771z" fill="#652020"/><path data-name="Rectangle 49" fill="#cdd5d7" d="M774.172 445.001h53.735v3.66h-53.735z"/><path data-name="Path 5147" d="M804.193 446.639a1.47 1.47 0 0 1-1.363 1.555h-27.552c-.713 0-1.769-.549-2.682-2.718l-13.627-24.877a1.427 1.427 0 0 1 1.605-1.555l28.273.849a2.633 2.633 0 0 1 1.784 1.891z" fill="#99e0ff"/></g><path data-name="Path 7418" d="M1092.42 435.784s-1.245-1.828.098-2.932 2.694-.497 4.187 1.17c4 4.459.169 6.589-1.122 5.36a44.372 44.372 0 0 1-3.163-3.598z" fill="#fdb98b"/><path data-name="Path 7419" d="M1089.678 438.835s-1.245-1.825.097-2.932 2.695-.495 4.188 1.17c4.002 4.458.169 6.59-1.12 5.363a44.51 44.51 0 0 1-3.165-3.6z" fill="#fdb98b"/><path data-name="Path 7420" d="M1086.815 442.113s-1.246-1.824.099-2.93 2.692-.496 4.187 1.169c4.002 4.459.17 6.59-1.121 5.362a44.887 44.887 0 0 1-3.165-3.6z" fill="#fdb98b"/><g data-name="Group 2085"><g data-name="Group 2083"><path data-name="Path 9141" d="M1280.088 803.065c0 2.574-27.506 4.661-61.435 4.661s-61.435-2.087-61.435-4.661 27.506-4.661 61.435-4.661 61.435 2.087 61.435 4.661z" fill="#c0c0ce"/><g data-name="Group 1521"><g data-name="Group 1479"><g data-name="Group 1478"><g data-name="Group 1477"><g data-name="Group 1476"><g data-name="Group 1475"><g data-name="Group 1474"><path data-name="Path 9142" d="M1236.81 775.186l1.424 12.645a14.257 14.257 0 0 0 10.383-1.693v-12.6s-9.755-.977-11.807 1.648z" fill="#e69680"/></g></g></g></g></g></g><g data-name="Group 1485"><g data-name="Group 1484"><g data-name="Group 1483"><g data-name="Group 1482"><g data-name="Group 1481"><g data-name="Group 1480"><path data-name="Path 9143" d="M1252.737 579.708l-2.308 127.482-.353 67.047-14.967.877s-10.5-60.57-5.129-77.911c-7.752-29.747-9.575-71.48-11.13-116.362z" fill="#2e505b"/></g></g></g></g></g></g><path data-name="Path 9144" d="M1226.154 600.297s-.04 69.2 9.028 96.617c0 0-6.318 21.284 3.94 73.8" fill="none" stroke="#1c323e" stroke-linecap="round" stroke-linejoin="round" stroke-width="1.5"/><g data-name="Group 1495"><g data-name="Group 1494"><g data-name="Group 1493"><g data-name="Group 1492"><g data-name="Group 1491"><g data-name="Group 1490"><g data-name="Group 1489"><g data-name="Group 1488"><g data-name="Group 1487"><g data-name="Group 1486"><path data-name="Path 9145" d="M1251.49 770.286a13.125 13.125 0 0 1-.382 8.092l-16.975-.328a21.684 21.684 0 0 1-.733-8.06z" fill="#42717c"/></g></g></g></g></g></g></g></g></g></g><g data-name="Group 1520"><g data-name="Group 1501"><g data-name="Group 1500"><g data-name="Group 1499"><g data-name="Group 1498"><g data-name="Group 1497"><g data-name="Group 1496"><path data-name="Path 9146" d="M1233.451 800.771c.04 1.646.145 2.755.145 2.755h41.75a7.215 7.215 0 0 0-.187-2.755c-2.294-8.392-20.3-8.57-21.823-12.5-3.267-8.47-5.75-3.49-5.75-3.49s-9.485-1.982-11.949 2.64c-1.322 2.476-2.276 9.635-2.186 13.35z" fill="#df644a"/></g></g></g></g></g></g><g data-name="Group 1505"><g data-name="Group 1504"><g data-name="Group 1503"><g data-name="Group 1502"><path data-name="Path 9147" d="M1259.263 795.399a.5.5 0 0 1-.136-.019.517.517 0 0 1-.363-.634 4.145 4.145 0 0 1 2.148-2.912 4.279 4.279 0 0 1 3.326.106.517.517 0 0 1-.448.932 3.262 3.262 0 0 0-2.455-.1 3.2 3.2 0 0 0-1.573 2.24.517.517 0 0 1-.499.387z" fill="#f4f5f5"/></g></g></g></g><g data-name="Group 1509"><g data-name="Group 1508"><g data-name="Group 1507"><g data-name="Group 1506"><path data-name="Path 9148" d="M1256.732 794.31a.505.505 0 0 1-.136-.019.517.517 0 0 1-.363-.634 4.147 4.147 0 0 1 2.148-2.912 4.271 4.271 0 0 1 3.326.107.517.517 0 0 1-.448.931 3.264 3.264 0 0 0-2.454-.1 3.194 3.194 0 0 0-1.574 2.24.517.517 0 0 1-.499.387z" fill="#f4f5f5"/></g></g></g></g><g data-name="Group 1513"><g data-name="Group 1512"><g data-name="Group 1511"><g data-name="Group 1510"><path data-name="Path 9149" d="M1254.132 793.619a.493.493 0 0 1-.135-.019.517.517 0 0 1-.364-.634 4.152 4.152 0 0 1 2.148-2.913 4.271 4.271 0 0 1 3.325.108.517.517 0 0 1-.448.932 3.26 3.26 0 0 0-2.454-.1 3.194 3.194 0 0 0-1.574 2.24.517.517 0 0 1-.498.386z" fill="#f4f5f5"/></g></g></g></g><g data-name="Group 1519"><g data-name="Group 1518"><g data-name="Group 1517"><g data-name="Group 1516"><g data-name="Group 1515"><g data-name="Group 1514"><path data-name="Path 9150" d="M1233.451 800.768c.04 1.646.145 2.755.145 2.755h41.75a7.216 7.216 0 0 0-.187-2.755z" fill="#c53b39"/></g></g></g></g></g></g></g></g><g data-name="Group 1569"><g data-name="Group 1527"><g data-name="Group 1526"><g data-name="Group 1525"><g data-name="Group 1524"><g data-name="Group 1523"><g data-name="Group 1522"><path data-name="Path 9151" d="M1176.002 775.186l-.6 12.975s6.81 3.135 11.683 0l.725-14.628s-9.756-.972-11.808 1.653z" fill="#e69680"/></g></g></g></g></g></g><g data-name="Group 1533"><g data-name="Group 1532"><g data-name="Group 1531"><g data-name="Group 1530"><g data-name="Group 1529"><g data-name="Group 1528"><path data-name="Path 9152" d="M1235.061 579.889s2.675 13.1-17.095 30.173l-14.527 90.982-13.56 71.714-14.632-.08s2.923-50.744 6.659-81.556l7.083-110.349z" fill="#42717c"/></g></g></g></g></g></g><g data-name="Group 1558"><g data-name="Group 1539"><g data-name="Group 1538"><g data-name="Group 1537"><g data-name="Group 1536"><g data-name="Group 1535"><g data-name="Group 1534"><path data-name="Path 9153" d="M1166.049 804.179h27.811a15.8 15.8 0 0 0 .315-2.957 15.551 15.551 0 0 0-.315-3.541c-.72-3.412-3.681-2.561-6.2-9.586a9.982 9.982 0 0 0-2.733-3.438 6.216 6.216 0 0 0-9.1-.013c-4.037 4.13-5.1 9.311-7.62 11.412a7.2 7.2 0 0 0-2.328 5.166 11.824 11.824 0 0 0 .17 2.957z" fill="#df644a"/></g></g></g></g></g></g><g data-name="Group 1543"><g data-name="Group 1542"><g data-name="Group 1541"><g data-name="Group 1540"><path data-name="Path 9154" d="M1185.405 792.755a.517.517 0 0 1-.462-.284c-.045-.085-1.183-2.175-4.925-2.175-3.782 0-4.914 2.153-4.925 2.175a.517.517 0 0 1-.923-.466c.057-.112 1.437-2.743 5.848-2.743s5.791 2.631 5.848 2.743a.518.518 0 0 1-.229.695.509.509 0 0 1-.232.055z" fill="#f4f5f5"/></g></g></g></g><g data-name="Group 1547"><g data-name="Group 1546"><g data-name="Group 1545"><g data-name="Group 1544"><path data-name="Path 9155" d="M1185.405 790.295a.518.518 0 0 1-.462-.284c-.045-.085-1.183-2.176-4.925-2.176-3.782 0-4.914 2.154-4.925 2.176a.517.517 0 1 1-.923-.466c.057-.112 1.437-2.743 5.848-2.743s5.791 2.631 5.848 2.743a.517.517 0 0 1-.461.75z" fill="#f4f5f5"/></g></g></g></g><g data-name="Group 1551"><g data-name="Group 1550"><g data-name="Group 1549"><g data-name="Group 1548"><path data-name="Path 9156" d="M1185.405 788.033a.517.517 0 0 1-.462-.283c-.045-.086-1.183-2.176-4.925-2.176-3.782 0-4.914 2.154-4.925 2.176a.517.517 0 0 1-.923-.466c.057-.112 1.437-2.743 5.848-2.743s5.791 2.631 5.848 2.743a.516.516 0 0 1-.229.694.509.509 0 0 1-.232.055z" fill="#f4f5f5"/></g></g></g></g><g data-name="Group 1557"><g data-name="Group 1556"><g data-name="Group 1555"><g data-name="Group 1554"><g data-name="Group 1553"><g data-name="Group 1552"><path data-name="Path 9157" d="M1166.049 804.179h27.811a15.8 15.8 0 0 0 .315-2.957h-28.293a11.824 11.824 0 0 0 .167 2.957z" fill="#c53b39"/></g></g></g></g></g></g></g><g data-name="Group 1568"><g data-name="Group 1567"><g data-name="Group 1566"><g data-name="Group 1565"><g data-name="Group 1564"><g data-name="Group 1563"><g data-name="Group 1562"><g data-name="Group 1561"><g data-name="Group 1560"><g data-name="Group 1559"><path data-name="Path 9158" d="M1191.185 770.838a13.132 13.132 0 0 1-.382 8.092l-18.07-.348a20.8 20.8 0 0 1-.373-7.924z" fill="#428596"/></g></g></g></g></g></g></g></g></g></g></g><g data-name="Group 1570"><path data-name="Path 9159" d="M1253.182 585.833c-1.666 7.4-67.17 25.523-67.17 10.03 0-10.633 3.185-49.689 3.808-66.507a47.881 47.881 0 0 0-.4-6.86c0-.026-.007-.051-.01-.078-.021-.207-.046-.42-.073-.632 0-.047-.012-.091-.017-.14-.093-.742-.2-1.506-.306-2.291 0-.02-.007-.041-.01-.061a.973.973 0 0 0-.021-.132l-.052-.366c-.2-1.4-.43-2.851-.676-4.347-.132-.824-.274-1.659-.415-2.506-.228-1.336-.467-2.7-.708-4.074l-.408-2.3c-2.474-14.009-5.026-28.582-1.807-31.479 5.842-5.256 24.451-12.464 24.451-12.464l16.742.236s21.62 4.749 24.143 10.366c1.773 3.944 1.231 19.407.694 34.232-.034.935-.068 1.868-.1 2.794-.078 2.146-.151 4.266-.215 6.316-.01.351-.022.7-.031 1.047-.018.564-.032 1.122-.047 1.671-.054 2.015-.09 3.942-.107 5.742v.31c-.022 2.768.059 5.816.212 9.059q.07 1.451.156 2.95c1.271 22.474 4.529 39.879 2.367 49.484z" fill="#f4f5f5"/></g><g data-name="Group 1571"><path data-name="Path 9160" d="M1204.288 520.183l7.865-13.817 8.284 13.817-8.075 14.594z" fill="#d0d5db"/></g><g data-name="Group 1572"><path data-name="Path 9161" d="M1204.289 520.183l-8.074 14.594-6.8-12.28c0-.026-.007-.051-.01-.078-.021-.207-.046-.42-.073-.632 0-.047-.012-.091-.017-.14-.093-.742-.2-1.506-.306-2.291 0-.02-.007-.041-.01-.061a.982.982 0 0 0-.021-.132l-.052-.366 7.076-12.427z" fill="#d0d5db"/></g><g data-name="Group 1573"><path data-name="Path 9162" d="M1220.438 520.183l7.865-13.817 8.285 13.817-8.075 14.594z" fill="#d0d5db"/></g><g data-name="Group 1574"><path data-name="Path 9163" d="M1250.596 516.609c-.018.564-.032 1.122-.047 1.671-.054 2.015-.09 3.942-.107 5.742v.31l-5.777 10.442-8.076-14.594 7.866-13.816z" fill="#d0d5db"/></g><g data-name="Group 1579"><g data-name="Group 1578"><g data-name="Group 1577"><g data-name="Group 1576"><g data-name="Group 1575"><path data-name="Path 9164" d="M1237.955 568.369a.768.768 0 0 1-.124-.011c-10.248-1.767-18.816-10.829-24.2-18.12a97.3 97.3 0 0 1-9.28-15.462.72.72 0 0 1 1.311-.6 95.681 95.681 0 0 0 9.143 15.225c5.223 7.069 13.5 15.851 23.27 17.535a.72.72 0 0 1-.121 1.429z" fill="#d0d5db"/></g></g></g></g></g><g data-name="Group 1586"><g data-name="Group 1585"><g data-name="Group 1584"><g data-name="Group 1583"><g data-name="Group 1582"><g data-name="Group 1581"><g data-name="Group 1580"><path data-name="Path 9165" d="M1223.019 475.454a24.042 24.042 0 0 1-9.571-2.081 28.01 28.01 0 0 1-7.031-4.318.67.67 0 0 1 .894-1c.1.093 10.461 9.2 22.316 4.9a.669.669 0 0 1 .455 1.257 20.6 20.6 0 0 1-7.063 1.242z" fill="#d0d5db"/></g></g></g></g></g></g></g><g data-name="Group 1593"><g data-name="Group 1592"><g data-name="Group 1591"><g data-name="Group 1590"><g data-name="Group 1589"><g data-name="Group 1588"><g data-name="Group 1587"><path data-name="Path 9166" d="M1236.962 580.453c-8.28 0-16.136-2.95-21.77-5.783a72.766 72.766 0 0 1-13.151-8.482.669.669 0 1 1 .869-1.017 71.288 71.288 0 0 0 12.911 8.318c6.994 3.513 17.494 7.216 27.793 4.913a.669.669 0 1 1 .292 1.305 31.729 31.729 0 0 1-6.944.746z" fill="#d0d5db"/></g></g></g></g></g></g></g><g data-name="Group 1600"><g data-name="Group 1599"><g data-name="Group 1598"><g data-name="Group 1597"><g data-name="Group 1596"><g data-name="Group 1595"><g data-name="Group 1594"><path data-name="Path 9167" d="M1227.427 584.591a34.213 34.213 0 0 1-13.852-2.949.669.669 0 0 1 .587-1.2c.091.044 9.2 4.4 19.411 2.159a.669.669 0 0 1 .286 1.307 29.986 29.986 0 0 1-6.432.683z" fill="#d0d5db"/></g></g></g></g></g></g></g><g data-name="Group 1610"><g data-name="Group 1609"><g data-name="Group 1608"><g data-name="Group 1607"><g data-name="Group 1606"><g data-name="Group 1605"><g data-name="Group 1604"><g data-name="Group 1603"><g data-name="Group 1602"><g data-name="Group 1601"><path data-name="Path 9168" d="M1151.346 481.676c2.407-.194 5.045-.512 7.665-.873 1.985-.27 3.963-.566 5.829-.846 5.33-.804 10.844-1.704 16.064-2.95 6.686 1.587 16.684 4.585 19.944 8.88a8.822 8.822 0 0 1-6.128 5.39c-4.476 1.103-8.983 2.207-13.55 3.25s-9.194 2.026-13.92 2.855c-.379.068-.759.133-1.14.198-4.36.752-8.803 1.361-13.33 1.726a109.386 109.386 0 0 1-14.971.238l-.017-.005a8.847 8.847 0 0 1-4.433-1.497l-.163-.118-.113-.081-.193-.151-.355-.286a40.178 40.178 0 0 1-1.868-1.608 80.966 80.966 0 0 1-2.278-2.126 103.582 103.582 0 0 1-4.196-4.35 130.99 130.99 0 0 1-7.56-9.11c-1.187-1.553-2.323-3.137-3.445-4.728s-2.198-3.206-3.241-4.835q-3.148-4.884-5.939-9.929a6.013 6.013 0 0 1 10.108-6.471l.018.025q3.184 4.337 6.622 8.419a148.152 148.152 0 0 0 3.502 4.008 140.301 140.301 0 0 0 3.635 3.845 115.16 115.16 0 0 0 7.637 7.117 88.628 88.628 0 0 0 3.974 3.18 47.169 47.169 0 0 0 1.576 1.14 95.501 95.501 0 0 0 10.265-.307z" fill="#fdb98b"/></g></g></g></g></g></g></g></g></g></g><g data-name="Group 1619"><g data-name="Group 1618"><g data-name="Group 1617"><path data-name="Path 9169" d="M1168.545 501.012l17.217-3.6s7.162-1.095 10.206-3.338c5.533-4.075 8.014-5.813 11.945-11.92.665-1.03 2.694-5.441 2.2-6.428-10.1-4.024-36.064-.828-40.722.983 0 0-5.51 12.274-.846 24.303z" fill="#f4f5f5"/></g></g></g><g data-name="Group 1633"><g data-name="Group 1632"><g data-name="Group 1631"><g data-name="Group 1630"><g data-name="Group 1629"><g data-name="Group 1628"><g data-name="Group 1627"><g data-name="Group 1626"><path data-name="Path 9170" d="M1140.373 489.647a.617.617 0 0 1-.405-.77 25.718 25.718 0 0 0 .662-7.214c.15.106.3.212.45.315.262.008.524.014.789.016a25.663 25.663 0 0 1-.727 7.25.621.621 0 0 1-.77.403z" fill="#e06c5c"/></g></g></g></g></g></g></g></g><g data-name="Group 1647"><g data-name="Group 1646"><g data-name="Group 1645"><g data-name="Group 1644"><g data-name="Group 1643"><g data-name="Group 1642"><g data-name="Group 1641"><g data-name="Group 1640"><path data-name="Path 9171" d="M1140.676 483.427a.6.6 0 0 1 .173-.248.614.614 0 0 1 .867.064 28.144 28.144 0 0 1 2.793 4.932.614.614 0 0 1-1.12.506 27.729 27.729 0 0 0-2.603-4.636.615.615 0 0 1-.11-.618z" fill="#e06c5c"/></g></g></g></g></g></g></g></g><g data-name="Group 2024"><g data-name="Group 1679"><g data-name="Group 1678"><g data-name="Group 1677"><g data-name="Group 1676"><g data-name="Group 1675"><g data-name="Group 1674"><g data-name="Group 1673"><g data-name="Group 1672"><path data-name="Path 9173" d="M1108.849 465.745s7.148-2.957 9.444-7.545a4.333 4.333 0 0 0-2.983-4.08s-8.23 6.735-10.672 7.858a5.836 5.836 0 0 0 4.21 3.767z" fill="#182118"/></g></g></g></g></g></g></g></g><g data-name="Group 1692"><g data-name="Group 1691"><g data-name="Group 1690"><g data-name="Group 1689"><g data-name="Group 1688"><g data-name="Group 1687"><g data-name="Group 1686"><g data-name="Group 1685"><path data-name="Path 9174" d="M1114.065 458.488a4.183 4.183 0 0 0-5.795-1.114 4.184 4.184 0 0 0-.558 5.873 4.183 4.183 0 0 0 5.796 1.118 4.183 4.183 0 0 0 .557-5.877z" fill="#182118"/></g></g></g></g></g></g></g></g><g data-name="Group 1705"><g data-name="Group 1704"><g data-name="Group 1703"><g data-name="Group 1702"><g data-name="Group 1701"><g data-name="Group 1700"><g data-name="Group 1699"><g data-name="Group 1698"><path data-name="Path 9175" d="M1113.09 459.305a3.06 3.06 0 0 0-4.24-.814 3.06 3.06 0 0 0-.406 4.298 3.06 3.06 0 0 0 4.24.815 3.06 3.06 0 0 0 .407-4.299z" fill="#2e505b"/></g></g></g></g></g></g></g></g></g><g data-name="Group 1725"><g data-name="Group 1724"><g data-name="Group 1723"><g data-name="Group 1722"><path data-name="Path 9177" d="M1194.931 496.511a57.417 57.417 0 0 0-4.6 6.169 113.154 113.154 0 0 0-3.205 5.186q-.2-1.144-.406-2.3a72.625 72.625 0 0 1 7.071-10.053.757.757 0 1 1 1.137 1z" fill="#d0d5db"/></g></g></g></g><g data-name="Group 1729"><g data-name="Group 1728"><g data-name="Group 1727"><g data-name="Group 1726"><path data-name="Path 9178" d="M1189.017 504.453a.758.758 0 0 1-.159-1.5 44.083 44.083 0 0 1 5.964-.791.758.758 0 0 1 .093 1.513 43.487 43.487 0 0 0-5.737.76.769.769 0 0 1-.161.018z" fill="#d0d5db"/></g></g></g></g><g data-name="Group 1792"><g data-name="Group 1745"><g data-name="Group 1744"><g data-name="Group 1743"><g data-name="Group 1742"><g data-name="Group 1741"><g data-name="Group 1740"><g data-name="Group 1739"><g data-name="Group 1738"><g data-name="Group 1737"><g data-name="Group 1736"><g data-name="Group 1735"><g data-name="Group 1734"><g data-name="Group 1733"><g data-name="Group 1732"><g data-name="Group 1731"><g data-name="Group 1730"><path data-name="Path 9179" d="M1286.768 536.202v-.018a109.35 109.35 0 0 0-4.6-14.248c-1.672-4.222-3.554-8.293-5.539-12.244-.174-.346-.347-.69-.523-1.034-2.18-4.271-4.471-8.411-6.8-12.476s-4.7-8.049-7.07-12.007a8.822 8.822 0 0 0-6.945-4.281c-3.154 4.374-3.1 14.81-2.661 21.669 2.717 4.625 5.19 9.635 7.518 14.5.816 1.7 1.673 3.508 2.514 5.327 1.111 2.4 2.186 4.829 3.076 7.075a95.912 95.912 0 0 1 3.071 8.97c.075.253.146.506.217.757a52.917 52.917 0 0 1-.63 1.841 85.081 85.081 0 0 1-1.879 4.73c-1.358 3.157-2.9 6.3-4.574 9.384a149.21 149.21 0 0 1-2.614 4.6 153 153 0 0 1-2.809 4.521q-1.29 1.994-2.648 3.958v14.321a6.01 6.01 0 0 0 5.659-1.685q4.008-4.141 7.76-8.579c1.252-1.474 2.469-2.99 3.675-4.513s2.377-3.087 3.516-4.677a130.58 130.58 0 0 0 6.5-9.893c1.017-1.718 2-3.473 2.934-5.292.468-.911.923-1.838 1.368-2.8.225-.479.444-.962.663-1.471.109-.252.217-.516.328-.785l.169-.423.088-.229.048-.132.066-.19a8.848 8.848 0 0 0 .122-4.676z" fill="#fdb98b"/></g></g></g></g></g></g></g></g></g></g></g></g></g></g></g></g><g data-name="Group 1754"><g data-name="Group 1753"><g data-name="Group 1752"><g data-name="Group 1751"><g data-name="Group 1750"><g data-name="Group 1749"><g data-name="Group 1748"><g data-name="Group 1747"><g data-name="Group 1746"><path data-name="Path 9180" d="M1259.387 522.173l-8.311-15.5s-2.851-6.362-4.006-9.962c-2.435-7.593-1.947-10.035-.237-17.606.269-1.191 2.344-6.827 3.419-7.083 9.575 5.148 25.6 29.151 27.2 33.882.003-.003-5.855 12.107-18.065 16.269z" fill="#f4f5f5"/></g></g></g></g></g></g></g></g></g><g data-name="Group 1768"><g data-name="Group 1767"><g data-name="Group 1766"><g data-name="Group 1765"><g data-name="Group 1764"><g data-name="Group 1763"><g data-name="Group 1762"><g data-name="Group 1761"><g data-name="Group 1760"><g data-name="Group 1759"><g data-name="Group 1758"><g data-name="Group 1757"><g data-name="Group 1756"><g data-name="Group 1755"><path data-name="Path 9181" d="M1276.548 536.625a.617.617 0 0 1-.618.612 25.726 25.726 0 0 0-7.093 1.476l.171-.522a45.77 45.77 0 0 0-.216-.759 25.67 25.67 0 0 1 7.145-1.424.621.621 0 0 1 .611.617z" fill="#e06c5c"/></g></g></g></g></g></g></g></g></g></g></g></g></g></g><g data-name="Group 1782"><g data-name="Group 1781"><g data-name="Group 1780"><g data-name="Group 1779"><g data-name="Group 1778"><g data-name="Group 1777"><g data-name="Group 1776"><g data-name="Group 1775"><g data-name="Group 1774"><g data-name="Group 1773"><g data-name="Group 1772"><g data-name="Group 1771"><g data-name="Group 1770"><g data-name="Group 1769"><path data-name="Path 9182" d="M1270.51 538.153a.608.608 0 0 1-.288-.093.614.614 0 0 1-.192-.847 28.085 28.085 0 0 1 3.906-4.113.614.614 0 1 1 .81.923 27.732 27.732 0 0 0-3.676 3.844.615.615 0 0 1-.56.286z" fill="#e06c5c"/></g></g></g></g></g></g></g></g></g></g></g></g></g></g><g data-name="Group 1791"><g data-name="Group 1790"><g data-name="Group 1789"><g data-name="Group 1788"><g data-name="Group 1787"><g data-name="Group 1786"><g data-name="Group 1785"><g data-name="Group 1784"><g data-name="Group 1783"><path data-name="Path 9183" d="M1251.37 580.188s-5.833.535-6.554 2.516 7.44 1.7 7.44 1.7-4 .724-4.292 1.725c-.657 2.27 5.088 1.835 7.692 1.128s1.657-3.079.551-3.139c0 0 1.289-2.782-.385-4.45 0 0 1.742-1.874-.312-4.316 0 0 1.81-3.55-.784-4.236 0 0 .135-4.663-1.546-4.582v4.4c-1.766.024-6.846.211-8.559.718-2.114.626-1.792 3.89 6.4 3.685 0 0-6.79.443-8.286 2.45s4.235 2.458 8.635 2.401z" fill="#efa979"/></g></g></g></g></g></g></g></g></g></g><g data-name="Group 1796"><g data-name="Group 1795"><g data-name="Group 1794"><g data-name="Group 1793"><path data-name="Path 9184" d="M1250.944 506.454c-.034.935-.068 1.868-.1 2.794a106.4 106.4 0 0 0-1.888-3.11q-.542-.868-1.125-1.749a57.244 57.244 0 0 0-4.6-6.169.758.758 0 1 1 1.138-1 69.491 69.491 0 0 1 6.575 9.234z" fill="#d0d5db"/></g></g></g></g><g data-name="Group 1800"><g data-name="Group 1799"><g data-name="Group 1798"><g data-name="Group 1797"><path data-name="Path 9185" d="M1248.988 506.145a43.108 43.108 0 0 0-5.737-.76.758.758 0 0 1 .093-1.513 44.072 44.072 0 0 1 5.963.791.759.759 0 0 1 .581.9s-.212.761-.9.582z" fill="#d0d5db"/></g></g></g></g><g data-name="Group 2023"><path data-name="Path 9186" d="M1199.696 426.347s-6.839-8.792-2.442-15.143 13.433-.488 13.433-.488 9.769-3.419 15.387-.488 5.862 7.571 5.862 7.571a7.952 7.952 0 0 1 3.175 6.106 15.847 15.847 0 0 1-2.394 7.561z" fill="#1c323e"/><g data-name="Group 1813"><g data-name="Group 1812"><g data-name="Group 1811"><g data-name="Group 1810"><g data-name="Group 1809"><g data-name="Group 1808"><g data-name="Group 1807"><g data-name="Group 1806"><g data-name="Group 1805"><g data-name="Group 1804"><g data-name="Group 1803"><g data-name="Group 1802"><g data-name="Group 1801"><path data-name="Path 9187" d="M1202.371 435.866s-4.037-1.64-5.038 3.116 4 9.762 8.01 8.135c-.004 0-.942-9.238-2.972-11.251z" fill="#e69680"/></g></g></g></g></g></g></g></g></g></g></g></g></g><g data-name="Group 1846"><g data-name="Group 1829"><g data-name="Group 1828"><g data-name="Group 1827"><g data-name="Group 1826"><g data-name="Group 1825"><g data-name="Group 1824"><g data-name="Group 1823"><g data-name="Group 1822"><g data-name="Group 1821"><g data-name="Group 1820"><g data-name="Group 1819"><g data-name="Group 1818"><g data-name="Group 1817"><g data-name="Group 1816"><g data-name="Group 1815"><g data-name="Group 1814"><path data-name="Path 9188" d="M1204.293 445.33a.529.529 0 0 1-.507-.437 8.817 8.817 0 0 0-3.332-5.379.529.529 0 0 1 .589-.879 9.738 9.738 0 0 1 3.785 6.074.53.53 0 0 1-.428.614.563.563 0 0 1-.107.007z" fill="#e06c5c"/></g></g></g></g></g></g></g></g></g></g></g></g></g></g></g></g><g data-name="Group 1845"><g data-name="Group 1844"><g data-name="Group 1843"><g data-name="Group 1842"><g data-name="Group 1841"><g data-name="Group 1840"><g data-name="Group 1839"><g data-name="Group 1838"><g data-name="Group 1837"><g data-name="Group 1836"><g data-name="Group 1835"><g data-name="Group 1834"><g data-name="Group 1833"><g data-name="Group 1832"><g data-name="Group 1831"><g data-name="Group 1830"><path data-name="Path 9189" d="M1200.227 442.757a.529.529 0 0 1-.234-1 5.9 5.9 0 0 1 3.176-.666.529.529 0 0 1-.191 1.04 4.774 4.774 0 0 0-2.494.564.536.536 0 0 1-.257.062z" fill="#e06c5c"/></g></g></g></g></g></g></g></g></g></g></g></g></g></g></g></g></g><g data-name="Group 1859"><g data-name="Group 1858"><g data-name="Group 1857"><g data-name="Group 1856"><g data-name="Group 1855"><g data-name="Group 1854"><g data-name="Group 1853"><g data-name="Group 1852"><g data-name="Group 1851"><g data-name="Group 1850"><g data-name="Group 1849"><g data-name="Group 1848"><g data-name="Group 1847"><path data-name="Path 9190" d="M1230.898 435.866s4.037-1.64 5.038 3.116-4.005 9.762-8.01 8.135c0 0 .937-9.238 2.972-11.251z" fill="#e69680"/></g></g></g></g></g></g></g></g></g></g></g></g></g><g data-name="Group 1892"><g data-name="Group 1875"><g data-name="Group 1874"><g data-name="Group 1873"><g data-name="Group 1872"><g data-name="Group 1871"><g data-name="Group 1870"><g data-name="Group 1869"><g data-name="Group 1868"><g data-name="Group 1867"><g data-name="Group 1866"><g data-name="Group 1865"><g data-name="Group 1864"><g data-name="Group 1863"><g data-name="Group 1862"><g data-name="Group 1861"><g data-name="Group 1860"><path data-name="Path 9191" d="M1228.97 445.33a.529.529 0 0 0 .508-.437 8.812 8.812 0 0 1 3.332-5.379.529.529 0 0 0-.589-.879 9.738 9.738 0 0 0-3.788 6.074.53.53 0 0 0 .428.614.553.553 0 0 0 .109.007z" fill="#e06c5c"/></g></g></g></g></g></g></g></g></g></g></g></g></g></g></g></g><g data-name="Group 1891"><g data-name="Group 1890"><g data-name="Group 1889"><g data-name="Group 1888"><g data-name="Group 1887"><g data-name="Group 1886"><g data-name="Group 1885"><g data-name="Group 1884"><g data-name="Group 1883"><g data-name="Group 1882"><g data-name="Group 1881"><g data-name="Group 1880"><g data-name="Group 1879"><g data-name="Group 1878"><g data-name="Group 1877"><g data-name="Group 1876"><path data-name="Path 9192" d="M1233.037 442.757a.529.529 0 0 0 .233-1 5.9 5.9 0 0 0-3.176-.666.529.529 0 1 0 .191 1.04 4.774 4.774 0 0 1 2.494.564.535.535 0 0 0 .258.062z" fill="#e06c5c"/></g></g></g></g></g></g></g></g></g></g></g></g></g></g></g></g></g><g data-name="Group 1907"><g data-name="Group 1905"><g data-name="Group 1904"><g data-name="Group 1903"><g data-name="Group 1902"><g data-name="Group 1901"><g data-name="Group 1900"><g data-name="Group 1899"><g data-name="Group 1898"><g data-name="Group 1897"><g data-name="Group 1896"><g data-name="Group 1895"><g data-name="Group 1894"><g data-name="Group 1893"><path data-name="Path 9193" d="M1226.154 464.541a13.711 13.711 0 0 1-17.484 0l.206-2.351 1.024-11.784h14.8l.7 6.823z" fill="#e69680"/></g></g></g></g></g></g></g></g></g></g></g></g></g><g data-name="Group 1906"><path data-name="Path 9194" d="M1225.401 457.229c-1.689 2.085-6.452 6.334-16.525 4.962l1.025-11.785h14.8z" fill="#bf6249"/></g></g><g data-name="Group 1920"><g data-name="Group 1919"><g data-name="Group 1918"><g data-name="Group 1917"><g data-name="Group 1916"><g data-name="Group 1915"><g data-name="Group 1914"><g data-name="Group 1913"><g data-name="Group 1912"><g data-name="Group 1911"><g data-name="Group 1910"><g data-name="Group 1909"><g data-name="Group 1908"><path data-name="Path 9195" d="M1231.512 436.785c-.177 1.217-.4 2.5-.686 3.814a55.504 55.504 0 0 1-1.314 5.026c-2.489 7.9-6.974 15.13-14.048 13.707-5.9-1.186-9.472-7.293-11.623-13.749a56.89 56.89 0 0 1-1.4-4.984 75.891 75.891 0 0 1-.64-3.057 80.718 80.718 0 0 1-.9-6.108 5.107 5.107 0 0 1 2.122-4.727c11.85-8.385 27.705-2.869 28.786 1.909a27.936 27.936 0 0 1-.297 8.169z" fill="#e69680"/></g></g></g></g></g></g></g></g></g></g></g></g></g><path data-name="Path 9196" d="M1220.754 434.684s.264-2.447 2.193-2.576 4.8.816 4.677 3.307z" fill="#1c323e"/><path data-name="Path 9197" d="M1214.006 434.684s-.265-2.447-2.193-2.576-4.806.816-4.678 3.307z" fill="#1c323e"/><g data-name="Group 1933"><g data-name="Group 1932"><g data-name="Group 1931"><g data-name="Group 1930"><g data-name="Group 1929"><g data-name="Group 1928"><g data-name="Group 1927"><g data-name="Group 1926"><g data-name="Group 1925"><g data-name="Group 1924"><g data-name="Group 1923"><g data-name="Group 1922"><g data-name="Group 1921"><path data-name="Path 9198" d="M1233.092 427.502c-.125 4.8-2.242 14.182-3 13.811-.847-.414-.023-6.332-.035-8.121l-.594-4.873.9-1.913a23.722 23.722 0 0 0-13.4-3.223c-8.223.442-12.859 3.271-12.859 3.271l.949 1.865c-.144 1.486-1.452 7.278-1.452 7.278-.116.668-.386 5.479-.792 5.348-.791-.255-2.007-8.989-2.558-10.519a10.675 10.675 0 0 1-.469-3.97c.2-3.384 1.968-8.089 9.063-11.286 8.628-3.888 22.762-1.441 24.2 10.809a10.912 10.912 0 0 1 .047 1.523z" fill="#1c323e"/></g></g></g></g></g></g></g></g></g></g></g></g></g><path data-name="Path 9199" d="M1233.092 427.497l-3.624.817.9-1.913a23.722 23.722 0 0 0-13.4-3.223c-8.223.442-12.859 3.271-12.859 3.271l.949 1.865-5.271-1.863c-.514-3.121 1.459-9.077 8.554-12.272 8.628-3.888 23.659-1.522 24.707 11.8a14.293 14.293 0 0 1 .044 1.518z" fill="#1c323e"/><g data-name="Group 1946"><g data-name="Group 1945"><g data-name="Group 1944"><g data-name="Group 1943"><g data-name="Group 1942"><g data-name="Group 1941"><g data-name="Group 1940"><g data-name="Group 1939"><g data-name="Group 1938"><g data-name="Group 1937"><g data-name="Group 1936"><g data-name="Group 1935"><g data-name="Group 1934"><path data-name="Path 9200" d="M1210.567 441.866c.011.834-1.3 1.528-2.939 1.549s-2.967-.638-2.978-1.471 1.3-1.529 2.939-1.55 2.968.635 2.978 1.472z" fill="#e06c5c"/></g></g></g></g></g></g></g></g></g></g></g></g></g><g data-name="Group 1959"><g data-name="Group 1958"><g data-name="Group 1957"><g data-name="Group 1956"><g data-name="Group 1955"><g data-name="Group 1954"><g data-name="Group 1953"><g data-name="Group 1952"><g data-name="Group 1951"><g data-name="Group 1950"><g data-name="Group 1949"><g data-name="Group 1948"><g data-name="Group 1947"><path data-name="Path 9201" d="M1229.033 441.866c.011.834-1.305 1.528-2.94 1.549s-2.967-.638-2.978-1.471 1.305-1.529 2.939-1.55 2.968.635 2.979 1.472z" fill="#e06c5c"/></g></g></g></g></g></g></g></g></g></g></g></g></g><g data-name="Group 1981"><g data-name="Group 1980"><g data-name="Group 1979"><g data-name="Group 1978"><g data-name="Group 1977"><g data-name="Group 1976"><path data-name="Path 9203" d="M1212.19 448.665s6.359.992 10.443 0c0 0-1.284 4.258-5.357 4.258-3.46 0-5.086-4.258-5.086-4.258z" fill="#f4f5f5"/></g></g></g></g></g></g><g data-name="Group 1995"><g data-name="Group 1994"><g data-name="Group 1993"><g data-name="Group 1992"><g data-name="Group 1991"><g data-name="Group 1990"><g data-name="Group 1989"><g data-name="Group 1988"><g data-name="Group 1987"><g data-name="Group 1986"><g data-name="Group 1985"><g data-name="Group 1984"><g data-name="Group 1983"><g data-name="Group 1982"><path data-name="Path 9204" d="M1212.336 438.532c.015.825-.343 1.5-.8 1.508s-.836-.655-.851-1.479.343-1.5.8-1.508.836.655.851 1.479z" fill="#1c323e"/></g></g></g></g></g></g></g></g></g></g></g></g></g></g><g data-name="Group 2009"><g data-name="Group 2008"><g data-name="Group 2007"><g data-name="Group 2006"><g data-name="Group 2005"><g data-name="Group 2004"><g data-name="Group 2003"><g data-name="Group 2002"><g data-name="Group 2001"><g data-name="Group 2000"><g data-name="Group 1999"><g data-name="Group 1998"><g data-name="Group 1997"><g data-name="Group 1996"><path data-name="Path 9205" d="M1222.122 438.532c-.015.825.343 1.5.8 1.508s.836-.655.851-1.479-.343-1.5-.8-1.508-.836.655-.851 1.479z" fill="#1c323e"/></g></g></g></g></g></g></g></g></g></g></g></g></g></g><g data-name="Group 2022"><g data-name="Group 2021"><g data-name="Group 2020"><g data-name="Group 2019"><g data-name="Group 2018"><g data-name="Group 2017"><g data-name="Group 2016"><g data-name="Group 2015"><g data-name="Group 2014"><g data-name="Group 2013"><g data-name="Group 2012"><g data-name="Group 2011"><g data-name="Group 2010"><path data-name="Path 9206" d="M1217.814 445.827a6.8 6.8 0 0 1-1.493-.207.475.475 0 0 1 .225-.923 4.913 4.913 0 0 0 1.579.163c-.033-.782-.561-4.347-1.075-7.517a.475.475 0 1 1 .938-.152c.274 1.689 1.161 7.251 1.08 7.9a.743.743 0 0 1-.324.524 1.683 1.683 0 0 1-.93.212z" fill="#e06c5c"/></g></g></g></g></g></g></g></g></g></g></g></g></g></g><g data-name="Group 530"><path data-name="Path 7410" d="M1095.028 433.94c-.414.424-.826.856-1.243 1.28-.583.588-1.158 1.187-1.73 1.791l-.108.115q-1.32 1.393-2.627 2.81l-.52.561c-.692.748-1.131 1.224-1.828 1.964 1.493 2.234 4.104 5.373 6.24 8.331 3.114 4.315 10.783 8.608 10.783 8.608l7.858-7.37s-3.753-15.943-4.703-15.95c-4.254-.017-2.466 6.869-2.466 6.869a88.235 88.235 0 0 0-5.903-12.577c-1.153 1.231-2.456 2.23-3.63 3.436z" fill="#fdb98b"/><path data-name="Path 7411" d="M1102.4 446.12s-.125 5.921 5.237 6.697c.002-.002-6.435 1.82-5.236-6.697z" fill="#f98d6a"/><path data-name="Path 7412" d="M1099.302 441.117a6.8 6.8 0 0 0-6.11 5.583s-.624-6.724 6.11-5.583z" fill="#f98d6a"/></g></g><g data-name="Group 2084"><g data-name="Group 2082"><path data-name="Path 5066" d="M1101.394 432.024l-6.255-4.523a5.877 5.877 0 0 0-2.224-1.324 1.084 1.084 0 0 0-1.27.836l8.786 7.846z" fill="#e9d6b8"/><g data-name="Group 1471" transform="rotate(33 3951.798 -2026.26)"><path d="M2906.878 1563.418h-2.127c-.455 0-.619-.06-.649.515a1.083 1.083 0 0 1-.3.709 1.618 1.618 0 0 1-.694.433 2.03 2.03 0 0 1-.6.127h-9.82a2.04 2.04 0 0 1-.6-.134 1.645 1.645 0 0 1-.694-.433 1.063 1.063 0 0 1-.3-.709c-.03-.575-.194-.522-.649-.522h-2.14a2.341 2.341 0 0 0-2.44 2.237v45.765a2.507 2.507 0 0 0 2.433 2.455h18.58a2.364 2.364 0 0 0 2.268-2.455v-45.765a2.172 2.172 0 0 0-2.268-2.223z" fill="#fff"/><path d="M2910.565 1574.163v-8.387a3.734 3.734 0 0 0-3.821-3.776h-18.565a3.854 3.854 0 0 0-3.955 3.776v3.239H2884v2.015h.224v1.866H2884v3.804h.224v1.119H2884v3.806h.224v29.953a4.045 4.045 0 0 0 3.955 4h18.565a3.926 3.926 0 0 0 3.821-4v-31.221h.3v-6.194zm-9.977-10.484a.328.328 0 1 1-.328-.328.331.331 0 0 1 .328.328zm-4.44-.037h2.91a.19.19 0 1 1 0 .373h-2.91a.19.19 0 1 1 0-.373zm13 47.764a2.364 2.364 0 0 1-2.268 2.455h-18.58a2.5 2.5 0 0 1-2.433-2.455v-45.765a2.317 2.317 0 0 1 2.433-2.223h2.149c.455 0 .619-.067.649.507a1.12 1.12 0 0 0 .3.716 1.632 1.632 0 0 0 .694.44 2.03 2.03 0 0 0 .6.127h9.808a2.051 2.051 0 0 0 .6-.142 1.632 1.632 0 0 0 .694-.425 1.029 1.029 0 0 0 .3-.7c.03-.575.194-.53.649-.53h2.127a2.172 2.172 0 0 1 2.268 2.224v45.772z" fill="#00486e"/><path d="M2899.058 1563.642h-2.91a.19.19 0 1 0 0 .373h2.91a.2.2 0 0 0 .224-.187.2.2 0 0 0-.224-.186z" fill="#f2f2f2"/><circle cx=".328" cy=".328" r=".328" transform="translate(2899.931 1563.351)" fill="#f2f2f2"/></g><g data-name="Group 1473" fill="#005180"><path d="M1104.674 433.04a9.383 9.383 0 0 1-.364.924 7.579 7.579 0 0 1-.462.814l-.02.03a6.319 6.319 0 0 1-4.056 2.676 6.018 6.018 0 0 1-2.349.017.806.806 0 0 0-.294-.458l-.746-.503a5.877 5.877 0 0 0 3.273.346 5.483 5.483 0 0 0 2.485-1.18l.66-.594a10.354 10.354 0 0 0 .963-1.429c.1-.278.202-.556.284-.805zm-11.51 1.588a6.018 6.018 0 0 1-.864-2.184 6.319 6.319 0 0 1 .965-4.76l.02-.03a8.824 8.824 0 0 1 .62-.79 8.221 8.221 0 0 1 .766-.688l.406.49a4.382 4.382 0 0 0-.7.653 6.826 6.826 0 0 0-.593.686 7.4 7.4 0 0 0-.432.834 4.079 4.079 0 0 0-.325.866 6.066 6.066 0 0 0-.122 2.625 5.877 5.877 0 0 0 1.547 2.905l-.746-.503a.727.727 0 0 0-.542-.104z"/><path d="M1094.996 427.812a4.4 4.4 0 0 1-.537-1.834 4.065 4.065 0 0 1 3.277-4.153 4.608 4.608 0 0 1 1.175-.074 2.86 2.86 0 0 0 .126.648 2.987 2.987 0 0 0-1.155.044 3.3 3.3 0 0 0-2.194 1.465 3.643 3.643 0 0 0-.609 2.057 3.568 3.568 0 0 0 .776 1.995l.178.25.365.42a3.852 3.852 0 0 0-.791.85 3.276 3.276 0 0 0-.513 2.549 3.094 3.094 0 0 0 .746 1.589l-.36.534a4.126 4.126 0 0 1-1.005-1.976l.018-.027a3.871 3.871 0 0 1 .604-3.013 4.576 4.576 0 0 1 .431-.575 5.163 5.163 0 0 1-.532-.749zm2.362 6.832a3.094 3.094 0 0 0 1.752.096 3.421 3.421 0 0 0 2.171-1.43 3.852 3.852 0 0 0 .494-1.052l.495.16.298.071a3.511 3.511 0 0 0 2.17-.008 3.643 3.643 0 0 0 1.68-1.335 3.3 3.3 0 0 0 .535-2.583 2.987 2.987 0 0 0-.392-1.087 2.86 2.86 0 0 0 .652-.125 4.608 4.608 0 0 1 .372 1.117 4.065 4.065 0 0 1-2.623 4.595 4.4 4.4 0 0 1-1.902.189 5.163 5.163 0 0 1-.894-.214 4.576 4.576 0 0 1-.372.615 3.871 3.871 0 0 1-2.569 1.687l-.02.03a4.306 4.306 0 0 1-2.207-.193zm-3.493-.148l3.422 2.307a1.041 1.041 0 1 1-1.164 1.727l-3.422-2.308a1.09 1.09 0 0 1-.464-.66 1.133 1.133 0 0 1 .842-1.25 1.09 1.09 0 0 1 .786.184zm3.08 2.813l-3.42-2.308a.407.407 0 0 0-.64.435.443.443 0 0 0 .157.28l3.422 2.308a.443.443 0 0 0 .318.04.432.432 0 0 0 .164-.755zm-1.99 1.861a1.6 1.6 0 0 1-.94.622 1.46 1.46 0 0 1-1.104-.225 1.44 1.44 0 0 1-.588-.916 1.6 1.6 0 0 1 .222-1.107l.535.362a.758.758 0 0 0-.142.596.714.714 0 0 0 .335.529.739.739 0 0 0 .646.133.758.758 0 0 0 .5-.356z"/><path d="M1093.043 435.715l3.421 2.308a.986.986 0 0 1 .281 1.445 1.09 1.09 0 0 1-.66.465 1.2 1.2 0 0 1-.805-.154l-3.422-2.308a1.119 1.119 0 0 1-.444-.69 1.09 1.09 0 0 1 .184-.785 1.158 1.158 0 0 1 .66-.464 1.09 1.09 0 0 1 .785.183zm3.08 2.814l-3.421-2.308a.443.443 0 0 0-.319-.041.326.326 0 0 0-.28.157.438.438 0 0 0-.06.349.407.407 0 0 0 .177.25l3.421 2.307a.407.407 0 0 0 .298.071.438.438 0 0 0 .3-.187.326.326 0 0 0 .042-.318.443.443 0 0 0-.158-.28zm4.497-14.499a2.727 2.727 0 0 1 1.126 1.668 2.661 2.661 0 0 1-.418 1.97 2.634 2.634 0 0 1-3.658.736 2.628 2.628 0 0 1-1.133-1.717 2.6 2.6 0 0 1 .417-1.97 2.661 2.661 0 0 1 1.668-1.126 2.749 2.749 0 0 1 1.999.439zm.48 1.794a1.874 1.874 0 0 0-.82-1.288 1.9 1.9 0 0 0-1.532-.298 1.992 1.992 0 0 0-.716 3.63 1.981 1.981 0 0 0 1.481.307 1.952 1.952 0 0 0 1.586-2.35z"/><path d="M1104.46 426.619a2.6 2.6 0 0 1 1.124 1.669 2.546 2.546 0 0 1-.388 1.988 2.7 2.7 0 0 1-3.687.717 2.634 2.634 0 0 1-.687-3.667 2.661 2.661 0 0 1 1.668-1.125 2.727 2.727 0 0 1 1.97.418zm.507 1.814a1.9 1.9 0 0 0-.849-1.308 1.874 1.874 0 0 0-1.502-.277 1.952 1.952 0 0 0-1.585 2.35 1.981 1.981 0 0 0 .84 1.259 2 2 0 0 0 1.511.327 1.952 1.952 0 0 0 1.585-2.35z"/><path d="M1099.49 428.722a1.71 1.71 0 0 0-.182.656c-.001.259-.004.518-.014.727.22-.068.459-.167.698-.265a1.71 1.71 0 0 0 .538-.417l.516.392a3.618 3.618 0 0 1-.79.592 6.076 6.076 0 0 1-1.154.428l-.369.098-.018-.359a6.078 6.078 0 0 1-.036-1.23 2.635 2.635 0 0 1 .254-.954zm-.05-9.168l3.647 4.927 6.511 1.708-.42.366a3.842 3.842 0 0 1-2.814 1.219 5.371 5.371 0 0 1-2.308-.691 2.6 2.6 0 0 0-1.512-.327 1.792 1.792 0 0 0-1.197.88l-.506-.34a1.8 1.8 0 0 0 .337-1.462 2.379 2.379 0 0 0-.84-1.259 5.371 5.371 0 0 1-1.505-1.881 3.842 3.842 0 0 1 .08-3.063l.182-.526zm3.226 5.423l-3.34-4.547a3.182 3.182 0 0 0 .059 2.03 5.023 5.023 0 0 0 1.355 1.65 3.271 3.271 0 0 1 1.057 1.58 1.745 1.745 0 0 1 .048.635 1.889 1.889 0 0 1 .637-.174 3.271 3.271 0 0 1 1.86.389 5.023 5.023 0 0 0 2.037.638 3.182 3.182 0 0 0 1.904-.707l-5.467-1.395z"/><path d="M1103.576 427.928a.935.935 0 0 1 .366.42c-.03-.02-.01-.05-.04-.07a.431.431 0 0 0-.568.137.4.4 0 0 0 .106.548.407.407 0 0 0 .578-.086c.02-.03.01-.08.03-.11a.975.975 0 0 1-.162.626 1.059 1.059 0 1 1-1.755-1.184 1.042 1.042 0 0 1 1.445-.28zm-3.838-2.589a.824.824 0 0 1 .334.399c-.03-.02-.01-.05-.04-.07a.431.431 0 0 0-.568.136.4.4 0 0 0 .106.549.407.407 0 0 0 .578-.087.132.132 0 0 0 .031-.11.974.974 0 0 1-.163.626 1.059 1.059 0 1 1-1.755-1.183 1.05 1.05 0 0 1 1.477-.26z" fill-rule="evenodd"/><path d="M1095.094 433.636l-.863 1.28.506.34.863-1.279zm2.023 1.364l-.863 1.28.506.34.863-1.279z"/></g></g><g data-name="Group 530"><path data-name="Path 7410" d="M1103.995 459.4l7.858-7.37s-3.753-15.943-4.703-15.95c-4.254-.017-2.466 6.869-2.466 6.869z" fill="#fdb98b"/></g></g></g></g></svg>