<svg xmlns="http://www.w3.org/2000/svg" width="468.78" height="452.86"><g data-name="Group 622" transform="translate(-3114 -5182)"><g data-name="Group 620"><path data-name="Path 7842" d="M3518.376 5302.894l10.348 3.341s7.187-4.418 7.595-6.036-.345-1.872-.621-1.84c0 0 2.562-2.238 1.2-4.285 0 0 2.281-2.408.748-3.85l-.833-.679s1.108-2.222.223-3.9a1.257 1.257 0 0 0-1.559-.562l-8.486 3.15-5.415 3.628z" fill="#ffbe9d"/><path data-name="Path 7844" d="M3519.278 5299.627l2.546-8.454 9.165-6.858a3.087 3.087 0 0 1 0 3.145 30.018 30.018 0 0 1-2.678 3.617c-.313.483-1.628 2.981-1.628 2.981a10.825 10.825 0 0 1 .3 6.985" fill="#ffbe9d"/><path data-name="Path 7845" d="M3526.973 5301.041a2.593 2.593 0 0 1 .085-.488 6.72 6.72 0 0 0 .106-.594 7.418 7.418 0 0 0 .1-.806 11.494 11.494 0 0 0 0-2.228 9.732 9.732 0 0 0-.684-2.822v-.1l1.156-2.153.308-.573.164-.3.207-.276.886-1.061a14.914 14.914 0 0 0 1.628-2.4 2.954 2.954 0 0 0-.058-2.848l.2.032-.785.589-8.4 6.248.042-.058c-.78 2.519-1.432 4.625-1.893 6.126-.228.716-.414 1.284-.53 1.7l-.154.445c-.032.1-.053.154-.064.148a.626.626 0 0 1 .032-.159l.117-.451c.122-.43.281-1 .488-1.724.44-1.512 1.061-3.622 1.8-6.158v-.037h.032l8.364-6.285.79-.589.122-.09.074.122a3.235 3.235 0 0 1 .074 3.129 14.987 14.987 0 0 1-1.676 2.44l-.886 1.061c-.074.09-.143.175-.2.26l-.159.286-.313.573-1.172 2.121v-.1a9.658 9.658 0 0 1 .658 2.9 10.9 10.9 0 0 1-.048 2.249 8.116 8.116 0 0 1-.133.811 4.924 4.924 0 0 1-.138.589 2.853 2.853 0 0 1-.14.471z" fill="#eb996e"/><path data-name="Path 7846" d="M3536.822 5289.576a3.568 3.568 0 0 1-.61.414l-1.718 1.061-2.562 1.5a2.853 2.853 0 0 1-1.734.53 1.352 1.352 0 0 1-.891-.467 1.511 1.511 0 0 1-.313-.986 3.14 3.14 0 0 1 .806-1.761 17.3 17.3 0 0 1 1.167-1.331 16.027 16.027 0 0 1 2.286-1.925 14.246 14.246 0 0 1 1.729-1.034 2.982 2.982 0 0 1 .674-.286 4.24 4.24 0 0 1-.626.382c-.4.239-.986.6-1.665 1.1a16.841 16.841 0 0 0-2.212 1.946 14.788 14.788 0 0 0-1.135 1.315 2.875 2.875 0 0 0-.748 1.591 1.241 1.241 0 0 0 .249.806 1.061 1.061 0 0 0 .711.371 2.588 2.588 0 0 0 1.591-.461l2.594-1.448 1.761-.96a3.823 3.823 0 0 1 .647-.355z" fill="#eb996e"/><path data-name="Path 7847" d="M3536.939 5294.075a2.934 2.934 0 0 1-.53.435c-.361.265-.891.631-1.554 1.061a26.073 26.073 0 0 1-2.408 1.432 2.408 2.408 0 0 1-.8.3 1.209 1.209 0 0 1-.891-.233 1.787 1.787 0 0 1-.6-1.724 3.363 3.363 0 0 1 .886-1.591 14.351 14.351 0 0 1 1.2-1.156 21.9 21.9 0 0 1 2.259-1.66c.668-.435 1.22-.764 1.591-.981a3.182 3.182 0 0 1 .615-.318 3.559 3.559 0 0 1-.53.408l-1.559 1.061a25.5 25.5 0 0 0-2.2 1.7 14.669 14.669 0 0 0-1.167 1.14 3.145 3.145 0 0 0-.817 1.459 1.549 1.549 0 0 0 .5 1.464.965.965 0 0 0 .695.186 2.121 2.121 0 0 0 .711-.265c.939-.467 1.74-.955 2.419-1.368l1.591-1a3.813 3.813 0 0 1 .589-.35z" fill="#eb996e"/><path data-name="Path 7848" d="M3535.714 5298.36a2.232 2.232 0 0 1-.44.324 32.7 32.7 0 0 1-1.241.78 13.914 13.914 0 0 1-1.957.992 5.773 5.773 0 0 1-1.262.387 1.236 1.236 0 0 1-.743-.106.865.865 0 0 1-.424-.674 1.983 1.983 0 0 1 .064-.753 1.479 1.479 0 0 1 .371-.631 7.081 7.081 0 0 1 .955-.891 16.78 16.78 0 0 1 1.8-1.246c.53-.329.971-.567 1.278-.727a1.935 1.935 0 0 1 .5-.217 2.181 2.181 0 0 1-.44.308l-1.23.8a19.8 19.8 0 0 0-1.745 1.278c-.583.53-1.432 1.114-1.278 2.037a.589.589 0 0 0 .276.477 1.024 1.024 0 0 0 .583.074 6 6 0 0 0 1.2-.35 15.816 15.816 0 0 0 1.952-.928 14.856 14.856 0 0 1 1.781-.934z" fill="#eb996e"/><path data-name="Path 7849" d="M3536.239 5300.317a1.373 1.373 0 0 1-.239.43 8.7 8.7 0 0 1-.843 1.061 11.9 11.9 0 0 1-1.48 1.337c-.3.228-.621.456-.96.679a3.517 3.517 0 0 1-1.162.583 1.008 1.008 0 0 1-.711-.08.981.981 0 0 1-.446-.53 1.66 1.66 0 0 1 .127-1.236 6.364 6.364 0 0 1 1.108-1.713 4.545 4.545 0 0 1 1.061-.849 1.145 1.145 0 0 1 .456-.186 6.121 6.121 0 0 0-2.387 2.811 1.384 1.384 0 0 0-.106 1.034.684.684 0 0 0 .843.451 3.457 3.457 0 0 0 1.061-.53c.334-.223.658-.44.955-.663a13.515 13.515 0 0 0 1.5-1.262c.799-.775 1.18-1.337 1.223-1.337z" fill="#eb996e"/><path data-name="Path 7850" d="M3517.554 5302.608l-12.729 27.229-11.138-14.543c-6.969-8.884-12.7-11.005-12.7-11.005l-10.109-2.7-20.711-1.1-1.8 1.034-12.475 5.254a227.159 227.159 0 0 0 3.543 24.174c2.355 10.7 4.323 22.4 4.323 22.4.859 7.706-4.853 37.264-4.853 37.264h57.084l-12.2-36.723a132.591 132.591 0 0 0 3.474-13.609l10.607 7.24s15.911 8.942 21.7-6.089l10.024-35z" fill="#ff725e"/><path data-name="Path 7851" d="M3486.607 5340.854a4.823 4.823 0 0 1 0-.8 9.058 9.058 0 0 0 0-.933c-.032-.366 0-.774 0-1.23a29.5 29.5 0 0 0-.255-3.182 31.416 31.416 0 0 0-.8-3.835 30.4 30.4 0 0 0-1.321-3.713 29.634 29.634 0 0 0-1.443-2.854c-.217-.4-.445-.742-.636-1.061a7.116 7.116 0 0 0-.53-.785 5.3 5.3 0 0 1-.424-.674 3.994 3.994 0 0 1 .53.61 7.158 7.158 0 0 1 .53.764c.18.308.446.636.679 1.061a25.659 25.659 0 0 1 1.506 2.853 26.583 26.583 0 0 1 2.121 7.59 25.565 25.565 0 0 1 .2 3.225c0 .456 0 .875-.032 1.236s-.042.679-.069.933a4.369 4.369 0 0 1-.056.795z" fill="#263238"/><path data-name="Path 7852" d="M3484.544 5318.275a10.989 10.989 0 0 1-.992 2.625 13.739 13.739 0 0 1-1.289 2.5 14.8 14.8 0 0 1 1.061-2.609c.324-.705.621-1.342.849-1.793a3.352 3.352 0 0 1 .371-.723z" fill="#263238"/><path data-name="Path 7853" d="M3505.731 5337.661a3.978 3.978 0 0 1-.589-1.093 10.64 10.64 0 0 1-.748-2.906 10.837 10.837 0 0 1 .085-3.007 3.766 3.766 0 0 1 .329-1.193 18.9 18.9 0 0 0-.138 4.169 18.616 18.616 0 0 0 1.061 4.031z" fill="#263238"/><path data-name="Path 7854" d="M3493.677 5326.236c.042 0 .122.642.313 1.671a29.855 29.855 0 0 0 1 3.957 29.3 29.3 0 0 0 1.533 3.782 15.963 15.963 0 0 1 .732 1.533 3.472 3.472 0 0 1-.276-.366 16.535 16.535 0 0 1-.631-1.061 23.241 23.241 0 0 1-2.551-7.8c-.069-.53-.111-.949-.122-1.241a1.358 1.358 0 0 1 .002-.475z" fill="#fafafa"/><path data-name="Path 7855" d="M3495.661 5333.051a15.315 15.315 0 0 0 .822-1.48 6.508 6.508 0 0 0 .382-3.962l-.032-.133.249.048a7.712 7.712 0 0 0-1.384 3.67c-.106 1.013 0 1.644-.048 1.649a1.235 1.235 0 0 1-.1-.44 5.981 5.981 0 0 1-.042-1.225 7.351 7.351 0 0 1 1.347-3.819l.18-.249.069.3.032.138a6.3 6.3 0 0 1-.477 4.105 5.718 5.718 0 0 1-.668 1.061c-.193.236-.315.348-.33.337z" fill="#fafafa"/><path data-name="Path 7856" d="M3494.053 5330.985a1.589 1.589 0 0 1-.467-.164 8.188 8.188 0 0 1-1.172-.652 9.51 9.51 0 0 1-1.538-1.284 9.369 9.369 0 0 1-.769-.9 6.151 6.151 0 0 1-.361-.53.9.9 0 0 1-.09-.732.493.493 0 0 1 .345-.271.711.711 0 0 1 .387.053 3.081 3.081 0 0 1 .53.35 8.68 8.68 0 0 1 .9.769 8.9 8.9 0 0 1 1.273 1.543 7.956 7.956 0 0 1 .642 1.183 1.649 1.649 0 0 1 .159.467c-.048 0-.313-.626-.96-1.538a9.966 9.966 0 0 0-1.289-1.469 8.9 8.9 0 0 0-.891-.737 2.515 2.515 0 0 0-.488-.313c-.175-.074-.324-.042-.382.08a.658.658 0 0 0 .085.488c.09.159.223.334.334.493a9.685 9.685 0 0 0 .737.891 10.609 10.609 0 0 0 1.464 1.294c.946.659 1.572.935 1.551.979z" fill="#fafafa"/><path data-name="Path 7857" d="M3494.769 5335.433a1.113 1.113 0 0 1-.387.127 4.31 4.31 0 0 1-1.108.1 5.113 5.113 0 0 1-3.368-1.448l-.17-.164.223-.064.366-.1a5.2 5.2 0 0 1 3.845.652 4.383 4.383 0 0 1 .933.753c.186.212.276.345.26.355a10.163 10.163 0 0 0-1.289-.944 5.3 5.3 0 0 0-3.713-.53l-.345.1.058-.228a5.219 5.219 0 0 0 3.182 1.448 13.258 13.258 0 0 0 1.513-.057z" fill="#fafafa"/><path data-name="Path 7858" d="M3449.475 5337.581a1.592 1.592 0 0 1 0 .461 9.963 9.963 0 0 1-.127 1.241 23.167 23.167 0 0 1-.918 3.994 23.559 23.559 0 0 1-1.623 3.787 12.92 12.92 0 0 1-.636 1.061 2.086 2.086 0 0 1-.276.371 15.558 15.558 0 0 1 .737-1.506 31.4 31.4 0 0 0 1.533-3.787 30.5 30.5 0 0 0 1-3.957 15.7 15.7 0 0 1 .31-1.665z" fill="#fafafa"/><path data-name="Path 7859" d="M3447.492 5344.397a2.127 2.127 0 0 1-.329-.329 5.516 5.516 0 0 1-.674-1.061 6.311 6.311 0 0 1-.472-4.1l.032-.143.064-.3.18.255a7.377 7.377 0 0 1 1.352 3.818 6.471 6.471 0 0 1-.042 1.23 1.278 1.278 0 0 1-.1.435c-.048 0 .053-.636-.048-1.649a7.807 7.807 0 0 0-1.384-3.67l.244-.048v.133a6.508 6.508 0 0 0 .382 3.962 14.524 14.524 0 0 0 .795 1.467z" fill="#fafafa"/><path data-name="Path 7860" d="M3449.093 5342.332c0-.042.626-.318 1.533-.976a10.321 10.321 0 0 0 1.453-1.3 9.548 9.548 0 0 0 .732-.886 4.545 4.545 0 0 0 .334-.5.631.631 0 0 0 .085-.488c-.053-.122-.207-.148-.377-.074a2.783 2.783 0 0 0-.493.308 10.514 10.514 0 0 0-.886.737 9.887 9.887 0 0 0-1.278 1.474c-.647.912-.912 1.565-.96 1.543a1.453 1.453 0 0 1 .159-.467 7.484 7.484 0 0 1 .642-1.188 8.661 8.661 0 0 1 1.273-1.543 10.192 10.192 0 0 1 .9-.769 2.652 2.652 0 0 1 .53-.345.663.663 0 0 1 .387-.053.5.5 0 0 1 .345.265.875.875 0 0 1-.1.732 4.627 4.627 0 0 1-.361.53 9.24 9.24 0 0 1-2.3 2.185 7.457 7.457 0 0 1-1.177.652 1.331 1.331 0 0 1-.441.163z" fill="#fafafa"/><path data-name="Path 7861" d="M3448.366 5346.778a10.637 10.637 0 0 0 1.48.037 5.155 5.155 0 0 0 3.182-1.448l.053.228-.339-.09a5.24 5.24 0 0 0-3.713.53 10.915 10.915 0 0 0-1.246.955 1.278 1.278 0 0 1 .265-.35 4.46 4.46 0 0 1 .928-.758 5.214 5.214 0 0 1 3.851-.647l.361.1.228.058-.17.17a5.118 5.118 0 0 1-3.373 1.427 4.383 4.383 0 0 1-1.108-.1.94.94 0 0 1-.399-.112z" fill="#fafafa"/><path data-name="Path 7862" d="M3469.167 5318.88a2.973 2.973 0 0 1 .329.329 10.76 10.76 0 0 1 .774.976 22.858 22.858 0 0 1 2.122 3.522 23.219 23.219 0 0 1 1.48 3.845c.138.53.239.923.292 1.209a1.634 1.634 0 0 1 .064.456 16.3 16.3 0 0 1-.53-1.591 29.766 29.766 0 0 0-1.538-3.782 30.488 30.488 0 0 0-2.042-3.532c-.59-.902-.982-1.432-.951-1.432z" fill="#fafafa"/><path data-name="Path 7863" d="M3472.499 5325.145a1.342 1.342 0 0 1-.461 0 5.206 5.206 0 0 1-1.23-.3 6.3 6.3 0 0 1-3.182-2.609l-.08-.122-.159-.26.308.053a7.425 7.425 0 0 1 3.628 1.8 5.93 5.93 0 0 1 .822.907c.175.233.249.377.233.382a12.124 12.124 0 0 0-1.183-1.146 7.77 7.77 0 0 0-3.554-1.671l.148-.2.069.117a6.5 6.5 0 0 0 3.034 2.572 15.4 15.4 0 0 0 1.607.477z" fill="#fafafa"/><path data-name="Path 7864" d="M3472.234 5322.546c-.048 0 .228-.668.414-1.771a10.215 10.215 0 0 0 .143-1.952 9.682 9.682 0 0 0-.09-1.146c-.032-.2-.058-.414-.106-.589a.631.631 0 0 0-.281-.414c-.122-.042-.249.037-.324.212a2.779 2.779 0 0 0-.138.568 11.239 11.239 0 0 0-.122 1.146 10.539 10.539 0 0 0 .1 1.952c.17 1.1.435 1.756.387 1.771a1.443 1.443 0 0 1-.212-.445 8.035 8.035 0 0 1-.366-1.294 8.958 8.958 0 0 1-.164-1.994 9.448 9.448 0 0 1 .111-1.183 2.8 2.8 0 0 1 .117-.647.658.658 0 0 1 .239-.308.53.53 0 0 1 .435-.048.88.88 0 0 1 .445.589 5.863 5.863 0 0 1 .111.631 8.286 8.286 0 0 1 .074 1.183 9.057 9.057 0 0 1-.207 1.989 7.85 7.85 0 0 1-.382 1.289 1.591 1.591 0 0 1-.184.461z" fill="#fafafa"/><path data-name="Path 7865" d="M3474.8 5326.231a13.789 13.789 0 0 0 1.061-1.008 5.187 5.187 0 0 0 1.273-3.262l.2.127-.308.17a5.272 5.272 0 0 0-2.259 2.965 9.633 9.633 0 0 0-.271 1.591 1.177 1.177 0 0 1-.058-.435 4.391 4.391 0 0 1 .138-1.193 5.224 5.224 0 0 1 2.307-3.15l.329-.18.207-.111v.239a5.092 5.092 0 0 1-1.411 3.384 4.584 4.584 0 0 1-.859.705 1.209 1.209 0 0 1-.349.158z" fill="#fafafa"/><path data-name="Path 7866" d="M3452.116 5378.532a3.338 3.338 0 0 1 .324.329 10.761 10.761 0 0 1 .774.976 23.294 23.294 0 0 1 3.638 7.367c.143.5.244.923.3 1.209a1.707 1.707 0 0 1 .058.456 15.626 15.626 0 0 1-.53-1.591 30.583 30.583 0 0 0-1.538-3.782 31.216 31.216 0 0 0-2.047-3.532 14.789 14.789 0 0 1-.976-1.432z" fill="#fafafa"/><path data-name="Path 7867" d="M3455.442 5384.8a1.34 1.34 0 0 1-.461 0 5.482 5.482 0 0 1-1.23-.3 6.3 6.3 0 0 1-3.182-2.609l-.074-.122-.164-.26.308.053a7.373 7.373 0 0 1 3.628 1.793 6.605 6.605 0 0 1 .827.912 1.474 1.474 0 0 1 .233.382c-.042.032-.408-.493-1.188-1.146a7.743 7.743 0 0 0-3.548-1.671l.143-.2.074.117a6.481 6.481 0 0 0 3.034 2.572 15.575 15.575 0 0 0 1.6.477z" fill="#fafafa"/><path data-name="Path 7868" d="M3455.155 5382.197c-.048 0 .223-.663.414-1.766a10.666 10.666 0 0 0 .143-1.952 8.858 8.858 0 0 0-.1-1.151 4.059 4.059 0 0 0-.106-.583.631.631 0 0 0-.281-.414c-.122-.042-.249.037-.324.212a2.476 2.476 0 0 0-.133.568 8.768 8.768 0 0 0-.122 1.146 9.689 9.689 0 0 0 .1 1.952c.17 1.1.435 1.756.387 1.771a1.517 1.517 0 0 1-.217-.446 8.2 8.2 0 0 1-.366-1.294 9.017 9.017 0 0 1-.159-1.994 9.411 9.411 0 0 1 .106-1.183 3.113 3.113 0 0 1 .154-.631.642.642 0 0 1 .244-.308.488.488 0 0 1 .43-.048.865.865 0 0 1 .461.615 4.774 4.774 0 0 1 .111.631 9.165 9.165 0 0 1 .08 1.183 9.754 9.754 0 0 1-.207 1.989 8.486 8.486 0 0 1-.387 1.289 1.347 1.347 0 0 1-.233.414z" fill="#fafafa"/><path data-name="Path 7869" d="M3457.743 5385.888a11.842 11.842 0 0 0 1.061-1.008 5.187 5.187 0 0 0 1.273-3.262l.2.127-.313.17a5.272 5.272 0 0 0-2.259 2.965 11.325 11.325 0 0 0-.27 1.591 1.336 1.336 0 0 1-.058-.435 4.614 4.614 0 0 1 .138-1.193 5.245 5.245 0 0 1 2.307-3.15l.329-.18.207-.111v.239a5.092 5.092 0 0 1-1.411 3.384 4.58 4.58 0 0 1-.859.705 1.15 1.15 0 0 1-.345.158z" fill="#fafafa"/><path data-name="Path 7870" d="M3519.267 5318.381a1.56 1.56 0 0 1-.1.451c-.074.286-.2.689-.382 1.188a22.7 22.7 0 0 1-1.761 3.713 23.234 23.234 0 0 1-2.387 3.352c-.345.4-.636.716-.849.918a1.765 1.765 0 0 1-.345.3 15.655 15.655 0 0 1 1.061-1.342 29.563 29.563 0 0 0 4.1-7.022 15.01 15.01 0 0 1 .663-1.558z" fill="#fafafa"/><path data-name="Path 7871" d="M3515.878 5324.618a2.157 2.157 0 0 1-.249-.392 5.713 5.713 0 0 1-.43-1.188 6.365 6.365 0 0 1 .408-4.11l.064-.127.127-.281.122.286a7.383 7.383 0 0 1 .53 4.015 6.588 6.588 0 0 1-.3 1.193c-.1.271-.175.414-.191.4a12.3 12.3 0 0 0 .3-1.623 7.722 7.722 0 0 0-.573-3.877h.249l-.053.127a6.487 6.487 0 0 0-.472 3.946 14.716 14.716 0 0 0 .467 1.628z" fill="#fafafa"/><path data-name="Path 7872" d="M3517.888 5322.943c0-.053.679-.186 1.7-.636a10.21 10.21 0 0 0 1.708-.955 10.612 10.612 0 0 0 .907-.711 5.35 5.35 0 0 0 .43-.414.642.642 0 0 0 .186-.461c0-.127-.17-.191-.35-.154a2.718 2.718 0 0 0-.53.2 10.167 10.167 0 0 0-2.6 1.7c-.827.753-1.225 1.331-1.262 1.3a1.5 1.5 0 0 1 .255-.424 7.427 7.427 0 0 1 .875-1.018 8.619 8.619 0 0 1 1.591-1.236 8.428 8.428 0 0 1 1.061-.562 2.652 2.652 0 0 1 .61-.223.679.679 0 0 1 .392.032.477.477 0 0 1 .276.334.88.88 0 0 1-.244.695 5.936 5.936 0 0 1-.467.44 8.646 8.646 0 0 1-.939.716 9.151 9.151 0 0 1-1.779.919 7.553 7.553 0 0 1-1.289.392 1.592 1.592 0 0 1-.531.066z" fill="#fafafa"/><path data-name="Path 7873" d="M3516.255 5327.138a12.863 12.863 0 0 0 1.443.35 5.166 5.166 0 0 0 3.421-.743v.239l-.313-.164a5.3 5.3 0 0 0-3.713-.249 9.658 9.658 0 0 0-1.464.647 2.033 2.033 0 0 1 .329-.292 4.7 4.7 0 0 1 1.061-.53 5.192 5.192 0 0 1 3.9.186l.334.175.207.106-.2.127a5.086 5.086 0 0 1-3.6.695 4.435 4.435 0 0 1-1.061-.329 1.242 1.242 0 0 1-.344-.218z" fill="#fafafa"/><path data-name="Path 7874" d="M3449.613 5333.435a7.674 7.674 0 0 0 .53-1.411 4.174 4.174 0 0 0-.743-3.4h.207l-.042.048a3.421 3.421 0 0 0-.817 1.777 3.31 3.31 0 0 0 .186 1.591 7.675 7.675 0 0 0 .679 1.374 2.88 2.88 0 0 1-.865-1.268 3.4 3.4 0 0 1-.255-1.7 3.559 3.559 0 0 1 .87-1.931l.064-.08.111-.122.1.133a4.094 4.094 0 0 1 .811 1.925 4.243 4.243 0 0 1-.1 1.7 3.649 3.649 0 0 1-.456 1.061c-.164.203-.27.312-.28.303z" fill="#fafafa"/><path data-name="Path 7875" d="M3476.562 5314.144a7 7 0 0 0 1.257-.838 4.148 4.148 0 0 0 1.379-3.182l.164.127h-.058a3.442 3.442 0 0 0-1.708.965 3.379 3.379 0 0 0-.78 1.416 8.375 8.375 0 0 0-.255 1.512 2.96 2.96 0 0 1 .064-1.565 3.432 3.432 0 0 1 .785-1.538 3.57 3.57 0 0 1 1.83-1.061h.069l.159-.037v.164a4.047 4.047 0 0 1-.461 2.042 4.164 4.164 0 0 1-1.061 1.321 3.443 3.443 0 0 1-.981.583 1 1 0 0 1-.403.091z" fill="#fafafa"/><path data-name="Path 7876" d="M3519.867 5312.24a6.862 6.862 0 0 0 .711-1.331 4.174 4.174 0 0 0-.3-3.474l.207.037-.048.042a3.384 3.384 0 0 0-1.061 1.655 3.347 3.347 0 0 0 0 1.618 8.056 8.056 0 0 0 .493 1.453 2.927 2.927 0 0 1-.684-1.411 3.331 3.331 0 0 1-.037-1.724 3.543 3.543 0 0 1 1.108-1.8l.053-.042.122-.106.085.138a4.1 4.1 0 0 1 .557 2.015 4.211 4.211 0 0 1-.308 1.671 3.655 3.655 0 0 1-.589.976c-.177.207-.296.294-.309.283z" fill="#fafafa"/><path data-name="Path 7877" d="M3501.17 5344.487a7.457 7.457 0 0 0 .705-1.331 4.169 4.169 0 0 0-.3-3.474l.207.037-.048.037a3.315 3.315 0 0 0-1.061 3.278 8.162 8.162 0 0 0 .5 1.453 2.938 2.938 0 0 1-.689-1.411 3.447 3.447 0 0 1-.037-1.724 3.58 3.58 0 0 1 1.108-1.8l.053-.042.122-.111.085.143a4.094 4.094 0 0 1 .53 2.015 4.243 4.243 0 0 1-.308 1.671 3.516 3.516 0 0 1-.589.976c-.15.198-.267.293-.278.283z" fill="#fafafa"/><path data-name="Path 7878" d="M3445.603 5387.298a6.894 6.894 0 0 0-.647-1.363 4.174 4.174 0 0 0-2.954-1.819l.149-.143v.058a3.426 3.426 0 0 0 .711 1.83 3.341 3.341 0 0 0 1.262.976 7.754 7.754 0 0 0 1.459.467 2.859 2.859 0 0 1-1.538-.286 3.389 3.389 0 0 1-1.405-1 3.548 3.548 0 0 1-.79-1.968v-.228h.164a4.047 4.047 0 0 1 1.946.753 4.174 4.174 0 0 1 1.156 1.241 3.712 3.712 0 0 1 .44 1.061 1.061 1.061 0 0 1 .047.421z" fill="#fafafa"/><path data-name="Path 7879" d="M3511.005 5341.766c0-.048.817-.435 2.068-1.22a7.24 7.24 0 0 0 1.893-1.724 4.042 4.042 0 0 0 .843-2.9c-.138-.106.186.138.149.117h-.2a.448.448 0 0 0-.2.032c-.069.032-.265.058-.4.1a4.978 4.978 0 0 0-.748.26 5.559 5.559 0 0 0-1.289.78 5.49 5.49 0 0 0-1.538 2.015 7.426 7.426 0 0 0-.53 2.312 1.968 1.968 0 0 1-.037-.652 5.3 5.3 0 0 1 .392-1.734 5.473 5.473 0 0 1 2.891-2.965 4.808 4.808 0 0 1 .79-.281c.133-.037.276-.074.414-.1l.212-.037h.212l.154.117a4.243 4.243 0 0 1-.912 3.092 6.937 6.937 0 0 1-1.994 1.734 15.571 15.571 0 0 1-1.565.817 3.152 3.152 0 0 1-.6.239z" fill="#fafafa"/><path data-name="Path 7880" d="M3485 5386.911c0-.048.817-.435 2.068-1.225a7.117 7.117 0 0 0 1.893-1.718 4.047 4.047 0 0 0 .843-2.9l.149.117h-.2l-.2.037a1.79 1.79 0 0 0-.4.09 4.993 4.993 0 0 0-.748.265 5.384 5.384 0 0 0-1.289.78 5.447 5.447 0 0 0-1.538 2.015 7.425 7.425 0 0 0-.53 2.307 1.92 1.92 0 0 1-.037-.647 5.463 5.463 0 0 1 1.946-3.872 5.75 5.75 0 0 1 1.337-.833 5.355 5.355 0 0 1 .79-.281c.133-.037.276-.069.414-.1a1.616 1.616 0 0 1 .212-.037h.221c-.032-.027.286.228.148.122a4.243 4.243 0 0 1-.912 3.092 7.049 7.049 0 0 1-1.989 1.729 15.275 15.275 0 0 1-1.591.822 3.149 3.149 0 0 1-.587.237z" fill="#fafafa"/><path data-name="Path 7881" d="M3457.649 5331.641c0-.048.817-.435 2.068-1.22a7.239 7.239 0 0 0 1.893-1.724 4.089 4.089 0 0 0 .843-2.9c-.138-.106.186.138.149.117h-.2a.436.436 0 0 0-.2.032c-.064.032-.265.058-.4.1a5.255 5.255 0 0 0-.753.26 5.527 5.527 0 0 0-1.284.78 5.437 5.437 0 0 0-1.538 2.015 7.255 7.255 0 0 0-.53 2.312 1.968 1.968 0 0 1-.037-.652 5.3 5.3 0 0 1 .387-1.734 5.431 5.431 0 0 1 1.559-2.122 5.361 5.361 0 0 1 1.337-.827 4.925 4.925 0 0 1 .785-.281c.138-.037.276-.074.419-.1l.212-.037h.212l.154.117a4.243 4.243 0 0 1-.912 3.092 7.006 7.006 0 0 1-1.994 1.734 15.008 15.008 0 0 1-1.591.817 3.052 3.052 0 0 1-.578.223z" fill="#fafafa"/><path data-name="Path 7888" d="M3470.594 5294.414a24.838 24.838 0 0 1-13.259-2.6s3.755 6.656 13.445 5.092z" fill="#eb996e"/><path data-name="Path 7917" d="M3462.825 5365.722l4.588 2.307a27.794 27.794 0 0 1 5.473-2.047c1.819-.265 9.648.743 9.648.743a1.968 1.968 0 0 1-1.358 2.121 31.617 31.617 0 0 1-4.556-.026 1.941 1.941 0 0 0 .53 3.262c1.962.811 4.243 1.771 4.508 1.946s3.119-.329 5.214-.748a1.3 1.3 0 0 1 1.188 2.185.6.6 0 0 1-.318.159s1.883 1.13-1.368 2.546c0 0-1.1 2.535-3.135 2.71 0 0-2.376 2.387-3.861 2.779s-11.138-3.294-11.138-3.294l-9.388-4.869z" fill="#ffbe9d"/><path data-name="Path 7919" d="M3476.206 5375.179a6.238 6.238 0 0 0 1.49 1.018 9.548 9.548 0 0 0 4.174 1.374 8.842 8.842 0 0 0 4.243-1.114 5.987 5.987 0 0 0 1.538-.955 8.262 8.262 0 0 0-1.676.652 9.792 9.792 0 0 1-4.094.949 10.851 10.851 0 0 1-4.036-1.2 7.654 7.654 0 0 0-1.639-.727z" fill="#eb996e"/><path data-name="Path 7920" d="M3475.803 5377.709c-.042.048.414.53 1.315 1.008a11.235 11.235 0 0 0 1.639.748 5.586 5.586 0 0 0 2.206.424 9.891 9.891 0 0 0 2.169-.493l1.681-.557a5.606 5.606 0 0 0 1.522-.626 5.875 5.875 0 0 0-1.591.308q-.732.183-1.718.461a11.2 11.2 0 0 1-2.074.44 5.734 5.734 0 0 1-2.037-.361 16.876 16.876 0 0 1-1.628-.642c-.933-.407-1.442-.763-1.484-.71z" fill="#eb996e"/><path data-name="Path 7921" d="M3475.58 5380.669c-.074.17 1.644.833 3.76 1.5a1.814 1.814 0 0 0 .918.027 6.233 6.233 0 0 0 .764-.17 7.34 7.34 0 0 0 1.23-.461c.674-.324 1.018-.652.981-.7a5.9 5.9 0 0 0-1.108.4 12.025 12.025 0 0 1-1.209.345 6.276 6.276 0 0 1-.727.138 1.506 1.506 0 0 1-.695 0c-1.061-.345-2.047-.61-2.753-.8a4.62 4.62 0 0 0-1.161-.279z" fill="#eb996e"/><path data-name="Path 7922" d="M3435.234 5306.411s-5.383 3.453-8.613 13.037c-2.731 8.136-8.438 21.268-10.316 30.624-1.374 6.815 1.851 14.882 10.337 17.184l32.194 9.674 4.911-12.082-28.873-14.676 7.918-18.033z" fill="#ff725e"/><path data-name="Path 7923" d="M3423.784 5366.169a.834.834 0 0 1 .18.042l.53.143 1.994.589 7.383 2.222 25.028 7.637-.164.074 3.129-7.69c.61-1.485 1.209-2.954 1.793-4.392l.064.175c-6.057-2.986-11.642-5.892-16.532-8.433s-9.112-4.683-12.352-6.3a6.11 6.11 0 0 0-3.219.233 6.932 6.932 0 0 0-2.122 1.188 6.464 6.464 0 0 0-.663.578 4.913 4.913 0 0 0-.446.467l-.265.292c-.058.064-.1.1-.1.09s0-.037.08-.106l.249-.308a4.562 4.562 0 0 1 .435-.477 5.748 5.748 0 0 1 .652-.6 6.9 6.9 0 0 1 2.122-1.236 6.216 6.216 0 0 1 3.3-.276c3.257 1.591 7.484 3.713 12.39 6.237s10.5 5.4 16.532 8.391l.117.058-.048.117-1.787 4.391-3.1 7.706-.048.111-.117-.032-25.007-7.728-7.362-2.3-1.973-.631-.53-.17z" fill="#263238"/><path data-name="Path 7924" d="M3444.151 5322.535a1.061 1.061 0 0 1 .1.286 5.655 5.655 0 0 1 .18.843 10.709 10.709 0 0 1 0 3.182 20.827 20.827 0 0 1-1.246 4.54c-.636 1.655-1.448 3.421-2.27 5.3-1.66 3.713-3.182 7.059-4.275 9.547l-1.321 2.875c-.154.313-.276.573-.377.774a1.783 1.783 0 0 1-.143.265.986.986 0 0 1 .1-.286l.324-.8c.308-.727.732-1.708 1.246-2.912 1.061-2.477 2.562-5.834 4.2-9.547.822-1.867 1.644-3.628 2.291-5.267a21.278 21.278 0 0 0 1.294-4.508 11.615 11.615 0 0 0 .08-3.129c-.032-.371-.1-.652-.127-.849a1.527 1.527 0 0 1-.056-.314z" fill="#263238"/><path data-name="Path 7925" d="M3429.656 5326.783c.042 0 .122.642.313 1.671a30.716 30.716 0 0 0 1 3.957 30.1 30.1 0 0 0 1.533 3.782 15.964 15.964 0 0 1 .732 1.533 3.474 3.474 0 0 1-.276-.366c-.164-.244-.382-.61-.631-1.061a23.241 23.241 0 0 1-2.551-7.8c-.069-.53-.111-.949-.122-1.241a1.358 1.358 0 0 1 .002-.475z" fill="#fafafa"/><path data-name="Path 7926" d="M3431.639 5333.598a15.314 15.314 0 0 0 .817-1.459 6.508 6.508 0 0 0 .382-3.962l-.032-.133.249.048a7.712 7.712 0 0 0-1.384 3.67c-.106 1.013 0 1.644-.048 1.649a1.4 1.4 0 0 1-.1-.44 5.982 5.982 0 0 1-.042-1.225 7.425 7.425 0 0 1 1.347-3.819l.18-.249.069.3.032.143a6.28 6.28 0 0 1-.477 4.1 5.305 5.305 0 0 1-.668 1.061c-.187.215-.309.327-.325.316z" fill="#fafafa"/><path data-name="Path 7927" d="M3430.031 5331.529a1.406 1.406 0 0 1-.467-.164 8.185 8.185 0 0 1-1.172-.652 9.509 9.509 0 0 1-1.538-1.284 9.373 9.373 0 0 1-.769-.9 5.124 5.124 0 0 1-.355-.53.875.875 0 0 1-.1-.732.472.472 0 0 1 .345-.265.668.668 0 0 1 .387.048 3.074 3.074 0 0 1 .53.35 8.671 8.671 0 0 1 .9.769 8.9 8.9 0 0 1 1.273 1.543 7.472 7.472 0 0 1 .642 1.183 1.416 1.416 0 0 1 .159.472c-.048 0-.313-.631-.96-1.543a9.663 9.663 0 0 0-1.289-1.469 9.452 9.452 0 0 0-.886-.737 3.037 3.037 0 0 0-.493-.313c-.175-.074-.324-.042-.382.08a.637.637 0 0 0 .09.488 5.3 5.3 0 0 0 .329.493 10 10 0 0 0 2.222 2.185c.909.66 1.556.936 1.534.978z" fill="#fafafa"/><path data-name="Path 7928" d="M3430.747 5335.979a1.114 1.114 0 0 1-.387.133 4.614 4.614 0 0 1-1.108.1 5.113 5.113 0 0 1-3.368-1.448l-.17-.164.228-.064.361-.1a5.187 5.187 0 0 1 3.851.647 4.466 4.466 0 0 1 .928.769c.191.212.276.345.26.355a10.161 10.161 0 0 0-1.289-.944 5.3 5.3 0 0 0-3.686-.53l-.345.1.058-.228a5.155 5.155 0 0 0 3.182 1.448 11.786 11.786 0 0 0 1.485-.069z" fill="#fafafa"/><path data-name="Path 7929" d="M3433.516 5363.358a2.58 2.58 0 0 1 .408-.212c.27-.117.668-.281 1.162-.451a23.246 23.246 0 0 1 8.109-1.252 10.856 10.856 0 0 1 1.246.08 1.751 1.751 0 0 1 .451.08 13.858 13.858 0 0 1-1.7.037 31.018 31.018 0 0 0-4.068.339 31.724 31.724 0 0 0-3.978.9 15.01 15.01 0 0 1-1.63.479z" fill="#fafafa"/><path data-name="Path 7930" d="M3440.512 5362.047a1.634 1.634 0 0 1-.149.44 5.464 5.464 0 0 1-.652 1.061 6.264 6.264 0 0 1-3.447 2.275l-.138.037-.3.074.143-.27a7.394 7.394 0 0 1 2.8-2.928 5.831 5.831 0 0 1 1.114-.53 1.325 1.325 0 0 1 .435-.106c0 .048-.589.239-1.448.79a7.77 7.77 0 0 0-2.652 2.891l-.149-.2.133-.032a6.492 6.492 0 0 0 3.357-2.122 15.312 15.312 0 0 0 .953-1.38z" fill="#fafafa"/><path data-name="Path 7931" d="M3437.94 5361.549c-.032.042-.568-.414-1.591-.923a10.162 10.162 0 0 0-1.771-.716 8.937 8.937 0 0 0-1.124-.255 4.776 4.776 0 0 0-.594-.074.61.61 0 0 0-.472.143c-.085.106-.042.249.1.371a2.816 2.816 0 0 0 .5.3 9.59 9.59 0 0 0 1.061.461 9.739 9.739 0 0 0 1.893.483c1.1.17 1.8.111 1.809.164a1.661 1.661 0 0 1-.493.069 7.579 7.579 0 0 1-1.342-.037 8.911 8.911 0 0 1-1.952-.44 9.458 9.458 0 0 1-1.1-.456 2.975 2.975 0 0 1-.53-.334.7.7 0 0 1-.223-.324.472.472 0 0 1 .085-.424.864.864 0 0 1 .695-.249 5.535 5.535 0 0 1 .631.08 9.014 9.014 0 0 1 1.156.281 9.238 9.238 0 0 1 1.835.79 7.687 7.687 0 0 1 1.119.753 1.508 1.508 0 0 1 .308.339z" fill="#fafafa"/><path data-name="Path 7932" d="M3442.23 5360.175a11.411 11.411 0 0 0-.636-1.337 5.161 5.161 0 0 0-2.731-2.19l.18-.154a1.772 1.772 0 0 0 .069.35 5.3 5.3 0 0 0 2.153 3.039 10.744 10.744 0 0 0 1.427.732 1.31 1.31 0 0 1-.435-.074 4.662 4.662 0 0 1-1.1-.493 5.219 5.219 0 0 1-2.339-3.14 1.66 1.66 0 0 0-.074-.366l-.042-.228.223.074a5.086 5.086 0 0 1 2.811 2.355 4.11 4.11 0 0 1 .414 1.029 1.008 1.008 0 0 1 .08.403z" fill="#fafafa"/><path data-name="Path 7933" d="M3439.148 5328.776a7.424 7.424 0 0 0 .53-1.411 4.2 4.2 0 0 0-.748-3.4h.212l-.042.048a3.3 3.3 0 0 0-.636 3.384 8.142 8.142 0 0 0 .679 1.374 2.88 2.88 0 0 1-.854-1.3 3.4 3.4 0 0 1-.255-1.7 3.559 3.559 0 0 1 .87-1.931l.042-.053.111-.122.1.133a4.041 4.041 0 0 1 .811 1.925 4.243 4.243 0 0 1-.1 1.7 3.506 3.506 0 0 1-.456 1.061c-.147.197-.253.303-.264.292z" fill="#fafafa"/><path data-name="Path 7934" d="M3450.929 5367.733a7 7 0 0 0 .53-1.411 4.179 4.179 0 0 0-.743-3.421h.212l-.042.048a3.3 3.3 0 0 0-.636 3.384 8.141 8.141 0 0 0 .679 1.374 2.88 2.88 0 0 1-.865-1.31 3.4 3.4 0 0 1-.255-1.7 3.559 3.559 0 0 1 .87-1.931l.042-.053.111-.122.1.133a4.042 4.042 0 0 1 .811 1.925 4.169 4.169 0 0 1-.1 1.7 3.505 3.505 0 0 1-.456 1.061c-.142.227-.248.333-.258.323z" fill="#fafafa"/><path data-name="Path 7935" d="M3422.182 5349.048c-.027-.048.817-.435 2.068-1.225a7.117 7.117 0 0 0 1.893-1.718 4.089 4.089 0 0 0 .843-2.9c-.138-.106.186.138.149.117h-.2a.447.447 0 0 0-.2.032l-.4.09a6.027 6.027 0 0 0-.753.265 5.527 5.527 0 0 0-1.284.78 5.436 5.436 0 0 0-1.538 2.015 7.256 7.256 0 0 0-.53 2.312 1.994 1.994 0 0 1-.037-.652 5.261 5.261 0 0 1 .387-1.734 5.431 5.431 0 0 1 1.559-2.122 5.5 5.5 0 0 1 2.122-1.108c.138-.037.276-.074.419-.1l.212-.037h.212l.154.117a4.243 4.243 0 0 1-.912 3.092 7.007 7.007 0 0 1-1.994 1.734 15.014 15.014 0 0 1-1.591.817 3.052 3.052 0 0 1-.579.225z" fill="#fafafa"/><g data-name="Group 619"><path data-name="Path 7837" d="M3486.485 5279.692a4.742 4.742 0 1 1 3.983 6.964c-2.339-.1-4.243-1.867-5.834-3.58" fill="#263238"/><path data-name="Path 7838" d="M3484.615 5278.819a.971.971 0 0 1 1.146-.764 1.443 1.443 0 0 1 1.024 1.061 2.917 2.917 0 0 1-.064 1.522 6.237 6.237 0 0 1-1.061 2.121c-.334.435-.865.865-1.374.668s-.621-.928-.567-1.5a10.109 10.109 0 0 1 1.1-3.713" fill="#ff725e"/><path data-name="Path 7839" d="M3471.427 5258.047a26.257 26.257 0 0 0-9.732-8.868 17.158 17.158 0 0 0-12.92-1.188 12.825 12.825 0 0 0-8.56 9.377c-.652 3.458-.09 8.836-2.652 11.223-5.3 4.879-4.487 14.124-1.379 19.406 0 0 4.81 5.834-.382 11.2 0 0-3.06 2.169-1.527 8.051 2.387 9.181-8.067 14.283-1.745 12.851l21.125-2.328 2.36-23.936" fill="#263238"/><path data-name="Path 7840" d="M3483.886 5270.972a4.969 4.969 0 0 1 1.665 4.418 26.4 26.4 0 0 1-1.151 4.773 7.531 7.531 0 0 0 0 4.842c1.061 2.6 4.079 3.66 6.364 5.3a12.787 12.787 0 0 1 5.251 11.292 8.433 8.433 0 0 0 .069 3.787c.53 1.358 1.915 2.169 2.758 3.357a6.5 6.5 0 0 1 .106 6.513 19.215 19.215 0 0 1-4.381 5.208 113.1 113.1 0 0 0-25.84-16.871" fill="#263238"/><path data-name="Path 7841" d="M3486.819 5281.002a11.442 11.442 0 0 0 1.352.1 8.486 8.486 0 0 1 3.14.753 4.8 4.8 0 0 1 2.233 2.2 6.847 6.847 0 0 1 .382 1.278.8.8 0 0 0 0-.366 3.219 3.219 0 0 0-.228-.986 4.688 4.688 0 0 0-2.291-2.376 7.669 7.669 0 0 0-3.23-.7 4.476 4.476 0 0 0-1.358.097z" fill="#455a64"/><path data-name="Path 7882" d="M3445.534 5265.524c.764-5.834 6.174-12.2 17.587-9.547l11.217 3.633a3.437 3.437 0 0 1 2.832 3.681l-2.166 36.105a10.417 10.417 0 0 1-10.369 9.43 10.411 10.411 0 0 1-10.4-10.883c-.244-.861.821-1.232-1.586-1.547s-7.388-1.74-8.279-11.589c-.454-4.883.321-12.818 1.164-19.283z" fill="#ffbe9d"/><path data-name="Path 7883" d="M3448.436 5272.239a1.252 1.252 0 0 0 1.124 1.342 1.2 1.2 0 0 0 1.363-1.061 1.252 1.252 0 0 0-1.119-1.342 1.2 1.2 0 0 0-1.368 1.061z" fill="#263238"/><path data-name="Path 7884" d="M3446.76 5270.548c.143.17 1.135-.467 2.482-.371s2.286.833 2.44.679c.08-.069-.058-.377-.467-.716a3.447 3.447 0 0 0-1.941-.743 3.288 3.288 0 0 0-1.994.5c-.43.285-.589.598-.52.651z" fill="#263238"/><path data-name="Path 7885" d="M3461.308 5272.909a1.252 1.252 0 0 0 1.123 1.341 1.2 1.2 0 0 0 1.363-1.061 1.252 1.252 0 0 0-1.119-1.342 1.2 1.2 0 0 0-1.368 1.061z" fill="#263238"/><path data-name="Path 7886" d="M3460.088 5271.269c.143.175 1.14-.461 2.482-.371s2.286.833 2.44.679c.08-.069-.058-.371-.467-.716a3.447 3.447 0 0 0-1.941-.743 3.326 3.326 0 0 0-1.994.5c-.43.29-.585.571-.52.651z" fill="#263238"/><path data-name="Path 7887" d="M3454.636 5280.572a8.661 8.661 0 0 0-2.159-.53c-.339-.058-.658-.149-.7-.387a1.729 1.729 0 0 1 .3-1l1.188-2.551a44.764 44.764 0 0 0 2.742-6.688 47.606 47.606 0 0 0-3.272 6.455c-.4.9-.785 1.75-1.151 2.567a1.989 1.989 0 0 0-.265 1.337.843.843 0 0 0 .53.53 2.217 2.217 0 0 0 .578.122 10.684 10.684 0 0 0 2.209.145z" fill="#263238"/><path data-name="Path 7889" d="M3454.991 5283.839a2.429 2.429 0 0 1 2.233-.753 2.222 2.222 0 0 1 1.474.923 1.405 1.405 0 0 1 0 1.591 1.623 1.623 0 0 1-1.793.329 5.065 5.065 0 0 1-1.66-1.114 1.5 1.5 0 0 1-.355-.424.456.456 0 0 1 .032-.5" fill="#eb996e"/><path data-name="Path 7890" d="M3458.534 5281.754c-.217 0-.318 1.432-1.639 2.387s-2.859.689-2.885.891c0 .09.329.308.981.366a3.628 3.628 0 0 0 2.408-.658 3.182 3.182 0 0 0 1.278-2.01c.096-.606-.042-.976-.143-.976z" fill="#263238"/><path data-name="Path 7891" d="M3460.073 5267.53c.106.371 1.459.292 3.023.589s2.816.811 3.044.493c.106-.149-.09-.53-.583-.9a5.341 5.341 0 0 0-4.625-.827c-.59.199-.913.464-.859.645z" fill="#263238"/><path data-name="Path 7892" d="M3447.396 5267.402c.217.318 1.162.064 2.281.122s2.042.345 2.281.042c.106-.149 0-.467-.414-.785a3.3 3.3 0 0 0-3.675-.133c-.419.291-.579.591-.473.754z" fill="#263238"/><path data-name="Path 7893" d="M3465.688 5256.707c-1.83 2.938-6.863 2.5-10.316 2.753-.827.064-1.66.032-2.477.154a3.713 3.713 0 0 0-2.2 1.061c-.753.806-.859 1.941-1.284 2.928a5.463 5.463 0 0 1-4.726 3.267 1.594 1.594 0 0 1-1.506-.626 1.782 1.782 0 0 1-.037-1.14 23.07 23.07 0 0 1 2.371-7.383 11.785 11.785 0 0 1 6.895-5.256c2.837-.78 9.732-.371 12.347 1.061" fill="#263238"/><path data-name="Path 7894" d="M3466.084 5252.933a12.07 12.07 0 0 0 .318 15.153c2.079 2.339 5.3 4.317 5.256 7.425-.069 3.463-4.3 5.664-4.63 9.117-.345 3.548 3.538 6.195 4.01 9.732.377 2.843-1.549 5.479-3.675 7.425s-4.625 3.58-6.03 6.083a11.671 11.671 0 0 0-.53 9.213 29.2 29.2 0 0 0 4.662 8.221 36.181 36.181 0 0 1 9.016-1.13l-.244-3.469a3.165 3.165 0 0 0 2.031 3.113 8.427 8.427 0 0 0 3.935.419 64.136 64.136 0 0 0 12.081-1.913 21.3 21.3 0 0 1-3.8-5.792 7.131 7.131 0 0 1 .53-6.662c1.093-1.512 2.928-2.381 3.951-3.941 1.527-2.339.753-5.574-.9-7.834s-4.02-3.866-6.052-5.786-3.835-4.434-3.75-7.229c.111-3.628 3.341-6.64 3.32-10.273 0-4.132-4.116-7.043-5.463-10.952-.971-2.832-.53-5.765-2.217-8.247a7.526 7.526 0 0 0-5.691-3.31c-2.212-.1-4.153-.339-6.142.636" fill="#263238"/><path data-name="Path 7895" d="M3464.113 5257.962a1.294 1.294 0 0 0 0 .329 6.635 6.635 0 0 0 .127.928 11.382 11.382 0 0 0 1.135 3.257 12.554 12.554 0 0 0 3.241 3.957 11.465 11.465 0 0 0 2.583 1.591 19.4 19.4 0 0 0 3.1 1 11.282 11.282 0 0 1 2.975 1.135 4.773 4.773 0 0 1 1.9 2.18c.764 1.734.88 3.511 1.48 4.869a6.693 6.693 0 0 0 1.024 1.692 3.957 3.957 0 0 0 1.167.939 2.779 2.779 0 0 0 .907.276 1.2 1.2 0 0 0 .329 0 3.606 3.606 0 0 1-1.183-.377 3.93 3.93 0 0 1-1.1-.944 6.523 6.523 0 0 1-.965-1.665c-.562-1.326-.652-3.1-1.427-4.9a5.039 5.039 0 0 0-1.973-2.265 11.266 11.266 0 0 0-3.05-1.172 20.19 20.19 0 0 1-3.055-.986 11.4 11.4 0 0 1-2.535-1.554 12.634 12.634 0 0 1-3.225-3.85 12.013 12.013 0 0 1-1.2-3.182c-.186-.807-.223-1.258-.255-1.258z" fill="#455a64"/><path data-name="Path 7896" d="M3438.395 5268.05a2.9 2.9 0 0 1 .419-.424 2.445 2.445 0 0 1 1.538-.387c.339 0 .721.058 1.135.09a9.314 9.314 0 0 0 1.331 0 9.112 9.112 0 0 0 2.954-.748 8.921 8.921 0 0 0 4.079-3.644 8.216 8.216 0 0 0 .689-1.522 1.936 1.936 0 0 0 .148-.594 18.819 18.819 0 0 1-1.008 2.015 9.138 9.138 0 0 1-4.02 3.5 9.3 9.3 0 0 1-2.864.743 9.775 9.775 0 0 1-1.294.032c-.408 0-.8-.058-1.151-.058a2.445 2.445 0 0 0-1.591.5 1.294 1.294 0 0 0-.3.355c-.056.084-.07.137-.065.142z" fill="#455a64"/><path data-name="Path 7897" d="M3440.04 5260.709a1.136 1.136 0 0 0 .308 0 6.084 6.084 0 0 0 .875-.133 6.364 6.364 0 0 0 2.853-1.538 6.6 6.6 0 0 0 1.358-1.8c.382-.721.689-1.527 1.061-2.339a6.709 6.709 0 0 1 1.591-2.259 6.364 6.364 0 0 1 2.62-1.363 10.125 10.125 0 0 1 5.712.382 37.313 37.313 0 0 1 4.4 1.867 31.954 31.954 0 0 0 2.97 1.31c.361.133.642.223.838.281a1.151 1.151 0 0 0 .3.074 1.172 1.172 0 0 0-.281-.127l-.817-.329c-.7-.3-1.7-.764-2.917-1.384a34.4 34.4 0 0 0-4.4-1.957 10.188 10.188 0 0 0-5.861-.408 6.64 6.64 0 0 0-2.731 1.421 6.964 6.964 0 0 0-1.634 2.36c-.382.827-.684 1.628-1.061 2.339a6.4 6.4 0 0 1-1.284 1.771 6.492 6.492 0 0 1-2.747 1.591c-.729.209-1.158.209-1.153.241z" fill="#455a64"/><path data-name="Path 7898" d="M3477.771 5258.757a2.079 2.079 0 0 0-.133-.573 6.619 6.619 0 0 0-.705-1.453 7.038 7.038 0 0 0-9.441-2.381 6.423 6.423 0 0 0-1.31.944 1.952 1.952 0 0 0-.392.446 11.413 11.413 0 0 1 1.793-1.215 7.07 7.07 0 0 1 9.191 2.318 11.807 11.807 0 0 1 .997 1.914z" fill="#455a64"/><path data-name="Path 7899" d="M3484.841 5322.737a2.763 2.763 0 0 1-.642-.111 4.01 4.01 0 0 1-1.649-.8 5.574 5.574 0 0 1-1.7-2.339 5.94 5.94 0 0 1-.408-1.793 7.685 7.685 0 0 1 .154-2.031 13.933 13.933 0 0 1 1.862-4.312c.886-1.453 1.994-2.906 2.959-4.582a14.13 14.13 0 0 0 1.225-2.71 10.178 10.178 0 0 0 .461-3.071 11.276 11.276 0 0 0-1.915-6.168 10.693 10.693 0 0 0-2.249-2.434 17.742 17.742 0 0 0-2.763-1.634 14.073 14.073 0 0 1-2.588-1.591 5.654 5.654 0 0 1-1.655-2.328 10.655 10.655 0 0 1-.313-5.3c.26-1.681.642-3.235.79-4.689a12.072 12.072 0 0 0-.191-3.93 8.231 8.231 0 0 0-1.061-2.763 3.819 3.819 0 0 0-1.347-1.321 1.926 1.926 0 0 0-.446-.191.6.6 0 0 0-.164-.048 3.164 3.164 0 0 1 .583.286 3.9 3.9 0 0 1 1.284 1.31 8.375 8.375 0 0 1 1.018 2.737 12.145 12.145 0 0 1 .143 3.877c-.154 1.437-.53 2.981-.822 4.673a10.878 10.878 0 0 0 .3 5.463 5.914 5.914 0 0 0 1.729 2.429 14.519 14.519 0 0 0 2.652 1.644 16.57 16.57 0 0 1 2.7 1.628 10.379 10.379 0 0 1 2.159 2.36 11.021 11.021 0 0 1 1.872 6.014 10.008 10.008 0 0 1-.44 2.991 13.731 13.731 0 0 1-1.2 2.652c-.944 1.66-2.047 3.119-2.933 4.593a13.991 13.991 0 0 0-1.856 4.386 8.088 8.088 0 0 0-.138 2.09 6.025 6.025 0 0 0 .44 1.814 5.632 5.632 0 0 0 1.787 2.4 3.941 3.941 0 0 0 1.708.769 2.746 2.746 0 0 0 .654.03z" fill="#455a64"/><path data-name="Path 7900" d="M3442.373 5306.687a3.834 3.834 0 0 1-.9-1.4 6.576 6.576 0 0 1 .366-4.46c.334-.907.8-1.878 1.135-2.986a7.834 7.834 0 0 0 .329-1.766v-.949a6.119 6.119 0 0 0-.17-.955 11.668 11.668 0 0 0-1.771-3.66c-.79-1.172-1.7-2.307-2.54-3.527a11.668 11.668 0 0 1-1.878-3.829 5.871 5.871 0 0 1 .419-3.861 14.177 14.177 0 0 1 2.015-3.007c.721-.88 1.443-1.681 1.994-2.493a10.5 10.5 0 0 0 1.246-2.334 5.946 5.946 0 0 0 .387-1.963 4.307 4.307 0 0 0-.17-1.252 2.311 2.311 0 0 0-.159-.408 5.351 5.351 0 0 1 .217 1.66 6.057 6.057 0 0 1-.419 1.909 10.893 10.893 0 0 1-1.262 2.275c-.53.79-1.278 1.591-2.01 2.461a13.954 13.954 0 0 0-2.074 3.044 6.11 6.11 0 0 0-.446 4.026 11.711 11.711 0 0 0 1.915 3.93c.843 1.225 1.756 2.36 2.535 3.516a11.557 11.557 0 0 1 1.75 3.569c.058.313.138.615.17.923s0 .61.032.907a7.569 7.569 0 0 1-.308 1.718c-.324 1.087-.769 2.063-1.1 2.986a6.6 6.6 0 0 0-.281 4.561 3.082 3.082 0 0 0 .668 1.061 1.967 1.967 0 0 0 .239.223.481.481 0 0 0 .071.081z" fill="#455a64"/><path data-name="Path 7901" d="M3496.923 5316.312a1.517 1.517 0 0 0 .207-.435 2.949 2.949 0 0 0 .08-1.395 5.214 5.214 0 0 0-.854-2.031c-.467-.721-1.124-1.453-1.671-2.371a6.762 6.762 0 0 1-.859-3.32 30.231 30.231 0 0 1 .3-4.01 11.944 11.944 0 0 0-.18-4.487 9.483 9.483 0 0 0-2.519-4.095 38.559 38.559 0 0 0-3.654-3.129 31.956 31.956 0 0 1-3.352-2.954 16.124 16.124 0 0 1-4.073-6.237 12.3 12.3 0 0 1-.53-2.827 14.2 14.2 0 0 1 .042-2.18c.032-.3.058-.557.085-.79s.064-.419.09-.578l.053-.361a.424.424 0 0 0 0-.122.424.424 0 0 0-.037.117l-.08.355c-.032.159-.074.35-.117.573s-.074.5-.111.8a13.79 13.79 0 0 0-.09 2.2 12.315 12.315 0 0 0 .5 2.875 16.215 16.215 0 0 0 4.073 6.364 31.184 31.184 0 0 0 3.341 2.986 40.11 40.11 0 0 1 3.66 3.1 9.276 9.276 0 0 1 2.461 3.978 11.817 11.817 0 0 1 .186 4.386 31.075 31.075 0 0 0-.276 4.047 7.027 7.027 0 0 0 .9 3.41c.573.933 1.241 1.649 1.713 2.36a5.256 5.256 0 0 1 .875 1.962 2.944 2.944 0 0 1-.027 1.358c-.067.304-.152.451-.136.451z" fill="#455a64"/><path data-name="Path 7902" d="M3469.566 5324.98a12.731 12.731 0 0 1-1.246-2.068 10.607 10.607 0 0 1-.822-2.694 10.13 10.13 0 0 1 1.925-7.823 44.017 44.017 0 0 1 3.437-3.935 16.3 16.3 0 0 0 3.3-4.773 7.685 7.685 0 0 0 .626-3.034 6.465 6.465 0 0 0-.838-3.076c-1.061-1.893-2.652-3.315-3.713-4.986a7.388 7.388 0 0 1-1.135-2.652 8.438 8.438 0 0 1-.032-2.779 18.446 18.446 0 0 1 1.591-4.932 42.832 42.832 0 0 0 1.777-4.243 8.937 8.937 0 0 0 0-6.524 4.991 4.991 0 0 0-.971-1.5 3.24 3.24 0 0 0-.467-.424s.154.154.424.461a5.2 5.2 0 0 1 .918 1.522 9 9 0 0 1-.1 6.418 44.609 44.609 0 0 1-1.8 4.19 18.409 18.409 0 0 0-1.66 4.991 8.7 8.7 0 0 0 .032 2.869 7.537 7.537 0 0 0 1.167 2.753c1.1 1.708 2.678 3.129 3.713 4.97a6.258 6.258 0 0 1 .811 2.949 7.627 7.627 0 0 1-.573 2.928 16.219 16.219 0 0 1-3.235 4.715 42.364 42.364 0 0 0-3.437 3.972 10.293 10.293 0 0 0-1 10.682 9.234 9.234 0 0 0 .939 1.538l.3.366z" fill="#455a64"/></g></g><path data-name="Path 8004" d="M3311.27 5429.75s-7.43 3 1.14 18.78 14.42 23.53 14.42 23.53 1.54 3.67-1.57 4.33-10-.26-11.3 3.59 1.63 7.67 7.55 10.79 18.64 10.46 19.79 11.13 2.29 2.35.24 3.14-17.47 2.8-16.07 10.06 19.32 13.26 21.27 14 2.42 1.5 2.29 2.56-5.37 1.25-9.74 2-9.29 2.39-8.13 6.51 11.9 12.57 37.51 14.41l11.92.08 6.22-10.23c12-22.71 10.5-36.3 7.61-39.46s-6.88.16-9.83 3.46-5.88 7.66-6.85 7.21-1.4-1.29-1-3.31 4.83-20.41-.6-25.43-15.29 7-17 8.32-2.57-.56-2.53-1.86.54-16 1-22.68-1.06-11.14-5.16-12.12-6.83 5.4-9 7.69-4.5-1-4.5-1-3.5-9.07-12.35-24.68-15.47-10.74-15.47-10.74" fill="#ebebeb"/><path data-name="Path 8005" d="M3381.28 5557.4c-6.46-11.48-17.58-32.1-27.23-49.74s-18.39-33.6-24.79-45.12l-7.59-13.64-2.06-3.71-.53-1-.16-.33.2.31.56 1c.49.85 1.2 2.09 2.12 3.67 1.84 3.19 4.47 7.83 7.69 13.58 6.46 11.49 15.24 27.43 24.88 45.07s20.74 38.28 27.14 49.8" fill="#e0e0e0"/><path data-name="Path 8006" d="M3323.56 5481.66a3.33 3.33 0 0 1 .84.21c.53.15 1.29.4 2.23.71 1.88.64 4.45 1.58 7.27 2.67l7.2 2.82 2.19.84a3.291 3.291 0 0 1 .79.34 4 4 0 0 1-.84-.21c-.53-.15-1.29-.4-2.23-.73-1.87-.65-4.43-1.62-7.25-2.71l-7.21-2.77-2.2-.83a5.3 5.3 0 0 1-.79-.34z" fill="#e0e0e0"/><path data-name="Path 8007" d="M3344.87 5488.46c-.09 0 1.61-5.41 3.82-12s4.07-11.94 4.16-11.91-1.61 5.42-3.81 12-4.04 11.95-4.17 11.91z" fill="#e0e0e0"/><path data-name="Path 8008" d="M3358.46 5516.23a4.123 4.123 0 0 1 .47-.75l1.36-2c1.15-1.66 2.72-4 4.36-6.57s3.06-5 4.07-6.76l1.2-2.07a4.069 4.069 0 0 1 .47-.74 3.4 3.4 0 0 1-.35.81c-.24.51-.61 1.24-1.09 2.13-.95 1.79-2.33 4.22-4 6.83s-3.27 4.9-4.47 6.52c-.6.81-1.1 1.46-1.46 1.9a3.939 3.939 0 0 1-.56.7z" fill="#e0e0e0"/><path data-name="Path 8009" d="M3337.83 5514.31a3.14 3.14 0 0 1 .82 0l2.21.12c1.86.12 4.43.3 7.27.53s5.41.45 7.27.63l2.2.24a3 3 0 0 1 .81.14 4.405 4.405 0 0 1-.82 0l-2.21-.12c-1.86-.11-4.44-.3-7.28-.52s-5.41-.46-7.26-.64l-2.2-.23a4.448 4.448 0 0 1-.81-.15z" fill="#e0e0e0"/><path data-name="Path 8010" d="M3346.72 5540.34a6.922 6.922 0 0 1 1 0l2.83.14c2.39.14 5.69.35 9.33.61s6.94.51 9.33.71l2.82.26a4.59 4.59 0 0 1 1 .14 5.542 5.542 0 0 1-1 0l-2.83-.14c-2.39-.14-5.69-.35-9.33-.6s-6.94-.51-9.33-.72l-2.82-.25a4.879 4.879 0 0 1-1-.15z" fill="#e0e0e0"/><path data-name="Path 8011" d="M3372.48 5542a6.761 6.761 0 0 1 .57-1l1.64-2.56c1.37-2.16 3.27-5.15 5.26-8.51s3.74-6.45 5-8.69l1.47-2.66a6.851 6.851 0 0 1 .58-1 7.293 7.293 0 0 1-.45 1c-.31.65-.77 1.57-1.36 2.71-1.18 2.28-2.88 5.39-4.89 8.76s-3.93 6.34-5.37 8.46c-.72 1.06-1.31 1.92-1.73 2.5a5.68 5.68 0 0 1-.72.99z" fill="#e0e0e0"/><rect data-name="Rectangle 577" width="72.09" height="107.29" rx=".07" transform="translate(3493.51 5182.84)" fill="#f5f5f5"/><path data-name="Path 8012" d="M3566.36 5291h-73.61a.07.07 0 0 1-.07-.07v-108.86a.07.07 0 0 1 .07-.07h73.61a.07.07 0 0 1 .07.07v108.82a.07.07 0 0 1-.07.11zm-71.94-1.67h70.27a.07.07 0 0 0 .07-.07v-105.52a.07.07 0 0 0-.07-.07h-70.27a.07.07 0 0 0-.07.07v105.48a.07.07 0 0 0 .07.07z" fill="#ebebeb"/><rect data-name="Rectangle 578" width="57.7" height="93.98" rx=".07" transform="translate(3500.77 5189.45)" fill="#fafafa"/><rect data-name="Rectangle 579" width="32.4" height="37.97" rx=".06" transform="translate(3513.36 5216.1)" fill="#ebebeb"/><path data-name="Path 8013" d="M3543.19 5249.42c0 .12-1.56.82-4.6.47a11.26 11.26 0 0 1-5.17-2.07 10.47 10.47 0 0 1-4-6.32 9.11 9.11 0 0 1 3.07-8.64 8.29 8.29 0 0 1 2.33-1.36 6.3 6.3 0 0 1 2.92-.34 5.13 5.13 0 0 1 2.91 1.28 3.81 3.81 0 0 1 1.15 3.39 5.5 5.5 0 0 1-1.6 2.91 10.39 10.39 0 0 1-2.44 1.8 13.41 13.41 0 0 1-5.82 1.67 11.65 11.65 0 0 1-6.21-1.42 11.25 11.25 0 0 1-4.56-4.73 9.6 9.6 0 0 1-.82-6.63 9.85 9.85 0 0 1 3.47-5.43 8.81 8.81 0 0 1 2.93-1.48 7.21 7.21 0 0 1 3.3-.1 5.33 5.33 0 0 1 3 1.69 4.91 4.91 0 0 1 1.17 3.2 6 6 0 0 1-.78 3 8.079 8.079 0 0 1-1.84 2.22 12.4 12.4 0 0 1-4.6 2.47 11.57 11.57 0 0 1-4.83.37 9.81 9.81 0 0 1-4.2-1.61 9.11 9.11 0 0 1-4-6.35 7.66 7.66 0 0 1 1.49-5.45 6.57 6.57 0 0 1 2.75-2.2c.76-.29 1.19-.28 1.21-.2s-.34.27-1 .67a7.32 7.32 0 0 0-2.14 2.3 6.83 6.83 0 0 0-.87 4.66 7.62 7.62 0 0 0 3.57 5 8.84 8.84 0 0 0 7.36.7 10.41 10.41 0 0 0 3.66-2.11 4.52 4.52 0 0 0 1.72-3.45 2.48 2.48 0 0 0-2.22-2.45 4.73 4.73 0 0 0-2.11.1 6 6 0 0 0-2 1.05 7.23 7.23 0 0 0-2.52 4 7 7 0 0 0 .62 4.82 8.68 8.68 0 0 0 3.51 3.63 9 9 0 0 0 4.8 1.12 10.9 10.9 0 0 0 4.71-1.29 8.249 8.249 0 0 0 1.9-1.31 3.21 3.21 0 0 0 .95-1.55 1.38 1.38 0 0 0-.39-1.26 2.78 2.78 0 0 0-1.56-.68 3.88 3.88 0 0 0-1.83.15 5.82 5.82 0 0 0-1.71.94 7.18 7.18 0 0 0-2.24 3.07 7.08 7.08 0 0 0-.37 3.54 9.07 9.07 0 0 0 3.09 5.46 10.79 10.79 0 0 0 4.43 2.22c2.74.62 4.39.3 4.41.53z" fill="#e0e0e0"/><path data-name="Rectangle 580" fill="#e0e0e0" d="M3122.91 5224.87h72.14v119.41h-72.14z"/><path data-name="Rectangle 581" fill="#ebebeb" d="M3120.51 5224.87h72.14v119.41h-72.14z"/><path data-name="Rectangle 582" fill="#fafafa" d="M3123.58 5227.29h65.99v114.57h-65.99z"/><path data-name="Rectangle 583" fill="#ebebeb" d="M3136.14 5242.18h40.58v84.79h-40.58z"/><path data-name="Path 8014" d="M3136.14 5297c-.09-7.92 7-15.66 14.87-16.76 3.74-.53 7.72.21 11.21-1.22 6.24-2.56 8.23-10.85 14.5-13.3l.28 61.28h-40.86z" fill="#e0e0e0"/><path data-name="Rectangle 585" fill="#263238" d="M3214.45 5186.9h238.53v13.22h-238.53z"/><path data-name="Path 8015" d="M3392 5382a7.16 7.16 0 1 1 7.16-7.15 7.16 7.16 0 0 1-7.16 7.15zm0-13.31a2.555 2.555 0 1 0 0-.04z" fill="#e8505b"/><path data-name="Path 8016" d="M3582.78 5560.3c0 .14-104.95.26-234.38.26s-234.4-.12-234.4-.26 104.92-.3 234.4-.3 234.38.15 234.38.3z" fill="#263238"/><path data-name="Path 8017" d="M3199.53 5543.44c0 .12-7.74.22-17.29.22s-17.24-.1-17.24-.22 7.74-.22 17.29-.22 17.24.1 17.24.22z" fill="#fafafa"/><path data-name="Path 8018" d="M3199 5547.67c0 .12-7.26.22-16.21.22s-16.2-.1-16.2-.22 7.25-.22 16.2-.22 16.21.09 16.21.22z" fill="#fafafa"/><path data-name="Rectangle 586" fill="#263238" d="M3413.58 5366.16h139.2v194.14h-139.2z"/><path data-name="Path 8083" d="M3392.63 5367.81a68 68 0 0 1 13.24-44.27l.6.45a67.23 67.23 0 0 0-13.09 43.77z" fill="#263238"/><rect data-name="Rectangle 587" width="5.81" height="12.44" rx="2.82" transform="rotate(35.7 -6546.847 7942.995)" fill="#263238"/><path data-name="Rectangle 588" fill="#455a64" d="M3383.16 5366.16h139.2v194.14h-139.2z"/><path data-name="Path 8084" d="M3422.79 5366.19a1.727 1.727 0 0 1-.13.53c-.13.35-.25.91-.43 1.52-.09.33-.2.7-.31 1.09s-.3.82-.47 1.27a27 27 0 0 1-1.26 3.06l-.82 1.73c-.3.6-.67 1.19-1 1.82a45.478 45.478 0 0 1-2.5 3.86 50.56 50.56 0 0 1-7.11 7.74 49.621 49.621 0 0 1-8.69 5.92 44.586 44.586 0 0 1-4.18 1.92c-.67.25-1.31.54-1.94.74l-1.84.57a29.476 29.476 0 0 1-3.2.81c-.48.1-.91.21-1.33.28l-1.12.15-1.57.2a1.971 1.971 0 0 0-.54.06l.54-.1 1.55-.24 1.13-.17c.41-.07.84-.19 1.32-.29a32.482 32.482 0 0 0 3.18-.84l1.82-.58c.64-.2 1.27-.5 1.94-.75a44.376 44.376 0 0 0 4.15-1.93 46.43 46.43 0 0 0 15.72-13.56c.91-1.33 1.81-2.57 2.5-3.83.35-.63.73-1.21 1-1.8l.84-1.73a29.154 29.154 0 0 0 1.28-3c.18-.45.35-.87.49-1.26l.33-1.09c.18-.6.34-1.1.46-1.5z" fill="#263238"/><path data-name="Path 8085" d="M3408.71 5366.63v.4l-.18 1.14a14.111 14.111 0 0 1-.37 1.8 23.781 23.781 0 0 1-.65 2.34c-.15.43-.3.87-.45 1.34s-.38.92-.58 1.42q-.66 1.536-1.47 3a37.1 37.1 0 0 1-4.44 6.33 37.82 37.82 0 0 1-5.73 5.2 32.995 32.995 0 0 1-2.85 1.83c-.46.26-.89.54-1.33.75l-1.27.62c-.8.41-1.58.67-2.24.94a14.1 14.1 0 0 1-1.74.58l-1.11.32a3.119 3.119 0 0 1-.39.1l.38-.14 1.1-.35a17.05 17.05 0 0 0 1.71-.62 22.85 22.85 0 0 0 2.22-1c.41-.19.83-.4 1.26-.62s.87-.5 1.33-.76a32.546 32.546 0 0 0 2.81-1.83 38.122 38.122 0 0 0 5.69-5.19 37.7 37.7 0 0 0 4.43-6.28 33.406 33.406 0 0 0 1.48-3c.2-.49.42-.95.59-1.41l.46-1.33a23.542 23.542 0 0 0 .68-2.32 14.6 14.6 0 0 0 .4-1.78c.08-.44.16-.82.22-1.14s.04-.34.04-.34z" fill="#263238"/><path data-name="Path 8086" d="M3448.42 5389.08a1.35 1.35 0 0 0-.62.37 1.68 1.68 0 0 0-.43.81 1.46 1.46 0 0 0 .27 1.24 26.659 26.659 0 0 0 5.36.5 9.43 9.43 0 0 0 3.56-.85 6.09 6.09 0 0 0 2.84-3.1 5 5 0 0 0 .39-2.31 3.56 3.56 0 0 0-1-2.21c-1.25-1.24-3.23-1.46-5.1-1.35a33.249 33.249 0 0 0-12 3.21 30.811 30.811 0 0 0-5.89 3.65 12.63 12.63 0 0 0-4.22 5.85 5.78 5.78 0 0 0 .09 3.72 5.87 5.87 0 0 0 2.42 2.93 14.68 14.68 0 0 0 7.79 1.69c5.48-.14 11.34-.88 16.62-3.59a22 22 0 0 0 6.94-5.55 15.93 15.93 0 0 0 3.62-8.29 13.48 13.48 0 0 0-2.68-10 14 14 0 0 0-8.95-4.73 27.24 27.24 0 0 0-10 .54c-1.58.42-3.14.9-4.68 1.34a40.865 40.865 0 0 0-4.44 1.73 88.292 88.292 0 0 0-15.35 9c-4.55 3.24-8.65 6.45-12.45 9.3s-7.3 5.37-10.44 7.46a88.1 88.1 0 0 1-8.38 4.85l-3.19 1.52c-.95.39-1.76.69-2.41.94-1.31.51-2 .76-2 .76l2-.8c.65-.26 1.46-.56 2.4-.95l3.18-1.54a90.053 90.053 0 0 0 8.35-4.88c3.14-2.09 6.65-4.58 10.42-7.47s7.89-6.08 12.44-9.33a88.581 88.581 0 0 1 15.38-9c1.45-.6 2.95-1.15 4.45-1.74 1.55-.44 3.11-.92 4.7-1.34a27.37 27.37 0 0 1 10-.55 14.16 14.16 0 0 1 9.08 4.8 13.62 13.62 0 0 1 2.72 10.18 16.21 16.21 0 0 1-3.65 8.39 22.4 22.4 0 0 1-7 5.6c-5.32 2.73-11.2 3.47-16.71 3.61a14.86 14.86 0 0 1-7.89-1.73 5.94 5.94 0 0 1-2.58-6.86 12.68 12.68 0 0 1 4.29-5.94 30.769 30.769 0 0 1 5.92-3.66 33.51 33.51 0 0 1 12-3.2c1.88-.11 3.9.12 5.19 1.4a3.67 3.67 0 0 1 1.06 2.29 5.18 5.18 0 0 1-.4 2.36 6.23 6.23 0 0 1-2.9 3.15 9.541 9.541 0 0 1-3.54.7 26.18 26.18 0 0 1-5.37-.49 1.48 1.48 0 0 1-.26-1.28 1.72 1.72 0 0 1 .44-.82 1.17 1.17 0 0 1 .61-.33z" fill="#263238"/><path data-name="Path 8087" d="M3504.71 5366.38l-1.33.57a18.74 18.74 0 0 0-3.54 2.15 22.071 22.071 0 0 0-4.41 4.83c-1.48 2.09-3 4.61-4.87 7.23s-3.88 5.53-6.1 8.61a69.924 69.924 0 0 1-7.79 9.29 44.312 44.312 0 0 1-5.07 4.17 48.866 48.866 0 0 1-5.9 3.47 60.511 60.511 0 0 1-13.59 4.66c-9.66 2.15-19.13 2.25-27.65 2.3s-16.23 0-22.66.56a30.42 30.42 0 0 0-14.35 4.78 25.248 25.248 0 0 0-3.25 2.57c-.69.66-1 1-1 1s.33-.37 1-1.05a24.869 24.869 0 0 1 3.24-2.6 30.23 30.23 0 0 1 14.37-4.8c6.44-.58 14.14-.59 22.68-.61s18-.17 27.6-2.31a60.47 60.47 0 0 0 13.55-4.64 48.363 48.363 0 0 0 5.87-3.45 43.1 43.1 0 0 0 5-4.15 68.417 68.417 0 0 0 7.79-9.25c2.23-3.07 4.21-6 6.13-8.6s3.4-5.11 4.89-7.21a21.659 21.659 0 0 1 4.45-4.83 18.939 18.939 0 0 1 3.57-2.12z" fill="#263238"/><path data-name="Path 8088" d="M3383.16 5459.13s.14-.57.43-1.66a20.779 20.779 0 0 1 .59-2 28.519 28.519 0 0 1 1-2.68 34.58 34.58 0 0 1 3.64-6.9 35 35 0 0 1 7-7.61 55.29 55.29 0 0 1 24.46-10.71c5-.95 10.29-1.48 15.77-2a146.229 146.229 0 0 0 16.89-2.34 45.86 45.86 0 0 0 15.73-6.27 51.55 51.55 0 0 0 11.63-10.7 139.179 139.179 0 0 0 8.36-11.7c2.47-3.77 4.74-7.3 6.93-10.45 1.1-1.57 2.15-3.06 3.23-4.41.53-.68 1-1.36 1.55-2l1.53-1.79c1-1.19 2-2.17 2.9-3.1.47-.46.89-.92 1.33-1.32l1.29-1.11c.83-.68 1.51-1.35 2.2-1.81l1.71-1.2 1.42-1-1.4 1-1.7 1.21c-.68.46-1.35 1.14-2.18 1.82-.4.36-.83.73-1.28 1.11s-.85.87-1.32 1.33c-.9.93-1.92 1.92-2.88 3.1l-1.53 1.8c-.52.62-1 1.31-1.54 2-1.07 1.35-2.11 2.85-3.21 4.42-2.18 3.14-4.44 6.68-6.91 10.46a140.822 140.822 0 0 1-8.35 11.72 51.512 51.512 0 0 1-11.67 10.75 46.12 46.12 0 0 1-15.79 6.31 149.573 149.573 0 0 1-16.99 2.35c-5.48.53-10.78 1.05-15.76 2a55.37 55.37 0 0 0-24.4 10.63 35.26 35.26 0 0 0-10.63 14.43c-.42 1-.73 1.89-1 2.67s-.47 1.45-.61 2c-.27 1.09-.44 1.65-.44 1.65z" fill="#263238"/><path data-name="Path 8089" d="M3507.79 5442.34a17.338 17.338 0 0 1-.26 2.6 12.48 12.48 0 0 1-.89 3.05 5 5 0 0 1-3.06 2.9 4.16 4.16 0 0 1-2.56-.06 6.37 6.37 0 0 1-2.39-1.53 11.181 11.181 0 0 1-1.88-2.47 12 12 0 0 1-.71-1.49 15.486 15.486 0 0 1-.62-1.59 30.09 30.09 0 0 1-.71-15.57 46.9 46.9 0 0 1 2.68-8.74 28.1 28.1 0 0 1 2.17-4.36 9.91 9.91 0 0 1 3.6-3.53 5 5 0 0 1 5 .26 10.14 10.14 0 0 1 3.28 4.27 81.271 81.271 0 0 1 3.52 10.7 93.341 93.341 0 0 1 2.94 24c0 2.1-.1 4.21-.26 6.34a31.63 31.63 0 0 1-1.06 6.37 15.49 15.49 0 0 1-3 5.79 10.33 10.33 0 0 1-5.57 3.49 12.84 12.84 0 0 1-6.6-.38 19.82 19.82 0 0 1-5.8-3 55.052 55.052 0 0 1-4.92-4.18c-1.57-1.45-3.12-2.89-4.58-4.4-2.9-3-5.48-6.4-6.64-10.32a24.39 24.39 0 0 1-.1-11.76c.39-1.89.86-3.74 1.42-5.53s1.06-3.58 1.7-5.29c.31-.86.61-1.72.91-2.57l1-2.49c.63-1.65 1.36-3.23 2.06-4.8a114.56 114.56 0 0 1 27.42-37.39c2.44-2.16 4.38-3.79 5.76-4.82l2.07-1.6s-.7.57-2.05 1.63-3.29 2.68-5.72 4.85a115.711 115.711 0 0 0-18 20.81 113.281 113.281 0 0 0-9.31 16.47c-.7 1.57-1.43 3.15-2.06 4.8q-.48 1.23-1 2.49c-.29.84-.59 1.7-.9 2.56-.63 1.71-1.14 3.49-1.69 5.28s-1 3.63-1.41 5.52a24.26 24.26 0 0 0 .1 11.67c1.15 3.87 3.7 7.24 6.6 10.23 1.46 1.5 3 2.94 4.57 4.39a56 56 0 0 0 4.9 4.16 19.429 19.429 0 0 0 5.74 3 12.44 12.44 0 0 0 6.49.37 10.17 10.17 0 0 0 5.47-3.41 15.37 15.37 0 0 0 3-5.72 31 31 0 0 0 1.05-6.32q.24-3.19.27-6.33a93.329 93.329 0 0 0-2.93-23.9 80.3 80.3 0 0 0-3.5-10.67 10 10 0 0 0-3.2-4.2 4.83 4.83 0 0 0-4.88-.26 9.82 9.82 0 0 0-3.54 3.47 27.753 27.753 0 0 0-2.16 4.33 47.438 47.438 0 0 0-2.69 8.71 30.06 30.06 0 0 0 .68 15.5c.16.55.41 1.07.61 1.58a12.629 12.629 0 0 0 .7 1.48 10.82 10.82 0 0 0 1.86 2.46 6.459 6.459 0 0 0 2.35 1.52 4.08 4.08 0 0 0 2.51.06 4.89 4.89 0 0 0 3-2.85 11.891 11.891 0 0 0 .9-3 18.215 18.215 0 0 0 .25-1.93z" fill="#263238"/><path data-name="Path 8090" d="M3470.39 5428.07s-.27.24-.8.66a24.232 24.232 0 0 1-2.45 1.7 35.28 35.28 0 0 1-10.14 4.13 73.77 73.77 0 0 1-16.13 1.88c-6.11.2-12.87.05-19.85 1.1a51.41 51.41 0 0 0-18.59 6.65 45.37 45.37 0 0 0-12.16 10.6 42.441 42.441 0 0 0-5.63 9.35c-.57 1.17-.85 2.14-1.12 2.76a9.215 9.215 0 0 0-.38 1s.11-.34.34-1a24.029 24.029 0 0 1 1.09-2.78 41.859 41.859 0 0 1 5.58-9.41 45.49 45.49 0 0 1 12.2-10.71 51.36 51.36 0 0 1 18.65-6.66c7-1.06 13.77-.9 19.87-1.09a74.8 74.8 0 0 0 16.1-1.83 35.61 35.61 0 0 0 10.12-4.06 25.7 25.7 0 0 0 2.46-1.66c.55-.42.84-.63.84-.63z" fill="#263238"/><path data-name="Path 8091" d="M3383.84 5548.88l2.5-.09c1.63-.08 4-.17 7.12-.56a59.711 59.711 0 0 0 11.05-2.33 81.06 81.06 0 0 0 28.42-16.54 73.99 73.99 0 0 0 6.91-7.37 79.085 79.085 0 0 0 6.25-8.7c7.92-12.4 13-28.09 15.32-44.84a221.476 221.476 0 0 0 1.9-22.6l.1.1c-14.23.19-27.6 2.5-38.85 6.85a75.351 75.351 0 0 0-26.56 16.9 62 62 0 0 0-7.6 9.3 71.449 71.449 0 0 0-4.83 7.6 19.511 19.511 0 0 0-2 5.27 9.77 9.77 0 0 0-.18 1.45v.5-.5a10.674 10.674 0 0 1 .16-1.46 19.461 19.461 0 0 1 1.94-5.3 72.556 72.556 0 0 1 4.81-7.62 62.088 62.088 0 0 1 7.63-9.29 75.181 75.181 0 0 1 26.56-17c11.26-4.37 24.66-6.69 38.91-6.88h.1v.11a216.463 216.463 0 0 1-1.9 22.63c-2.35 16.77-7.41 32.5-15.36 44.92a80.314 80.314 0 0 1-6.27 8.71 74.167 74.167 0 0 1-6.93 7.37 80.869 80.869 0 0 1-28.49 16.49 60 60 0 0 1-11.08 2.3c-3.08.38-5.5.46-7.13.52z" fill="#263238"/><path data-name="Path 8092" d="M3416.16 5490.85a22.382 22.382 0 0 1 1.49-1.94 10 10 0 0 1 2.2-2 5.7 5.7 0 0 1 1.73-.76 5 5 0 0 1 2.15 0 4.08 4.08 0 0 1 2.07 1.2 2.83 2.83 0 0 1 .66 2.51 6.89 6.89 0 0 1-1.29 2.58c-.59.81-1.21 1.65-1.89 2.49a59.19 59.19 0 0 1-17.68 14.87c-2.61 1.35-5.39 2.92-8.63 3.21a6.44 6.44 0 0 1-4.66-1.23 6.28 6.28 0 0 1-2.2-4.44c-.31-3.46 1-6.87 2.45-10.13 3-6.55 8-12.45 14-17.46a92 92 0 0 1 9.65-7 58.785 58.785 0 0 1 10.89-5.65 25.9 25.9 0 0 1 12.07-1.8 12.93 12.93 0 0 1 5.66 2 8.84 8.84 0 0 1 3.48 4.72 12.79 12.79 0 0 1 .21 5.8 26.761 26.761 0 0 1-1.52 5.48 76 76 0 0 1-4.84 9.92 84.141 84.141 0 0 1-12.3 16.22 91.508 91.508 0 0 1-13.53 11.5 105.759 105.759 0 0 1-22.72 11.95c-2.84 1.09-5.09 1.81-6.61 2.3s-2.34.7-2.34.7l2.33-.74c1.52-.5 3.76-1.23 6.59-2.34a106.329 106.329 0 0 0 22.67-12 91.247 91.247 0 0 0 13.48-11.5 83.448 83.448 0 0 0 12.26-16.2 74.262 74.262 0 0 0 4.82-9.89 26.739 26.739 0 0 0 1.58-5.44 12.67 12.67 0 0 0-.21-5.71 8.57 8.57 0 0 0-3.4-4.61 12.69 12.69 0 0 0-5.56-2 26 26 0 0 0-12 1.79 59.278 59.278 0 0 0-10.85 5.63 93 93 0 0 0-9.63 7 51.687 51.687 0 0 0-14 17.39c-1.43 3.25-2.75 6.63-2.44 10a6.06 6.06 0 0 0 2.12 4.31 6.18 6.18 0 0 0 4.54 1.19c3.19-.28 6-1.82 8.56-3.18a58.249 58.249 0 0 0 7.16-4.59 59.109 59.109 0 0 0 10.51-10.14c.68-.84 1.3-1.68 1.89-2.48a6.85 6.85 0 0 0 1.28-2.54 2.72 2.72 0 0 0-.63-2.43 4 4 0 0 0-2-1.18 4.91 4.91 0 0 0-2.12 0 5.781 5.781 0 0 0-1.71.74 10.431 10.431 0 0 0-2.2 1.95c-.52.6-.89 1.09-1.14 1.42z" fill="#263238"/><path data-name="Path 8093" d="M3521.72 5485.11l-1.33-.75-3.79-2.19c-1.65-.93-3.67-2.07-6.07-3.3a62.8 62.8 0 0 0-8.38-3.65 35.05 35.05 0 0 0-10.88-1.82 27.482 27.482 0 0 0-6.11.67 22.529 22.529 0 0 0-6.06 2.38 27.69 27.69 0 0 0-9.63 10 54.76 54.76 0 0 0-5.57 14c-1.37 5-2.41 9.95-3.82 14.63a69.74 69.74 0 0 1-12.43 23.63 81.3 81.3 0 0 1-7.6 8.09 87.909 87.909 0 0 1-12.8 9.71c-1.6 1-2.89 1.74-3.76 2.23l-1.33.75s.45-.28 1.31-.78 2.15-1.24 3.74-2.27a90.9 90.9 0 0 0 12.79-9.78 82.486 82.486 0 0 0 7.57-8.1 71.064 71.064 0 0 0 7-10.6 69.769 69.769 0 0 0 5.36-13c1.4-4.67 2.45-9.62 3.81-14.63a55.322 55.322 0 0 1 5.6-14 28 28 0 0 1 9.66-10.05 23 23 0 0 1 6.11-2.39 27.441 27.441 0 0 1 6.16-.66 35 35 0 0 1 10.93 1.85 62.058 62.058 0 0 1 8.38 3.69c2.4 1.24 4.42 2.39 6.06 3.33 3.29 1.9 5.08 3.01 5.08 3.01z" fill="#263238"/><path data-name="Path 8094" d="M3520.86 5511.82s-.22-.29-.63-.86a8.663 8.663 0 0 0-.79-1 12.523 12.523 0 0 0-1.21-1.27 20.32 20.32 0 0 0-9.77-5 24.76 24.76 0 0 0-7.65-.43 26.34 26.34 0 0 0-8.44 2.41c-5.65 2.64-10.91 7.32-15.21 13.05s-7.46 11.89-10.4 17.39-5.59 10.47-8.5 14.21a38.921 38.921 0 0 1-7.95 7.82c-2.13 1.56-3.39 2.3-3.39 2.3l.88-.6c.57-.39 1.41-1 2.46-1.77a39.131 39.131 0 0 0 7.88-7.84c2.88-3.73 5.54-8.71 8.45-14.21s6.07-11.64 10.4-17.42 9.6-10.46 15.3-13.1a26.42 26.42 0 0 1 8.5-2.41 25 25 0 0 1 7.7.46 20.22 20.22 0 0 1 9.8 5.11 12.138 12.138 0 0 1 1.19 1.29 7.709 7.709 0 0 1 .79 1c.39.56.59.87.59.87z" fill="#263238"/><path data-name="Path 8095" d="M3507.38 5539.55a4.588 4.588 0 0 1 .77 0 4.51 4.51 0 0 1 2.09.65 6.25 6.25 0 0 1 2.33 2.56 5.9 5.9 0 0 1 .37 4.52 7.69 7.69 0 0 1-3.57 4.2 7.87 7.87 0 0 1-6.25.72 9.82 9.82 0 0 1-5.43-4.4 10.79 10.79 0 0 1-1.34-3.52 12.24 12.24 0 0 1-.06-3.87 15.65 15.65 0 0 1 8.48-11.41 13.55 13.55 0 0 1 6.23-1.5 11.792 11.792 0 0 1 2.89.43 11.419 11.419 0 0 1 2.45 1.11 10.42 10.42 0 0 1 4.73 6.36 7.931 7.931 0 0 1 .21 2.18 3.281 3.281 0 0 1-.07.77 9.3 9.3 0 0 0-.22-2.93 10.37 10.37 0 0 0-4.73-6.25 11.108 11.108 0 0 0-2.42-1.08 11.39 11.39 0 0 0-2.84-.42 13.449 13.449 0 0 0-6.13 1.46 15.5 15.5 0 0 0-8.36 11.29 12.09 12.09 0 0 0 .05 3.8 10.589 10.589 0 0 0 1.31 3.45 9.71 9.71 0 0 0 5.31 4.33 7.74 7.74 0 0 0 6.11-.69 7.56 7.56 0 0 0 3.52-4.1 5.8 5.8 0 0 0-.33-4.42 6.29 6.29 0 0 0-2.27-2.54 4.621 4.621 0 0 0-2.05-.68c-.51-.04-.78 0-.78-.02z" fill="#263238"/><path data-name="Path 8097" d="M3494.49 5564.72l-25.76 1.39 1.41-22.1s-1.79-.26-2.54-9.78-2.28-25.7-2.28-25.7a33.21 33.21 0 0 1 33.57 2l1.48 1z" fill="#aa6550"/><path data-name="Path 8098" d="M3498.15 5523c.15-.08 6.42-2.38 6.64 4.15s-6.37 5.42-6.39 5.23-.25-9.38-.25-9.38z" fill="#aa6550"/><path data-name="Path 8099" d="M3467.45 5523.68c-.17-.06-6.08-1.23-5.44 5.27s7 4.51 7 4.32-1.56-9.59-1.56-9.59z" fill="#aa6550"/><path data-name="Path 8100" d="M3500.21 5522.12c-.61 5.53-.22 8.38-.88 12.09-1 5.87-3.61 10.49-8.61 13.72s-12.05 3.65-16.78 0c-3.28-2.51-5.68-5.44-6.42-9.51s-1.68-11.3-2-15.42c-.52-7.42-1.52-14.5-1.52-14.5l21-5.27 12.58 6.38z" fill="#263238"/><path data-name="Path 8101" d="M3466.35 5517.33a4.13 4.13 0 0 1-3.57-.74c-1-.72-1.51-3.6-1.51-3.6s-2.71-1.35-3.08-2.66a3.7 3.7 0 0 1 .87-3.77 7 7 0 0 1 8.49-9 6.9 6.9 0 0 1 10.92-2.15 8.92 8.92 0 0 1 16.53 2.92 4.4 4.4 0 0 1 6.84 5.17 3.53 3.53 0 0 1 3.47 5.8c-.57.62-1.39 1.1-1.56 1.92a5.09 5.09 0 0 0 .49 2.19 4.54 4.54 0 0 1-1.83 4.48 13.529 13.529 0 0 1-4.66 2 12.89 12.89 0 0 1-5.74.77c-1.92-.32-3.8-1.79-3.91-3.73a9.56 9.56 0 0 1-12.81-1.31 5 5 0 0 1-8.57 1" fill="#263238"/><path data-name="Path 8102" d="M3480.18 5551.94a6.91 6.91 0 0 0 3.75.08 7 7 0 0 0 3.49-1.37c-.07-.16-1.61.44-3.6.78a35.948 35.948 0 0 0-3.64.51z" fill="#263238"/><path data-name="Path 8103" d="M3435.12 5595.73s1.66-22.84 5.55-26.17 28.53-10.7 28.53-10.7l26.07-1.16s15.16 4.8 16.27 5.41 9.73 2.83 13.62 10.62 8.36 23.41 8.36 23.41z" fill="#00486e"/><path data-name="Path 8104" d="M3497.72 5518.67a1.069 1.069 0 0 1-.32 1.07 2.4 2.4 0 0 1-1.17.72 12.363 12.363 0 0 1-1.77.25 3.87 3.87 0 0 0-1.89.79 8.83 8.83 0 0 1-2.18 1.32 6.11 6.11 0 0 1-5.77-.84l.36-.05a5.87 5.87 0 0 1-2.76 1.92 5.57 5.57 0 0 1-4.5-.44 5.8 5.8 0 0 1-2.64-3.13l.4.07a4.4 4.4 0 0 1-3.64 1.53 4.13 4.13 0 0 1-2.74-1.36 4 4 0 0 1-.94-1.73 1.46 1.46 0 0 1-.07-.69 5 5 0 0 0 1.21 2.23 3.83 3.83 0 0 0 2.56 1.17 4 4 0 0 0 3.26-1.44l.26-.31.13.38a5.42 5.42 0 0 0 2.49 2.87 5.07 5.07 0 0 0 4.1.38 5.37 5.37 0 0 0 2.52-1.73l.16-.2.2.15a5.69 5.69 0 0 0 5.3.83 8.579 8.579 0 0 0 2.1-1.23 4.2 4.2 0 0 1 2.08-.79 14.846 14.846 0 0 0 1.74-.17 2.48 2.48 0 0 0 1.11-.59 1.61 1.61 0 0 0 .41-.98z" fill="#455a64"/><path data-name="Path 8105" d="M3470 5515.27a3.14 3.14 0 0 1-.51-1 7.47 7.47 0 0 1-.35-3.13 7.79 7.79 0 0 1 1.78-4.32 7.87 7.87 0 0 1 5.05-2.65 7.77 7.77 0 0 1 3.68.43l-.3.1a5.89 5.89 0 0 1 3.56-2.61 5.58 5.58 0 0 1 3.5.27 5.44 5.44 0 0 1 1.91 1.3 1.83 1.83 0 0 1 .48.67 7.28 7.28 0 0 0-2.5-1.67 5.42 5.42 0 0 0-3.28-.15 5.56 5.56 0 0 0-3.24 2.45l-.11.18-.2-.07a7.27 7.27 0 0 0-3.44-.38 7.51 7.51 0 0 0-4.75 2.45 7.64 7.64 0 0 0-1.78 4 9.439 9.439 0 0 0 .5 4.13z" fill="#455a64"/><path data-name="Path 8106" d="M3481.4 5517a2.726 2.726 0 0 1-.32-.63 8.381 8.381 0 0 1-.49-1.84 5.85 5.85 0 0 1 .21-2.85 4.28 4.28 0 0 1 2.44-2.54 3.06 3.06 0 0 1 1.84-.13l-.31.26a4.57 4.57 0 0 1 .88-2.76 4.89 4.89 0 0 1 1.72-1.52 4.2 4.2 0 0 1 1.45-.46h.54a8.369 8.369 0 0 0-1.82.72 4.84 4.84 0 0 0-1.53 1.48 4.279 4.279 0 0 0-.73 2.49v.33l-.33-.07a2.56 2.56 0 0 0-1.54.12 3.91 3.91 0 0 0-2.17 2.22 6 6 0 0 0-.3 2.64c.18 1.61.55 2.54.46 2.54z" fill="#455a64"/><path data-name="Path 8107" d="M3486.1 5531.42a2.6 2.6 0 0 1-1.31 1.13 4 4 0 0 1-1.9.34 3.78 3.78 0 0 1-2.25-.87h.35a4.151 4.151 0 0 1-.44.38 3.81 3.81 0 0 1-2.5.72 3.6 3.6 0 0 1-2-.77 2.45 2.45 0 0 1-1.07-1.58 7.219 7.219 0 0 0 1.29 1.28 3.34 3.34 0 0 0 1.79.59 3.49 3.49 0 0 0 2.17-.67 2.889 2.889 0 0 0 .37-.31l.18-.17.18.15a3.78 3.78 0 0 0 3.68.6 9.2 9.2 0 0 0 1.46-.82z" fill="#455a64"/><path data-name="Path 8108" d="M3487.48 5536.53c.06 0 .06.43-.23 1a3.68 3.68 0 0 1-1.88 1.75 3.73 3.73 0 0 1-2.56.09c-.63-.21-.93-.51-.89-.56a7.18 7.18 0 0 1 1 .21 3.9 3.9 0 0 0 4-1.67c.36-.47.49-.84.56-.82z" fill="#455a64"/><path data-name="Path 8109" d="M3450.43 5596.14a58 58 0 0 1-.69-10.85 28.578 28.578 0 0 1 .61 5.41 27.728 27.728 0 0 1 .08 5.44z" fill="#263238"/><path data-name="Path 8110" d="M3515.84 5579a14.779 14.779 0 0 1 1.41-3.64 14.42 14.42 0 0 1 1.88-3.41 29.531 29.531 0 0 1-3.29 7z" fill="#263238"/><path data-name="Path 8111" d="M3512.64 5596.77a28.414 28.414 0 0 1 .45-5.37 28.091 28.091 0 0 1 1-5.3 28.367 28.367 0 0 1-.45 5.37 27.866 27.866 0 0 1-1 5.3z" fill="#263238"/><path data-name="Path 8112" d="M3445.77 5593a36.79 36.79 0 0 1-2.52-6.15 33.86 33.86 0 0 1 2.52 6.15z" fill="#fafafa"/><path data-name="Path 8113" d="M3453.74 5579.23a18.084 18.084 0 0 1 .43-3.35 18.881 18.881 0 0 1 .73-3.3 17.609 17.609 0 0 1-.42 3.35 19.411 19.411 0 0 1-.74 3.3z" fill="#fafafa"/><path data-name="Path 8114" d="M3465.31 5589a19.1 19.1 0 0 1-1.87-3 20 20 0 0 1-1.59-3.13 19.53 19.53 0 0 1 1.86 3 20.6 20.6 0 0 1 1.6 3.13z" fill="#fafafa"/><path data-name="Path 8115" d="M3466 5568.65a22.268 22.268 0 0 1-3.46-1.54 22.884 22.884 0 0 1-3.32-1.81 23.763 23.763 0 0 1 3.46 1.53 23 23 0 0 1 3.32 1.82z" fill="#fafafa"/><path data-name="Path 8116" d="M3473.21 5576.34a29.185 29.185 0 0 1 1.83-3.7 27.155 27.155 0 0 1 2.11-3.55 28.451 28.451 0 0 1-1.83 3.7 27.151 27.151 0 0 1-2.11 3.55z" fill="#fafafa"/><path data-name="Path 8117" d="M3484.58 5564.45a21.922 21.922 0 0 1-3.5-.64 19.765 19.765 0 0 1-3.43-.95 21.719 21.719 0 0 1 3.5.64 19.44 19.44 0 0 1 3.43.95z" fill="#fafafa"/><path data-name="Path 8118" d="M3487.31 5586.94a20.366 20.366 0 0 1 .05-3.56 20.058 20.058 0 0 1 .37-3.54 21.605 21.605 0 0 1-.05 3.56 20.06 20.06 0 0 1-.37 3.54z" fill="#fafafa"/><path data-name="Path 8119" d="M3477.19 5593.44a23.89 23.89 0 0 1-.73-3.68 21.761 21.761 0 0 1-.46-3.76 23.235 23.235 0 0 1 .73 3.68 21.58 21.58 0 0 1 .46 3.76z" fill="#fafafa"/><path data-name="Path 8120" d="M3460.09 5595.59a8.809 8.809 0 0 1-2.11-1.1 9.538 9.538 0 0 1-1.94-1.37 9.27 9.27 0 0 1 2.11 1.1 10 10 0 0 1 1.94 1.37z" fill="#fafafa"/><path data-name="Path 8121" d="M3499.7 5591.62c0 .08-1.33 1-2.91 2.23s-2.77 2.37-2.84 2.31a13.469 13.469 0 0 1 2.65-2.55 13.221 13.221 0 0 1 3.1-1.99z" fill="#fafafa"/><path data-name="Path 8122" d="M3508 5584.37c-.08.06-1.16-1.35-2.57-3s-2.64-3-2.57-3a16.791 16.791 0 0 1 2.8 2.82 18.191 18.191 0 0 1 2.34 3.18z" fill="#fafafa"/><path data-name="Path 8123" d="M3499.29 5566.6a23.194 23.194 0 0 1-3 2.36 22.525 22.525 0 0 1-3.13 2.11 23.656 23.656 0 0 1 2.95-2.36 22.659 22.659 0 0 1 3.18-2.11z" fill="#fafafa"/><path data-name="Path 8124" d="M3511.61 5572a32.211 32.211 0 0 1-1.06-4.43 32.685 32.685 0 0 1-.74-4.49 35.677 35.677 0 0 1 1.05 4.43 33.758 33.758 0 0 1 .75 4.49z" fill="#fafafa"/><path data-name="Path 8125" d="M3525.11 5586.62a17.89 17.89 0 0 1-2.68-6.91c.09 0 .53 1.58 1.27 3.48s1.49 3.39 1.41 3.43z" fill="#fafafa"/><path data-name="Path 8126" d="M3521 5595.53a15.659 15.659 0 0 1 1-2.93 15.055 15.055 0 0 1 1.27-2.81 15.659 15.659 0 0 1-1 2.93 15.066 15.066 0 0 1-1.27 2.81z" fill="#fafafa"/><path data-name="Path 8127" d="M3444.25 5587.56h75.18a15.35 15.35 0 0 1 15.35 15.35v31H3428.9v-31a15.35 15.35 0 0 1 15.35-15.35z" fill="#455a64"/><path data-name="Path 8128" d="M3512.12 5605.73a3 3 0 0 1-.52.4l-1.55 1.07c-1.35.93-3.35 2.2-5.86 3.7s-5.56 3.2-9 5-7.33 3.53-11.47 5.22-8.17 3.07-11.86 4.24-7.07 2.06-9.93 2.72-5.17 1.15-6.78 1.42l-1.86.32a3.2 3.2 0 0 1-.65.07 2.622 2.622 0 0 1 .63-.18l1.84-.41c1.6-.33 3.9-.86 6.74-1.58s6.18-1.66 9.86-2.82 7.68-2.6 11.81-4.27 8-3.45 11.45-5.16 6.52-3.38 9-4.84 4.56-2.69 5.94-3.56l1.61-1a2.73 2.73 0 0 1 .6-.34z" fill="#263238"/><path data-name="Path 8129" d="M3454.35 5587.72a2.2 2.2 0 0 1-.6 0l-1.71.08a39.426 39.426 0 0 0-6.22.84 15.48 15.48 0 0 0-4 1.48 10.5 10.5 0 0 0-3.65 3.19 13.26 13.26 0 0 0-2 5 35.75 35.75 0 0 0-.54 5.86c-.25 8.1-.47 15.43-.64 20.82-.1 2.61-.18 4.75-.25 6.3 0 .7-.07 1.27-.09 1.72a2.489 2.489 0 0 1-.07.59 2.49 2.49 0 0 1 0-.6v-1.71c0-1.56.05-3.7.09-6.31.12-5.39.29-12.72.47-20.82a37.16 37.16 0 0 1 .57-5.95 13.36 13.36 0 0 1 2.1-5.18 10.84 10.84 0 0 1 3.84-3.29 15.307 15.307 0 0 1 4.15-1.46 34.091 34.091 0 0 1 6.29-.68h1.72a4.13 4.13 0 0 1 .54.12z" fill="#263238"/><path data-name="Path 8130" d="M3312.75 5591.09s1.67-14.73 5.56-18.06 18.37-7.62 18.37-7.62l33-2.11s18.34 2.68 19.45 3.28 9.73 2.84 13.62 10.62a58.329 58.329 0 0 1 5 16.39z" fill="#fca700"/><path data-name="Path 8131" d="M3341.82 5571l25 .36-2.34-22.57s1.84.93 2.21-8.32 1.22-24.94 1.22-24.94a32.16 32.16 0 0 0-32.4 3.18l-1.4 1z" fill="#ffbe9d"/><path data-name="Path 8132" d="M3336.67 5531.18c-.16-.07-6.3-2.05-6.27 4.27s6.37 5 6.38 4.81-.11-9.08-.11-9.08z" fill="#ffbe9d"/><path data-name="Path 8133" d="M3366.39 5530.67c.16-.07 5.84-1.43 5.46 4.88s-6.63 4.64-6.63 4.46 1.17-9.34 1.17-9.34z" fill="#ffbe9d"/><path data-name="Path 8134" d="M3351.56 5504.45s-8.62-.31-11.7 1.26c-5.12 2.62-9.09 9.91-9.17 18.92s4 21.23 10.62 27.27 11.84 7.15 11.84 7.15 14-7.65 15.56-18.81 2.63-21.93-1.74-27.35-12.24-8.3-15.41-8.44z" fill="#263238"/><path data-name="Path 8135" d="M3331.85 5530.44c-.5-5.73-1-11.64.81-17.1s6.49-10.4 12.24-10.61c1.84-.07 3.7.34 5.51 0a22.9 22.9 0 0 0 4.47-1.65 11.69 11.69 0 0 1 8-.5 7 7 0 0 1 4.81 6 10.221 10.221 0 0 0 .13 3.32c.4 1.08 1.43 1.77 2.14 2.67a7.16 7.16 0 0 1 1.27 5.14 20.739 20.739 0 0 1-1.46 5.21l-4.7 12.59" fill="#263238"/><path data-name="Path 8136" d="M3346.29 5533.65a11.37 11.37 0 0 1 16.31 9c.4 3.74.4 4.34 2.82 7.22 1.49 1.78 2.93 1.68 4.69 3.2a7 7 0 0 1 1.59 8.22c4.53-.22 8.77-.51 10.31 3.75-6.76-1.4-13.52 4.92-20.29 3.52a14.92 14.92 0 0 1-6.09-2.23c-2-1.51-3.09-3.91-4.09-6.2q-2.73-6.18-5.45-12.37c-1.22-2.77-2.46-5.66-2.41-8.69s1.8-6.26 4.74-7" fill="#263238"/><path data-name="Path 8137" d="M3343.56 5537.78a9.56 9.56 0 0 1 3.27-10.54 9.7 9.7 0 0 1 11.09.44 9.22 9.22 0 0 1 3.79 7.84 6 6 0 0 1-5.57 5.56" fill="#e8505b"/><path data-name="Path 8138" d="M3358.38 5531.65a10.07 10.07 0 0 0-13.14.66c-3.23 3.22-3.55 9.88-2.58 14.34 1.06 4.8 4 9.44 3 14.26-.6 2.93-2.61 5.91-1.44 8.67.94 2.23 3.58 3.2 5 5.16 2.11 2.87 1.07 6.9-.35 10.17s-3.15 6.8-2.16 10.22c.76 2.66 3 4.57 4.78 6.68s3.22 5.07 2 7.56a7.05 7.05 0 0 0 11.13-7.1 8.43 8.43 0 0 1 2.37 5.42 11.36 11.36 0 0 0 8.59-17.42c-1.52-2.4-4-4.34-4.51-7.13-.62-3.32 1.79-6.58 1.48-9.95-.28-3-2.66-5.4-5.1-7.21s-5.17-3.42-6.75-6c-2.55-4.19-1.37-9.54-.38-14.35s1.46-10.48-2-14" fill="#263238"/><path data-name="Path 8139" d="M3343.8 5534.59c-3.42 2.31-3.64 7.2-3.17 11.3s1.13 8.69-1.39 11.95c-1.69 2.2-4.66 3.48-5.53 6.12-1.06 3.21 1.59 6.44 1.89 9.81.22 2.44-.81 4.81-2 7s-2.55 4.23-3.12 6.61-.16 5.19 1.74 6.74a8.76 8.76 0 0 0 4.3 1.54 53.131 53.131 0 0 0 16.46-.05c1.63-6.7 3.26-13.47 3.26-20.36 0-13.68-6.47-26.72-6.65-40.41" fill="#263238"/><path data-name="Path 8140" d="M3353.39 5604.76a3.54 3.54 0 0 1-.56-.62l-1.53-1.83a80.757 80.757 0 0 1-5.37-7 20.6 20.6 0 0 1-2.65-5.51 11.06 11.06 0 0 1 .14-7 46.893 46.893 0 0 1 3.48-6.89c1.24-2.31 2.49-4.89 2.17-7.63s-2.08-5-2.9-7.61a8.25 8.25 0 0 1-.37-2 6 6 0 0 1 .33-2 10.15 10.15 0 0 1 2.14-3.2 18.2 18.2 0 0 0 2.19-2.75 6.37 6.37 0 0 0 .89-3.08 17.84 17.84 0 0 0-1.08-5.85 19.43 19.43 0 0 1-1.05-4.92 7.5 7.5 0 0 1 .77-3.74 5 5 0 0 1 1.55-1.84 2.631 2.631 0 0 1 .75-.38 5.27 5.27 0 0 0-2.08 2.33 7.49 7.49 0 0 0-.64 3.61 20 20 0 0 0 1.13 4.81 17.73 17.73 0 0 1 1.18 6 6.77 6.77 0 0 1-.88 3.34 18.089 18.089 0 0 1-2.24 2.86 10 10 0 0 0-2 3 5.429 5.429 0 0 0-.28 1.8 7.62 7.62 0 0 0 .35 1.86c.76 2.46 2.64 4.74 2.94 7.73a9.85 9.85 0 0 1-.53 4.26 26.052 26.052 0 0 1-1.72 3.74 46.509 46.509 0 0 0-3.52 6.75 10.44 10.44 0 0 0-.18 6.66 20.61 20.61 0 0 0 2.51 5.41 87.107 87.107 0 0 0 5.19 7c.63.82 1.11 1.47 1.43 1.91a5.21 5.21 0 0 1 .44.78z" fill="#455a64"/><path data-name="Path 8141" d="M3339.94 5557.19a19.419 19.419 0 0 0 1.33-4.62 32.452 32.452 0 0 0 .2-5.22c-.05-2-.2-4.17-.07-6.48a15.26 15.26 0 0 1 1.59-6.35 9.63 9.63 0 0 1 3.75-3.82 6.63 6.63 0 0 1 3.5-.87 4.808 4.808 0 0 1 1 .16c.22.06.33.1.32.12s-.47-.05-1.29 0a6.92 6.92 0 0 0-3.28 1 9.5 9.5 0 0 0-3.45 3.7 15.14 15.14 0 0 0-1.47 6.11c-.13 2.26 0 4.44 0 6.43a27.411 27.411 0 0 1-.35 5.3 13 13 0 0 1-1.07 3.43 3.459 3.459 0 0 1-.71 1.11z" fill="#455a64"/><path data-name="Path 8142" d="M3376.24 5601.4a5.565 5.565 0 0 1 .08-.79 12.261 12.261 0 0 0 0-2.26 28.07 28.07 0 0 0-1.95-8c-.7-1.57-1.81-3.2-2.64-5.13a12.621 12.621 0 0 1-1-3.14 11.3 11.3 0 0 1 .05-3.48c.18-1.17.44-2.34.6-3.53a12 12 0 0 0-3.64-10.27c-1.89-1.84-4.51-2.67-6.44-4.49a12 12 0 0 1-3.35-6.6 24.47 24.47 0 0 1-.22-6.68c.17-2.08.41-4 .53-5.75a23.571 23.571 0 0 0-.06-4.72 6.33 6.33 0 0 0-1.31-3.21 4.32 4.32 0 0 0-2.53-1.53 2.219 2.219 0 0 1 .8.1 4.25 4.25 0 0 1 1.92 1.26 6.51 6.51 0 0 1 1.47 3.32 23.161 23.161 0 0 1 .16 4.8c-.09 1.78-.31 3.7-.45 5.77a24.59 24.59 0 0 0 .27 6.53 11.49 11.49 0 0 0 3.2 6.25c1.79 1.69 4.42 2.53 6.45 4.48a12.77 12.77 0 0 1 3.74 7 12.58 12.58 0 0 1 .07 3.82c-.17 1.24-.45 2.41-.62 3.54a10.62 10.62 0 0 0-.08 3.32 12 12 0 0 0 .89 3c.79 1.9 1.85 3.5 2.57 5.16a26.879 26.879 0 0 1 1.78 8.21 10.7 10.7 0 0 1-.1 2.29 3.8 3.8 0 0 1-.14.58c-.02.09-.04.15-.05.15z" fill="#455a64"/><path data-name="Path 8143" d="M3371.34 5566.53a10.408 10.408 0 0 0 .54-1.53 8.31 8.31 0 0 0-.26-4.33 8.55 8.55 0 0 0-4.25-4.66 8.63 8.63 0 0 1-3.35-2.2 18.142 18.142 0 0 1-2.12-3.75c-1.15-2.8-1-5.69-1-8.16a18.4 18.4 0 0 0-.78-6.49 7.93 7.93 0 0 0-2.49-3.55 14.318 14.318 0 0 0-1.38-.86 1.515 1.515 0 0 1 .43.09 5.048 5.048 0 0 1 1.1.57 7.79 7.79 0 0 1 2.76 3.59 17.7 17.7 0 0 1 1 6.64c0 2.49-.08 5.31 1 7.92a18.119 18.119 0 0 0 2 3.59 6.12 6.12 0 0 0 1.46 1.23c.53.33 1.11.55 1.69.86a8.83 8.83 0 0 1 4.41 5 8.08 8.08 0 0 1 .07 4.53 5.1 5.1 0 0 1-.5 1.14c-.22.27-.31.38-.33.37z" fill="#455a64"/><path data-name="Path 8144" d="M3341.82 5533.14a8.12 8.12 0 0 1-2.54-1.53 17.1 17.1 0 0 1-6.34-12.46 8.08 8.08 0 0 1 .26-2.94c.12 0 0 1.13.2 2.91a19 19 0 0 0 6.18 12.15c1.33 1.19 2.3 1.73 2.24 1.87z" fill="#455a64"/><path data-name="Path 8145" d="M3340.67 5534.83c-.08.15-2.12-.7-4.35-2.26s-3.74-3.16-3.62-3.28a38.971 38.971 0 0 1 4 2.76c2.2 1.52 4.05 2.61 3.97 2.78z" fill="#455a64"/><path data-name="Path 8146" d="M3367.68 5518.63c.15 0-.12 3.54-2.22 7.3s-4.91 5.9-5 5.77a40.324 40.324 0 0 0 4.43-6.08c1.99-3.65 2.59-7.04 2.79-6.99z" fill="#455a64"/><path data-name="Path 8147" d="M3369.69 5523.54c.16 0-.42 2.8-1.89 5.94s-3.19 5.37-3.33 5.28 1.32-2.46 2.75-5.55 2.29-5.72 2.47-5.67z" fill="#455a64"/><path data-name="Path 8148" d="M3366.78 5507.55a19.91 19.91 0 0 1-1.18-2.35 7.89 7.89 0 0 0-1.67-2.18 4.34 4.34 0 0 0-3-1.13 8.16 8.16 0 0 0-5.37 2.65 16 16 0 0 1-1.91 1.81 8.34 8.34 0 0 1 1.59-2.13 10.329 10.329 0 0 1 2.22-1.9 6.68 6.68 0 0 1 3.47-1.07 4.77 4.77 0 0 1 3.39 1.33 9.09 9.09 0 0 1 2.46 5z" fill="#455a64"/><path data-name="Path 8149" d="M3364.3 5603.94a3.6 3.6 0 0 1-.59-.51c-.37-.35-.91-.87-1.56-1.59a20.386 20.386 0 0 1-2.15-2.79 9.91 9.91 0 0 1-1.55-4.43 7.75 7.75 0 0 1 .36-2.75 15 15 0 0 1 1.28-2.69c1-1.74 2.24-3.58 2.3-5.81a12.23 12.23 0 0 0-1.93-6.58c-1.23-2.11-2.9-4.06-4.38-6.27a17.33 17.33 0 0 1-2.93-7.15 28.069 28.069 0 0 1-.12-7.19c.46-4.56 1.35-8.56 1.49-12a22.4 22.4 0 0 0-.78-8c-.58-1.82-1.16-2.73-1.09-2.76a3.561 3.561 0 0 1 .42.65 13.521 13.521 0 0 1 .91 2 21.5 21.5 0 0 1 1 8.11c-.08 3.47-.93 7.51-1.35 12a27.809 27.809 0 0 0 .15 7 16.72 16.72 0 0 0 2.85 6.9c1.44 2.16 3.12 4.12 4.38 6.3a12.76 12.76 0 0 1 2 6.93c-.09 2.42-1.43 4.35-2.43 6.05a14.321 14.321 0 0 0-1.27 2.58 7.191 7.191 0 0 0-.37 2.56 9.43 9.43 0 0 0 1.4 4.27 22.177 22.177 0 0 0 2 2.82c.62.74 1.13 1.28 1.46 1.66a4.079 4.079 0 0 1 .5.69z" fill="#455a64"/><path data-name="Path 8150" d="M3320.88 5587.56h75.18a15.35 15.35 0 0 1 15.35 15.35v31h-105.88v-31a15.35 15.35 0 0 1 15.35-15.35z" fill="#455a64"/><path data-name="Path 8151" d="M3387.12 5605.73a3 3 0 0 1-.52.4l-1.55 1.07c-1.35.93-3.35 2.2-5.86 3.7s-5.56 3.2-9 5-7.33 3.53-11.47 5.22-8.17 3.07-11.86 4.24-7.07 2.06-9.93 2.72-5.17 1.15-6.78 1.42l-1.86.32a3.2 3.2 0 0 1-.65.07 2.619 2.619 0 0 1 .63-.18l1.84-.41c1.6-.33 3.9-.86 6.74-1.58s6.18-1.66 9.86-2.82 7.68-2.6 11.81-4.27 8-3.45 11.45-5.16 6.52-3.38 9-4.84 4.56-2.69 5.94-3.56l1.61-1a2.729 2.729 0 0 1 .6-.34z" fill="#263238"/><path data-name="Path 8152" d="M3329.35 5587.72a2.2 2.2 0 0 1-.6 0l-1.71.08a39.425 39.425 0 0 0-6.22.84 15.479 15.479 0 0 0-4 1.48 10.5 10.5 0 0 0-3.65 3.19 13.26 13.26 0 0 0-2 5 35.747 35.747 0 0 0-.54 5.86c-.25 8.1-.47 15.43-.64 20.82-.1 2.61-.18 4.75-.25 6.3 0 .7-.07 1.27-.09 1.72a2.49 2.49 0 0 1-.07.59 2.49 2.49 0 0 1 0-.6v-1.71c0-1.56 0-3.7.09-6.31.12-5.39.29-12.72.47-20.82a37.161 37.161 0 0 1 .57-5.95 13.36 13.36 0 0 1 2.1-5.18 10.84 10.84 0 0 1 3.84-3.29 15.309 15.309 0 0 1 4.15-1.46 34.088 34.088 0 0 1 6.29-.68h1.72a4.129 4.129 0 0 1 .54.12z" fill="#263238"/><path data-name="Path 8153" d="M3217.4 5554.15l25.8-.33-2.88-22s1.76-.37 1.88-9.93.55-25.79.55-25.79a33.21 33.21 0 0 0-33.36 4.2l-1.39 1.12z" fill="#ffbe9d"/><path data-name="Path 8154" d="M3211 5513.17c-.17-.07-6.57-1.94-6.36 4.59s6.72 5 6.73 4.79-.37-9.38-.37-9.38z" fill="#ffbe9d"/><path data-name="Path 8155" d="M3241.65 5511.81c.16-.07 6-1.64 5.77 4.89s-6.72 5-6.73 4.78.96-9.67.96-9.67z" fill="#ffbe9d"/><path data-name="Path 8156" d="M3249 5492.94a3.51 3.51 0 0 0-1.31-3.15 2.49 2.49 0 0 0-3.24.24 2.91 2.91 0 0 0-2.51-3.54c-1.56-.1-2.88 1.08-4.39 1.49a7.11 7.11 0 0 1-4.46-.52c-1.42-.57-2.74-1.35-4.17-1.87a12.22 12.22 0 0 0-15.63 7.17 5.43 5.43 0 0 0-5.75 2.18 8.87 8.87 0 0 0-1.36 6.27 19.771 19.771 0 0 0 1.09 4.28v.37c.1 5.25 2.84 21.86 5.08 21.89 3.91.06.83-17.73.83-17.73 4.8-1.85 3-9 4.21-10.13s3.71-3.62 13.74 1.51a19.48 19.48 0 0 0 11.87 1.29l.25-.05h.14a8.75 8.75 0 0 0 2.61-1.14 5.05 5.05 0 0 0 2.12-2.36 2.77 2.77 0 0 0-.55-3 6.21 6.21 0 0 0 1.43-3.2z" fill="#263238"/><path data-name="Path 8157" d="M3208.85 5512.44c1 5.47.78 8.35 1.69 12 1.42 5.78 4.3 10.22 9.51 13.11s12.26 2.83 16.74-1.1c3.1-2.73 5.31-5.81 5.77-9.92s.92-11.39.95-15.53c.05-7.45.55-14.58.55-14.58l-21.31-3.86-12.12 7.21z" fill="#263238"/><path data-name="Path 8158" d="M3230.83 5540.85a9.565 9.565 0 0 1-7.31-.8c.06-.16 1.64.33 3.64.54s3.64.09 3.67.26z" fill="#263238"/><path data-name="Path 8159" d="M3236.37 5491.61a3 3 0 0 1-1 .19 5.9 5.9 0 0 1-2.73-.64 19.749 19.749 0 0 1-3.45-2.31 9.33 9.33 0 0 0-4.5-2.08 8.16 8.16 0 0 0-4.86.85 7.94 7.94 0 0 0-2.95 2.77 9.13 9.13 0 0 0-1.27 3.55 5.57 5.57 0 0 1 .11-1 8 8 0 0 1 4-5.48 8.12 8.12 0 0 1 5-.89 9.35 9.35 0 0 1 4.6 2.13 20.412 20.412 0 0 0 3.38 2.3 6.06 6.06 0 0 0 2.65.7 8.088 8.088 0 0 0 1.02-.09z" fill="#455a64"/><path data-name="Path 8160" d="M3215.9 5494.3a9.177 9.177 0 0 0-1.53-.57 4.9 4.9 0 0 0-6 3.7 8.211 8.211 0 0 0-.17 1.63 1.43 1.43 0 0 1-.07-.44 4.26 4.26 0 0 1 .08-1.22 4.91 4.91 0 0 1 6.17-3.83 4.3 4.3 0 0 1 1.13.47 1.29 1.29 0 0 1 .39.26z" fill="#455a64"/><path data-name="Path 8161" d="M3215.27 5517.6a24 24 0 0 1-3-6.94 24 24 0 0 1 3 6.94z" fill="#455a64"/><path data-name="Path 8162" d="M3220.85 5521.35a10.28 10.28 0 0 1-4.56-7c.17-.05.78 1.74 2 3.65s2.71 3.21 2.56 3.35z" fill="#455a64"/><path data-name="Path 8163" d="M3226.36 5522.56a5.92 5.92 0 0 1-2.55-1.58 6.123 6.123 0 0 1-1.9-2.31 12.647 12.647 0 0 1 2.29 1.86c1.21 1.05 2.25 1.88 2.16 2.03z" fill="#455a64"/><path data-name="Path 8164" d="M3236.09 5513.7a7.7 7.7 0 0 1-2.47 6 27.457 27.457 0 0 1 1.34-2.94 30.85 30.85 0 0 1 1.13-3.06z" fill="#455a64"/><path data-name="Path 8165" d="M3239.39 5508.54a9.65 9.65 0 0 1-2.36 7.51c-.15-.1.78-1.62 1.41-3.68s.77-3.83.95-3.83z" fill="#455a64"/><path data-name="Path 8166" d="M3241.92 5495.34a3.86 3.86 0 0 1-.85.66 6.34 6.34 0 0 1-2.81.86 9.69 9.69 0 0 1-4.3-.66 34.239 34.239 0 0 1-4.78-2.38 20.479 20.479 0 0 0-4.84-2.09 8.11 8.11 0 0 0-4.25 0 5.89 5.89 0 0 0-2.49 1.43c-.48.49-.66.83-.69.81a3.79 3.79 0 0 1 .63-.88 5.73 5.73 0 0 1 2.5-1.52 8 8 0 0 1 4.35-.07 20.179 20.179 0 0 1 4.91 2.09 36.339 36.339 0 0 0 4.7 2.41 10 10 0 0 0 4.21.7 6.62 6.62 0 0 0 3.71-1.36z" fill="#455a64"/><path data-name="Path 8167" d="M3243.82 5498.44a2.579 2.579 0 0 1-.35.23 8.877 8.877 0 0 1-1 .5 12.26 12.26 0 0 1-7.34.67 8.312 8.312 0 0 1-1.09-.31 1.851 1.851 0 0 1-.39-.16s.58.14 1.51.3a13.89 13.89 0 0 0 3.67.16 13.649 13.649 0 0 0 3.58-.82c.87-.33 1.39-.61 1.41-.57z" fill="#455a64"/><path data-name="Path 8168" d="M3178.43 5605.71s4.74-37.34 8-41.41S3214 5552 3214 5552l1.71-5.22 27.53-1 2.06 5.92s20.59 5 26.18 9.73 12.68 39.94 12.68 39.94z" fill="#00486e"/><path data-name="Path 8169" d="M3242.74 5552c0 .15-6.22.42-13.91.61s-13.93.23-13.93.09 6.22-.42 13.92-.61 13.92-.24 13.92-.09z" fill="#263238"/><path data-name="Path 8170" d="M3199.44 5592.5a98.955 98.955 0 0 1-1.87-10.21 101.6 101.6 0 0 1-1.36-10.29 98.955 98.955 0 0 1 1.87 10.21c.87 5.66 1.5 10.26 1.36 10.29z" fill="#263238"/><path data-name="Path 8171" d="M3268.92 5590.81a106.568 106.568 0 0 1-.74-10.71c-.27-5.92-.37-10.72-.23-10.73s.48 4.79.75 10.71.36 10.72.22 10.73z" fill="#263238"/><g data-name="Group 618"><path data-name="Path 7343" d="M3214.14 5552.69a22.25 22.25 0 0 0 15 3.85c5.26-.52 10.47-2.8 15.46-4.55-10 .17-20.41.52-30.45.7" opacity=".3"/></g><path data-name="Path 8172" d="M3218.71 5552.56a18.44 18.44 0 0 1 1.17-5.83 19.49 19.49 0 0 1-.52 2.93 19.229 19.229 0 0 1-.65 2.9z" fill="#fafafa"/><path data-name="Path 8173" d="M3233.58 5551.83a9 9 0 0 1-.7-2.77 9.26 9.26 0 0 1-.08-2.86 24.1 24.1 0 0 1 .39 2.82c.21 1.54.47 2.79.39 2.81z" fill="#fafafa"/><path data-name="Path 8174" d="M3244.34 5549.37h-1.16l-3.17.06-10.46.22-10.47.34-3.17.1h-1.16a1.4 1.4 0 0 0 .3-.05l.86-.08 3.16-.2c2.68-.16 6.38-.32 10.47-.43s7.79-.14 10.47-.13h4.03z" fill="#fafafa"/><path data-name="Path 8175" d="M3187.06 5592.38a1 1 0 0 1 0-.3 3.909 3.909 0 0 0-.07-.87c-.06-.75-.12-1.85-.17-3.2-.1-2.7-.1-6.44.16-10.56a103.977 103.977 0 0 1 1.21-10.5c.22-1.34.42-2.41.58-3.15.07-.32.13-.6.19-.85s.07-.3.08-.29a.85.85 0 0 1 0 .3 6.216 6.216 0 0 1-.13.86l-.55 3.18c-.4 2.67-.84 6.38-1.11 10.49s-.25 7.82-.25 10.51l.07 3.19v.87a1.09 1.09 0 0 1-.01.32z" fill="#fafafa"/><path data-name="Path 8176" d="M3196.33 5584.06c0 .08-3.48.68-7.79 1.32s-7.84 1.1-7.85 1 3.48-.67 7.8-1.32 7.83-1.06 7.84-1z" fill="#fafafa"/><path data-name="Path 8177" d="M3195.64 5574.44s-.66-.33-1.72-.85a25.412 25.412 0 0 0-4.31-1.59 25.089 25.089 0 0 0-4.54-.78c-1.17-.09-1.91-.08-1.91-.13a1.54 1.54 0 0 1 .51-.07h1.42a20.523 20.523 0 0 1 4.6.7 20.24 20.24 0 0 1 4.31 1.68c.52.28.93.53 1.21.72a2.047 2.047 0 0 1 .43.32z" fill="#fafafa"/><path data-name="Path 8178" d="M3210.2 5592.12a1.62 1.62 0 0 1-.11-.36l-.24-1c-.22-1-.51-2.24-.86-3.76-.73-3.17-1.79-7.54-3.1-12.33s-2.62-9.1-3.6-12.2c-.48-1.48-.87-2.71-1.18-3.67l-.31-1a1.611 1.611 0 0 1-.09-.35 1.47 1.47 0 0 1 .15.33l.37 1c.31.85.75 2.1 1.27 3.64 1 3.09 2.38 7.39 3.69 12.19s2.34 9.18 3 12.37c.34 1.59.6 2.88.76 3.78l.18 1a1.93 1.93 0 0 1 .07.36z" fill="#fafafa"/><path data-name="Path 8179" d="M3225.81 5590.53a1.739 1.739 0 0 1-.08-.38 7.958 7.958 0 0 0-.17-1.11c-.16-1.05-.36-2.42-.61-4.06-.52-3.43-1.3-8.16-2.32-13.35s-2.09-9.87-2.91-13.24c-.39-1.61-.72-2.95-1-4-.11-.42-.19-.78-.26-1.09s-.09-.38-.07-.38a2.3 2.3 0 0 1 .13.37c.09.3.19.66.31 1.07.27.93.64 2.29 1.08 4 .87 3.36 2 8 3 13.23s1.77 9.94 2.23 13.38c.24 1.72.41 3.11.51 4.08a10.145 10.145 0 0 0 .11 1.11 1.44 1.44 0 0 1 .05.37z" fill="#fafafa"/><path data-name="Path 8180" d="M3241.28 5591.17a2.25 2.25 0 0 1-.12-.38l-.29-1.11c-.26-1-.59-2.36-1-4.1-.76-3.47-1.64-8.32-2.26-13.71s-.87-10.32-.93-13.87v-5.36a2.119 2.119 0 0 1 0-.4 2.12 2.12 0 0 1 0 .4v1.14c0 1 0 2.43.09 4.21.11 3.55.4 8.45 1 13.84s1.47 10.22 2.17 13.71c.35 1.74.65 3.15.86 4.12.1.43.18.8.24 1.12a1.269 1.269 0 0 1 .24.39z" fill="#fafafa"/><path data-name="Path 8181" d="M3254.76 5589.65a2.07 2.07 0 0 1-.13-.33c-.08-.28-.18-.6-.3-1-.26-.84-.59-2.07-1-3.6a70.88 70.88 0 0 1-1.33-24.38c.19-1.56.38-2.82.55-3.68.08-.38.14-.7.2-1s.07-.35.09-.34a1.541 1.541 0 0 1 0 .35 9.135 9.135 0 0 1-.14 1c-.13.87-.29 2.13-.45 3.68a79.863 79.863 0 0 0-.29 12.23 78.851 78.851 0 0 0 1.65 12.12c.33 1.53.63 2.76.86 3.61l.24 1a1.23 1.23 0 0 1 .05.34z" fill="#fafafa"/><path data-name="Path 8182" d="M3268 5571.54a90 90 0 0 1 .2-10.73 46.208 46.208 0 0 1 .06 5.37 48.773 48.773 0 0 1-.26 5.36z" fill="#fafafa"/><path data-name="Path 8183" d="M3268 5560.39s-.27.06-.81.14l-2.32.34c-2 .3-5 .68-8.58 1.1-7.26.86-17.32 1.78-28.45 2.28s-21.25.45-28.55.25c-3.65-.11-6.6-.23-8.64-.35l-2.38-.15-.82-.07h.82l2.35.08c2 .08 5 .17 8.65.24 7.3.16 17.39.16 28.52-.33s21.18-1.39 28.44-2.19c3.63-.39 6.57-.74 8.59-1l2.34-.28c.53-.05.84-.06.84-.06z" fill="#fafafa"/><path data-name="Path 8184" d="M3267.11 5577.9h-10.29c-6.35 0-15.14.14-24.83.47s-18.46.81-24.81 1.22l-7.51.5-2 .13h-.71a4.586 4.586 0 0 0 .7-.08l2-.19c1.77-.17 4.34-.37 7.51-.6 6.34-.46 15.11-1 24.81-1.31s18.48-.41 24.84-.38c3.18 0 5.75 0 7.53.09l2.05.05c.47.07.71.1.71.1z" fill="#fafafa"/><path data-name="Path 8185" d="M3279.05 5582.47a37.131 37.131 0 0 1-4.73.78 37.989 37.989 0 0 1-4.77.46 36.179 36.179 0 0 1 4.73-.77 39.24 39.24 0 0 1 4.77-.47z" fill="#fafafa"/><path data-name="Path 8186" d="M3275.5 5589.9a7 7 0 0 1-.28-1c-.17-.64-.38-1.56-.61-2.71a76.889 76.889 0 0 1-1.45-18.19c.05-1.17.11-2.12.17-2.77a6.171 6.171 0 0 1 .13-1 6.1 6.1 0 0 1 0 1c0 .77 0 1.69-.07 2.77 0 2.34 0 5.57.27 9.13a89.112 89.112 0 0 0 1.18 9.07c.19 1.05.37 2 .51 2.72a6.83 6.83 0 0 1 .15.98z" fill="#fafafa"/><path data-name="Path 8187" d="M3191 5588.51h80.64a15.35 15.35 0 0 1 15.35 15.35v31H3175.6v-31a15.35 15.35 0 0 1 15.4-15.35z" fill="#455a64"/><path data-name="Path 8188" d="M3258.67 5606.73a2.4 2.4 0 0 1-.53.4c-.39.28-.91.63-1.55 1.07-1.35.93-3.35 2.2-5.86 3.71s-5.56 3.2-9 5-7.33 3.52-11.47 5.21-8.17 3.08-11.86 4.24-7.07 2.06-9.92 2.72-5.18 1.15-6.79 1.43l-1.86.31a2.448 2.448 0 0 1-.65.07 4.223 4.223 0 0 1 .63-.17l1.84-.41c1.6-.34 3.91-.87 6.74-1.59s6.18-1.65 9.86-2.81 7.68-2.61 11.82-4.27 8-3.46 11.44-5.16 6.52-3.38 9.05-4.85 4.55-2.68 5.93-3.56l1.61-1a4.091 4.091 0 0 1 .57-.34z" fill="#263238"/><path data-name="Path 8189" d="M3200.89 5588.73a2.872 2.872 0 0 1-.6 0l-1.71.07a39.425 39.425 0 0 0-6.22.84 15.479 15.479 0 0 0-4 1.48 10.7 10.7 0 0 0-3.65 3.19 13.24 13.24 0 0 0-2 5 35.649 35.649 0 0 0-.54 5.86c-.25 8.09-.47 15.42-.63 20.81-.11 2.61-.19 4.75-.25 6.31 0 .7-.07 1.26-.1 1.71a2.66 2.66 0 0 1-.07.6 2.34 2.34 0 0 1 0-.6v-1.72c0-1.56 0-3.7.09-6.31.12-5.39.29-12.72.48-20.82a35.929 35.929 0 0 1 .56-5.94 13.61 13.61 0 0 1 2.1-5.18 10.78 10.78 0 0 1 3.84-3.3 15.309 15.309 0 0 1 4.15-1.46 35 35 0 0 1 6.29-.68h1.72a2.408 2.408 0 0 1 .54.14z" fill="#263238"/><path fill="none" d="M3250 5224h168v46h-168z"/><g data-name="Group 8"><path d="M3279.624 5242.886a20.974 20.974 0 0 1 .481 2.166 16.942 16.942 0 0 1 .16 2.086v.08a14.127 14.127 0 0 1-4.171 10.027 13.454 13.454 0 0 1-4.333 2.969 1.8 1.8 0 0 0-1.123-.481h-2.006a13.137 13.137 0 0 0 6.5-3.45 12.257 12.257 0 0 0 3.129-5.3l.481-1.926a23.148 23.148 0 0 0 0-3.851 59.25 59.25 0 0 0-.481-1.845zm-19.341 17.33a13.454 13.454 0 0 1-4.333-2.969 14.127 14.127 0 0 1-4.167-10.029v-.08a19.725 19.725 0 0 1 .16-2.247 18.383 18.383 0 0 1 .562-2.246l1.364.4a9.8 9.8 0 0 0-.481 2.086 15.254 15.254 0 0 0-.241 2.006 16.54 16.54 0 0 0 .241 2.086 9.117 9.117 0 0 0 .481 2.006 13.56 13.56 0 0 0 3.049 5.055 13.137 13.137 0 0 0 6.5 3.45h-2.007a1.626 1.626 0 0 0-1.128.482z" fill="#005180"/><path d="M3255.153 5245.293a9.832 9.832 0 0 1-3.29-2.727 9.088 9.088 0 0 1 .883-11.8 10.3 10.3 0 0 1 2.086-1.6 6.392 6.392 0 0 0 1.043 1.043 6.677 6.677 0 0 0-2.086 1.524 7.376 7.376 0 0 0-2.247 5.456 8.144 8.144 0 0 0 1.444 4.577 7.977 7.977 0 0 0 3.932 2.725l.642.241 1.2.321a8.611 8.611 0 0 0-.4 2.567 7.324 7.324 0 0 0 2.247 5.376 6.916 6.916 0 0 0 3.37 2.006v1.444a9.224 9.224 0 0 1-4.333-2.407v-.08a8.653 8.653 0 0 1-2.646-6.339 10.23 10.23 0 0 1 .08-1.6 11.544 11.544 0 0 1-1.925-.727zm12.918 9.708a6.916 6.916 0 0 0 3.37-2.006 7.648 7.648 0 0 0 2.247-5.376 8.611 8.611 0 0 0-.4-2.567l1.123-.321.642-.241a7.849 7.849 0 0 0 4.009-2.724 8.144 8.144 0 0 0 1.444-4.573 7.376 7.376 0 0 0-2.247-5.456 6.677 6.677 0 0 0-2.086-1.524 6.392 6.392 0 0 0 1.044-1.047 10.3 10.3 0 0 1 2.086 1.6 9.088 9.088 0 0 1 .883 11.8 9.832 9.832 0 0 1-3.29 2.728 11.544 11.544 0 0 1-1.926.722 10.229 10.229 0 0 1 .08 1.6 8.653 8.653 0 0 1-2.652 6.342v.08a9.627 9.627 0 0 1-4.333 2.407zm-6.66 4.092h9.227a2.328 2.328 0 1 1 0 4.654h-9.227a2.437 2.437 0 0 1-1.685-.642 2.532 2.532 0 0 1 0-3.37 2.437 2.437 0 0 1 1.685-.642zm9.227 1.364h-9.227a.911.911 0 0 0-.642 1.6.99.99 0 0 0 .642.321h9.227a.99.99 0 0 0 .642-.321.966.966 0 0 0-.642-1.6zm-1.363 5.937a3.574 3.574 0 0 1-.963 2.327 3.263 3.263 0 0 1-2.327.963 3.218 3.218 0 0 1-2.247-.963 3.574 3.574 0 0 1-.963-2.327h1.444a1.694 1.694 0 0 0 .481 1.284 1.6 1.6 0 0 0 1.284.562 1.653 1.653 0 0 0 1.364-.562 1.694 1.694 0 0 0 .481-1.284z" fill="#005180"/><path d="M3261.411 5262.383h9.227a2.2 2.2 0 0 1 2.327 2.327 2.437 2.437 0 0 1-.642 1.685 2.674 2.674 0 0 1-1.685.722h-9.227a2.5 2.5 0 0 1-1.685-.722 2.437 2.437 0 0 1-.642-1.685 2.589 2.589 0 0 1 .642-1.685 2.437 2.437 0 0 1 1.685-.642zm9.227 1.364h-9.227a.99.99 0 0 0-.642.321.73.73 0 0 0-.321.642.98.98 0 0 0 .321.722.911.911 0 0 0 .642.241h9.227a.911.911 0 0 0 .642-.241.98.98 0 0 0 .321-.722.73.73 0 0 0-.321-.642.991.991 0 0 0-.642-.321zm-9.789-32.495a6.1 6.1 0 0 1 4.172 1.685 5.95 5.95 0 0 1 1.685 4.172 5.889 5.889 0 0 1-5.857 5.937 5.874 5.874 0 0 1-4.252-1.765 5.809 5.809 0 0 1-1.685-4.172 5.95 5.95 0 0 1 1.685-4.172 6.145 6.145 0 0 1 4.252-1.685zm3.129 2.728a4.188 4.188 0 0 0-3.129-1.364 4.237 4.237 0 0 0-3.209 1.364 4.454 4.454 0 0 0 3.209 7.622 4.429 4.429 0 0 0 3.129-1.284 4.363 4.363 0 0 0 0-6.338z" fill="#005180"/><path d="M3271.199 5231.252a5.809 5.809 0 0 1 4.172 1.685 5.692 5.692 0 0 1 1.765 4.172 6.029 6.029 0 0 1-5.937 5.937 5.889 5.889 0 0 1-5.857-5.937 5.95 5.95 0 0 1 1.685-4.172 6.1 6.1 0 0 1 4.172-1.685zm3.209 2.728a4.237 4.237 0 0 0-3.209-1.364 4.188 4.188 0 0 0-3.129 1.364 4.363 4.363 0 0 0 0 6.338 4.429 4.429 0 0 0 3.129 1.284 4.48 4.48 0 0 0 3.209-1.284 4.364 4.364 0 0 0 0-6.338z" fill="#005180"/><path d="M3264.62 5241.361a3.823 3.823 0 0 0 .481 1.444c.321.481.642.963.883 1.364.321-.4.642-.883.963-1.364a3.823 3.823 0 0 0 .481-1.444l1.444.08a8.088 8.088 0 0 1-.722 2.086 13.586 13.586 0 0 1-1.6 2.247l-.562.642-.481-.642a13.585 13.585 0 0 1-1.6-2.247 5.893 5.893 0 0 1-.731-2.086zm-11.557-16.93l12.921 4.574 14.201-4.974-.322 1.2c-.722 3.049-2.086 4.814-3.691 5.777a12.008 12.008 0 0 1-5.135 1.6 5.8 5.8 0 0 0-3.209 1.284 4.007 4.007 0 0 0-1.122 3.139h-1.364a4.032 4.032 0 0 0-1.2-3.129 5.318 5.318 0 0 0-3.129-1.284 12.008 12.008 0 0 1-5.135-1.6c-1.6-.963-2.969-2.728-3.691-5.777l-.324-1.21zm12.761 6.019l-11.875-4.253a7.113 7.113 0 0 0 2.648 3.691 11.229 11.229 0 0 0 4.573 1.364 7.313 7.313 0 0 1 3.931 1.6 3.9 3.9 0 0 1 .883 1.123 4.222 4.222 0 0 1 .963-1.123 7.313 7.313 0 0 1 3.931-1.6 11.229 11.229 0 0 0 4.573-1.364 7.113 7.113 0 0 0 2.648-3.691l-11.874 4.253z" fill="#005180"/><path d="M3271.2 5234.782a2.089 2.089 0 0 1 1.2.321c-.08 0-.08-.08-.16-.08a.963.963 0 0 0-.883.963.89.89 0 0 0 .883.883.911.911 0 0 0 .963-.883c0-.08-.08-.16-.08-.241a2.179 2.179 0 0 1 .481 1.364 2.367 2.367 0 1 1-4.734 0 2.328 2.328 0 0 1 2.33-2.327zm-10.351 0a1.842 1.842 0 0 1 1.123.321c-.08 0-.08-.08-.16-.08a.963.963 0 0 0-.883.963.89.89 0 0 0 .883.883.911.911 0 0 0 .963-.883.3.3 0 0 0-.08-.241 2.179 2.179 0 0 1 .481 1.364 2.367 2.367 0 1 1-4.734 0 2.347 2.347 0 0 1 2.407-2.327z" fill="#005180" fill-rule="evenodd"/><path d="M3262.614 5255.964v3.45h1.364v-3.45zm5.456 0v3.45h1.364v-3.45z" fill="#005180"/><path d="M3351.753 5243.046v8.828h1.926c2.728 0 4.654-1.6 4.654-4.413s-1.926-4.413-4.654-4.413zm2.166-4.012a8.425 8.425 0 1 1 0 16.849h-4.252a1.986 1.986 0 0 1-2.005-2.009v-12.753a2.055 2.055 0 0 1 2.006-2.086zm20.139 5.94l3.45-5.055a2.039 2.039 0 0 1 3.771 1.123 1.842 1.842 0 0 1-.321 1.123v.08l-4.814 6.74v4.974a2.088 2.088 0 0 1-4.172 0v-4.974l-4.814-6.82a1.842 1.842 0 0 1-.321-1.123 2.039 2.039 0 0 1 3.771-1.123zm-35.784-6.018a2.124 2.124 0 0 1 2.086 2.086v8.264c0 4.092-3.209 6.82-7.141 6.82-4.012 0-7.141-2.728-7.141-6.82v-8.264a2.046 2.046 0 1 1 4.092 0v8.344a2.8 2.8 0 0 0 3.049 2.808 2.739 2.739 0 0 0 2.969-2.808v-8.344a2.124 2.124 0 0 1 2.086-2.088zm-22.947 4.092v10.912a1.986 1.986 0 0 1-2.006 2.006 2.055 2.055 0 0 1-2.086-2.006v-10.914h-3.129a2.006 2.006 0 1 1 0-4.012h10.43a1.986 1.986 0 0 1 2.006 2.006 2.038 2.038 0 0 1-2.006 2.006zm-18.213 7.7c0-1.444-8.906-.722-8.906-6.5 0-3.611 3.29-5.376 6.5-5.376a12.431 12.431 0 0 1 4.573.722 1.979 1.979 0 0 1 1.284 1.845 1.92 1.92 0 0 1-1.926 2.006 2.343 2.343 0 0 1-.722-.16 9.208 9.208 0 0 0-2.969-.481c-.8 0-2.648.16-2.648 1.284 0 2.086 8.906.562 8.906 6.82 0 3.53-3.37 5.215-6.5 5.215a13.73 13.73 0 0 1-5.376-1.123 2.1 2.1 0 0 1-1.282-1.844 1.986 1.986 0 0 1 2.006-2.006 2.85 2.85 0 0 1 .8.16 8.509 8.509 0 0 0 3.691.8c.965.003 2.569-.078 2.569-1.361z" fill="#00486e" fill-rule="evenodd"/><path d="M3410.645 5244.972l3.45-5.055a2.11 2.11 0 0 1 1.764-.963 2.072 2.072 0 0 1 2.086 2.086 1.915 1.915 0 0 1-.4 1.123v.08l-4.814 6.74v4.971a2.055 2.055 0 0 1-2.086 2.006 1.986 1.986 0 0 1-2.006-2.006v-4.974l-4.894-6.82a2.613 2.613 0 0 1-.321-1.123 2.039 2.039 0 0 1 3.771-1.123zm-18.695 6.82h5.777a2.055 2.055 0 0 1 2.006 2.086 1.986 1.986 0 0 1-2.006 2.006h-7.462a2.364 2.364 0 0 1-2.407-2.407v-12.437a2.055 2.055 0 0 1 2.006-2.086 2.124 2.124 0 0 1 2.086 2.086z" fill="#3b9ed4" fill-rule="evenodd"/></g><path data-name="Path 10848" d="M3278.017 5304.214a3.842 3.842 0 0 0 4.047-3.9v-6.114h-2.123v6.014a1.856 1.856 0 0 1-1.924 2 1.857 1.857 0 0 1-1.927-2v-6.014h-2.123v6.112a3.843 3.843 0 0 0 4.05 3.902zm8.634 0c1.909 0 3.17-1 3.17-2.547 0-1.842-1.574-2.1-2.808-2.324-.785-.143-1.431-.26-1.431-.764 0-.433.375-.724 1.012-.724.713 0 1.134.3 1.142.9h1.94c-.008-1.511-1.205-2.526-3.03-2.526s-3.046.985-3.046 2.415c0 1.782 1.536 2.105 2.744 2.306.8.134 1.455.29 1.455.807s-.508.762-1.075.762c-.733 0-1.249-.336-1.259-1.009h-1.993c.01 1.62 1.278 2.7 3.175 2.7zm12-4.021a3.85 3.85 0 0 0-3.911-3.967 3.866 3.866 0 0 0-3.921 3.994 3.88 3.88 0 0 0 3.921 3.994 3.869 3.869 0 0 0 3.752-2.7h-2.148a1.794 1.794 0 0 1-1.6.877 1.762 1.762 0 0 1-1.847-1.6h5.722a4.734 4.734 0 0 0 .039-.6zm-3.911-2.222a1.86 1.86 0 0 1 1.87 1.429h-3.664a1.773 1.773 0 0 1 1.794-1.429zm8.885 6.243a3.837 3.837 0 0 0 3.882-3.189h-2.058a1.928 1.928 0 0 1-1.824 1.268 1.99 1.99 0 0 1-1.942-2.083 1.961 1.961 0 0 1 1.942-2.061 1.944 1.944 0 0 1 1.826 1.18h2.03a3.784 3.784 0 0 0-3.845-3.1 3.909 3.909 0 0 0-4.025 3.971 3.95 3.95 0 0 0 4.014 4.014zm11.4-7.785l-.218.722a3.687 3.687 0 0 0-2.484-.925 3.874 3.874 0 0 0-3.966 3.982 3.887 3.887 0 0 0 3.97 4.006 3.675 3.675 0 0 0 2.45-.9l.176.676h1.6v-7.56zm-2.536 5.852a2.011 2.011 0 0 1-2.061-2.072 2.011 2.011 0 0 1 2.061-2.072 2.008 2.008 0 0 1 2.058 2.072 2.008 2.008 0 0 1-2.054 2.072zm8.711 1.933c1.909 0 3.17-1 3.17-2.547 0-1.842-1.574-2.1-2.808-2.324-.785-.143-1.431-.26-1.431-.764 0-.433.375-.724 1.012-.724.713 0 1.134.3 1.142.9h1.94c-.008-1.511-1.205-2.526-3.03-2.526s-3.042.988-3.042 2.418c0 1.782 1.536 2.105 2.744 2.306.8.134 1.455.29 1.455.807s-.508.762-1.075.762c-.733 0-1.249-.336-1.259-1.009h-1.993c.01 1.62 1.278 2.7 3.175 2.7zm12-4.021a3.85 3.85 0 0 0-3.908-3.967 3.866 3.866 0 0 0-3.921 3.994 3.88 3.88 0 0 0 3.921 3.994 3.869 3.869 0 0 0 3.752-2.7h-2.144a1.794 1.794 0 0 1-1.6.877 1.762 1.762 0 0 1-1.847-1.6h5.713a4.734 4.734 0 0 0 .039-.6zm-3.908-2.222a1.86 1.86 0 0 1 1.87 1.429h-3.662a1.773 1.773 0 0 1 1.792-1.429zm8.053 6.243c1.909 0 3.17-1 3.17-2.547 0-1.842-1.574-2.1-2.808-2.324-.785-.143-1.431-.26-1.431-.764 0-.433.375-.724 1.012-.724.713 0 1.134.3 1.142.9h1.94c-.008-1.513-1.205-2.529-3.03-2.529s-3.04.988-3.04 2.418c0 1.782 1.534 2.105 2.742 2.306.8.134 1.455.29 1.455.807s-.508.762-1.075.762c-.733 0-1.249-.336-1.259-1.009h-1.994c.011 1.62 1.278 2.703 3.176 2.703zm12.639-7.672h-1.955v-.634a.736.736 0 0 1 .83-.816h1.111v-1.609h-1.521a2.171 2.171 0 0 0-2.4 2.374v.685h-1.32v1.685h1.31V5304h2.044v-5.773h1.9zm4.635 7.672a3.281 3.281 0 0 0 3.546-3.406v-4.368h-2.044v4.135c0 1.061-.555 1.717-1.5 1.717s-1.513-.641-1.513-1.717v-4.135h-2.046v4.368a3.292 3.292 0 0 0 3.557 3.406zm9.275-7.814a2.579 2.579 0 0 0-2.192.968l-.363-.926h-1.312V5304h2.044v-3.928c0-1.236.456-1.746 1.607-1.746h.887v-1.926zm10.366-2.685v3.137a3.646 3.646 0 0 0-2.075-.626 3.873 3.873 0 0 0-3.974 3.994 3.883 3.883 0 0 0 3.975 4.006 3.611 3.611 0 0 0 2.368-.855l.241.63h1.505v-10.286zm-1.908 8.577a2.008 2.008 0 0 1-2.058-2.072 2.008 2.008 0 0 1 2.058-2.072 2.011 2.011 0 0 1 2.061 2.072 2.013 2.013 0 0 1-2.061 2.072zm13.255-2.1a3.85 3.85 0 0 0-3.914-3.967 3.866 3.866 0 0 0-3.92 3.995 3.88 3.88 0 0 0 3.921 3.994 3.869 3.869 0 0 0 3.752-2.7h-2.146a1.794 1.794 0 0 1-1.6.877 1.762 1.762 0 0 1-1.847-1.6h5.722a4.734 4.734 0 0 0 .039-.6zm-3.913-2.221a1.86 1.86 0 0 1 1.87 1.429h-3.664a1.773 1.773 0 0 1 1.794-1.429zm9.673-1.711a3.246 3.246 0 0 0-2.5 1.114l-.4-.934h-1.4v7.56h2.044v-3.973c0-1.217.643-1.971 1.7-1.971.885 0 1.319.551 1.319 1.694v4.25h2.044v-4.582c-.01-1.918-1.084-3.157-2.807-3.157zm-88.661 30.954a3.842 3.842 0 0 0 4.047-3.9v-6.114h-2.123v6.014a1.856 1.856 0 0 1-1.924 2 1.857 1.857 0 0 1-1.927-2v-6.014h-2.123v6.112a3.843 3.843 0 0 0 4.05 3.902zm10.2-7.953a3.246 3.246 0 0 0-2.5 1.114l-.4-.935h-1.4v7.56h2.044v-3.973c0-1.217.643-1.971 1.7-1.971.885 0 1.319.551 1.319 1.694v4.25h2.031v-4.582c0-1.918-1.073-3.157-2.8-3.157zm8.308 5.919a1.052 1.052 0 0 1-1.165-1.151v-2.946h2.051v-1.643h-2.086v-1.973h-.391l-2.986 3.174v.442H3318v3.217a2.489 2.489 0 0 0 2.689 2.7h1.452v-1.82zm9.586-1.987a3.85 3.85 0 0 0-3.914-3.967 3.866 3.866 0 0 0-3.916 3.994 3.88 3.88 0 0 0 3.921 3.994 3.869 3.869 0 0 0 3.752-2.7h-2.148a1.794 1.794 0 0 1-1.6.877 1.762 1.762 0 0 1-1.847-1.6h5.722a4.734 4.734 0 0 0 .039-.6zm-3.914-2.222a1.86 1.86 0 0 1 1.875 1.429h-3.661a1.773 1.773 0 0 1 1.791-1.429zm9.239-1.571a2.579 2.579 0 0 0-2.192.968l-.363-.926h-1.312V5327h2.042v-3.928c0-1.236.456-1.746 1.607-1.746h.893v-1.926zm5.7 0a2.579 2.579 0 0 0-2.192.968l-.363-.926h-1.314V5327H3340v-3.928c0-1.236.456-1.746 1.607-1.746h.887v-1.926zm1.835-.966h2.036v-1.9h-2.038zm0 8.568h2.04v-7.562h-2.046zm7.522.214a3.837 3.837 0 0 0 3.882-3.189H3353a1.928 1.928 0 0 1-1.824 1.268 1.99 1.99 0 0 1-1.942-2.083 1.968 1.968 0 0 1 3.766-.884h2.03a3.784 3.784 0 0 0-3.845-3.1 3.909 3.909 0 0 0-4.023 3.972 3.95 3.95 0 0 0 4.014 4.017zm9.561-7.953a3.3 3.3 0 0 0-2.284.881v-3.429h-2.051V5327h2.044v-3.973c0-1.228.677-1.971 1.7-1.971.919 0 1.319.563 1.319 1.694v4.25h2.044v-4.593c0-1.926-1.063-3.146-2.775-3.146zm8.285 5.919a1.052 1.052 0 0 1-1.165-1.151v-2.948h2.052v-1.643h-2.092v-1.973h-.391l-2.986 3.174v.442h1.367v3.217a2.489 2.489 0 0 0 2.687 2.7h1.452v-1.82z" fill="#1c6374"/><path data-name="Line 60" fill="none" stroke="#1c6374" stroke-linecap="round" stroke-width="3" d="M3324.5 5345.5h20"/></g></svg>