<svg xmlns="http://www.w3.org/2000/svg" width="155.262" height="135.577"><g data-name="Group 1461" transform="translate(-182 -1052.302)"><path data-name="Rectangle 154" fill="#00486e" d="M193.015 1052.302h133.51v87.491h-133.51z"/><path data-name="Rectangle 155" fill="#fff" d="M197.59 1056.663h124.222v78.77H197.59z"/><path data-name="Rectangle 156" fill="#f4b46a" d="M197.62 1171.47h122.173v15.82H197.62z"/><path data-name="Rectangle 157" fill="#f19751" d="M193.756 1166.85h132.769v6.621H193.756z"/><path data-name="Path 5988" d="M241.686 1151.142a.433.433 0 0 0 0-.867h-26.872a2.738 2.738 0 0 0 0 5.472h26.872a.433.433 0 1 0 0-.867h-3.646v-3.738z" fill="#fcd6c3"/><path data-name="Path 5989" d="M241.686 1151.142a.433.433 0 1 0 0-.867h-22.229a2.761 2.761 0 0 0 0 5.472h22.229a.433.433 0 1 0 0-.867h-3.646v-3.738z" fill="#fd9c83"/><path data-name="Path 5990" d="M220.405 1151.101a1.912 1.912 0 1 0 0 3.8h20.651v-3.8h-.143z" fill="#fff"/><path data-name="Path 5991" d="M234.195 1156.64a.433.433 0 1 0 0-.867h-26.872a2.738 2.738 0 0 0 0 5.472h26.872a.433.433 0 1 0 0-.867h-3.661v-3.738z" fill="#fe8b6e"/><path data-name="Path 5992" d="M209.239 1155.773h-1.916a2.738 2.738 0 0 0 0 5.472h1.915a2.738 2.738 0 0 1 0-5.472z" fill="#fe8b6e"/><path data-name="Path 5993" d="M234.195 1156.64a.433.433 0 1 0 0-.867h-22.229a2.761 2.761 0 0 0 0 5.472h22.229a.433.433 0 1 0 0-.867h-3.66v-3.738z" fill="#f69220"/><path data-name="Path 5994" d="M212.914 1156.61a1.893 1.893 0 1 0 0 3.764h20.659v-3.757h-.148z" fill="#fff"/><path data-name="Path 5995" d="M239.344 1162.127a.441.441 0 1 0 0-.882h-27.261a2.782 2.782 0 0 0 0 5.557h27.261a.441.441 0 1 0 0-.878h-3.7v-3.8z" fill="#6fbf44"/><path data-name="Path 5996" d="M214.032 1161.245h-1.949a2.782 2.782 0 0 0 0 5.557h1.949a2.782 2.782 0 1 1 0-5.557z" fill="#6fbf44"/><g data-name="Group 559" opacity=".7"><path data-name="Path 7475" d="M227.243 1110.438c-1.127-.166-2.227-.331-3.328-.487-.25-.036-.38-.1-.358-.409.126-1.786.209-3.575.348-5.36.027-.354-.03-.429-.373-.433-1.539-.019-3.076-.067-4.615-.1-.662-.015-.659-.01-.657-.651 0-.71.047-1.418.069-2.127.014-.425.18-.455.515-.433 1.584.1 3.172.106 4.759.13.466.007.658-.094.719-.6.217-1.775.5-3.542.75-5.313.1-.72.1-.723.781-.6.9.158 1.79.334 2.689.47.293.044.346.117.291.412-.33 1.742-.562 3.5-.781 5.257-.057.456.089.538.492.552a43.814 43.814 0 0 1 5.5.5c.29.047.359.094.284.405-.194.8-.331 1.619-.491 2.431-.047.239-.068.388-.435.32-1.8-.332-3.625-.378-5.441-.531-.283-.024-.3.158-.31.347-.063.808-.129 1.616-.18 2.425-.083 1.258-.153 2.52-.228 3.795z" fill="#643517"/><path data-name="Path 7476" d="M233.184 1072.633c-.576 1.831-1.1 3.484-1.615 5.141-.39 1.261-.785 1.528-2.1 1.377-1.395-.16-1.393-.178-.795-1.426a53.747 53.747 0 0 0 2.471-6.586.5.5 0 0 0-.094-.585 76.108 76.108 0 0 0-3.087-3.085 1.981 1.981 0 0 0-1.6-.608c-.37.033-.514-.1-.524-.474-.023-.886-.01-.911.834-1.266a13.749 13.749 0 0 1 1.881-.592.578.578 0 0 1 .656.218c.953 1.074 1.932 2.124 2.938 3.221.35-1.048.679-2.059 1.026-3.064.188-.542.41-1.073.611-1.61a.534.534 0 0 1 .485-.382 4.2 4.2 0 0 1 2.178.344c.251.12.3.224.142.493a32.753 32.753 0 0 0-2.518 6.018.286.286 0 0 0 .083.351 35.767 35.767 0 0 0 5.778 5.08c.764.488.764.48.117 1.138a5.783 5.783 0 0 1-1.32 1.018.711.711 0 0 1-.914-.074 54.1 54.1 0 0 1-4.25-4.144c-.112-.12-.202-.268-.383-.503z" fill="#cc8e41"/><path data-name="Path 7477" d="M274.909 1098.404c.31-.656.565-1.217.838-1.769.638-1.29 1.276-2.58 1.93-3.861a1.267 1.267 0 0 1 1.6-.729l10.041 2.6c.321.083.445.2.317.568a13.331 13.331 0 0 0-.426 1.612c-.068.316-.213.372-.5.295-2.853-.754-5.709-1.492-8.558-2.258-.446-.12-.667-.071-.888.386-1.316 2.71-2.673 5.4-4.015 8.1-.2.393-.359.8-.58 1.183a1.265 1.265 0 0 1-1.423.716 1.3 1.3 0 0 1-1-1.349c-.007-.539.074-1.078.08-1.617.015-1.406-.033-2.813.029-4.216.04-.9.076-1.789.073-2.685 0-.218.056-.275.289-.264a22.74 22.74 0 0 0 1.828.011c.34-.012.425.116.433.441a21.92 21.92 0 0 0-.068 2.836z" fill="#08ff00"/><path data-name="Path 7478" d="M210.593 1106.739a19.459 19.459 0 0 1 3.333-.987c.419-.088.573-.007.611.43a12.776 12.776 0 0 0 .265 1.547c.056.262-.022.372-.276.412a15.6 15.6 0 0 0-6.361 2.638c-.2.139-.351.165-.507-.055-.107-.151-.243-.281-.363-.422-.251-.293-.714-.534-.7-.884s.372-.659.568-.994a25.382 25.382 0 0 0 2.888-7.108 3.449 3.449 0 0 0 .047-1.854.913.913 0 0 0-1.493-.57 2.714 2.714 0 0 0-1 1.311 10.2 10.2 0 0 0-.752 2.147c-.07.335-.2.409-.546.26-.541-.232-1.12-.376-1.677-.573-.156-.056-.377-.083-.28-.375a10.711 10.711 0 0 1 2.252-4.32 3.537 3.537 0 0 1 4.159-.878 3.938 3.938 0 0 1 1.862 4.02 23.454 23.454 0 0 1-2.03 6.255z" fill="#cc8e41"/><path data-name="Path 7479" d="M222.879 1086.086a28.753 28.753 0 0 1-1.1 6.27c-.044.177-.132.272-.326.193a.8.8 0 0 0-.1-.035c-.465-.125-1.126-.027-1.346-.4-.2-.345.135-.9.26-1.348a36.162 36.162 0 0 0 .813-4.533c.063-.446-.024-.6-.524-.486-.773.174-1.566.256-2.349.384a.937.937 0 1 1-.432-1.82 36.938 36.938 0 0 1 4.051-.635c2.4-.385 4.81-.725 7.215-1.083a1.135 1.135 0 0 1 .964.187.912.912 0 0 1 .315.962.835.835 0 0 1-.7.651c-.781.132-1.563.263-2.347.378a.668.668 0 0 0-.641.8 14.4 14.4 0 0 0 .671 4.034c.135.413.3.6.792.394.741-.308.758-.268.845.529.125 1.137.038 1.251-1.076 1.4a1.874 1.874 0 0 1-2.1-1.294 13.261 13.261 0 0 1-.963-5.144c0-.307-.061-.382-.355-.328-.465.085-.934.149-1.4.207-.184.023-.219.1-.183.269a2.79 2.79 0 0 1 .016.448z" fill="#206dd6"/><path data-name="Path 7480" d="M258.731 1074.892c4.177.3 8.372.3 12.533.837.653.084 1.3.209 1.953.292.28.036.382.138.316.423-.2.838-.389 1.676-.562 2.519-.054.261-.151.31-.409.259a51.256 51.256 0 0 0-7.451-.762c-2.429-.122-4.858-.232-7.287-.343-.346-.016-.542-.062-.476-.522a21.916 21.916 0 0 0 .155-2.324c.011-.306.1-.42.417-.385a7.192 7.192 0 0 0 .811.006z" fill="#206dd6"/><path data-name="Path 7481" d="M258.248 1080.792c4.448.306 8.914.311 13.339.935.418.059.832.149 1.25.2.282.032.328.167.271.411-.2.854-.4 1.707-.578 2.565-.054.26-.159.265-.386.222a45.981 45.981 0 0 0-6.489-.705c-2.784-.125-5.566-.273-8.35-.4-.327-.015-.434-.121-.4-.455.078-.755.153-1.514.162-2.272.006-.445.17-.558.571-.5a4.407 4.407 0 0 0 .61-.001z" fill="#206dd6"/><path data-name="Path 7482" d="M244.656 1078.705a4.771 4.771 0 0 0 3.2-.068c.72-.341 1-.753.886-1.306a1.5 1.5 0 0 0-1.351-1.117 3.664 3.664 0 0 0-1.362.067c-.388.123-.551-.048-.624-.409a5.14 5.14 0 0 0-.261-.975c-.167-.4 0-.492.349-.588a9.23 9.23 0 0 0 2.972-1.362c.627-.451.9-1.011.7-1.431-.174-.366-.818-.459-1.529-.219a7.613 7.613 0 0 0-1.547.741c-.246.151-.317.107-.442-.125-.231-.431-.5-.844-.766-1.253-.122-.186-.093-.285.09-.4a5.92 5.92 0 0 1 4.246-1.133 2.56 2.56 0 0 1 2.131 1.724 2.5 2.5 0 0 1-.535 2.724 7.393 7.393 0 0 1-1.531 1.237c-.006.16.119.2.21.258 2.16 1.289 1.685 3.862.212 5.1a4.325 4.325 0 0 1-4.609.623.3.3 0 0 1-.22-.292 459.61 459.61 0 0 0-.219-1.796z" fill="#643517"/><path data-name="Path 7483" d="M236.363 1092.782c-.315.05-.444.017-.475-.218-.107-.8-.233-1.6-.346-2.4-.034-.237.153-.216.3-.237 1.387-.2 2.774-.4 4.162-.588 2.358-.324 4.718-.64 7.077-.964q2.007-.275 4.012-.565c.26-.037.411.014.448.31.1.77.212 1.538.321 2.307.038.269-.16.241-.324.265-1.17.164-2.34.331-3.51.494q-3.912.545-7.825 1.087c-1.32.178-2.64.35-3.84.509z" fill="#cc8e41"/><path data-name="Path 7484" d="M221.692 1074.757a8.606 8.606 0 0 1-1.476 5.055 5.642 5.642 0 0 1-.975 1.027c-1.478 1.244-3.566.25-4.219-1.3a6 6 0 0 1-.339-3.373 9.934 9.934 0 0 1 1.536-4.241c.919-1.308 1.931-1.778 3.225-1.4a3.1 3.1 0 0 1 2.021 2.463 7.167 7.167 0 0 1 .227 1.769zm-2.225-.163a9.151 9.151 0 0 0-.065-1.356c-.1-.452-.258-.893-.757-.957-.514-.066-.7.418-.88.781a8.964 8.964 0 0 0-.7 2.158 8 8 0 0 0-.142 3.355c.1.467.323.9.846.952.46.044.625-.383.809-.724a8.477 8.477 0 0 0 .889-4.209z" fill="#08ff00"/><path data-name="Path 7485" d="M261.829 1089.406l4.929.572c.326.038.524.157.485.541a3.134 3.134 0 0 0 .072.907 1.714 1.714 0 0 1-.388 1.448 40.163 40.163 0 0 0-4.691 7.689c-.042.092-.087.183-.126.277-.365.87-.364.87-1.28.582a.894.894 0 0 1-.095-.035c-.337-.151-.877-.074-1-.372-.135-.316.214-.705.367-1.055a34.1 34.1 0 0 1 4.8-7.732c.082-.1.247-.186.187-.333-.073-.176-.268-.094-.409-.108-1.092-.106-2.184-.214-3.277-.3-.245-.02-.262-.149-.261-.334 0-.44.031-.884-.01-1.32-.036-.385.112-.469.447-.4a1.271 1.271 0 0 0 .253 0z" fill="#cc8e41"/><path data-name="Path 7486" d="M244.447 1093.488a2.451 2.451 0 0 1 1.848.7 1.754 1.754 0 0 1-.305 2.7 2.6 2.6 0 0 1-2.764.346 1.8 1.8 0 0 1-1.176-1.578 1.9 1.9 0 0 1 1.016-1.751 2.542 2.542 0 0 1 1.381-.417z" fill="#cc8e41"/><path data-name="Path 7487" d="M242.795 1087.12a2.239 2.239 0 0 1-1.442-.494 1.72 1.72 0 0 1-.417-2.379 2.665 2.665 0 0 1 3.877-.442 1.692 1.692 0 0 1 .076 2.447 2.591 2.591 0 0 1-2.094.868z" fill="#cc8e41"/></g><path data-name="Path 5997" d="M239.344 1162.127a.441.441 0 1 0 0-.882h-22.552a2.808 2.808 0 0 0 0 5.565h22.552a.441.441 0 1 0 0-.878h-3.7v-3.8z" fill="#57a02b"/><path data-name="Path 5998" d="M217.775 1162.112a1.922 1.922 0 1 0 0 3.82h20.936v-3.81h-.152z" fill="#fff"/><path data-name="Line 50" fill="none" stroke="#033a2d" stroke-miterlimit="10" stroke-width="1.08" d="M182 1187.339h155.262"/><path data-name="Path 5999" d="M305.162 1142.031l.093 45.126-15.961-.026-2.03-29.943h-1.271l-1.585 29.953h-14.89a394.465 394.465 0 0 1 .741-45.107z" fill="#00486e"/><path data-name="Line 51" fill="none" stroke="#033a2d" stroke-miterlimit="10" stroke-width="1.08" d="M287.264 1157.084h-7.388"/><path data-name="Path 6000" d="M268.788 1100.814s-2.193 0-6.484 6.732c-2.623 4.12-8.151 12.86-10.87 17.335a6.209 6.209 0 0 0 1.615 8.206 6.95 6.95 0 0 0 9.136-1.13l11.737-14.3z" fill="#feb546"/><path data-name="Path 6001" d="M247.881 1108.987l-.545-4.016a2.049 2.049 0 0 0-1.449-1.7l-4.764-1.423a1.549 1.549 0 0 0-1.789.719 1.549 1.549 0 0 0 .6 2.127l2.279 1.241s-3.164 2.516-.111 5.891z" fill="#d79b77"/><path data-name="Path 6002" d="M245.887 1103.267l-6.214-8.484a1.2 1.2 0 0 0-1.76-.182 1.193 1.193 0 0 0-.263 1.434l3.909 7.614z" fill="#d79b77"/><path data-name="Path 6003" d="M240.906 1101.207l-2.386-.811a1.66 1.66 0 0 0-1.445.308l-.552.441a1.66 1.66 0 0 0-.419 2.082l3.045 5.428 3.92-2.886z" fill="#d79b77"/><path data-name="Path 6004" d="M236.536 1101.985h-.889a1.626 1.626 0 0 0-1.137.463l-.741.741a1.619 1.619 0 0 0-.485 1.16 1.623 1.623 0 0 0 .326.974l3.9 5.187 3.383-2.519z" fill="#d79b77"/><path data-name="Path 6005" d="M235.109 1104.041h-.871a1.615 1.615 0 0 0-1.137.467l-.741.719a1.634 1.634 0 0 0-.485 1.164 1.619 1.619 0 0 0 .322.974l1.371 1.827a4.238 4.238 0 0 0 5.928.852z" fill="#d79b77"/><path data-name="Path 6006" d="M235.432 1110.254l4.968 5.494 7.48-6.769-3.1-3.972h-3.879l-3.383 2.345z" fill="#d79b77"/><path data-name="Path 6007" d="M245.561 1103.212l-5.187-1.723a1.412 1.412 0 0 0-1.76.93h0a1.415 1.415 0 0 0 .474 1.53l3.123 1.978s-2.816 1.375-.519 4.579" fill="none" stroke="#c66a4a" stroke-linecap="round" stroke-linejoin="round" stroke-width="1.02"/><path data-name="Path 6008" d="M236.025 1101.985l3.116 4.338a1.538 1.538 0 0 0 2.223.3l.863-.7" fill="none" stroke="#c66a4a" stroke-linecap="round" stroke-linejoin="round" stroke-width="1.02"/><path data-name="Path 6009" d="M233.287 1104.593l2.8 3.586a1.747 1.747 0 0 0 2.464.474h0a1.852 1.852 0 0 0 .4-2.593l-.9-1.23" fill="none" stroke="#c66a4a" stroke-linecap="round" stroke-linejoin="round" stroke-width="1.02"/><path data-name="Path 6010" d="M236.025 1110.781a1.277 1.277 0 0 0 1.067-1.764" fill="none" stroke="#c66a4a" stroke-linecap="round" stroke-linejoin="round" stroke-width="1.02"/><path data-name="Path 6011" d="M251.56 1131.507l-12.649-16.144 9.118-7.506 11.826 13.234z" fill="#feb546"/><path data-name="Line 52" fill="none" stroke="#f48b76" stroke-miterlimit="10" stroke-width="1.02" d="M256.272 1117.082l3.583 4.009"/><path data-name="Rectangle 158" fill="#fff" d="M271.288 1116.316h29.402v29.402h-29.402z"/><path data-name="Path 6012" d="M280.428 1097.817s1.6 19.588 2.56 25.99l8.173-25.119z" fill="#fff"/><path data-name="Path 6013" d="M290.221 1097.872l15.894 2.286 1.8 16.817-2.364 7.817-.03 24.423a1.708 1.708 0 0 1-2.16 1.641l-9.551-2.427a14.2 14.2 0 0 1-10.2-11.237l-1.13-9.77z" fill="#eda03a"/><path data-name="Path 6014" d="M290.554 1095.75s2.682-.437 3.216 1.986 1.06 4.664 1.06 4.664l-2.078 1.063 2.078 1.593-11.856 18.744z" fill="#d68922"/><path data-name="Path 6015" d="M280.429 1097.817l-11.641 3-.619 16.039 1.734 10.659-2.123 19.58a1.378 1.378 0 0 0 1.567 1.578c3.145-.489 9.922-2.638 11.685-7.665 2.393-6.817 1.956-17.2 1.956-17.2z" fill="#eda03a"/><path data-name="Path 6016" d="M281.009 1096.339s-2.123-.83-3.279 1.882a47.128 47.128 0 0 0-1.7 4.513l2.49 1.43-2.49 1.43 6.958 18.213z" fill="#d68922"/><path data-name="Path 6017" d="M269.128 1123.495s-.96-6.643-1.178-12.578" fill="none" stroke="#f48b76" stroke-miterlimit="10" stroke-width="1.02"/><path data-name="Line 53" fill="none" stroke="#f48b76" stroke-miterlimit="10" stroke-width="1.02" d="M282.989 1123.496l-.508 8.518"/><path data-name="Path 6018" d="M306.114 1100.162a13.582 13.582 0 0 1 8.6 4.6c3.627 4.257 13.912 13.967 17.043 20.977l-13.29 2.675-12.353-12.388z" fill="#feb546"/><path data-name="Line 54" fill="none" stroke="#f48b76" stroke-miterlimit="10" stroke-width="1.02" d="M307.619 1117.931l-4.087-3.227"/><path data-name="Path 6019" d="M288.216 1130.294l15.687-10.911 2.693 3.738-15.37 10.467z" fill="#e86e56"/><path data-name="Path 6020" d="M305.002 1122.077l-1.349-1.76-14.678 10.377 1.426 1.745z" fill="#fff"/><path data-name="Path 6021" d="M290.024 1131.246l15.424 21.548 15.4-11.1-15.071-21.57z" fill="#fe8b6e"/><path data-name="Path 6022" d="M290.026 1131.246l-1.808-.952 15.308 21.511 1.923.989z" fill="#e86e56"/><path data-name="Path 6023" d="M307.8 1129.512l-9.866 6.969-1.867-2.575 9.87-6.969z" fill="#fff"/><path data-name="Path 6024" d="M308.133 1148.737a6.754 6.754 0 1 0-9.41-1.649 6.754 6.754 0 0 0 9.41 1.649z" fill="#d79b77"/><path data-name="Path 6025" d="M297.638 1141.875s-2.434-1.886.3-4.138 7.514-3.649 11.856 1.593z" fill="#d79b77"/><path data-name="Path 6026" d="M321.475 1122.377l-17.135 13.419 7.41 9.922 17.784-13c2.827-1.93 3.7-4.946 1.9-7.5-1.604-2.289-7.647-5.464-9.959-2.841z" fill="#feb546"/><path data-name="Path 6027" d="M275.448 1072.887s-4.994 1.852.663 9l1.412-8.984z" fill="#321c1a"/><path data-name="Path 6028" d="M278.902 1082.552a2.911 2.911 0 1 1-3.034-2.864 2.964 2.964 0 0 1 3.034 2.864z" fill="#d67e59"/><path data-name="Path 6029" d="M281.099 1086.943l-.574 9.533c-.37 3.5 1.323 5.254 4.516 5.413 2.727.137 6.154-1 6.213-3.961l.207-15.042z" fill="#d79b77"/><path data-name="Path 6030" d="M280.591 1095.423s6.784.889 10.963-9.633c1.06-2.66-10.414.163-10.414.163z" fill="#d67e59"/><path data-name="Path 6031" d="M282.736 1092.948c-4.372-.1-7.9-3.742-7.94-7.432l-.041-7.725a8.479 8.479 0 0 1 7.94-8.681c4.583-.219 9.262 3.4 9.47 8.151l-.041 6.02a9.636 9.636 0 0 1-9.388 9.667z" fill="#d79b77"/><path data-name="Path 6032" d="M292.206 1080.915c-.274.085-4.576-1.067-4.127-7.78a4.261 4.261 0 0 0-3.764-.782c-2.33.552-10.611 3.831-11.707-.993-.882-3.857 4.85-8.025 13.627-5.794 6.669 1.689 8.432 5.557 8.892 7.321a3.238 3.238 0 0 1 .033 1.519l-1.356 6.48z" fill="#321c1a"/><path data-name="Path 6033" d="M296.366 1082.99a3.142 3.142 0 0 1-2.938 3.334 3.108 3.108 0 0 1-3.208-3.027 3.149 3.149 0 0 1 2.938-3.334 3.112 3.112 0 0 1 3.208 3.027z" fill="#d79b77"/><path data-name="Path 6034" d="M292.325 1084.165a1.675 1.675 0 0 1 2.049-2.038" fill="none" stroke="#1c0e0e" stroke-linecap="round" stroke-linejoin="round" stroke-width="1.13"/><path data-name="Path 6035" d="M290.061 1078.633s-.63 2.364-1.382 5.6a2.086 2.086 0 0 1-2.493 1.56c-2.634-.6-6.824-1.7-10.2-.641a1.011 1.011 0 0 1-1.2-.6v1.4a7.087 7.087 0 0 0 7.169 7l1.778-.022a7.534 7.534 0 0 0 7.136-7.347l.537-6.139z" fill="#321c1a"/><path data-name="Path 6036" d="M294.854 1070.008l-2.771.482.9-2.99" fill="none" stroke="#321c1a" stroke-linecap="round" stroke-linejoin="round" stroke-width="4.89"/><path data-name="Path 6037" d="M279.214 1081.656l-.756 2.03 1.252.374" fill="none" stroke="#1c0e0e" stroke-linecap="round" stroke-linejoin="round" stroke-width="1.13"/><path data-name="Path 6038" d="M284.204 1076.529s-1.786-.2-1.823.556c0 0 0 .511 1.549.648s2.286.144 2.438-.33-1.327-.852-2.164-.874z" fill="#160b0b"/><path data-name="Path 6039" d="M276.797 1076.58s1.482-.119 1.589.589c0 0 .056.482-1.241.559s-1.715-.1-1.827-.493c-.129-.444.786-.658 1.479-.655z" fill="#160b0b"/><path data-name="Path 6040" d="M277.776 1080.875a.741.741 0 1 1-.741-.771.763.763 0 0 1 .741.771z" fill="#160b0b"/><path data-name="Path 6041" d="M284.497 1081.008a.778.778 0 1 1-.495-.716.771.771 0 0 1 .495.716z" fill="#160b0b"/><path data-name="Path 6042" d="M278.483 1085.95l4.205-.048s-.033 1.337-2.1 1.352c-2.009.019-2.105-1.304-2.105-1.304z" fill="#fff"/><ellipse data-name="Ellipse 35" cx="3.16" cy="3.16" rx="3.16" ry="3.16" transform="translate(280.792 1077.855)" fill="none" stroke="#fff" stroke-miterlimit="10" stroke-width="1.13"/><ellipse data-name="Ellipse 36" cx="3.016" cy="3.016" rx="3.016" ry="3.016" transform="translate(272.518 1077.855)" fill="none" stroke="#fff" stroke-miterlimit="10" stroke-width="1.07"/><path data-name="Path 6043" d="M278.55 1080.871a2.179 2.179 0 0 1 2.223.144" fill="none" stroke="#fff" stroke-miterlimit="10" stroke-width="1.13"/><path data-name="Line 55" fill="none" stroke="#fff" stroke-miterlimit="10" stroke-width="1.09" d="M287.112 1081.015l4.198-.293"/></g></svg>