<svg data-name="Group 463" xmlns="http://www.w3.org/2000/svg" width="173.894" height="135.042"><path data-name="Rectangle 182" fill="#b3e3ef" d="M0 92.925h.525v42.117H0z"/><path data-name="Path 6044" d="M3.764 107.289l17.218-15.938h137.73l15.182 15.938z" fill="#0e97cd"/><path data-name="Path 6045" d="M156.548 93.21H21.109a4.122 4.122 0 0 1-4.045-4.186V4.186A4.122 4.122 0 0 1 21.109 0h135.439a4.135 4.135 0 0 1 4.058 4.186v84.8a4.135 4.135 0 0 1-4.058 4.224z" fill="#00486e"/><rect data-name="Rectangle 159" width="132.405" height="83.132" rx="2.92" transform="translate(22.633 6.542)" fill="#b3e3ef"/><path data-name="Path 6046" d="M90.352 2.739a1.523 1.523 0 1 1-1.524-1.523 1.523 1.523 0 0 1 1.524 1.523z" fill="#025482"/><path data-name="Path 6047" d="M165.138 119.961H12.482a8.7 8.7 0 0 1-8.718-8.717v-3.956h170.13v3.956a8.7 8.7 0 0 1-8.756 8.718z" fill="#034060"/><path data-name="Path 6048" d="M59.463 93.118a1.523 1.523 0 0 1-1.523 1.523H40.734a1.523 1.523 0 0 1-1.523-1.523 1.511 1.511 0 0 1 1.523-1.511h17.205a1.511 1.511 0 0 1 1.523 1.511z" fill="#03436b"/><path data-name="Path 6050" d="M68.833 105.01l5.658-5.236h29.354l4.993 5.236z" fill="#4396ca"/><path data-name="Rectangle 160" fill="#fff" d="M84.412 96.574h9.486v.461h-9.486z"/><path data-name="Rectangle 161" fill="#fff" d="M15.157 103.384h10.638v.461H15.157z"/><path data-name="Rectangle 162" fill="#fff" d="M24.156 96.574h9.486v.461h-9.486z"/><path data-name="Rectangle 163" fill="#fff" d="M20.098 99.684h9.486v.461h-9.486z"/><path data-name="Rectangle 164" fill="#fff" d="M42.629 96.574h9.486v.461h-9.486z"/><path data-name="Rectangle 165" fill="#fff" d="M37.828 99.684h9.486v.461h-9.486z"/><path data-name="Rectangle 166" fill="#fff" d="M49.337 103.384h10.638v.461H49.337z"/><path data-name="Rectangle 167" fill="#fff" d="M60.602 96.574h9.486v.461h-9.486z"/><path data-name="Rectangle 168" fill="#fff" d="M55.801 99.684h9.486v.461h-9.486z"/><path data-name="Rectangle 169" fill="#fff" d="M32.375 104.139h10.638v.461H32.375z"/><path data-name="Rectangle 170" fill="#fff" d="M153.642 103.384h10.638v.461h-10.638z"/><path data-name="Rectangle 172" fill="#fff" d="M149.84 99.684h9.486v.461h-9.486z"/><path data-name="Rectangle 173" fill="#fff" d="M127.31 96.574h9.486v.461h-9.486z"/><path data-name="Rectangle 174" fill="#fff" d="M132.123 99.684h9.486v.461h-9.486z"/><path data-name="Rectangle 178" fill="#fff" d="M136.424 104.139h10.638v.461h-10.638z"/><path data-name="Path 6051" d="M19.522 61.331s-7.079 6.221-5.94 8.961 2.163 2.048 9.23 1.984c3.111 0 5.633.1 6.887-.474 2.445-1.139 1.843-2.778 1.28-3.84a71.147 71.147 0 0 0-4.724-6.593z" fill="#ff645f"/><path data-name="Path 6052" d="M11.124 96.842h18.05v4.327a4.25 4.25 0 0 1-4.25 4.25h-13.8a4.25 4.25 0 0 1-4.25-4.25v-.09a4.25 4.25 0 0 1 4.25-4.237z" fill="#29266b"/><path data-name="Path 6053" d="M29.174 96.843H15.579l1.28-4.047-2.78-15.962a3.085 3.085 0 0 1 3.06-3.328h10.729a3.06 3.06 0 0 1 3.047 3.328L28.47 93.207z" fill="#feb546"/><path data-name="Path 6054" d="M23.281 74.761h-2.082a1.28 1.28 0 0 1-1.178-1.28V70.92a1.28 1.28 0 0 1 1.178-1.28h2.082a1.28 1.28 0 0 1 1.178 1.28v2.56a1.28 1.28 0 0 1-1.178 1.281z" fill="#f7958d"/><path data-name="Path 6055" d="M26.883 69.525c-.832 2.842-3.213 2.407-6.055 1.562a5.364 5.364 0 1 1 3.033-10.246c2.804.785 3.828 5.842 3.022 8.684z" fill="#fca89e"/><path data-name="Path 6056" d="M18.204 63.763s7.77.947 10.113 0 3.008-2.483 1.28-4.224c-2.163-2.227-5.658-1.088-8.731 1.05a17.666 17.666 0 0 0-2.663 3.175z" fill="#ff645f"/><path data-name="Path 6057" d="M20.932 63.444s0 1.895-.256 1.895a1.818 1.818 0 0 0-1.959.525c-.73.909.064 1.831.909 2.023s.269 2.419-1.767 2.035-2.739-5.121-1.7-7 4.391-3.84 5.569-3.725 1.754 2.944 1.754 2.944z" fill="#ff645f"/><path data-name="Path 6058" d="M26.883 69.525c-.832 2.842-3.213 2.407-6.055 1.562a5.364 5.364 0 1 1 3.033-10.246c2.804.785 3.828 5.842 3.022 8.684z" fill="none"/><path data-name="Path 6059" d="M7.143 100.183l-2.227 24.732h3.26s5.236-16.1 5.761-21.327-3.277-4.314-3.277-4.314z" fill="#29266b"/><path data-name="Path 6060" d="M17.473 100.183l-2.227 24.732h3.264s5.236-16.1 5.812-21.327-3.277-4.314-3.277-4.314z" fill="#29266b"/><path data-name="Path 6061" d="M14.338 75.349l-4.839 9.14 6.529-.525z" fill="#eda03a"/><path data-name="Path 6062" d="M30.058 74.53l8.423 12.149a1.869 1.869 0 0 1-.781 2.458l-13.044 2.944-1.69-2.88 9.14-3.3-6.5-6.567z" fill="#eda03a"/><path data-name="Path 6063" d="M24.451 91.376H19.09l-.4-2.355h4.045a1.549 1.549 0 0 1 1.536 1.28z" fill="#fca89e"/><path data-name="Path 6064" d="M4.979 124.916h3.2v2.458H1.69c-.422 0-.576-.96-.2-1.165z" fill="#ff645f"/><path data-name="Path 6065" d="M15.247 124.916h3.2v2.458h-6.49c-.435 0-.576-.96-.2-1.165z" fill="#ff645f"/><path data-name="Path 6066" d="M22.723 89.341l-.09-.269 8.142-2.791.09.269z" fill="#4396ca"/><path data-name="Rectangle 179" fill="#4396ca" d="M23.52 91.471l9.363-.788.024.281-9.363.788z"/><path data-name="Path 6067" d="M29.174 96.796H15.707l-1.628-19.962a3.085 3.085 0 0 1 3.06-3.328h10.729a3.06 3.06 0 0 1 3.047 3.328L28.47 93.207z" fill="none"/><path data-name="Path 6068" d="M21.647 91.402H4.762L2.445 80.943h16.89z" fill="#97c7d3"/><path data-name="Rectangle 180" fill="#97c7d3" d="M4.749 91.325h21.02v1.779H4.749z"/><path data-name="Path 6069" d="M12.801 86.461a1.114 1.114 0 1 1-1.113-1.114 1.1 1.1 0 0 1 1.114 1.114z" fill="#fca89e"/><path data-name="Rectangle 181" fill="#b3e3ef" d="M0 92.759h33.13v1.818H0z"/><path data-name="Rectangle 183" fill="#b3e3ef" d="M32.618 92.925h.525v42.117h-.525z"/><path data-name="Path 6071" d="M29.174 96.796H15.707l1.152-4-2.78-15.962a3.085 3.085 0 0 1 3.06-3.328h10.729a3.06 3.06 0 0 1 3.047 3.328L28.47 93.207z" fill="none"/><g data-name="Group 457" transform="translate(40.734 13.241)"><rect data-name="Rectangle 214" width="28" height="30" rx="4" transform="translate(.073 .456)" fill="#8ad6fb"/><rect data-name="Rectangle 215" width="24" height="1" rx=".5" transform="translate(2.073 20.456)" fill="#76acc7"/><rect data-name="Rectangle 216" width="24" height="2" rx="1" transform="translate(2.073 24.456)" fill="#76acc7"/><path data-name="Icon awesome-user-check" d="M13.713 9.157a2.945 2.945 0 1 0-2.944-2.945 2.945 2.945 0 0 0 2.944 2.945zm2.061.736h-.383a4 4 0 0 1-3.354 0h-.385a3.093 3.093 0 0 0-3.092 3.092v.957a1.1 1.1 0 0 0 1.1 1.1h8.1a1.1 1.1 0 0 0 1.1-1.1v-.957a3.093 3.093 0 0 0-3.085-3.092zm7.431-2.954l-.64-.646a.273.273 0 0 0-.387 0l-2.409 2.39-1.047-1.054a.273.273 0 0 0-.387 0l-.646.638a.273.273 0 0 0 0 .387l1.88 1.893a.273.273 0 0 0 .387 0l3.251-3.226a.275.275 0 0 0 0-.387z" fill="#76acc7"/></g><g data-name="Group 462" transform="translate(40.734 52.596)"><rect data-name="Rectangle 214" width="28" height="30" rx="4" transform="translate(.073 .102)" fill="#8ad6fb"/><rect data-name="Rectangle 215" width="24" height="3" rx="1.5" transform="translate(2.073 19.102)" fill="#76acc7"/><rect data-name="Rectangle 216" width="24" height="2" rx="1" transform="translate(2.073 24.102)" fill="#76acc7"/><path data-name="Icon awesome-user-check" d="M13.713 9.067a2.945 2.945 0 1 0-2.944-2.945 2.945 2.945 0 0 0 2.944 2.945zm2.061.736h-.383a4 4 0 0 1-3.354 0h-.385a3.093 3.093 0 0 0-3.092 3.092v.957a1.1 1.1 0 0 0 1.1 1.1h8.1a1.1 1.1 0 0 0 1.1-1.1v-.957a3.093 3.093 0 0 0-3.085-3.092zm7.431-2.954l-.64-.646a.273.273 0 0 0-.387 0l-2.409 2.39-1.047-1.054a.273.273 0 0 0-.387 0l-.646.638a.273.273 0 0 0 0 .387l1.88 1.893a.273.273 0 0 0 .387 0l3.251-3.226a.275.275 0 0 0 0-.387z" fill="#76acc7"/></g><g data-name="Group 458" transform="translate(76.073 13.241)"><rect data-name="Rectangle 214" width="28" height="30" rx="4" transform="translate(-.266 .456)" fill="#8ad6fb"/><rect data-name="Rectangle 215" width="23" height="1" rx=".5" transform="translate(2.734 20.456)" fill="#76acc7"/><rect data-name="Rectangle 216" width="23" height="2" rx="1" transform="translate(2.734 24.456)" fill="#76acc7"/></g><g data-name="Group 461" transform="translate(76.073 52.596)"><rect data-name="Rectangle 214" width="28" height="30" rx="4" transform="translate(-.266 .102)" fill="#8ad6fb"/><rect data-name="Rectangle 215" width="23" height="3" rx="1.5" transform="translate(2.734 19.102)" fill="#76acc7"/><rect data-name="Rectangle 216" width="23" height="2" rx="1" transform="translate(2.734 24.102)" fill="#76acc7"/><path data-name="Icon awesome-user-check" d="M13.973 9.067a2.945 2.945 0 1 0-2.944-2.945 2.945 2.945 0 0 0 2.944 2.945zm2.061.736h-.383a4 4 0 0 1-3.354 0h-.385a3.093 3.093 0 0 0-3.092 3.092v.957a1.1 1.1 0 0 0 1.1 1.1h8.1a1.1 1.1 0 0 0 1.1-1.1v-.957a3.093 3.093 0 0 0-3.085-3.092zm7.431-2.954l-.64-.646a.273.273 0 0 0-.387 0l-2.409 2.39-1.047-1.054a.273.273 0 0 0-.387 0l-.646.638a.273.273 0 0 0 0 .387l1.88 1.893a.273.273 0 0 0 .387 0l3.251-3.226a.275.275 0 0 0 0-.387z" fill="#76acc7"/></g><g data-name="Group 459" transform="translate(111.412 13.241)"><rect data-name="Rectangle 214" width="28" height="30" rx="4" transform="translate(.395 .456)" fill="#8ad6fb"/><rect data-name="Rectangle 215" width="22" height="1" rx=".5" transform="translate(3.395 20.456)" fill="#76acc7"/><rect data-name="Rectangle 216" width="22" height="2" rx="1" transform="translate(3.395 24.456)" fill="#76acc7"/><path data-name="Icon awesome-user-check" d="M14.234 9.157a2.945 2.945 0 1 0-2.944-2.945 2.945 2.945 0 0 0 2.944 2.945zm2.061.736h-.383a4 4 0 0 1-3.354 0h-.385a3.093 3.093 0 0 0-3.092 3.092v.957a1.1 1.1 0 0 0 1.1 1.1h8.1a1.1 1.1 0 0 0 1.1-1.1v-.957a3.093 3.093 0 0 0-3.085-3.092zm7.431-2.954l-.64-.646a.273.273 0 0 0-.387 0l-2.409 2.39-1.047-1.054a.273.273 0 0 0-.387 0l-.646.638a.273.273 0 0 0 0 .387l1.88 1.893a.273.273 0 0 0 .387 0l3.251-3.226a.275.275 0 0 0 0-.387z" fill="#76acc7"/></g><g data-name="Group 460" transform="translate(111.412 52.596)"><rect data-name="Rectangle 214" width="28" height="30" rx="4" transform="translate(.395 .102)" fill="#8ad6fb"/><rect data-name="Rectangle 215" width="22" height="3" rx="1.5" transform="translate(3.395 19.102)" fill="#76acc7"/><rect data-name="Rectangle 216" width="22" height="2" rx="1" transform="translate(3.395 24.102)" fill="#76acc7"/></g><path data-name="Icon awesome-user-times" d="M98.458 22.031l1.049-1.049a.371.371 0 0 0 0-.525l-.525-.525a.371.371 0 0 0-.525 0l-1.048 1.049-1.05-1.049a.371.371 0 0 0-.525 0l-.525.525a.371.371 0 0 0 0 .525l1.049 1.049-1.048 1.049a.371.371 0 0 0 0 .525l.525.525a.371.371 0 0 0 .525 0l1.049-1.049 1.049 1.048a.371.371 0 0 0 .525 0l.525-.525a.371.371 0 0 0 0-.525zm-8.412.368a2.945 2.945 0 1 0-2.944-2.945 2.945 2.945 0 0 0 2.944 2.945zm2.061.736h-.383a4 4 0 0 1-3.354 0h-.385a3.093 3.093 0 0 0-3.092 3.092v.957a1.1 1.1 0 0 0 1.1 1.1h8.1a1.1 1.1 0 0 0 1.1-1.1v-.957a3.093 3.093 0 0 0-3.085-3.092zm41.951 38.16l1.049-1.049a.371.371 0 0 0 0-.525l-.525-.525a.371.371 0 0 0-.525 0l-1.048 1.049-1.05-1.049a.371.371 0 0 0-.525 0l-.525.525a.371.371 0 0 0 0 .525l1.049 1.049-1.048 1.049a.371.371 0 0 0 0 .525l.525.525a.371.371 0 0 0 .525 0l1.049-1.049 1.049 1.048a.371.371 0 0 0 .525 0l.525-.525a.371.371 0 0 0 0-.525zm-8.412.368a2.945 2.945 0 1 0-2.944-2.945 2.945 2.945 0 0 0 2.944 2.945zm2.061.736h-.383a4 4 0 0 1-3.354 0h-.385a3.093 3.093 0 0 0-3.092 3.092v.957a1.1 1.1 0 0 0 1.1 1.1h8.1a1.1 1.1 0 0 0 1.1-1.1v-.957a3.093 3.093 0 0 0-3.085-3.092z" fill="#76acc7"/></svg>