<svg xmlns="http://www.w3.org/2000/svg" width="177.557" height="148.139"><g data-name="Group 465" transform="translate(1.509)"><path data-name="Path 6116" d="M125.81 88.579c5.582-17.4 13.047-23.3 18.9-25.45s11.16-.961 18.894-5.811c2.932-1.83 7.663-4.784 9.828-10.331 3.818-9.8-3.452-19.806-4.286-20.913" fill="none" stroke="#c1c7e0" stroke-linecap="round" stroke-miterlimit="10" stroke-width="3" stroke-dasharray="12"/><path data-name="Path 6117" d="M41.668 112.513c-.044-.882-.1-1.764-.163-2.646" fill="none" stroke="#c1c7e0" stroke-linecap="round" stroke-miterlimit="10" stroke-width="3"/><path data-name="Path 6118" d="M40.985 104.851c-2.2-17.077-8.505-25.922-14.445-30.887-8.951-7.5-18.122-7.055-23.435-15.622C-1.353 51.14-.334 42.03 1.959 34.261" fill="none" stroke="#c1c7e0" stroke-linecap="round" stroke-miterlimit="10" stroke-width="3" stroke-dasharray="11.44 11.44"/><path data-name="Path 6119" d="M2.721 31.857c.287-.851.586-1.684.882-2.491" fill="none" stroke="#c1c7e0" stroke-linecap="round" stroke-miterlimit="10" stroke-width="3"/><path data-name="Path 6120" d="M56.58 104.637l2.064-1.653" fill="none" stroke="#c1c7e0" stroke-linecap="round" stroke-miterlimit="10" stroke-width="3"/><path data-name="Path 6121" d="M62.71 99.741A2983.108 2983.108 0 0 1 89.069 78.96c23.59-18.4 32.373-24.727 31.967-33.652-.141-3-1.446-8.968-11.116-16.006" fill="none" stroke="#c1c7e0" stroke-linecap="round" stroke-miterlimit="10" stroke-width="3" stroke-dasharray="11.8 11.8"/><path data-name="Path 6122" d="M107.763 27.819q-1.058-.7-2.235-1.411" fill="none" stroke="#c1c7e0" stroke-linecap="round" stroke-miterlimit="10" stroke-width="3"/><path data-name="Path 6123" d="M27.871 45.191l2.4.1a16.962 16.962 0 0 1-4.039 1.623 19.5 19.5 0 0 1-11.208-.644 19.229 19.229 0 0 1-4.436-2.1 20.036 20.036 0 0 1-7.166-8.41c5.344 3.92 7.954 5.472 9.343 6.124a17.1 17.1 0 0 1 3.576 2.2 16.79 16.79 0 0 1 1.321 1.16c1.583.26 3.245-.569 4.594-.3a23.608 23.608 0 0 0 5.615.247z" fill="#565c72"/><path data-name="Path 6124" d="M3.814 17.541A20.283 20.283 0 0 1 33.7 10.817a8.355 8.355 0 0 1 2.377 2.244c-.511.035-1.023.066-1.53.11-2.646.243-4.409 1.764-4.683 4.092a4.507 4.507 0 0 0 3.488 4.89c1.27.362 1.367 1.032 1.323 2.05-.022.683.075 1.367.119 2.05a7.1 7.1 0 0 1 6.3-4.652c1.764 6.865.785 13.122-4.154 18.479a4 4 0 0 0-3.139-1.023c-.026-.882-.071-1.764-.075-2.615-.035-5 .441-4.321-4.264-4.374-2.646-.031-5.243-.049-7.862-.075 2.324-3.148 1.671-6.737 1.512-10.252a10.961 10.961 0 0 0 2.668-2.593 3.4 3.4 0 0 0-.441-4.436 3.276 3.276 0 0 0-4.233-.56 17.244 17.244 0 0 0-1.6 1.164c-.154-.247-.278-.441-.388-.617-1.689-2.822-3.885-3.968-6.72-3.452-2.615.467-4.317 2.4-4.85 5.529-.062.357 0 .838-.194 1.058-2.284 2.416-1.005 4.9-.207 7.381-.944 1.561-.93 2.884.957 3.7.608.265.758.847 1.014 1.345a7.672 7.672 0 0 0 4.052 3.739c.639.265 1.495.379 1.2 1.437-1.116.066-2.6.11-2.862 1.217-.573 2.4-2.271 1.918-3.858 1.962a3.411 3.411 0 0 0-2.125.331C1.279 33.721.754 27.795 2.245 21.494c.181-.78.441-1.543.666-2.315z" fill="#feb546"/><path data-name="Path 6125" d="M41.091 21.603a7.107 7.107 0 0 0-6.279 4.665c-.044-.683-.141-1.367-.119-2.05.026-1.019-.071-1.689-1.323-2.05a4.507 4.507 0 0 1-3.488-4.89c.269-2.315 2.024-3.849 4.683-4.092.507-.044 1.019-.075 1.53-.11a3.527 3.527 0 0 0 .644.088c2.288-.053 4.409.313 5.529 2.646 1.068 2.177.12 4.029-1.177 5.793zm-1.278-3.316v-.441h-7.06v.441zm-.071 1.4v-.251H32.89v.251zm-6.889-3.433l.093.22h6.607v-.22z" fill="#fcfcf7"/><path data-name="Path 6126" d="M14.449 44.888l-3.086-2.337c-.758-.78-1.274-1.649-.714-2.747a2.324 2.324 0 0 1 2.443-1.107 14.957 14.957 0 0 0 1.534-.11c1.195.035 2 1.027 3.086 1.288a6.658 6.658 0 0 1 0 2.69.758.758 0 0 0-.22 1z" fill="#f6ae9f"/><path data-name="Path 6127" d="M34.613 42.211c-.97 1.7-2.646 2.381-4.352 3.086l-2.4-.1-1.03-1.709c.732-.216 1.689.291 1.98-1.094.6-2.844 1.459-3.258 4.5-2.619a6.944 6.944 0 0 1 1.305 2.434z" fill="#f6ae9f"/><path data-name="Path 6128" d="M14.622 38.587a14.959 14.959 0 0 1-1.534.11c-1 0-1.936.106-2.443 1.107-.56 1.1-.044 1.967.714 2.747-3.166.785-4.542-1.323-5.833-3.6a3.411 3.411 0 0 1 2.125-.331c1.587-.044 3.285.441 3.858-1.962.265-1.107 1.764-1.151 2.862-1.217.115.675.225 1.354.34 2.033z" fill="#aa5b13"/><path data-name="Path 6129" d="M34.614 42.216a6.944 6.944 0 0 0-1.323-2.443l.476-.728a4 4 0 0 1 3.139 1.023 3.721 3.721 0 0 1-2.292 2.148z" fill="#337fc3"/><path data-name="Path 6130" d="M17.665 45.223l-3.25-.176.035-.159 3.047-1.323h.212z" fill="#c9ccd3"/><path data-name="Path 6131" d="M7.148 25.218c-.8-2.482-2.077-4.965.181-7.394.207-.22.132-.7.194-1.058.547-3.131 2.249-5.062 4.85-5.529 2.84-.5 5.044.631 6.733 3.452.11.19.234.37.388.617a17.244 17.244 0 0 1 1.6-1.164 3.276 3.276 0 0 1 4.233.56 3.372 3.372 0 0 1 .441 4.436 10.961 10.961 0 0 1-2.668 2.593c-5.035 2.557-9.493 1.442-13.439-2.359a6.676 6.676 0 0 0-1.323 4.079c-.018.898-.218 1.564-1.19 1.767z" fill="#aa5b13"/><path data-name="Path 6132" d="M7.148 25.217c.974-.2 1.168-.882 1.2-1.764a6.676 6.676 0 0 1 1.323-4.079c3.968 3.8 8.4 4.916 13.439 2.359.159 3.527.811 7.1-1.512 10.252-3.02.2-3.02.2-3.3 3.792-.86 1.023-.15 2.315-.582 3.413-.26-1.883-1.517-2.006-3.012-1.715-.115-.679-.225-1.358-.34-2.033.3-1.058-.56-1.173-1.2-1.437a7.685 7.685 0 0 1-4.046-3.739c-.256-.5-.406-1.08-1.014-1.345-1.886-.82-1.9-2.143-.956-3.704zm10.71 4.123c-.776.26-2.05-.441-2.258.608-.163.829.882 1.464 1.808 1.512a1.917 1.917 0 0 0 2.134-1.482c.076-1.127-1.133-.329-1.684-.638zm4.409-2.415a.882.882 0 0 0-.816-1.08.902.902 0 0 0-.375 1.764.935.935 0 0 0 1.155-.683zm-7.5-.273a.957.957 0 0 0-.974-.807.855.855 0 0 0-.926.745.833.833 0 0 0 .82 1.036c.569.057.908-.251 1.045-.974z" fill="#f6ae9f"/><path data-name="Path 6133" d="M18.299 35.774c.278-3.594.278-3.594 3.294-3.792 2.619.026 5.238.044 7.862.075 4.718.053 4.233-.626 4.277 4.374 0 .882.049 1.764.075 2.615l-.476.728c-3.038-.639-3.9-.225-4.5 2.619-.291 1.385-1.248.882-1.98 1.093a65.816 65.816 0 0 0-9.136.062h-.21a.758.758 0 0 1 .22-1c.622.088 1.058-.207 1.045-.8-.035-1.984.534-4.043-.471-5.974z" fill="#565c72"/><path data-name="Path 6134" d="M39.812 18.273h-7.055v-.441h7.055a6.483 6.483 0 0 0 0 .441z" fill="#888b9d"/><path data-name="Path 6135" d="M39.742 19.675h-6.848v-.251h6.839z" fill="#565c72"/><path data-name="Path 6136" d="M32.85 16.254h6.667v.22h-6.614z" fill="#565c72"/><path data-name="Path 6137" d="M14.71 37.475c1.495-.291 2.751-.168 3.012 1.715v.683c-1.1-.26-1.9-1.252-3.086-1.288.009-.369.043-.739.074-1.11z" fill="#e8e8e8"/><path data-name="Path 6138" d="M17.722 39.874v-.683c.441-1.1-.278-2.39.582-3.413 1 1.927.441 3.968.441 5.988 0 .591-.441.882-1.045.8a6.288 6.288 0 0 0 .022-2.692z" fill="#693411"/><path data-name="Path 6139" d="M17.708 43.547a65.813 65.813 0 0 1 9.136-.062l1.027 1.706a23.606 23.606 0 0 1-5.6-.273c-1.349-.265-3.012.564-4.594.3.005-.556.016-1.129.031-1.671z" fill="#aa5b13"/><path data-name="Path 6140" d="M17.858 29.34c.564.309 1.764-.489 1.684.639a1.917 1.917 0 0 1-2.134 1.482c-.93-.049-1.971-.683-1.808-1.512.194-1.037 1.469-.349 2.258-.609z" fill="#fcfcf7"/><path data-name="Path 6141" d="M22.233 26.923a.935.935 0 0 1-1.191.688.902.902 0 0 1 .375-1.764.882.882 0 0 1 .816 1.076z" fill="#693411"/><path data-name="Path 6142" d="M14.737 26.655c-.137.723-.476 1.032-1.08.974a.833.833 0 0 1-.82-1.036.855.855 0 0 1 .926-.745.957.957 0 0 1 .974.807z" fill="#693411"/><path data-name="Path 6143" d="M140.034 10.229c6.645-3.915 13.453-4.678 20.485-1.045 2.452 3.267 2.452 7.227 3.117 11a14.139 14.139 0 0 0 .542 4.1c.084 1.089.11 2.183.26 3.263a12.314 12.314 0 0 1-5.382 12.482c-.67-1.213-.758-2.915-2.646-3.086l-.811-.269c.317-1.208-.935-2.615.882-3.677 5.41-3.166 7.13-7.293 6.107-13.532-.212-1.288-.631-1.517-1.852-1.323-3.62.591-7.271.97-10.882 1.574-2.24.379-4.409.952-5.318-2.152-1.724 2.452-1.706 2.5-4.326 3.448-.926.335-.7.961-.666 1.6a11.643 11.643 0 0 0 9.087 11.292 2.279 2.279 0 0 1 2.028 2.562c-.732 0-1.464.035-2.2.031-3.47-.026-3.47-.031-3.629 3.307a11.971 11.971 0 0 1-5.225-8.911c-.52-3.9-1.014-7.8-1.521-11.7 4.243-2.406 4.874-5.316 1.95-8.964z" fill="#693411"/><path data-name="Path 6144" d="M159.056 40.028a12.314 12.314 0 0 0 5.384-12.491c-.15-1.08-.176-2.174-.256-3.263 2.019-1.764 1.878-2.844-.547-4.1-.666-3.77-.666-7.729-3.117-11 6.7 2.857 11.8 11.618 11.023 18.96-.066.657-.154 1.323-.234 1.962l-.375 1.975c-1.608 5.739-4.788 10.25-10.308 12.86q-.79-2.46-1.57-4.903z" fill="#0e97cd"/><path data-name="Path 6145" d="M138.095 19.194c.507 3.9 1 7.8 1.521 11.7a11.972 11.972 0 0 0 5.225 8.911v1.005c-1.288.185-2.2.825-2.081 2.2s1.107 1.883 2.407 1.87c.022.441.04.882.062 1.323-6.671-1.861-10.864-6.345-13.1-12.716a20.212 20.212 0 0 1 .441-14.167c1.005-.322 1.239.441 1.565 1.1.6 1.182 1.19 2.372 1.786 3.554a6.928 6.928 0 0 0 .41-3.086c-.094-1.358.432-1.932 1.764-1.694z" fill="#0e97cd"/><path data-name="Path 6146" d="M138.095 19.194c-1.323-.22-1.856.335-1.742 1.676a6.928 6.928 0 0 1-.41 3.086c-.6-1.182-1.186-2.372-1.786-3.554-.326-.635-.56-1.42-1.565-1.1-3.307-.675-5.066-2.394-5.163-5.044-.075-2.2 1.4-4.555 3.646-4.894 2.994-.441 6.116-.939 8.96.838 2.923 3.675 2.297 6.585-1.94 8.992zm-7.588-6.773v.476h8.078v-.476zm8.078 2.231v-.4h-8.1l.031.4zm-8.078 1.217v.477h8.06v-.472z" fill="#fcfcf7"/><path data-name="Path 6147" d="M144.845 40.809v-1.005c.159-3.338.159-3.333 3.629-3.307.732 0 1.464 0 2.2-.031 1.5.2 3.329-.088 3.369 2.275 0 .7.031 1.407.048 2.108-1.1.331-2.306.56-2.452 2.011a1.894 1.894 0 0 0 1.473 2.081h-.057l1.124.066c.145.675.287 1.323.441 2.019a14.749 14.749 0 0 1-9.361-.816c0-.441-.04-.882-.062-1.323 2.161-1.631 2.069-2.812-.352-4.078z" fill="#565c72"/><path data-name="Path 6148" d="M153.104 44.941a1.894 1.894 0 0 1-1.473-2.081c.145-1.451 1.354-1.68 2.452-2.011a10.619 10.619 0 0 0 .776.767c.547.441 1.063 1.323 1.839.833.847-.538.11-1.358-.15-1.94a3.788 3.788 0 0 1-.132-3.572c1.883.176 1.971 1.878 2.646 3.086q.785 2.438 1.583 4.881a3.6 3.6 0 0 1-2.086.882 10.294 10.294 0 0 0-4.383-.8l-1.124-.066z" fill="#f6ae9f"/><path data-name="Path 6149" d="M154.171 45.007a10.294 10.294 0 0 1 4.383.8 8.44 8.44 0 0 1-3.968 1.221 65.236 65.236 0 0 0-.415-2.021z" fill="#ef6626"/><path data-name="Path 6150" d="M154.034 38.741c-.04-2.363-1.87-2.072-3.369-2.275a2.282 2.282 0 0 0-2.028-2.562 11.642 11.642 0 0 1-9.087-11.292c-.031-.635-.26-1.261.666-1.6 2.619-.952 2.6-1 4.326-3.448.9 3.086 3.086 2.531 5.318 2.152 3.611-.6 7.262-.983 10.882-1.574 1.221-.2 1.64.026 1.852 1.323 1.023 6.239-.7 10.366-6.107 13.532-1.817 1.063-.564 2.469-.882 3.677a3.249 3.249 0 0 1-1.571 2.067zm-1.878-12.346c-2.24.317-4.484.631-6.724.952-1.217.176-1.482.8-.82 1.808a4.451 4.451 0 0 0 4.408 2.263 4.678 4.678 0 0 0 4.33-3.474c.362-1.12.093-1.746-1.195-1.565zm.961-2.46c-.128-.551-.159-1.195-.961-1.213-.569 0-.758.375-.758.851 0 .6.075 1.252.811 1.349.639.071.869-.414.908-1zm-7.831.9c-.079-.384-.185-1.032-.944-1.023-.648 0-.789.525-.767 1.1s.185 1.045.816 1.1.895-.371.895-1.182z" fill="#f6ae9f"/><path data-name="Path 6151" d="M154.034 38.741a3.267 3.267 0 0 0 1.565-2.072l.816.269a3.788 3.788 0 0 0 .132 3.572c.26.582 1 1.4.15 1.94-.776.5-1.292-.392-1.839-.833a10.619 10.619 0 0 1-.754-.767c-.039-.702-.052-1.408-.07-2.109z" fill="#e8e8e8"/><path data-name="Path 6152" d="M163.637 20.178c2.425 1.252 2.566 2.333.547 4.1a13.994 13.994 0 0 1-.547-4.1z" fill="#f6ae9f"/><path data-name="Path 6153" d="M144.845 40.809c2.412 1.265 2.5 2.452.326 4.083-1.3 0-2.3-.481-2.407-1.87s.802-2.019 2.081-2.213z" fill="#f6ae9f"/><path data-name="Path 6154" d="M130.506 12.422h8.069v.476h-8.056z" fill="#888b9d"/><path data-name="Path 6155" d="M138.584 14.653h-8.073l-.031-.4h8.091z" fill="#888b9d"/><path data-name="Path 6156" d="M130.506 15.87h8.073v.472h-8.053z" fill="#888b9d"/><path data-name="Path 6158" d="M152.155 26.381c1.288-.181 1.556.441 1.217 1.552a4.689 4.689 0 0 1-4.33 3.474 4.414 4.414 0 0 1-4.409-2.266c-.661-1.01-.4-1.631.82-1.808 2.218-.321 4.463-.634 6.702-.952z" fill="#fcfcf7"/><path data-name="Path 6159" d="M153.117 23.921c-.04.586-.269 1.071-.908.988-.736-.1-.807-.75-.811-1.349 0-.476.19-.882.758-.851.802.018.833.657.961 1.212z" fill="#693411"/><path data-name="Path 6160" d="M145.286 24.83c0 .811-.247 1.23-.882 1.173s-.8-.534-.816-1.1.11-1.1.758-1.1c.759.004.865.643.94 1.027z" fill="#693411"/><path data-name="Path 6161" d="M63.715 25.915c-.1-3.17-.4-6.363.957-9.387L66.81 20.1v-4.075c0-.591.035-.983.833-1.243 4.766-1.556 5.794-4.511 3.126-8.686 3.272-2.381 6.614-4.55 10.67-5.49a22.981 22.981 0 0 1 28.219 22.293c.062 8.5-3.607 14.921-10.45 19.705a7.015 7.015 0 0 1-2.756 1.323c.441-1.376.675-2.919 1.843-3.871 2.694-2.2 2.967-2.54 3.21-5.41a.516.516 0 0 1 .1-.194c.313-.551.838-1.6 0-1.526-1.049.088-1.728-2.086-2.848-.388-.128.194-.15.551-.586.441-1.706-.335-1.711-.322-2.033 1.459a2.967 2.967 0 0 0-2-1.054c1.089-.988 1.4-2.915 3.122-3.06 1.393-.115 2.474-.441 2.967-1.764.538-1.442-.15-2.54-1.288-3.417V14.164c0-1.495-.56-2.835-1.967-3.047-1.658-.247-1.526-1.173-1.5-2.271a14.646 14.646 0 0 0 0-1.764 4.7 4.7 0 0 0-3.527-4.3 4.356 4.356 0 0 0-4.923 1.511 1.9 1.9 0 0 1-2.31.833 6.389 6.389 0 0 0-8.122 6.208c-.093 2.778.022 5.564.049 8.347-.582 1.6-.93 3.2-2.646 4.277a2.053 2.053 0 0 0 .053 3.527c1.971.922 2.509 2.694 3.624 4.14a8.825 8.825 0 0 0 4.409 3.457c2 .542 2.54 1.693 2.2 3.527l-1.12.534c0-1.279-.238-2.271-1.922-2.236-4.22.093-8.439.071-12.663.1-2.787-2.438-3.721-5.776-4.48-9.207-.097-.62-.229-1.25-.379-1.885z" fill="#3a6eea"/><path data-name="Path 6162" d="M70.769 6.095c2.646 4.176 1.627 7.143-3.126 8.686-.8.26-.829.653-.833 1.243v4.074l-2.139-3.572c-.185-1.155-.728-1.649-2.024-1.764a4.841 4.841 0 0 1-4.7-5.291 4.93 4.93 0 0 1 5.251-4.762c2.602.036 5.323-.51 7.571 1.386zm-9.811 3.66v.7a61.37 61.37 0 0 0 8-.15v-.547zm8 2.266v-.41h-8.02l.026.41zm0-3.488v-.472h-7.995v.472z" fill="#fcfcf7"/><path data-name="Path 6163" d="M68.613 37.035c4.224-.026 8.444 0 12.663-.1 1.684-.035 1.9.957 1.922 2.236a33.952 33.952 0 0 0 0 6.892 23.742 23.742 0 0 1-12.478-6.054 5.24 5.24 0 0 1-2.107-2.974z" fill="#565c72"/><path data-name="Path 6164" d="M94.139 33.383a2.967 2.967 0 0 1 2.024 1.076c.322-1.764.326-1.795 2.033-1.459.441.088.441-.269.586-.441 1.12-1.7 1.8.476 2.848.388.833-.071.309.974 0 1.526a.516.516 0 0 0-.1.194c-.243 2.87-.516 3.214-3.21 5.41-1.168.952-1.4 2.5-1.843 3.871a15.277 15.277 0 0 1-6.614 2.068l-1.464-2.646c-1.323-2.328-.794-3.219 1.909-3.333.939 1.014 1.257 2.469 2.328 3.333 2.39-3.086 2.4-6.482 1.579-10.018z" fill="#f6ae9f"/><path data-name="Path 6165" d="M90.298 40.024c-2.7.115-3.214 1.005-1.909 3.333l1.464 2.646a25.742 25.742 0 0 1-6.64.053 33.95 33.95 0 0 1 0-6.892l1.12-.534h4.409c.644.332 1.34.609 1.556 1.394z" fill="#eda03a"/><path data-name="Path 6166" d="M88.742 38.644h-4.409c.348-1.847-.194-3-2.2-3.527a8.643 8.643 0 0 1-4.409-3.457c-1.116-1.446-1.653-3.219-3.624-4.14a2.046 2.046 0 0 1-.053-3.527c1.711-1.08 2.059-2.676 2.646-4.277 2.928-4.5 7.028-6.724 12.346-5.569 5.115 1.107 8.007 4.6 8.7 9.8a1.27 1.27 0 0 0 1.248 1.226c1.138.882 1.825 1.975 1.288 3.417-.494 1.323-1.574 1.667-2.967 1.764-1.724.146-2.033 2.072-3.122 3.06l.057-.044a13.055 13.055 0 0 1-3.219 1.8c-2.093.453-2.547 1.657-2.282 3.474zm3.968-17.4c-2.2-1.323-3.818-1.032-5.256.974a2.152 2.152 0 0 1-3.766.04 3.533 3.533 0 0 0-4.348-1.627 3.25 3.25 0 0 0-2.341 3.558 3.532 3.532 0 0 0 6.817 1.063 1.675 1.675 0 0 1 1.795-1.2c.979 0 1.323.52 1.711 1.323 1.014 2.081 2.588 2.535 4.912 1.618 2.377-1.746 2.535-3.62.454-5.75zm-5.882 8.677a28.729 28.729 0 0 1-5.441-1.252c1.49 1.751 3.492 1.527 5.441 1.244z" fill="#f6ae9f"/><path data-name="Path 6167" d="M98.949 25.129a1.27 1.27 0 0 1-1.248-1.226c-.688-5.207-3.563-8.7-8.7-9.8-5.318-1.155-9.418 1.071-12.346 5.569-.026-2.782-.141-5.569-.048-8.347a6.383 6.383 0 0 1 8.122-6.208 1.921 1.921 0 0 0 2.31-.833 4.356 4.356 0 0 1 4.93-1.507 4.7 4.7 0 0 1 3.527 4.3 14.633 14.633 0 0 1 0 1.764c-.026 1.1-.159 2.024 1.5 2.271 1.407.212 1.98 1.552 1.967 3.047-.031 3.647-.014 7.306-.014 10.97z" fill="#aa5b13"/><path data-name="Path 6168" d="M60.972 9.754h7.99v.547a62.9 62.9 0 0 1-8 .15z" fill="#888b9d"/><path data-name="Path 6169" d="M68.971 12.021h-8.007l-.026-.41h8.016z" fill="#888b9d"/><path data-name="Path 6170" d="M68.971 8.533h-8.012v-.472h7.994z" fill="#888b9d"/><path data-name="Path 6171" d="M88.741 38.64c-.265-1.812.19-3.016 2.244-3.5a13.055 13.055 0 0 0 3.219-1.8c.825 3.527.811 6.945-1.579 10.018-1.071-.882-1.389-2.319-2.328-3.333-.215-.785-.912-1.063-1.556-1.385z" fill="#3a6eea"/><path data-name="Path 6172" d="M92.216 26.995c-2.328.917-3.9.463-4.916-1.618-.4-.811-.732-1.323-1.711-1.323a1.676 1.676 0 0 0-1.795 1.2 3.269 3.269 0 0 1-4.034 2.174 3.32 3.32 0 0 1-2.782-3.236 3.25 3.25 0 0 1 2.341-3.558 3.535 3.535 0 0 1 4.348 1.627 2.152 2.152 0 0 0 3.766-.04c1.437-2.006 3.038-2.3 5.256-.974l-.344.326c-1.186-.494-2.394-.838-3.527.106a2.681 2.681 0 0 0-.961 3.307c.794 1.87 2.3 2.019 4.017 1.653zm-8.863-2.8a2.853 2.853 0 0 0-2.928-3.086 2.852 2.852 0 1 0 .168 5.7 2.72 2.72 0 0 0 2.76-2.619z" fill="#aa5b13"/><path data-name="Path 6173" d="M86.828 29.913c-1.971.282-3.968.525-5.441-1.252a28.73 28.73 0 0 0 5.441 1.252z" fill="#aa5b13"/><path data-name="Path 6174" d="M92.69 21.236c2.081 2.116 1.922 4-.476 5.759l-.322-.366c1.918-1.962 1.993-2.778.441-5.066z" fill="#aa5b13"/><path data-name="Path 6175" d="M92.344 21.563c1.539 2.288 1.464 3.086-.441 5.066-1.715.366-3.223.216-4.017-1.653a2.676 2.676 0 0 1 .961-3.307c1.102-.948 2.311-.6 3.497-.106z" fill="#e8e8e8"/><path data-name="Path 6176" d="M83.354 24.191a2.694 2.694 0 0 1-2.76 2.6 2.852 2.852 0 0 1-.168-5.7 2.875 2.875 0 0 1 2.928 3.1z" fill="#e8e8e8"/><rect data-name="Rectangle 217" width="108.534" height="81.439" rx="12.07" transform="translate(29.384 56.003)" fill="#00486e"/><rect data-name="Rectangle 218" width="104.098" height="65.636" rx="5.17" transform="translate(31.576 61.629)" fill="#b3e3ef"/><path data-name="Path 6178" d="M65.077 137.438c1.367-.556 2.756-.044 4.127-.044 10.988-.026 21.98.022 32.968.048l.04 6.446c-4.039.04-8.073.119-12.112.11-8.378 0-16.755-.079-25.1-.123z" fill="#01293e"/><path data-name="Path 6179" d="M64.998 143.876c8.378.044 16.755.106 25.1.123 4.039 0 8.073-.071 12.112-.11l6.53.1c3.086.057 3.774 1.133 2.438 3.929-.948.079-1.9.225-2.84.225H58.847c-.948 0-1.9-.145-2.844-.225-1.221-2.848-.564-3.885 2.5-3.937z" fill="#01293e"/><path data-name="Path 6186" d="M83.707 129.506a2.424 2.424 0 0 1 2.474 2.474 2.463 2.463 0 0 1-2.553 2.681 2.355 2.355 0 0 1-2.553-2.438c-.063-1.65 1.004-2.475 2.632-2.717z" fill="#eda03a"/><path data-name="Path 6187" d="M116.242 81.078v27.1c0 3.669-1.371 5.018-5.075 5.018h-55.09c-4.189 0-5.538-1.354-5.542-5.52V81.021zm-22.717 4.317c-5.141 0-10.282.044-15.432-.026-1.812-.022-2.474.692-2.456 2.482.062 5.873.075 11.751 0 17.637-.026 1.8.56 2.447 2.4 2.434q15.093-.1 30.186 0c1.958 0 2.778-.591 2.747-2.646q-.146-8.6 0-17.2c.031-1.989-.648-2.76-2.676-2.721-4.923.106-9.844.036-14.769.04zm-31.05 18.519a3.169 3.169 0 1 0 0 .018z" fill="#fcfcf7"/><path data-name="Path 6188" d="M116.242 81.076l-65.7-.057c.2-3.893 1.574-5.238 5.459-5.238h38.894c.948 0 1.9-.088 2.844-.137h1.728l11.579.145c3.873.047 5.268 1.444 5.196 5.287z" fill="#565c72"/><path data-name="Path 6189" d="M93.53 85.391c4.921 0 9.841.066 14.762-.031 2.028-.04 2.707.732 2.676 2.721q-.126 8.6 0 17.2c.031 2.059-.789 2.646-2.747 2.646q-15.093-.1-30.186 0c-1.839 0-2.425-.631-2.4-2.434.084-5.878.071-11.755 0-17.637 0-1.79.644-2.5 2.456-2.482 5.156.066 10.315.021 15.439.017zm-15.115 18.321v.441h28.916v-.441zm28.916-3.968l-.026-.414h-28.89v.414zm0 3.086l-.026-.41h-28.89v.41zm-4.815-15.19v.035h-4.85c-.441 0-.935.154-.957.706a.741.741 0 0 0 .9.736c3.148-.375 6.31-.057 9.458-.216.441 0 .974-.11.882-.7s-.617-.564-1.049-.569c-1.439-.005-2.907.008-4.384.008zm-16.235 1.3v.084h4.409c.441 0 .966.044 1.063-.5.132-.719-.441-.882-.974-.882h-9.481c-.441 0-.97.093-.908.679s.613.573 1.041.582c1.618.049 3.232.04 4.85.04zm16.05 7.5h4.621c.441 0 .974-.035 1.032-.591s-.476-.679-.913-.679q-4.727-.026-9.453 0c-.441 0-.97.1-.926.675s.591.591 1.023.6c1.543 0 3.082-.013 4.621-.013zm.035-3.527h4.621c.441 0 .983-.057 1.01-.613s-.516-.648-.952-.653h-9.462c-.441 0-.966.106-.882.7s.622.56 1.049.564c1.539-.013 3.078-.026 4.621-.026zm0-1.795h4.85c.388 0 .776-.19.785-.609s-.379-.622-.763-.622q-4.85-.026-9.674 0c-.441 0-.944.106-.882.714.053.441.485.529.851.534 1.627-.031 3.241-.044 4.855-.044zm.247 2.284h-5.066c-.441 0-.944.1-.882.71.049.441.481.529.847.534q4.727.026 9.467 0c.441 0 .988-.066 1-.626s-.529-.639-.97-.644a235.764 235.764 0 0 0-4.37 0zm-16.632 3.056h4.617c.441 0 .974 0 1.049-.564s-.441-.7-.882-.705q-4.727 0-9.462.035c-.441 0-.93.172-.833.767.075.441.529.441.882.441h4.647zm.026-6.614h-4.409c-.472 0-1.168-.1-1.133.657.026.507.6.617 1.036.622q4.625.026 9.259 0c.441 0 .97-.1.913-.683s-.6-.582-1.032-.586c-1.53-.053-3.073-.04-4.612-.04zm.048 3.047h4.625c.441 0 .992-.075 1-.626s-.542-.635-.983-.639q-4.63-.026-9.259 0c-.441 0-1.005 0-1.005.591s.542.666.992.67c1.565-.009 3.109-.026 4.652-.026zm.071.5h-4.409c-.476 0-1.195-.15-1.252.542s.63.732 1.124.736c3.016.026 6.027 0 9.039 0 .441 0 1.005-.031 1.032-.582.031-.732-.639-.688-1.129-.7-1.446-.053-2.915-.031-4.383-.031zm-7.381 7.557l-.088.238h28.4v-.238zm-.141 4.436v.234h28.488v-.234z" fill="#e8e8e8"/><path data-name="Path 6190" d="M62.481 103.932a7.676 7.676 0 1 1 5.445-2.236 7.663 7.663 0 0 1-5.445 2.236zm5.331-7.54a5.366 5.366 0 1 0-5.43 5.3 5.366 5.366 0 0 0 5.429-5.296z" fill="#b3e3ef"/><ellipse data-name="Ellipse 37" cx="20.446" cy=".304" rx="20.446" ry=".304" transform="translate(72.427 103.623)" fill="#c9ccd3"/><path data-name="Path 6191" d="M107.332 99.743H78.42v-.414h28.89z" fill="#c9ccd3"/><path data-name="Path 6192" d="M107.327 102.812H78.42v-.41h28.885z" fill="#c9ccd3"/><path data-name="Path 6193" d="M102.516 87.64h4.409c.441 0 .983.022 1.049.569s-.441.675-.882.7c-3.148.159-6.31-.159-9.458.216a.741.741 0 0 1-.9-.736c.022-.551.525-.7.957-.705 1.614-.035 3.232 0 4.85 0z" fill="#c9ccd3"/><path data-name="Path 6194" d="M86.286 88.936h-4.85c-.441 0-.979-.026-1.041-.582s.476-.679.908-.679q4.736-.035 9.476 0c.529 0 1.107.146.974.882-.1.547-.6.507-1.063.5h-4.409z" fill="#c9ccd3"/><path data-name="Path 6195" d="M102.335 96.419h-4.616c-.441 0-.979-.04-1.023-.6s.489-.675.926-.675h9.453c.441 0 .97.1.913.679s-.6.582-1.032.591c-1.539.018-3.078.005-4.621.005z" fill="#c9ccd3"/><path data-name="Path 6196" d="M102.371 92.878H97.75c-.441 0-.979 0-1.049-.564s.441-.7.882-.7q4.731-.026 9.462 0c.441 0 .979.084.952.653s-.573.608-1.01.613h-4.621z" fill="#c9ccd3"/><path data-name="Path 6197" d="M102.389 91.085h-4.85c-.366 0-.8-.088-.851-.534-.075-.608.441-.71.882-.714h9.674c.384 0 .772.2.763.622s-.4.6-.785.608h-4.85z" fill="#c9ccd3"/><path data-name="Path 6198" d="M102.635 93.363h4.409c.441 0 .983.084.97.644s-.56.622-1 .626h-9.467c-.366 0-.8-.088-.847-.534-.071-.613.441-.7.882-.71 1.676-.04 3.364-.022 5.053-.026z" fill="#c9ccd3"/><path data-name="Path 6199" d="M86.004 96.423h-4.625c-.353 0-.807 0-.882-.441-.1-.6.41-.763.833-.767q4.731-.053 9.462-.035c.441 0 .966.106.882.705s-.622.56-1.049.564c-1.539-.013-3.1-.026-4.621-.026z" fill="#c9ccd3"/><path data-name="Path 6200" d="M86.03 89.804h4.625c.441 0 .979.035 1.032.586s-.476.679-.913.683h-9.259c-.441 0-1.01-.115-1.036-.622-.035-.754.661-.648 1.133-.657 1.468-.031 2.941 0 4.409 0z" fill="#c9ccd3"/><path data-name="Path 6201" d="M86.081 92.851h-4.625c-.441 0-.988-.146-.992-.67s.573-.586 1.005-.591h9.259c.441 0 .988.084.983.639s-.556.622-1 .626h-4.63z" fill="#c9ccd3"/><path data-name="Path 6202" d="M86.146 93.35c1.468 0 2.937-.022 4.409 0 .489 0 1.16-.035 1.129.7-.026.551-.6.582-1.032.582h-9.036c-.494 0-1.182-.062-1.124-.736s.776-.534 1.252-.542c1.468-.026 2.937 0 4.409 0z" fill="#c9ccd3"/><path data-name="Path 6203" d="M78.768 100.907h28.307v.238h-28.4z" fill="#c9ccd3"/><ellipse data-name="Ellipse 38" cx="20.142" cy=".168" rx="20.142" ry=".168" transform="translate(72.732 105.29)" fill="#c9ccd3"/><path data-name="Path 6204" d="M67.811 96.392a5.366 5.366 0 1 1-5.3-5.43 5.366 5.366 0 0 1 5.3 5.43zm-6.46-2.945c-.441 0-.78.137-.785.591-.022 1.764-.745 3.968.282 5.106.82.917 2.355-1.054 3.646-1.587a3.849 3.849 0 0 0 .882-.613c.348-.282.388-.7.04-.93-1.318-.887-2.698-1.72-4.065-2.567z" fill="#fcfcf7"/><path data-name="Path 6205" d="M61.351 93.447c1.367.847 2.747 1.68 4.087 2.566.348.229.309.648-.04.93a3.849 3.849 0 0 1-.882.613c-1.292.534-2.826 2.5-3.646 1.587-1.027-1.138-.3-3.355-.282-5.106-.017-.453.309-.564.763-.59z" fill="#feb546"/></g></svg>