<svg xmlns="http://www.w3.org/2000/svg" width="158.246" height="149.067"><g data-name="Group 466"><g data-name="Layer 2"><g data-name="Layer 1"><path data-name="Path 6072" d="M128.941 78.372H22.539a6.944 6.944 0 0 1-7.041-6.847V6.788A6.956 6.956 0 0 1 22.539.001h106.4a6.956 6.956 0 0 1 7.053 6.848v64.676a6.944 6.944 0 0 1-7.053 6.847z" fill="#00486e"/><path data-name="Path 6073" d="M120.646 73.484H27.419a6.194 6.194 0 0 1-6.376-5.989V10.889a6.194 6.194 0 0 1 6.376-6.05h93.228a6.194 6.194 0 0 1 6.364 6.049v56.607a6.194 6.194 0 0 1-6.365 5.989z" fill="#61b3db"/><path data-name="Path 6074" d="M132.679 46.143a1.21 1.21 0 0 1-1.319 1.21 1.21 1.21 0 0 1-1.319-1.21V32.411a1.21 1.21 0 0 1 1.319-1.21 1.21 1.21 0 0 1 1.319 1.21z" fill="#2d80aa"/><path data-name="Path 6082" d="M46.432 108.097a23.216 23.216 0 1 1-23.2-23.216 23.216 23.216 0 0 1 23.2 23.216z" fill="#ceebf2"/><path data-name="Path 6083" d="M38.617 108.097a15.4 15.4 0 1 1-15.389-15.4 15.4 15.4 0 0 1 15.389 15.4z" fill="#f8deb6"/><path data-name="Path 6084" d="M36.778 108.095a13.562 13.562 0 1 1-13.55-13.56 13.562 13.562 0 0 1 13.55 13.56z" fill="#fff"/><path data-name="Path 6085" d="M34.032 108.097a10.8 10.8 0 1 1-10.8-10.8 10.8 10.8 0 0 1 10.8 10.8z" fill="#833125"/><path data-name="Path 6086" d="M34.734 100.004a2.311 2.311 0 0 1-3.254 0 2.311 2.311 0 0 1-.012-3.218l2.274-2.274a2.311 2.311 0 0 1 3.254 0 2.311 2.311 0 0 1 0 3.254z" fill="#fff"/><path data-name="Rectangle 188" fill="#833125" d="M56.159 90.095h41.037v39.343H56.159z"/><path data-name="Rectangle 189" fill="#833125" d="M97.184 90.095h41.037v39.343H97.184z"/><path data-name="Path 6087" d="M98.72 128.652a1.524 1.524 0 0 1-1.536 1.512 1.524 1.524 0 0 1-1.536-1.512V90.966a1.524 1.524 0 0 1 1.536-1.512 1.524 1.524 0 0 1 1.536 1.512z" fill="#833125"/><path data-name="Rectangle 190" fill="#f2d18f" d="M57.417 89.103h39.766v39.161H57.417z"/><path data-name="Rectangle 191" fill="#e8c079" d="M97.184 89.103h39.766v39.161H97.184z"/><path data-name="Rectangle 192" fill="#b7dfea" d="M57.417 89.103h39.766v39.161H57.417z"/><path data-name="Rectangle 193" fill="#a2ccda" d="M97.184 89.103h39.766v39.161H97.184z"/><g data-name="Group 449"><path data-name="Path 6088" d="M94.8 93.555a.593.593 0 0 1-.593.6h-32.5a.6.6 0 0 1-.6-.6.617.617 0 0 1 .6-.6h32.549a.6.6 0 0 1 .593.6z" fill="#fff" opacity=".52"/></g><g data-name="Group 450"><path data-name="Path 6089" d="M134.458 93.555a.6.6 0 0 1-.6.6h-32.549a.593.593 0 0 1-.593-.6.6.6 0 0 1 .593-.6h32.544a.617.617 0 0 1 .6.6z" fill="#fff" opacity=".52"/></g><g data-name="Group 451"><path data-name="Path 6090" d="M134.458 97.414a.617.617 0 0 1-.6.6h-32.549a.6.6 0 0 1-.593-.6.593.593 0 0 1 .593-.6h32.544a.6.6 0 0 1 .6.6z" fill="#fff" opacity=".52"/></g><g data-name="Group 452"><path data-name="Path 6091" d="M111.737 103.192c0 .327-.085.6-.194.6H100.91c-.109 0-.194-.278-.194-.6 0-.339.085-.6.194-.6h10.634c.109 0 .194.266.194.6z" fill="#fff" opacity=".52"/></g><g data-name="Group 453"><path data-name="Path 6092" d="M94.8 96.688a.593.593 0 0 1-.593.6h-32.5a.6.6 0 0 1-.6-.6.617.617 0 0 1 .6-.6h32.549a.6.6 0 0 1 .593.6z" fill="#fff" opacity=".52"/></g><g data-name="Group 454"><path data-name="Path 6093" d="M94.8 102.629a.593.593 0 0 1-.593.6h-32.5a.6.6 0 0 1-.6-.6.6.6 0 0 1 .6-.593h32.549a.593.593 0 0 1 .593.593z" fill="#fff" opacity=".52"/></g><g data-name="Group 455"><path data-name="Path 6094" d="M94.8 116.856a.6.6 0 0 1-.593.6h-32.5a.617.617 0 0 1-.6-.6.6.6 0 0 1 .6-.6h32.549a.593.593 0 0 1 .593.6z" fill="#fff" opacity=".52"/></g><g data-name="Group 456"><path data-name="Path 6095" d="M94.8 119.505a.6.6 0 0 1-.593.6h-32.5a.617.617 0 0 1-.6-.6.6.6 0 0 1 .6-.6h32.549a.593.593 0 0 1 .593.6z" fill="#fff" opacity=".52"/></g><path data-name="Path 6096" d="M91.63 133.164c-2.226-1.464-10.55 2.819-12.679 2.214s-1.21-2.843-1.21-2.843l4.331-8.057a5.178 5.178 0 0 0-2.105-7.017l-6.907-3.739c-8.323-4.476-14.167-3.158-18.643 5.166l-7.428 20.24a2.649 2.649 0 0 0 1.21 3.242l10.525 5.65a8.65 8.65 0 0 0 9.122-.544 28.7 28.7 0 0 1 2.795-1.8c4.017-2.057 11.433-3.968 17.2-5.529s6.003-5.507 3.789-6.983z" fill="#f7958d"/><path data-name="Path 6097" d="M59.595 119.396c-.544 1.742-1.294 7.029-2.686 6.593l-.835-4.222c-1.391-.448-3.266 1.875-2.71.133l7.489-24.2a3.025 3.025 0 0 1 3.521-2.359 3.037 3.037 0 0 1 1.536 3.956z" fill="#f7958d"/><path data-name="Path 6098" d="M68.836 115.973a3.049 3.049 0 0 1-3.738 2.02 3.037 3.037 0 0 1-1.149-4.089l8.216-19.418a3.049 3.049 0 0 1 3.738-2.02 3.049 3.049 0 0 1 1.21 4.089z" fill="#f7958d"/><path data-name="Path 6099" d="M80.138 126.449a3.024 3.024 0 0 1-4.162.786 3.037 3.037 0 0 1 .133-4.234l13.719-16.018a3.037 3.037 0 0 1 4.174-.8 3.037 3.037 0 0 1-.145 4.246z" fill="#f7958d"/><path data-name="Path 6100" d="M77.125 117.122a3.025 3.025 0 0 1-3.92 1.621 3.025 3.025 0 0 1-.718-4.186l10.2-18.45a3.049 3.049 0 0 1 3.92-1.621 3.049 3.049 0 0 1 .726 4.186z" fill="#f7958d"/><path data-name="Path 6101" d="M64.882 98.953a1.573 1.573 0 1 1 .138-1.218 1.573 1.573 0 0 1-.138 1.218z" fill="#f2847e"/><path data-name="Path 6102" d="M76.06 96.205a1.561 1.561 0 1 1 .124-1.189 1.561 1.561 0 0 1-.124 1.189z" fill="#f2847e"/><path data-name="Path 6103" d="M86.525 98.128a1.573 1.573 0 1 1-.641-2.13 1.573 1.573 0 0 1 .641 2.13z" fill="#f2847e"/><path data-name="Path 6104" d="M93.361 109.331a1.561 1.561 0 1 1 .119-1.192 1.561 1.561 0 0 1-.119 1.192z" fill="#f2847e"/><path data-name="Path 6105" d="M131.614 108.316c3.629-5.928 17.808-15.727 17.724-12.413-.363 13.925 9.34 17.191 8.892 19.429s-6.267 11.965-9.17 12.1-20.664-13.855-17.446-19.116z" fill="#f7958d"/><path data-name="Path 6106" d="M139.333 118.078c-4.343.242-16.574-5-17.47-8.251-1.621-5.831-3.254-11.154-.121-11.626s5.178 4.513 5.42 7.162 7.827 3.436 7.827 3.436z" fill="#f7958d"/><path data-name="Path 6107" d="M133.091 106.637c1.21-3.133 2.952-7.658.665-13.308s-5.19.3-8.323.544-3.629-5.48 2.9-7.658 8.372-1.44 10.779 1.936 4.1 13.913 4.1 13.913z" fill="#f7958d"/><path data-name="Path 6108" d="M148.133 100.729c-.484-2.649-2.686-8.311-3.557-13.2-.786-4.4-3.315-5.541-11.808-5.3-6.485.181-3.629 4.331-1.924 4.331s7.827-.653 8.916 2.831c.932 3.037 2.105 13.925 2.105 13.925z" fill="#f7958d"/><path data-name="Path 6109" d="M147.887 104.939c0-3.363 2.77-12.231 1.815-14.639s-4.525-8.8-6.69-7.646c-1.706.9 1.379 7.646 1.379 9.812s-1.21 9.884-1.21 9.884z" fill="#f7958d"/><path data-name="Rectangle 194" fill="#eda03a" d="M112.766 100.306l36.98-23.601 2.175 3.407-36.98 23.6z"/><path data-name="Path 6110" d="M112.766 100.306l2.178 3.4h-3.061a.436.436 0 0 1-.4-.6z" fill="#00486e"/><path data-name="Path 6111" d="M123.678 102.193a1.561 1.561 0 1 1 .124-1.189 1.564 1.564 0 0 1-.124 1.189z" fill="#f2847e"/><path data-name="Path 6112" d="M125.19 91.244c-.411.762-1.077 1.21-1.5.968s-.423-1.028 0-1.791 1.077-1.21 1.5-.968.415 1.029 0 1.791z" fill="#f2847e"/><path data-name="Path 6113" d="M90.518 137.784c-1.21.4-2.311.1-2.565-.665s.46-1.706 1.621-2.105 2.323-.1 2.577.665-.472 1.719-1.633 2.105z" fill="#f2847e"/><path data-name="Path 6114" d="M130.816 84.518c-.871 0-1.573-.363-1.585-.835s.677-.871 1.549-.9 1.573.351 1.585.835-.69.876-1.549.9z" fill="#f2847e"/><path data-name="Path 6115" d="M152.52 78.638a2.093 2.093 0 1 1-.609-1.488 2.105 2.105 0 0 1 .609 1.488z" fill="#00486e"/></g></g><rect data-name="Rectangle 195" width="45" height="12" rx="4" transform="translate(26.949 16.776)" fill="#8ad6fb"/><rect data-name="Rectangle 207" width="45" height="11" rx="4" transform="translate(26.949 32.776)" fill="#8ad6fb"/><rect data-name="Rectangle 213" width="45" height="11" rx="4" transform="translate(26.949 48.776)" fill="#8ad6fb"/><rect data-name="Rectangle 201" width="45" height="12" rx="4" transform="translate(76.949 16.776)" fill="#8ad6fb"/><rect data-name="Rectangle 204" width="45" height="11" rx="4" transform="translate(76.949 32.776)" fill="#8ad6fb"/><rect data-name="Rectangle 210" width="45" height="11" rx="4" transform="translate(76.949 48.776)" fill="#8ad6fb"/><rect data-name="Rectangle 198" width="31" height="2" rx="1" transform="translate(36.949 21.776)" fill="#76acc7"/><rect data-name="Rectangle 205" width="31" height="3" rx="1.5" transform="translate(36.949 36.776)" fill="#76acc7"/><rect data-name="Rectangle 211" width="31" height="3" rx="1.5" transform="translate(36.949 51.776)" fill="#76acc7"/><rect data-name="Rectangle 199" width="32" height="2" rx="1" transform="translate(86.949 21.776)" fill="#76acc7"/><rect data-name="Rectangle 202" width="32" height="3" rx="1.5" transform="translate(86.949 36.776)" fill="#76acc7"/><rect data-name="Rectangle 208" width="32" height="3" rx="1.5" transform="translate(86.949 51.776)" fill="#76acc7"/><path data-name="Icon awesome-check-circle" d="M85.412 22.885a2.926 2.926 0 1 1-2.926-2.925 2.926 2.926 0 0 1 2.926 2.925zm-3.264 1.55l2.171-2.171a.189.189 0 0 0 0-.267l-.267-.267a.189.189 0 0 0-.267 0l-1.771 1.767-.826-.823a.189.189 0 0 0-.267 0l-.267.267a.189.189 0 0 0 0 .267l1.227 1.227a.189.189 0 0 0 .267 0zM34.94 38.246a2.926 2.926 0 1 1-2.926-2.925 2.926 2.926 0 0 1 2.926 2.925zm-3.264 1.55l2.171-2.171a.189.189 0 0 0 0-.267l-.267-.267a.189.189 0 0 0-.267 0l-1.771 1.767-.826-.823a.189.189 0 0 0-.267 0l-.267.267a.189.189 0 0 0 0 .267l1.227 1.227a.189.189 0 0 0 .267 0zm53.736-1.55a2.926 2.926 0 1 1-2.926-2.925 2.926 2.926 0 0 1 2.926 2.925zm-3.264 1.55l2.171-2.171a.189.189 0 0 0 0-.267l-.267-.267a.189.189 0 0 0-.267 0l-1.771 1.767-.826-.823a.189.189 0 0 0-.267 0l-.267.267a.189.189 0 0 0 0 .267l1.227 1.227a.189.189 0 0 0 .267 0zm3.264 13.811a2.926 2.926 0 1 1-2.926-2.925 2.926 2.926 0 0 1 2.926 2.925zm-3.264 1.55l2.171-2.171a.189.189 0 0 0 0-.267l-.267-.267a.189.189 0 0 0-.267 0l-1.771 1.767-.826-.823a.189.189 0 0 0-.267 0l-.267.267a.189.189 0 0 0 0 .267l1.227 1.227a.189.189 0 0 0 .267 0z" fill="#1f0" opacity=".18"/><path data-name="Icon awesome-plus-circle" d="M33.833 20.814a2.926 2.926 0 1 0 0 4.138 2.925 2.925 0 0 0 0-4.138zm-1.1 3.504a.142.142 0 0 1-.201 0l-.767-.766-.767.767a.142.142 0 0 1-.2 0l-.466-.465a.142.142 0 0 1 0-.201l.766-.766-.77-.77a.142.142 0 0 1 0-.2l.465-.466a.142.142 0 0 1 .201 0l.767.767.77-.77a.142.142 0 0 1 .204.003l.467.467a.142.142 0 0 1 0 .201l-.767.768.764.763a.142.142 0 0 1 0 .201zm1.1 27.218a2.926 2.926 0 1 0 0 4.138 2.925 2.925 0 0 0 0-4.138zm-1.1 3.504a.142.142 0 0 1-.201 0l-.767-.766-.767.767a.142.142 0 0 1-.2 0l-.466-.465a.142.142 0 0 1 0-.201l.766-.766-.77-.77a.142.142 0 0 1 0-.2l.465-.466a.142.142 0 0 1 .201 0l.767.767.77-.77a.142.142 0 0 1 .204.003l.467.467a.142.142 0 0 1 0 .201l-.767.768.764.763a.142.142 0 0 1 0 .201z" fill="red" opacity=".18"/></g></svg>